<svg width="20" height="21" viewBox="0 0 20 21" fill="none" xmlns="http://www.w3.org/2000/svg">
<path fill-rule="evenodd" clip-rule="evenodd" d="M3.28876 1.5H16.7114C17.2298 1.5 17.6501 1.92715 17.6501 2.44922V18.5508C17.6501 19.0746 17.2315 19.5 16.7114 19.5H3.28876C2.77021 19.5 2.3501 19.0729 2.3501 18.5508V2.44922C2.3501 1.92539 2.76867 1.5 3.28876 1.5ZM8.63353 3.29824H11.326V6H8.63353V3.29824ZM6.83839 6V3.29824H4.22741V6H6.83839ZM4.22741 7.8H6.83839V10.5H4.22741V7.8ZM8.63353 7.8H11.326V10.5H8.63353V7.8ZM13.1212 7.8V10.5H15.8112V7.8H13.1212ZM15.8112 6L15.8139 3.29824H13.1212V6H15.8112ZM15.8112 12.3L15.8139 17.6982L12.2236 17.7V15C12.2236 14.5025 11.8206 14.1 11.3236 14.1H8.63573C8.13871 14.1 7.73574 14.5025 7.73574 15V17.7L4.22741 17.6982V12.3H15.8112Z" fill="currentColor"/>
</svg>
