<svg width="15" height="16" viewBox="0 0 15 16" fill="none" xmlns="http://www.w3.org/2000/svg">
<path fill-rule="evenodd" clip-rule="evenodd" d="M6 2.45001C6 1.20737 7.00736 0.200012 8.25 0.200012H12.75C13.9926 0.200012 15 1.20737 15 2.45001V14.825C15 15.0321 14.8321 15.2 14.625 15.2H8.25H7.5H0.375C0.167893 15.2 0 15.0321 0 14.825V7.70001C0 6.45737 1.00736 5.45001 2.25 5.45001H6V2.45001ZM6 6.95001H2.25C1.83579 6.95001 1.5 7.2858 1.5 7.70001V13.7H6.75V7.70001C6.75 7.2858 6.41421 6.95001 6 6.95001ZM7.875 2.45001C7.66789 2.45001 7.5 2.61791 7.5 2.82501V4.32501C7.5 4.53212 7.66789 4.70001 7.875 4.70001H9.375C9.58211 4.70001 9.75 4.53212 9.75 4.32501V2.82501C9.75 2.61791 9.58211 2.45001 9.375 2.45001H7.875ZM11.25 2.82501C11.25 2.61791 11.4179 2.45001 11.625 2.45001H13.125C13.3321 2.45001 13.5 2.61791 13.5 2.82501V4.32501C13.5 4.53212 13.3321 4.70001 13.125 4.70001H11.625C11.4179 4.70001 11.25 4.53212 11.25 4.32501V2.82501ZM11.625 6.95001C11.4179 6.95001 11.25 7.11791 11.25 7.32501V8.82501C11.25 9.03212 11.4179 9.20001 11.625 9.20001H13.125C13.3321 9.20001 13.5 9.03212 13.5 8.82501V7.32501C13.5 7.11791 13.3321 6.95001 13.125 6.95001H11.625ZM11.25 11.825C11.25 11.6179 11.4179 11.45 11.625 11.45H13.125C13.3321 11.45 13.5 11.6179 13.5 11.825V13.325C13.5 13.5321 13.3321 13.7 13.125 13.7H11.625C11.4179 13.7 11.25 13.5321 11.25 13.325V11.825ZM3 9.57501C3 9.36791 3.16789 9.20001 3.375 9.20001H4.875C5.08211 9.20001 5.25 9.36791 5.25 9.57501V11.075C5.25 11.2821 5.08211 11.45 4.875 11.45H3.375C3.16789 11.45 3 11.2821 3 11.075V9.57501Z" fill="white"/>
</svg>
