<svg width="21" height="20" viewBox="0 0 21 20" fill="none" xmlns="http://www.w3.org/2000/svg">
<path d="M7.28614 14.9628L13.0145 9.23446L13.0146 14.2426H15.0513V5.75736H6.566V7.79409L11.5742 7.79418L5.84586 13.5225L7.28614 14.9628Z" fill="currentColor"/>
<path fill-rule="evenodd" clip-rule="evenodd" d="M17.8797 2.92893C21.785 6.83425 21.785 13.1658 17.8797 17.0711C13.9744 20.9764 7.64289 20.9764 3.73757 17.0711C-0.167743 13.1658 -0.167743 6.83425 3.73757 2.92893C7.64289 -0.976382 13.9744 -0.976382 17.8797 2.92893ZM18.8087 9.99991C18.8086 7.87842 17.9658 5.84342 16.4655 4.34315C14.9652 2.84287 12.9302 2.00008 10.8087 1.99991C8.68689 2.00008 6.65197 2.84296 5.15179 4.34315C3.65143 5.8435 2.80872 7.87825 2.80872 9.99991C2.80854 12.1218 3.65151 14.1566 5.15179 15.6569C6.65206 17.1571 8.68689 18.0001 10.8087 17.9999C12.9304 17.9999 14.9651 17.1572 16.4655 15.6569C17.9657 14.1567 18.8086 12.1218 18.8087 9.99991Z" fill="currentColor"/>
</svg>
