<svg width="20" height="21" viewBox="0 0 20 21" fill="none" xmlns="http://www.w3.org/2000/svg">
<path d="M12.1223 7.65823H12.5952L11.9647 10.7816C11.8746 11.2468 11.8446 11.5902 11.8746 11.8117C11.9046 12.0332 12.0548 12.144 12.325 12.144C12.5952 12.144 12.8617 12.0812 13.1244 11.9557C13.3946 11.8302 13.631 11.653 13.8337 11.4241C14.0438 11.1878 14.2127 10.9072 14.3403 10.5823C14.4754 10.25 14.543 9.8808 14.543 9.47468C14.543 8.89135 14.4342 8.37816 14.2165 7.93513C13.9988 7.4847 13.6986 7.10812 13.3158 6.80538C12.933 6.50264 12.4751 6.27373 11.9422 6.11867C11.4168 5.96361 10.8463 5.88608 10.2308 5.88608C9.56278 5.88608 8.93978 6.00053 8.36182 6.22943C7.78386 6.45833 7.28096 6.77584 6.85312 7.18196C6.42528 7.5807 6.08751 8.05696 5.83982 8.61076C5.59212 9.15717 5.46827 9.75527 5.46827 10.4051C5.46827 11.0475 5.57711 11.6308 5.79478 12.1551C6.01245 12.6719 6.32395 13.1113 6.72927 13.4731C7.1421 13.8423 7.6375 14.1229 8.21546 14.3149C8.80092 14.5142 9.45394 14.6139 10.1745 14.6139C10.4147 14.6139 10.6812 14.5844 10.9739 14.5253C11.2741 14.4736 11.5481 14.3961 11.7958 14.2927L12.0548 15.1234C11.6945 15.2711 11.3567 15.3708 11.0415 15.4225C10.7262 15.4742 10.3809 15.5 10.0056 15.5C9.22501 15.5 8.50068 15.3855 7.83265 15.1566C7.16462 14.9351 6.58291 14.6102 6.08751 14.182C5.59212 13.7537 5.20181 13.2294 4.91658 12.6092C4.63886 11.9815 4.5 11.269 4.5 10.4715C4.5 9.64451 4.65387 8.89504 4.96162 8.2231C5.26936 7.55116 5.68594 6.9789 6.21136 6.50633C6.74428 6.02637 7.35977 5.65717 8.05783 5.39873C8.75589 5.13291 9.49898 5 10.2871 5C11.0227 5 11.7057 5.10707 12.3362 5.3212C12.9742 5.52795 13.5259 5.827 13.9913 6.21835C14.4642 6.60232 14.832 7.0712 15.0947 7.625C15.3649 8.17141 15.5 8.78797 15.5 9.47468C15.5 9.93249 15.4099 10.3755 15.2298 10.8038C15.0496 11.2247 14.8019 11.6013 14.4867 11.9335C14.1789 12.2584 13.8187 12.5206 13.4058 12.7199C12.993 12.9119 12.5539 13.0079 12.0885 13.0079C11.8784 13.0079 11.6907 12.9858 11.5256 12.9415C11.368 12.8898 11.2366 12.8085 11.1315 12.6978C11.0339 12.5796 10.9701 12.4246 10.9401 12.2326C10.9101 12.0406 10.9214 11.8006 10.9739 11.5127H10.9289C10.8088 11.6899 10.6699 11.8671 10.5123 12.0443C10.3547 12.2215 10.182 12.384 9.99437 12.5316C9.80672 12.6719 9.60031 12.7864 9.37513 12.875C9.15745 12.9636 8.92477 13.0079 8.67707 13.0079C8.48192 13.0079 8.29802 12.9673 8.12538 12.8861C7.95275 12.8049 7.79887 12.6904 7.66377 12.5427C7.53617 12.3877 7.43483 12.2068 7.35977 12C7.28472 11.7932 7.24718 11.5643 7.24718 11.3133C7.24718 10.8703 7.32975 10.4272 7.49488 9.98418C7.66752 9.54114 7.90021 9.1424 8.19294 8.78797C8.48567 8.43354 8.82344 8.14557 9.20624 7.92405C9.59655 7.70253 10.0056 7.59177 10.4335 7.59177C10.7337 7.59177 10.9777 7.63608 11.1653 7.72468C11.353 7.80591 11.5331 7.90559 11.7057 8.02373L12.1223 7.65823ZM11.4017 8.84335C11.2666 8.70306 11.1315 8.60338 10.9964 8.5443C10.8613 8.48523 10.6887 8.4557 10.4785 8.4557C10.1633 8.4557 9.87052 8.54061 9.60031 8.71044C9.3376 8.88027 9.10867 9.0981 8.91351 9.36392C8.71836 9.62236 8.56448 9.91034 8.45189 10.2278C8.3393 10.538 8.28301 10.8407 8.28301 11.1361C8.28301 11.4019 8.34306 11.6382 8.46315 11.8449C8.59075 12.0443 8.82344 12.144 9.16121 12.144C9.31883 12.144 9.48396 12.0923 9.6566 11.9889C9.82924 11.8855 9.99812 11.7489 10.1633 11.5791C10.3359 11.4093 10.4973 11.2173 10.6474 11.0032C10.805 10.789 10.9439 10.5712 11.064 10.3497L11.4017 8.84335Z" fill="currentColor"/>
<path d="M18 10.5C18 12.6217 17.1571 14.6566 15.6569 16.1569C14.1566 17.6571 12.1217 18.5 10 18.5C7.87827 18.5 5.84344 17.6571 4.34315 16.1569C2.84285 14.6566 2 12.6217 2 10.5C2 8.37827 2.84285 6.34344 4.34315 4.84315C5.84344 3.34285 7.87827 2.5 10 2.5C12.1217 2.5 14.1566 3.34285 15.6569 4.84315C17.1571 6.34344 18 8.37827 18 10.5ZM10 20.5C15.523 20.5 20 16.023 20 10.5C20 4.977 15.523 0.5 10 0.5C4.477 0.5 0 4.977 0 10.5C0 16.023 4.477 20.5 10 20.5Z" fill="currentColor"/>
<path fill-rule="evenodd" clip-rule="evenodd" d="M10.2871 5.25C9.52769 5.25 8.8149 5.37795 8.1468 5.63237L8.14463 5.63319C7.47511 5.88107 6.88719 6.23411 6.37866 6.6921C5.87983 7.14076 5.48309 7.68489 5.18891 8.3272C4.89782 8.96278 4.75 9.67615 4.75 10.4715C4.75 11.239 4.88343 11.9157 5.14448 12.5064C5.41536 13.0949 5.78422 13.5893 6.25101 13.9928C6.71976 14.3981 7.27211 14.7074 7.91134 14.9194L7.91369 14.9201C8.55304 15.1392 9.24969 15.25 10.0056 15.25C10.3697 15.25 10.7012 15.2249 11.001 15.1758C11.2329 15.1377 11.4813 15.0712 11.7465 14.9747L11.6357 14.619C11.4419 14.6831 11.2365 14.7336 11.0199 14.7711C10.7159 14.8322 10.4338 14.8639 10.1745 14.8639C9.43131 14.8639 8.75081 14.7612 8.13574 14.5518C7.52896 14.3501 7.00316 14.0534 6.56262 13.6595C6.12879 13.2721 5.79594 12.802 5.56438 12.2521L5.56389 12.2509C5.33205 11.6925 5.21827 11.0761 5.21827 10.4051C5.21827 9.7229 5.34845 9.08943 5.61185 8.50813C5.8725 7.92556 6.22916 7.42195 6.68183 6.99986C7.1339 6.57095 7.66409 6.23688 8.26976 5.997C8.87916 5.75564 9.53363 5.63608 10.2308 5.63608C10.8672 5.63608 11.4616 5.71623 12.0125 5.87877C12.572 6.04161 13.0596 6.28407 13.4708 6.60929C13.8838 6.9359 14.2076 7.34237 14.4412 7.82561C14.6783 8.30848 14.793 8.86034 14.793 9.47468C14.793 9.90828 14.7209 10.3095 14.5725 10.675C14.4353 11.0238 14.252 11.3299 14.0207 11.59C13.7962 11.8435 13.5325 12.0415 13.2309 12.1819L13.2321 12.1813L13.1244 11.9557L13.2297 12.1824L13.2309 12.1819C12.9376 12.3218 12.6349 12.394 12.325 12.394C12.1595 12.394 11.9948 12.3606 11.8613 12.2621C11.7212 12.1587 11.649 12.0087 11.6269 11.8453C11.591 11.5806 11.6285 11.203 11.7192 10.7341L11.7196 10.7322L12.2897 7.90823H12.5447L12.5952 7.65823H12.3588L12.2897 7.90823H12.2164L12.2872 7.84615L12.1223 7.65823V7.90823H12.2164L11.7247 8.33966L11.5645 8.23005C11.4048 8.12072 11.2386 8.02884 11.066 7.95411L11.0622 7.95249L11.0586 7.95075C10.9158 7.88332 10.712 7.84177 10.4335 7.84177C10.0514 7.84177 9.68487 7.94005 9.33055 8.14096L9.33146 8.14043L9.20624 7.92405L9.32964 8.14147L9.33055 8.14096C8.97486 8.34693 8.66001 8.61504 8.38569 8.94718C8.11087 9.27992 7.89173 9.65483 7.72849 10.0732L7.72914 10.0715L7.49488 9.98418L7.72782 10.0749L7.72849 10.0732C7.5735 10.4896 7.49718 10.9026 7.49718 11.3133C7.49718 11.5393 7.53093 11.7389 7.59477 11.9147C7.6602 12.0949 7.74665 12.2487 7.85265 12.3788C7.85117 12.3772 7.8497 12.3756 7.84822 12.374L7.66377 12.5427L7.85681 12.3839C7.85542 12.3822 7.85404 12.3805 7.85265 12.3788C7.96572 12.5012 8.09195 12.5941 8.23181 12.6599C8.37038 12.7251 8.51784 12.7579 8.67707 12.7579C8.89422 12.7579 9.09473 12.7192 9.28087 12.6434L9.28358 12.6423C9.4877 12.562 9.67364 12.4589 9.84221 12.3333C9.84139 12.3339 9.84058 12.3345 9.83976 12.3352L9.99437 12.5316L9.84467 12.3314C9.84385 12.332 9.84303 12.3326 9.84221 12.3333C10.0174 12.1952 10.1784 12.0435 10.3255 11.8782C10.4766 11.7083 10.6086 11.5396 10.7219 11.3724L10.7963 11.2627H11.2736L11.2198 11.5575C11.17 11.8305 11.163 12.04 11.1871 12.194C11.2113 12.3488 11.2592 12.4569 11.319 12.5321C11.3169 12.53 11.3149 12.5278 11.3129 12.5257L11.1315 12.6978L11.3243 12.5386C11.3225 12.5364 11.3208 12.5343 11.319 12.5321C11.3909 12.6058 11.4817 12.663 11.5971 12.7018C11.5949 12.7012 11.5926 12.7006 11.5904 12.7L11.5256 12.9415L11.6035 12.7039C11.6014 12.7032 11.5992 12.7025 11.5971 12.7018C11.7355 12.7382 11.8985 12.7579 12.0885 12.7579C12.5177 12.7579 12.9202 12.6698 13.2987 12.494L13.2971 12.4948L13.4058 12.7199L13.3004 12.4932L13.2987 12.494C13.6843 12.3076 14.0192 12.0636 14.3052 11.7616C14.5999 11.451 14.8312 11.0995 14.9996 10.7061L14.9993 10.7069L15.2298 10.8038L15 10.7054L14.9996 10.7061C15.1669 10.3083 15.25 9.89844 15.25 9.47468C15.25 8.82151 15.1217 8.24364 14.8706 7.73582L14.8688 7.73216C14.622 7.21186 14.2774 6.77273 13.8337 6.41243L13.8304 6.40972C13.3921 6.04117 12.8697 5.75686 12.2592 5.55903L12.2558 5.55795C11.6538 5.35348 10.9982 5.25 10.2871 5.25ZM7.96994 5.16469C8.69764 4.88773 9.47067 4.75 10.2871 4.75C11.0466 4.75 11.7565 4.8605 12.415 5.08392C13.0791 5.29933 13.6588 5.61252 14.1506 6.02564C14.6513 6.43259 15.0414 6.93015 15.3197 7.51597C15.6084 8.10053 15.75 8.75517 15.75 9.47468C15.75 9.96628 15.6531 10.4422 15.4602 10.9007L15.4596 10.9022C15.2678 11.3503 15.0037 11.7518 14.6681 12.1056C14.339 12.453 13.9539 12.7329 13.5146 12.9451L13.5113 12.9466C13.0647 13.1543 12.5895 13.2579 12.0885 13.2579C11.8613 13.2579 11.6512 13.234 11.4608 13.1829L11.4542 13.1811L11.4477 13.179C11.2542 13.1156 11.0862 13.0132 10.9502 12.8699L10.9442 12.8636L10.9388 12.857C10.8059 12.6961 10.7282 12.4958 10.6931 12.2712C10.6907 12.2558 10.6885 12.2402 10.6866 12.2244C10.5225 12.4073 10.3432 12.5752 10.149 12.7281L10.1441 12.7319C9.93842 12.8857 9.71275 13.0107 9.46804 13.1071C9.21923 13.2082 8.95482 13.2579 8.67707 13.2579C8.44599 13.2579 8.22566 13.2095 8.01895 13.1123C7.81537 13.0165 7.63533 12.882 7.47931 12.7115L7.47489 12.7066L7.47072 12.7016C7.32342 12.5226 7.20862 12.3162 7.12478 12.0853C7.0385 11.8476 6.99718 11.5894 6.99718 11.3133C6.99718 10.8385 7.08579 10.3659 7.26062 9.89686L7.26192 9.8934C7.44388 9.42642 7.68992 9.00443 8.00018 8.62877C8.31109 8.25233 8.67148 7.94466 9.08103 7.70767L9.08284 7.70662C9.50886 7.46484 9.96022 7.34177 10.4335 7.34177C10.7536 7.34177 11.0364 7.38831 11.2682 7.49682C11.4106 7.55863 11.5487 7.6302 11.6826 7.71144L12.0282 7.40823H12.9007L12.2101 10.8292L12.2099 10.8302C12.1207 11.2911 12.0982 11.5999 12.1224 11.7781C12.1302 11.8362 12.1481 11.8523 12.1581 11.8597C12.1748 11.872 12.2203 11.894 12.325 11.894C12.5551 11.894 12.7849 11.8408 13.0166 11.7301L13.019 11.729C13.2572 11.6183 13.466 11.4622 13.6465 11.2583L13.6469 11.2579C13.8355 11.0458 13.9897 10.7912 14.1076 10.4909L14.1087 10.4881C14.2302 10.1894 14.293 9.85276 14.293 9.47468C14.293 8.92267 14.1901 8.4484 13.9921 8.04537L13.9914 8.04391C13.7897 7.62663 13.5131 7.28017 13.1607 7.00147C12.8064 6.7213 12.3785 6.50599 11.8723 6.35872L11.8714 6.35845C11.3716 6.21094 10.8253 6.13608 10.2308 6.13608C9.59192 6.13608 9.00041 6.24541 8.45388 6.46186C7.90401 6.67964 7.42867 6.98033 7.02524 7.36328L7.02357 7.36486C6.62112 7.73994 6.30259 8.1884 6.06803 8.71283L6.06752 8.71398C5.83571 9.22534 5.71827 9.78788 5.71827 10.4051C5.71827 11.0186 5.82209 11.5686 6.02543 12.0586C6.22917 12.5422 6.51917 12.9504 6.89576 13.2866C7.28066 13.6308 7.74551 13.8953 8.29426 14.0776L8.29605 14.0782C8.85168 14.2674 9.47692 14.3639 10.1745 14.3639C10.3947 14.3639 10.6442 14.3368 10.9244 14.2803L10.928 14.2795L10.9315 14.2789C11.2157 14.23 11.4713 14.1573 11.6995 14.062L11.9528 13.9563L12.3616 15.2678L12.1496 15.3547C11.7755 15.5081 11.4193 15.6138 11.0819 15.6692C10.7512 15.7234 10.3922 15.75 10.0056 15.75C9.20077 15.75 8.44916 15.632 7.75277 15.3935C7.05643 15.1625 6.44575 14.8221 5.92401 14.3711C5.40045 13.9185 4.98894 13.3649 4.68945 12.7136L4.68794 12.7103C4.39402 12.0461 4.25 11.2982 4.25 10.4715C4.25 9.61288 4.40993 8.8273 4.73432 8.119C5.05561 7.41748 5.49212 6.81702 6.04406 6.32056C6.6011 5.81888 7.2438 5.43367 7.96994 5.16469ZM9.46727 8.49878C9.77682 8.30423 10.1156 8.2057 10.4785 8.2057C10.7096 8.2057 10.9194 8.2378 11.0966 8.31524C11.2697 8.39092 11.4309 8.51322 11.5818 8.66994L11.6751 8.76682L11.3003 10.4383L11.2838 10.4688C11.1583 10.7002 11.0138 10.9269 10.8504 11.1491C10.6933 11.3729 10.5234 11.5752 10.3406 11.7554C10.1635 11.9372 9.97852 12.0876 9.78504 12.2034C9.58416 12.3237 9.37498 12.394 9.16121 12.394C8.77781 12.394 8.44405 12.2788 8.25259 11.9797L8.24968 11.9752L8.24698 11.9705C8.10232 11.7215 8.03301 11.441 8.03301 11.1361C8.03301 10.8087 8.09542 10.4774 8.21657 10.1435C8.33713 9.80371 8.50248 9.49368 8.71298 9.21462C8.92492 8.92625 9.17545 8.68741 9.46458 8.50049L9.46727 8.49878ZM9.73469 8.92126C9.49942 9.07359 9.29285 9.26966 9.11503 9.51187L9.11304 9.51459C8.93389 9.75183 8.79191 10.017 8.68752 10.3114L8.68689 10.3132C8.58307 10.5991 8.53301 10.873 8.53301 11.1361C8.53301 11.3605 8.58275 11.5509 8.67639 11.7143C8.74112 11.8121 8.8731 11.894 9.16121 11.894C9.26269 11.894 9.38377 11.8609 9.52817 11.7744C9.67925 11.684 9.83141 11.5618 9.98402 11.4048L9.98789 11.4009C10.1489 11.2425 10.3006 11.0623 10.4427 10.8597L10.446 10.8549C10.59 10.6593 10.7172 10.4612 10.8277 10.2607L11.127 8.92612C11.0442 8.85367 10.9671 8.80432 10.8963 8.77337C10.8032 8.73266 10.6678 8.7057 10.4785 8.7057C10.2115 8.7057 9.96519 8.77672 9.73469 8.92126Z" fill="currentColor"/>
</svg>
