<svg width="74" height="88" viewBox="0 0 74 88" fill="none" xmlns="http://www.w3.org/2000/svg">
<path d="M37.0003 44.6792C50.622 44.6792 61.6646 34.6774 61.6646 22.3396C61.6646 10.0018 50.622 0 37.0003 0C23.3786 0 12.3361 10.0018 12.3361 22.3396C12.3361 34.6774 23.3786 44.6792 37.0003 44.6792Z" fill="black"/>
<path d="M0.299589 70.0068C7.06254 57.1965 21.323 49.0217 37 48.9685C52.677 49.0217 66.9375 57.1965 73.7004 70.0068C74.1556 70.8725 74.0886 71.8892 73.5229 72.6997C73.5229 72.6997 61.6646 87.5 37.0003 87.5C14 87.5 0.47706 72.6997 0.47706 72.6997C-0.0886287 71.8892 -0.155632 70.8725 0.299589 70.0068Z" fill="black"/>
</svg>
