<svg width="20" height="20" viewBox="0 0 20 20" fill="none" xmlns="http://www.w3.org/2000/svg">
<path d="M18 10C18 12.1217 17.1571 14.1566 15.6569 15.6569C14.1566 17.1571 12.1217 18 10 18C7.87827 18 5.84344 17.1571 4.34315 15.6569C2.84285 14.1566 2 12.1217 2 10C2 7.87827 2.84285 5.84344 4.34315 4.34315C5.84344 2.84285 7.87827 2 10 2C12.1217 2 14.1566 2.84285 15.6569 4.34315C17.1571 5.84344 18 7.87827 18 10ZM10 20C15.523 20 20 15.523 20 10C20 4.477 15.523 0 10 0C4.477 0 0 4.477 0 10C0 15.523 4.477 20 10 20Z" fill="black"/>
<path d="M5.89625 12.8551C7.04622 12.5709 5.35423 11.7952 5.35423 11.4429C5.35423 11.3304 5.74139 10.9898 5.99338 10.8763C6.80237 10.512 7.80715 10.6143 8.62261 10.9188C8.98282 11.0532 9.69143 11.4384 10.0111 11.6394C10.0771 11.6809 10.1103 11.6925 10.1822 11.732L10.8641 12.1046C10.9398 12.1404 10.9732 12.1479 11.0475 12.1848C11.308 12.3141 11.5506 12.3717 11.829 12.4576C12.3947 12.632 12.9651 12.6509 13.7053 12.6509C13.8096 12.721 13.8129 12.7532 13.9559 12.8148C14.2284 12.932 14.3795 12.849 14.8097 13.0904C14.9874 13.1901 15.0832 13.2908 15.1951 13.4587C15.4251 13.8042 15.3981 13.9211 15.3981 14.312C15.3981 14.9652 14.5816 15.6401 13.7738 15.3758C13.1717 15.1789 12.9685 14.711 12.87 14.1687C12.839 13.9978 12.7393 13.8387 12.652 13.708C12.1986 13.708 12.2317 13.9881 11.8621 14.2365C11.7406 14.172 11.6518 14.1115 11.5235 14.0477C11.4044 13.9885 11.3019 13.9367 11.1723 13.8717C10.1428 13.3549 7.99715 12.6134 7.24172 13.8656C7.14446 14.0268 7.13454 14.1946 7.08537 14.3882C6.88694 15.1693 6.21466 15.5858 5.4886 15.3852C4.61329 15.1434 4.35438 14.0399 4.79963 13.4534L4.80961 13.4403C4.99592 13.1947 5.01125 13.1745 5.36623 13.0027C5.52765 12.9246 5.70301 12.9029 5.89625 12.8551Z" fill="black"/>
<path d="M6.85893 8.46056C5.95981 8.48066 5.1829 8.92359 4.90283 8.98908C5.00776 8.83181 5.75074 8.11932 5.98435 7.88488C6.15105 7.71759 6.41284 7.36772 6.61011 7.69098C6.62248 7.71127 6.67355 7.80114 6.67845 7.81115C6.76263 7.9832 6.76826 8.2709 6.85893 8.46056Z" fill="black"/>
<path d="M15.3981 5.96897L13.0282 5.28945C13.3615 4.65727 13.9939 4.39404 14.7067 4.69974C15.1908 4.90729 15.3981 5.38386 15.3981 5.96897Z" fill="black"/>
<path d="M8.10265 14.2342L7.76176 13.859C8.18241 13.2286 9.78905 13.5485 10.428 13.7881C10.6526 13.8723 10.8613 13.9669 11.0841 14.0734L11.7116 14.3497C11.6776 14.4776 11.6061 14.5126 11.5141 14.6046C9.85405 16.2651 10.15 16.2747 9.38869 15.5106L8.14066 14.2715C8.13504 14.2662 8.1265 14.259 8.12103 14.2535C8.11556 14.248 8.10792 14.2398 8.10265 14.2342Z" fill="black"/>
<path d="M7.61129 6.573C7.59164 6.48833 7.57367 6.4862 7.57367 6.38424C7.57367 6.22417 8.01088 5.85115 8.12856 5.73306L8.73044 5.12904C10.0905 3.76413 9.86914 3.72352 10.6866 4.54383C10.9207 4.77882 12.352 6.30873 12.5392 6.30873C12.7872 6.30873 12.8996 5.74343 12.9154 5.55371C13.1238 5.55371 13.3431 5.63269 13.5398 5.68205C13.7642 5.73835 13.9173 5.77898 14.1483 5.82645C14.3235 5.86247 14.5918 5.92408 14.767 5.96052C14.9855 6.00593 15.1937 6.03443 15.3981 6.08223C15.3554 6.17155 15.3783 6.15672 15.3451 6.25548C14.9813 7.3372 13.8244 6.92823 13.7053 7.44128C13.5541 7.42865 13.5744 7.40661 13.454 7.35371L12.7349 7.09384C12.0561 6.90733 11.8876 6.83471 11.1331 6.70051L9.64409 6.53378L8.02508 6.53524C7.81624 6.53524 7.80201 6.573 7.61129 6.573Z" fill="black"/>
<path d="M4.79935 10.9427C4.47879 10.621 4 10.2553 4 9.93285L5.02773 9.37868C5.41546 9.19181 6.79871 8.78861 7.08464 8.87582C7.16041 8.89893 7.42394 9.29109 7.98746 9.29109C8.88219 9.29109 8.35237 8.91192 9.16535 9.24155L9.90619 9.5551C10.5152 9.86184 11.8043 10.4191 12.4413 10.5974C13.1025 10.7825 14.3219 11.1031 14.9843 11.1031C14.9486 11.2372 14.82 11.3239 14.674 11.4713L13.7617 12.3678C13.7265 12.4112 13.7265 12.422 13.7053 12.4622C12.6034 12.4622 11.4111 12.1715 10.5078 11.5562L9.49982 10.9445C9.33443 10.8396 8.99248 10.6677 8.80014 10.5896C7.79565 10.1815 6.88053 10.0017 5.88084 10.4991C5.61392 10.6319 5.20091 10.9046 5.12853 11.2164C4.99331 11.1802 4.953 11.0969 4.79935 10.9427Z" fill="black"/>
<path d="M9.07837 8.80032C9.09049 8.6542 9.30408 8.41678 9.30408 8.00754C9.30408 7.66669 9.09905 7.26147 8.80073 7.04038C8.68516 6.95473 8.58711 6.93724 8.51411 6.83725C10.076 6.83725 10.2091 6.80434 11.6741 7.02589C12.2118 7.1072 13.256 7.40199 13.7384 7.63458C13.8782 7.70198 15.2163 9.0897 15.4264 9.30049C15.673 9.54803 16 9.79183 16 10.0461C16 10.1954 15.3618 10.782 15.21 10.9144C15.0551 10.8782 14.9165 10.8845 14.7436 10.854C13.0507 10.5551 12.1858 10.2798 10.6399 9.49828C10.3169 9.33497 9.31761 8.8203 9.07837 8.80032Z" fill="black"/>
</svg>
