<svg width="263" height="40" viewBox="0 0 263 40" fill="none" xmlns="http://www.w3.org/2000/svg">
<path d="M177.777 40C216.658 0.515681 188.996 28.4145 217.162 0H220C190.487 41.2879 214.512 7.68576 191.406 40H177.777Z" fill="white"/>
<path d="M174.873 -4.76837e-06H181.111C197.777 40 181.111 -4.76837e-06 197.777 40H191.346C174.873 -4.76837e-06 191.346 40 174.873 -4.76837e-06Z" fill="white"/>
<path d="M153.333 40C193.236 0.515681 164.846 28.4145 193.754 0H196.666C166.376 41.2879 191.034 7.68576 167.32 40H153.333Z" fill="white"/>
<path d="M262.222 40C223.342 0.515681 251.004 28.4145 222.837 0H220C249.513 41.2879 225.488 7.68576 248.593 40H262.222Z" fill="white"/>
<path d="M248.889 40C200.8 0.515681 235.013 28.4145 200.176 0H196.667C233.169 41.2879 203.454 7.68576 232.032 40H248.889Z" fill="white"/>
<path d="M11.9038 12.59V27.1094C11.9038 27.2978 11.751 27.4506 11.5626 27.4506H9.65431C9.46594 27.4506 9.31315 27.2978 9.31315 27.1094V14.4869H2.59057V27.1094C2.59057 27.2978 2.43778 27.4506 2.2494 27.4506H0.341167C0.15279 27.4506 0 27.2978 0 27.1094V12.59C0 12.4017 0.15279 12.2489 0.341167 12.2489H11.5626C11.751 12.2489 11.9038 12.4017 11.9038 12.59ZM14.7061 27.1094V12.59C14.7061 12.4017 14.8589 12.2489 15.0472 12.2489H24.7545C24.9429 12.2489 25.0957 12.4017 25.0957 12.59V14.1042C25.0957 14.2926 24.9429 14.4454 24.7545 14.4454H17.2966V18.6582H23.1366C23.325 18.6582 23.4778 18.811 23.4778 18.9993V20.4513C23.4778 20.6396 23.325 20.7924 23.1366 20.7924H17.2966V25.2541H25.0449C25.2333 25.2541 25.3861 25.4069 25.3861 25.5953V27.1094C25.3861 27.2978 25.2333 27.4506 25.0449 27.4506H15.0472C14.8589 27.4506 14.7061 27.2978 14.7061 27.1094ZM26.1142 14.1457V12.59C26.1142 12.4017 26.267 12.2489 26.4553 12.2489H37.4486C37.637 12.2489 37.7898 12.4017 37.7898 12.59V14.1457C37.7898 14.3341 37.637 14.4869 37.4486 14.4869H33.2473V27.1094C33.2473 27.2978 33.0945 27.4506 32.9061 27.4506H30.9978C30.8094 27.4506 30.6566 27.2978 30.6566 27.1094V14.4869H26.4553C26.267 14.4869 26.1142 14.3341 26.1142 14.1457ZM39.3683 27.1094V12.59C39.3683 12.4017 39.5211 12.2489 39.7095 12.2489H45.4757C46.9629 12.2489 48.2007 12.6324 49.189 13.3995C49.7001 13.7962 50.0832 14.2988 50.3379 14.907C50.5873 15.5026 50.712 16.196 50.712 16.9873C50.712 18.5779 50.2147 19.7566 49.2201 20.5234C48.7331 20.8988 48.1785 21.1798 47.5565 21.3663C46.9413 21.5506 46.2615 21.6428 45.5172 21.6428H41.9589V27.1094C41.9589 27.2978 41.8061 27.4506 41.6177 27.4506H39.7095C39.5211 27.4506 39.3683 27.2978 39.3683 27.1094ZM41.9589 19.4878H45.2683C45.7259 19.4878 46.133 19.4339 46.4894 19.3262C46.8351 19.2218 47.1341 19.0662 47.3859 18.8599C47.6284 18.6613 47.8103 18.4114 47.9315 18.1105C48.0581 17.7964 48.1214 17.4219 48.1214 16.9873C48.1214 16.1408 47.8762 15.5165 47.3859 15.1148C46.875 14.6962 46.1691 14.4869 45.2683 14.4869H41.9589V19.4878ZM53.5398 25.4987C52.9482 24.7728 52.5051 23.9364 52.2106 22.9897C51.9182 22.0498 51.772 21.003 51.772 19.8497C51.772 18.6965 51.9182 17.6498 52.2106 16.7097C52.5051 15.763 52.9482 14.9267 53.5398 14.2008C54.1379 13.4669 54.8612 12.9159 55.7095 12.5479C56.5514 12.1827 57.5098 12 58.5847 12C59.6683 12 60.632 12.1822 61.4754 12.5466C62.3259 12.9139 63.0509 13.4654 63.6503 14.2008C64.2419 14.9267 64.685 15.7631 64.9794 16.7098C65.2718 17.6498 65.4181 18.6965 65.4181 19.8497C65.4181 22.1697 64.8288 24.0527 63.6503 25.4987C63.0509 26.2341 62.3259 26.7856 61.4754 27.153C60.6319 27.5173 59.6683 27.6995 58.5847 27.6995C57.5099 27.6995 56.5514 27.5168 55.7095 27.1516C54.8612 26.7836 54.1379 26.2325 53.5398 25.4987ZM55.5003 15.7651C55.1233 16.2882 54.8399 16.888 54.65 17.5642C54.4584 18.2463 54.3626 19.0082 54.3626 19.8497C54.3626 20.6912 54.4584 21.4532 54.65 22.1353C54.8399 22.8114 55.1233 23.4112 55.5003 23.9344C55.8681 24.4449 56.307 24.8269 56.8166 25.0801C57.3282 25.3343 57.9177 25.4615 58.5847 25.4615C59.9212 25.4615 60.9563 24.9524 61.6897 23.9344C62.0667 23.4112 62.3502 22.8114 62.5401 22.1353C62.7316 21.4532 62.8275 20.6912 62.8275 19.8497C62.8275 19.0083 62.7317 18.2464 62.5401 17.5641C62.3502 16.888 62.0667 16.2882 61.6897 15.7651C60.9563 14.7471 59.9212 14.238 58.5847 14.238C57.262 14.238 56.2338 14.7471 55.5003 15.7651ZM75.9342 13.2654C77.9923 13.2705 79.6519 13.7983 80.9128 14.849C81.5579 15.3866 82.0416 16.0469 82.3635 16.8296C82.6821 17.604 82.8413 18.4932 82.8413 19.4972C82.8413 20.4944 82.682 21.3785 82.3635 22.1492C82.0414 22.9286 81.5577 23.5871 80.9128 24.1245C80.276 24.6552 79.5372 25.0526 78.6968 25.3163C77.8724 25.575 76.9515 25.7057 75.9342 25.7082V27.1094C75.9342 27.2978 75.7815 27.4506 75.5931 27.4506H73.747C73.5587 27.4506 73.4059 27.2978 73.4059 27.1094V25.7082C71.3519 25.7066 69.6924 25.1787 68.4273 24.1245C67.7824 23.5871 67.2988 22.9285 66.9766 22.1491C66.6581 21.3785 66.4988 20.4944 66.4988 19.4972C66.4988 18.4932 66.6581 17.6039 66.9766 16.8296C67.2986 16.0469 67.7822 15.3866 68.4273 14.849C69.6924 13.7948 71.3519 13.2669 73.4059 13.2653V12.3412C73.4059 12.1528 73.5587 12 73.747 12H75.5931C75.7815 12 75.9342 12.1528 75.9342 12.3412V13.2654ZM73.4059 23.5313V15.4422C72.7806 15.453 72.215 15.5402 71.7094 15.7037C71.1754 15.8763 70.704 16.1351 70.2956 16.4797C69.8962 16.8167 69.5963 17.2326 69.3959 17.7272C69.1916 18.2317 69.0894 18.8217 69.0894 19.4972C69.0894 20.1654 69.1916 20.7503 69.3959 21.2515C69.5961 21.7425 69.896 22.1567 70.2956 22.4938C70.704 22.8385 71.1754 23.0972 71.7094 23.2699C72.215 23.4333 72.7806 23.5205 73.4059 23.5313ZM75.9342 23.5313C76.5595 23.5205 77.1251 23.4333 77.6308 23.2699C78.1646 23.0972 78.636 22.8385 79.0445 22.4938C79.4441 22.1567 79.744 21.7424 79.9442 21.2516C80.1485 20.7503 80.2507 20.1654 80.2507 19.4972C80.2507 18.8217 80.1485 18.2316 79.9442 17.7272C79.7439 17.2326 79.4439 16.8167 79.0445 16.4797C78.636 16.1351 78.1646 15.8763 77.6308 15.7037C77.1251 15.5401 76.5595 15.453 75.9342 15.4422V23.5313ZM93.7216 12.2489H96.7084C96.8968 12.2489 97.0496 12.4017 97.0496 12.59V27.1094C97.0496 27.2978 96.8968 27.4506 96.7084 27.4506H94.8417C94.6533 27.4506 94.5005 27.2978 94.5005 27.1094V15.3279L88.3823 27.264C88.3223 27.3815 88.2032 27.4491 88.0798 27.4492V27.4506H85.0929C84.9045 27.4506 84.7518 27.2978 84.7518 27.1094V12.59C84.7518 12.4017 84.9045 12.2489 85.0929 12.2489H86.9804C87.1688 12.2489 87.3216 12.4017 87.3216 12.59V24.3678L93.4191 12.4355C93.4791 12.318 93.5982 12.2504 93.7216 12.2503V12.2489ZM107.56 19.6434L107.64 19.6685C108.233 19.8594 108.745 20.1244 109.177 20.4634C110.067 21.1609 110.511 22.1318 110.511 23.3759C110.511 24.0639 110.377 24.6777 110.11 25.2169C109.84 25.7593 109.439 26.2199 108.905 26.5985C108.384 26.968 107.773 27.2446 107.074 27.4282C106.385 27.6091 105.612 27.6995 104.756 27.6995C101.051 27.6995 99.0507 26.0818 98.7553 22.8465C98.7384 22.6596 98.8762 22.4943 99.0631 22.4774L99.0752 22.4765L100.88 22.3723C101.067 22.362 101.228 22.5058 101.238 22.6935L101.238 22.6971C101.328 23.645 101.656 24.3504 102.223 24.8129C102.802 25.2867 103.647 25.5238 104.756 25.5238C105.281 25.5238 105.743 25.4698 106.144 25.3621C106.533 25.2574 106.863 25.1027 107.135 24.8982C107.395 24.7024 107.59 24.4602 107.72 24.1719C107.854 23.8767 107.921 23.5283 107.921 23.127C107.921 22.7448 107.857 22.4115 107.731 22.1273C107.607 21.8491 107.42 21.6113 107.17 21.414C106.912 21.2109 106.588 21.0576 106.197 20.9541C105.79 20.8464 105.31 20.7924 104.756 20.7924H102.91C102.722 20.7924 102.569 20.6396 102.569 20.4513V18.9993C102.569 18.811 102.722 18.6582 102.91 18.6582H104.736C105.211 18.6582 105.625 18.6069 105.979 18.5044C106.321 18.4051 106.608 18.2583 106.841 18.064C107.068 17.8753 107.238 17.6486 107.352 17.3843C107.468 17.1147 107.526 16.8026 107.526 16.4481C107.526 16.0716 107.467 15.7434 107.347 15.4638C107.231 15.1922 107.056 14.9617 106.823 14.7726C106.583 14.577 106.295 14.4293 105.961 14.3296C105.617 14.2271 105.222 14.1758 104.777 14.1758C104.324 14.1758 103.91 14.2305 103.538 14.34C103.17 14.448 102.837 14.6101 102.54 14.826C102.254 15.0333 102.03 15.2963 101.867 15.6148C101.699 15.9443 101.592 16.3364 101.548 16.7911C101.53 16.9762 101.368 17.1126 101.183 17.0981L99.3782 16.9538C99.1906 16.9391 99.0504 16.775 99.0651 16.5874C99.0659 16.5768 99.0672 16.5664 99.069 16.5561C99.144 15.8029 99.3259 15.1432 99.6144 14.5771C99.9113 13.9945 100.32 13.5106 100.841 13.1258C101.352 12.748 101.939 12.4653 102.6 12.2778C103.254 12.0926 103.98 12 104.777 12C106.34 12 107.612 12.3424 108.591 13.0271C109.099 13.382 109.48 13.8202 109.736 14.3413C109.99 14.8586 110.117 15.4503 110.117 16.1162C110.117 16.6852 110.02 17.1995 109.827 17.6586C109.632 18.1234 109.34 18.5248 108.952 18.8624C108.573 19.1927 108.109 19.4532 107.56 19.6434ZM121.433 12.2489H124.42C124.608 12.2489 124.761 12.4017 124.761 12.59V27.1094C124.761 27.2978 124.608 27.4506 124.42 27.4506H122.553C122.365 27.4506 122.212 27.2978 122.212 27.1094V15.3279L116.094 27.264C116.034 27.3815 115.915 27.4491 115.791 27.4492V27.4506H112.804C112.616 27.4506 112.463 27.2978 112.463 27.1094V12.59C112.463 12.4017 112.616 12.2489 112.804 12.2489H114.692C114.88 12.2489 115.033 12.4017 115.033 12.59V24.3678L121.13 12.4355C121.19 12.318 121.309 12.2504 121.433 12.2503V12.2489ZM139.541 27.4506H137.259C137.145 27.4506 137.044 27.3946 136.982 27.3085L131.969 20.8547H130.154V27.1094C130.154 27.2978 130.001 27.4506 129.813 27.4506H127.904C127.716 27.4506 127.563 27.2978 127.563 27.1094V12.59C127.563 12.4017 127.716 12.2489 127.904 12.2489H129.813C130.001 12.2489 130.154 12.4017 130.154 12.59V18.6789H131.946L136.655 12.3861C136.722 12.2972 136.824 12.2503 136.927 12.2503V12.2489H139.126C139.314 12.2489 139.467 12.4017 139.467 12.59C139.467 12.6797 139.432 12.7614 139.376 12.8223L134.042 19.6402L139.807 26.8976C139.924 27.0447 139.9 27.2589 139.753 27.376C139.69 27.4258 139.615 27.4507 139.541 27.4506ZM151.178 27.1917L149.979 23.6341H143.87L142.643 27.2187C142.595 27.3606 142.462 27.45 142.32 27.45L140.412 27.4506C140.223 27.4506 140.071 27.2978 140.071 27.1094C140.071 27.0602 140.081 27.0133 140.1 26.971L145.172 12.4781C145.221 12.3378 145.353 12.2499 145.494 12.2499L148.398 12.2489C148.556 12.2489 148.69 12.3572 148.728 12.504L153.8 26.9975C153.862 27.1749 153.769 27.3688 153.591 27.4306C153.554 27.4435 153.516 27.4496 153.479 27.4496L151.509 27.4506C151.349 27.4506 151.214 27.3403 151.178 27.1917ZM146.924 14.686L144.601 21.4998H149.229L146.924 14.686Z" fill="white"/>
</svg>
