<svg width="395" height="60" viewBox="0 0 395 60" fill="none" xmlns="http://www.w3.org/2000/svg">
<path d="M267.642 60C325.963 0.773525 284.47 42.6218 326.719 3.8147e-06H330.975C286.706 61.9319 322.744 11.5286 288.086 60H267.642Z" fill="white"/>
<path d="M263.285 -3.8147e-06H272.643C297.643 60 272.643 -3.8147e-06 297.643 60H287.995C263.285 -3.8147e-06 287.995 60 263.285 -3.8147e-06Z" fill="white"/>
<path d="M230.976 60C290.831 0.773525 248.246 42.6218 291.607 3.8147e-06H295.976C250.541 61.9319 287.527 11.5286 251.957 60H230.976Z" fill="white"/>
<path d="M394.309 60C335.988 0.773525 377.481 42.6218 335.232 3.8147e-06H330.976C375.245 61.9319 339.207 11.5286 373.865 60H394.309Z" fill="white"/>
<path d="M374.309 60C302.175 0.773525 353.496 42.6218 301.24 3.8147e-06H295.976C350.73 61.9319 306.157 11.5286 349.024 60H374.309Z" fill="white"/>
<path d="M18.8312 0.88505V22.6642C18.8312 22.9467 18.602 23.1759 18.3195 23.1759H15.4571C15.1745 23.1759 14.9453 22.9467 14.9453 22.6642V3.73028H4.86144V22.6642C4.86144 22.9467 4.63225 23.1759 4.34969 23.1759H1.48734C1.20477 23.1759 0.975586 22.9467 0.975586 22.6642V0.88505C0.975586 0.602485 1.20477 0.3733 1.48734 0.3733H18.3195C18.602 0.3733 18.8312 0.602485 18.8312 0.88505ZM23.0347 22.6642V0.88505C23.0347 0.602485 23.2639 0.3733 23.5464 0.3733H38.1073C38.3899 0.3733 38.6191 0.602485 38.6191 0.88505V3.1563C38.6191 3.43887 38.3899 3.66805 38.1073 3.66805H26.9205V9.98725H35.6805C35.9631 9.98725 36.1922 10.2164 36.1922 10.499V12.6769C36.1922 12.9595 35.9631 13.1887 35.6805 13.1887H26.9205V19.8812H38.5429C38.8255 19.8812 39.0547 20.1103 39.0547 20.3929V22.6642C39.0547 22.9467 38.8255 23.1759 38.5429 23.1759H23.5464C23.2639 23.1759 23.0347 22.9467 23.0347 22.6642ZM40.1469 3.21853V0.88505C40.1469 0.602485 40.376 0.3733 40.6586 0.3733H57.1485C57.4311 0.3733 57.6602 0.602485 57.6602 0.88505V3.21853C57.6602 3.5011 57.4311 3.73028 57.1485 3.73028H50.8465V22.6642C50.8465 22.9467 50.6173 23.1759 50.3347 23.1759H47.4723C47.1897 23.1759 46.9605 22.9467 46.9605 22.6642V3.73028H40.6586C40.376 3.73028 40.1469 3.5011 40.1469 3.21853ZM60.028 22.6642V0.88505C60.028 0.602485 60.2572 0.3733 60.5398 0.3733H69.1892C71.42 0.3733 73.2767 0.948656 74.7591 2.09922C75.5258 2.69423 76.1004 3.44822 76.4824 4.36047C76.8565 5.25385 77.0436 6.29404 77.0436 7.48101C77.0436 9.86679 76.2976 11.6349 74.8058 12.7851C74.0752 13.3482 73.2433 13.7697 72.3103 14.0494C71.3875 14.326 70.3678 14.4643 69.2514 14.4643H63.9139V22.6642C63.9139 22.9467 63.6847 23.1759 63.4021 23.1759H60.5398C60.2572 23.1759 60.028 22.9467 60.028 22.6642ZM63.9139 11.2317H68.8781C69.5644 11.2317 70.1751 11.1508 70.7097 10.9894C71.2282 10.8327 71.6767 10.5993 72.0545 10.2899C72.4181 9.99197 72.691 9.61707 72.8729 9.16574C73.0627 8.69453 73.1577 8.13288 73.1577 7.48101C73.1577 6.21114 72.7899 5.27474 72.0545 4.67219C71.2881 4.04432 70.2292 3.73028 68.8781 3.73028H63.9139V11.2317ZM81.2853 20.248C80.3978 19.1592 79.7332 17.9046 79.2915 16.4846C78.8529 15.0747 78.6335 13.5045 78.6335 11.7746C78.6335 10.0447 78.8529 8.47463 79.2915 7.06456C79.7332 5.64456 80.3979 4.38999 81.2853 3.30121C82.1824 2.2004 83.2674 1.37388 84.5398 0.821806C85.8027 0.274011 87.2403 3.8147e-06 88.8526 3.8147e-06C90.478 3.8147e-06 91.9235 0.273358 93.1887 0.819848C94.4644 1.37084 95.552 2.19808 96.451 3.30121C97.3384 4.38999 98.003 5.64463 98.4447 7.06463C98.8833 8.47463 99.1027 10.0447 99.1027 11.7746C99.1027 15.2545 98.2187 18.079 96.451 20.248C95.552 21.3511 94.4644 22.1784 93.1886 22.7294C91.9235 23.2759 90.478 23.5493 88.8526 23.5493C87.2404 23.5493 85.8027 23.2753 84.5398 22.7274C83.2674 22.1753 82.1824 21.3487 81.2853 20.248ZM84.226 5.64768C83.6606 6.43234 83.2354 7.33204 82.9506 8.34626C82.6632 9.36947 82.5195 10.5123 82.5195 11.7746C82.5195 13.0369 82.6632 14.1797 82.9506 15.203C83.2354 16.2172 83.6606 17.1168 84.226 17.9016C84.7777 18.6673 85.4361 19.2404 86.2005 19.6202C86.9679 20.0015 87.8521 20.1923 88.8526 20.1923C90.8574 20.1923 92.41 19.4287 93.5102 17.9016C94.0756 17.1168 94.5009 16.2172 94.7857 15.203C95.073 14.1797 95.2168 13.0369 95.2168 11.7746C95.2168 10.5124 95.0731 9.36954 94.7857 8.34619C94.5009 7.33204 94.0756 6.43234 93.5102 5.64768C92.41 4.12062 90.8574 3.35699 88.8526 3.35699C86.8686 3.35699 85.3263 4.12062 84.226 5.64768ZM114.877 1.89803C117.964 1.90572 120.453 2.6975 122.345 4.27351C123.312 5.07986 124.038 6.07029 124.521 7.24436C124.999 8.40595 125.238 9.73986 125.238 11.2457C125.238 12.7415 124.999 14.0677 124.521 15.2238C124.038 16.3929 123.312 17.3806 122.345 18.1868C121.39 18.9828 120.281 19.5789 119.021 19.9745C117.784 20.3625 116.403 20.5586 114.877 20.5623V22.6642C114.877 22.9467 114.648 23.1759 114.365 23.1759H111.596C111.314 23.1759 111.084 22.9467 111.084 22.6642V20.5623C108.003 20.5599 105.514 19.7681 103.617 18.1868C102.649 17.3806 101.924 16.3928 101.441 15.2237C100.963 14.0677 100.724 12.7415 100.724 11.2457C100.724 9.73986 100.963 8.40588 101.441 7.24443C101.923 6.07029 102.649 5.07986 103.617 4.27351C105.514 2.6922 108.003 1.90035 111.084 1.89796V0.511754C111.084 0.229189 111.314 3.8147e-06 111.596 3.8147e-06H114.365C114.648 3.8147e-06 114.877 0.229189 114.877 0.511754V1.89803ZM111.084 17.297V5.16327C110.146 5.17951 109.298 5.31028 108.54 5.55549C107.739 5.81449 107.032 6.20258 106.419 6.71962C105.82 7.22506 105.37 7.84894 105.069 8.59082C104.763 9.34749 104.61 10.2326 104.61 11.2457C104.61 12.2481 104.763 13.1254 105.069 13.8773C105.37 14.6137 105.82 15.235 106.419 15.7407C107.032 16.2577 107.739 16.6458 108.54 16.9048C109.298 17.15 110.146 17.2808 111.084 17.297ZM114.877 17.297C115.815 17.2808 116.663 17.15 117.422 16.9048C118.223 16.6459 118.93 16.2577 119.542 15.7407C120.142 15.235 120.592 14.6137 120.892 13.8774C121.198 13.1254 121.352 12.2481 121.352 11.2457C121.352 10.2325 121.198 9.34742 120.892 8.59075C120.591 7.84887 120.141 7.22499 119.542 6.71962C118.93 6.20258 118.223 5.81442 117.422 5.55549C116.663 5.31021 115.815 5.17951 114.877 5.16327V17.297ZM141.558 0.3733H146.038C146.321 0.3733 146.55 0.602485 146.55 0.88505V22.6642C146.55 22.9467 146.321 23.1759 146.038 23.1759H143.238C142.956 23.1759 142.726 22.9467 142.726 22.6642V4.99181L133.549 22.896C133.459 23.0723 133.28 23.1737 133.095 23.1738V23.1759H128.615C128.332 23.1759 128.103 22.9467 128.103 22.6642V0.88505C128.103 0.602485 128.332 0.3733 128.615 0.3733H131.446C131.729 0.3733 131.958 0.602485 131.958 0.88505V18.5517L141.104 0.653181C141.194 0.476941 141.373 0.375548 141.558 0.375403V0.3733ZM162.315 11.4651L162.435 11.5028C163.325 11.7891 164.094 12.1866 164.742 12.6951C166.075 13.7413 166.742 15.1977 166.742 17.0638C166.742 18.0959 166.542 19.0166 166.14 19.8254C165.736 20.6389 165.134 21.3299 164.333 21.8977C163.551 22.452 162.636 22.8669 161.587 23.1423C160.553 23.4136 159.394 23.5493 158.11 23.5493C152.552 23.5493 149.552 21.1227 149.109 16.2698C149.083 15.9894 149.29 15.7415 149.57 15.7161L149.588 15.7148L152.295 15.5585C152.577 15.543 152.817 15.7587 152.833 16.0402L152.833 16.0457C152.968 17.4675 153.46 18.5256 154.309 19.2193C155.179 19.9301 156.446 20.2856 158.11 20.2856C158.897 20.2856 159.59 20.2047 160.191 20.0431C160.775 19.8862 161.27 19.6541 161.678 19.3474C162.068 19.0536 162.361 18.6903 162.556 18.2579C162.756 17.8151 162.856 17.2925 162.856 16.6905C162.856 16.1172 162.762 15.6173 162.572 15.191C162.386 14.7737 162.105 14.4169 161.73 14.121C161.344 13.8164 160.857 13.5864 160.271 13.4312C159.66 13.2695 158.94 13.1887 158.11 13.1887H155.341C155.058 13.1887 154.829 12.9595 154.829 12.6769V10.499C154.829 10.2164 155.058 9.98725 155.341 9.98725H158.079C158.792 9.98725 159.414 9.9103 159.944 9.75654C160.457 9.60772 160.888 9.38745 161.238 9.09604C161.578 8.8129 161.833 8.47289 162.004 8.07639C162.178 7.67212 162.265 7.20396 162.265 6.67212C162.265 6.10735 162.176 5.61511 161.996 5.19576C161.822 4.7883 161.56 4.44257 161.211 4.15884C160.85 3.86547 160.418 3.6439 159.916 3.49435C159.401 3.34059 158.809 3.26364 158.141 3.26364C157.461 3.26364 156.841 3.34574 156.282 3.50994C155.73 3.67197 155.231 3.91508 154.785 4.23906C154.357 4.54991 154.021 4.94438 153.776 5.42219C153.523 5.91639 153.364 6.50465 153.297 7.1867C153.271 7.46433 153.027 7.66893 152.75 7.6471L150.043 7.43075C149.761 7.4087 149.551 7.16254 149.573 6.88107C149.574 6.86518 149.576 6.84959 149.579 6.83422C149.692 5.70439 149.964 4.71483 150.397 3.86562C150.843 2.99181 151.456 2.26596 152.237 1.68872C153.004 1.12207 153.884 0.698003 154.876 0.416744C155.857 0.138965 156.945 3.8147e-06 158.141 3.8147e-06C160.486 3.8147e-06 162.393 0.51364 163.862 1.54069C164.624 2.07304 165.196 2.73028 165.58 3.5119C165.961 4.28787 166.151 5.17545 166.151 6.17429C166.151 7.02779 166.006 7.79919 165.716 8.48783C165.423 9.18503 164.985 9.78715 164.404 10.2936C163.835 10.7891 163.139 11.1797 162.315 11.4651ZM183.125 0.3733H187.605C187.888 0.3733 188.117 0.602485 188.117 0.88505V22.6642C188.117 22.9467 187.888 23.1759 187.605 23.1759H184.805C184.522 23.1759 184.293 22.9467 184.293 22.6642V4.99181L175.116 22.896C175.026 23.0723 174.847 23.1737 174.662 23.1738V23.1759H170.182C169.899 23.1759 169.67 22.9467 169.67 22.6642V0.88505C169.67 0.602485 169.899 0.3733 170.182 0.3733H173.013C173.296 0.3733 173.525 0.602485 173.525 0.88505V18.5517L182.671 0.653181C182.761 0.476941 182.94 0.375548 183.125 0.375403V0.3733ZM210.287 23.1759H206.864C206.693 23.1759 206.542 23.0919 206.449 22.9628L198.929 13.282H196.206V22.6642C196.206 22.9467 195.977 23.1759 195.695 23.1759H192.832C192.55 23.1759 192.32 22.9467 192.32 22.6642V0.88505C192.32 0.602485 192.55 0.3733 192.832 0.3733H195.695C195.977 0.3733 196.206 0.602485 196.206 0.88505V10.0184H198.895L205.959 0.579204C206.059 0.445827 206.211 0.375476 206.366 0.375403V0.3733H209.664C209.947 0.3733 210.176 0.602485 210.176 0.88505C210.176 1.01959 210.124 1.14209 210.039 1.2334L202.038 11.4603L210.686 22.3463C210.862 22.5671 210.825 22.8884 210.604 23.0639C210.51 23.1387 210.398 23.176 210.287 23.1759ZM227.742 22.7875L225.944 17.4511H216.78L214.939 22.8281C214.867 23.0409 214.669 23.175 214.456 23.175L211.593 23.1759C211.311 23.1759 211.082 22.9467 211.082 22.6642C211.082 22.5903 211.097 22.52 211.126 22.4565L218.734 0.71715C218.808 0.506677 219.005 0.374823 219.216 0.374823L223.572 0.3733C223.81 0.3733 224.01 0.535833 224.067 0.755952L231.676 22.4963C231.769 22.7623 231.628 23.0532 231.362 23.1459C231.307 23.1653 231.25 23.1744 231.195 23.1744L228.239 23.1759C227.999 23.1759 227.797 23.0105 227.742 22.7875ZM221.361 4.02895L217.877 14.2497H224.82L221.361 4.02895Z" fill="white"/>
</svg>
