<svg width="15" height="13" viewBox="0 0 15 13" fill="none" xmlns="http://www.w3.org/2000/svg">
<path d="M1.5 0.323547H13.5C13.8978 0.323547 14.2794 0.486231 14.5607 0.775809C14.842 1.06539 15 1.45814 15 1.86767V11.1324C15 11.5419 14.842 11.9346 14.5607 12.2242C14.2794 12.5138 13.8978 12.6765 13.5 12.6765H1.5C0.6675 12.6765 0 11.9816 0 11.1324V1.86767C0 1.01068 0.6675 0.323547 1.5 0.323547ZM7.5 5.72796L13.5 1.86767H1.5L7.5 5.72796ZM1.5 11.1324H13.5V3.69744L7.5 7.55002L1.5 3.69744V11.1324Z" fill="white"/>
</svg>
