<svg width="15" height="16" viewBox="0 0 15 16" fill="none" xmlns="http://www.w3.org/2000/svg">
<path d="M3.01667 6.89163C4.21667 9.24996 6.15 11.1833 8.50833 12.3833L10.3417 10.55C10.575 10.3166 10.9 10.25 11.1917 10.3416C12.125 10.65 13.125 10.8166 14.1667 10.8166C14.3877 10.8166 14.5996 10.9044 14.7559 11.0607C14.9122 11.217 15 11.4289 15 11.65V14.5666C15 14.7876 14.9122 14.9996 14.7559 15.1559C14.5996 15.3122 14.3877 15.4 14.1667 15.4C10.4094 15.4 6.80609 13.9074 4.14932 11.2506C1.49256 8.59388 0 4.99053 0 1.2333C0 1.01228 0.0877973 0.800321 0.244078 0.644041C0.400358 0.487761 0.61232 0.399963 0.833333 0.399963H3.75C3.97101 0.399963 4.18298 0.487761 4.33926 0.644041C4.49554 0.800321 4.58333 1.01228 4.58333 1.2333C4.58333 2.27496 4.75 3.27496 5.05833 4.2083C5.15 4.49996 5.08333 4.82496 4.85 5.0583L3.01667 6.89163Z" fill="white"/>
</svg>
