<svg width="15" height="20" viewBox="0 0 15 20" fill="none" xmlns="http://www.w3.org/2000/svg">
<path fill-rule="evenodd" clip-rule="evenodd" d="M7.5 19.4031L8.04811 18.9245C12.6572 14.8999 15 11.3858 15 8.29681C15 3.92237 11.5858 0.796814 7.5 0.796814C3.41421 0.796814 0 3.92237 0 8.29681C0 11.3858 2.34276 14.8999 6.95189 18.9245L7.5 19.4031ZM7.5 17.183C3.58884 13.6581 1.66667 10.6712 1.66667 8.29681C1.66667 4.87732 4.30343 2.46348 7.5 2.46348C10.6966 2.46348 13.3333 4.87732 13.3333 8.29681C13.3333 10.6712 11.4112 13.6581 7.5 17.183ZM7.5 4.13015C9.80119 4.13015 11.6667 5.99563 11.6667 8.29681C11.6667 10.598 9.80119 12.4635 7.5 12.4635C5.19881 12.4635 3.33333 10.598 3.33333 8.29681C3.33333 5.99563 5.19881 4.13015 7.5 4.13015ZM5 8.29681C5 6.9161 6.11929 5.79681 7.5 5.79681C8.88071 5.79681 10 6.9161 10 8.29681C10 9.67753 8.88071 10.7968 7.5 10.7968C6.11929 10.7968 5 9.67753 5 8.29681Z" fill="white"/>
</svg>
