<svg width="21" height="20" viewBox="0 0 21 20" fill="none" xmlns="http://www.w3.org/2000/svg">
<path d="M18.3086 10C18.3086 12.1217 17.4657 14.1566 15.9655 15.6569C14.4652 17.1571 12.4303 18 10.3086 18C8.18686 18 6.15203 17.1571 4.65174 15.6569C3.15144 14.1566 2.30859 12.1217 2.30859 10C2.30859 7.87827 3.15144 5.84344 4.65174 4.34315C6.15203 2.84285 8.18686 2 10.3086 2C12.4303 2 14.4652 2.84285 15.9655 4.34315C17.4657 5.84344 18.3086 7.87827 18.3086 10ZM10.3086 20C15.8316 20 20.3086 15.523 20.3086 10C20.3086 4.477 15.8316 0 10.3086 0C4.78559 0 0.308594 4.477 0.308594 10C0.308594 15.523 4.78559 20 10.3086 20ZM10.6666 7.382C9.69459 7.78667 7.75092 8.62433 4.83559 9.895C4.36159 10.083 4.11359 10.267 4.09159 10.447C4.05359 10.751 4.43459 10.871 4.95359 11.034L5.17159 11.104C5.68159 11.27 6.36959 11.464 6.72659 11.472C7.05059 11.4787 7.41192 11.3453 7.81059 11.072C10.5346 9.232 11.9406 8.30233 12.0286 8.283C12.0916 8.269 12.1776 8.251 12.2356 8.303C12.2946 8.355 12.2886 8.453 12.2826 8.48C12.2446 8.641 10.7486 10.032 9.97459 10.751C9.74526 10.967 9.51759 11.1847 9.29159 11.404C8.81759 11.861 8.46159 12.204 9.31159 12.764C10.1726 13.332 11.0416 13.898 11.8816 14.497C12.2956 14.793 12.6676 15.057 13.1276 15.016C13.3946 14.991 13.6706 14.74 13.8106 13.99C14.1426 12.22 14.7936 8.382 14.9436 6.8C14.9523 6.66877 14.9466 6.53699 14.9266 6.407C14.9148 6.30238 14.8641 6.20602 14.7846 6.137C14.6646 6.039 14.4796 6.019 14.3976 6.02C14.0216 6.027 13.4446 6.227 10.6676 7.382" fill="currentColor"/>
</svg>
