<svg width="20" height="21" viewBox="0 0 20 21" fill="none" xmlns="http://www.w3.org/2000/svg">
<path fill-rule="evenodd" clip-rule="evenodd" d="M0 10.5C0 4.97715 4.47715 0.5 10 0.5C15.5204 0.505971 19.994 4.97963 20 10.5C20 16.0228 15.5228 20.5 10 20.5C4.47715 20.5 0 16.0228 0 10.5ZM2.0833 10.5C2.0833 14.8723 5.62771 18.4167 9.99997 18.4167C14.3701 18.4116 17.9116 14.8702 17.9166 10.5C17.9166 6.12777 14.3722 2.58336 9.99997 2.58336C5.62771 2.58336 2.0833 6.12777 2.0833 10.5ZM9.99995 11.3333C11.8409 11.3333 13.3333 9.84092 13.3333 7.99997C13.3333 6.15902 11.8409 4.66664 9.99995 4.66664C8.159 4.66664 6.66662 6.15902 6.66662 7.99997C6.66662 9.84092 8.159 11.3333 9.99995 11.3333ZM5.03991 15.1125C5.95391 13.201 7.88118 11.9813 9.9999 11.9733C12.1186 11.9813 14.0459 13.201 14.9599 15.1125C15.0214 15.2417 15.0124 15.3934 14.9359 15.5143C14.8595 15.6352 14.7263 15.7085 14.5832 15.7083H5.41657C5.2735 15.7085 5.14034 15.6352 5.06389 15.5143C4.98744 15.3934 4.97838 15.2417 5.03991 15.1125Z" fill="currentColor"/>
</svg>
