<svg width="15" height="17" viewBox="0 0 15 17" fill="none" xmlns="http://www.w3.org/2000/svg">
<path d="M7.5 2.22382C8.5875 2.22382 9.46875 3.16014 9.46875 4.31561C9.46875 5.47108 8.5875 6.40741 7.5 6.40741C6.4125 6.40741 5.53125 5.47108 5.53125 4.31561C5.53125 3.16014 6.4125 2.22382 7.5 2.22382ZM7.5 11.1887C10.2844 11.1887 13.2188 12.643 13.2188 13.2805V14.3762H1.78125V13.2805C1.78125 12.643 4.71562 11.1887 7.5 11.1887ZM7.5 0.331238C5.42812 0.331238 3.75 2.11425 3.75 4.31561C3.75 6.51698 5.42812 8.29999 7.5 8.29999C9.57187 8.29999 11.25 6.51698 11.25 4.31561C11.25 2.11425 9.57187 0.331238 7.5 0.331238ZM7.5 9.29608C4.99687 9.29608 0 10.6308 0 13.2805V16.2687H15V13.2805C15 10.6308 10.0031 9.29608 7.5 9.29608Z" fill="white"/>
</svg>
