<svg width="21" height="20" viewBox="0 0 21 20" fill="none" xmlns="http://www.w3.org/2000/svg">
<path d="M13.2253 11.519L15.1621 12.0701C15.2698 12.1002 15.369 12.1551 15.4517 12.2305C15.5344 12.3059 15.5981 12.3995 15.638 12.504C15.6778 12.6085 15.6925 12.7209 15.6809 12.8321C15.6693 12.9433 15.6318 13.0502 15.5713 13.1443C15.1932 13.7365 14.5914 14.4609 13.8391 14.6413C12.5141 14.961 10.477 14.6493 7.93441 12.2955C5.73382 10.2574 5.15207 8.56094 5.28948 7.21521C5.36672 6.45065 6.00864 5.76225 6.54926 5.30833C6.63503 5.23615 6.7364 5.18482 6.84538 5.15839C6.95437 5.13196 7.06801 5.13114 7.17736 5.156C7.28672 5.18086 7.38881 5.23072 7.47562 5.30166C7.56243 5.37261 7.63158 5.4627 7.67764 5.56485L8.49208 7.39257C8.54468 7.51051 8.56416 7.64052 8.54843 7.76868C8.53271 7.89683 8.48237 8.01829 8.40281 8.12005L7.98958 8.65113C7.90344 8.75987 7.85203 8.89197 7.84201 9.03028C7.832 9.16859 7.86384 9.30671 7.93341 9.4267C8.42588 10.2774 10.3537 11.9769 11.2694 12.3446C11.399 12.3958 11.5407 12.4079 11.6771 12.3794C11.8135 12.3509 11.9385 12.2831 12.0367 12.1843L12.5101 11.7053C12.6015 11.6128 12.7161 11.5466 12.842 11.5138C12.9679 11.481 13.1003 11.4828 13.2253 11.519Z" fill="currentColor"/>
<path fill-rule="evenodd" clip-rule="evenodd" d="M0.30864 9.94978C0.292591 4.66203 4.49418 0.263091 9.82014 0.0125816V0.0115796C15.6727 -0.264983 20.4861 4.4506 20.3036 10.2374C20.1341 15.6333 15.5965 19.9201 10.1531 19.8369C8.6617 19.8157 7.19377 19.4624 5.85626 18.8028L0.807134 19.9892C0.743686 20.0045 0.677407 20.0035 0.614424 19.9864C0.551441 19.9694 0.493788 19.9367 0.446797 19.8914C0.399805 19.8462 0.364993 19.7898 0.345578 19.7276C0.326163 19.6653 0.322773 19.5992 0.335721 19.5353L1.3969 14.4239C0.684361 13.0398 0.311355 11.5062 0.30864 9.94978ZM13.3039 17.0997C14.254 16.7094 15.1176 16.1355 15.8452 15.4109C17.3116 13.9569 18.1391 11.9759 18.1391 9.91972C18.1413 8.89806 17.9395 7.88622 17.5456 6.94337C17.1518 6.00052 16.5737 5.14559 15.8452 4.42856C14.3668 2.96157 12.4009 2.15393 10.3086 2.15393C8.23514 2.15457 6.24563 2.9723 4.77201 4.42956C3.29358 5.89554 2.47914 7.84651 2.47914 9.92073C2.47458 11.1467 2.76636 12.3557 3.32969 13.4449L3.67673 14.1183L3.02478 17.2556L6.12106 16.5282L6.82416 16.8759C7.90746 17.411 9.10012 17.6881 10.3086 17.6855C11.3359 17.6891 12.3538 17.4901 13.3039 17.0997Z" fill="currentColor"/>
</svg>
