<svg width="170" height="58" viewBox="0 0 170 58" fill="none" xmlns="http://www.w3.org/2000/svg">
<path d="M77.9317 46.0196L77.0327 44.0042H76.9967L76.0975 46.0196H77.9317ZM10.2186 39.1325C10.6731 40.3598 10.0155 41.8321 8.61915 42.1966C6.09156 42.8568 3.70449 43.6112 2.85395 46.3713C1.81952 49.7286 3.9028 53.4977 7.28861 54.4175C11.4638 55.5517 13.9957 52.4331 14.8971 48.737C15.2485 47.2964 16.7714 46.6252 18.0161 47.1185L27.6271 56.9616C29.0441 54.4568 30.7356 52.1616 31.1349 49.1835C31.6902 45.0439 27.7517 40.4462 23.7727 38.6325C21.817 37.741 19.8627 36.1973 19.9224 34.4241C19.9948 32.2805 22.4596 30.909 26.7473 30.9425C29.7136 30.9657 36.1915 32.6572 38.9725 33.509C40.255 33.9019 46.2528 35.737 50.727 35.8507L54.976 31.6964C53.6518 30.4638 50.872 29.5796 47.7523 29.0307C42.4774 28.1029 35.9931 27.8769 32.4619 26.9622C28.2504 25.8715 28.5584 23.3731 33.1217 21.939C36.9627 20.7318 37.7563 19.2945 36.6962 18.4514C35.5555 17.544 32.6639 17.6159 31.81 19.023C31.2718 19.9098 28.7706 20.4488 26.0452 20.5793C25.6561 23.063 23.8093 25.2785 21.279 25.9046C17.0793 26.9443 14.6183 23.7691 13.8006 20.0535C13.4504 18.4622 11.6658 17.7712 10.3562 18.5415L0 28.6672L10.2186 39.1325ZM37.782 48.5076L38.83 47.4829C40.1162 46.8805 41.7511 47.5783 42.0849 49.094C42.9025 52.8095 45.3635 55.9847 49.5632 54.9453C52.9685 54.1023 55.1368 50.3814 54.1782 47.0014C53.3904 44.2227 51.0211 43.4147 48.5089 42.6976C47.0627 42.2847 46.4488 40.6885 47.0492 39.4466L49.1421 37.4003C45.9487 37.0742 43.0629 36.2183 42.2002 35.954C39.8038 35.2202 24.3553 30.2776 24.2282 34.0526C24.1683 35.8257 26.7561 37.3869 28.7118 38.2782C32.2579 39.8944 36.2498 43.9626 37.782 48.5076ZM56.6701 30.0398L57.3933 29.3328L47.7117 19.4173C46.4341 18.1089 47.0924 15.9044 48.8782 15.5122C52.5916 14.696 55.7658 12.2354 54.7296 8.03216C53.889 4.62385 50.1719 2.452 46.7939 3.40899C44.0168 4.19588 43.2077 6.56649 42.4897 9.0798C41.9982 10.8003 39.8338 11.3492 38.5844 10.0694L37.8792 9.34711C35.7756 9.85435 32.703 10.6806 29.8135 11.627C29.0753 11.8689 28.3716 12.1258 27.8495 12.3042C23.9822 13.6262 28.7439 13.9216 28.4407 15.2239C28.2072 16.2272 26.97 16.7456 25.5778 17.1119C25.7012 17.3728 25.8072 17.6549 25.8941 17.9611C26.0799 18.6163 26.1478 19.2844 26.1122 19.9419C28.2277 19.6944 30.338 19.0292 30.9078 18.0905C31.4337 17.2237 33.7301 16.916 35.7211 17.1013C38.9844 17.4052 41.9686 20.7326 36.919 21.8116C34.7104 22.2836 33.3706 23.0055 32.8568 23.7391C31.6913 25.4037 35.2182 26.187 36.1987 26.4409C39.7299 27.3554 46.2142 27.5816 51.489 28.5094C52.877 28.7535 54.9598 29.2607 56.6701 30.0398ZM37.7699 9.23515L29.0294 0.283691L18.856 10.2307C18.1045 11.4925 18.7098 13.2245 20.2246 13.6571C22.0952 14.1911 23.8862 14.7757 25.0043 16.1862C25.5863 15.8862 25.9991 15.5093 26.1146 15.0133C26.3824 13.8634 24.0009 14.0191 24.9076 13.0327C26.1742 11.6548 33.6489 9.99577 37.7699 9.23515ZM89.2696 14.8864H91.2971L96.0127 26.6359H84.4127L89.2696 14.8864ZM85.5916 9.6487L74.2274 35.7429H80.5462L82.2436 31.7793H98.3232L100.021 35.7429H106.245L95.1639 9.6487H85.5916ZM111.752 9.6487V35.7429H117.647V14.9808H135.801V9.6487H111.752ZM123.541 20.3128V35.7429H129.435V25.6449H135.801V20.3128H123.541ZM142.934 9.6487V35.7429H148.686L164.153 17.7176V35.7429H170V9.6487H164.294L148.781 27.7683V9.6487H142.934ZM78.2914 46.8114H75.7378L75.1624 48.071H74.2274L76.637 42.8166H77.3923L79.8018 48.071H78.8668L78.2914 46.8114ZM81.3447 45.3214C81.1074 45.5518 80.9886 45.8445 80.9886 46.1996C80.9886 46.5547 81.1074 46.8473 81.3447 47.0777C81.5821 47.308 81.883 47.4231 82.2474 47.4231C82.4488 47.4231 82.637 47.3873 82.812 47.3152C82.9871 47.2433 83.1105 47.1713 83.1825 47.0993L83.2904 46.9913H83.4343V47.7471C83.4247 47.7567 83.4078 47.7723 83.3838 47.7939C83.3598 47.8155 83.3072 47.8503 83.2255 47.8982C83.1441 47.9462 83.0578 47.9895 82.9667 48.0278C82.8755 48.0662 82.7556 48.101 82.6071 48.1322C82.4584 48.1634 82.3025 48.179 82.1394 48.179C81.5832 48.179 81.1146 47.9882 80.7333 47.6067C80.3521 47.2253 80.1614 46.7562 80.1614 46.1996C80.1614 45.6429 80.3521 45.1739 80.7333 44.7924C81.1146 44.4109 81.5832 44.2201 82.1394 44.2201C82.4272 44.2201 82.691 44.2597 82.9307 44.339C83.1705 44.4181 83.3382 44.4961 83.4343 44.5728L83.578 44.688L83.2544 45.2998C83.2255 45.2758 83.186 45.2458 83.1358 45.2098C83.0853 45.1739 82.9727 45.1259 82.7977 45.066C82.6226 45.0059 82.4392 44.976 82.2474 44.976C81.883 44.976 81.5821 45.0911 81.3447 45.3214ZM85.2648 45.3214C85.0274 45.5518 84.9087 45.8445 84.9087 46.1996C84.9087 46.5547 85.0274 46.8473 85.2648 47.0777C85.5022 47.308 85.8031 47.4231 86.1675 47.4231C86.3689 47.4231 86.5571 47.3873 86.732 47.3152C86.9071 47.2433 87.0305 47.1713 87.1026 47.0993L87.2104 46.9913H87.3543V47.7471C87.3447 47.7567 87.3279 47.7723 87.3039 47.7939C87.2799 47.8155 87.2272 47.8503 87.1456 47.8982C87.0641 47.9462 86.9779 47.9895 86.8868 48.0278C86.7956 48.0662 86.6757 48.101 86.5272 48.1322C86.3785 48.1634 86.2226 48.179 86.0595 48.179C85.5033 48.179 85.0347 47.9882 84.6534 47.6067C84.2721 47.2253 84.0815 46.7562 84.0815 46.1996C84.0815 45.6429 84.2721 45.1739 84.6534 44.7924C85.0347 44.4109 85.5033 44.2201 86.0595 44.2201C86.3473 44.2201 86.611 44.2597 86.8508 44.339C87.0906 44.4181 87.2583 44.4961 87.3543 44.5728L87.4981 44.688L87.1744 45.2998C87.1456 45.2758 87.1061 45.2458 87.0558 45.2098C87.0054 45.1739 86.8927 45.1259 86.7178 45.066C86.5427 45.0059 86.3593 44.976 86.1675 44.976C85.8031 44.976 85.5022 45.0911 85.2648 45.3214ZM89.1993 45.3178C88.9762 45.5458 88.8648 45.8397 88.8648 46.1996C88.8648 46.5595 88.9762 46.8534 89.1993 47.0813C89.4222 47.3092 89.7063 47.4231 90.0516 47.4231C90.3968 47.4231 90.6809 47.3092 90.9039 47.0813C91.1268 46.8534 91.2384 46.5595 91.2384 46.1996C91.2384 45.8397 91.1268 45.5458 90.9039 45.3178C90.6809 45.0898 90.3968 44.976 90.0516 44.976C89.7063 44.976 89.4222 45.0898 89.1993 45.3178ZM91.519 44.7887C91.9073 45.1679 92.1016 45.6381 92.1016 46.1996C92.1016 46.761 91.9073 47.2313 91.519 47.6104C91.1305 47.9895 90.6414 48.179 90.0516 48.179C89.4618 48.179 88.9726 47.9895 88.5842 47.6104C88.1957 47.2313 88.0016 46.761 88.0016 46.1996C88.0016 45.6381 88.1957 45.1679 88.5842 44.7887C88.9726 44.4098 89.4618 44.2201 90.0516 44.2201C90.6414 44.2201 91.1305 44.4098 91.519 44.7887ZM96.2015 48.071H93.0006V44.3281H93.8279V47.3152H95.6262V44.3281H96.4533V47.3152H97.0287V49.0788H96.2015V48.071ZM100.517 45.4799L98.5033 48.071H97.712V44.3281H98.5393V46.9194L100.553 44.3281H101.344V48.071H100.517V45.4799ZM103.754 47.4592C103.917 47.4592 104.063 47.4316 104.193 47.3764C104.322 47.3213 104.423 47.2553 104.495 47.1784C104.567 47.1017 104.627 47.025 104.675 46.9481C104.723 46.8714 104.756 46.8043 104.776 46.7466L104.797 46.6675C104.778 46.6482 104.746 46.6242 104.7 46.5954C104.654 46.5667 104.551 46.5294 104.391 46.4839C104.23 46.4383 104.054 46.4155 103.862 46.4155C103.651 46.4155 103.484 46.4647 103.362 46.563C103.24 46.6614 103.179 46.7922 103.179 46.9553C103.179 47.1185 103.229 47.2432 103.33 47.3296C103.43 47.4159 103.572 47.4592 103.754 47.4592ZM104.006 44.2201C104.524 44.2201 104.923 44.3545 105.204 44.6233C105.484 44.892 105.624 45.2614 105.624 45.7318V48.071H104.833L104.797 47.4952H104.761C104.756 47.5144 104.746 47.5396 104.729 47.5708C104.712 47.6019 104.672 47.6559 104.61 47.7327C104.548 47.8095 104.477 47.8778 104.398 47.9379C104.319 47.9978 104.205 48.053 104.056 48.1033C103.908 48.1538 103.747 48.179 103.574 48.179C103.205 48.179 102.903 48.071 102.668 47.8551C102.433 47.6392 102.316 47.3704 102.316 47.049C102.316 46.6891 102.439 46.3974 102.686 46.1743C102.933 45.9512 103.277 45.8397 103.718 45.8397C103.92 45.8397 104.11 45.8612 104.29 45.9044C104.47 45.9477 104.598 45.9884 104.675 46.0268L104.797 46.0917V45.7677C104.797 45.5133 104.719 45.3178 104.563 45.1811C104.407 45.0444 104.186 44.976 103.898 44.976C103.653 44.976 103.417 45.0215 103.19 45.1128C102.962 45.2039 102.795 45.2926 102.69 45.3789L102.531 45.5157H102.423V44.7601C102.471 44.7216 102.539 44.6725 102.625 44.6124C102.711 44.5525 102.892 44.4721 103.168 44.3713C103.444 44.2706 103.723 44.2201 104.006 44.2201ZM109.868 48.071H106.667V44.3281H107.495V47.3152H109.293V44.3281H110.12V47.3152H110.695V49.0788H109.868V48.071ZM114.184 45.4799L112.17 48.071H111.379V44.3281H112.206V46.9194L114.22 44.3281H115.011V48.071H114.184V45.4799ZM116.845 46.7033C116.821 46.6985 116.791 46.6891 116.755 46.6747C116.72 46.6603 116.654 46.6242 116.558 46.5667C116.462 46.5091 116.378 46.4431 116.306 46.3688C116.234 46.2943 116.168 46.1876 116.108 46.0484C116.048 45.9093 116.018 45.7556 116.018 45.5878C116.018 45.2183 116.147 44.9159 116.403 44.6808C116.66 44.4457 117.004 44.3281 117.435 44.3281H119.219V48.071H118.392V46.8114H117.745L116.637 48.071H115.623L116.845 46.7394V46.7033ZM118.392 45.0479H117.529C117.332 45.0479 117.175 45.097 117.058 45.1954C116.94 45.2939 116.881 45.4246 116.881 45.5878C116.881 45.7508 116.94 45.8817 117.058 45.98C117.175 46.0784 117.332 46.1276 117.529 46.1276H118.392V45.0479ZM124.937 45.0839H123.031V48.071H122.204V44.3281H124.937V45.0839ZM127.167 44.2201C127.728 44.2201 128.174 44.3893 128.505 44.7276C128.836 45.066 129.001 45.5277 129.001 46.1131V46.3795H126.016C126.055 46.6867 126.185 46.9373 126.408 47.1316C126.631 47.3261 126.932 47.4231 127.311 47.4231C127.479 47.4231 127.639 47.4076 127.793 47.3764C127.946 47.3453 128.072 47.3068 128.17 47.2612C128.269 47.2157 128.355 47.1689 128.429 47.1209C128.504 47.0728 128.558 47.0346 128.591 47.0057L128.642 46.9553H128.75V47.7471C128.735 47.7567 128.714 47.7723 128.685 47.7939C128.656 47.8155 128.592 47.8503 128.494 47.8982C128.396 47.9462 128.293 47.9895 128.185 48.0278C128.077 48.0662 127.936 48.101 127.76 48.1322C127.586 48.1634 127.404 48.179 127.217 48.179C126.637 48.179 126.16 47.993 125.786 47.6211C125.412 47.2492 125.225 46.7754 125.225 46.1996C125.225 45.6429 125.413 45.1739 125.79 44.7924C126.166 44.4109 126.625 44.2201 127.167 44.2201ZM127.203 44.976C126.906 44.976 126.66 45.0491 126.466 45.1954C126.272 45.3418 126.134 45.5205 126.052 45.7318H128.21C128.172 45.5157 128.066 45.3359 127.894 45.1919C127.721 45.0479 127.491 44.976 127.203 44.976ZM130.918 45.3178C130.695 45.5458 130.584 45.8397 130.584 46.1996C130.584 46.5595 130.695 46.8534 130.918 47.0813C131.141 47.3092 131.425 47.4231 131.77 47.4231C132.116 47.4231 132.4 47.3092 132.623 47.0813C132.846 46.8534 132.957 46.5595 132.957 46.1996C132.957 45.8397 132.846 45.5458 132.623 45.3178C132.4 45.0898 132.116 44.976 131.77 44.976C131.425 44.976 131.141 45.0898 130.918 45.3178ZM133.238 44.7887C133.626 45.1679 133.82 45.6381 133.82 46.1996C133.82 46.761 133.626 47.2313 133.238 47.6104C132.849 47.9895 132.36 48.179 131.77 48.179C131.181 48.179 130.692 47.9895 130.303 47.6104C129.915 47.2313 129.72 46.761 129.72 46.1996C129.72 45.6381 129.915 45.1679 130.303 44.7887C130.692 44.4098 131.181 44.2201 131.77 44.2201C132.36 44.2201 132.849 44.4098 133.238 44.7887ZM135.87 45.0839L135.763 46.4155C135.719 46.9721 135.583 47.386 135.352 47.6571C135.122 47.9283 134.792 48.1022 134.36 48.179L134.18 47.3873C134.391 47.3488 134.555 47.2588 134.673 47.1172C134.79 46.9758 134.866 46.7418 134.899 46.4155L135.115 44.3281H137.992V48.071H137.165V45.0839H135.87ZM140.089 45.3178C139.866 45.5458 139.755 45.8397 139.755 46.1996C139.755 46.5595 139.866 46.8534 140.089 47.0813C140.312 47.3092 140.596 47.4231 140.941 47.4231C141.287 47.4231 141.571 47.3092 141.794 47.0813C142.017 46.8534 142.128 46.5595 142.128 46.1996C142.128 45.8397 142.017 45.5458 141.794 45.3178C141.571 45.0898 141.287 44.976 140.941 44.976C140.596 44.976 140.312 45.0898 140.089 45.3178ZM142.409 44.7887C142.797 45.1679 142.991 45.6381 142.991 46.1996C142.991 46.761 142.797 47.2313 142.409 47.6104C142.02 47.9895 141.531 48.179 140.941 48.179C140.352 48.179 139.863 47.9895 139.474 47.6104C139.086 47.2313 138.891 46.761 138.891 46.1996C138.891 45.6381 139.086 45.1679 139.474 44.7887C139.863 44.4098 140.352 44.2201 140.941 44.2201C141.531 44.2201 142.02 44.4098 142.409 44.7887ZM146.624 45.0839H144.718V48.071H143.89V44.3281H146.624V45.0839ZM148.109 45.3178C147.886 45.5458 147.775 45.8397 147.775 46.1996C147.775 46.5595 147.886 46.8534 148.109 47.0813C148.332 47.3092 148.616 47.4231 148.962 47.4231C149.307 47.4231 149.591 47.3092 149.814 47.0813C150.037 46.8534 150.148 46.5595 150.148 46.1996C150.148 45.8397 150.037 45.5458 149.814 45.3178C149.591 45.0898 149.307 44.976 148.962 44.976C148.616 44.976 148.332 45.0898 148.109 45.3178ZM150.429 44.7887C150.817 45.1679 151.012 45.6381 151.012 46.1996C151.012 46.761 150.817 47.2313 150.429 47.6104C150.04 47.9895 149.551 48.179 148.962 48.179C148.372 48.179 147.883 47.9895 147.494 47.6104C147.106 47.2313 146.912 46.761 146.912 46.1996C146.912 45.6381 147.106 45.1679 147.494 44.7887C147.883 44.4098 148.372 44.2201 148.962 44.2201C149.551 44.2201 150.04 44.4098 150.429 44.7887ZM151.911 48.071V44.3281H153.637C154.088 44.3281 154.428 44.4205 154.658 44.6052C154.889 44.79 155.004 45.0335 155.004 45.3359C155.004 45.451 154.986 45.5542 154.95 45.6453C154.914 45.7364 154.869 45.8061 154.817 45.854C154.764 45.902 154.71 45.9429 154.655 45.9764C154.6 46.01 154.555 46.0316 154.522 46.0412L154.464 46.0556V46.0917C154.483 46.0963 154.51 46.1035 154.543 46.1131C154.577 46.1227 154.638 46.1492 154.727 46.1924C154.815 46.2355 154.892 46.2871 154.957 46.3471C155.022 46.407 155.082 46.4946 155.137 46.6098C155.192 46.725 155.219 46.8521 155.219 46.9913C155.219 47.308 155.101 47.5671 154.863 47.7688C154.626 47.9703 154.289 48.071 153.853 48.071H151.911ZM154.248 47.2324C154.344 47.1533 154.392 47.049 154.392 46.9194C154.392 46.7898 154.344 46.6854 154.248 46.6063C154.152 46.527 154.009 46.4875 153.817 46.4875H152.738V47.3512H153.817C154.009 47.3512 154.152 47.3117 154.248 47.2324ZM153.601 45.0479H152.738V45.7677H153.601C153.961 45.7677 154.14 45.6477 154.14 45.4078C154.14 45.1679 153.961 45.0479 153.601 45.0479ZM155.759 47.6751C155.759 47.5359 155.804 47.4231 155.895 47.3368C155.987 47.2505 156.097 47.2072 156.226 47.2072C156.361 47.2072 156.472 47.2529 156.561 47.344C156.649 47.4351 156.694 47.5575 156.694 47.7111C156.694 47.8647 156.675 48.0157 156.636 48.1645C156.598 48.3133 156.55 48.4381 156.492 48.5388C156.435 48.6396 156.377 48.7296 156.32 48.8087C156.262 48.888 156.214 48.9468 156.176 48.9851L156.118 49.0427H155.795C156.058 48.7068 156.19 48.4069 156.19 48.1429C155.903 48.0998 155.759 47.9438 155.759 47.6751ZM77.5002 53.1455H75.5941V56.1326H74.7668V52.3897H77.5002V53.1455ZM79.7299 52.2817C80.2909 52.2817 80.7368 52.4509 81.0678 52.7891C81.3987 53.1276 81.564 53.5893 81.564 54.1747V54.4411H78.579C78.6174 54.7483 78.748 54.9989 78.9711 55.1932C79.1941 55.3876 79.495 55.4847 79.8738 55.4847C80.0416 55.4847 80.2023 55.4692 80.3558 55.4379C80.5091 55.4069 80.635 55.3684 80.7333 55.3228C80.8316 55.2773 80.9179 55.2305 80.9923 55.1825C81.0666 55.1344 81.1205 55.0962 81.1541 55.0673L81.2044 55.0169H81.3124V55.8087C81.298 55.8183 81.2764 55.8339 81.2476 55.8555C81.2188 55.8771 81.1552 55.9119 81.057 55.9598C80.9587 56.0078 80.8556 56.0511 80.7477 56.0893C80.6398 56.1278 80.4984 56.1625 80.3233 56.1938C80.1483 56.225 79.9673 56.2405 79.7802 56.2405C79.2 56.2405 78.7229 56.0546 78.3488 55.6827C77.9748 55.3108 77.7878 54.837 77.7878 54.2612C77.7878 53.7045 77.9761 53.2355 78.3525 52.854C78.729 52.4725 79.188 52.2817 79.7299 52.2817ZM79.7658 53.0375C79.4686 53.0375 79.2229 53.1107 79.0286 53.257C78.8344 53.4034 78.6965 53.5821 78.615 53.7934H80.7729C80.7344 53.5773 80.629 53.3975 80.4564 53.2535C80.2837 53.1095 80.0536 53.0375 79.7658 53.0375ZM83.481 53.3793C83.2579 53.6074 83.1465 53.9013 83.1465 54.2612C83.1465 54.6211 83.2579 54.915 83.481 55.1429C83.704 55.3708 83.9881 55.4847 84.3333 55.4847C84.6785 55.4847 84.9626 55.3708 85.1856 55.1429C85.4085 54.915 85.5201 54.6211 85.5201 54.2612C85.5201 53.9013 85.4085 53.6074 85.1856 53.3793C84.9626 53.1514 84.6785 53.0375 84.3333 53.0375C83.9881 53.0375 83.704 53.1514 83.481 53.3793ZM85.8007 52.8503C86.189 53.2294 86.3833 53.6997 86.3833 54.2612C86.3833 54.8226 86.189 55.2928 85.8007 55.672C85.4122 56.0511 84.9231 56.2405 84.3333 56.2405C83.7435 56.2405 83.2543 56.0511 82.8659 55.672C82.4774 55.2928 82.2833 54.8226 82.2833 54.2612C82.2833 53.6997 82.4774 53.2294 82.8659 52.8503C83.2543 52.4714 83.7435 52.2817 84.3333 52.2817C84.9231 52.2817 85.4122 52.4714 85.8007 52.8503ZM89.1886 55.4847V53.0375C88.8289 53.0568 88.5352 53.1803 88.3073 53.4082C88.0795 53.6361 87.9657 53.9204 87.9657 54.2612C87.9657 54.6019 88.0795 54.8862 88.3073 55.1141C88.5352 55.342 88.8289 55.4657 89.1886 55.4847ZM90.0157 56.2405V57.7161H89.1886V56.2405C88.5651 56.2069 88.0616 56.0054 87.678 55.6359C87.2943 55.2664 87.1026 54.8082 87.1026 54.2612C87.1026 53.7141 87.2943 53.2559 87.678 52.8864C88.0616 52.5169 88.5651 52.3154 89.1886 52.2817V50.6623H90.0157V52.2817C90.639 52.3154 91.1425 52.5169 91.5262 52.8864C91.9098 53.2559 92.1016 53.7141 92.1016 54.2612C92.1016 54.8082 91.9098 55.2664 91.5262 55.6359C91.1425 56.0054 90.639 56.2069 90.0157 56.2405ZM90.0157 53.0375V55.4847C90.3754 55.4657 90.6691 55.342 90.8968 55.1141C91.1246 54.8862 91.2384 54.6019 91.2384 54.2612C91.2384 53.9204 91.1246 53.6361 90.8968 53.4082C90.6691 53.1803 90.3754 53.0568 90.0157 53.0375ZM95.8059 53.5414L93.7919 56.1326H93.0006V52.3897H93.8279V54.981L95.8419 52.3897H96.633V56.1326H95.8059V53.5414ZM98.8989 54.549H98.4673V53.8653H98.8269C99.3064 53.8653 99.5462 53.7213 99.5462 53.4335C99.5462 53.1455 99.3064 53.0015 98.8269 53.0015C98.6256 53.0015 98.4313 53.0376 98.2443 53.1095C98.0574 53.1815 97.9207 53.2535 97.8343 53.3254L97.712 53.4335H97.6041V52.6776C97.6377 52.6488 97.6881 52.6128 97.7552 52.5697C97.8224 52.5265 97.9686 52.4677 98.1939 52.3934C98.4194 52.3189 98.6544 52.2817 98.8989 52.2817C99.3833 52.2817 99.75 52.3814 99.9993 52.5805C100.249 52.7795 100.373 53.04 100.373 53.3614C100.373 53.4814 100.351 53.5906 100.305 53.6889C100.26 53.7873 100.206 53.864 100.143 53.9193C100.081 53.9744 100.019 54.0213 99.9563 54.0596C99.8939 54.098 99.8388 54.122 99.7908 54.1316L99.7261 54.1533V54.1891C99.7453 54.1939 99.7716 54.2011 99.8052 54.2108C99.8388 54.2204 99.8999 54.2468 99.9886 54.2899C100.077 54.3331 100.154 54.3847 100.219 54.4448C100.284 54.5047 100.343 54.5923 100.399 54.7074C100.454 54.8226 100.481 54.9498 100.481 55.0889C100.481 55.444 100.348 55.7246 100.082 55.9311C99.8159 56.1374 99.4215 56.2405 98.8989 56.2405C98.6304 56.2405 98.3738 56.1986 98.1292 56.1146C97.8847 56.0305 97.7049 55.9455 97.5899 55.859L97.4244 55.7366L97.6401 55.0889C97.6785 55.1224 97.7349 55.1633 97.8091 55.2113C97.8836 55.2592 98.031 55.3228 98.2515 55.4021C98.4721 55.4812 98.6878 55.5208 98.8989 55.5208C99.4023 55.5208 99.6541 55.3529 99.6541 55.0169C99.6541 54.705 99.4023 54.549 98.8989 54.549ZM104.186 53.5414L102.172 56.1326H101.38V52.3897H102.208V54.981L104.222 52.3897H105.013V56.1326H104.186V53.5414ZM108.681 56.1326L106.919 54.2971V56.1326H106.092V52.3897H106.919V54.1891L108.645 52.3897H109.616L107.818 54.2252L109.724 56.1326H108.681ZM111.066 53.3793C110.843 53.6074 110.731 53.9013 110.731 54.2612C110.731 54.6211 110.843 54.915 111.066 55.1429C111.289 55.3708 111.573 55.4847 111.918 55.4847C112.263 55.4847 112.547 55.3708 112.77 55.1429C112.993 54.915 113.105 54.6211 113.105 54.2612C113.105 53.9013 112.993 53.6074 112.77 53.3793C112.547 53.1514 112.263 53.0375 111.918 53.0375C111.573 53.0375 111.289 53.1514 111.066 53.3793ZM113.385 52.8503C113.774 53.2294 113.968 53.6997 113.968 54.2612C113.968 54.8226 113.774 55.2928 113.385 55.672C112.997 56.0511 112.508 56.2405 111.918 56.2405C111.328 56.2405 110.839 56.0511 110.451 55.672C110.062 55.2928 109.868 54.8226 109.868 54.2612C109.868 53.6997 110.062 53.2294 110.451 52.8503C110.839 52.4714 111.328 52.2817 111.918 52.2817C112.508 52.2817 112.997 52.4714 113.385 52.8503ZM114.867 56.1326V52.3897H116.593C117.044 52.3897 117.385 52.4821 117.615 52.6668C117.845 52.8516 117.96 53.0951 117.96 53.3975C117.96 53.5126 117.942 53.6158 117.906 53.7069C117.87 53.798 117.826 53.8677 117.773 53.9156C117.72 53.9636 117.666 54.0045 117.611 54.038C117.556 54.0716 117.512 54.0932 117.478 54.1028L117.421 54.1172V54.1533C117.44 54.1579 117.466 54.1651 117.5 54.1747C117.533 54.1843 117.594 54.2107 117.683 54.254C117.772 54.2971 117.849 54.3486 117.913 54.4087C117.978 54.4686 118.038 54.5562 118.093 54.6714C118.148 54.7865 118.176 54.9137 118.176 55.0529C118.176 55.3696 118.057 55.6287 117.82 55.8303C117.582 56.0318 117.246 56.1326 116.809 56.1326H114.867ZM117.205 55.294C117.301 55.2148 117.349 55.1106 117.349 54.981C117.349 54.8514 117.301 54.747 117.205 54.6679C117.109 54.5886 116.965 54.549 116.773 54.549H115.694V55.4128H116.773C116.965 55.4128 117.109 55.3732 117.205 55.294ZM116.557 53.1095H115.694V53.8292H116.557C116.917 53.8292 117.097 53.7093 117.097 53.4694C117.097 53.2294 116.917 53.1095 116.557 53.1095ZM123.714 53.5414L121.7 56.1326H120.909V52.3897H121.736V54.981L123.75 52.3897H124.541V56.1326H123.714V53.5414ZM130.332 53.5414L128.318 56.1326H127.526V52.3897H128.354V54.981L130.368 52.3897H131.159V56.1326H130.332V53.5414ZM134.971 54.6211H133.065V56.1326H132.238V52.3897H133.065V53.8653H134.971V52.3897H135.798V56.1326H134.971V54.6211ZM141.373 56.1326L139.754 54.3331V56.1326H138.927V54.3331L137.309 56.1326H136.266L138.028 54.2252L136.374 52.3897H137.345L138.927 54.1891V52.3897H139.754V54.1891L141.337 52.3897H142.308L140.654 54.2252L142.416 56.1326H141.373ZM144.502 52.2817C145.063 52.2817 145.509 52.4509 145.84 52.7891C146.17 53.1276 146.336 53.5893 146.336 54.1747V54.4411H143.351C143.389 54.7483 143.52 54.9989 143.743 55.1932C143.966 55.3876 144.267 55.4847 144.646 55.4847C144.813 55.4847 144.974 55.4692 145.128 55.4379C145.281 55.4069 145.407 55.3684 145.505 55.3228C145.603 55.2773 145.69 55.2305 145.764 55.1825C145.838 55.1344 145.892 55.0962 145.926 55.0673L145.976 55.0169H146.084V55.8087C146.07 55.8183 146.048 55.8339 146.019 55.8555C145.991 55.8771 145.927 55.9119 145.829 55.9598C145.731 56.0078 145.627 56.0511 145.52 56.0893C145.412 56.1278 145.27 56.1625 145.095 56.1938C144.92 56.225 144.739 56.2405 144.552 56.2405C143.972 56.2405 143.495 56.0546 143.121 55.6827C142.747 55.3108 142.56 54.837 142.56 54.2612C142.56 53.7045 142.748 53.2355 143.124 52.854C143.501 52.4725 143.96 52.2817 144.502 52.2817ZM144.538 53.0375C144.24 53.0375 143.995 53.1107 143.8 53.257C143.606 53.4034 143.468 53.5821 143.387 53.7934H145.545C145.506 53.5773 145.401 53.3975 145.228 53.2535C145.056 53.1095 144.825 53.0375 144.538 53.0375ZM149.968 54.6211H148.062V56.1326H147.235V52.3897H148.062V53.8653H149.968V52.3897H150.795V56.1326H149.968V54.6211ZM153.637 52.2817C154.198 52.2817 154.643 52.4509 154.974 52.7891C155.305 53.1276 155.471 53.5893 155.471 54.1747V54.4411H152.486C152.524 54.7483 152.655 54.9989 152.878 55.1932C153.101 55.3876 153.402 55.4847 153.78 55.4847C153.948 55.4847 154.109 55.4692 154.262 55.4379C154.416 55.4069 154.542 55.3684 154.64 55.3228C154.738 55.2773 154.825 55.2305 154.899 55.1825C154.973 55.1344 155.027 55.0962 155.061 55.0673L155.111 55.0169H155.219V55.8087C155.205 55.8183 155.183 55.8339 155.154 55.8555C155.125 55.8771 155.062 55.9119 154.964 55.9598C154.865 56.0078 154.762 56.0511 154.654 56.0893C154.546 56.1278 154.405 56.1625 154.23 56.1938C154.055 56.225 153.874 56.2405 153.687 56.2405C153.107 56.2405 152.63 56.0546 152.255 55.6827C151.881 55.3108 151.694 54.837 151.694 54.2612C151.694 53.7045 151.883 53.2355 152.259 52.854C152.636 52.4725 153.095 52.2817 153.637 52.2817ZM153.672 53.0375C153.375 53.0375 153.13 53.1107 152.935 53.257C152.741 53.4034 152.603 53.5821 152.522 53.7934H154.679C154.641 53.5773 154.536 53.3975 154.363 53.2535C154.19 53.1095 153.96 53.0375 153.672 53.0375ZM157.528 53.383C157.307 53.6133 157.197 53.9061 157.197 54.2612C157.197 54.6163 157.307 54.9089 157.528 55.1392C157.748 55.3696 158.022 55.4847 158.348 55.4847C158.674 55.4847 158.947 55.3696 159.168 55.1392C159.388 54.9089 159.499 54.6163 159.499 54.2612C159.499 53.9061 159.388 53.6133 159.168 53.383C158.947 53.1527 158.674 53.0375 158.348 53.0375C158.022 53.0375 157.748 53.1527 157.528 53.383ZM159.826 52.8468C160.183 53.2235 160.362 53.6949 160.362 54.2612C160.362 54.8274 160.183 55.2987 159.826 55.6755C159.469 56.0522 159.036 56.2405 158.528 56.2405C158.355 56.2405 158.192 56.2165 158.039 56.1686C157.885 56.1206 157.762 56.0642 157.668 55.9995C157.575 55.9346 157.493 55.8686 157.423 55.8015C157.354 55.7342 157.305 55.6767 157.276 55.6287L157.233 55.5568H157.197V57.7161H156.37V52.3897H157.161L157.197 52.9655H157.233C157.242 52.9464 157.257 52.9211 157.276 52.8901C157.295 52.8588 157.343 52.8048 157.42 52.7279C157.497 52.6512 157.579 52.5828 157.668 52.5229C157.757 52.4629 157.879 52.4078 158.035 52.3573C158.191 52.3069 158.355 52.2817 158.528 52.2817C159.036 52.2817 159.469 52.4701 159.826 52.8468ZM162.279 53.3793C162.056 53.6074 161.944 53.9013 161.944 54.2612C161.944 54.6211 162.056 54.915 162.279 55.1429C162.502 55.3708 162.786 55.4847 163.131 55.4847C163.476 55.4847 163.76 55.3708 163.983 55.1429C164.206 54.915 164.318 54.6211 164.318 54.2612C164.318 53.9013 164.206 53.6074 163.983 53.3793C163.76 53.1514 163.476 53.0375 163.131 53.0375C162.786 53.0375 162.502 53.1514 162.279 53.3793ZM164.598 52.8503C164.987 53.2294 165.181 53.6997 165.181 54.2612C165.181 54.8226 164.987 55.2928 164.598 55.672C164.21 56.0511 163.721 56.2405 163.131 56.2405C162.541 56.2405 162.052 56.0511 161.664 55.672C161.275 55.2928 161.081 54.8226 161.081 54.2612C161.081 53.6997 161.275 53.2294 161.664 52.8503C162.052 52.4714 162.541 52.2817 163.131 52.2817C163.721 52.2817 164.21 52.4714 164.598 52.8503ZM166.08 56.1326V52.3897H167.806C168.257 52.3897 168.598 52.4821 168.828 52.6668C169.058 52.8516 169.173 53.0951 169.173 53.3975C169.173 53.5126 169.155 53.6158 169.119 53.7069C169.083 53.798 169.039 53.8677 168.986 53.9156C168.933 53.9636 168.879 54.0045 168.824 54.038C168.769 54.0716 168.725 54.0932 168.691 54.1028L168.634 54.1172V54.1533C168.653 54.1579 168.679 54.1651 168.713 54.1747C168.746 54.1843 168.807 54.2107 168.896 54.254C168.985 54.2971 169.062 54.3486 169.126 54.4087C169.191 54.4686 169.251 54.5562 169.306 54.6714C169.361 54.7865 169.389 54.9137 169.389 55.0529C169.389 55.3696 169.27 55.6287 169.033 55.8303C168.795 56.0318 168.459 56.1326 168.022 56.1326H166.08ZM168.418 55.294C168.514 55.2148 168.562 55.1106 168.562 54.981C168.562 54.8514 168.514 54.747 168.418 54.6679C168.322 54.5886 168.178 54.549 167.986 54.549H166.907V55.4128H167.986C168.178 55.4128 168.322 55.3732 168.418 55.294ZM167.77 53.1095H166.907V53.8292H167.77C168.13 53.8292 168.31 53.7093 168.31 53.4694C168.31 53.2294 168.13 53.1095 167.77 53.1095Z" fill="black"/>
</svg>
