<svg width="170" height="24" viewBox="0 0 170 24" fill="none" xmlns="http://www.w3.org/2000/svg">
<path fill-rule="evenodd" clip-rule="evenodd" d="M10.0275 0.543967C11.9872 0.28477 14.0138 0.529819 15.8493 1.26777C18.1215 2.17399 20.0929 3.82168 21.3758 5.90562C19.9511 7.06909 18.5485 8.25951 17.138 9.44009C15.5779 10.7488 14.0183 12.059 12.4581 13.3683C12.1593 13.6059 11.8839 13.8769 11.57 14.0921L11.5558 14.096C11.5588 12.0835 11.5563 10.0715 11.5602 8.05896C11.5534 7.96116 11.591 7.83545 11.4868 7.77724C9.3545 5.99267 7.23049 4.19778 5.08984 2.42299C6.55609 1.41838 8.26636 0.775786 10.0275 0.543967Z" fill="#CD2F79"/>
<path fill-rule="evenodd" clip-rule="evenodd" d="M1.74104 5.88672L11.3096 13.9245C11.3918 13.9773 11.4538 14.0918 11.5556 14.0962L11.5698 14.0923L11.4466 20.4042L22.968 10.8224L22.9969 10.7172C23.033 10.7867 23.0643 10.8601 23.0658 10.9403C23.2296 12.7557 22.9689 14.6112 22.2862 16.3029C21.5986 18.0219 20.4879 19.5684 19.0819 20.772C17.7706 21.9007 16.2022 22.7292 14.5291 23.1713C12.3591 23.747 10.0204 23.678 7.89102 22.9635C6.19987 22.4015 4.64658 21.4356 3.38721 20.1762C2.11714 18.9076 1.14488 17.3412 0.583396 15.6358C-0.281242 13.0379 -0.182962 10.1318 0.866084 7.60141C1.10768 7.00618 1.40991 6.43697 1.74104 5.88672Z" fill="#0C903F"/>
<path fill-rule="evenodd" clip-rule="evenodd" d="M66.2012 4.45902C67.4469 4.45772 68.6925 4.45394 69.9382 4.46025C69.9395 8.48699 69.9369 12.5125 69.9382 16.5379C71.5425 16.5277 73.1468 16.5634 74.7486 16.52C74.7333 12.4997 74.7448 8.47937 74.7435 4.46025C75.9841 4.45642 77.2259 4.45518 78.4677 4.46025C78.4652 8.48575 78.4652 12.5125 78.4677 16.5379C80.0683 16.5379 81.6687 16.5417 83.2692 16.5354C83.2755 12.5099 83.2653 8.48321 83.2743 4.45777C84.5136 4.45772 85.7541 4.45642 86.9934 4.45777C87.0011 9.48635 86.9947 14.5149 86.9959 19.5436C80.0644 19.5385 73.1315 19.5474 66.1999 19.5385C66.2038 14.5124 66.1999 9.48511 66.2012 4.45902ZM36.586 13.0957C36.5795 14.2431 36.5808 15.3892 36.5847 16.5367C38.3881 16.5315 40.194 16.5558 41.9975 16.5239C42.5718 16.4971 43.3465 16.4205 43.561 15.7798C43.7179 15.1838 43.7243 14.5303 43.5507 13.9381C43.3082 13.2604 42.5016 13.1263 41.8711 13.1034C40.1098 13.0868 38.3473 13.1034 36.586 13.0957ZM32.6868 4.45902C37.1884 4.45772 41.6899 4.45518 46.1914 4.46025C45.8468 5.46216 45.5149 6.4679 45.1704 7.4698C42.3089 7.4698 39.4462 7.4698 36.5847 7.4698C36.5795 8.33898 36.5834 9.20815 36.5821 10.0773C38.4698 10.0951 40.3574 10.0734 42.2463 10.0888C43.5341 10.1219 44.9074 10.3427 45.9361 11.1775C46.813 11.8769 47.2392 12.9949 47.3311 14.0861C47.4358 15.3139 47.3183 16.6362 46.6176 17.6866C46.0344 18.566 45.0491 19.0956 44.0396 19.3279C42.9125 19.6074 41.746 19.5334 40.5961 19.5423C37.9605 19.5423 35.3237 19.5423 32.6881 19.5423C32.6844 14.5149 32.6868 9.48636 32.6868 4.45902ZM159.607 12.612C159.608 13.9215 159.605 15.2297 159.609 16.5392C161.249 16.529 162.887 16.557 164.527 16.5252C165.163 16.5073 165.976 16.3273 166.184 15.6292C166.354 14.968 166.366 14.2431 166.176 13.5871C165.939 12.8455 165.086 12.6248 164.395 12.6133C162.798 12.6006 161.203 12.6044 159.607 12.612ZM155.722 4.45135C157.016 4.46539 158.312 4.45394 159.609 4.45777C159.605 6.16798 159.611 7.8782 159.605 9.58847C161.325 9.60759 163.047 9.58334 164.769 9.59997C166.079 9.62546 167.467 9.89351 168.502 10.7525C169.376 11.471 169.834 12.5839 169.95 13.6905C170.088 14.9961 169.966 16.4052 169.234 17.5309C168.609 18.506 167.533 19.1071 166.421 19.3509C165.634 19.5436 164.818 19.5538 164.012 19.5423C161.246 19.5423 158.48 19.541 155.713 19.5436C155.717 14.5124 155.7 9.48128 155.722 4.45135ZM140.243 4.45518C144.904 4.46155 149.565 4.45394 154.226 4.45902C154.225 5.46346 154.228 6.46666 154.225 7.47105C152.623 7.4698 151.022 7.46727 149.42 7.47234C149.416 11.4952 149.418 15.5194 149.418 19.5423C148.121 19.541 146.822 19.5423 145.524 19.5423C145.521 15.5181 145.524 11.4952 145.523 7.47234C144.099 7.46851 142.676 7.46726 141.253 7.47364C140.911 6.46919 140.553 5.46983 140.243 4.45518ZM107.307 4.46415C111.45 4.44751 115.591 4.46414 119.734 4.45642C119.424 5.46853 119.068 6.46666 118.729 7.4698C116.221 7.47104 113.711 7.46851 111.202 7.4698C111.202 8.39125 111.201 9.31275 111.205 10.2343C113.57 10.2355 115.935 10.2317 118.3 10.2355C118.3 11.2387 118.3 12.2406 118.3 13.2438C115.934 13.245 113.568 13.2438 111.202 13.245C111.202 14.3414 111.202 15.439 111.202 16.5367C113.942 16.5417 116.683 16.5367 119.424 16.5392C119.427 17.5398 119.425 18.5404 119.424 19.5423C115.383 19.5359 111.344 19.5564 107.303 19.5321C107.313 14.5086 107.307 9.48636 107.307 4.46415ZM89.6941 4.46415C90.9921 4.45135 92.2913 4.45777 93.5906 4.46025C93.5906 6.38495 93.5893 8.30836 93.5919 10.233C95.9684 10.2355 98.3448 10.233 100.723 10.2343C100.726 8.3083 100.723 6.38366 100.724 4.45777C102.022 4.45518 103.319 4.46026 104.617 4.45518C104.625 9.48376 104.618 14.5137 104.62 19.5423C103.321 19.5423 102.023 19.5423 100.725 19.5423C100.716 17.4415 100.739 15.3407 100.714 13.2412C98.3398 13.2515 95.9658 13.2374 93.5906 13.2489C93.5932 15.342 93.5842 17.4364 93.5957 19.5308C92.299 19.5589 91.0023 19.5296 89.7056 19.5461C89.68 14.5188 89.7056 9.49143 89.6941 4.46415ZM54.024 12.7639C55.4522 12.7651 56.8804 12.7639 58.3086 12.7652C57.7126 10.9516 57.1165 9.13925 56.5192 7.32687C56.2665 7.32303 56.0138 7.3205 55.7611 7.3192C55.1778 9.13282 54.6047 10.949 54.024 12.7639ZM53.0056 4.45642C54.9545 4.45642 56.9021 4.46155 58.851 4.45394C58.9863 4.48326 59.2415 4.37731 59.2824 4.579C61.0833 9.56422 62.8675 14.5558 64.6633 19.5436C63.2887 19.541 61.9141 19.5423 60.5395 19.5423C60.1273 18.2839 59.7061 17.0293 59.3016 15.7696C57.2262 15.7568 55.1522 15.7709 53.0771 15.7632C52.6635 17.0178 52.2729 18.2813 51.8684 19.5397C50.5474 19.5436 49.2251 19.5436 47.9042 19.5397C49.6042 14.5124 51.3017 9.48376 53.0056 4.45642ZM132.191 7.44172C132.186 10.4844 132.187 13.5271 132.191 16.5685C133.248 16.5672 134.402 16.6451 135.337 16.0593C136.144 15.5501 136.514 14.5941 136.671 13.6931C136.861 12.4793 136.852 11.2272 136.621 10.0199C136.448 9.14686 136.034 8.23174 135.208 7.80422C134.278 7.32811 133.198 7.457 132.191 7.44172H132.191ZM125.209 8.08243C124.218 8.97968 124.079 10.4193 124.032 11.6752C124.02 13.0459 124.074 14.5966 125.032 15.679C125.953 16.6604 127.411 16.5749 128.644 16.5698C128.646 13.5271 128.646 10.4844 128.644 7.44172C127.488 7.4583 126.162 7.28345 125.208 8.08243H125.209ZM128.647 2.82278C129.824 2.81641 131.002 2.82661 132.18 2.81641C132.194 3.3193 132.187 3.82344 132.189 4.32628C134.249 4.25355 136.473 4.56237 138.098 5.93952C139.775 7.32428 140.439 9.56806 140.472 11.6765C140.557 14.067 139.79 16.6617 137.846 18.1856C136.268 19.4593 134.158 19.7542 132.19 19.6789C132.187 20.1792 132.191 20.6807 132.184 21.1836C131.004 21.1747 129.825 21.1836 128.646 21.1786C128.644 20.6782 128.644 20.1779 128.644 19.6789C126.658 19.758 124.526 19.453 122.942 18.1575C121.024 16.6247 120.269 14.0517 120.355 11.6727C120.389 9.57313 121.045 7.33578 122.713 5.95231C124.338 4.5662 126.573 4.24588 128.641 4.33265C128.647 3.82852 128.644 3.32568 128.647 2.82278H128.647Z" fill="#626262"/>
</svg>
