<svg width="170" height="44" viewBox="0 0 170 44" fill="none" xmlns="http://www.w3.org/2000/svg">
<path d="M35.402 7.90473L28.3418 30.1444L37.2175 27.4716L44.2777 5.23193L35.402 7.90473Z" fill="#01DF05"/>
<path d="M18.4069 21.1176L11.3467 43.3573L20.2224 40.6845L27.2826 18.4448L18.4069 21.1176Z" fill="#1B34B2"/>
<path d="M11.2963 3.31562L0 38.8184L8.8757 36.1456L20.1721 0.642822L11.2963 3.31562Z" fill="#1B34B2"/>
<path d="M93.2453 12.7966L82.4028 28.3291V12.7966H80.436V31.1532H82.7054L93.5479 15.6207V31.2036H95.5146V12.7966H93.2453Z" fill="#071051"/>
<path d="M112.913 21.9748C113.316 21.7731 114.174 20.7645 114.375 20.4115C115.081 19.3021 115.233 17.8396 115.081 16.5788C114.88 14.9651 113.972 13.7547 112.409 13.2C110.997 12.6957 109.433 12.7966 107.92 12.7966H101.314V14.4103H107.971C108.878 14.4103 109.635 14.4608 110.24 14.5112C110.845 14.5616 111.4 14.7129 111.753 14.9651C112.61 15.4694 113.064 16.5284 113.064 17.4361C113.064 18.4952 112.812 19.9072 111.854 20.5628C111.45 20.815 110.997 20.9662 110.442 21.0167C109.837 21.0671 109.131 21.1175 108.324 21.1175H103.735V22.7817H108.324C109.181 22.7817 109.887 22.8322 110.442 22.8826C110.997 22.933 111.501 23.0843 111.854 23.3365C112.812 23.9921 113.115 25.4041 113.064 26.4631C113.064 27.3709 112.61 28.4299 111.753 28.9342C111.35 29.1864 110.845 29.3377 110.24 29.3881C109.635 29.4385 108.828 29.4889 107.971 29.4889H101.314V31.1027H107.92C109.433 31.1027 110.997 31.2036 112.409 30.6993C113.972 30.1445 114.88 28.9342 115.081 27.3204C115.233 26.0597 115.081 24.5972 114.375 23.4878C114.174 23.1852 113.316 22.1766 112.913 21.9748Z" fill="#071051"/>
<path d="M75.0401 18.8485C74.5862 17.6382 73.981 16.7304 73.1741 16.0748C72.3673 15.4192 71.4091 15.0158 70.2492 14.8141C69.0893 14.6124 67.8286 14.5115 66.4669 14.5115C66.4669 14.5115 66.1644 14.5115 65.4079 14.5115V12.7969H63.2394V14.5115C62.483 14.5115 62.1804 14.5115 62.1804 14.5115C60.7683 14.5115 59.5076 14.6124 58.3981 14.8141C57.2382 15.0158 56.28 15.4192 55.4732 16.0748C54.6663 16.7304 54.0611 17.6382 53.6073 18.8485C53.2542 19.8571 53.0021 20.9161 52.9517 21.9752C53.0021 23.0342 53.2038 24.0932 53.6073 25.1018C54.0611 26.3122 54.6663 27.2199 55.4732 27.8755C56.28 28.5311 57.2382 28.9345 58.3981 29.1362C59.558 29.338 60.8188 29.4388 62.1804 29.4388C62.1804 29.4388 62.483 29.4388 63.2394 29.4388V31.1534H65.4079V29.4388C66.1644 29.4388 66.4669 29.4388 66.4669 29.4388C67.879 29.4388 69.1397 29.338 70.2492 29.1362C71.4091 28.9345 72.3673 28.5311 73.1741 27.8755C73.981 27.2199 74.5862 26.3122 75.0401 25.1018C75.3931 24.0932 75.6452 23.0342 75.6957 21.9752C75.6452 20.9666 75.3931 19.8571 75.0401 18.8485ZM63.2394 27.8251C63.0881 27.8251 60.264 27.8251 59.3563 27.7242C58.499 27.6233 57.7425 27.3208 57.0869 26.8165C55.6749 25.707 54.9689 23.8915 54.9689 22.0256C54.9689 20.1597 55.6749 18.3442 57.0869 17.2347C57.7425 16.7304 58.499 16.4278 59.3563 16.327C60.2136 16.2261 63.0881 16.1757 63.2394 16.2261V27.8251ZM71.5604 26.766C70.9048 27.2703 70.1483 27.5729 69.291 27.6738C68.4337 27.7746 65.5592 27.8251 65.4079 27.7746V16.1757C65.5592 16.1757 68.3833 16.1757 69.291 16.2766C70.1483 16.3774 70.9048 16.68 71.5604 17.1843C72.9724 18.2938 73.6784 20.1092 73.6784 21.9752C73.6784 23.8411 72.9724 25.707 71.5604 26.766Z" fill="#071051"/>
<path d="M121.839 31.2035V12.9478H133.438L133.136 14.5615H123.857V31.2035H121.839Z" fill="#071051"/>
<path d="M135.657 31.2035V12.9478H149.324L149.021 14.5615H137.674V20.9157H146.853V22.5295H137.674V29.5393H149.273L148.971 31.2035H135.657Z" fill="#071051"/>
<path d="M151.644 22.0252C151.644 19.9576 151.896 18.3438 152.35 17.083C152.854 15.8223 153.509 14.8641 154.316 14.2085C155.123 13.5529 156.081 13.0991 157.241 12.8469C158.351 12.6452 159.561 12.4939 160.822 12.4939C162.083 12.4939 163.293 12.5948 164.402 12.8469C165.512 13.0991 166.47 13.5025 167.327 14.2085C168.134 14.8641 168.79 15.8223 169.294 17.083C169.798 18.3438 170 19.9576 170 22.0252C170 24.0928 169.748 25.7066 169.294 26.9673C168.79 28.2281 168.134 29.1863 167.327 29.8419C166.52 30.4975 165.562 30.9513 164.402 31.2035C163.242 31.4556 162.083 31.5565 160.822 31.5565C159.561 31.5565 158.351 31.4556 157.241 31.2035C156.132 31.0018 155.174 30.5479 154.316 29.8419C153.459 29.1358 152.854 28.2281 152.35 26.9673C151.845 25.757 151.644 24.0928 151.644 22.0252ZM160.771 14.1581C159.864 14.1581 158.956 14.2085 158.099 14.259C157.241 14.3094 156.485 14.612 155.829 15.1163C155.174 15.6206 154.669 16.377 154.266 17.4865C153.862 18.5455 153.661 20.0584 153.661 22.0252C153.661 23.3364 153.762 24.4458 153.913 25.3536C154.115 26.2613 154.367 26.9673 154.669 27.5725C154.972 28.1777 155.375 28.5811 155.779 28.9341C156.233 29.2367 156.687 29.4889 157.241 29.6401C157.746 29.7914 158.3 29.8419 158.905 29.8923C159.511 29.9427 160.116 29.9427 160.721 29.9427C161.326 29.9427 161.931 29.9427 162.486 29.8923C163.091 29.8419 163.646 29.7914 164.15 29.6401C164.655 29.4889 165.159 29.2871 165.613 28.9341C166.067 28.6315 166.42 28.1777 166.773 27.5725C167.126 26.9673 167.327 26.2613 167.529 25.3536C167.731 24.4458 167.781 23.3364 167.781 22.0252C167.781 20.0584 167.579 18.5455 167.176 17.4865C166.773 16.4274 166.268 15.6206 165.613 15.1163C164.957 14.612 164.201 14.3094 163.343 14.259C162.587 14.2085 161.73 14.1581 160.771 14.1581Z" fill="#071051"/>
</svg>
