<svg width="148" height="70" viewBox="0 0 148 70" fill="none" xmlns="http://www.w3.org/2000/svg">
<path fill-rule="evenodd" clip-rule="evenodd" d="M99.9948 59.0222C100.548 59.0222 100.744 59.1441 100.744 59.7732V63.1821C100.744 63.8038 100.548 63.9602 99.9948 63.9602H99.6096V59.0222H99.9948ZM139.669 62.3204C140.222 62.3204 140.392 62.4576 140.392 63.0641V64.3453C140.392 64.9473 140.222 65.0885 139.669 65.0885H139.116V62.3204H139.669ZM96.0565 59.7958C96.0565 59.1781 96.2606 59.0222 96.8043 59.0222H97.2008V63.9602H96.8043C96.2606 63.9602 96.0565 63.8151 96.0565 63.1934V59.7958ZM49.5488 70H147.254V53.7142H49.5488V70ZM60.1578 56.3569H57.6787V60.448H56.4045V56.3569H53.9274V66.9609H56.4045V62.3204H57.6787V66.9609H60.1578V56.3569ZM80.6949 56.349H74.7509V66.9688H80.6949V64.9552H77.3062V62.4576H80.3383V60.448H77.3062V58.3587H80.6949V56.349ZM103.145 59.8686C103.145 57.7025 102.091 57.1537 99.6096 57.1537V56.3569H97.2008V57.1537C94.7144 57.1537 93.6517 57.7025 93.6517 59.8686V63.1821C93.6517 65.3329 94.7596 65.9123 97.2008 65.9123V66.9609H99.6096V65.9123C102.051 65.9123 103.145 65.3329 103.145 63.1821V59.8686ZM122.197 56.349H115.959V58.3587H117.971V66.9688H120.326V58.3587H122.197V56.349ZM142.866 63.1364C142.866 61.0161 141.965 60.448 139.534 60.448H139.116V56.3569H136.639V66.9609H139.116C141.809 66.9609 142.866 66.5493 142.866 64.2273V63.1364ZM43.0133 45.5772V62.286C38.5545 67.0258 32.2095 70 25.1629 70C11.6551 70 0.695312 59.0905 0.695312 45.6382C0.695312 32.1933 11.6551 21.2843 25.1629 21.2843V39.5984C21.6482 39.5984 18.1315 40.9328 15.4502 43.602C14.8097 44.235 14.2488 44.9177 13.7628 45.6382C10.1639 50.9575 10.7228 58.2406 15.4502 62.9456C18.1315 65.6074 21.6482 66.9496 25.1629 66.9496C28.6604 66.9496 32.1623 65.6266 34.8416 62.976C34.8549 62.9608 34.8686 62.9534 34.8834 62.9421V62.9342L34.9178 62.9077C37.605 60.2345 37.605 55.8916 34.9178 53.2263C32.2306 50.5492 27.8806 50.5492 25.1953 53.2263C25.1781 53.2337 25.1707 53.2416 25.1629 53.2529V45.5772H43.0133ZM39.9699 12.6285C41.4459 19.1148 41.4188 23.1032 40.7783 27.6522C39.6167 35.8428 35.8959 42.1034 34.2846 44.2045C33.1782 42.7782 31.4853 39.869 30.3562 37.1545C30.3562 37.1545 28.22 31.9877 27.6557 26.9543C27.0909 21.9173 27.3335 16.8002 28.9792 11.0383C30.4876 5.86075 33.4473 1.20845 34.2581 0C34.7668 0.857767 38.4876 6.13913 39.9699 12.6285ZM34.2581 42.5918C35.0133 41.192 36.3101 38.1229 36.1955 34.2222C36.0376 30.2412 34.691 27.3241 34.2846 26.6262C33.8212 27.3241 32.2611 30.6681 32.2877 34.5768C32.3989 38.6069 33.5314 41.223 34.2581 42.5918ZM39.5424 23.6407C39.5882 21.1658 39.3496 16.9601 38.1408 12.5714C36.928 8.18273 34.5764 4.0075 34.2295 3.4655C33.8842 4.0075 32.0225 7.39726 30.3788 12.7047C29.9459 14.2948 29.1661 17.746 29.0308 21.1087C28.8724 25.1886 29.4254 29.2344 29.6487 30.3784C29.6487 29.0288 29.6753 24.529 30.5107 20.8151C31.3475 17.0934 32.9381 12.8114 34.2295 10.6345C35.6312 12.926 37.3876 17.8715 38.0015 20.8382C38.6254 23.8045 38.9491 27.5986 38.8158 30.287C39.1897 28.7273 39.4854 26.1152 39.5424 23.6407ZM141.149 21.1584H147.254V45.5812H142.555V30.2638H142.392L139.974 45.5812H136.221L133.809 30.2638H133.649V45.5812H128.948V21.1584H135.043L138.086 38.3211L141.149 21.1584ZM107.613 34.5881C108.124 34.5881 108.489 34.1381 108.489 33.3678V25.4099C108.489 24.6436 108.124 24.1901 107.613 24.1901H106.378V34.5881H107.613ZM101.688 21.1584H109.059C112.347 21.1584 112.867 23.8124 112.867 25.5205V32.9104C112.867 34.626 112.347 37.2799 109.059 37.2799H106.378V45.5812H101.688V21.1584ZM87.4326 21.1584H98.2915V45.5812H93.9129V24.1901H91.8077V45.5812H87.4326V21.1584ZM78.1814 37.0286V41.6234C78.1814 42.2563 78.6434 42.4314 78.9159 42.4314C79.3469 42.4314 79.648 42.0463 79.648 41.6234V35.9456C79.648 35.1827 79.5181 34.3441 77.7716 34.3441H75.8647V31.6597H77.8385C79.1787 31.6597 79.648 31.3356 79.648 29.8482V24.9903C79.648 24.5713 79.3469 24.1901 78.9159 24.1901C78.6434 24.1901 78.1814 24.3652 78.1814 24.9903V28.9713H73.4806V25.5205C73.4806 23.8124 73.6887 21.1584 76.9687 21.1584H80.8607C84.1447 21.1584 84.3474 23.8124 84.3474 25.5205V29.4326C84.3474 32.0792 82.5659 32.8071 81.1564 32.7388V32.9862C84.3071 32.9104 84.3474 35.4267 84.3474 36.3002V41.2151C84.3474 42.9272 84.1447 45.5812 80.8607 45.5812H76.9687C73.6887 45.5812 73.4806 42.9272 73.4806 41.2151V37.0286H78.1814ZM66.2603 36.403L65.4554 24.1901H65.1962L64.3839 36.403H66.2603ZM61.6377 21.1584H69.0124L71.461 45.5812H66.8689L66.434 39.0874H64.222L63.7778 45.5812H59.195L61.6377 21.1584ZM49.5488 21.1584H58.5028V24.1901H54.2403V45.5812H49.5488V21.1584ZM122.685 21.1584C125.973 21.1584 126.179 23.8124 126.179 25.5205V41.2151C126.179 42.9272 125.973 45.5812 122.685 45.5812H118.802C115.52 45.5812 115.322 42.9272 115.322 41.2151V25.5205C115.322 23.8124 115.52 21.1584 118.802 21.1584H122.685ZM120.749 42.5613C121.316 42.5613 121.786 42.1265 121.786 41.5889L121.785 41.5584V25.1162L121.777 25.04C121.728 24.5634 121.282 24.1822 120.741 24.1822C120.204 24.1822 119.773 24.5634 119.71 25.04V41.5584L119.702 41.5889C119.702 42.1265 120.171 42.5613 120.749 42.5613Z" fill="#1A7FC3"/>
<path fill-rule="evenodd" clip-rule="evenodd" d="M141.359 21.5981H147.305V46.3632H142.728V30.8311H142.57L140.214 46.3632H136.559L134.209 30.8311H134.053V46.3632H129.474V21.5981H135.411L138.375 39.0014L141.359 21.5981Z" fill="#1A7FC3"/>
</svg>
