<svg width="146" height="70" viewBox="0 0 146 70" fill="none" xmlns="http://www.w3.org/2000/svg">
<path d="M45.1715 45.7659H54.412V48.785H50.0165V70H45.1715V45.7659Z" fill="#0079C1"/>
<path d="M59.8905 60.9023L60.7208 48.785H60.999L61.8292 60.9023H59.8905ZM54.5255 70H59.2689L59.7176 63.5643H62.0022L62.453 70H67.1945L64.6678 45.7659H57.0521L54.5255 70Z" fill="#0079C1"/>
<path d="M74.1325 61.5179V66.0866C74.1325 66.7022 74.6092 66.8812 74.8874 66.8812C75.3442 66.8812 75.662 66.5036 75.662 66.0866V60.445C75.662 59.6906 75.5232 58.8564 73.7153 58.8564H71.749V56.1947H73.7951C75.1656 56.1947 75.662 55.8764 75.662 54.3869V49.5801C75.662 49.1629 75.3442 48.785 74.8874 48.785C74.6092 48.785 74.1325 48.9439 74.1325 49.5801V53.5327H69.2861V50.0959C69.2861 48.408 69.485 45.7659 72.8816 45.7659H76.8937C80.2898 45.7659 80.5089 48.408 80.5089 50.0959V53.9693C80.5089 56.6113 78.662 57.3267 77.2117 57.2671V57.5057C80.4693 57.4259 80.5089 59.9287 80.5089 60.7829V65.6694C80.5089 67.3774 80.2898 70 76.8937 70H72.8816C69.485 70 69.2861 67.3774 69.2861 65.6694V61.5179H74.1325Z" fill="#0079C1"/>
<path d="M83.6874 45.7659H94.9103V70H90.0634V48.785H88.5337V70H83.6874V45.7659Z" fill="#0079C1"/>
<path d="M102.935 59.095V48.785H103.571C104.087 48.785 104.464 49.2221 104.464 49.9972V57.8827C104.464 58.6578 104.087 59.095 103.571 59.095H102.935ZM98.0882 70H102.935V61.756H105.716C109.093 61.756 109.312 59.134 109.312 57.4259V50.0959C109.312 48.408 109.093 45.7659 105.716 45.7659H98.0882V70Z" fill="#0079C1"/>
<path d="M118.865 66.0866C118.865 66.5036 118.548 66.8812 118.092 66.8812C117.813 66.8812 117.337 66.7022 117.337 66.0866V49.5801C117.337 48.9439 117.813 48.785 118.092 48.785C118.548 48.785 118.865 49.1629 118.865 49.5801V66.0866ZM112.49 65.6694C112.49 67.3774 112.708 70 116.085 70H120.117C123.494 70 123.713 67.3774 123.713 65.6694V50.0959C123.713 48.408 123.494 45.7659 120.117 45.7659H116.085C112.708 45.7659 112.49 48.408 112.49 50.0959V65.6694Z" fill="#0079C1"/>
<path d="M139.484 45.7659H145.801V70H140.954V54.8035H140.775L138.273 70H134.399L131.916 54.8035H131.737V70H126.891V45.7659H133.188L136.346 62.8094L139.484 45.7659Z" fill="#0079C1"/>
<path d="M38.8906 12.6334C37.4068 6.13786 33.6882 0.854047 33.1757 0C32.3652 1.21145 29.3997 5.87967 27.8919 11.0444C26.2452 16.8247 26.003 21.9492 26.5711 26.9751C27.1352 32.0203 29.2666 37.2046 29.2666 37.2046C30.3989 39.9063 32.0953 42.8261 33.1997 44.2564C34.8182 42.1507 38.539 35.8741 39.6991 27.6903C40.3446 23.1216 40.3726 19.129 38.8906 12.6334ZM33.1757 42.6277C32.4467 41.257 31.3146 38.6551 31.2073 34.6026C31.1796 30.7095 32.7428 27.3523 33.1997 26.6573C33.6068 27.3523 34.9535 30.2726 35.1146 34.2649C35.2237 38.1581 33.9285 41.2369 33.1757 42.6277ZM38.4595 23.6577C38.4037 26.1406 38.1079 28.7628 37.7305 30.3319C37.8654 27.6305 37.5417 23.8365 36.9219 20.8571C36.3023 17.8974 34.5484 12.9313 33.1479 10.6468C31.8547 12.8321 30.2618 17.1224 29.4277 20.8369C28.5892 24.5513 28.5652 29.0606 28.5652 30.4114C28.3428 29.2792 27.7868 25.2071 27.9435 21.1353C28.0748 17.7781 28.8613 14.302 29.2924 12.7129C30.9372 7.4092 32.7983 4.01261 33.1479 3.47594C33.4978 4.01261 35.8415 8.20365 37.0569 12.5935C38.2669 16.9834 38.5112 21.1947 38.4595 23.6577Z" fill="#0079C1"/>
<path d="M24.4118 45.7659V53.3341C24.4217 53.3341 24.4298 53.3145 24.4396 53.3145C27.0973 50.6524 31.4077 50.6524 34.0676 53.3145C36.7256 55.9561 36.7256 60.2665 34.0676 62.9282C34.0557 62.9482 34.0436 62.9482 34.032 62.9682C34.0179 62.9682 34.004 62.9878 33.9921 63.0074C31.3403 65.6293 27.876 66.9408 24.4118 66.9408C20.9319 66.9408 17.4517 65.6293 14.7978 62.9682C10.1177 58.2998 9.5637 51.05 13.1312 45.7659C13.6118 45.051 14.1661 44.3757 14.7978 43.7396C17.4517 41.0779 20.9319 39.767 24.4118 39.767V21.5721C11.0394 21.5721 0.199707 32.3977 0.199707 45.7659C0.199707 59.134 11.0394 69.9798 24.4118 69.9798C31.3841 69.9798 37.6652 67.0205 42.0828 62.312V45.7659H24.4118Z" fill="#0079C1"/>
</svg>
