<svg width="170" height="38" viewBox="0 0 170 38" fill="none" xmlns="http://www.w3.org/2000/svg">
<path fill-rule="evenodd" clip-rule="evenodd" d="M44.7648 11.5135C44.7201 12.1733 44.7934 16.2045 41.2121 14.1736C37.6307 12.1428 30.2564 7.06968 26.1795 4.02194C22.1025 0.974121 20.5961 1.1904 19.9701 1.01643C19.344 0.842457 18.8158 0.861359 18.2073 1.01332C17.5987 1.16529 16.9099 1.45039 14.569 2.95579C12.2282 4.46126 8.23513 7.18695 5.52935 9.08579C2.82349 10.9846 1.40496 12.0566 0.642265 13.0416C-0.12035 14.0265 -0.227051 14.9245 0.447295 15.6024C1.12172 16.2803 2.57711 16.7381 9.38426 17.6755C16.1914 18.613 28.3503 20.0301 35.1692 20.7614C36.3549 20.8886 47.2462 21.347 47.3153 24.2808C47.3694 26.5804 47.4381 29.6834 47.3657 31.7989C47.2933 33.9141 47.3822 34.5573 46.9706 34.8323C46.5589 35.1072 45.6467 35.0138 38.4681 34.2921C31.2893 33.5703 17.5462 31.9595 10.4734 30.9312C3.40062 29.9026 2.71663 29.9344 2.50595 28.7017C2.29535 27.4691 2.55798 24.9718 2.64905 23.7174C2.74004 22.4631 2.88469 21.5789 3.70385 21.6472C4.523 21.7155 5.88406 23.2036 7.80218 23.4678C9.72023 23.7318 12.5347 22.6083 15.0926 22.8567C17.6503 23.105 20.9895 25.3095 24.3473 25.5979C27.7052 25.8866 31.1951 24.3243 33.4797 24.2765C35.5933 24.2323 40.7898 25.7814 42.3662 27.1677C43.2944 27.984 43.3652 28.918 43.2491 29.6024C43.1331 30.2865 42.8301 30.7211 41.6178 30.6067C40.4052 30.4923 37.6683 28.7285 34.7205 28.4038C31.7728 28.0789 28.7117 29.6787 26.056 29.4641C22.7739 29.1987 20.0329 27.1167 16.4429 26.4926C12.2233 25.759 5.39916 27.9877 5.71545 28.6879C5.86975 29.0297 12.2821 27.8204 15.9974 28.8159C18.2939 29.4311 21.8718 31.1806 25.3064 31.6343C28.7411 32.0879 31.8321 30.4929 34.9886 30.8567C38.1453 31.2205 41.0575 32.9365 42.6415 32.9787C43.8697 33.0114 45.4621 32.196 45.4852 29.868C45.4963 28.7641 45.4975 27.49 45.0115 26.4763C44.5257 25.4625 43.7243 24.7106 41.9981 24.0162C40.272 23.3217 37.5646 22.062 34.4468 21.9252C31.3289 21.7883 27.8003 23.5668 24.442 23.2744C21.3805 23.0079 18.4252 21.3832 15.0903 20.9055C12.9743 20.6023 10.5007 22.2867 7.99848 21.4791C5.81088 20.773 1.12141 16.9792 0.728355 21.8781C0.575615 23.7827 0.286076 26.1774 0.314307 28.0733C0.342615 29.9694 0.95529 30.6622 1.40146 31.2016C1.84747 31.7409 2.13499 32.0534 9.70966 33.1203C17.2845 34.1874 32.9184 36.1722 39.4581 36.686C45.9977 37.1996 47.8233 37.2442 48.4672 36.8179C49.1108 36.3915 49.612 35.8008 49.644 34.4222C49.6756 33.0433 49.7962 32.9981 49.7528 30.8493C49.7094 28.7007 49.6929 25.7506 49.5882 23.5511C49.3977 19.5531 43.1964 19.0909 36.5137 18.4259C29.415 17.7196 16.6811 16.2449 10.2706 15.3434C3.86001 14.4419 3.77236 14.1134 3.99276 13.7605C4.21309 13.4076 4.74138 13.0302 6.89219 11.5303C9.04293 10.0305 12.8163 7.40805 14.9577 5.93648C17.0988 4.46484 17.6083 4.14412 18.1265 3.9871C18.6446 3.83008 19.1712 3.83677 19.7629 3.89486C20.3545 3.95296 21.4856 3.91438 24.7755 6.37962C27.2281 8.21726 39.4202 17.152 43.2008 17.8084C46.2831 18.1281 47.2698 15.1715 47.5705 14.0858C47.8787 11.6312 47.9841 10.3902 50.0565 9.02544C50.2182 8.91905 50.4974 8.68838 50.6553 8.6432C51.4504 8.00471 52.2837 7.27662 52.9424 6.46237C53.2465 6.08635 53.3603 5.90911 53.622 5.40959C54.0494 5.40796 54.6643 5.24472 55.3431 5.56692C55.6398 5.70777 55.6799 5.84518 55.8573 5.99831C55.904 5.79152 55.8396 5.61677 55.7363 5.4449C55.5927 5.20568 55.4797 5.16438 55.1626 4.99819C55.813 4.64465 55.6986 4.35659 55.7906 4.00242L55.7075 3.95879C55.4533 4.41833 54.998 4.59666 54.6176 4.69994C53.3029 5.05667 54.2381 4.46149 51.8862 4.08197C50.0571 3.78668 47.3142 4.04403 45.9768 5.53341C45.8788 5.64252 45.8282 5.74268 45.7159 5.87614C45.4963 6.41368 45.2788 6.74001 45.1284 7.32834C44.779 8.69492 44.735 10.1109 44.7648 11.5135ZM49.0524 5.02813C49.3217 5.16944 49.431 5.51902 49.2896 5.78857C49.067 6.21335 48.418 6.14507 48.2752 5.68801C48.1375 5.2469 48.6054 4.79396 49.0524 5.02813Z" fill="url(#paint0_linear_371_152)"/>
<path d="M74.3001 30.3227V27.9964H84.4455C84.7445 27.9964 84.9967 27.8843 85.2022 27.6602C85.4265 27.4545 85.5385 27.2025 85.5385 26.9032V23.9045H74.6925C74.0759 23.9045 73.506 23.7551 72.9829 23.4563C72.4784 23.1386 72.0673 22.7274 71.7497 22.2229C71.4507 21.6999 71.3013 21.13 71.3013 20.5135V11.0406C71.3013 10.4241 71.4507 9.86338 71.7497 9.35911C72.0673 8.8358 72.4784 8.42471 72.9829 8.12576C73.506 7.80814 74.0759 7.64941 74.6925 7.64941H84.4455C85.0808 7.64941 85.6507 7.80814 86.1552 8.12576C86.6783 8.42471 87.0893 8.8358 87.3884 9.35911C87.6872 9.86338 87.8367 10.4241 87.8367 11.0406V26.9032C87.8367 27.5388 87.6872 28.1084 87.3884 28.6129C87.0893 29.136 86.6783 29.5471 86.1552 29.8461C85.6507 30.1638 85.0808 30.3227 84.4455 30.3227H74.3001ZM74.6925 21.6064H84.4455C84.7445 21.6064 84.9967 21.5036 85.2022 21.298C85.4265 21.074 85.5385 20.8124 85.5385 20.5135V11.0406C85.5385 10.7416 85.4265 10.4894 85.2022 10.284C84.9967 10.0596 84.7445 9.94775 84.4455 9.94775H74.6925C74.3934 9.94775 74.132 10.0596 73.9077 10.284C73.7022 10.4894 73.5994 10.7416 73.5994 11.0406V20.5135C73.5994 20.8124 73.7022 21.074 73.9077 21.298C74.132 21.5036 74.3934 21.6064 74.6925 21.6064ZM93.6933 23.9045C93.0767 23.9045 92.5068 23.7551 91.9836 23.4563C91.4792 23.1386 91.0681 22.7274 90.7506 22.2229C90.4515 21.6999 90.302 21.13 90.302 20.5135V11.0406C90.302 10.4241 90.4515 9.86338 90.7506 9.35911C91.0681 8.8358 91.4792 8.42471 91.9836 8.12576C92.5068 7.80814 93.0767 7.64941 93.6933 7.64941H103.446C104.082 7.64941 104.652 7.80814 105.156 8.12576C105.679 8.42471 106.09 8.8358 106.389 9.35911C106.707 9.86338 106.866 10.4241 106.866 11.0406V16.9261H92.6003V20.5135C92.6003 20.8124 92.7029 21.074 92.9085 21.298C93.1327 21.5036 93.3943 21.6064 93.6933 21.6064H106.866V23.9045H93.6933ZM92.6003 14.628H104.539V11.0406C104.539 10.7416 104.427 10.4894 104.203 10.284C103.997 10.0596 103.745 9.94775 103.446 9.94775H93.6933C93.3943 9.94775 93.1327 10.0596 92.9085 10.284C92.7029 10.4894 92.6003 10.7416 92.6003 11.0406V14.628ZM113.098 23.9045C112.482 23.9045 111.912 23.7551 111.388 23.4563C110.884 23.1386 110.473 22.7274 110.155 22.2229C109.857 21.6999 109.707 21.13 109.707 20.5135V11.0406C109.707 10.4241 109.857 9.86338 110.155 9.35911C110.473 8.8358 110.884 8.42471 111.388 8.12576C111.912 7.80814 112.482 7.64941 113.098 7.64941H122.851C123.486 7.64941 124.056 7.80814 124.561 8.12576C125.084 8.42471 125.495 8.8358 125.794 9.35911C126.112 9.86338 126.27 10.4241 126.27 11.0406V20.5135C126.27 21.13 126.112 21.6999 125.794 22.2229C125.495 22.7274 125.084 23.1386 124.561 23.4563C124.056 23.7551 123.486 23.9045 122.851 23.9045H113.098ZM113.098 21.6064H122.851C123.15 21.6064 123.402 21.5036 123.608 21.298C123.832 21.074 123.944 20.8124 123.944 20.5135V11.0406C123.944 10.7416 123.832 10.4894 123.608 10.284C123.402 10.0596 123.15 9.94775 122.851 9.94775H113.098C112.799 9.94775 112.537 10.0596 112.313 10.284C112.108 10.4894 112.005 10.7416 112.005 11.0406V20.5135C112.005 20.8124 112.108 21.074 112.313 21.298C112.537 21.5036 112.799 21.6064 113.098 21.6064ZM129.196 23.9045V21.6064H131.494V23.9045H129.196ZM135.19 30.3506V7.64941H148.362C148.979 7.64941 149.539 7.80814 150.043 8.12576C150.567 8.42471 150.978 8.8358 151.277 9.35911C151.594 9.86338 151.753 10.4241 151.753 11.0406V20.5135C151.753 21.13 151.594 21.6999 151.277 22.2229C150.978 22.7274 150.567 23.1386 150.043 23.4563C149.539 23.7551 148.979 23.9045 148.362 23.9045H137.488V30.3506H135.19ZM138.609 21.6064H148.362C148.661 21.6064 148.913 21.5036 149.119 21.298C149.343 21.074 149.455 20.8124 149.455 20.5135V11.0406C149.455 10.7416 149.343 10.4894 149.119 10.284C148.913 10.0596 148.661 9.94775 148.362 9.94775H138.609C138.31 9.94775 138.048 10.0596 137.824 10.284C137.6 10.4894 137.488 10.7416 137.488 11.0406V20.5135C137.488 20.8124 137.6 21.074 137.824 21.298C138.048 21.5036 138.31 21.6064 138.609 21.6064ZM156.463 30.3506V28.0244H166.609C166.908 28.0244 167.16 27.9122 167.365 27.6881C167.59 27.4827 167.702 27.2303 167.702 26.9315V23.9045H156.856C156.239 23.9045 155.669 23.7551 155.146 23.4563C154.642 23.1386 154.23 22.7274 153.913 22.2229C153.614 21.6999 153.464 21.13 153.464 20.5135V7.70549H155.763V20.5135C155.763 20.8124 155.865 21.074 156.071 21.298C156.295 21.5036 156.557 21.6064 156.856 21.6064H166.609C166.908 21.6064 167.16 21.5036 167.365 21.298C167.59 21.074 167.702 20.8124 167.702 20.5135V7.70549H170V26.9315C170 27.5667 169.85 28.1365 169.551 28.6409C169.252 29.1642 168.841 29.5753 168.318 29.8742C167.814 30.1917 167.244 30.3506 166.609 30.3506H156.463Z" fill="#002ED4"/>
<defs>
<linearGradient id="paint0_linear_371_152" x1="-3.97602e-05" y1="19.0001" x2="55.8728" y2="19.0001" gradientUnits="userSpaceOnUse">
<stop stop-color="#252440"/>
<stop offset="1" stop-color="#002ED4"/>
</linearGradient>
</defs>
</svg>
