<svg width="170" height="48" viewBox="0 0 170 48" fill="none" xmlns="http://www.w3.org/2000/svg">
<path d="M55.6136 21.3351H53.2586V9.56255H61.6862V11.6693H55.6136V21.3351ZM39.3788 7.70286C30.3323 -1.34301 15.8321 -1.34301 6.78563 7.70286C-2.26188 16.7493 -2.26188 31.2496 6.78563 40.296C15.8321 49.3435 30.3323 49.3435 39.3788 40.296C48.4252 31.2496 48.4252 16.6257 39.3788 7.70286ZM7.52908 39.5531C-1.14563 30.8773 -1.14563 16.8739 7.52908 8.19919C7.65316 8.07456 7.77668 7.95104 7.90132 7.95104C18.9299 -2.45926 34.1736 13.1562 23.2686 24.0612C13.6017 33.7286 24.2597 47.6079 34.7935 42.7745C26.2423 48.1042 14.841 46.9886 7.52908 39.5531ZM15.4609 25.5486C19.7979 19.8477 19.5498 13.5279 13.7253 9.56199C16.576 15.7582 10.3793 12.6604 6.78617 22.8219C4.1825 34.2233 15.2127 43.0227 23.1445 43.8907C14.841 42.898 10.9986 31.2501 15.4609 25.5486ZM10.1322 33.3558C8.02541 29.1433 10.7515 25.4251 10.7515 25.4251C10.7515 25.4251 9.88402 29.7627 11.3714 33.4804C12.8589 37.0735 14.4698 39.0573 14.4698 39.0573C14.4698 39.0573 12.2389 37.5693 10.1322 33.3558ZM65.6521 21.5827C64.9087 21.5827 64.2888 21.4597 63.9165 21.2115V19.1047C64.2888 19.3524 64.7841 19.4759 65.2804 19.4759C65.7751 19.4759 66.1479 19.3524 66.3945 19.1047C66.6432 18.8566 67.0149 18.4849 67.2626 17.8655L62.8014 9.68554H65.4034L68.3782 15.387L71.1049 9.56199H73.7069L69.3699 18.733C68.5018 20.5922 67.2626 21.5827 65.6521 21.5827ZM80.1513 21.3351H75.0697V9.56255H83.6209V11.6693H77.5493V13.6514H80.1513C81.5141 13.6514 82.6298 14.0232 83.3733 14.7677C84.1172 15.5106 84.6136 16.3781 84.6136 17.4927C84.6136 18.6084 84.2408 19.6 83.3733 20.2194C82.6298 20.9639 81.5141 21.3351 80.1513 21.3351ZM77.5493 15.6341V19.2283H80.0278C80.7712 19.2283 81.267 19.1048 81.6387 18.7319C82.0099 18.4849 82.2586 17.9891 82.2586 17.3697C82.2586 16.7498 82.0099 16.3781 81.6387 16.0069C81.267 15.6341 80.7712 15.5106 80.0278 15.5106H77.5493V15.6341ZM89.0742 21.3351H86.7193V9.56255H89.0742V14.1478L93.4113 9.56255H96.3867L91.4297 14.8907L97.2542 21.2115H94.1558L89.0742 15.7587V21.3351ZM100.476 21.3351H98.4934V9.56255H100.847V17.2456L106.549 9.56255H108.656V21.3351H106.3V13.6514L100.476 21.3351ZM113.613 21.3351H111.257V9.56255H113.613V13.8996H118.941V9.56255H121.296V21.3351H118.941V16.1299H113.613V21.3351ZM129.847 21.5827C127.988 21.5827 126.501 20.9634 125.262 19.8477C124.022 18.733 123.402 17.2456 123.402 15.5106C123.402 13.7761 124.022 12.2887 125.138 11.173C126.377 10.0573 127.865 9.43736 129.723 9.43736C130.838 9.43736 131.954 9.68552 132.822 10.1819V12.6604C131.954 12.0405 130.838 11.7928 129.723 11.7928C128.608 11.7928 127.74 12.164 126.872 12.9086C126.129 13.6514 125.757 14.519 125.757 15.6347C125.757 16.7498 126.129 17.6174 126.872 18.3602C127.616 19.1048 128.608 19.4759 129.723 19.4759C130.962 19.4759 132.077 19.1048 132.945 18.4849V20.9633C132.202 21.3351 131.086 21.5827 129.847 21.5827ZM137.654 21.3351H135.299V9.56255H137.654V14.1478L141.992 9.56255H144.966L140.009 14.8907L145.834 21.2115H142.736L137.654 15.7587V21.3351ZM149.056 21.3351H147.074V9.56255H149.427V17.2456L155.129 9.56255H157.235V21.3351H154.88V13.6514L149.056 21.3351ZM161.821 21.3351H159.838V9.56255H162.192V17.2456L167.893 9.56255H170V21.3351H167.645V13.6514L161.821 21.3351ZM161.697 6.09136H163.431C163.431 6.46417 163.556 6.71124 163.803 6.95942C164.051 7.20705 164.299 7.33059 164.795 7.33059C165.167 7.33059 165.538 7.20705 165.786 6.95942C166.035 6.71124 166.158 6.46417 166.158 6.09136H167.893C167.893 6.95943 167.645 7.7034 167.026 8.19866C166.406 8.69501 165.786 8.94263 164.795 8.94263C163.803 8.94263 163.183 8.69501 162.563 8.19866C162.069 7.7034 161.821 6.95943 161.697 6.09136Z" fill="#571212"/>
<path d="M166.034 37.4457H164.918V27.5318H161.2V26.5407H169.875V27.5318H166.034V37.4457ZM55.6131 37.5698C54.9938 37.5698 54.6221 37.4463 54.2503 37.3216V36.207C54.6221 36.3306 54.9938 36.4541 55.4896 36.4541C55.9843 36.4541 56.4807 36.207 56.8524 35.7107C56.9759 35.4631 57.2241 35.2149 57.3487 35.0913C57.4717 34.9678 57.5958 34.7196 57.8434 34.2238L53.3828 26.4166H54.6221L58.3398 33.1087L61.4376 26.4166H62.6774L58.588 35.0913C58.2152 35.9589 57.7199 36.5788 57.2241 36.9505C56.7288 37.4463 56.233 37.5698 55.6131 37.5698ZM65.7753 37.4457H64.659V26.5407H65.7753V31.0013H72.2197V26.4161H73.3353V37.3222H72.2197V31.9924H65.7753V37.4457ZM77.4248 37.4457H76.4337V26.5407H77.5478V35.5866L84.365 26.5407H85.3561V37.4457H84.2404V28.3993L77.4248 37.4457ZM93.5355 37.4457H88.3303V26.5407H93.0392C94.0313 26.5407 94.7747 26.7878 95.3941 27.2836C96.014 27.78 96.2616 28.3993 96.2616 29.2663C96.2616 29.8856 96.1375 30.2584 95.8905 30.7537C95.6423 31.1249 95.2711 31.4977 94.7747 31.6212C95.5176 31.7448 96.1375 31.9924 96.5098 32.6123C96.8815 33.1086 97.1297 33.728 97.1297 34.5961C97.1297 35.4636 96.7569 36.2065 96.1375 36.8264C95.5176 37.1976 94.6512 37.4457 93.5355 37.4457ZM89.4461 27.5318V31.1249H92.7921C93.5355 31.1249 94.0313 31.0013 94.403 30.6296C94.7748 30.382 95.0224 29.8856 95.0224 29.2663C95.0224 28.6464 94.7748 28.2747 94.403 27.9035C94.0313 27.5318 93.5355 27.4072 92.7921 27.4072H89.4461V27.5318ZM89.4461 32.117V36.33H93.2873C94.1549 36.33 94.7747 36.083 95.1465 35.7107C95.6423 35.339 95.7658 34.8437 95.7658 34.0997C95.7658 33.4804 95.5176 32.8605 95.1465 32.4888C94.6512 32.117 94.0313 31.9924 93.2873 31.9924H89.4461V32.117ZM107.044 37.4457H99.36V26.5407H106.795V27.5318H100.476V31.0013H105.681V31.9924H100.476V36.33H107.044V37.4457ZM110.39 37.4457H109.274V26.5407H113.859C114.975 26.5407 115.843 26.7878 116.462 27.4072C117.082 28.0271 117.453 28.6464 117.453 29.6386C117.453 30.6296 117.082 31.3731 116.462 31.8694C115.843 32.3641 114.975 32.7369 113.859 32.7369H110.39V37.4457ZM110.39 27.5318V31.4977H113.736C114.479 31.4977 115.098 31.3731 115.471 31.0013C115.843 30.6296 116.091 30.1338 116.091 29.5139C116.091 28.8946 115.843 28.3993 115.471 28.027C115.098 27.6553 114.479 27.5318 113.611 27.5318H110.39ZM124.889 37.5698C123.278 37.5698 121.915 37.0735 120.923 35.9589C119.808 34.8432 119.313 33.6039 119.313 31.8683C119.313 30.2574 119.808 28.8951 120.923 27.7794C122.039 26.6632 123.278 26.1685 124.889 26.1685C126.129 26.1685 127.12 26.4166 127.987 27.036V28.2758C126.996 27.6559 126.005 27.4077 124.889 27.4077C123.65 27.4077 122.534 27.9041 121.667 28.7705C120.8 29.638 120.427 30.7537 120.427 31.9929C120.427 33.3557 120.8 34.4715 121.667 35.2149C122.534 36.0824 123.65 36.4541 124.889 36.4541C126.129 36.4541 127.244 36.0824 128.111 35.339V36.5788C127.244 37.3216 126.129 37.5698 124.889 37.5698ZM131.457 37.4457H130.466V26.5407H131.581V35.5866L138.398 26.5407H139.389V37.4457H138.273V28.3993L131.457 37.4457ZM146.453 37.4457H145.337V27.5318H141.619V26.5407H150.295V27.5318H146.453V37.4457ZM159.837 37.4457H152.154V26.5407H159.589V27.5318H153.27V31.0013H158.475V31.9924H153.27V36.33H159.837V37.4457Z" fill="#000303"/>
</svg>
