<svg width="170" height="40" viewBox="0 0 170 40" fill="none" xmlns="http://www.w3.org/2000/svg">
<mask id="mask0_246_6067" style="mask-type:luminance" maskUnits="userSpaceOnUse" x="0" y="0" width="170" height="40">
<path d="M170 0.092041H0V39.9078H170V0.092041Z" fill="white"/>
</mask>
<g mask="url(#mask0_246_6067)">
<path d="M63.6997 6.46257L59.3335 14.5565C58.9788 15.2591 58.4577 15.8653 57.8154 16.3228C57.2461 16.7164 56.569 16.9256 55.8756 16.9217C55.3008 16.9145 54.7328 16.7947 54.2042 16.5693L54.775 14.7745C55.1049 14.8868 55.4498 14.9506 55.7982 14.964C56.0755 14.9723 56.3493 14.9017 56.5879 14.7602C56.8514 14.5912 57.0727 14.3639 57.2342 14.0961L57.3223 13.98L53.2734 6.47477H55.8124L58.5438 11.959L61.359 6.4585L63.6997 6.46257Z" fill="black"/>
<path d="M74.2448 6.46265V16.6835H71.8693V12.4949H67.2065V16.6835H64.8291V6.46265H67.2065V10.4984H71.8693V6.46672L74.2448 6.46265Z" fill="black"/>
<path d="M76.8101 6.46265H79.1713V13.1224L84.0672 6.46265H86.2972V16.6835H83.9506V10.04L79.0543 16.6835H76.8101V6.46265Z" fill="black"/>
<path d="M95.4918 13.6154C95.4918 12.772 94.9348 12.3489 93.8203 12.3462H91.2118V14.9315H93.8203C94.936 14.9315 95.4934 14.4928 95.4918 13.6154ZM91.2118 10.6981H93.4233C93.8393 10.7267 94.2525 10.6163 94.5978 10.3843C94.7874 10.2051 94.9174 9.97237 94.9699 9.71736C95.0229 9.4624 94.9956 9.19747 94.8925 8.95827C94.8238 8.79946 94.7234 8.65605 94.5978 8.53659C94.2565 8.30225 93.8456 8.18954 93.4316 8.21672H91.2181L91.2118 10.6981ZM97.3885 12.2606C97.7302 12.7028 97.9068 13.2494 97.8878 13.8069C97.906 14.2164 97.8222 14.6241 97.6437 14.9934C97.4655 15.3628 97.1976 15.6824 96.865 15.9236C96.1733 16.4316 95.1876 16.6849 93.9084 16.6835H88.8506V6.46265H93.6303C94.8238 6.46265 95.7517 6.6915 96.4146 7.14921C96.7362 7.36186 96.997 7.65377 97.1716 7.99648C97.3462 8.33918 97.4287 8.72108 97.411 9.10495C97.4212 9.5783 97.2889 10.0438 97.0305 10.4414C96.7639 10.837 96.3941 11.1526 95.9603 11.3541C96.5193 11.5021 97.0183 11.8188 97.3885 12.2606Z" fill="black"/>
<path d="M107.72 14.7848V16.6835H99.772V6.46265H107.528V8.36139H102.133V10.5799H106.898V12.4298H102.133V14.795L107.72 14.7848Z" fill="black"/>
<path d="M115.581 11.4782C115.768 11.3178 115.916 11.1164 116.013 10.89C116.109 10.6635 116.152 10.4179 116.138 10.1723C116.154 9.92385 116.112 9.67508 116.015 9.4454C115.919 9.21572 115.77 9.01132 115.581 8.84812C115.209 8.54255 114.663 8.38974 113.945 8.38974H112.005V11.9468H113.961C114.669 11.9468 115.209 11.7906 115.581 11.4782ZM116.453 6.91478C116.918 7.13585 117.331 7.45205 117.665 7.84271C117.999 8.23342 118.247 8.68982 118.392 9.18222C118.538 9.67425 118.578 10.1912 118.511 10.6997C118.443 11.2082 118.269 11.6969 118 12.1342C117.624 12.7069 117.086 13.1547 116.453 13.4197C115.704 13.7331 114.897 13.8845 114.086 13.8638H112.017V16.6833H109.642V6.46252H114.086C114.898 6.4434 115.705 6.59763 116.453 6.91478Z" fill="black"/>
<path d="M122.274 16.1863C121.448 15.7518 120.759 15.1008 120.279 14.3039C119.803 13.4738 119.553 12.5347 119.553 11.5791C119.553 10.6235 119.803 9.68439 120.279 8.85427C120.759 8.058 121.449 7.4072 122.274 6.97185C123.086 6.56656 123.975 6.33874 124.883 6.30362C125.791 6.2685 126.696 6.42687 127.538 6.76812C128.239 7.06761 128.86 7.5284 129.348 8.11272L127.822 9.51432C127.512 9.1329 127.118 8.82634 126.672 8.61748C126.225 8.40865 125.737 8.30294 125.244 8.30827C124.652 8.29539 124.067 8.43579 123.546 8.71573C123.055 8.98503 122.651 9.38779 122.382 9.87694C122.109 10.3985 121.967 10.9778 121.967 11.5658C121.967 12.1539 122.109 12.7332 122.382 13.2547C122.651 13.7439 123.055 14.1466 123.546 14.4159C124.066 14.6993 124.651 14.8432 125.244 14.8335C125.737 14.8399 126.226 14.7347 126.672 14.5258C127.119 14.3169 127.512 14.0097 127.822 13.6275L129.348 15.0291C128.861 15.6221 128.237 16.0884 127.529 16.388C126.762 16.708 125.937 16.8668 125.105 16.8545C124.12 16.8704 123.147 16.6407 122.274 16.1863Z" fill="black"/>
<path d="M130.906 6.46265H133.267V13.1224L138.163 6.46265H140.393V16.6835H138.046V10.04L133.148 16.6835H130.906V6.46265Z" fill="black"/>
<path d="M150.788 8.38979H147.503V16.6834H145.168V8.38979H141.898V6.4585H150.801L150.788 8.38979Z" fill="black"/>
<path d="M160.232 14.7848V16.6835H152.284V6.46265H160.04V8.36139H154.645V10.5799H159.41V12.4298H154.645V14.795L160.232 14.7848Z" fill="black"/>
<path d="M170 8.38979H166.715V16.6834H164.368V8.38979H161.098V6.4585H170V8.38979Z" fill="black"/>
<path d="M54.4331 23.2903H56.7943V29.95L61.6902 23.2903H63.9203V33.5131H61.5737V26.8758L56.69 33.5172H54.4453L54.4331 23.2903Z" fill="black"/>
<path d="M75.885 23.2903V33.5131H73.5095V29.3246H68.8467V33.5152H66.4736V23.2903H68.8467V27.322H73.5095V23.2903H75.885Z" fill="black"/>
<path d="M87.8664 23.2903V33.5131H85.4914V29.3246H80.8286V33.5152H78.4531V23.2903H80.8286V27.322H85.4914V23.2903H87.8664Z" fill="black"/>
<path d="M96.9793 31.2617C97.4633 30.9886 97.8619 30.5874 98.1309 30.1025C98.4031 29.5805 98.5453 29.0009 98.5453 28.4126C98.5453 27.8244 98.4031 27.2448 98.1309 26.7227C97.863 26.2354 97.4644 25.8319 96.9793 25.5574C96.4752 25.2846 95.9107 25.1417 95.3371 25.1417C94.7639 25.1417 94.1993 25.2846 93.6953 25.5574C93.2101 25.8302 92.8115 26.2324 92.5433 26.7187C92.2691 27.2401 92.1261 27.82 92.1261 28.4086C92.1261 28.9972 92.2691 29.577 92.5433 30.0985C92.8115 30.5842 93.2105 30.9857 93.6953 31.2577C94.1985 31.5323 94.7631 31.6767 95.3367 31.6774C95.9107 31.6781 96.4752 31.5352 96.9793 31.2617ZM92.4556 33.0076C91.6232 32.5744 90.9279 31.92 90.4463 31.1171C89.9691 30.2938 89.7183 29.3601 89.7183 28.4096C89.7183 27.4591 89.9691 26.5254 90.4463 25.7021C90.9287 24.8995 91.624 24.2447 92.4556 23.8095C93.3468 23.3576 94.3329 23.1221 95.3331 23.1221C96.3334 23.1221 97.3195 23.3576 98.2107 23.8095C99.0482 24.2538 99.7486 24.9165 100.237 25.7266C100.725 26.5367 100.983 27.4637 100.983 28.4086C100.983 29.3534 100.725 30.2805 100.237 31.0905C99.7486 31.9006 99.0482 32.5633 98.2107 33.0076C97.3195 33.4595 96.3334 33.6951 95.3331 33.6951C94.3329 33.6951 93.3468 33.4595 92.4556 33.0076Z" fill="black"/>
<path d="M112.136 23.2903V33.5131H109.776V25.2216H105.142V33.5152H102.781V23.2903H112.136Z" fill="black"/>
<path d="M121.226 31.2617C121.711 30.9898 122.11 30.5883 122.378 30.1025C122.651 29.5805 122.793 29.0009 122.793 28.4126C122.793 27.8244 122.651 27.2448 122.378 26.7227C122.11 26.2364 121.711 25.8343 121.226 25.5615C120.724 25.2905 120.161 25.1486 119.59 25.1486C119.018 25.1486 118.455 25.2905 117.953 25.5615C117.468 25.8343 117.069 26.2364 116.801 26.7227C116.529 27.2448 116.387 27.8244 116.387 28.4126C116.387 29.0009 116.529 29.5805 116.801 30.1025C117.069 30.5883 117.468 30.9898 117.953 31.2617C118.455 31.534 119.018 31.6766 119.59 31.6766C120.161 31.6766 120.724 31.534 121.226 31.2617ZM116.703 33.0076C115.871 32.573 115.176 31.9189 114.693 31.1171C114.219 30.2929 113.969 29.3595 113.969 28.4096C113.969 27.4596 114.219 26.5262 114.693 25.7021C115.177 24.9 115.871 24.2453 116.703 23.8095C117.594 23.3576 118.58 23.1221 119.58 23.1221C120.58 23.1221 121.566 23.3576 122.458 23.8095C123.287 24.2477 123.982 24.9018 124.467 25.7021C124.838 26.3079 125.08 26.9826 125.179 27.6848C125.278 28.387 125.232 29.1021 125.044 29.786C124.856 30.47 124.529 31.1086 124.085 31.6625C123.64 32.2164 123.087 32.6742 122.458 33.0076C121.566 33.4595 120.58 33.6951 119.58 33.6951C118.58 33.6951 117.594 33.4595 116.703 33.0076Z" fill="black"/>
<path d="M135.89 23.2903V33.5131H133.533V25.2216H130.016L129.94 27.3525C129.921 28.5356 129.803 29.7151 129.59 30.879C129.47 31.6401 129.148 32.3558 128.659 32.9529C128.426 33.1988 128.142 33.3913 127.826 33.5172C127.51 33.642 127.171 33.6962 126.832 33.6761C126.436 33.667 126.043 33.6137 125.66 33.5172L125.807 31.5167C125.945 31.5569 126.089 31.5761 126.232 31.5737C126.799 31.5737 127.194 31.2409 127.419 30.5754C127.644 29.9099 127.786 28.8642 127.845 27.4381L127.992 23.2903H135.89Z" fill="black"/>
<path d="M138.455 23.2903H140.816V29.95L145.712 23.2903H147.942V33.5131H145.596V26.8758L140.697 33.5172H138.455V23.2903Z" fill="black"/>
<path d="M152.511 33.014C151.685 32.5796 150.995 31.9278 150.517 31.1296C150.042 30.3 149.792 29.3616 149.792 28.4068C149.792 27.452 150.042 26.5137 150.517 25.684C150.995 24.8858 151.685 24.234 152.511 23.7996C153.324 23.3944 154.214 23.1666 155.122 23.1315C156.03 23.0963 156.936 23.2547 157.778 23.5959C158.478 23.8973 159.098 24.3578 159.588 24.9405L158.064 26.3421C157.752 25.9606 157.358 25.6542 156.91 25.4457C156.462 25.2353 155.973 25.1294 155.478 25.136C154.886 25.1231 154.301 25.2635 153.78 25.5435C153.289 25.8121 152.886 26.2142 152.617 26.7027C152.343 27.2241 152.2 27.8039 152.2 28.3925C152.2 28.9812 152.343 29.561 152.617 30.0825C152.886 30.5715 153.289 30.9742 153.78 31.2437C154.3 31.5261 154.885 31.67 155.478 31.6613C155.972 31.6672 156.46 31.5618 156.908 31.353C157.355 31.1441 157.749 30.8372 158.06 30.4553L159.584 31.8548C159.097 32.4472 158.472 32.9134 157.765 33.2137C156.998 33.5343 156.172 33.6938 155.341 33.6822C154.356 33.6975 153.384 33.4677 152.511 33.014Z" fill="black"/>
<path d="M11.1076 14.4709H1.32026e-07L0 39.9101H11.1076V14.4709Z" fill="#40BA21"/>
<path d="M28.879 0.0920411V28.8477H25.544V0.0920411L14.4385 0.092041V39.9058H16.8016H25.544H28.879H36.3959H39.9844V0.0920411L28.879 0.0920411Z" fill="#40BA21"/>
<path d="M11.1076 0.0920411L5.74007e-08 0.092041L0 11.1522H11.1076V0.0920411Z" fill="#40BA21"/>
</g>
</svg>
