<svg width="138" height="70" viewBox="0 0 138 70" fill="none" xmlns="http://www.w3.org/2000/svg">
<path fill-rule="evenodd" clip-rule="evenodd" d="M91.7389 50.0104H93.3854V45.4003C93.4235 45.4441 93.3851 45.3871 93.4379 45.4712L94.702 48.1175C94.906 48.5795 94.6566 48.4874 95.9374 48.4874C96.069 48.4874 96.1317 48.2653 96.1845 48.1582C96.248 48.0294 96.3114 47.9152 96.3767 47.7742L97.5016 45.4414V50.0104H99.2304V42.7247H97.2546C97.1332 42.7247 97.1255 42.8132 97.0928 42.8922C96.7467 43.7284 96.1184 44.9437 95.7322 45.8124C95.6607 45.9732 95.6188 46.1664 95.4847 46.2647C95.4661 46.0416 93.9024 43.0004 93.8382 42.7247H91.7389V50.0104ZM98.5306 32.1049H100.589V37.9088H102.318V32.1049H104.252C104.347 32.1049 104.376 32.0762 104.376 31.9814V30.623H98.5306V32.1049ZM104.293 20.0032H106.351V25.8071H108.08V20.0032H110.138V18.5214H104.293V20.0032ZM97.5016 19.2211C97.5016 19.3952 97.6791 19.6213 97.7491 19.7557C97.8478 19.9452 97.9307 20.1139 98.0349 20.2932L99.6141 23.2418C99.8279 23.6724 99.8806 23.3526 99.3539 24.3253C98.8789 25.2024 98.9423 24.8166 98.9423 25.8071H100.342L102.933 20.8658C103.007 20.7381 103.075 20.5889 103.141 20.456C103.705 19.3206 103.758 19.7026 103.758 18.5214H102.359C102.315 18.7071 101.32 20.6391 101.151 20.9774C101.054 21.1716 100.847 21.6745 100.712 21.7732C100.661 21.5515 99.6091 19.6515 99.4362 19.3035C99.3659 19.162 99.0812 18.5214 98.9423 18.5214H97.5016V19.2211ZM87.4992 22.0202H86.7583V19.9621C87.262 19.9621 87.7635 19.905 88.1768 20.1901C88.8034 20.6222 88.6105 22.0202 87.4992 22.0202ZM85.0295 25.8071H86.7583V23.502C87.8234 23.502 88.6243 23.4343 89.2937 22.9091C90.5276 21.9409 90.5589 20.0818 89.5042 19.1919C89.0973 18.8486 88.3964 18.5214 87.6639 18.5214H85.0295V25.8071ZM110.591 22.1848C110.591 22.7165 110.704 23.2411 110.864 23.7236C111.754 26.4132 115.289 26.463 116.612 25.0775C117.118 24.5477 117.012 24.2768 117.012 23.5432H115.778C115.531 23.5432 115.706 24.0233 114.897 24.3499C114.467 24.5235 113.919 24.5162 113.501 24.3379C113.086 24.1609 112.834 23.9097 112.635 23.5164C112.058 22.378 112.263 20.5071 113.436 20.0076C114.145 19.7057 115.39 19.7874 115.613 20.7442H116.971C116.971 19.8656 117.061 19.425 116.008 18.785C115.075 18.2177 113.667 18.2736 112.672 18.6679C111.891 18.9775 111.152 19.7757 110.884 20.5842C110.712 21.1021 110.591 21.6178 110.591 22.1848ZM84.906 37.9088H89.5573V36.5504C89.5573 36.4556 89.5287 36.427 89.4338 36.427H86.6348V34.8628H89.228V33.5867C89.228 33.4919 89.1994 33.4632 89.1045 33.4632H86.6348V32.1049H89.5573V30.623H84.906V37.9088ZM122.24 32.5988L123.063 34.9451H121.417C121.431 34.7802 121.728 33.9658 121.805 33.7687C121.885 33.5603 121.934 33.4081 122.008 33.1901L122.196 32.6785C122.235 32.5937 122.21 32.642 122.24 32.5988ZM118.947 37.3325V37.9088C120.567 37.9088 120.302 38.0163 120.47 37.5797L120.882 36.3858H123.557C123.57 36.5376 123.881 37.3522 123.969 37.5797C124.14 38.0225 123.874 37.9088 125.574 37.9088C125.574 36.7765 125.571 36.9597 124.98 35.4979C124.759 34.9519 124.581 34.4325 124.368 33.8872C124.258 33.6051 124.168 33.3638 124.067 33.0774L123.146 30.623H121.417L121.117 31.4343C121.003 31.7238 120.904 31.9993 120.804 32.2743C120.638 32.7323 118.947 37.0844 118.947 37.3325ZM127.756 20.5384H127.838C127.853 20.7204 127.962 20.9657 128.027 21.132C128.107 21.3395 128.153 21.5027 128.232 21.7083L128.62 22.8846H126.933L127.756 20.5384ZM124.545 25.1485V25.8071H125.945C125.958 25.644 126.017 25.5489 126.062 25.4306L126.439 24.3253H129.114L129.649 25.8071H131.172C131.172 24.979 131.228 25.1403 130.896 24.3137C130.781 24.0285 130.685 23.7683 130.581 23.4763C130.478 23.1896 130.368 22.9309 130.273 22.6726L128.702 18.5214H126.974L125.751 21.8264C125.531 22.3869 125.353 22.9114 125.133 23.4729C125.025 23.751 124.928 24.0051 124.828 24.2793C124.762 24.4617 124.545 24.9502 124.545 25.1485ZM110.92 44.7005L110.977 44.8089C110.999 44.8634 111.009 44.9066 111.029 44.9629L111.785 47.0468H110.097L110.92 44.7005ZM107.669 49.393V50.0104H109.068L109.603 48.4874H112.238C112.306 48.6303 112.758 49.8279 112.773 50.0104H114.296C114.296 48.9927 114.354 49.4009 114.023 48.4721L112.473 44.3832C112.363 44.1019 112.272 43.8599 112.171 43.5737C112.095 43.362 111.883 42.9167 111.867 42.7247H110.138C110.026 42.9371 109.924 43.2702 109.827 43.5243C109.601 44.1138 107.669 49.1565 107.669 49.393ZM118.124 25.8071H119.853V22.8434C119.99 22.9354 120.514 23.5879 120.666 23.7586C120.743 23.8445 120.771 23.8645 120.841 23.9548L122.148 25.4466C122.602 25.9326 122.175 25.8071 123.969 25.8071C123.969 24.6483 124.052 25.1733 123.345 24.2902C122.836 23.6535 122.061 22.8587 121.546 22.2202C121.477 22.1343 121.437 22.1116 121.376 22.0202C121.446 21.9149 121.563 21.8025 121.658 21.6848C121.716 21.6126 121.755 21.5864 121.816 21.5139C121.886 21.4312 121.884 21.4155 121.962 21.3308L123.139 19.956C123.761 19.1802 123.681 19.6831 123.681 18.5214H122.405C122.305 18.5214 122.27 18.5891 122.214 18.6604L121.752 19.2272C121.694 19.2994 121.655 19.3256 121.594 19.3981C121.527 19.4769 121.52 19.4992 121.447 19.581C121.338 19.7041 121.223 19.8403 121.129 19.9622C121.036 20.0818 120.936 20.1907 120.828 20.3198C120.684 20.4903 119.997 21.347 119.853 21.4439V18.5214H118.124V25.8071ZM91.245 25.8071H92.9738V22.8434C93.1247 22.9444 93.326 23.2401 93.4578 23.3884L95.2667 25.4488C95.6873 25.9491 95.4312 25.8071 97.09 25.8071C97.09 24.8083 97.2084 25.1331 96.4627 24.294L94.8368 22.421C94.7225 22.3035 94.5822 22.1477 94.4968 22.0202L94.7753 21.6813C94.8315 21.6182 94.8614 21.5981 94.9144 21.5323L95.9374 20.3325C96.0418 20.1963 96.1264 20.1296 96.243 19.9795C96.8833 19.1553 96.8018 19.6623 96.8018 18.5214C95.2621 18.5214 95.5743 18.4034 95.1859 18.8401L92.9738 21.4439V18.5214H91.245V25.8071ZM77.291 50.0104H79.0198V47.0468C79.084 47.0897 79.285 47.3241 79.359 47.4073C79.4322 47.4898 79.4306 47.5093 79.5038 47.5918C79.572 47.6684 79.6204 47.7015 79.6845 47.7816L81.3127 49.6522C81.7334 50.1525 81.4772 50.0104 83.136 50.0104C83.136 49.0478 83.2767 49.3403 82.3638 48.3129C82.2957 48.2362 82.2473 48.2032 82.1832 48.1231C82.066 47.9767 81.9642 47.8829 81.86 47.7465C81.6235 47.4371 80.7166 46.483 80.5428 46.2235L82.1358 44.3589C82.2058 44.2762 82.2033 44.2605 82.282 44.1758C82.9788 43.4263 82.8479 43.5931 82.8479 42.7247C81.3951 42.7247 81.6025 42.5972 81.2298 43.0413L79.0198 45.6472V42.7247H77.291V50.0104ZM133.807 20.9088C133.807 19.8186 134.97 19.9621 135.7 19.9621V21.8144C135.088 21.8144 134.428 21.9168 134.066 21.5548C133.94 21.4285 133.807 21.143 133.807 20.9088ZM133.354 22.8022C133.341 22.9533 133.282 22.9985 133.201 23.1027L132.213 24.4607C131.731 25.1011 131.831 24.8485 131.831 25.8071H133.189C133.338 25.8071 133.588 25.3276 133.666 25.214L134.564 23.9304C134.648 23.8099 134.694 23.7291 134.778 23.6087C134.868 23.4793 134.959 23.4109 135 23.2551H135.659V25.8071H137.388V18.5214H134.671C132.134 18.5214 131.418 21.1025 132.725 22.4017C132.881 22.5563 133.119 22.7475 133.354 22.8022ZM128.25 33.0516C128.25 31.9053 129.277 32.0638 130.143 32.0638V33.916H129.114C128.658 33.916 128.25 33.516 128.25 33.0516ZM126.521 32.9693C126.521 33.9629 127.309 34.8633 127.797 34.9039C127.73 35.1919 126.274 36.9522 126.274 37.1267V37.9088H127.715C127.746 37.7926 128.247 37.111 128.357 36.9454L128.809 36.2866C129.576 35.1806 129.304 35.3567 130.102 35.3567V37.9088H131.831V30.623H129.032C128.352 30.623 127.6 30.9308 127.251 31.2704C126.785 31.7231 126.521 32.2309 126.521 32.9693ZM106.845 32.9693C106.845 32.3752 107.313 32.0638 107.916 32.0638H108.739V33.916H107.71C107.218 33.916 106.845 33.4789 106.845 32.9693ZM105.117 32.9693C105.117 33.3912 105.315 33.9396 105.498 34.1936C105.687 34.4562 106.047 34.8235 106.393 34.9039C106.369 35.1897 104.87 36.9379 104.87 37.1267V37.9088C106.515 37.9088 106.189 38.0962 106.705 37.3159C106.79 37.1885 106.85 37.1125 106.928 37.0031C107.009 36.8881 107.07 36.7843 107.158 36.6571L108.039 35.3567H108.698V37.9088H110.426V30.623H107.627C106.223 30.623 105.117 31.5875 105.117 32.9693ZM132.16 45.1122C132.16 43.9994 133.26 44.1654 134.054 44.1654V46.0177C133.461 46.0177 132.771 46.1179 132.415 45.7624C132.261 45.608 132.16 45.4101 132.16 45.1122ZM130.431 45.0298C130.431 45.9469 131.018 46.8451 131.707 47.0056C131.639 47.2988 130.143 49.0923 130.143 49.2695V50.0104H131.625C131.671 49.838 132.562 48.6267 132.72 48.3889C132.801 48.2665 132.853 48.1811 132.936 48.0696C133.462 47.3606 133.125 47.4584 134.012 47.4584V50.0104H135.741V42.7247H132.942C131.98 42.7247 130.99 43.2663 130.654 44.0175C130.527 44.3005 130.431 44.6397 130.431 45.0298ZM100.753 50.0104H102.482V44.2066H105.034V50.0104H106.763V42.7247H100.753V50.0104ZM77.291 37.9088H79.0198V34.9039H81.6953V37.9088H83.4241V30.623H81.6953V33.4221H79.0198V30.623H77.291V37.9088ZM111.95 37.9088H113.678V34.9039H116.354V37.9088H118.083V30.623H116.354V33.4221H113.678V30.623H111.95V37.9088ZM115.201 50.0104H116.93V47.0056H119.606V50.0104H121.335V42.7247H119.606V45.5237H116.93V42.7247H115.201V50.0104ZM87.0052 48.6933C86.3831 48.6933 85.9388 48.4255 85.6365 48.0861C84.8836 47.2409 84.7915 44.8757 86.1947 44.2193C87.4315 43.6407 88.8987 44.4 88.8987 46.3882C88.8987 47.6233 88.2257 48.6933 87.0052 48.6933ZM83.383 46.0177C83.383 46.8413 83.3684 47.3367 83.7258 48.1035C85.3025 51.4862 90.6275 50.6583 90.6275 46.3058C90.6275 45.7312 90.5083 45.1811 90.3458 44.7764C90.1032 44.1722 89.6722 43.554 89.1547 43.2097C87.2245 41.9256 84.5083 42.6312 83.7175 44.5822C83.564 44.961 83.383 45.4997 83.383 46.0177ZM77.291 25.8071H78.8963C79.0716 25.8071 79.5742 24.8533 79.6617 24.7202C79.9158 24.3334 80.1298 23.9584 80.3786 23.5848L81.4403 21.8886C81.5282 21.7524 81.7187 21.3938 81.8188 21.3204V25.8071H83.5476V18.5214H81.9423C81.7775 18.5214 81.2824 19.4379 81.1776 19.609C81.0334 19.8445 79.1419 22.9598 79.0198 23.0492V18.5214H77.291V25.8071ZM122.816 50.0104H124.463C124.609 50.0104 125.144 49.0317 125.22 48.9158C125.562 48.3966 127.184 45.7141 127.385 45.4826V50.0104H129.114V42.7247H127.468C127.341 42.7247 127.229 43.0166 127.08 43.2431C126.382 44.3061 125.623 45.6168 124.924 46.7255L124.601 47.2263C124.546 47.2983 124.578 47.2561 124.545 47.2937V42.7247H122.816V50.0104ZM95.1142 35.8506V32.64C95.1577 32.6609 96.5549 32.7899 96.5549 34.0807C96.5549 34.7999 96.4636 35.3336 95.7052 35.7007C95.5475 35.777 95.3245 35.846 95.1142 35.8506ZM91.9447 34.4511C91.9447 33.9285 91.9322 33.4811 92.3752 33.0705C92.6286 32.8355 92.9551 32.6758 93.3854 32.64V35.8506C92.5961 35.785 91.9447 35.2271 91.9447 34.4511ZM93.3854 30.623V31.2405C90.606 31.2405 89.1522 34.3973 91.1105 36.3555C91.6718 36.9167 92.5516 37.2502 93.3854 37.2502V38.0323H95.1142V37.2502C96.5315 37.2502 97.8487 36.3739 98.1918 34.9355C98.3947 34.0848 98.2083 33.2084 97.708 32.5159C97.1366 31.7247 96.0946 31.2405 95.1142 31.2405C95.1142 30.7525 95.184 30.4996 94.9907 30.4996H93.5089C93.414 30.4996 93.3854 30.5282 93.3854 30.623Z" fill="#255740"/>
<path d="M32.3833 61.0605V69.7372C32.3833 69.8984 32.5123 70.0275 32.6736 69.9952C34.7058 69.834 36.6734 69.4791 38.544 68.8664C38.6409 68.834 38.7376 68.7373 38.7376 68.6084V47.3194C38.7376 47.1903 38.6409 47.0614 38.512 47.0614C36.6089 46.8355 34.6411 46.7066 32.6736 46.6422C32.5123 46.6422 32.3833 46.7711 32.3833 46.9002V54.5769H28.9642V46.9002C28.9642 46.7388 28.8351 46.6098 28.6739 46.6422C26.674 46.7066 24.7387 46.8355 22.8356 47.0291C22.7066 47.0291 22.6099 47.1581 22.6099 47.2871V68.6405C22.6099 68.7695 22.6743 68.8664 22.8033 68.8985C24.6742 69.4468 26.642 69.834 28.6739 69.9631C28.8351 69.9631 28.9642 69.834 28.9642 69.7051V60.9957H32.3833V61.0605Z" fill="#2B5E4A"/>
<path d="M20.8048 47.3514C18.3857 47.7061 16.031 48.1577 13.8376 48.7707C13.7731 48.8028 13.7086 48.8352 13.6763 48.932L10.9346 54.6089H10.483V50.1575C10.483 49.9643 10.2895 49.8351 10.1282 49.8995C8.51534 50.4803 6.99932 51.0931 5.58016 51.8027C5.28977 51.9318 5.03176 52.093 4.7737 52.2222C4.64472 52.2866 4.58016 52.4478 4.67701 52.5769C6.7736 56.5442 9.32174 59.9957 12.2893 62.7698C12.4183 62.8987 12.6442 62.8663 12.7086 62.7051L14.3537 59.3829H14.7731V64.7374C14.7731 64.8341 14.8054 64.8986 14.8698 64.963C16.6761 66.3177 18.6437 67.4145 20.7404 68.2532C20.9017 68.3176 21.0951 68.1887 21.0951 67.9951V47.6094C21.1274 47.4481 20.9661 47.3193 20.8048 47.3514Z" fill="#2B5E4A"/>
<path d="M54.1564 51.5123C53.5112 51.0931 51.3178 49.8674 49.963 49.3836C49.8342 49.3512 49.7051 49.3836 49.6406 49.5124C49.1567 50.5124 47.1568 54.6089 47.1568 54.6089H46.7053L46.6732 48.7385C46.6732 48.6092 46.5763 48.5125 46.4796 48.4804C44.6086 48.0288 42.6411 47.6418 40.6412 47.3514C40.48 47.3193 40.3188 47.4481 40.3188 47.6094V67.866C40.3188 68.0596 40.5121 68.1887 40.7056 68.1242C42.8024 67.2532 44.77 66.1244 46.5763 64.7694C46.6408 64.705 46.6732 64.6406 46.6732 64.5437V61.06C47.8343 60.9633 49.0599 61.4148 49.7695 62.0923C51.1566 60.7053 52.608 59.0602 53.8015 57.3831C53.8984 57.2862 53.866 57.1251 53.7692 57.0282C53.35 56.6735 52.834 56.2863 52.3177 55.9959L54.2855 51.8673C54.35 51.7382 54.2855 51.6091 54.1564 51.5123Z" fill="#2B5E4A"/>
<path d="M41.1582 2.45145C41.3194 2.32232 41.2872 2.06431 41.0938 1.96761C38.8357 0.999897 36.4166 0.322474 33.9328 0C31.3525 8.41874 31.3201 18.418 30.9653 43.8678C31.1913 43.8678 31.4493 43.8678 31.6749 43.8678C32.5136 24.2241 32.7717 8.2252 41.1582 2.45145Z" fill="#1D2126"/>
<path d="M36.6099 24.9981C39.7065 15.644 44.6738 11.0313 52.0604 10.7088C52.2861 10.7088 52.3829 10.4185 52.2538 10.2572C50.4475 8.12823 48.4155 6.28965 46.2221 4.74146C39.1258 7.1929 35.9969 13.3215 34.2229 24.5143C33.4165 29.7396 32.8037 36.2553 32.4487 43.8999C32.6747 43.8999 32.9326 43.8999 33.1585 43.9323C33.5454 37.8036 34.9969 29.9008 36.6099 24.9981Z" fill="#1D2126"/>
<path d="M38.1576 32.3524C43.8668 21.2565 53.8985 19.7728 59.4466 25.2563C59.6398 25.4497 59.9625 25.2563 59.8981 24.9982C58.995 21.4501 57.64 18.1277 55.8661 15.1279C43.1249 11.6121 35.3837 26.1916 33.8999 43.9969C34.1255 43.9969 34.3837 44.0292 34.6094 44.0292C35.319 39.1264 36.0286 36.4489 38.1576 32.3524Z" fill="#1D2126"/>
<path d="M60.4794 31.0622C55.6732 25.3528 46.7063 23.9014 40.5454 31.7395C38.3196 34.5457 36.1585 38.6746 35.3198 44.0613C35.5778 44.0613 35.8038 44.0934 36.0618 44.0934C37.3521 38.7068 40.7067 35.8683 43.8676 34.9328C51.1576 32.7073 58.4474 38.0294 59.0923 44.2226C59.1247 44.4806 59.5439 44.4482 59.6086 44.1902C60.2858 41.2548 60.673 38.1585 60.673 34.9328C60.6406 33.6104 60.5761 32.3201 60.4794 31.0622Z" fill="#1D2126"/>
<path d="M27.3207 0.0327148C24.8371 0.355286 22.4179 1.00043 20.16 2.00028C19.9664 2.09712 19.9342 2.35513 20.0954 2.48416C28.4818 8.22573 28.7401 24.2246 29.5464 43.9007C29.7722 43.9007 30.0301 43.9007 30.2561 43.9007C29.9013 18.4508 29.9013 8.45146 27.3207 0.0327148Z" fill="#1D2126"/>
<path d="M27.0296 24.5463C25.288 13.3535 22.1268 7.22488 15.0305 4.77344C12.8372 6.32173 10.8051 8.16031 8.99873 10.2892C8.86965 10.4505 8.96649 10.7085 9.19222 10.7408C16.5788 11.0311 21.5785 15.6437 24.675 24.9978C26.2879 29.8686 27.7071 37.8036 28.1264 43.932C28.3523 43.932 28.6103 43.8997 28.8359 43.8997C28.449 36.2874 27.8683 29.7717 27.0296 24.5463Z" fill="#1D2126"/>
<path d="M5.41832 15.128C3.6442 18.0956 2.28945 21.4179 1.3863 24.9983C1.32188 25.2563 1.64445 25.4499 1.8379 25.2563C7.41821 19.8051 17.4175 21.2889 23.1267 32.3527C25.2234 36.4169 25.9653 39.094 26.6749 43.9969C26.9008 43.9969 27.1588 43.9648 27.3845 43.9648C25.9007 26.1916 18.1594 11.6121 5.41832 15.128Z" fill="#1D2126"/>
<path d="M20.74 31.7395C14.5791 23.9014 5.57976 25.3528 0.805848 31.0622C0.676868 32.3201 0.612305 33.6104 0.612305 34.9328C0.612305 38.1262 0.967158 41.2228 1.67677 44.1902C1.74128 44.4482 2.1606 44.4806 2.19288 44.2226C3.06375 38.1262 9.61173 32.9974 17.4177 34.9328C20.6109 35.7071 23.901 38.7068 25.2235 44.0934C25.4816 44.0613 25.7074 44.0613 25.9654 44.0613C25.1267 38.6746 22.9657 34.5457 20.74 31.7395Z" fill="#1D2126"/>
</svg>
