<svg width="170" height="20" viewBox="0 0 170 20" fill="none" xmlns="http://www.w3.org/2000/svg">
<path fill-rule="evenodd" clip-rule="evenodd" d="M5.81284 12.1246C5.81284 12.67 5.37068 13.1118 4.82573 13.1118C4.28055 13.1118 3.83887 12.67 3.83887 12.1246C3.8391 11.5793 4.28055 11.1377 4.82573 11.1377C5.37068 11.1376 5.81284 11.5795 5.81284 12.1246Z" fill="#354B98"/>
<path fill-rule="evenodd" clip-rule="evenodd" d="M10.5556 5.75105C10.5556 6.56847 9.89245 7.23146 9.07503 7.23146C8.25749 7.23146 7.59473 6.56847 7.59473 5.75105C7.59473 4.93327 8.25749 4.27051 9.07503 4.27051C9.89245 4.27051 10.5556 4.93327 10.5556 5.75105Z" fill="#354B98"/>
<path fill-rule="evenodd" clip-rule="evenodd" d="M14.8042 7.87568C14.8042 8.69322 14.1413 9.35622 13.3238 9.35622C12.5063 9.35622 11.8433 8.69322 11.8433 7.87568C11.8433 7.05802 12.5063 6.39526 13.3238 6.39526C14.1413 6.39526 14.8042 7.05826 14.8042 7.87568Z" fill="#354B98"/>
<path fill-rule="evenodd" clip-rule="evenodd" d="M19.0535 9.99984C19.0535 10.8177 18.3904 11.4804 17.5727 11.4804C16.7552 11.4803 16.0923 10.8177 16.0923 9.99984C16.0923 9.18242 16.7552 8.51978 17.5727 8.51978C18.3904 8.51978 19.0535 9.18242 19.0535 9.99984Z" fill="#354B98"/>
<path fill-rule="evenodd" clip-rule="evenodd" d="M14.8042 12.1245C14.8042 12.9422 14.1413 13.605 13.3238 13.605C12.5063 13.605 11.8433 12.9422 11.8433 12.1245C11.8433 11.3069 12.5063 10.644 13.3238 10.644C14.1413 10.644 14.8042 11.307 14.8042 12.1245Z" fill="#354B98"/>
<path fill-rule="evenodd" clip-rule="evenodd" d="M23.3019 12.1245C23.3019 12.9422 22.6391 13.605 21.8211 13.605C21.0036 13.605 20.3408 12.9422 20.3408 12.1245C20.3408 11.3069 21.0036 10.644 21.8211 10.644C22.6391 10.644 23.3019 11.307 23.3019 12.1245Z" fill="#354B98"/>
<path fill-rule="evenodd" clip-rule="evenodd" d="M22.8087 16.3737C22.8087 16.9186 22.3665 17.3604 21.8213 17.3604C21.2765 17.3604 20.8345 16.9186 20.8345 16.3737C20.8345 15.8284 21.2765 15.3865 21.8213 15.3865C22.3665 15.3865 22.8087 15.8284 22.8087 16.3737Z" fill="#354B98"/>
<path fill-rule="evenodd" clip-rule="evenodd" d="M27.0578 14.2488C27.0578 14.7941 26.6162 15.2359 26.071 15.2359C25.5261 15.2359 25.084 14.7941 25.084 14.2491C25.084 13.7039 25.5261 13.2622 26.071 13.2622C26.6162 13.2622 27.0578 13.7039 27.0578 14.2488Z" fill="#354B98"/>
<path fill-rule="evenodd" clip-rule="evenodd" d="M27.5511 9.99984C27.5511 10.8174 26.8878 11.4804 26.0708 11.4804C25.2531 11.4803 24.5903 10.8176 24.5903 9.99984C24.5903 9.18254 25.2531 8.51978 26.0708 8.51978C26.8878 8.51978 27.5511 9.18277 27.5511 9.99984Z" fill="#354B98"/>
<path fill-rule="evenodd" clip-rule="evenodd" d="M23.3019 7.87568C23.3019 8.69322 22.6391 9.35622 21.8211 9.35622C21.0036 9.35622 20.3408 8.69322 20.3408 7.87568C20.3408 7.05802 21.0036 6.39526 21.8211 6.39526C22.6391 6.39526 23.3019 7.05826 23.3019 7.87568Z" fill="#354B98"/>
<path fill-rule="evenodd" clip-rule="evenodd" d="M18.5601 14.2488C18.5601 14.7941 18.118 15.2359 17.5728 15.2359C17.0281 15.2359 16.5859 14.7941 16.5859 14.2491C16.5859 13.7039 17.0281 13.2622 17.5728 13.2622C18.118 13.2622 18.5598 13.7039 18.5601 14.2488Z" fill="#354B98"/>
<path fill-rule="evenodd" clip-rule="evenodd" d="M27.5511 5.75118C27.5511 6.5686 26.8883 7.2316 26.0708 7.2316C25.2536 7.2316 24.5903 6.5686 24.5903 5.75118C24.5903 4.93341 25.2536 4.271 26.0708 4.271C26.8883 4.27076 27.5511 4.93341 27.5511 5.75118Z" fill="#354B98"/>
<path fill-rule="evenodd" clip-rule="evenodd" d="M31.3067 3.62663C31.3067 4.17158 30.8651 4.61374 30.3194 4.61374C29.7747 4.61374 29.333 4.17158 29.333 3.62687C29.333 3.08169 29.7747 2.63965 30.3194 2.63965C30.8651 2.63965 31.3067 3.08169 31.3067 3.62663Z" fill="#354B98"/>
<path fill-rule="evenodd" clip-rule="evenodd" d="M31.3072 12.1246C31.3072 12.67 30.8651 13.1113 30.3202 13.1113C29.7747 13.1113 29.333 12.67 29.333 12.1246C29.333 11.5793 29.7747 11.1377 30.3202 11.1377C30.8651 11.1376 31.3072 11.5795 31.3072 12.1246Z" fill="#354B98"/>
<path fill-rule="evenodd" clip-rule="evenodd" d="M18.5601 5.75115C18.5601 6.29609 18.118 6.73813 17.5728 6.73813C17.0281 6.7379 16.5859 6.29609 16.5859 5.75115C16.5859 5.20585 17.0281 4.76416 17.5728 4.76416C18.118 4.76416 18.5598 5.20608 18.5601 5.75115Z" fill="#354B98"/>
<path fill-rule="evenodd" clip-rule="evenodd" d="M14.3111 16.3737C14.3111 16.9186 13.8693 17.3604 13.324 17.3604C12.7791 17.3604 12.3369 16.9186 12.3369 16.3737C12.3369 15.8284 12.7791 15.3865 13.324 15.3865C13.8693 15.3865 14.3111 15.8284 14.3111 16.3737Z" fill="#354B98"/>
<path fill-rule="evenodd" clip-rule="evenodd" d="M10.5556 9.99984C10.5556 10.8174 9.89269 11.4804 9.07503 11.4804C8.25749 11.4803 7.59473 10.8176 7.59473 9.99984C7.59473 9.18242 8.25749 8.51978 9.07503 8.51978C9.89269 8.51978 10.5556 9.18242 10.5556 9.99984Z" fill="#354B98"/>
<path fill-rule="evenodd" clip-rule="evenodd" d="M6.30617 7.87568C6.30617 8.69322 5.64341 9.35622 4.82575 9.35622C4.00821 9.35622 3.34521 8.69322 3.34521 7.87568C3.34533 7.05802 4.00821 6.39526 4.82575 6.39526C5.64341 6.39526 6.30617 7.05826 6.30617 7.87568Z" fill="#E41B41"/>
<path fill-rule="evenodd" clip-rule="evenodd" d="M1.15385 14.2489C1.15385 14.5678 0.895576 14.826 0.576868 14.826C0.258395 14.8258 0 14.5678 0 14.2491C0 13.9305 0.258395 13.6721 0.576868 13.6721C0.895576 13.6721 1.15385 13.9305 1.15385 14.2489Z" fill="#354B98"/>
<path fill-rule="evenodd" clip-rule="evenodd" d="M1.15385 9.99983C1.15385 10.3185 0.895576 10.5771 0.576868 10.5771C0.258395 10.5771 0 10.3187 0 9.99983C0 9.68148 0.258395 9.42285 0.576868 9.42285C0.895576 9.42285 1.15385 9.68148 1.15385 9.99983Z" fill="#354B98"/>
<path fill-rule="evenodd" clip-rule="evenodd" d="M9.65201 14.2191C9.65201 14.5378 9.39351 14.7961 9.07491 14.7961C8.75656 14.7961 8.49805 14.5378 8.49805 14.2191C8.49805 13.9005 8.75656 13.6421 9.07491 13.6421C9.39351 13.6421 9.65201 13.9005 9.65201 14.2191Z" fill="#354B98"/>
<path fill-rule="evenodd" clip-rule="evenodd" d="M9.65201 1.50192C9.65201 1.82063 9.39374 2.07891 9.07491 2.07891C8.75621 2.07879 8.49805 1.82063 8.49805 1.50192C8.49805 1.18357 8.75621 0.925293 9.07491 0.925293C9.39374 0.925293 9.65201 1.18357 9.65201 1.50192Z" fill="#354B98"/>
<path fill-rule="evenodd" clip-rule="evenodd" d="M18.1199 18.4981C18.1199 18.8168 17.8612 19.075 17.5425 19.075C17.2236 19.075 16.9658 18.8168 16.9658 18.4981C16.9658 18.1795 17.2236 17.9211 17.5425 17.9211C17.8612 17.9211 18.1196 18.1798 18.1199 18.4981Z" fill="#354B98"/>
<path fill-rule="evenodd" clip-rule="evenodd" d="M5.40287 3.62655C5.40287 3.94515 5.14471 4.20354 4.82601 4.20354C4.5073 4.20354 4.24902 3.94515 4.24902 3.62679C4.24902 3.30773 4.50718 3.0498 4.82601 3.0498C5.14471 3.0498 5.40287 3.30785 5.40287 3.62655Z" fill="#354B98"/>
<path fill-rule="evenodd" clip-rule="evenodd" d="M13.901 3.62655C13.901 3.94515 13.6426 4.20354 13.3239 4.20354C13.0052 4.20354 12.7471 3.94515 12.7471 3.62679C12.7472 3.30773 13.0052 3.0498 13.3239 3.0498C13.6426 3.0498 13.901 3.30785 13.901 3.62655Z" fill="#354B98"/>
<path fill-rule="evenodd" clip-rule="evenodd" d="M18.1199 18.4981C18.1199 18.8168 17.8612 19.075 17.5425 19.075C17.2236 19.075 16.9658 18.8168 16.9658 18.4981C16.9658 18.1795 17.2236 17.9211 17.5425 17.9211C17.8612 17.9211 18.1196 18.1798 18.1199 18.4981Z" fill="#354B98"/>
<path fill-rule="evenodd" clip-rule="evenodd" d="M39.3944 7.87557C39.3944 8.19392 39.136 8.45243 38.8178 8.45243C38.499 8.45243 38.2402 8.19404 38.2402 7.87557C38.2402 7.55686 38.4986 7.29858 38.8178 7.29858C39.136 7.29858 39.3944 7.55698 39.3944 7.87557Z" fill="#354B98"/>
<path fill-rule="evenodd" clip-rule="evenodd" d="M30.8968 16.3736C30.8968 16.692 30.6385 16.9504 30.3201 16.9504C30.0014 16.9504 29.7427 16.692 29.7427 16.3736C29.7427 16.0547 30.0014 15.7966 30.3201 15.7966C30.6385 15.7966 30.8968 16.0547 30.8968 16.3736Z" fill="#354B98"/>
<path fill-rule="evenodd" clip-rule="evenodd" d="M36.0494 5.7513C36.0494 6.5686 35.3862 7.2316 34.5687 7.2316C33.7515 7.2316 33.0884 6.5686 33.0884 5.7513C33.0884 4.93376 33.7515 4.271 34.5687 4.271C35.3862 4.27076 36.0494 4.93376 36.0494 5.7513Z" fill="#354B98"/>
<path fill-rule="evenodd" clip-rule="evenodd" d="M31.8005 7.87568C31.8005 8.69322 31.1373 9.35587 30.3201 9.35587C29.5026 9.35575 28.8394 8.69322 28.8394 7.87568C28.8394 7.05838 29.5026 6.39526 30.3201 6.39526C31.1373 6.39526 31.8005 7.05838 31.8005 7.87568Z" fill="#354B98"/>
<path fill-rule="evenodd" clip-rule="evenodd" d="M35.1459 14.2489C35.1459 14.5678 34.888 14.826 34.5688 14.826C34.25 14.8258 33.9922 14.5678 33.9922 14.2491C33.9922 13.9305 34.25 13.6721 34.5688 13.6721C34.888 13.6721 35.1459 13.9305 35.1459 14.2489Z" fill="#354B98"/>
<path fill-rule="evenodd" clip-rule="evenodd" d="M35.5558 9.99993C35.5558 10.5452 35.1141 10.9872 34.5689 10.9872C34.0241 10.9872 33.582 10.5452 33.582 9.99993C33.582 9.45498 34.0241 9.01318 34.5689 9.01318C35.1141 9.01318 35.5558 9.45498 35.5558 9.99993Z" fill="#354B98"/>
<path fill-rule="evenodd" clip-rule="evenodd" d="M22.3984 3.62655C22.3984 3.94515 22.1404 4.20354 21.8217 4.20354C21.5026 4.20354 21.2446 3.94515 21.2446 3.62679C21.2446 3.30773 21.5026 3.0498 21.8217 3.0498C22.1404 3.0498 22.3984 3.30785 22.3984 3.62655Z" fill="#354B98"/>
<path fill-rule="evenodd" clip-rule="evenodd" d="M35.1459 1.50239C35.1459 1.82063 34.888 2.07891 34.5688 2.07891C34.25 2.07879 33.9922 1.82063 33.9922 1.50239C33.9922 1.18357 34.25 0.925293 34.5688 0.925293C34.888 0.925293 35.1459 1.18357 35.1459 1.50239Z" fill="#354B98"/>
<path fill-rule="evenodd" clip-rule="evenodd" d="M39.3944 3.62655C39.3944 3.94515 39.136 4.20354 38.8178 4.20354C38.499 4.20354 38.2402 3.94515 38.2402 3.62679C38.2402 3.30773 38.4986 3.0498 38.8178 3.0498C39.136 3.0498 39.3944 3.30785 39.3944 3.62655Z" fill="#354B98"/>
<path fill-rule="evenodd" clip-rule="evenodd" d="M51.287 6.94835C51.4152 6.63938 51.4397 6.38721 51.359 6.19864C51.2973 6.05442 51.1748 5.94588 50.9947 5.87606C50.5555 5.71518 50.2057 5.92452 49.9731 6.49083L48.332 10.4717L46.0686 6.40669C45.9344 6.15498 45.7733 5.98448 45.5899 5.90058C45.4024 5.81539 45.1954 5.82806 44.9753 5.94236C44.7711 6.05677 44.6594 6.23314 44.6432 6.46595C44.6271 6.69195 44.6871 6.91819 44.82 7.13786L47.6014 11.9715C47.4785 12.2898 47.3473 12.5296 47.2107 12.6845C47.0753 12.8387 46.9188 12.9138 46.7317 12.9138C46.6477 12.9136 46.5682 12.9058 46.4962 12.8907C46.4233 12.8757 46.3372 12.8483 46.2404 12.8092C46.1372 12.7679 46.0656 12.7436 46.0275 12.7364C45.609 12.5994 45.3238 12.7174 45.1864 13.0774C45.0336 13.4862 45.1823 13.8169 45.6285 14.0611C45.9223 14.2244 46.3181 14.3074 46.8037 14.3074C47.3443 14.3071 47.7943 14.1017 48.1425 13.6962C48.484 13.2981 48.8479 12.6502 49.2237 11.7707L51.287 6.94835Z" fill="#354B98"/>
<path fill-rule="evenodd" clip-rule="evenodd" d="M53.5446 14.1872C53.7814 14.1872 53.9714 14.1136 54.1076 13.9678C54.2442 13.8232 54.313 13.6345 54.313 13.4065L54.3133 10.6006H58.0295V13.4065C58.0295 13.6341 58.0962 13.8228 58.2282 13.9674C58.3611 14.1132 58.5528 14.1872 58.7982 14.1872C59.0355 14.1872 59.2247 14.1136 59.3617 13.9677C59.4978 13.8232 59.5666 13.6345 59.5666 13.4065V6.60576C59.5666 6.37823 59.4978 6.18743 59.3621 6.03887C59.225 5.8889 59.0355 5.81274 58.7982 5.81274C58.5528 5.81274 58.3607 5.88925 58.2278 6.03933C58.0962 6.18778 58.0295 6.37823 58.0295 6.60576V9.21961H54.3133V6.60576C54.3133 6.37811 54.2442 6.18743 54.1084 6.03887C53.9714 5.8889 53.7819 5.81274 53.5446 5.81274C53.2991 5.81274 53.107 5.88925 52.9742 6.03933C52.8425 6.18801 52.7759 6.37858 52.7759 6.60576V13.4065C52.7759 13.6338 52.8425 13.8227 52.9745 13.9674C53.1078 14.1132 53.2996 14.1872 53.5446 14.1872Z" fill="#354B98"/>
<path fill-rule="evenodd" clip-rule="evenodd" d="M62.4807 14.1872C62.7279 14.1872 62.9663 14.0397 63.192 13.7471L67.0017 8.54265V13.4065C67.0017 13.626 67.0683 13.8126 67.1995 13.9606C67.3323 14.1109 67.5287 14.1872 67.7824 14.1872C68.0275 14.1872 68.2175 14.1131 68.3465 13.9668C68.4741 13.8219 68.5386 13.6338 68.5386 13.4065V6.60576C68.5386 6.07958 68.2923 5.81274 67.8059 5.81274C67.5274 5.81274 67.2794 5.95661 67.0708 6.24082L63.2855 11.4799V6.60576C63.2855 6.37858 63.2184 6.18801 63.0867 6.03933C62.9539 5.88902 62.7618 5.81274 62.5167 5.81274C62.2629 5.81274 62.0688 5.88925 61.9397 6.03992C61.8121 6.18825 61.7476 6.37858 61.7476 6.60576V13.4065C61.7476 13.6501 61.8126 13.8432 61.9409 13.9797C62.07 14.1171 62.2513 14.1872 62.4807 14.1872Z" fill="#354B98"/>
<path fill-rule="evenodd" clip-rule="evenodd" d="M74.8494 12.6699C74.5592 12.8635 74.1184 12.9615 73.5393 12.9615C73.0198 12.9615 72.5685 12.9392 72.1967 12.8952V10.4926H73.5273C74.705 10.4926 75.2775 10.8925 75.2775 11.7151C75.2775 12.1592 75.1334 12.4808 74.8494 12.6699ZM73.3716 9.31539H72.1967V7.10567C72.5611 7.06871 72.9158 7.05052 73.2512 7.05052C74.3481 7.05052 74.8817 7.39915 74.8817 8.11683C74.8817 8.92322 74.3875 9.31539 73.3716 9.31539ZM75.4431 9.70344C75.7362 9.54749 75.975 9.3216 76.1538 9.03012C76.3538 8.70378 76.4548 8.34788 76.4548 7.97308C76.4548 6.4997 75.4216 5.75269 73.3832 5.75269C72.6646 5.75269 72.0122 5.80162 71.4437 5.89761C70.9632 5.98198 70.7197 6.26853 70.7197 6.74941V13.2983C70.7197 13.7722 70.9598 14.0468 71.4331 14.1144C71.9997 14.2026 72.6877 14.247 73.4792 14.247C75.7163 14.247 76.8506 13.3748 76.8506 11.6552C76.8506 11.1746 76.7139 10.7548 76.4445 10.4076C76.1977 10.0897 75.8612 9.85329 75.4431 9.70344Z" fill="#354B98"/>
<path fill-rule="evenodd" clip-rule="evenodd" d="M84.1585 13.9998C84.2915 13.8749 84.3593 13.7077 84.3593 13.5023C84.3598 13.2897 84.2915 13.1181 84.1582 12.9929C84.0253 12.8686 83.8464 12.8055 83.6271 12.8055H80.2093V10.5766H82.8351C83.0633 10.5766 83.2462 10.5116 83.3791 10.3833C83.5124 10.2541 83.5799 10.085 83.5799 9.88002C83.5799 9.66634 83.512 9.49701 83.3779 9.37579C83.2454 9.25598 83.0628 9.19532 82.8351 9.19532H80.2093V7.19436H83.5071C83.7268 7.19436 83.9057 7.13146 84.0382 7.00708C84.1718 6.88234 84.2393 6.71489 84.2393 6.50989C84.2393 6.2962 84.1718 6.125 84.0382 6.00003C83.9057 5.87599 83.7268 5.81274 83.5071 5.81274H79.4527C79.208 5.81274 79.0143 5.8889 78.8769 6.03887C78.741 6.18743 78.6719 6.37811 78.6719 6.60576V13.3943C78.6719 13.6223 78.7431 13.8133 78.8834 13.9615C79.0241 14.1115 79.22 14.1872 79.465 14.1872H83.6271C83.8464 14.1872 84.0252 14.124 84.1585 13.9998Z" fill="#354B98"/>
<path fill-rule="evenodd" clip-rule="evenodd" d="M87.4175 7.17619C87.7511 7.13254 88.0855 7.11036 88.4122 7.11036C89.5175 7.11036 90.0544 7.56096 90.0544 8.48869C90.0544 9.4806 89.4898 9.96289 88.3282 9.96289C87.9481 9.96289 87.6422 9.94858 87.4175 9.921V7.17619ZM91.6635 8.45267C91.6635 7.52905 91.3724 6.84 90.7987 6.40454C90.229 5.97212 89.438 5.75269 88.4482 5.75269C87.7445 5.75269 87.1198 5.80549 86.5916 5.90969C86.1196 6.00251 85.8804 6.30115 85.8804 6.7974V13.4064C85.8804 13.6337 85.947 13.8226 86.0787 13.9673C86.212 14.1131 86.4036 14.1871 86.6491 14.1871C86.8859 14.1871 87.075 14.1135 87.2121 13.9677C87.3482 13.8231 87.4175 13.6344 87.4175 13.4064V11.2566C87.6567 11.2909 87.9908 11.3085 88.4122 11.3085C89.3705 11.3084 90.1596 11.0666 90.7577 10.5901C91.3588 10.1106 91.6635 9.39131 91.6635 8.45267Z" fill="#354B98"/>
<path fill-rule="evenodd" clip-rule="evenodd" d="M98.4272 12.4167C97.8535 12.7543 97.2884 12.9258 96.7486 12.9258C96.071 12.9258 95.5043 12.6633 95.0646 12.1455C94.6229 11.6254 94.3986 10.8995 94.3986 9.98804C94.3986 9.10808 94.6072 8.39357 95.0183 7.86516C95.6856 7.00679 96.7851 6.83899 98.2667 7.40705C98.7656 7.59304 99.0938 7.51618 99.2399 7.1902C99.4108 6.82279 99.3083 6.50784 98.9357 6.25344C98.402 5.88169 97.6461 5.69312 96.6882 5.69312C95.472 5.69312 94.5075 6.08798 93.8211 6.86715C93.1364 7.64432 92.7896 8.69843 92.7896 10C92.7896 11.3174 93.1161 12.375 93.7607 13.144C94.4069 13.9157 95.3759 14.3074 96.641 14.3074C97.6382 14.3071 98.4711 14.0658 99.1174 13.5896C99.3256 13.4311 99.4547 13.2482 99.5011 13.0457C99.5484 12.8398 99.5148 12.6606 99.4038 12.5151C99.1907 12.2076 98.8591 12.1709 98.4272 12.4167Z" fill="#354B98"/>
<path fill-rule="evenodd" clip-rule="evenodd" d="M107.232 5.81274C106.953 5.81274 106.706 5.95661 106.497 6.24082L102.711 11.4799V6.60576C102.711 6.37858 102.644 6.18801 102.513 6.03933C102.38 5.88902 102.188 5.81274 101.943 5.81274C101.689 5.81274 101.495 5.88925 101.365 6.03992C101.238 6.18825 101.174 6.37858 101.174 6.60576V13.4065C101.174 13.6501 101.239 13.8432 101.367 13.9797C101.496 14.1171 101.678 14.1872 101.907 14.1872C102.154 14.1872 102.392 14.0397 102.618 13.7471L106.427 8.54265V13.4065C106.427 13.626 106.494 13.8126 106.626 13.9606C106.759 14.1109 106.954 14.1872 107.208 14.1872C107.453 14.1872 107.643 14.1131 107.773 13.9668C107.9 13.8219 107.964 13.6338 107.964 13.4065V6.60576C107.964 6.07958 107.718 5.81274 107.232 5.81274Z" fill="#354B98"/>
<path fill-rule="evenodd" clip-rule="evenodd" d="M116.468 6.49757C116.468 6.28412 116.401 6.11455 116.267 5.99357C116.134 5.87341 115.951 5.81274 115.724 5.81274H110.039C109.819 5.81274 109.641 5.87341 109.508 5.99357C109.374 6.11455 109.306 6.28412 109.306 6.4978C109.306 6.70233 109.373 6.87143 109.506 7.00086C109.64 7.12923 109.819 7.19436 110.039 7.19436H112.112V13.4065C112.112 13.6338 112.179 13.8227 112.311 13.9674C112.444 14.1132 112.636 14.1872 112.881 14.1872C113.127 14.1872 113.318 14.1132 113.451 13.9674C113.583 13.8227 113.65 13.6341 113.65 13.4065V7.19436H115.724C115.952 7.19436 116.135 7.12923 116.268 7.00086C116.401 6.87143 116.468 6.70233 116.468 6.49757Z" fill="#354B98"/>
<path fill-rule="evenodd" clip-rule="evenodd" d="M122.764 12.8055H119.347V10.5766H121.973C122.201 10.5766 122.384 10.5116 122.517 10.3833C122.65 10.2541 122.718 10.085 122.718 9.88002C122.718 9.66634 122.65 9.49701 122.516 9.37579C122.383 9.25598 122.2 9.19532 121.973 9.19532H119.347V7.19436H122.645C122.865 7.19436 123.043 7.13146 123.176 7.00708C123.31 6.88234 123.377 6.71489 123.377 6.50989C123.377 6.2962 123.31 6.125 123.176 6.00003C123.043 5.87599 122.865 5.81274 122.645 5.81274H118.59C118.345 5.81274 118.152 5.8889 118.015 6.03887C117.879 6.18743 117.81 6.37811 117.81 6.60576V13.3943C117.81 13.6223 117.881 13.8133 118.021 13.9615C118.162 14.1115 118.357 14.1872 118.602 14.1872H122.764C122.984 14.1872 123.163 14.124 123.296 13.9999C123.43 13.8749 123.497 13.7077 123.497 13.5023C123.497 13.2897 123.43 13.1181 123.296 12.9929C123.163 12.8686 122.984 12.8055 122.764 12.8055Z" fill="#354B98"/>
<path fill-rule="evenodd" clip-rule="evenodd" d="M131.221 6.49757C131.221 6.28412 131.153 6.11455 131.019 5.99357C130.887 5.87341 130.704 5.81274 130.477 5.81274H124.792C124.572 5.81274 124.393 5.87341 124.261 5.99357C124.126 6.11455 124.059 6.28412 124.059 6.4978C124.059 6.70233 124.126 6.87143 124.259 7.00086C124.392 7.12923 124.572 7.19436 124.791 7.19436H126.865V13.4065C126.865 13.6338 126.932 13.8227 127.064 13.9674C127.197 14.1132 127.388 14.1872 127.634 14.1872C127.879 14.1872 128.071 14.1132 128.204 13.9674C128.336 13.8227 128.403 13.6341 128.403 13.4065V7.19436H130.477C130.705 7.19436 130.888 7.12923 131.021 7.00086C131.154 6.87143 131.221 6.70233 131.221 6.49757Z" fill="#354B98"/>
<path fill-rule="evenodd" clip-rule="evenodd" d="M142.712 13.4065V6.60576C142.712 6.07958 142.466 5.81274 141.979 5.81274C141.701 5.81274 141.453 5.95661 141.244 6.24082L137.458 11.4799V6.60576C137.458 6.37858 137.392 6.18801 137.261 6.03933C137.127 5.88902 136.935 5.81274 136.69 5.81274C136.436 5.81274 136.242 5.88925 136.113 6.03992C135.986 6.18871 135.921 6.37905 135.921 6.60576V13.4065C135.921 13.6501 135.986 13.8429 136.114 13.9797C136.243 14.1171 136.425 14.1872 136.654 14.1872C136.901 14.1872 137.14 14.0397 137.365 13.7471L141.175 8.54265V13.4065C141.175 13.626 141.241 13.8126 141.373 13.9606C141.506 14.1109 141.702 14.1872 141.956 14.1872C142.201 14.1872 142.391 14.1131 142.52 13.9668C142.647 13.8219 142.712 13.6338 142.712 13.4065Z" fill="#354B98"/>
<path fill-rule="evenodd" clip-rule="evenodd" d="M150.472 5.81274H144.786C144.567 5.81274 144.389 5.87341 144.255 5.99357C144.122 6.11455 144.053 6.28412 144.053 6.4978C144.053 6.70233 144.121 6.87143 144.254 7.00086C144.387 7.12923 144.566 7.19436 144.786 7.19436H146.86V13.4065C146.86 13.6338 146.927 13.8227 147.059 13.9674C147.192 14.1132 147.384 14.1872 147.629 14.1872C147.874 14.1872 148.066 14.1132 148.199 13.9674C148.331 13.8227 148.397 13.6341 148.397 13.4065L148.398 7.19436H150.472C150.7 7.19436 150.883 7.12923 151.016 7.00086C151.149 6.87143 151.217 6.70233 151.217 6.4978C151.217 6.28412 151.148 6.11455 151.014 5.99357C150.882 5.87341 150.699 5.81274 150.472 5.81274Z" fill="#354B98"/>
<path fill-rule="evenodd" clip-rule="evenodd" d="M159.479 5.81274C159.183 5.81274 158.931 5.97397 158.73 6.29174L156.373 10.0996L153.968 6.30418C153.767 5.9782 153.503 5.81274 153.183 5.81274C152.97 5.81274 152.795 5.88045 152.662 6.01317C152.529 6.146 152.462 6.34959 152.462 6.61773V13.4065C152.462 13.9245 152.704 14.1872 153.183 14.1872C153.661 14.1872 153.903 13.9245 153.903 13.4065V8.75258L155.588 11.3933C155.773 11.6874 156.012 11.8362 156.301 11.8362C156.582 11.8362 156.818 11.6831 157.002 11.3812L158.663 8.69719V13.4065C158.663 13.6341 158.732 13.8232 158.868 13.9677C159.005 14.1136 159.195 14.1872 159.432 14.1872C159.677 14.1872 159.869 14.1132 160.001 13.9674C160.133 13.8228 160.2 13.6341 160.2 13.4065V6.60576C160.2 6.37083 160.138 6.17874 160.015 6.03382C159.89 5.88749 159.71 5.81274 159.479 5.81274Z" fill="#354B98"/>
<path fill-rule="evenodd" clip-rule="evenodd" d="M167.771 12.1117C167.362 12.6515 166.768 12.9258 166.004 12.9258C165.249 12.9258 164.658 12.6515 164.25 12.1119C163.839 11.5671 163.631 10.8566 163.631 10C163.631 9.14363 163.839 8.43335 164.25 7.8884C164.658 7.3485 165.249 7.07438 166.004 7.07438C166.768 7.07426 167.362 7.3485 167.771 7.8884C168.182 8.43311 168.39 9.14363 168.39 10C168.39 10.8567 168.182 11.5674 167.771 12.1117ZM168.956 6.90951C168.262 6.10241 167.269 5.69312 166.004 5.69312C164.74 5.69312 163.749 6.10242 163.058 6.90986C162.37 7.71426 162.021 8.75417 162.021 10C162.021 11.2537 162.37 12.2957 163.058 13.0966C163.749 13.8998 164.74 14.3074 166.004 14.3074C167.268 14.3071 168.262 13.8998 168.956 13.0966C169.649 12.2957 170 11.2537 170 10C170 8.75417 169.649 7.71449 168.956 6.90951Z" fill="#354B98"/>
</svg>
