<svg width="170" height="56" viewBox="0 0 170 56" fill="none" xmlns="http://www.w3.org/2000/svg">
<path fill-rule="evenodd" clip-rule="evenodd" d="M46.0765 8.94891H45.3085V15.3276H42.3858V0.394409H45.3085V7.00762L45.9911 6.70898L50.1085 0.394409H53.4364L49.0845 6.66631L47.9324 7.47693L49.1272 8.30896L54.0978 15.3276H50.4924L46.0765 8.94891ZM0.411045 0.432275H31.3075H31.6782H31.7185V0.472709V0.843315V25.1329V25.2441L31.7188 25.2478V25.2494L31.7192 25.2735V25.2744L31.7185 25.351V25.5035V25.5439H31.7142C31.6647 27.0113 31.2144 28.523 30.4386 29.9715C29.6434 31.4562 28.5059 32.8747 27.1079 34.1109C25.6399 35.4086 23.8819 36.5085 21.93 37.2739C20.1229 37.9825 18.1489 38.4052 16.0837 38.4338L15.8598 38.4369H15.8593C13.8093 38.4369 11.8492 38.0675 10.0503 37.4183C8.12889 36.725 6.39082 35.7124 4.92261 34.4904C3.44171 33.2581 2.23342 31.8108 1.3846 30.26C0.559427 28.7521 0.0740227 27.1458 0.00805667 25.5439H0V25.5035V25.1699V25.1329V0.843315V0.472709V0.432275H0.0404381H0.411045ZM11.4383 33.8995H11.8915V32.6119L11.9404 32.3901L11.7839 32.5825L11.4937 32.7813L11.3145 32.5368L12.0577 31.9371H12.2957V33.8995H12.7391V34.2581H11.4383V33.8995ZM13.8054 33.7005C13.8054 33.6245 13.8152 33.5566 13.8347 33.4968C13.8544 33.437 13.882 33.3827 13.9178 33.3339C13.9538 33.285 13.9961 33.2408 14.0451 33.2019C14.0939 33.1627 14.1465 33.1269 14.2031 33.0943C14.0967 33.0268 14.0129 32.9492 13.9521 32.8612C13.8912 32.7733 13.8607 32.6639 13.8607 32.5336C13.8607 32.4489 13.8765 32.3694 13.908 32.2955C13.9396 32.2217 13.9853 32.1576 14.0451 32.1033C14.1047 32.0488 14.177 32.0065 14.2618 31.9762C14.3465 31.9457 14.4423 31.9304 14.5487 31.9304C14.6465 31.9304 14.7356 31.9435 14.816 31.9697C14.8963 31.9957 14.9654 32.0327 15.0229 32.0805C15.0805 32.1283 15.1251 32.1864 15.1566 32.2548C15.1881 32.3233 15.2039 32.3989 15.2039 32.4815C15.2039 32.6096 15.1751 32.7182 15.1175 32.8073C15.0599 32.8964 14.9756 32.978 14.8648 33.0519C14.9952 33.1279 15.0935 33.2117 15.1598 33.3029C15.2261 33.3942 15.2592 33.5116 15.2592 33.655C15.2592 33.7528 15.2414 33.8412 15.2056 33.9207C15.1698 34 15.1192 34.0679 15.054 34.1244C14.9888 34.181 14.9105 34.2248 14.8192 34.2564C14.7279 34.2881 14.628 34.3037 14.5192 34.3037C14.4106 34.3037 14.3122 34.2889 14.2243 34.2596C14.1363 34.2303 14.0614 34.1895 13.9994 34.1375C13.9375 34.0854 13.8897 34.0223 13.8559 33.9483C13.8222 33.8745 13.8054 33.7919 13.8054 33.7005ZM14.855 33.6582C14.855 33.6082 14.843 33.5626 14.8192 33.5213C14.7952 33.48 14.7644 33.4425 14.7264 33.4089C14.6883 33.3752 14.646 33.3442 14.5992 33.3159C14.5524 33.2878 14.5051 33.2606 14.4573 33.2345C14.3552 33.2931 14.2851 33.3567 14.2471 33.4252C14.2091 33.4936 14.1901 33.5616 14.1901 33.6289C14.1901 33.716 14.2199 33.7902 14.2797 33.8522C14.3395 33.914 14.4226 33.945 14.529 33.945C14.6268 33.945 14.7056 33.9211 14.7654 33.8732C14.8252 33.8254 14.855 33.7538 14.855 33.6582ZM14.2649 32.5401C14.2649 32.5923 14.2749 32.6379 14.2944 32.677C14.3139 32.7162 14.3405 32.7503 14.3742 32.7796C14.4078 32.8091 14.4459 32.8361 14.4884 32.8612C14.5307 32.8862 14.5747 32.9095 14.6205 32.9312C14.7507 32.8204 14.816 32.6987 14.816 32.5661C14.816 32.4749 14.7894 32.4059 14.7361 32.3591C14.6828 32.3124 14.6182 32.289 14.542 32.289C14.4464 32.289 14.3763 32.3141 14.3319 32.3641C14.2872 32.4141 14.2649 32.4727 14.2649 32.5401ZM16.2345 33.1139C16.2345 32.714 16.3029 32.4167 16.4398 32.2224C16.5767 32.0278 16.7734 31.9304 17.0297 31.9304C17.3035 31.9304 17.5046 32.0265 17.633 32.219C17.7611 32.4114 17.8252 32.7097 17.8252 33.1139C17.8252 33.5158 17.7562 33.8147 17.6182 34.0103C17.4801 34.2058 17.2829 34.3037 17.0264 34.3037C16.7549 34.3037 16.5549 34.201 16.4267 33.9956C16.2984 33.7902 16.2345 33.4963 16.2345 33.1139ZM16.6582 33.1139C16.6582 33.3789 16.687 33.5839 16.7446 33.7283C16.8021 33.8727 16.8972 33.945 17.0297 33.945C17.158 33.945 17.2521 33.8787 17.3117 33.7463C17.3715 33.6137 17.4013 33.4029 17.4013 33.1139C17.4013 32.8509 17.3732 32.6477 17.3167 32.5043C17.2601 32.3608 17.1635 32.289 17.0264 32.289C16.896 32.289 16.8021 32.3564 16.7446 32.4912C16.687 32.6259 16.6582 32.8334 16.6582 33.1139ZM20.4041 33.6224H20.0456V34.2581H19.651V33.6224H18.6634V33.3812L19.6968 31.9599H20.0456V33.2833H20.4041V33.6224ZM19.651 32.7846L19.6805 32.5108H19.6675L19.5566 32.7455L19.2175 33.1855L19.0546 33.3094L19.2633 33.2833H19.651V32.7846ZM11.0813 9.79224C10.1192 9.25081 9.7078 10.0397 8.76234 10.2357C7.71545 10.4528 7.43668 9.63615 6.99085 8.90744C7.72813 9.06233 7.77114 9.40896 8.73236 8.7505C9.43879 8.26681 10.3334 8.58361 10.8559 9.17885L10.2746 7.61417C12.0094 7.60012 13.9635 7.3736 15.6756 7.61417L15.8921 7.65049C17.7233 8.01185 19.1048 9.57961 19.1048 11.5636C19.1048 13.0157 18.2738 14.629 17.0585 15.4872V15.6694C18.6848 15.2962 20.544 13.9347 20.7106 13.1699C20.4728 13.077 19.9015 12.7489 19.9085 12.7098C19.2718 12.2532 18.9987 11.343 19.1488 10.6536C19.2991 9.9641 19.6198 9.63084 20.078 9.3531C20.3936 9.19324 20.6794 9.09626 21.0216 9.06217L29.5797 7.85507C29.6201 8.14429 29.648 8.43865 29.6619 8.73182C29.9098 13.9663 25.8655 18.4125 20.6309 18.6605C18.8409 18.7451 16.5319 17.7546 15.7191 16.0624C15.6768 16.0695 15.6341 16.0767 15.5911 16.082C15.2801 16.1164 14.9909 16.1695 14.7217 16.2389C14.4484 17.377 16.7773 18.2613 19.4766 18.6954L19.0443 19.3215C19.5549 19.1603 20.0986 19.0732 20.6624 19.0732C23.6297 19.0732 26.0362 21.4795 26.0362 24.4471C26.0362 27.4144 23.6297 29.8207 20.6624 29.8207C17.6952 29.8207 15.2887 27.4144 15.2887 24.4471C15.2887 24.1422 15.3146 23.8432 15.3634 23.5524L15.5471 23.5793L18.8003 23.8003C18.6389 24.0644 18.5454 24.3748 18.5454 24.7072C18.5454 25.669 19.3253 26.4487 20.2869 26.4487C21.2486 26.4487 22.0282 25.669 22.0282 24.7072C22.0282 23.7609 21.2731 22.9908 20.3326 22.9664L20.3268 22.9495L20.1131 22.9746C20.0922 22.9767 20.071 22.9793 20.0499 22.9818L17.2476 23.3112C16.0241 23.5121 14.9645 23.593 14.0605 23.5637L10.1841 28.8518L9.6994 27.5679C6.95933 27.3378 7.90752 28.6056 8.52144 29.1244C8.5814 29.1749 8.58209 29.3869 8.5252 29.4331C7.51858 29.3562 6.63926 28.5487 6.63926 27.4972C6.63926 26.4457 7.51276 25.547 8.58946 25.547C9.30823 25.547 9.93585 25.9359 10.2742 26.5147L12.0344 20.9635H11.756L10.6909 22.4944C10.063 21.8385 9.57346 21.0491 9.27019 20.1727L6.29556 16.4894C6.16928 16.7747 5.97601 17.0235 5.73664 17.2173L5.14295 15.6451C3.82774 15.5798 3.0161 15.8973 3.69752 16.8969L3.98281 16.9003L3.94562 16.4065H4.77114L4.64092 18.1341L4.64195 18.1465H4.64007L4.63784 18.1776H4.07276L4.07036 18.0625L4.02855 17.507C3.27603 17.2384 2.56394 16.6453 2.56394 15.7007C2.56394 14.9734 3.05671 14.2387 3.75818 13.9183L3.37695 8.85587L2.45462 7.68613H4.01416C3.95573 7.03795 4.15586 6.33648 4.53692 5.77038C4.19133 5.8288 3.87212 6.01402 3.56354 6.52718C3.35964 5.41553 4.29242 3.9857 5.56325 4.19936C6.83939 4.41422 6.72065 4.04481 7.39128 3.54449C7.34347 3.95862 7.33576 4.37515 7.24427 4.7348C8.55896 4.87769 8.49899 4.39709 9.34455 3.76656C9.19343 5.07183 9.33273 6.392 7.73105 6.76586C6.27106 7.107 5.18013 6.25321 4.18002 7.68613H4.3577H6.26026L5.34033 8.85279L4.96716 13.8047C5.28174 13.8797 5.56719 14.0315 5.80175 14.2387L8.17584 15.6641L8.69637 17.5923H8.94053C9.18983 14.3645 11.846 11.8108 15.1162 11.722L14.989 11.4035L11.7019 11.4188L11.0813 9.79224ZM10.9336 9.27325C11.0372 9.40673 11.1226 9.5522 11.1837 9.70384C12.5841 9.95485 15.1814 11.5702 14.3146 9.27325H10.9336ZM13.2177 4.59875H14.0643V4.80196H14.3316V5.45991C14.1602 5.53067 14.0396 5.69944 14.0396 5.89631C14.0396 6.10518 14.1753 6.28183 14.3633 6.3442L14.3659 6.34505L14.3734 6.34762L14.3748 6.3478L14.3792 6.34917H14.3796L14.3847 6.35071H14.3849L14.3876 6.35139L14.3958 6.35362H14.396L14.3986 6.3543L14.4015 6.35499L14.4042 6.35568H14.4047L14.407 6.35636L14.4099 6.35687L14.4128 6.35756L14.4178 6.35859L14.4183 6.35876L14.421 6.35927L14.4239 6.35978L14.4267 6.3603L14.4277 6.36047L14.4352 6.36168L14.4382 6.36219L14.4394 6.36236H14.4395L14.4431 6.36287H14.4438L14.4467 6.36338L14.4495 6.36373L14.451 6.36407L14.4525 6.36424L14.4553 6.36459L14.4584 6.36493L14.4633 6.36544L14.4669 6.36578L14.4699 6.36613L14.4728 6.3663L14.4786 6.36681L14.4815 6.36699H14.4817L14.487 6.36732H14.4875L14.499 6.36767H14.4993L14.5045 6.36784H14.5053H14.5082H14.5111C14.7718 6.36784 14.9828 6.15675 14.9828 5.89631L14.9827 5.8874V5.88415L14.9823 5.87575L14.9818 5.86718C14.9815 5.8617 14.9811 5.85622 14.9806 5.85091L14.9799 5.8444V5.84354L14.9789 5.83617V5.83497C14.9775 5.82503 14.976 5.8151 14.9741 5.80533L14.9731 5.80105L14.9712 5.79265V5.79214L14.9673 5.77603L14.965 5.76797L14.9649 5.76712L14.9621 5.75753L14.9616 5.75599L14.9602 5.75187C14.9369 5.67956 14.897 5.61514 14.8447 5.56289L14.8439 5.5622L14.8381 5.55638L14.8322 5.55089V5.55072L14.8283 5.54729L14.8259 5.54506L14.8199 5.53975L14.8197 5.53959L14.8137 5.53427L14.8112 5.53221H14.811L14.8026 5.52536L14.8023 5.52519L14.8007 5.52399C14.7956 5.52005 14.7903 5.51611 14.785 5.51217L14.7843 5.51148L14.7807 5.50926L14.7748 5.50532L14.774 5.50463L14.7671 5.5L14.7652 5.49898L14.7637 5.49777C14.7579 5.49417 14.7519 5.49058 14.7459 5.48715V5.48698C14.7392 5.48338 14.7325 5.47978 14.7258 5.47635L14.724 5.47516L14.7164 5.47139L14.7156 5.47122L14.7089 5.46796V5.34546C14.7089 4.9572 15.0505 4.44729 15.4388 4.43683L16.1591 4.41747L15.1295 7.11232L12.1849 7.12242L11.1573 4.42758L11.8417 4.43683C12.2301 4.44197 12.5714 4.9572 12.5714 5.34546V5.46865C12.4761 5.51303 12.3984 5.58824 12.3507 5.68145L12.3502 5.68265L12.3464 5.68985L12.3456 5.69173L12.341 5.70184L12.3408 5.70218L12.3396 5.70509L12.336 5.71263L12.3329 5.72051L12.3319 5.72326L12.3317 5.7236L12.3279 5.73388L12.3278 5.73405L12.3271 5.73611L12.3242 5.74416L12.3238 5.74485C12.3176 5.76318 12.3127 5.78203 12.3087 5.80122C12.3057 5.8163 12.3033 5.83155 12.3015 5.84697V5.84885C12.3007 5.85588 12.3002 5.86273 12.2998 5.86976L12.2997 5.87215V5.87455L12.2993 5.88415L12.2991 5.8874L12.299 5.89631C12.299 6.15675 12.5101 6.36784 12.7705 6.36784H12.7736H12.7767H12.7774L12.7825 6.36767H12.7827L12.7943 6.36732H12.795L12.8003 6.36699L12.8032 6.36681L12.8091 6.3663L12.812 6.36613L12.8151 6.36578L12.8186 6.36544L12.8236 6.36493L12.8267 6.36459L12.8294 6.36424L12.8308 6.36407L12.8324 6.36373L12.8353 6.36338L12.838 6.36287L12.8409 6.36253L12.8425 6.36236L12.8438 6.36219L12.8466 6.36168L12.8495 6.36133L12.8541 6.36047L12.8551 6.3603L12.8579 6.35978L12.8608 6.35927L12.8635 6.35876H12.8639L12.8692 6.35756L12.8719 6.35687L12.8747 6.35636L12.8772 6.35568L12.8942 6.35139L12.897 6.35071C13.0962 6.29536 13.2422 6.11306 13.2422 5.89631C13.2422 5.69944 13.1216 5.53067 12.9502 5.45991V4.80196H13.2177V4.59875ZM25.0403 20.8567C27.312 19.9354 29.4215 18.3958 29.903 14.5598C29.4548 16.4538 28.4709 17.5015 27.2374 18.0824C25.918 18.7035 24.3134 18.7903 22.7733 18.8061C23.8137 19.255 24.5167 19.9005 25.0403 20.8567ZM30.8964 1.25436H0.822262V24.7218H0.825177L0.824663 24.7624L0.822094 25.0256V25.1294H0.822262V25.1699C0.822262 26.7136 1.25558 28.2747 2.03724 29.7448C2.83808 31.2507 4.00474 32.6614 5.44622 33.8609C6.84316 35.0235 8.49711 35.9866 10.3263 36.646C12.0387 37.2634 13.9053 37.6148 15.8593 37.6148H16.0743C18.0377 37.5876 19.9156 37.1851 21.6353 36.5102C23.4931 35.781 25.167 34.7336 26.5649 33.4975C27.9146 32.3041 29.006 30.9367 29.7556 29.513C30.4905 28.1173 30.8971 26.6672 30.8971 25.2742C30.8971 25.2161 30.8976 25.2009 30.898 25.1935H30.8978V25.1741H30.898V25.1733H30.8964V25.1329V25.071H30.8966L30.8921 24.7626L30.8914 24.7218H30.8964V1.25436ZM137.803 46.7286H134.741V55.5219H133.575V46.7286H130.513V45.6892H137.803V46.7286ZM123.313 45.6892H128.665V46.7286H124.479V49.9453H128.313V50.9848H124.479V54.4824H128.735V55.5219H123.313V45.6892ZM121.254 46.7286H118.191V55.5219H117.026V46.7286H113.963V45.6892H121.254V46.7286ZM110.738 48.8638L110.823 47.74H110.766L110.162 48.8917L105.415 55.5219H104.726V45.6892H105.892V52.4316L105.794 53.5414H105.85L106.468 52.3895L111.216 45.6892H111.904V55.5219H110.738V48.8638ZM102.386 55.1147C102.105 55.33 101.749 55.4798 101.318 55.5641C100.888 55.6484 100.429 55.6905 99.9419 55.6905C99.3518 55.6905 98.7994 55.5898 98.2843 55.3884C97.7693 55.1871 97.3197 54.8804 96.9357 54.4683C96.5519 54.0564 96.2475 53.5296 96.0228 52.8881C95.798 52.2468 95.6856 51.4858 95.6856 50.6055C95.6856 49.6878 95.8097 48.9082 96.058 48.2667C96.3061 47.6252 96.6338 47.1009 97.0411 46.6934C97.4486 46.2862 97.905 45.9889 98.4106 45.8014C98.9164 45.6142 99.4315 45.5206 99.956 45.5206C100.518 45.5206 100.977 45.5509 101.332 45.6119C101.688 45.6728 101.993 45.7547 102.246 45.8576L101.965 46.8831C101.515 46.6678 100.874 46.56 100.04 46.56C99.6563 46.56 99.2769 46.6302 98.9024 46.7707C98.5278 46.9112 98.193 47.1406 97.898 47.459C97.6031 47.7775 97.3666 48.1942 97.1886 48.7093C97.0108 49.2243 96.9217 49.8564 96.9217 50.6055C96.9217 51.2797 97.006 51.8698 97.1746 52.3754C97.3432 52.8811 97.575 53.3026 97.8699 53.6396C98.1649 53.9768 98.5114 54.2297 98.9094 54.3981C99.3074 54.5667 99.7404 54.651 100.209 54.651C100.63 54.651 100.998 54.6088 101.311 54.5245C101.625 54.4403 101.89 54.3327 102.105 54.2016L102.386 55.1147ZM87.8672 45.7874C88.2231 45.7033 88.6071 45.6471 89.0191 45.619C89.4312 45.5909 89.8385 45.5768 90.2411 45.5768C90.6721 45.5768 91.1098 45.619 91.5546 45.7033C91.9994 45.7874 92.4045 45.9419 92.7696 46.1667C93.1349 46.3915 93.4322 46.7005 93.6616 47.0939C93.891 47.4871 94.0058 47.9881 94.0058 48.5969C94.0058 49.1962 93.898 49.7018 93.6827 50.1139C93.4673 50.526 93.1817 50.8608 92.8258 51.1183C92.4699 51.3758 92.0627 51.5607 91.6038 51.6731C91.145 51.7855 90.672 51.8417 90.1849 51.8417C90.1381 51.8417 90.0609 51.8417 89.9533 51.8417C89.8455 51.8417 89.7331 51.8393 89.6161 51.8347C89.499 51.8299 89.3844 51.8229 89.272 51.8136C89.1596 51.8042 89.08 51.7948 89.0332 51.7855V55.5219H87.8672V45.7874ZM90.2692 46.5881C90.0257 46.5881 89.7917 46.5929 89.5669 46.6021C89.3423 46.6115 89.1643 46.635 89.0332 46.6724V50.746C89.08 50.7647 89.1548 50.7765 89.258 50.7811C89.361 50.7857 89.4686 50.7905 89.5809 50.7952C89.6934 50.7998 89.8011 50.8022 89.9041 50.8022C90.0071 50.8022 90.082 50.8022 90.1289 50.8022C90.4473 50.8022 90.7632 50.7717 91.0769 50.7109C91.3907 50.65 91.674 50.54 91.9268 50.3809C92.1797 50.2215 92.3834 49.9969 92.5378 49.7065C92.6923 49.4162 92.7696 49.0463 92.7696 48.5969C92.7696 48.2129 92.6971 47.8921 92.5518 47.6346C92.4067 47.3771 92.2148 47.1712 91.976 47.0166C91.7373 46.8621 91.4679 46.752 91.1682 46.6864C90.8686 46.621 90.5689 46.5881 90.2692 46.5881ZM79.7258 45.6892H85.0778V46.7286H80.8918V49.9453H84.7265V50.9848H80.8918V54.4824H85.148V55.5219H79.7258V45.6892ZM76.838 47.9367C76.838 48.1707 76.8005 48.4096 76.7256 48.6531C76.6508 48.8965 76.5384 49.1236 76.3884 49.3343C76.2387 49.5451 76.0468 49.7299 75.8126 49.8891C75.5785 50.0483 75.3023 50.1701 74.9838 50.2544V50.3106C75.2648 50.3574 75.534 50.4371 75.7915 50.5493C76.049 50.6617 76.2762 50.8162 76.4727 51.0129C76.6694 51.2096 76.8286 51.4483 76.9504 51.7293C77.0721 52.0103 77.1329 52.3427 77.1329 52.7267C77.1329 53.2323 77.0277 53.6701 76.817 54.04C76.6062 54.4099 76.33 54.7118 75.9882 54.9461C75.6464 55.1801 75.2554 55.3533 74.8152 55.4657C74.3752 55.5781 73.9256 55.6343 73.4668 55.6343C73.3076 55.6343 73.1203 55.6343 72.9049 55.6343C72.6896 55.6343 72.4647 55.6273 72.2307 55.6132C71.9965 55.5992 71.7624 55.5805 71.5284 55.557C71.2941 55.5336 71.0882 55.4985 70.9102 55.4517V45.7733C71.2568 45.7173 71.6595 45.6704 72.1183 45.633C72.5772 45.5955 73.0781 45.5768 73.6213 45.5768C73.9866 45.5768 74.3587 45.6072 74.7381 45.6682C75.1173 45.729 75.4615 45.846 75.7704 46.0192C76.0795 46.1925 76.3346 46.4337 76.536 46.7426C76.7373 47.0517 76.838 47.4497 76.838 47.9367ZM73.5791 54.6229C73.8788 54.6229 74.1691 54.5878 74.4501 54.5175C74.7311 54.4473 74.9792 54.335 75.1945 54.1805C75.4099 54.0259 75.5807 53.8363 75.7072 53.6115C75.8336 53.3868 75.8969 53.1199 75.8969 52.8108C75.8969 52.427 75.8196 52.1179 75.665 51.8839C75.5107 51.6496 75.3092 51.4672 75.0611 51.3359C74.813 51.2048 74.5344 51.1159 74.2253 51.0691C73.9163 51.0222 73.6072 50.9989 73.2981 50.9989H72.0762V54.5245C72.1418 54.5434 72.2353 54.5574 72.3571 54.5667C72.4788 54.5761 72.6099 54.5856 72.7504 54.5948C72.8909 54.6042 73.036 54.6112 73.1859 54.6159C73.3357 54.6205 73.4667 54.6229 73.5791 54.6229ZM72.8066 50.0156C72.9658 50.0156 73.1578 50.0109 73.3825 50.0015C73.6073 49.9921 73.7945 49.978 73.9445 49.9594C74.1691 49.8845 74.3798 49.7932 74.5765 49.6854C74.7732 49.5778 74.9487 49.4513 75.1032 49.3062C75.2578 49.1611 75.3794 48.9925 75.4685 48.8006C75.5574 48.6085 75.6018 48.4002 75.6018 48.1754C75.6018 47.8664 75.5434 47.6111 75.4264 47.4098C75.3092 47.2085 75.1524 47.0471 74.9557 46.9253C74.7592 46.8036 74.5344 46.7169 74.2815 46.6654C74.0286 46.614 73.7711 46.5881 73.5089 46.5881C73.2 46.5881 72.9166 46.5951 72.659 46.6091C72.4015 46.6232 72.2072 46.6443 72.0762 46.6724V50.0156H72.8066ZM66.744 48.8638L66.8283 47.74H66.7721L66.1682 48.8917L61.4203 55.5219H60.7319V45.6892H61.8979V52.4316L61.7995 53.5414H61.8557L62.4737 52.3895L67.2216 45.6892H67.9098V55.5219H66.744V48.8638ZM56.5657 51.0129H51.846V55.5219H50.68V45.6892H51.846V49.9734H56.5657V45.6892H57.7315V55.5219H56.5657V51.0129ZM45.0671 50.8724L45.4322 52.1225H45.5025L45.7835 50.8303L47.6658 45.6892H48.8597L46.3734 52.0804C46.1207 52.7454 45.8983 53.3002 45.7062 53.745C45.5143 54.1898 45.32 54.5504 45.1233 54.8266C44.9266 55.1028 44.7159 55.2995 44.4912 55.4166C44.2664 55.5336 43.9902 55.5922 43.6625 55.5922C43.3534 55.5922 43.1075 55.5665 42.925 55.5149C42.7424 55.4633 42.5714 55.3862 42.4122 55.2831L42.7634 54.314C42.9507 54.4169 43.1239 54.4824 43.2831 54.5105C43.4423 54.5386 43.5874 54.5526 43.7187 54.5526C43.9808 54.5526 44.2008 54.4192 44.3788 54.1524C44.5567 53.8855 44.7112 53.4898 44.8423 52.9654L41.2042 45.6892H42.5527L45.0671 50.8724ZM167.227 29.1343L167.333 27.6197H167.27L166.352 29.177L162.555 33.9983H160.806V23.3317H163.579V28.4091L163.451 29.8598H163.536L164.411 28.3451L168.251 23.3317H170V33.9983H167.227V29.1343ZM164.261 18.9799C164.361 19.5345 164.528 19.9257 164.763 20.1532C164.998 20.3807 165.3 20.4945 165.669 20.4945C166.068 20.4945 166.384 20.3807 166.619 20.1532C166.854 19.9257 167.013 19.5417 167.099 19.0013L169.211 19.5345C169.04 20.459 168.621 21.1453 167.952 21.5931C167.284 22.0412 166.501 22.2651 165.605 22.2651C165.165 22.2651 164.738 22.2154 164.326 22.1159C163.913 22.0163 163.543 21.8563 163.216 21.6358C162.889 21.4155 162.612 21.1345 162.384 20.7931C162.157 20.4518 162 20.0322 161.915 19.5345L164.261 18.9799ZM148.582 31.6731C149.008 31.7584 149.414 31.8011 149.798 31.8011C150.438 31.8011 150.886 31.6837 151.142 31.449C151.398 31.2144 151.526 30.8481 151.526 30.3503C151.526 29.8953 151.398 29.5504 151.142 29.3158C150.886 29.081 150.459 28.9637 149.862 28.9637C149.392 28.9637 148.966 29.0135 148.582 29.1131V31.6731ZM148.582 27.1291C148.923 27.0723 149.268 27.033 149.616 27.0118C149.965 26.9904 150.281 26.9797 150.566 26.9797C151.291 26.9797 151.896 27.0615 152.379 27.2251C152.863 27.3887 153.254 27.6197 153.552 27.9185C153.851 28.2171 154.064 28.5691 154.192 28.9745C154.32 29.3797 154.384 29.8171 154.384 30.2864C154.384 30.9264 154.299 31.4882 154.128 31.9717C153.958 32.4552 153.68 32.857 153.296 33.1769C152.912 33.497 152.415 33.7388 151.803 33.9024C151.191 34.0658 150.438 34.1477 149.542 34.1477C148.731 34.1477 148.031 34.1335 147.44 34.1051C146.85 34.0766 146.306 34.041 145.808 33.9983V23.3317H148.582V27.1291ZM155.6 23.3317H158.374V33.9983H155.6V23.3317ZM140.603 29.7957H137.126V33.9983H134.353V23.3317H137.126V27.3425H140.603V23.3317H143.376V33.9983H140.603V29.7957ZM126.673 31.6731C127.1 31.7584 127.505 31.8011 127.889 31.8011C128.571 31.8011 129.066 31.6837 129.371 31.449C129.677 31.2144 129.83 30.8481 129.83 30.3503C129.83 29.426 129.204 28.9637 127.953 28.9637C127.483 28.9637 127.057 29.0135 126.673 29.1131V31.6731ZM126.673 27.1291C127.014 27.0723 127.359 27.033 127.707 27.0118C128.056 26.9904 128.372 26.9797 128.657 26.9797C129.396 26.9797 130.022 27.0615 130.534 27.2251C131.046 27.3887 131.462 27.6197 131.782 27.9185C132.102 28.2171 132.333 28.5691 132.475 28.9745C132.618 29.3797 132.689 29.8171 132.689 30.2864C132.689 31.5805 132.305 32.5478 131.537 33.1877C130.769 33.8277 129.467 34.1477 127.633 34.1477C126.822 34.1477 126.122 34.1335 125.532 34.1051C124.941 34.0766 124.397 34.041 123.9 33.9983V23.3317H126.673V27.1291ZM118.716 25.7851H116.604C116.518 26.7948 116.419 27.7975 116.305 28.793C116.191 29.7887 116.01 30.681 115.761 31.4704C115.512 32.2598 115.174 32.8997 114.748 33.3904C114.321 33.881 113.766 34.1263 113.084 34.1263C112.259 34.1263 111.676 34.0198 111.334 33.8063L111.676 31.5024C111.903 31.5878 112.117 31.6304 112.316 31.6304C112.6 31.6304 112.849 31.5095 113.062 31.2677C113.276 31.0259 113.457 30.5921 113.606 29.9664C113.756 29.3406 113.876 28.4908 113.969 27.4172C114.062 26.3434 114.129 24.9816 114.172 23.3317H121.489V33.9983H118.716V25.7851ZM102.268 23.9504C102.837 23.6945 103.512 23.4918 104.295 23.3425C105.077 23.1931 105.895 23.1184 106.748 23.1184C107.487 23.1184 108.106 23.2073 108.604 23.3852C109.102 23.5629 109.496 23.8154 109.788 24.1425C110.079 24.4696 110.286 24.8608 110.407 25.3158C110.527 25.7709 110.588 26.2829 110.588 26.8517C110.588 27.4775 110.567 28.1068 110.524 28.7397C110.481 29.3727 110.456 29.9948 110.449 30.6063C110.442 31.218 110.46 31.8117 110.502 32.3877C110.545 32.9636 110.652 33.5076 110.823 34.0198H108.561L108.113 32.5478H108.007C107.722 32.9886 107.327 33.369 106.823 33.6891C106.318 34.009 105.667 34.169 104.871 34.169C104.373 34.169 103.925 34.0943 103.527 33.945C103.128 33.7956 102.787 33.5823 102.503 33.3051C102.218 33.0277 101.998 32.7006 101.841 32.3237C101.685 31.9469 101.607 31.5237 101.607 31.0544C101.607 30.4002 101.752 29.849 102.044 29.4011C102.336 28.953 102.755 28.5903 103.303 28.3131C103.85 28.0357 104.504 27.8438 105.265 27.7371C106.026 27.6305 106.876 27.5984 107.814 27.6411C107.914 26.8447 107.857 26.2723 107.644 25.9238C107.43 25.5753 106.954 25.4012 106.214 25.4012C105.66 25.4012 105.073 25.4581 104.454 25.5718C103.836 25.6856 103.327 25.8348 102.929 26.0197L102.268 23.9504ZM105.788 31.8864C106.342 31.8864 106.783 31.762 107.11 31.513C107.438 31.2641 107.679 30.9975 107.836 30.7131V29.3264C107.395 29.2837 106.972 29.2766 106.567 29.305C106.161 29.3334 105.802 29.3975 105.489 29.4971C105.176 29.5966 104.927 29.7388 104.743 29.9237C104.558 30.1086 104.465 30.3433 104.465 30.6277C104.465 31.0259 104.582 31.3352 104.817 31.5557C105.052 31.7762 105.375 31.8864 105.788 31.8864ZM90.812 23.3317H92.8386L93.1587 24.6118H93.244C93.6138 24.0714 94.051 23.6732 94.556 23.4172C95.0609 23.1611 95.6759 23.0331 96.4013 23.0331C97.7381 23.0331 98.7408 23.4563 99.4092 24.3025C100.078 25.1486 100.412 26.5104 100.412 28.3878C100.412 29.298 100.305 30.1192 100.092 30.8517C99.8785 31.5842 99.5622 32.2063 99.1426 32.7184C98.723 33.2304 98.211 33.6214 97.6065 33.8916C97.0022 34.162 96.3088 34.297 95.5266 34.297C95.0858 34.297 94.723 34.2649 94.4386 34.201C94.1542 34.137 93.8698 34.034 93.5853 33.8916V38.2649H90.812V23.3317ZM95.5693 25.3798C95.0289 25.3798 94.6057 25.5149 94.3 25.7851C93.9942 26.0553 93.756 26.4607 93.5853 27.0011V31.4383C93.7844 31.5948 94.0014 31.7193 94.2359 31.8117C94.4706 31.9042 94.7799 31.9503 95.1639 31.9503C95.9605 31.9503 96.5577 31.6695 96.9559 31.1077C97.3541 30.546 97.5532 29.618 97.5532 28.3237C97.5532 27.3851 97.3968 26.6598 97.0839 26.1477C96.7711 25.6357 96.2661 25.3798 95.5693 25.3798ZM88.508 33.081C88.0814 33.4223 87.5017 33.7103 86.7693 33.945C86.037 34.1796 85.2582 34.297 84.4334 34.297C82.7124 34.297 81.4538 33.7956 80.6574 32.793C79.861 31.7904 79.4628 30.4144 79.4628 28.665C79.4628 26.7878 79.9107 25.3797 80.8068 24.4411C81.7027 23.5025 82.9614 23.0331 84.5826 23.0331C85.1232 23.0331 85.6494 23.1042 86.1613 23.2464C86.6733 23.3888 87.1284 23.6233 87.5266 23.9504C87.925 24.2775 88.2448 24.7184 88.4866 25.2732C88.7284 25.8278 88.8493 26.5176 88.8493 27.3425C88.8493 27.6411 88.8315 27.9612 88.7961 28.3025C88.7604 28.6438 88.7071 28.9993 88.636 29.3691H82.2361C82.2788 30.265 82.5097 30.9406 82.9294 31.3957C83.349 31.8508 84.028 32.0783 84.9668 32.0783C85.5498 32.0783 86.0724 31.9895 86.5347 31.8117C86.9968 31.6338 87.3489 31.4526 87.5907 31.2677L88.508 33.081ZM84.5399 25.2518C83.8147 25.2518 83.2779 25.4687 82.9294 25.9025C82.581 26.3362 82.3711 26.9158 82.3 27.6411H86.2679C86.3248 26.8732 86.2076 26.2829 85.916 25.8705C85.6245 25.458 85.1659 25.2518 84.5399 25.2518ZM78.4601 36.4303H76.4335L76.1134 33.9983H68.9456L68.6255 36.4303H66.5989V31.5451H67.8576C67.9714 31.3886 68.1172 31.1219 68.2948 30.7451C68.4727 30.3682 68.6504 29.8526 68.8282 29.1984C69.0061 28.5442 69.1589 27.7334 69.2869 26.7664C69.4149 25.7994 69.4788 24.6545 69.4788 23.3317H76.9028V31.5451H78.4601V36.4303ZM74.1295 31.6731V25.6784H71.8896C71.8611 26.1904 71.8113 26.7344 71.7402 27.3104C71.669 27.8865 71.5801 28.4447 71.4735 28.9851C71.3668 29.5255 71.2424 30.0304 71.1002 30.4997C70.958 30.969 70.8015 31.3602 70.6309 31.6731H74.1295ZM65.7883 33.081C65.3617 33.4223 64.782 33.7103 64.0495 33.945C63.3172 34.1796 62.5385 34.297 61.7137 34.297C59.9927 34.297 58.7341 33.7956 57.9377 32.793C57.1413 31.7904 56.7431 30.4144 56.7431 28.665C56.7431 26.7878 57.191 25.3797 58.0871 24.4411C58.983 23.5025 60.2417 23.0331 61.8629 23.0331C62.4035 23.0331 62.9297 23.1042 63.4416 23.2464C63.9536 23.3888 64.4087 23.6233 64.8069 23.9504C65.2052 24.2775 65.5251 24.7184 65.7669 25.2732C66.0087 25.8278 66.1296 26.5176 66.1296 27.3425C66.1296 27.6411 66.1118 27.9612 66.0763 28.3025C66.0407 28.6438 65.9874 28.9993 65.9163 29.3691H59.5164C59.5591 30.265 59.79 30.9406 60.2096 31.3957C60.6293 31.8508 61.3083 32.0783 62.247 32.0783C62.8301 32.0783 63.3527 31.9895 63.815 31.8117C64.2771 31.6338 64.6292 31.4526 64.8709 31.2677L65.7883 33.081ZM61.8202 25.2518C61.095 25.2518 60.5582 25.4687 60.2096 25.9025C59.8613 26.3362 59.6514 26.9158 59.5803 27.6411H63.5482C63.6051 26.8732 63.4879 26.2829 63.1963 25.8705C62.9048 25.458 62.4461 25.2518 61.8202 25.2518ZM47.2071 34.1263C46.9654 34.2117 46.713 34.2615 46.4498 34.2757C46.1866 34.29 45.9485 34.297 45.7352 34.297C44.441 34.297 43.4454 33.8347 42.7485 32.9103C42.0517 31.986 41.7032 30.5708 41.7032 28.665C41.7032 26.8447 42.0872 25.4651 42.8553 24.5265C43.6232 23.5879 44.7325 23.1184 46.1832 23.1184C46.5814 23.1184 46.9227 23.1468 47.2071 23.2037V19.0652H49.9378V23.2252C50.1938 23.1825 50.4213 23.154 50.6204 23.1398C50.8195 23.1256 51.0116 23.1184 51.1965 23.1184C52.6044 23.1184 53.6639 23.5344 54.375 24.3664C55.0862 25.1985 55.4418 26.5603 55.4418 28.4517C55.4418 29.3476 55.3456 30.1548 55.1537 30.8731C54.9617 31.5912 54.6808 32.2063 54.3111 32.7184C53.9413 33.2304 53.4897 33.6214 52.9565 33.8916C52.4231 34.162 51.808 34.297 51.1111 34.297C50.9831 34.297 50.7947 34.2864 50.5457 34.2649C50.2969 34.2437 50.0942 34.2046 49.9378 34.1477V38.2649H47.2071V34.1263ZM50.5777 25.3158C50.4355 25.3158 50.3111 25.3265 50.2044 25.3477C50.0978 25.3691 49.9662 25.394 49.8098 25.4224V32.0356C49.9236 32.0641 50.0552 32.0819 50.2044 32.0891C50.3538 32.0961 50.5138 32.0997 50.6845 32.0997C51.3671 32.0997 51.8685 31.8189 52.1883 31.2571C52.5084 30.6952 52.6684 29.7602 52.6684 28.4517C52.6684 27.3424 52.512 26.5425 52.1991 26.0517C51.8863 25.561 51.3457 25.3158 50.5777 25.3158ZM46.4604 32.0997C46.6169 32.0997 46.7627 32.0891 46.8979 32.0677C47.0329 32.0464 47.1787 32.0214 47.3351 31.993V25.4012C47.0649 25.3443 46.7875 25.3158 46.5031 25.3158C45.8489 25.3158 45.3476 25.5682 44.9993 26.0732C44.6508 26.5779 44.4765 27.442 44.4765 28.665C44.4765 29.7745 44.6365 30.6241 44.9566 31.2144C45.2765 31.8047 45.7778 32.0997 46.4604 32.0997ZM135.099 10.4636L135.206 8.94891H135.142L134.225 10.5062L130.427 15.3276H128.678V4.66095H131.451V9.73827L131.323 11.189H131.409L132.283 9.67436L136.123 4.66095H137.872V15.3276H135.099V10.4636ZM132.134 0.309082C132.233 0.86371 132.4 1.25488 132.635 1.48242C132.87 1.70996 133.172 1.82373 133.542 1.82373C133.94 1.82373 134.256 1.70996 134.491 1.48242C134.726 1.25488 134.886 0.870907 134.971 0.3305L137.083 0.863704C136.912 1.78826 136.493 2.47448 135.824 2.92236C135.156 3.37042 134.374 3.59436 133.478 3.59436C133.037 3.59436 132.61 3.54467 132.198 3.44512C131.785 3.34557 131.416 3.18554 131.088 2.96502C130.761 2.74468 130.484 2.46368 130.256 2.12237C130.029 1.78106 129.872 1.36145 129.787 0.863704L132.134 0.309082ZM123.473 10.4636L123.579 8.94891H123.515L122.598 10.5062L118.801 15.3276H117.051V4.66095H119.825V9.73827L119.697 11.189H119.782L120.657 9.67436L124.497 4.66095H126.246V15.3276H123.473V10.4636ZM110.14 10.9116H109.393V15.3276H106.62V4.66095H109.393V9.20489L110.054 8.90625L112.55 4.66095H115.515L112.934 8.71435L111.846 9.52495L113.041 10.357L115.921 15.3276H112.742L110.14 10.9116ZM104.934 14.6662C104.507 14.9791 103.992 15.2174 103.388 15.3808C102.783 15.5445 102.161 15.6262 101.521 15.6262C100.668 15.6262 99.9457 15.4912 99.3556 15.2208C98.7653 14.9506 98.2854 14.5702 97.9156 14.0795C97.5457 13.589 97.2791 12.9951 97.1156 12.2983C96.952 11.6014 96.8703 10.8335 96.8703 9.99426C96.8703 8.18816 97.2755 6.7979 98.0863 5.82366C98.8969 4.84942 100.077 4.36231 101.628 4.36231C102.41 4.36231 103.039 4.42639 103.516 4.55438C103.992 4.68237 104.422 4.84599 104.806 5.04509L104.145 7.30627C103.818 7.14984 103.494 7.02904 103.174 6.94371C102.854 6.85839 102.488 6.81573 102.075 6.81573C101.307 6.81573 100.724 7.06811 100.326 7.57305C99.928 8.07781 99.7289 8.885 99.7289 9.99426C99.7289 10.4493 99.7786 10.8689 99.8782 11.2529C99.9777 11.6369 100.127 11.9712 100.326 12.2556C100.525 12.54 100.785 12.764 101.105 12.9276C101.425 13.0912 101.798 13.173 102.225 13.173C102.694 13.173 103.092 13.1125 103.419 12.9915C103.747 12.8707 104.038 12.7249 104.294 12.5543L104.934 14.6662ZM92.1769 11.1249H88.6998V15.3276H85.9264V4.66095H88.6998V8.67168H92.1769V4.66095H94.9502V15.3276H92.1769V11.1249ZM75.2812 5.27965C75.8503 5.02367 76.5257 4.82098 77.308 4.67174C78.0902 4.52233 78.908 4.44763 79.7613 4.44763C80.5008 4.44763 81.1195 4.53656 81.6172 4.71441C82.115 4.89209 82.5098 5.14465 82.8012 5.47174C83.0928 5.79882 83.2989 6.18999 83.4199 6.64507C83.5407 7.10015 83.6012 7.61211 83.6012 8.18096C83.6012 8.80669 83.5799 9.43603 83.5373 10.069C83.4946 10.7019 83.4696 11.324 83.4626 11.9355C83.4554 12.5472 83.4732 13.1409 83.5159 13.717C83.5585 14.2928 83.6653 14.8368 83.8359 15.349H81.5746L81.1265 13.877H81.0199C80.7355 14.3179 80.3407 14.6982 79.836 15.0183C79.331 15.3382 78.6803 15.4982 77.8839 15.4982C77.3862 15.4982 76.9381 15.4235 76.5399 15.2743C76.1417 15.1249 75.8004 14.9115 75.516 14.6343C75.2316 14.3569 75.011 14.0298 74.8546 13.6529C74.6982 13.2761 74.62 12.8529 74.62 12.3836C74.62 11.7294 74.7657 11.1782 75.0573 10.7303C75.3489 10.2823 75.7684 9.91955 76.316 9.64232C76.8636 9.36492 77.5177 9.17302 78.2787 9.06627C79.0394 8.9597 79.8893 8.92767 80.8279 8.97033C80.9274 8.17394 80.8705 7.60149 80.6572 7.25299C80.4439 6.90448 79.9674 6.7304 79.2279 6.7304C78.6733 6.7304 78.0866 6.78728 77.4679 6.90105C76.8493 7.01482 76.3408 7.16406 75.9426 7.34893L75.2812 5.27965ZM78.8013 13.2156C79.3559 13.2156 79.7967 13.0912 80.1238 12.8423C80.4511 12.5933 80.6928 12.3267 80.8493 12.0423V10.6556C80.4084 10.613 79.9852 10.6058 79.58 10.6342C79.1746 10.6627 78.8155 10.7267 78.5026 10.8263C78.1897 10.9258 77.9408 11.068 77.7559 11.2529C77.571 11.4378 77.4787 11.6725 77.4787 11.957C77.4787 12.3552 77.5959 12.6644 77.8306 12.8849C78.0653 13.1055 78.3888 13.2156 78.8013 13.2156ZM67.2387 10.9116V8.97033H68.54C69.0378 8.97033 69.4468 8.87078 69.7667 8.67168C70.0867 8.47258 70.2467 8.20941 70.2467 7.88232C70.2467 7.49835 70.1045 7.22454 69.8201 7.06108C69.5357 6.89745 69.1019 6.81573 68.5188 6.81573C67.9642 6.81573 67.4734 6.88683 67.0468 7.02904C66.6202 7.17125 66.2787 7.32049 66.0227 7.47693L65.4254 5.36498C65.852 5.12322 66.4175 4.9135 67.1213 4.73565C67.8254 4.55797 68.5757 4.46905 69.3721 4.46905C70.5951 4.46905 71.5088 4.69659 72.1133 5.15167C72.7178 5.60675 73.0201 6.26812 73.0201 7.13562C73.0201 7.37738 72.988 7.62274 72.9239 7.87169C72.86 8.12048 72.7569 8.35881 72.6147 8.58635C72.4725 8.81389 72.2982 9.01659 72.0921 9.19427C71.8858 9.37212 71.6404 9.51073 71.356 9.61028V9.69561C72.1097 9.86626 72.6431 10.1685 72.956 10.6023C73.2688 11.036 73.4253 11.6156 73.4253 12.3409C73.4253 12.796 73.3329 13.2192 73.148 13.6102C72.9632 14.0014 72.6822 14.3391 72.3054 14.6235C71.9285 14.908 71.4556 15.1355 70.8867 15.3061C70.3179 15.477 69.6423 15.5623 68.8601 15.5623C68.0779 15.5623 67.3987 15.4804 66.8227 15.3169C66.2468 15.1533 65.7667 14.9648 65.3827 14.7515L65.98 12.5969C66.3071 12.7818 66.7019 12.9312 67.164 13.045C67.6263 13.1587 68.1418 13.2156 68.7107 13.2156C70.005 13.2156 70.652 12.8032 70.652 11.9782C70.652 11.6085 70.4849 11.3382 70.1506 11.1676C69.8165 10.9969 69.1942 10.9116 68.284 10.9116H67.2387ZM55.4842 5.27965C56.0533 5.02367 56.7287 4.82098 57.511 4.67174C58.2932 4.52233 59.111 4.44763 59.9643 4.44763C60.7038 4.44763 61.3225 4.53656 61.8202 4.71441C62.318 4.89209 62.7127 5.14465 63.0042 5.47174C63.2958 5.79882 63.5019 6.18999 63.6229 6.64507C63.7437 7.10015 63.8042 7.61211 63.8042 8.18096C63.8042 8.80669 63.7829 9.43603 63.7403 10.069C63.6976 10.7019 63.6726 11.324 63.6656 11.9355C63.6584 12.5472 63.6762 13.1409 63.7189 13.717C63.7615 14.2928 63.8683 14.8368 64.0389 15.349H61.7776L61.3295 13.877H61.2229C60.9385 14.3179 60.5438 14.6982 60.039 15.0183C59.534 15.3382 58.8833 15.4982 58.0869 15.4982C57.5892 15.4982 57.1411 15.4235 56.7429 15.2743C56.3447 15.1249 56.0034 14.9115 55.719 14.6343C55.4346 14.3569 55.2141 14.0298 55.0576 13.6529C54.9012 13.2761 54.823 12.8529 54.823 12.3836C54.823 11.7294 54.9687 11.1782 55.2603 10.7303C55.5519 10.2823 55.9714 9.91955 56.519 9.64232C57.0666 9.36492 57.7208 9.17302 58.4817 9.06627C59.2424 8.9597 60.0923 8.92767 61.0309 8.97033C61.1304 8.17394 61.0735 7.60149 60.8602 7.25299C60.6469 6.90448 60.1704 6.7304 59.4309 6.7304C58.8763 6.7304 58.2896 6.78728 57.6709 6.90105C57.0523 7.01482 56.5438 7.16406 56.1456 7.34893L55.4842 5.27965ZM59.0043 13.2156C59.5589 13.2156 59.9997 13.0912 60.3268 12.8423C60.6541 12.5933 60.8959 12.3267 61.0523 12.0423V10.6556C60.6114 10.613 60.1882 10.6058 59.783 10.6342C59.3776 10.6627 59.0185 10.7267 58.7056 10.8263C58.3927 10.9258 58.1438 11.068 57.9589 11.2529C57.774 11.4378 57.6817 11.6725 57.6817 11.957C57.6817 12.3552 57.7989 12.6644 58.0336 12.8849C58.2684 13.1055 58.5918 13.2156 59.0043 13.2156Z" fill="#005FA0"/>
</svg>
