<svg width="170" height="32" viewBox="0 0 170 32" fill="none" xmlns="http://www.w3.org/2000/svg">
<path fill-rule="evenodd" clip-rule="evenodd" d="M155.022 8.40609C155.713 5.63555 155.835 4.23575 154.025 2.36016C152.647 0.932048 150.317 0.267345 148.111 1.3518C146.881 1.95687 144.909 4.16079 144.026 5.06271C143.333 5.7709 142.741 6.35763 142.038 7.05171C141.563 7.52106 140.516 8.43709 140.155 9.02248C142.123 8.0353 144.168 7.57972 146.137 9.11288C147.523 10.1921 148.88 12.2974 147.997 14.9053C147.226 17.182 142.071 20.931 140.32 23.2784C142.958 22.3287 144.772 22.0527 146.73 24.029C148.76 26.0788 148.438 27.7681 147.48 30.4782L154.256 23.8063C156.292 21.8766 155.529 18.1476 153.917 16.6601C152.028 14.9167 150.446 15.1501 147.858 15.8962C148.314 15.0685 152.355 11.226 153.355 10.232C154.21 9.38249 155.033 8.36936 156.754 8.13332C161.094 7.53811 165.243 12.6722 160.929 17.049L156.695 21.3231C155.73 22.3249 155.561 22.17 155.466 22.9287C158.139 22.0611 159.987 22.7104 161.41 24.2978C163.122 26.2093 162.889 28.1884 161.904 30.4787C163.32 29.4906 169.025 23.6042 169.497 22.5978C170.547 20.3548 169.824 18.1627 168.515 16.8104C166.724 14.961 165.243 15.1089 162.489 15.7536C163.013 14.9072 167.058 11.0722 168.087 10.0142C172.284 5.69663 168.846 0.567471 164.519 0.844268C161.544 1.03457 160.131 3.76972 158.008 5.61469C157.434 6.11327 157.106 6.45645 156.541 6.98511C155.903 7.58192 155.91 7.81159 155.022 8.40609ZM90.9002 28.456L92.3421 28.8814C92.1207 29.6612 91.7516 30.2398 91.2366 30.619C90.7216 30.9966 90.0693 31.1862 89.2779 31.1862C88.2977 31.1862 87.4926 30.8646 86.8609 30.2217C86.2309 29.5788 85.915 28.7001 85.915 27.584C85.915 26.4052 86.2326 25.4886 86.8661 24.8358C87.4994 24.1829 88.3338 23.8565 89.3672 23.8565C90.2701 23.8565 91.0031 24.1137 91.5661 24.6264C91.9026 24.9298 92.1532 25.365 92.3215 25.9337L90.8486 26.27C90.7611 25.9041 90.5791 25.6139 90.3027 25.4013C90.0247 25.1886 89.6882 25.0831 89.2933 25.0831C88.7457 25.0831 88.3011 25.271 87.9612 25.6485C87.6196 26.0244 87.4497 26.6344 87.4497 27.4785C87.4497 28.372 87.618 29.01 87.9527 29.3892C88.2891 29.77 88.7251 29.9596 89.2624 29.9596C89.659 29.9596 90.0006 29.8392 90.2856 29.5969C90.5705 29.3545 90.7765 28.9754 90.9002 28.456ZM93.621 31.0674V23.9851H99.0799V25.182H95.1145V26.7547H98.8018V27.9516H95.1145V29.8705H99.2241V31.0674H93.621ZM100.491 31.0674V23.9851H102.879C103.783 23.9851 104.372 24.0197 104.647 24.0906C105.069 24.1978 105.423 24.4286 105.708 24.7847C105.993 25.1408 106.135 25.6007 106.135 26.1645C106.135 26.5998 106.053 26.9641 105.89 27.2609C105.725 27.5576 105.517 27.7901 105.265 27.9598C105.013 28.128 104.755 28.2401 104.494 28.2945C104.139 28.3621 103.626 28.3967 102.953 28.3967H101.984V31.0674H100.491ZM101.984 25.182V27.1998H102.796C103.382 27.1998 103.771 27.1619 103.969 27.0877C104.166 27.0136 104.321 26.8982 104.432 26.7383C104.544 26.58 104.601 26.397 104.601 26.186C104.601 25.9271 104.522 25.7145 104.365 25.5463C104.207 25.3782 104.01 25.2727 103.768 25.2298C103.591 25.1985 103.236 25.182 102.7 25.182H101.984ZM107.361 23.9851H110.31C110.895 23.9851 111.33 24.0082 111.616 24.0543C111.905 24.1022 112.161 24.1994 112.387 24.3461C112.614 24.4945 112.803 24.6907 112.954 24.9364C113.105 25.182 113.18 25.459 113.18 25.7639C113.18 26.0936 113.088 26.3986 112.902 26.6739C112.717 26.9509 112.465 27.157 112.147 27.2955C112.595 27.4224 112.938 27.6367 113.18 27.94C113.421 28.2434 113.541 28.5995 113.541 29.01C113.541 29.3331 113.464 29.6464 113.307 29.9514C113.151 30.2564 112.938 30.5003 112.667 30.6833C112.398 30.8646 112.065 30.9768 111.668 31.0196C111.421 31.0444 110.822 31.0608 109.872 31.0674H107.361V23.9851ZM108.854 25.1622V26.7943H109.829C110.408 26.7943 110.768 26.786 110.909 26.7696C111.163 26.7415 111.364 26.6575 111.51 26.5173C111.656 26.3772 111.728 26.1942 111.728 25.9667C111.728 25.7474 111.665 25.571 111.539 25.4342C111.414 25.2974 111.227 25.2149 110.98 25.1869C110.832 25.1704 110.408 25.1622 109.709 25.1622H108.854ZM108.854 27.9714V29.8705H110.235C110.77 29.8705 111.112 29.8557 111.256 29.8277C111.477 29.7881 111.658 29.6942 111.797 29.5442C111.936 29.3925 112.006 29.193 112.006 28.9407C112.006 28.7265 111.953 28.5467 111.845 28.3983C111.738 28.25 111.582 28.1412 111.38 28.0736C111.177 28.006 110.736 27.9714 110.058 27.9714H108.854ZM114.82 23.9851H116.21V28.7001L119.197 23.9851H120.68V31.0674H119.29V26.4283L116.303 31.0674H114.82V23.9851ZM126.92 28.456L128.362 28.8814C128.141 29.6612 127.772 30.2398 127.257 30.619C126.742 30.9966 126.089 31.1862 125.298 31.1862C124.318 31.1862 123.513 30.8646 122.881 30.2217C122.251 29.5788 121.935 28.7001 121.935 27.584C121.935 26.4052 122.253 25.4886 122.886 24.8358C123.52 24.1829 124.354 23.8565 125.387 23.8565C126.29 23.8565 127.023 24.1137 127.586 24.6264C127.923 24.9298 128.173 25.365 128.342 25.9337L126.869 26.27C126.781 25.9041 126.599 25.6139 126.323 25.4013C126.045 25.1886 125.708 25.0831 125.314 25.0831C124.766 25.0831 124.321 25.271 123.981 25.6485C123.64 26.0244 123.47 26.6344 123.47 27.4785C123.47 28.372 123.638 29.01 123.973 29.3892C124.309 29.77 124.745 29.9596 125.283 29.9596C125.679 29.9596 126.021 29.8392 126.306 29.5969C126.591 29.3545 126.797 28.9754 126.92 28.456ZM66.1602 3.77364L71.6408 3.81112L71.6604 1.21506L66.2234 1.2171L66.1602 3.77364ZM114.675 3.68983C115.599 3.94544 119.155 3.87536 120.202 3.75235L120.214 1.24702L114.705 1.22434L114.675 3.68983ZM0 17.3724L2.53991 17.4327L2.55659 1.25072L0.0323879 1.21801L0 17.3724ZM120.26 17.4992L122.82 17.4216L122.867 4.369C123.169 3.22991 126.397 3.91284 128.314 3.78318L128.321 1.24026C124.328 0.976712 121.265 1.60409 120.403 5.24347C119.982 7.01836 120.169 15.2427 120.26 17.4992ZM71.6729 17.4086L74.2688 17.4404L74.2913 7.19713C74.2913 2.32928 73.7924 4.27189 79.7464 3.77079L79.7855 1.28215C75.5335 0.811505 72.5305 1.80464 71.7837 5.46069C71.3878 7.39859 71.582 15.0169 71.6729 17.4086ZM9.58187 17.3877L13.0617 17.4453C12.4861 16.1355 5.30364 10.2148 5.34595 9.27793C5.3807 8.50894 12.4784 2.52462 13.1375 1.22852C8.82173 1.09307 9.68585 1.15147 7.41994 3.33329C4.7685 5.88639 1.15636 9.03369 5.45539 13.4052C6.83294 14.806 8.23103 15.9727 9.58187 17.3877ZM113.872 12.3512L111.354 12.2951C110.757 12.4391 109.365 16.2719 104.901 14.9676C99.7132 13.4519 99.6849 5.2654 104.868 3.71717C109.099 2.45341 110.523 5.67598 111.164 6.35173L113.73 6.37055C113.6 3.48767 109.492 0.112704 104.821 1.04776C96.4398 2.72576 96.1951 15.6318 104.732 17.6033C106.832 18.0885 109.243 17.5707 110.729 16.5986C112.655 15.3385 112.783 14.62 113.872 12.3512ZM26.2309 11.1696C24.2784 18.2 13.5749 15.4445 15.8443 7.39918C17.7762 0.549935 28.4331 3.23999 26.2309 11.1696ZM19.401 1.06336C15.3475 1.90544 12.1753 5.77867 13.107 10.8927C15.0578 21.6011 30.8383 18.8992 28.9398 7.73486C28.2485 3.66929 24.5361 -0.0033921 19.401 1.06336ZM50.3035 6.36738L52.8707 6.37661C53.9864 4.58724 55.2531 3.02229 58.5846 3.59084C60.7525 3.96078 62.4411 5.72065 62.7916 8.03203L56.7869 8.03417L56.7077 10.5818L62.7407 10.6279C62.6875 12.7934 60.6713 14.6472 58.7018 15.0622C55.4997 15.7369 53.9266 14.1439 52.9185 12.3093L50.2791 12.3082C50.5747 15.5693 54.9076 18.5655 59.1853 17.6269C67.7776 15.7415 67.5646 3.03071 59.3825 1.09645C54.6702 -0.0175435 50.3036 3.51845 50.3035 6.36738ZM83.2626 7.84687C83.314 5.54675 85.8761 3.47443 88.4656 3.47663C91.0417 3.47882 93.6042 5.54702 93.6762 7.87545L83.2626 7.84687ZM95.9213 12.2738L93.3099 12.2751C90.0217 17.7959 83.1799 14.5981 83.1059 10.347L96.4773 10.2827C97.0454 -1.25782 82.425 -2.15127 80.5703 7.43183C78.9903 15.5956 86.7032 19.7902 92.4021 16.8148C93.8481 16.0599 95.8036 14.2294 95.9213 12.2738ZM37.935 3.72157C45.4064 1.51578 47.6051 13.1878 41.0095 14.997C33.6722 17.0097 31.2967 5.68145 37.935 3.72157ZM33.9976 3.06449L33.9674 1.23732L31.4454 1.22541L31.4009 23.6992L33.8692 23.7213C34.2473 22.5848 33.9463 17.2285 34.0194 15.558C34.5622 15.777 38.0164 19.4427 43.1365 16.911C51.0075 13.0192 47.6654 -0.699298 38.0416 1.06133C37.2375 1.20847 36.4636 1.50462 35.8291 1.85992C35.0581 2.29174 34.7401 2.82292 33.9976 3.06449Z" fill="#548071"/>
</svg>
