<svg width="170" height="44" viewBox="0 0 170 44" fill="none" xmlns="http://www.w3.org/2000/svg">
<path fill-rule="evenodd" clip-rule="evenodd" d="M21.9732 43.9732C9.83111 43.9732 0 34.1293 0 22C0 9.85796 9.83111 0.0268555 21.9732 0.0268555C34.1025 0.0268555 43.9463 9.85796 43.9463 22C43.9463 34.1293 34.1025 43.9732 21.9732 43.9732Z" fill="url(#paint0_radial_275_371)"/>
<path fill-rule="evenodd" clip-rule="evenodd" d="M11.8739 37.9341H17.1853C17.9386 40.245 18.8706 42.007 19.9176 43.0028C16.8533 42.4283 14.0955 40.6153 11.8739 37.9341ZM7.80103 30.0947H15.551C15.8702 32.7632 16.3554 35.1635 16.9555 37.1936H11.2994C9.80556 35.189 8.61816 32.7887 7.80103 30.0947ZM6.65194 22.2554H15.0786C15.0914 24.7578 15.219 27.1454 15.4616 29.3542H7.59675C6.99667 27.1326 6.66471 24.7451 6.65194 22.2554ZM7.66058 14.416H15.4872C15.2318 16.6248 15.1041 19.0124 15.0786 21.5149H6.65194C6.69024 19.0124 7.04774 16.6248 7.66058 14.416ZM11.4654 6.57667H17.0193C16.4064 8.59396 15.9085 10.9943 15.5765 13.6755H7.87764C8.70753 10.9688 9.946 8.56843 11.4654 6.57667ZM19.9176 0.997199C18.9089 1.96754 18.0024 3.64011 17.2619 5.83615H12.0654C14.2487 3.26984 16.9427 1.54621 19.9176 0.997199ZM17.9896 37.9341H21.9731V37.1936H17.747C17.147 35.2273 16.649 32.8398 16.3171 30.0947H21.9731V29.3542H16.2277C15.9851 27.1837 15.8574 24.8089 15.8447 22.2554H21.9731V21.5149H15.8447C15.8574 18.9613 16.0106 16.5865 16.2532 14.416H21.9731V13.6755H16.3426C16.6873 10.9177 17.198 8.53013 17.8109 6.57667H21.9731V5.83615H18.0662C19.1898 2.61869 20.607 0.792916 21.9731 0.792916V0.0268555C17.7853 0.0268555 13.955 2.23566 11.0823 5.83615H7.09881C6.84345 6.07873 6.5881 6.32132 6.34551 6.57667H10.5205C9.06503 8.59396 7.87764 11.0071 7.08604 13.6755H1.71085C1.60871 13.9181 1.50657 14.1734 1.41719 14.416H6.86899C6.26891 16.6376 5.92418 19.0252 5.88588 21.5149H0.102123C0.102123 21.6808 0.0893555 21.8468 0.0893555 22.0128C0.0893555 22.0894 0.0893555 22.1788 0.0893555 22.2554H5.88588C5.91141 24.7451 6.23061 27.1326 6.80515 29.3542H1.32782C1.41719 29.6096 1.51933 29.8521 1.60871 30.0947H7.0222C7.78826 32.7632 8.93735 35.1635 10.3673 37.1936H6.10293C6.34552 37.4489 6.5881 37.6915 6.84345 37.9341H10.9163C13.8018 41.675 17.696 43.9604 21.9731 43.9604V43.1944C20.5687 43.1944 19.126 41.292 17.9896 37.9341Z" fill="url(#paint1_radial_275_371)"/>
<path fill-rule="evenodd" clip-rule="evenodd" d="M21.9731 1.95459V42.0451C33.0427 42.0451 42.0184 33.0694 42.0184 21.9998C42.0184 10.9303 33.0427 1.95459 21.9731 1.95459Z" fill="url(#paint2_linear_275_371)"/>
<path fill-rule="evenodd" clip-rule="evenodd" d="M21.9731 7.04932V36.9512C30.2338 36.9512 36.9241 30.2482 36.9241 22.0003C36.9241 13.7396 30.2338 7.04932 21.9731 7.04932Z" fill="url(#paint3_linear_275_371)"/>
<path fill-rule="evenodd" clip-rule="evenodd" d="M21.9731 16.791V27.1967C24.8459 27.1967 27.1696 24.873 27.1696 22.0002C27.1696 19.1275 24.8459 16.791 21.9731 16.791Z" fill="url(#paint4_radial_275_371)"/>
<path d="M57.6206 16.9696L57.4673 19.472C57.1992 23.762 57.0205 24.9749 55.2968 25.8176C55.0543 25.9325 55.0287 26.1112 55.1181 26.3155L55.6799 27.5412C55.7948 27.8093 55.9352 27.8221 56.1906 27.7455C59.4463 26.6858 59.5102 24.0684 59.8549 19.1911L59.9187 18.0421H63.1362V27.1071C63.1362 27.3497 63.2128 27.4008 63.4682 27.4008H65.2939C65.6004 27.4008 65.6387 27.3497 65.6387 27.1071V16.9696C65.6387 16.229 65.3705 15.8715 64.5789 15.8715H58.6675C57.8759 15.8715 57.6716 16.2035 57.6206 16.9696ZM76.9891 19.7018H77.0785V27.1071C77.0785 27.3497 77.1296 27.4135 77.436 27.4135H79.1979C79.4277 27.4135 79.5427 27.3114 79.5427 27.1071V17.0206C79.5427 16.1652 79.2745 15.8715 78.4702 15.8715H77.7935C77.1423 15.8715 76.9764 15.9865 76.5806 16.6121L73.7334 21.285L72.3289 23.596H72.2268V16.178C72.2268 15.9354 72.2012 15.8715 71.8821 15.8715H70.1201C69.8903 15.8715 69.7754 15.9737 69.7754 16.178V26.2772C69.7754 26.9922 69.9924 27.4135 70.8479 27.4135H71.5118C72.1885 27.4135 72.3417 27.2986 72.7375 26.6858L75.5208 22.1788L76.9891 19.7018ZM91.7103 17.6846V16.2163C91.7103 15.9354 91.6336 15.8715 91.3783 15.8715H82.9389C82.6963 15.8715 82.6324 15.9354 82.6324 16.2163V17.6846C82.6324 17.9016 82.7346 18.0165 82.9389 18.0165H85.8627V27.0688C85.8627 27.3369 85.9776 27.4135 86.2329 27.4135H87.9949C88.3268 27.4135 88.3907 27.3497 88.3907 27.0688V18.0165H91.3783C91.5953 18.0165 91.7103 17.9016 91.7103 17.6846ZM104.657 21.617C104.657 17.9782 102.959 15.7056 99.5368 15.7056C96.396 15.7056 94.4425 17.9654 94.4425 21.6681C94.4425 25.4345 96.0768 27.5923 99.4858 27.5923C103.048 27.5923 104.657 25.3707 104.657 21.617ZM102.039 21.6681C102.039 23.596 101.465 25.3452 99.5624 25.3452C97.66 25.3452 97.0599 23.8769 97.0599 21.5659C97.0599 19.5869 97.877 17.9399 99.5496 17.9399C101.567 17.9399 102.039 19.6891 102.039 21.6681ZM113.607 25.3196C111.449 25.3196 110.76 23.8513 110.76 21.7191C110.76 19.5742 111.743 17.9654 113.543 17.9654C114.386 17.9654 114.986 18.1059 115.777 18.3868C116.097 18.5017 116.16 18.4506 116.275 18.1442L116.786 17.0079C116.939 16.6248 116.901 16.561 116.658 16.4333C115.611 15.8588 114.552 15.7183 113.428 15.7183C110.262 15.7183 108.117 18.1059 108.117 21.7191C108.117 25.3707 109.7 27.5923 113.313 27.5923C114.577 27.5923 115.931 27.4008 117.118 26.673C117.309 26.5581 117.361 26.4432 117.207 26.124L116.658 24.9494C116.543 24.694 116.454 24.6174 116.148 24.7451C115.433 25.0132 114.667 25.3196 113.607 25.3196ZM127.804 27.0943V26.5198C130.869 26.2134 132.86 24.3237 132.86 21.5149C132.86 18.6804 131.06 16.9057 127.804 16.5355V16.1907C127.804 15.9354 127.779 15.8715 127.46 15.8715H125.647C125.417 15.8715 125.302 15.9737 125.302 16.1907V16.5355C122.327 16.9313 120.348 18.8719 120.348 21.5787C120.348 24.4131 122.085 26.1878 125.302 26.507V27.0943C125.302 27.3114 125.417 27.4135 125.647 27.4135H127.46C127.779 27.4135 127.804 27.3497 127.804 27.0943ZM130.447 21.4893C130.447 22.9065 129.707 24.2471 127.792 24.5536V18.4889C129.758 18.757 130.447 20.1359 130.447 21.4893ZM125.302 18.5145V24.5536C123.515 24.2982 122.8 23.047 122.8 21.5149C122.8 20.187 123.642 18.7698 125.302 18.5145ZM144.9 27.0305V25.6388C144.9 25.3069 144.849 25.243 144.568 25.243H140.215C139.512 25.243 139.142 25.026 139.142 24.2471V22.3703H143.879C144.134 22.3703 144.185 22.2554 144.185 22V20.7105C144.185 20.4041 144.134 20.3147 143.879 20.3147H139.142V19.0507C139.142 18.4762 139.359 18.0293 140.215 18.0293H144.402C144.645 18.0293 144.709 17.9399 144.709 17.659V16.2673C144.709 15.9482 144.671 15.8715 144.402 15.8715H139.678C137.457 15.8715 136.64 17.3526 136.64 18.9103V24.3876C136.64 25.8814 137.253 27.4135 139.691 27.4135H144.568C144.824 27.4135 144.9 27.2986 144.9 27.0305ZM150.901 27.0688V23.2257H153.084C156.787 23.2257 157.272 20.5956 157.272 19.472C157.272 17.3909 155.804 15.8715 153.416 15.8715H149.382C148.59 15.8715 148.399 16.2673 148.399 16.8802V27.0688C148.399 27.3369 148.514 27.4135 148.769 27.4135H150.505C150.837 27.4135 150.901 27.3752 150.901 27.0688ZM154.68 19.638C154.68 20.519 154.17 21.2084 153.059 21.2084H150.901V18.0804H153.033C154.374 18.0804 154.68 19.0252 154.68 19.638ZM166.682 25.0132L167.32 27.1454C167.384 27.4008 167.55 27.4135 167.806 27.4135H169.759C170.014 27.4135 170.027 27.222 169.976 27.0816L166.554 16.7781C166.286 15.9737 166.005 15.8715 165.265 15.8715H164.282C163.618 15.8715 163.286 16.0503 163.082 16.7781L159.647 27.0816C159.596 27.2603 159.634 27.4135 159.877 27.4135H161.805C162.124 27.4135 162.201 27.3114 162.264 27.1071L162.916 25.0132H166.682ZM163.503 22.9704L164.128 20.8765L164.754 18.5272H164.856L165.469 20.8765L166.095 22.9704H163.503Z" fill="black"/>
<defs>
<radialGradient id="paint0_radial_275_371" cx="0" cy="0" r="1" gradientUnits="userSpaceOnUse" gradientTransform="translate(12.8882 11.0001) rotate(180) scale(32.2118)">
<stop stop-color="#00A0E3"/>
<stop offset="1" stop-color="#2D428D"/>
</radialGradient>
<radialGradient id="paint1_radial_275_371" cx="0" cy="0" r="1" gradientUnits="userSpaceOnUse" gradientTransform="translate(11.6545 11.9386) scale(30.8796 30.8793)">
<stop stop-color="#40C0F0"/>
<stop offset="1" stop-color="#0060AA"/>
</radialGradient>
<linearGradient id="paint2_linear_275_371" x1="31.9958" y1="42.0451" x2="31.9958" y2="1.95459" gradientUnits="userSpaceOnUse">
<stop stop-color="#FBBA00"/>
<stop offset="1" stop-color="#FFED00"/>
</linearGradient>
<linearGradient id="paint3_linear_275_371" x1="29.4422" y1="36.9512" x2="29.4422" y2="7.04932" gradientUnits="userSpaceOnUse">
<stop stop-color="#FBBA00"/>
<stop offset="1" stop-color="#EF7F1A"/>
</linearGradient>
<radialGradient id="paint4_radial_275_371" cx="0" cy="0" r="1" gradientUnits="userSpaceOnUse" gradientTransform="translate(24.1329 19.8462) scale(7.01754 7.01701)">
<stop stop-color="#E94F50"/>
<stop offset="1" stop-color="#BF272E"/>
</radialGradient>
</defs>
</svg>
