<svg width="170" height="32" viewBox="0 0 170 32" fill="none" xmlns="http://www.w3.org/2000/svg">
<path d="M29.3049 2.55347H0V31.8134H29.3049V2.55347Z" fill="#D2233C"/>
<path d="M26.0637 8.10767L22.7735 13.4117C22.6257 13.6328 22.5353 13.8871 22.5109 14.1518C22.4864 14.4163 22.5285 14.6828 22.6333 14.9271L27.6324 27.6633H6.9328C6.50172 27.6659 6.07436 27.5837 5.67524 27.4215C5.27611 27.2592 4.91308 27.02 4.60694 26.7176C4.3008 26.4153 4.05759 26.0556 3.89126 25.6594C3.72493 25.2632 3.63875 24.8381 3.63766 24.4086L3.62012 7.44924C3.61891 7.01146 3.79229 6.59116 4.10214 6.28074C4.41197 5.97034 4.8329 5.79525 5.27229 5.79404C5.71169 5.79283 6.13357 5.96558 6.44514 6.27427C6.7567 6.58297 6.93242 7.00232 6.93363 7.4401V23.3337C6.93572 23.6074 7.04318 23.8699 7.23385 24.067C7.42451 24.264 7.68384 24.3806 7.9583 24.3928H23.1181L19.1963 15.1882C19.0893 14.8466 19.0314 14.4918 19.0245 14.1341C19.062 13.6036 19.2077 13.0861 19.4525 12.6135L23.0555 6.70603C23.1909 6.43813 23.3964 6.2117 23.6504 6.05071C23.9044 5.88971 24.1974 5.80016 24.4983 5.79155C24.7119 5.77467 24.9267 5.80127 25.1297 5.86974C25.3327 5.93821 25.5196 6.04711 25.679 6.18981C25.8384 6.33252 25.9669 6.50604 26.0569 6.69984C26.1468 6.89363 26.1963 7.10363 26.2022 7.31705C26.2055 7.58657 26.1597 7.85446 26.067 8.10767" fill="white"/>
<path d="M14.6479 18.817V7.4443C14.643 7.22629 14.6818 7.00948 14.7621 6.80664C14.8425 6.60379 14.9627 6.41898 15.1157 6.26305C15.2687 6.10712 15.4515 5.98324 15.6532 5.89866C15.8549 5.81407 16.0716 5.77051 16.2905 5.77051C16.5093 5.77051 16.726 5.81407 16.9278 5.89866C17.1295 5.98324 17.3122 6.10712 17.4653 6.26305C17.6183 6.41898 17.7385 6.60379 17.8188 6.80664C17.8991 7.00948 17.938 7.22629 17.9331 7.4443V18.9418C17.9331 20.1022 17.4704 21.215 16.6468 22.0355C15.8233 22.8561 14.7062 23.3171 13.5415 23.3171C12.3768 23.3171 11.2597 22.8561 10.4362 22.0355C9.61258 21.215 9.1499 20.1022 9.1499 18.9418V7.4443C9.1499 7.22934 9.19241 7.01647 9.27493 6.81788C9.3575 6.61928 9.47856 6.43882 9.63112 6.28683C9.78368 6.13483 9.9648 6.01425 10.1642 5.93199C10.3635 5.84973 10.5771 5.80739 10.7929 5.80739C11.0086 5.80739 11.2223 5.84973 11.4216 5.93199C11.621 6.01425 11.8021 6.13483 11.9547 6.28683C12.1073 6.43882 12.2282 6.61928 12.3108 6.81788C12.3934 7.01647 12.4358 7.22934 12.4358 7.4443V18.8162C12.4266 18.9666 12.4483 19.1173 12.4997 19.259C12.5511 19.4008 12.631 19.5305 12.7347 19.6403C12.8383 19.7501 12.9634 19.8375 13.1022 19.8973C13.241 19.9571 13.3906 19.9879 13.5419 19.9879C13.6932 19.9879 13.8428 19.9571 13.9816 19.8973C14.1204 19.8375 14.2455 19.7501 14.3491 19.6403C14.4528 19.5305 14.5327 19.4008 14.584 19.259C14.6355 19.1173 14.6573 18.9674 14.6479 18.817Z" fill="white"/>
<path d="M54.7139 6.06836V27.5103H48.6876V11.216H44.382V19.6715C44.382 22.765 44.0749 27.7888 36.5735 27.7888C35.7244 27.8146 34.8759 27.7217 34.0527 27.5128V22.3676C34.4817 22.4955 34.9253 22.5675 35.3728 22.5821C38.017 22.5821 38.3558 20.9269 38.3558 17.895V6.06836H54.7139Z" fill="#221F1C"/>
<path d="M64.0297 6.06836L68.2427 15.0735L71.6847 6.06836H78.2332L68.548 27.5095H62.0921L65.0125 21.5969L56.9253 6.06836H64.0297Z" fill="#221F1C"/>
<path d="M80.2339 6.06836H86.2576V15.0735L92.747 6.06836H99.8176L91.6405 16.451L100.034 27.5078H92.5016L86.2584 18.2882V27.5078H80.2347L80.2339 6.06836Z" fill="#221F1C"/>
<path d="M143.492 1.47341C142.324 3.98573 139.588 4.90438 137.036 4.90438C134.484 4.90438 131.747 3.98489 130.58 1.47341L134.022 0.186523C134.311 0.732103 134.745 1.18859 135.277 1.50698C135.807 1.82537 136.416 1.99361 137.035 1.99361C137.655 1.99361 138.263 1.82537 138.793 1.50698C139.325 1.18859 139.758 0.732103 140.048 0.186523L143.492 1.47341ZM132.821 6.06824V18.9333L141.151 6.06824H147.055V27.5102H141.25V14.646L132.918 27.5102H127.014V6.06824H132.821Z" fill="#221F1C"/>
<path d="M170 6.06836V27.5103H163.973V11.216H159.671V19.6715C159.671 22.765 159.362 27.7888 151.86 27.7888C151.012 27.8144 150.164 27.7215 149.341 27.5128V22.3676C149.771 22.4957 150.216 22.5678 150.665 22.5821C153.307 22.5821 153.644 20.9269 153.644 17.895V6.06836H170Z" fill="#221F1C"/>
<path d="M117.643 16.794C117.643 12.5484 115.021 10.4401 112.151 10.4401C109.279 10.4401 106.655 12.5484 106.655 16.794C106.655 21.0397 109.275 23.1463 112.151 23.1463C115.025 23.1463 117.643 21.0414 117.643 16.794ZM100.277 16.794C100.277 10.9123 104.068 5.15527 112.151 5.15527C120.233 5.15527 124.017 10.9099 124.017 16.794C124.017 22.6783 120.231 28.4328 112.151 28.4328C104.07 28.4328 100.277 22.6758 100.277 16.794Z" fill="#221F1C"/>
</svg>
