<svg width="170" height="18" viewBox="0 0 170 18" fill="none" xmlns="http://www.w3.org/2000/svg">
<path d="M7.74543 1.55022C7.73956 1.54385 7.73548 1.53604 7.73364 1.52758C7.73179 1.51912 7.7322 1.51032 7.73484 1.50208C7.73755 1.49384 7.74232 1.48645 7.74876 1.48068C7.75521 1.47492 7.76308 1.47098 7.77154 1.46926L8.15071 1.39425C8.15796 1.39289 8.1648 1.38993 8.17073 1.38562C8.17671 1.3813 8.18166 1.37571 8.18522 1.36925L8.3694 1.02875C8.37371 1.02133 8.37987 1.01518 8.38729 1.01089C8.39465 1.00661 8.40305 1.00436 8.41162 1.00436C8.42019 1.00436 8.42859 1.00661 8.43595 1.01089C8.44337 1.01518 8.44952 1.02133 8.45384 1.02875L8.64279 1.36687C8.6463 1.37314 8.65107 1.37861 8.65677 1.38291C8.66252 1.38722 8.66908 1.39027 8.6761 1.39187L9.05641 1.46211C9.06493 1.46383 9.07275 1.46778 9.07919 1.47354C9.08569 1.47931 9.09047 1.48669 9.09311 1.49494C9.09582 1.50318 9.09622 1.51197 9.09438 1.52044C9.09248 1.5289 9.08845 1.53671 9.08259 1.54307L8.81989 1.82642C8.81518 1.83174 8.81155 1.83796 8.80931 1.84472C8.80707 1.85148 8.8062 1.85862 8.80684 1.86571L8.85791 2.25027C8.85895 2.2589 8.85763 2.26764 8.85418 2.2756C8.85067 2.28356 8.84515 2.29045 8.83813 2.29554C8.83111 2.30064 8.82283 2.30376 8.8142 2.30459C8.80557 2.30543 8.79689 2.30394 8.78901 2.30027L8.43244 2.13835C8.42606 2.13481 8.41892 2.13295 8.41162 2.13295C8.40431 2.13295 8.39718 2.13481 8.3908 2.13835L8.04257 2.30503C8.03464 2.309 8.02584 2.31073 8.01698 2.31005C8.00818 2.30937 7.99972 2.30629 7.99247 2.30115C7.98528 2.29601 7.97959 2.289 7.97608 2.28087C7.97257 2.27275 7.97131 2.26381 7.97246 2.25503L8.01882 1.87048C8.01991 1.86336 8.01928 1.85608 8.01703 1.84925C8.01473 1.84242 8.01088 1.83622 8.0057 1.83119L7.74543 1.55022ZM3.53904 12.8272C3.52573 12.7738 3.49637 12.7257 3.45492 12.6895C3.41347 12.6533 3.36193 12.6307 3.30726 12.6249C3.36788 12.4939 3.4594 12.2319 3.33103 12.0367C3.22406 11.8736 3.00774 11.9177 2.90077 11.9462C2.85616 11.8184 2.77046 11.7092 2.65711 11.6355C2.61402 11.6128 2.56624 11.6004 2.51756 11.5993C2.46887 11.5983 2.42061 11.6086 2.3766 11.6295C2.33031 11.6478 2.28867 11.6762 2.25474 11.7127C2.22081 11.7491 2.19544 11.7927 2.18048 11.8402C2.148 11.9739 2.15882 12.1144 2.21139 12.2415C2.11274 12.2962 1.93207 12.4272 1.96298 12.6236C1.99982 12.8618 2.23873 12.9808 2.36947 13.0272C2.33428 13.0709 2.31251 13.1238 2.30681 13.1796C2.30111 13.2354 2.31173 13.2917 2.33738 13.3416C2.41969 13.4537 2.54177 13.53 2.6785 13.5547C2.6785 13.6035 2.9281 14.0916 3.26091 13.9499C3.59371 13.8082 3.46415 13.2665 3.42969 13.2356C3.51479 13.1174 3.5537 12.9722 3.53904 12.8272ZM7.58023 7.88641L7.57068 6.14578H8.00455C8.00455 6.14578 8.00455 5.25048 8.00455 5.05166C8.00455 4.79807 8.34208 4.74807 8.34208 4.74807L8.26719 4.3909L8.4027 2.67649C8.40391 2.67123 8.40685 2.66653 8.41104 2.66317C8.41524 2.6598 8.42048 2.65797 8.42588 2.65797C8.43129 2.65797 8.43647 2.6598 8.44073 2.66317C8.44492 2.66653 8.44786 2.67123 8.44907 2.67649L8.60356 4.38851L8.53224 4.74569C8.53224 4.74569 8.87218 4.79093 8.87339 5.04452C8.87339 5.24215 8.87339 6.13863 8.87339 6.13863H9.3072L9.3179 7.87926L10.1879 8.30904L10.201 10.4842L12.3714 10.4711L12.8052 10.033V9.16265L13.2367 8.72571H13.6705L14.1079 9.1579L14.1186 11.1723L14.0817 11.1914C13.976 11.2507 13.884 11.3319 13.8119 11.4295C13.7003 11.4349 13.5916 11.4668 13.4947 11.5224C13.3978 11.5781 13.3155 11.656 13.2545 11.7498C13.1349 11.9412 13.0925 12.171 13.1357 12.3927C13.0665 12.4767 13.018 12.5758 12.9942 12.6819C12.9764 12.764 12.972 12.8485 12.9811 12.932C12.9294 12.9107 12.8757 12.8952 12.8207 12.8856L12.8111 11.3378H12.3773L12.3868 12.9427C12.2893 12.9878 12.201 13.0507 12.1265 13.1284H12.0802C12.0367 13.1245 11.9929 13.1245 11.9494 13.1284L11.9387 11.3295H11.5049L11.5156 13.3868C11.3938 13.5477 11.3308 13.7457 11.3373 13.9475L9.78622 13.957L9.77553 12.2165V11.7819H8.89478C8.89478 11.7819 9.11825 11.6557 9.27988 11.1164C9.28379 11.1043 9.28419 11.0913 9.28109 11.0789C9.27798 11.0666 9.27148 11.0553 9.26233 11.0465C9.25313 11.0377 9.24169 11.0317 9.2292 11.0291C9.21678 11.0265 9.20384 11.0274 9.19193 11.0318C8.88288 11.1509 8.46569 10.8247 8.46569 10.8247C8.46569 10.8247 8.05206 11.1509 7.74186 11.0402C7.72984 11.0361 7.7169 11.0354 7.70453 11.0382C7.69216 11.0411 7.68083 11.0473 7.67174 11.0561C7.6626 11.065 7.65616 11.0762 7.65299 11.0885C7.64989 11.1008 7.65017 11.1138 7.65391 11.1259C7.82147 11.6628 8.04735 11.7867 8.04735 11.7867H7.16661V12.2224L7.1761 13.9618L5.63093 13.9701C5.63524 13.7682 5.56973 13.5709 5.44552 13.4118L5.43482 11.3545H4.9998L5.0105 13.1534C4.96852 13.1461 4.92592 13.1429 4.88332 13.1439H4.83697C4.76128 13.0676 4.67224 13.0058 4.57429 12.9618L4.56597 11.3569H4.13095L4.13927 12.9046C4.08409 12.9146 4.03025 12.9311 3.97881 12.9534C3.98769 12.8698 3.98246 12.7853 3.96336 12.7034C3.9385 12.5972 3.8888 12.4985 3.81835 12.4153C3.86196 12.194 3.81944 11.9644 3.69949 11.7736C3.63707 11.6808 3.55379 11.6041 3.45635 11.5495C3.35891 11.4949 3.25003 11.464 3.13849 11.4593C3.06568 11.3614 2.97289 11.2802 2.8663 11.2211L2.82945 11.2033L2.81757 9.18765L3.25021 8.75072H3.68404L4.12025 9.1829V10.0532L4.55646 10.5092L6.72802 10.4973L6.71968 8.32569L7.58023 7.88641ZM3.77675 9.9377C3.77652 9.87603 3.75802 9.81578 3.72361 9.76463C3.6892 9.71349 3.64041 9.67367 3.58342 9.65027C3.52642 9.62687 3.46379 9.62097 3.40343 9.63322C3.34307 9.64546 3.28769 9.67538 3.24431 9.71921C3.20092 9.76297 3.17147 9.8187 3.15969 9.87923C3.14791 9.93976 3.15431 10.0025 3.1781 10.0594C3.20188 10.1163 3.24198 10.1648 3.29332 10.1989C3.34467 10.233 3.40494 10.2511 3.46653 10.2508C3.54861 10.2496 3.6269 10.216 3.6845 10.1575C3.7421 10.0989 3.77438 10.02 3.77437 9.9377H3.77675ZM6.31675 13.5404L6.30485 11.3664H5.87103L5.88294 13.5404H6.31675ZM13.1511 9.88415C13.1513 9.94583 13.1698 10.0061 13.2042 10.0572C13.2386 10.1084 13.2874 10.1482 13.3444 10.1716C13.4014 10.195 13.464 10.2009 13.5244 10.1886C13.5848 10.1764 13.6402 10.1465 13.6835 10.1027C13.7269 10.0589 13.7563 10.0032 13.7681 9.94262C13.7799 9.88209 13.7735 9.81939 13.7497 9.76252C13.7259 9.70559 13.6858 9.65702 13.6345 9.62292C13.5832 9.58888 13.5229 9.5708 13.4613 9.57103C13.4202 9.57086 13.3795 9.57887 13.3415 9.59454C13.3035 9.61022 13.269 9.63327 13.2399 9.6624C13.2108 9.69152 13.1878 9.72607 13.1722 9.76412C13.1565 9.80222 13.1485 9.84301 13.1487 9.88415H13.1511ZM10.642 11.3426L10.6551 13.5154H11.0889L11.077 11.3426H10.642ZM8.89478 8.74002L8.90428 10.4806H9.3393L9.32981 8.74002H8.89478ZM8.0711 7.00774C8.08422 7.16216 8.15307 7.30651 8.26483 7.41372C8.2734 7.42396 8.27898 7.43632 8.28094 7.44954C8.28295 7.46275 8.28128 7.4762 8.2761 7.4885C8.27093 7.5008 8.26253 7.51144 8.25171 7.51928C8.2409 7.52706 8.22819 7.53175 8.2149 7.53278H8.0699V7.90901H8.8211V7.53278H8.67725C8.66367 7.53238 8.6505 7.52815 8.63923 7.52048C8.62795 7.51281 8.61915 7.50211 8.6138 7.48958C8.60839 7.47711 8.60673 7.46332 8.60891 7.44988C8.6111 7.43643 8.61708 7.4239 8.62617 7.41372C8.73649 7.30628 8.80442 7.16256 8.81754 7.00894C8.83537 6.71487 8.67845 6.66247 8.59171 6.65177C8.50492 6.64107 8.5786 6.75418 8.63687 6.80653C8.69508 6.85893 8.54058 6.87799 8.44193 6.87919C8.34329 6.88039 8.18879 6.86248 8.247 6.80893C8.30527 6.75538 8.37653 6.63512 8.28979 6.65297C8.203 6.67082 8.04378 6.71367 8.06512 7.00774H8.0711ZM7.59565 8.74717L7.60519 10.4877H8.04021L8.0271 8.74477L7.59565 8.74717ZM11.8056 1.52045C11.8913 1.73919 12.0117 1.94262 12.1622 2.12288C12.2588 2.23841 12.3659 2.34482 12.4819 2.44076C12.4871 2.44419 12.493 2.44632 12.4992 2.44693C12.5054 2.44755 12.5116 2.44664 12.5173 2.44429C12.5231 2.44194 12.5281 2.43823 12.5321 2.43346C12.5361 2.42869 12.5389 2.42302 12.5402 2.41695C12.5607 2.26588 12.5675 2.11325 12.5603 1.96096C12.5483 1.48361 12.3709 1.02531 12.0588 0.664438C11.9621 0.548903 11.8551 0.442496 11.7391 0.346558C11.734 0.342803 11.728 0.340421 11.7218 0.339639C11.7155 0.338857 11.7091 0.339701 11.7032 0.342092C11.6974 0.344483 11.6923 0.348339 11.6883 0.353291C11.6844 0.358243 11.6818 0.364124 11.6808 0.370369C11.6602 0.521429 11.6534 0.67406 11.6606 0.826354C11.6685 1.06348 11.7142 1.29781 11.7961 1.52045H11.8056ZM7.18323 14.413L9.78979 14.3988L9.35235 13.9618L9.33458 12.2367H8.90428L8.91382 13.9666H8.04493L8.03544 12.2367H7.60519L7.61468 13.9666L7.18323 14.413ZM10.573 1.77404C10.9377 1.93374 11.3328 2.01176 11.7307 2.00263C11.7366 2.00248 11.7423 2.00067 11.7471 1.9974C11.752 1.99414 11.7558 1.98956 11.7582 1.98419C11.7606 1.97883 11.7614 1.97291 11.7605 1.9671C11.7596 1.9613 11.7571 1.95587 11.7533 1.95143C11.4957 1.64383 11.1751 1.39534 10.8131 1.22281C10.448 1.06323 10.0525 0.985232 9.65427 0.994225C9.64841 0.994643 9.64277 0.996668 9.638 1.00007C9.63322 1.00348 9.62943 1.00814 9.62713 1.01355C9.62477 1.01895 9.62396 1.02489 9.62477 1.03072C9.62557 1.03655 9.62799 1.04205 9.63167 1.04661C9.88993 1.3537 10.2109 1.60176 10.573 1.77404ZM11.7973 2.43837C11.5706 2.3886 11.3371 2.37733 11.1067 2.40504C10.9588 2.42166 10.8128 2.45195 10.6705 2.49552C10.6648 2.49809 10.6598 2.50196 10.6558 2.50682C10.6518 2.51167 10.649 2.51739 10.6476 2.52351C10.6463 2.52963 10.6463 2.53598 10.6478 2.54208C10.6493 2.54817 10.6522 2.55383 10.6563 2.55862C10.7662 2.6613 10.8856 2.75338 11.0128 2.83364C11.4031 3.09391 11.8744 3.20348 12.3393 3.142C12.4872 3.12537 12.6332 3.09509 12.7755 3.05151C12.7812 3.04894 12.7862 3.04508 12.7902 3.04022C12.7942 3.03536 12.797 3.02965 12.7984 3.02353C12.7997 3.01741 12.7997 3.01105 12.7982 3.00496C12.7967 2.99887 12.7938 2.9932 12.7897 2.98841C12.6798 2.88574 12.5604 2.79366 12.4332 2.71339C12.238 2.58689 12.023 2.49393 11.7973 2.43837ZM15.7969 9.31861C15.7885 9.15813 15.7655 8.99868 15.7279 8.84243C15.6711 8.59819 15.5756 8.36465 15.4451 8.15067C15.3108 7.94122 15.1429 7.75539 14.9482 7.60063C14.8245 7.50074 14.6921 7.41223 14.5524 7.33637C14.5463 7.3338 14.5397 7.33282 14.5331 7.33345C14.5265 7.33408 14.5202 7.33631 14.5147 7.33997C14.5092 7.34358 14.5047 7.34856 14.5015 7.35433C14.4984 7.36017 14.4966 7.36664 14.4966 7.37327C14.5055 7.53381 14.529 7.6932 14.5667 7.84951C14.6721 8.34268 14.9478 8.78276 15.3452 9.09245C15.4692 9.19194 15.6016 9.28039 15.741 9.35671C15.7472 9.35929 15.7539 9.36026 15.7606 9.35957C15.7672 9.35888 15.7737 9.3566 15.7792 9.35282C15.7847 9.34899 15.7893 9.34389 15.7923 9.33794C15.7954 9.332 15.797 9.32536 15.7969 9.31861ZM14.4799 6.76842C14.6565 6.92284 14.8573 7.04716 15.0742 7.13635C15.2127 7.19408 15.3564 7.23871 15.5033 7.26966C15.5095 7.27046 15.5158 7.26972 15.5216 7.26754C15.5274 7.26531 15.5327 7.26171 15.5368 7.25696C15.5409 7.25227 15.5438 7.2466 15.5452 7.24054C15.5466 7.23442 15.5465 7.22812 15.5449 7.22206C15.4953 7.07743 15.4329 6.9376 15.3583 6.80418C15.2447 6.5965 15.0978 6.40907 14.9232 6.24939C14.7474 6.09395 14.5464 5.96955 14.329 5.88148C14.191 5.82299 14.0477 5.77794 13.9011 5.74695C13.8948 5.74637 13.8885 5.74731 13.8827 5.74968C13.8769 5.75205 13.8717 5.75578 13.8676 5.76056C13.8636 5.76535 13.8607 5.77104 13.8593 5.77717C13.8579 5.78329 13.8579 5.78967 13.8595 5.79576C13.9087 5.94032 13.9708 6.08016 14.0449 6.21363C14.1584 6.42275 14.3053 6.61178 14.4799 6.77323V6.76842ZM15.2905 11.6093C15.3452 11.4498 15.385 11.2856 15.4094 11.1187C15.493 10.5972 15.3943 10.0627 15.1301 9.60558C15.0488 9.45963 14.9545 9.32135 14.8484 9.19245C14.8436 9.1873 14.8376 9.18353 14.8309 9.18135C14.8243 9.17918 14.8172 9.17872 14.8103 9.18004C14.8034 9.18135 14.797 9.18439 14.7916 9.18885C14.7862 9.19325 14.782 9.19903 14.7794 9.20555C14.7253 9.36518 14.6855 9.52932 14.6606 9.69604C14.5772 10.2172 14.6759 10.7513 14.9399 11.208C15.0214 11.3545 15.1161 11.4931 15.2228 11.6224C15.2272 11.6274 15.2329 11.6312 15.2391 11.6336C15.2454 11.6359 15.2521 11.6367 15.2588 11.6359C15.2655 11.6351 15.2718 11.6327 15.2773 11.6289C15.2829 11.6251 15.2874 11.62 15.2905 11.614V11.6093ZM14.9898 12.545C15.0183 12.3486 14.8365 12.22 14.7367 12.1665C14.7884 12.0387 14.798 11.8977 14.764 11.764C14.7484 11.7167 14.7224 11.6735 14.6878 11.6376C14.6533 11.6017 14.611 11.5741 14.5643 11.5569C14.5204 11.5361 14.4722 11.526 14.4236 11.5275C14.3751 11.5289 14.3276 11.5419 14.285 11.5652C14.1737 11.6407 14.0902 11.7508 14.0473 11.8783C13.9403 11.8474 13.7228 11.8093 13.617 11.9748C13.491 12.17 13.5849 12.4308 13.6479 12.5629C13.5935 12.5692 13.5423 12.5921 13.5012 12.6285C13.4602 12.665 13.4313 12.7131 13.4185 12.7665C13.4052 12.9084 13.4432 13.0503 13.5255 13.1665C13.491 13.201 13.3674 13.7416 13.7026 13.8809C14.0378 14.0201 14.2826 13.5297 14.279 13.4797H14.2862C14.4216 13.4524 14.5417 13.3751 14.6225 13.2629C14.6477 13.2127 14.6576 13.1561 14.6511 13.1003C14.6445 13.0444 14.6218 12.9918 14.5857 12.9487C14.7176 12.907 14.9553 12.7844 14.9898 12.5498V12.545ZM15.9966 9.76629C15.8887 9.99675 15.8188 10.2432 15.7897 10.4961C15.7695 10.6587 15.7636 10.8229 15.7719 10.9866C15.7728 10.9933 15.7752 10.9996 15.7791 11.0051C15.783 11.0105 15.7882 11.0149 15.7942 11.0179C15.8002 11.0208 15.8069 11.0222 15.8135 11.0219C15.8202 11.0217 15.8268 11.0198 15.8325 11.0164C15.9653 10.9244 16.0891 10.8199 16.2021 10.7045C16.3813 10.526 16.5298 10.3193 16.6419 10.0925C16.7501 9.86207 16.8204 9.6156 16.8499 9.36266C16.8699 9.20001 16.8755 9.03586 16.8666 8.87218C16.8659 8.86543 16.8636 8.85896 16.8598 8.85336C16.8559 8.84775 16.8507 8.84317 16.8448 8.84008C16.8387 8.83699 16.832 8.83551 16.8252 8.83568C16.8184 8.83591 16.8118 8.83779 16.806 8.84123C16.6735 8.93363 16.5497 9.03804 16.4363 9.15315C16.2568 9.33348 16.1082 9.54225 15.9966 9.77104V9.76629ZM16.0275 7.76495C15.9652 8.00169 15.9415 8.2469 15.9573 8.4912C15.9659 8.64813 15.989 8.80398 16.0262 8.95668C16.028 8.96286 16.0314 8.96852 16.0359 8.97304C16.0405 8.97762 16.0461 8.98094 16.0522 8.98271C16.0584 8.98449 16.065 8.98466 16.0712 8.98323C16.0774 8.9818 16.0832 8.97882 16.0881 8.97459C16.197 8.8648 16.2957 8.74522 16.3828 8.61741C16.6651 8.21447 16.799 7.72599 16.762 7.23516C16.753 7.07788 16.7303 6.92175 16.6942 6.76842C16.692 6.76242 16.6885 6.75704 16.6838 6.75269C16.6791 6.74834 16.6735 6.74514 16.6673 6.74342C16.6611 6.74165 16.6546 6.74142 16.6484 6.74268C16.6422 6.74388 16.6362 6.74662 16.6312 6.75057C16.5225 6.86054 16.4238 6.98005 16.3365 7.10775C16.1981 7.31045 16.0937 7.53444 16.0275 7.7709V7.76495ZM12.8872 3.55155C12.6573 3.50185 12.4206 3.49139 12.1872 3.5206C12.0371 3.53786 11.8891 3.56936 11.745 3.61465C11.7391 3.61717 11.7338 3.62107 11.7298 3.62602C11.7256 3.63097 11.7227 3.63684 11.7214 3.64312C11.72 3.64941 11.7201 3.65594 11.7217 3.66217C11.7233 3.6684 11.7264 3.67415 11.7307 3.67894C11.8428 3.78383 11.9641 3.87827 12.0932 3.9611C12.2924 4.08829 12.5113 4.18125 12.741 4.23612C12.971 4.28582 13.2077 4.29629 13.4411 4.26708C13.5911 4.24981 13.7391 4.21832 13.8832 4.17302C13.8892 4.17066 13.8944 4.16689 13.8985 4.16205C13.9026 4.15721 13.9055 4.15143 13.9069 4.14522C13.9083 4.13902 13.9082 4.13256 13.9066 4.12641C13.9049 4.12026 13.9018 4.1146 13.8975 4.10992C13.7878 4.00626 13.6684 3.91336 13.5409 3.83252C13.3407 3.70217 13.1195 3.60714 12.8872 3.55155ZM14.2077 4.0504C14.2756 4.18603 14.3552 4.31549 14.4454 4.43733C14.4496 4.44206 14.455 4.44566 14.4609 4.44781C14.4669 4.44997 14.4733 4.4506 14.4795 4.44965C14.4858 4.44871 14.4917 4.44621 14.4967 4.4424C14.5018 4.43859 14.5058 4.43357 14.5084 4.4278C14.5632 4.28331 14.6054 4.13433 14.6344 3.98254C14.6804 3.74723 14.6885 3.50605 14.6582 3.2682C14.6246 3.03115 14.5527 2.80115 14.4454 2.58719C14.3785 2.44951 14.299 2.31837 14.2077 2.1955C14.2036 2.19073 14.1984 2.18706 14.1925 2.18482C14.1866 2.18258 14.1802 2.18183 14.174 2.18266C14.1677 2.18349 14.1618 2.18586 14.1567 2.18955C14.1516 2.19325 14.1475 2.19816 14.1447 2.20383C14.0878 2.34891 14.0437 2.4987 14.0128 2.65148C13.9674 2.88687 13.9594 3.12794 13.989 3.36583C14.0248 3.60428 14.0987 3.83542 14.2077 4.0504ZM13.2272 3.17057C13.313 3.30393 13.4104 3.42943 13.5183 3.5456C13.5233 3.54984 13.5292 3.55282 13.5355 3.5543C13.5419 3.55577 13.5485 3.55568 13.5548 3.55404C13.5611 3.55241 13.5669 3.54927 13.5717 3.5449C13.5765 3.54052 13.5803 3.53505 13.5825 3.52893C13.6238 3.37296 13.6508 3.21356 13.6633 3.05271C13.7111 2.55339 13.5852 2.05288 13.3068 1.63594C13.2223 1.50401 13.126 1.38008 13.0192 1.26567C13.0145 1.2611 13.0086 1.25782 13.0023 1.25616C12.9959 1.2545 12.9893 1.2545 12.9829 1.25618C12.9766 1.25786 12.9708 1.26115 12.9661 1.26573C12.9614 1.27031 12.958 1.27604 12.9561 1.28234C12.9147 1.43827 12.8877 1.59768 12.8753 1.75857C12.8537 2.00675 12.8722 2.25679 12.93 2.49909C12.992 2.73741 13.0919 2.96416 13.226 3.17057H13.2272ZM15.6519 6.60537C15.6744 6.75675 15.7106 6.90579 15.76 7.05059C15.7625 7.05632 15.7663 7.06135 15.7711 7.06524C15.776 7.06913 15.7817 7.07182 15.7878 7.07296C15.7939 7.07417 15.8001 7.07382 15.8061 7.07199C15.812 7.07016 15.8174 7.0669 15.8218 7.06249C15.9179 6.94429 16.003 6.81757 16.0762 6.68392C16.3122 6.26576 16.3963 5.77851 16.3139 5.30525C16.2914 5.15347 16.2551 5.00405 16.2057 4.85879C16.2032 4.85316 16.1993 4.84826 16.1944 4.84448C16.1895 4.84071 16.1837 4.83819 16.1776 4.83713C16.1715 4.83608 16.1653 4.83652 16.1595 4.83843C16.1535 4.84033 16.1482 4.84364 16.1439 4.84807C16.0479 4.96591 15.9628 5.09224 15.8896 5.22548C15.6528 5.64386 15.5668 6.13102 15.6459 6.60537H15.6519ZM15.2775 5.57432C15.281 5.57948 15.2856 5.58369 15.2911 5.58662C15.2966 5.58953 15.3027 5.59106 15.309 5.59106C15.3152 5.59106 15.3213 5.58953 15.3267 5.58662C15.3323 5.58369 15.337 5.57948 15.3404 5.57432C15.4137 5.43938 15.4742 5.29788 15.5211 5.15166C15.6777 4.70009 15.6747 4.20837 15.5128 3.75871C15.463 3.61512 15.401 3.4761 15.3274 3.3432C15.3239 3.33804 15.3192 3.33382 15.3137 3.3309C15.3082 3.32799 15.3021 3.32646 15.2959 3.32646C15.2896 3.32646 15.2836 3.32799 15.278 3.3309C15.2726 3.33382 15.2678 3.33804 15.2644 3.3432C15.1914 3.47661 15.131 3.61651 15.0837 3.76109C14.9256 4.2124 14.9285 4.70466 15.092 5.15404C15.141 5.29947 15.2031 5.44014 15.2775 5.57432ZM13.4732 4.59925C13.3247 4.58872 13.1755 4.59191 13.0275 4.60877C13.0212 4.61009 13.0155 4.61288 13.0106 4.61693C13.0057 4.62097 13.0019 4.62614 12.9994 4.63199C12.997 4.63784 12.996 4.6442 12.9965 4.65052C12.997 4.65685 12.9991 4.66294 13.0025 4.6683C13.0933 4.78912 13.1947 4.90149 13.3056 5.00404C13.6432 5.33093 14.0871 5.52495 14.556 5.5505C14.7046 5.56102 14.8537 5.55784 15.0017 5.54098C15.0079 5.53967 15.0137 5.53686 15.0186 5.53282C15.0234 5.52878 15.0273 5.52361 15.0297 5.51776C15.0322 5.51191 15.0332 5.50555 15.0327 5.49923C15.0321 5.49291 15.0301 5.4868 15.0267 5.48145C14.9356 5.3627 14.8342 5.25234 14.7236 5.15166C14.5539 4.99135 14.3586 4.86057 14.1459 4.76473C13.9326 4.67193 13.7052 4.61597 13.4732 4.59925ZM4.07033 3.10033C4.21357 3.14238 4.36039 3.17108 4.50892 3.18605C4.97408 3.24172 5.44363 3.12667 5.8306 2.86221C5.95812 2.78101 6.07753 2.68772 6.18722 2.58362C6.19124 2.57884 6.19412 2.57318 6.19562 2.56708C6.19711 2.56099 6.19717 2.55463 6.19579 2.54851C6.19441 2.54239 6.19159 2.53668 6.18762 2.53182C6.18365 2.52696 6.17865 2.52309 6.17295 2.52053C6.03008 2.47843 5.88369 2.44974 5.73553 2.4348C5.26883 2.37839 4.79753 2.49345 4.40907 2.75864C4.28186 2.84023 4.16249 2.9335 4.0525 3.03723C4.04826 3.04215 4.04531 3.04805 4.04391 3.05439C4.04251 3.06074 4.0427 3.06733 4.04447 3.07359C4.04623 3.07983 4.04952 3.08555 4.05403 3.09022C4.05855 3.09489 4.06414 3.09836 4.07033 3.10033ZM3.07906 15.0131C3.19078 14.6691 2.6999 14.4107 2.65235 14.4178V14.4107C2.61677 14.2718 2.53237 14.1505 2.41464 14.069C2.36575 14.0439 2.31037 14.0345 2.25597 14.0419C2.20157 14.0494 2.15075 14.0734 2.11036 14.1107C2.05212 13.9785 1.91662 13.7368 1.68604 13.7047C1.49111 13.6785 1.37939 13.8678 1.32946 13.9701C1.20456 13.9187 1.06601 13.9107 0.936046 13.9475C0.890393 13.9649 0.849485 13.9929 0.816647 14.0291C0.783809 14.0652 0.759967 14.1087 0.74706 14.1559C0.73123 14.2023 0.725685 14.2515 0.730822 14.3003C0.735953 14.349 0.751633 14.396 0.776774 14.438C0.856721 14.5496 0.969897 14.633 1.10007 14.6761C1.0763 14.7869 1.05371 15.0083 1.21893 15.1155C1.41861 15.2405 1.66583 15.1405 1.78944 15.0738C1.79825 15.1302 1.8233 15.1828 1.86153 15.225C1.89974 15.2673 1.94946 15.2975 2.00458 15.3119C2.14257 15.322 2.27926 15.2794 2.3873 15.1929H2.39324C2.44078 15.225 2.96614 15.3583 3.07906 15.0131ZM0.525984 8.70312C0.614437 8.83099 0.714291 8.9505 0.82432 9.06029C0.829232 9.06453 0.835117 9.0675 0.841455 9.06887C0.847788 9.0703 0.854368 9.07008 0.860609 9.06836C0.866856 9.06659 0.872562 9.06327 0.877221 9.05875C0.88188 9.05423 0.885348 9.04862 0.88731 9.04244C0.921229 8.88888 0.942299 8.73275 0.950306 8.5757C0.963086 8.33141 0.936599 8.0866 0.87186 7.85065C0.802307 7.61717 0.695545 7.39644 0.555698 7.19706C0.466929 7.06913 0.366671 6.94956 0.256176 6.83988C0.251297 6.83559 0.245412 6.83267 0.239077 6.8313C0.232742 6.82998 0.226169 6.83027 0.219978 6.83216C0.213789 6.8341 0.208187 6.83754 0.203705 6.84223C0.199224 6.84692 0.196011 6.85264 0.19437 6.85893C0.159231 7.01186 0.138144 7.16765 0.131376 7.32447C0.0999433 7.81587 0.23938 8.30303 0.525984 8.70312ZM4.53982 15.9286C4.47632 15.8012 4.36978 15.7004 4.23911 15.6441C4.18605 15.6297 4.12986 15.632 4.07818 15.6508C4.0265 15.6695 3.98184 15.7038 3.95028 15.7489C3.86589 15.6298 3.68166 15.4239 3.44989 15.4405C3.25496 15.4548 3.18484 15.6631 3.16107 15.7727C3.02785 15.7499 2.89086 15.7716 2.77121 15.8346C2.73072 15.8605 2.69685 15.8955 2.67229 15.9368C2.64773 15.9782 2.63316 16.0247 2.62977 16.0727C2.62284 16.1221 2.62703 16.1725 2.64205 16.2201C2.65706 16.2676 2.68251 16.3113 2.71654 16.3477C2.81757 16.4413 2.94584 16.5002 3.08262 16.5156C3.08262 16.6287 3.10758 16.8513 3.29419 16.9192C3.51526 17.0013 3.73752 16.8513 3.8445 16.7608C3.86407 16.8149 3.89929 16.8619 3.94565 16.8959C3.99201 16.9298 4.04742 16.9491 4.1048 16.9513C4.24378 16.9347 4.37126 16.8657 4.46138 16.7584C4.50297 16.7834 5.05566 16.8025 5.08894 16.4418C5.12222 16.0811 4.58618 15.9262 4.53982 15.9393V15.9286ZM0.283513 10.1842C0.397658 10.4104 0.548701 10.6161 0.730419 10.7926C0.844291 10.9081 0.968861 11.0126 1.10245 11.1045C1.10829 11.1079 1.11491 11.1098 1.12168 11.11C1.12846 11.1102 1.13517 11.1087 1.1412 11.1056C1.14724 11.1025 1.1524 11.098 1.15623 11.0924C1.16005 11.0868 1.1624 11.0803 1.16307 11.0735C1.1704 10.9097 1.16284 10.7455 1.14048 10.583C1.08208 10.074 0.847892 9.60152 0.478441 9.24721C0.364008 9.13324 0.239043 9.03037 0.105226 8.94003C0.0994153 8.93689 0.0929184 8.93517 0.086306 8.93511C0.0796941 8.93505 0.0731679 8.93666 0.0673009 8.93969C0.0614345 8.94278 0.0564057 8.94718 0.0526566 8.95268C0.0489074 8.95811 0.0465521 8.96441 0.0457975 8.97098C0.0368744 9.13473 0.0428421 9.29887 0.0636265 9.46152C0.0973014 9.71429 0.171555 9.9599 0.283513 10.1889V10.1842ZM1.22249 12.9129C1.37382 13.0013 1.53297 13.0754 1.69792 13.1344C1.70517 13.136 1.71269 13.1358 1.71986 13.1339C1.72702 13.1319 1.73361 13.1283 1.73909 13.1233C1.74456 13.1183 1.74875 13.112 1.75131 13.105C1.75387 13.0981 1.75472 13.0906 1.75379 13.0832C1.7161 12.9075 1.6632 12.7354 1.59571 12.5689C1.49248 12.3089 1.34754 12.0677 1.16663 11.8545C0.984248 11.65 0.769395 11.477 0.530738 11.3426C0.379454 11.2545 0.220285 11.1808 0.0553063 11.1223C0.0481832 11.1205 0.040697 11.1203 0.0335359 11.1221C0.0263748 11.1239 0.0197686 11.1274 0.0143246 11.1324C0.00888058 11.1373 0.00477367 11.1436 0.00238095 11.1506C-1.17642e-05 11.1576 -0.000613292 11.1651 0.000631704 11.1723C0.0375983 11.3482 0.0905112 11.5204 0.158713 11.6867C0.359375 12.2104 0.738219 12.6464 1.22844 12.9177L1.22249 12.9129ZM5.34449 14.856C5.41123 14.73 5.43063 14.5843 5.39916 14.4452C5.37926 14.3937 5.34411 14.3496 5.29842 14.3187C5.25274 14.2878 5.19871 14.2718 5.14362 14.2726C5.18997 14.1345 5.24821 13.8642 5.09845 13.6856C4.97128 13.5356 4.76208 13.6011 4.65986 13.6475C4.60056 13.5257 4.50223 13.4271 4.38055 13.3678C4.33528 13.3502 4.28654 13.3435 4.23823 13.3483C4.18993 13.3531 4.14341 13.3691 4.10242 13.3951C4.05856 13.4188 4.02046 13.4519 3.99087 13.492C3.96128 13.5321 3.94093 13.5784 3.93127 13.6273C3.91523 13.7642 3.94312 13.9026 4.0109 14.0226C3.91938 14.0892 3.75536 14.2392 3.81003 14.4309C3.87421 14.6583 4.12619 14.75 4.26169 14.7881C4.23096 14.8351 4.21459 14.8902 4.21459 14.9464C4.21459 15.0027 4.23096 15.0577 4.26169 15.1048C4.35508 15.2042 4.48232 15.265 4.61827 15.275C4.61827 15.3238 4.92967 15.7786 5.24346 15.5965C5.55725 15.4143 5.36232 14.8952 5.32547 14.8655L5.34449 14.856ZM10.642 14.6761L11.5441 17.043C9.57927 17.7899 7.41153 17.8021 5.43839 17.0775L6.31319 14.6964C7.71138 15.2126 9.24864 15.2054 10.642 14.6761ZM16.882 11.0271C16.7168 11.0873 16.5576 11.163 16.4066 11.2533C16.1673 11.3921 15.9528 11.57 15.7719 11.7795C15.5939 11.9932 15.4517 12.2344 15.3511 12.4939C15.2848 12.6611 15.2339 12.834 15.199 13.0106C15.198 13.0179 15.1988 13.0254 15.2014 13.0323C15.2039 13.0393 15.2081 13.0455 15.2137 13.0505C15.2192 13.0554 15.2258 13.0589 15.233 13.0606C15.2402 13.0624 15.2477 13.0624 15.2548 13.0606C15.4199 12.9999 15.5791 12.9242 15.7303 12.8344C15.9696 12.6956 16.1841 12.5177 16.365 12.3081C16.5427 12.0944 16.6844 11.8532 16.7846 11.5938C16.851 11.4265 16.9023 11.2536 16.9379 11.0771C16.9387 11.0701 16.9379 11.0631 16.9356 11.0564C16.9332 11.0498 16.9293 11.0438 16.9242 11.039C16.9192 11.0341 16.913 11.0305 16.9063 11.0285C16.8996 11.0264 16.8925 11.0259 16.8856 11.0271H16.882ZM16.0239 13.8594C15.8931 13.8242 15.7543 13.8334 15.6292 13.8856C15.5829 13.7844 15.4688 13.5963 15.2727 13.6249C15.0421 13.6594 14.909 13.9023 14.8519 14.0357C14.811 13.9989 14.7598 13.9755 14.7052 13.9687C14.6505 13.9618 14.5952 13.9719 14.5465 13.9975C14.4314 14.0811 14.35 14.2032 14.3171 14.3416V14.3476C14.2695 14.3476 13.781 14.6095 13.8975 14.9524C14.014 15.2952 14.5441 15.1571 14.5786 15.1226C14.6879 15.2069 14.825 15.2469 14.9625 15.2345C15.0172 15.2198 15.0664 15.1894 15.1041 15.1471C15.1419 15.1048 15.1666 15.0525 15.1752 14.9964C15.2941 15.0619 15.5484 15.1595 15.7469 15.031C15.9133 14.9226 15.8896 14.7011 15.8658 14.5904C15.9958 14.545 16.1079 14.4591 16.1855 14.3452C16.2107 14.3022 16.226 14.2541 16.2303 14.2045C16.2346 14.1549 16.2279 14.1049 16.2105 14.0583C16.1964 14.0137 16.1727 13.9728 16.1411 13.9384C16.1094 13.9041 16.0707 13.8771 16.0275 13.8594H16.0239ZM14.2184 15.7751C14.0981 15.7128 13.9604 15.6927 13.8274 15.7179C13.8024 15.6084 13.7299 15.4012 13.535 15.3881C13.2973 15.3738 13.1214 15.5834 13.037 15.7024C13.0048 15.6578 12.9598 15.6241 12.9079 15.6058C12.8561 15.5875 12.8 15.5855 12.747 15.6001C12.6173 15.6585 12.5125 15.7609 12.451 15.8893V15.8953C12.4046 15.8822 11.8722 16.0381 11.915 16.3989C11.9578 16.7596 12.5033 16.7334 12.5449 16.7072C12.6353 16.8136 12.7629 16.8813 12.9015 16.8966C12.9576 16.8939 13.0118 16.8749 13.0574 16.8419C13.103 16.8089 13.138 16.7634 13.1582 16.7108C13.2664 16.8013 13.4887 16.949 13.7097 16.8644C13.8951 16.7942 13.9177 16.5715 13.9165 16.4584C14.0531 16.4417 14.1808 16.3811 14.2802 16.2858C14.3138 16.2491 14.3389 16.2054 14.3535 16.1578C14.3681 16.1103 14.3719 16.0601 14.3646 16.0108C14.3604 15.9632 14.3453 15.9172 14.3206 15.8763C14.2959 15.8355 14.2621 15.8008 14.222 15.7751H14.2184ZM12.344 15.2321H12.3511C12.4876 15.2211 12.6149 15.159 12.7078 15.0583C12.738 15.0111 12.7542 14.9561 12.7542 14.9C12.7542 14.8438 12.738 14.7889 12.7078 14.7417C12.8432 14.7071 13.0929 14.613 13.1558 14.3845C13.2081 14.1928 13.037 14.044 12.949 13.9785C13.0153 13.8577 13.0416 13.7188 13.0239 13.582C13.0143 13.5332 12.9938 13.4872 12.964 13.4475C12.9341 13.4076 12.8957 13.3751 12.8516 13.3522C12.8103 13.3263 12.7634 13.3105 12.7149 13.3062C12.6664 13.3018 12.6175 13.3091 12.5722 13.3272C12.456 13.3886 12.3626 13.4859 12.306 13.6047C12.2038 13.5606 11.9922 13.4975 11.8674 13.6487C11.72 13.8285 11.7818 14.0988 11.8282 14.2357C11.7734 14.2356 11.7199 14.2523 11.6748 14.2836C11.6298 14.3149 11.5954 14.3592 11.5762 14.4107C11.5458 14.5502 11.5665 14.6959 11.6344 14.8214V14.8274C11.5976 14.8571 11.4098 15.3798 11.726 15.5584C12.0421 15.737 12.344 15.2821 12.3476 15.2321H12.344ZM3.27279 3.58608C3.27505 3.59219 3.27876 3.59767 3.28359 3.60205C3.28842 3.60642 3.29424 3.60955 3.30054 3.61119C3.30685 3.61282 3.31345 3.61292 3.31979 3.61144C3.32614 3.60997 3.33203 3.60699 3.33697 3.60274C3.44413 3.48585 3.54004 3.35909 3.62342 3.22415C3.89761 2.80451 4.01699 2.30218 3.96098 1.80381C3.9462 1.64289 3.91757 1.48356 3.87541 1.32758C3.87325 1.32136 3.86956 1.31579 3.8647 1.31136C3.85982 1.30694 3.85392 1.30382 3.84753 1.30228C3.84114 1.30073 3.83447 1.30083 3.82812 1.30255C3.82178 1.30426 3.81596 1.30755 3.81122 1.3121C3.70272 1.43175 3.60563 1.56129 3.5212 1.69904C3.24862 2.118 3.12973 2.61878 3.18484 3.11581C3.19931 3.27498 3.22876 3.43244 3.27279 3.58608ZM1.81797 7.21611C2.03545 7.12497 2.23629 6.99824 2.41226 6.84108C2.58499 6.6794 2.72996 6.49037 2.84134 6.28149C2.91194 6.14824 2.97118 6.00925 3.01844 5.86601C3.01981 5.85989 3.0197 5.85352 3.01811 5.84745C3.01652 5.84139 3.01351 5.83579 3.00932 5.83112C3.00513 5.82646 2.99989 5.82287 2.99403 5.82065C2.98817 5.81844 2.98187 5.81766 2.97565 5.81838C2.82941 5.85092 2.68655 5.89716 2.54895 5.95649C2.33151 6.04771 2.13068 6.17444 1.95466 6.33149C1.7826 6.49352 1.63808 6.68249 1.52677 6.89109C1.45326 7.02519 1.39238 7.16593 1.34491 7.31137C1.3433 7.31738 1.3432 7.32373 1.34462 7.32985C1.34604 7.33591 1.34893 7.34158 1.35304 7.34627C1.35715 7.35096 1.36235 7.35462 1.36819 7.35679C1.37403 7.35903 1.38032 7.35977 1.38652 7.35897C1.53453 7.32516 1.679 7.27733 1.81797 7.21611ZM1.65157 11.6902C1.65439 11.6965 1.65869 11.7021 1.6641 11.7063C1.6695 11.7106 1.67586 11.7135 1.68263 11.7148C1.6894 11.7161 1.69638 11.7157 1.70297 11.7137C1.70957 11.7117 1.71558 11.7081 1.72051 11.7033C1.82501 11.5729 1.91769 11.4335 1.99745 11.2867C2.12395 11.0576 2.21266 10.8095 2.26012 10.552C2.30186 10.293 2.30186 10.0289 2.26012 9.76984C2.23592 9.60375 2.19612 9.44035 2.14126 9.2817C2.1386 9.27547 2.13443 9.26992 2.12913 9.26563C2.12383 9.26134 2.11756 9.25842 2.11087 9.2571C2.10418 9.25584 2.09727 9.25619 2.09076 9.25819C2.08425 9.26019 2.07832 9.2638 2.07352 9.2686C1.96824 9.3987 1.87514 9.53819 1.79539 9.68534C1.53635 10.1452 1.44397 10.6806 1.5339 11.2009C1.55847 11.3672 1.59786 11.531 1.65157 11.6902ZM1.11909 9.40557C1.11928 9.41221 1.12111 9.41873 1.12442 9.42451C1.12773 9.43029 1.13242 9.43515 1.13806 9.43869C1.14371 9.44224 1.15013 9.4443 1.15678 9.44476C1.16342 9.44522 1.17007 9.44402 1.17614 9.44127C1.31508 9.36466 1.44642 9.27495 1.56837 9.1734C1.96181 8.85885 2.23267 8.41608 2.33381 7.92211C2.37038 7.76581 2.39188 7.6063 2.398 7.44587C2.39802 7.43924 2.39637 7.43272 2.3932 7.42694C2.39003 7.4211 2.38545 7.41618 2.37988 7.41263C2.3743 7.40909 2.36792 7.40697 2.36132 7.40651C2.35472 7.40611 2.34812 7.40737 2.34213 7.41017C2.20302 7.48712 2.07132 7.57678 1.94871 7.67804C1.7559 7.83532 1.59007 8.02309 1.45783 8.23403C1.33004 8.44972 1.23736 8.68441 1.18327 8.92933C1.14803 9.08587 1.12656 9.2452 1.11909 9.40557ZM0.812431 6.76962C0.886539 6.90241 0.972888 7.028 1.07035 7.14465C1.0746 7.14934 1.07998 7.15289 1.08598 7.15489C1.09198 7.15689 1.09839 7.1573 1.1046 7.15609C1.1108 7.15489 1.1166 7.15215 1.12143 7.14803C1.12625 7.14396 1.12995 7.1387 1.13216 7.13275C1.18013 6.98743 1.21475 6.83799 1.23557 6.68632C1.31063 6.21135 1.21907 5.72498 0.976454 5.31001C0.902472 5.17686 0.815692 5.05125 0.717345 4.93498C0.713094 4.9303 0.707716 4.92678 0.701717 4.92478C0.695723 4.92277 0.68931 4.92235 0.683104 4.92355C0.676897 4.92474 0.671099 4.92752 0.666273 4.93161C0.661442 4.93569 0.657749 4.94096 0.65554 4.94689C0.607747 5.091 0.573523 5.23928 0.553321 5.38978C0.518265 5.6269 0.521878 5.86815 0.564018 6.10413C0.610013 6.33807 0.693929 6.56286 0.812431 6.76962ZM5.10321 2.04073C5.50095 2.04575 5.89508 1.96452 6.25849 1.80261C6.6204 1.62478 6.93981 1.371 7.19508 1.05851C7.19893 1.05408 7.20141 1.04865 7.20227 1.04284C7.20319 1.03704 7.20238 1.03112 7.20003 1.02576C7.19761 1.02039 7.19381 1.01581 7.18892 1.01254C7.18409 1.00928 7.1784 1.00747 7.17253 1.00732C6.77426 1.00102 6.37951 1.0823 6.01604 1.24543C5.6562 1.42227 5.33842 1.67439 5.08419 1.98477C5.07952 1.98898 5.07618 1.99447 5.07459 2.00056C5.07301 2.00665 5.07324 2.01307 5.07527 2.01904C5.07729 2.02499 5.08102 2.03023 5.08599 2.03408C5.09095 2.03794 5.09694 2.04025 5.10321 2.04073ZM1.87265 5.61241C2.02086 5.62714 2.17015 5.62714 2.31836 5.61241C2.54958 5.59498 2.7762 5.53863 2.98872 5.44574C3.20065 5.34781 3.39469 5.21501 3.56281 5.05285C3.6746 4.95169 3.77649 4.84006 3.86708 4.71949C3.87052 4.71424 3.8726 4.70821 3.87315 4.70195C3.8737 4.69569 3.87269 4.68939 3.87022 4.68362C3.86775 4.67784 3.86389 4.67277 3.85899 4.66886C3.85408 4.66494 3.84829 4.66229 3.84212 4.66115C3.69389 4.64689 3.54464 4.64689 3.3964 4.66115C2.92769 4.69178 2.48578 4.89091 2.15196 5.22191C2.04007 5.32333 1.93781 5.43493 1.8465 5.55527C1.84309 5.5607 1.84107 5.56689 1.8406 5.57329C1.84013 5.57969 1.84124 5.5861 1.84382 5.59198C1.8464 5.59785 1.85037 5.603 1.8554 5.60698C1.86042 5.61095 1.86635 5.61364 1.87265 5.61479V5.61241ZM1.5339 5.64932C1.53739 5.65448 1.54208 5.6587 1.54757 5.66162C1.55306 5.66454 1.55918 5.66607 1.5654 5.66607C1.57162 5.66607 1.57774 5.66454 1.58323 5.66162C1.58872 5.6587 1.59341 5.65448 1.5969 5.64932C1.66987 5.51591 1.73034 5.37602 1.77756 5.23144C1.93601 4.78147 1.93348 4.29036 1.77043 3.84205C1.72147 3.69834 1.65981 3.55928 1.5862 3.42654C1.58271 3.42139 1.57802 3.41716 1.57253 3.41425C1.56704 3.41133 1.56092 3.4098 1.5547 3.4098C1.54848 3.4098 1.54236 3.41133 1.53687 3.41425C1.53138 3.41716 1.52669 3.42139 1.5232 3.42654C1.45014 3.55908 1.38965 3.69819 1.34254 3.84205C1.18324 4.29309 1.18576 4.78563 1.34967 5.23501C1.39857 5.37912 1.46022 5.51858 1.5339 5.6517V5.64932ZM2.97565 4.23017C3.12029 4.27386 3.26873 4.30375 3.41899 4.31946C3.89126 4.37781 4.36868 4.26322 4.76327 3.99682C4.89072 3.91465 5.01011 3.82057 5.11985 3.71585C5.1239 3.71096 5.12678 3.7052 5.12827 3.69903C5.12976 3.69285 5.12982 3.68641 5.12844 3.6802C5.12706 3.674 5.12429 3.66819 5.12033 3.66323C5.11636 3.65826 5.11132 3.65427 5.10558 3.65156C4.96053 3.6079 4.8117 3.57801 4.66106 3.56227C4.18916 3.5041 3.71218 3.61869 3.31796 3.88491C3.19051 3.96708 3.07112 4.06116 2.96138 4.16588C2.95709 4.17067 2.954 4.17642 2.95237 4.18265C2.95074 4.18888 2.95062 4.19541 2.95201 4.2017C2.95341 4.20799 2.95628 4.21385 2.96039 4.2188C2.9645 4.22375 2.96973 4.22765 2.97565 4.23017ZM4.36034 2.486C4.4759 2.389 4.58216 2.28138 4.6777 2.16454C4.82856 1.9828 4.94898 1.77774 5.03427 1.55736C5.11486 1.33542 5.15862 1.10176 5.16382 0.865643C5.16945 0.713203 5.16109 0.560568 5.13887 0.409657C5.13757 0.40358 5.13482 0.397912 5.13084 0.393146C5.12686 0.38838 5.12178 0.38466 5.11604 0.382312C5.1103 0.379964 5.10406 0.379059 5.09789 0.379675C5.09172 0.380291 5.08579 0.38241 5.08062 0.385847C4.96536 0.483178 4.85915 0.590768 4.76327 0.707298C4.45548 1.07193 4.28365 1.53231 4.27714 2.00977C4.27156 2.16222 4.27991 2.31485 4.3021 2.46576C4.30383 2.47153 4.30691 2.47681 4.31108 2.48116C4.31524 2.48551 4.32038 2.48881 4.32606 2.49079C4.33174 2.49276 4.33782 2.49336 4.34378 2.49253C4.34974 2.49169 4.35541 2.48945 4.36034 2.486ZM2.35046 4.50043C2.35308 4.50619 2.3571 4.51121 2.36215 4.51502C2.3672 4.51884 2.37312 4.52133 2.37938 4.52228C2.38563 4.52322 2.39202 4.52259 2.39797 4.52044C2.40392 4.51829 2.40924 4.51469 2.41345 4.50995C2.50425 4.38553 2.5838 4.25325 2.65116 4.11468C2.75823 3.89957 2.82931 3.6683 2.86155 3.43012C2.88932 3.19183 2.87848 2.9506 2.82945 2.71578C2.79942 2.56408 2.75566 2.41544 2.69871 2.2717C2.69576 2.26623 2.69156 2.26155 2.68646 2.25802C2.68135 2.2545 2.67548 2.25223 2.66933 2.25142C2.66319 2.25061 2.65694 2.25127 2.65109 2.25334C2.64524 2.25542 2.63997 2.25885 2.63571 2.26336C2.54456 2.38755 2.46498 2.51986 2.398 2.65863C2.29145 2.87395 2.2204 3.10513 2.18762 3.3432C2.16044 3.58151 2.17127 3.82264 2.21971 4.05754C2.24939 4.20894 2.29316 4.35721 2.35046 4.50043ZM7.06434 16.7251H6.98352V15.5965C6.98352 15.5794 6.97679 15.563 6.96471 15.551C6.95269 15.539 6.93636 15.5322 6.91933 15.5322H6.86469C6.85376 15.532 6.843 15.5346 6.8334 15.5398C6.82385 15.545 6.81579 15.5526 6.80998 15.562C6.70392 15.7251 6.56604 15.8652 6.4047 15.9739C6.3909 15.9831 6.38129 15.9974 6.37795 16.0137C6.37462 16.03 6.37784 16.0469 6.38687 16.0608L6.43323 16.1358C6.43754 16.1432 6.44341 16.1498 6.45037 16.1549C6.45727 16.16 6.46521 16.1636 6.47367 16.1656C6.48201 16.1673 6.49058 16.1673 6.49898 16.1657C6.50732 16.1641 6.51531 16.1608 6.52239 16.1561C6.57507 16.1224 6.62586 16.0858 6.67453 16.0465V16.7263H6.55563C6.5435 16.7254 6.5313 16.7272 6.51991 16.7314C6.50847 16.7356 6.49811 16.7423 6.48943 16.7508C6.4808 16.7594 6.47407 16.7697 6.4697 16.781C6.46533 16.7924 6.46343 16.8046 6.46412 16.8168V16.8585C6.46343 16.8708 6.46533 16.8831 6.46976 16.8945C6.47418 16.906 6.48103 16.9164 6.48983 16.9249C6.49863 16.9335 6.50916 16.9401 6.52072 16.9443C6.53228 16.9484 6.54459 16.95 6.55684 16.949L6.81832 16.9418L7.06675 16.949C7.07889 16.9498 7.09108 16.9481 7.10247 16.9439C7.11392 16.9396 7.12427 16.933 7.13296 16.9245C7.14159 16.9159 7.14837 16.9056 7.15269 16.8942C7.15706 16.8828 7.15896 16.8706 7.15827 16.8585V16.8192C7.15936 16.8066 7.15769 16.7939 7.15332 16.782C7.14901 16.7701 7.1421 16.7592 7.13319 16.7503C7.12421 16.7413 7.1134 16.7344 7.10155 16.7301C7.08965 16.7257 7.07699 16.7241 7.06434 16.7251ZM8.203 15.5893C8.19736 15.5791 8.18913 15.5704 8.17912 15.5644C8.16912 15.5584 8.15767 15.555 8.14599 15.5548H7.37575C7.35866 15.5551 7.34233 15.5621 7.33031 15.5744C7.31829 15.5866 7.31161 15.6031 7.31161 15.6203V15.9477C7.31092 15.9598 7.31276 15.9719 7.31708 15.9833C7.32133 15.9946 7.32795 16.005 7.33646 16.0136C7.34497 16.0222 7.35521 16.029 7.36649 16.0334C7.37776 16.0379 7.38984 16.0399 7.40192 16.0393H7.44351C7.45564 16.0401 7.46784 16.0382 7.47917 16.0338C7.49056 16.0294 7.50085 16.0227 7.50942 16.014C7.51794 16.0053 7.52455 15.9949 7.52875 15.9835C7.53301 15.9721 7.53473 15.9598 7.53387 15.9477V15.8512H7.95342C7.80208 16.1636 7.63016 16.4655 7.43879 16.7549C7.43148 16.7662 7.4278 16.7795 7.42809 16.793V16.8418C7.42821 16.8529 7.43137 16.8638 7.43724 16.8733C7.4431 16.8827 7.45144 16.8904 7.46134 16.8954L7.56832 16.9537C7.57764 16.9594 7.58834 16.9623 7.59921 16.9621H7.61825L7.66105 16.9478C7.66939 16.9453 7.67715 16.9412 7.68388 16.9356C7.69061 16.9301 7.69619 16.9233 7.70027 16.9156C7.90257 16.5283 8.08508 16.1309 8.247 15.7251C8.25108 15.717 8.25321 15.708 8.25321 15.6989C8.25321 15.6898 8.25108 15.6808 8.247 15.6727L8.203 15.5893ZM8.86861 15.9703C8.81259 15.9697 8.75679 15.9781 8.70342 15.9953L8.71291 15.8762C8.79372 15.8762 8.89835 15.8762 8.96134 15.8762C9.05354 15.8789 9.14321 15.8457 9.21149 15.7835C9.27976 15.7214 9.32129 15.6351 9.32745 15.5429C9.32975 15.528 9.32687 15.5128 9.31928 15.4998C9.31175 15.4867 9.2999 15.4768 9.2858 15.4715L9.22639 15.4512C9.21189 15.4462 9.19613 15.4464 9.18175 15.4518C9.16743 15.4573 9.15547 15.4676 9.14793 15.481C9.10042 15.5715 9.10042 15.5715 8.98866 15.5798C8.89835 15.5798 8.75099 15.5798 8.64043 15.5798H8.55962C8.54259 15.5798 8.52626 15.5866 8.51424 15.5986C8.50216 15.6107 8.49543 15.6271 8.49543 15.6441V15.6548L8.44314 16.2382C8.44188 16.2471 8.44262 16.2562 8.44533 16.2649C8.44797 16.2735 8.45252 16.2815 8.45856 16.2882C8.46477 16.2946 8.47213 16.2997 8.4803 16.3031C8.48847 16.3066 8.49727 16.3084 8.50612 16.3084H8.60834C8.61817 16.3084 8.62789 16.3061 8.63675 16.3018C8.64561 16.2974 8.65337 16.2912 8.65941 16.2834L8.67725 16.2584C8.70106 16.2192 8.75099 16.2001 8.84129 16.2001C8.9316 16.2001 9.01839 16.2287 9.01839 16.4382C9.01839 16.7144 8.90905 16.7525 8.79136 16.7525C8.75075 16.754 8.71032 16.7471 8.67253 16.7322C8.69933 16.6984 8.71394 16.6564 8.71412 16.6132C8.71653 16.5888 8.71365 16.5642 8.70577 16.541C8.69784 16.5178 8.68507 16.4966 8.66827 16.4788C8.65153 16.4609 8.63111 16.4469 8.60845 16.4377C8.58585 16.4284 8.56146 16.4242 8.53701 16.4251C8.51055 16.4253 8.48444 16.431 8.46028 16.4419C8.43618 16.4528 8.41461 16.4686 8.39695 16.4883C8.37924 16.508 8.36589 16.5313 8.35767 16.5564C8.34944 16.5817 8.34657 16.6083 8.34921 16.6346C8.34921 16.8299 8.53345 16.9716 8.78544 16.9716C8.85699 16.9753 8.92861 16.964 8.99556 16.9384C9.06257 16.9127 9.12343 16.8734 9.17433 16.8229C9.22529 16.7723 9.2651 16.7117 9.29121 16.6448C9.31738 16.5779 9.32929 16.5064 9.32624 16.4346C9.33176 16.3728 9.32377 16.3105 9.30283 16.252C9.28189 16.1936 9.24847 16.1404 9.20487 16.0962C9.16133 16.052 9.1087 16.0178 9.05061 15.9961C8.99257 15.9743 8.93045 15.9655 8.86861 15.9703ZM10.081 15.9703C10.0253 15.9695 9.96988 15.978 9.91697 15.9953L9.92525 15.8762C10.0049 15.8762 10.1119 15.8762 10.1737 15.8762C10.2659 15.8789 10.3556 15.8457 10.4238 15.7835C10.4921 15.7214 10.5336 15.6351 10.5398 15.5429C10.5423 15.528 10.5396 15.5126 10.532 15.4996C10.5244 15.4865 10.5124 15.4765 10.4981 15.4715L10.4387 15.4512C10.4242 15.4462 10.4085 15.4464 10.3941 15.4518C10.3798 15.4573 10.3678 15.4676 10.3603 15.481C10.314 15.5715 10.314 15.5715 10.201 15.5798C10.1107 15.5798 9.96333 15.5798 9.85278 15.5798H9.77196C9.75493 15.5798 9.7386 15.5866 9.72658 15.5986C9.71456 15.6107 9.70777 15.6271 9.70777 15.6441V15.6548L9.65548 16.2382C9.65422 16.2471 9.65496 16.2562 9.65767 16.2649C9.66031 16.2735 9.66486 16.2815 9.6709 16.2882C9.67711 16.2946 9.68447 16.2997 9.69264 16.3031C9.70081 16.3066 9.70961 16.3084 9.71847 16.3084H9.82068C9.83051 16.3084 9.84023 16.3061 9.84909 16.3018C9.85795 16.2974 9.86572 16.2912 9.87181 16.2834L9.88965 16.2584C9.9134 16.2192 9.96333 16.2001 10.0548 16.2001C10.1464 16.2001 10.2307 16.2287 10.2307 16.4382C10.2307 16.7144 10.1214 16.7525 10.0037 16.7525C9.96511 16.7532 9.92675 16.7464 9.8908 16.7322C9.9176 16.6984 9.93227 16.6564 9.93238 16.6132C9.9348 16.5888 9.93198 16.5642 9.92404 16.541C9.91616 16.5178 9.90339 16.4966 9.8866 16.4788C9.8698 16.4609 9.84944 16.4469 9.82678 16.4377C9.80411 16.4284 9.77972 16.4242 9.75534 16.4251C9.72893 16.4255 9.70294 16.4313 9.67895 16.4423C9.65502 16.4532 9.63357 16.4691 9.61602 16.4887C9.59848 16.5085 9.58519 16.5316 9.57703 16.5567C9.56892 16.5818 9.56604 16.6084 9.56869 16.6346C9.56869 16.8299 9.75177 16.9716 10.0037 16.9716C10.0753 16.9753 10.1469 16.964 10.2139 16.9384C10.2808 16.9127 10.3418 16.8734 10.3927 16.8229C10.4436 16.7723 10.4834 16.7117 10.5095 16.6448C10.5357 16.5779 10.5476 16.5064 10.5445 16.4346C10.5502 16.3722 10.5421 16.3093 10.5208 16.2505C10.4995 16.1915 10.4655 16.138 10.4213 16.0938C10.3771 16.0494 10.3237 16.0154 10.2648 15.9941C10.2061 15.9727 10.1432 15.9646 10.081 15.9703Z" fill="black"/>
<path d="M22.8939 1.4454H22.7211V5.92363L23.4198 5.90174C23.4976 5.90174 23.5317 5.93336 23.5317 6.01364V6.18635C23.5317 6.26662 23.4976 6.29826 23.4198 6.29826L22.4971 6.26662L21.5769 6.29826C21.4966 6.29826 21.4649 6.26662 21.4649 6.18635V6.00877C21.4649 5.9285 21.4966 5.89688 21.5769 5.89688L22.2439 5.91877V1.34324H21.572C21.4917 1.34324 21.4601 1.31161 21.4601 1.23134V1.05621C21.4601 0.978369 21.4917 0.946742 21.5794 0.946742H23.5269L24.934 4.06277L26.2777 0.946742H28.162C28.2423 0.946742 28.274 0.978369 28.274 1.05621V1.23134C28.274 1.31161 28.2423 1.34324 28.162 1.34324H27.495V5.91634L28.1157 5.90174C28.1936 5.90174 28.2252 5.93336 28.2252 6.01364V6.18635C28.2252 6.26662 28.1936 6.29826 28.1157 6.29826L27.0738 6.26662L26.1122 6.29826C26.0318 6.29826 26.0002 6.26662 26.0002 6.18635V6.00877C26.0002 5.9285 26.0318 5.89688 26.1122 5.89688L26.7013 5.91148V1.4454H26.5212L24.9486 4.96523H24.5737L22.8939 1.4454Z" fill="black"/>
<path d="M32.9067 4.38383C32.9067 5.57575 32.1764 6.4247 30.9592 6.4247C29.742 6.4247 29.0116 5.57575 29.0116 4.38383C29.0116 3.1919 29.742 2.38431 30.9592 2.38431C32.1764 2.38431 32.9067 3.22596 32.9067 4.38383ZM30.9592 6.02819C31.7723 6.02819 32.1618 5.5417 32.1618 4.38383C32.1618 3.22596 31.7723 2.78081 30.9592 2.78081C30.1461 2.78081 29.7615 3.24055 29.7615 4.38383C29.7615 5.5271 30.151 6.02819 30.9592 6.02819Z" fill="black"/>
<path d="M35.4993 6.40026C34.3551 6.40026 33.6078 5.59268 33.6078 4.36913C33.5967 4.11716 33.6364 3.86553 33.7246 3.62922C33.8128 3.39291 33.9477 3.17675 34.1212 2.9936C34.2947 2.81045 34.5033 2.66405 34.7347 2.56312C34.966 2.46219 35.2153 2.40879 35.4677 2.4061C36.3416 2.4061 36.9283 2.82692 36.9283 3.45451C36.9336 3.52092 36.9256 3.58774 36.9047 3.65103C36.8839 3.71431 36.8506 3.77281 36.8069 3.82309C36.7631 3.87338 36.7098 3.91444 36.65 3.94387C36.5902 3.9733 36.5251 3.99052 36.4585 3.99452C36.3952 3.99786 36.3318 3.98728 36.2731 3.96352C36.2143 3.93976 36.1615 3.9034 36.1183 3.85701C36.0751 3.81061 36.0426 3.75532 36.0232 3.69502C36.0037 3.63471 35.9978 3.57088 36.0057 3.50802C36.0016 3.31085 36.076 3.12013 36.2126 2.97774C35.9977 2.8127 35.7276 2.73611 35.4579 2.76368C34.8055 2.76368 34.3843 3.21612 34.3843 4.35939C34.3843 5.50267 34.8128 5.93078 35.5431 5.93078C35.8366 5.94239 36.1257 5.8569 36.3656 5.68757C36.6055 5.51824 36.7827 5.27454 36.8699 4.99427L37.1742 5.09158C37.0941 5.47195 36.8821 5.81184 36.5757 6.05128C36.2693 6.2907 35.8881 6.41434 35.4993 6.40026Z" fill="black"/>
<path d="M40.7552 6.00865C40.6419 5.76794 40.549 5.51813 40.4777 5.26186C40.3803 4.92861 40.3511 4.56374 39.667 4.51752H39.1801V5.96242L39.7206 5.94783C39.7985 5.94783 39.8326 5.97945 39.8326 6.05973V6.20083C39.8326 6.2811 39.7985 6.31268 39.7206 6.31268L38.7468 6.2811L37.8656 6.31268C37.7852 6.31268 37.7536 6.2811 37.7536 6.20083V6.05973C37.7536 5.97945 37.7852 5.94783 37.8656 5.94783L38.4523 5.96972V2.82694L37.8656 2.85126C37.7852 2.85126 37.7536 2.81964 37.7536 2.73937V2.60315C37.7536 2.52287 37.7852 2.49125 37.8656 2.49125L38.7955 2.52287L39.7084 2.49125C39.7863 2.49125 39.8204 2.52287 39.8204 2.60315V2.74423C39.8204 2.8245 39.7863 2.85613 39.7084 2.85613L39.1801 2.8464V4.14779H39.689C40.3316 4.14779 40.6627 3.43263 40.7455 2.8464H40.3974C40.317 2.8464 40.2854 2.81478 40.2854 2.7345V2.60315C40.2854 2.52287 40.317 2.49125 40.3974 2.49125L41.0644 2.52287L41.7143 2.49125C41.7947 2.49125 41.8263 2.52287 41.8263 2.60315V2.74423C41.8263 2.8245 41.7947 2.85613 41.7143 2.85613L41.2542 2.8318C41.2109 3.10934 41.1092 3.37458 40.9561 3.61017C40.803 3.84575 40.6018 4.04637 40.3657 4.19886V4.34968C40.5388 4.35523 40.7067 4.40955 40.8501 4.5064C40.9936 4.60325 41.1066 4.73865 41.1764 4.89699C41.4198 5.49052 41.3346 5.95999 41.6121 5.99161C41.7585 6.00261 41.9057 5.99525 42.0503 5.96972V6.25678C41.8342 6.32303 41.6093 6.35587 41.3833 6.35404C41.256 6.366 41.1281 6.33945 41.0161 6.27789C40.9041 6.21628 40.8132 6.1225 40.7552 6.00865Z" fill="black"/>
<path d="M46.4566 4.38383C46.4566 5.57575 45.7262 6.4247 44.5091 6.4247C43.2918 6.4247 42.5615 5.57575 42.5615 4.38383C42.5615 3.1919 43.2918 2.38431 44.5091 2.38431C45.7262 2.38431 46.4566 3.22596 46.4566 4.38383ZM44.5091 6.02819C45.3197 6.02819 45.7092 5.5417 45.7092 4.38383C45.7092 3.22596 45.3197 2.78081 44.5091 2.78081C43.6984 2.78081 43.3089 3.24055 43.3089 4.38383C43.3089 5.5271 43.6984 6.02819 44.5139 6.02819H44.5091Z" fill="black"/>
<path d="M47.2135 6.04513C47.2135 5.96486 47.2452 5.93324 47.3255 5.93324H47.9147V2.82694L47.3255 2.85126C47.2452 2.85126 47.2135 2.81964 47.2135 2.73937V2.60315C47.2135 2.52287 47.2452 2.49125 47.3255 2.49125H49.3753C50.2834 2.49125 50.7118 2.76856 50.7118 3.39614C50.7118 3.81697 50.4489 4.05535 50.0278 4.19886V4.27914C50.6217 4.37644 50.9577 4.6732 50.9577 5.23997C50.9577 5.86513 50.3856 6.30295 49.4751 6.30295H47.328C47.2477 6.30295 47.216 6.27137 47.216 6.1911L47.2135 6.04513ZM49.3218 4.09913C49.7429 4.08454 50.0131 3.98724 50.0131 3.48858C50.0131 2.98992 49.816 2.81964 49.2414 2.81964H48.6304V4.11616L49.3218 4.09913ZM49.4532 5.9308C49.8817 5.9308 50.2006 5.76296 50.2006 5.20105C50.2006 4.66834 49.979 4.4859 49.4386 4.4859H48.628V5.9308H49.4532Z" fill="black"/>
<path d="M53.6332 6.40026C52.489 6.40026 51.7416 5.59268 51.7416 4.36913C51.7308 4.11724 51.7708 3.86576 51.8592 3.6296C51.9475 3.39344 52.0823 3.17742 52.2558 2.99434C52.4293 2.81126 52.6378 2.66484 52.8689 2.5638C53.1001 2.46275 53.3492 2.40913 53.6015 2.4061C54.4754 2.4061 55.0621 2.82692 55.0621 3.45451C55.0674 3.52092 55.0594 3.58774 55.0386 3.65103C55.0177 3.71431 54.9844 3.77281 54.9407 3.82309C54.8969 3.87338 54.8436 3.91444 54.7838 3.94387C54.724 3.9733 54.6589 3.99052 54.5923 3.99452C54.529 3.99786 54.4657 3.98728 54.4069 3.96352C54.3482 3.93976 54.2953 3.90341 54.2522 3.85701C54.209 3.81061 54.1765 3.75532 54.157 3.69502C54.1376 3.63471 54.1316 3.57088 54.1395 3.50802C54.1365 3.31103 54.2108 3.1207 54.3464 2.97774C54.1315 2.8127 53.8615 2.73611 53.5918 2.76368C52.9394 2.76368 52.5182 3.21612 52.5182 4.35939C52.5182 5.50267 52.9466 5.93079 53.6794 5.93079C53.9727 5.94157 54.2614 5.85576 54.5012 5.68654C54.7409 5.51733 54.9183 5.2741 55.0062 4.99427L55.3032 5.09158C55.2254 5.47224 55.0148 5.81289 54.7089 6.05263C54.403 6.29236 54.0217 6.4156 53.6332 6.40026Z" fill="black"/>
<path d="M58.8991 6.00865C58.7846 5.768 58.6914 5.51819 58.619 5.26186C58.5218 4.92861 58.4924 4.56374 57.8085 4.51752H57.3215V5.96242L57.862 5.94783C57.942 5.94783 57.9742 5.97945 57.9742 6.05973V6.20083C57.9742 6.2811 57.942 6.31268 57.862 6.31268L56.9003 6.2811L56.0191 6.31268C55.9387 6.31268 55.9071 6.2811 55.9071 6.20083V6.05973C55.9071 5.97945 55.9387 5.94783 56.0191 5.94783L56.613 5.96972V2.82694L56.0191 2.85126C55.9387 2.85126 55.9071 2.81964 55.9071 2.73937V2.60315C55.9071 2.52287 55.9387 2.49125 56.0191 2.49125L56.949 2.52287L57.862 2.49125C57.942 2.49125 57.9742 2.52287 57.9742 2.60315V2.74423C57.9742 2.8245 57.942 2.85613 57.862 2.85613L57.3215 2.84154V4.14292H57.8304C58.4729 4.14292 58.8042 3.42777 58.887 2.84154L58.5459 2.85613C58.4654 2.85613 58.4337 2.8245 58.4337 2.74423V2.60315C58.4337 2.52287 58.4654 2.49125 58.5459 2.49125L59.2131 2.52287L59.8654 2.49125C59.9459 2.49125 59.9776 2.52287 59.9776 2.60315V2.74423C59.9776 2.8245 59.9459 2.85613 59.8654 2.85613L59.4053 2.8318C59.361 3.10931 59.2586 3.37439 59.105 3.60989C58.9514 3.84538 58.7501 4.04604 58.5143 4.19886V4.34968C58.6874 4.35435 58.8559 4.40834 58.9997 4.50529C59.143 4.60224 59.2563 4.73813 59.3247 4.89699C59.5807 5.49052 59.4835 5.95999 59.7607 5.99161C59.9074 6.00261 60.0541 5.99525 60.199 5.96972V6.25678C59.9827 6.32303 59.7579 6.35587 59.5318 6.35404C59.4041 6.36634 59.2753 6.34003 59.1625 6.27841C59.0498 6.21685 58.9578 6.12285 58.8991 6.00865Z" fill="black"/>
<path d="M61.7543 6.26651L60.8731 6.29809C60.7931 6.29809 60.7609 6.26651 60.7609 6.18624V6.04513C60.7609 5.96486 60.7931 5.93324 60.8731 5.93324L61.465 5.95513V2.82694L60.8731 2.85126C60.7931 2.85126 60.7609 2.81964 60.7609 2.73937V2.60315C60.7609 2.52287 60.7931 2.49125 60.8731 2.49125L61.8032 2.52287L62.716 2.49125C62.7965 2.49125 62.8282 2.52287 62.8282 2.60315V2.74423C62.8282 2.8245 62.7965 2.85613 62.716 2.85613L62.1753 2.84154V5.85053H62.307L63.8722 2.49125L64.6027 2.52287L65.4862 2.49125C65.5644 2.49125 65.596 2.52287 65.596 2.60315V2.74423C65.596 2.8245 65.5644 2.85613 65.4862 2.85613L64.9213 2.8318V5.95269L65.4936 5.9381C65.5719 5.9381 65.6035 5.96973 65.6035 6.05V6.1911C65.6035 6.27137 65.5719 6.30295 65.4936 6.30295L64.5198 6.27137L63.6461 6.30295C63.5679 6.30295 63.5362 6.27137 63.5362 6.1911V6.05C63.5362 5.96973 63.5679 5.9381 63.6461 5.9381L64.2035 5.95269V2.93883H64.0355L62.4871 6.29809L61.7543 6.26651Z" fill="black"/>
<path d="M67.4193 6.26648L66.5381 6.29812C66.4576 6.29812 66.4259 6.26648 66.4259 6.18622V6.04512C66.4259 5.96486 66.4576 5.93323 66.5381 5.93323L67.1294 5.95512V2.82693L66.5381 2.85126C66.4576 2.85126 66.4259 2.81963 66.4259 2.73936V2.60314C66.4259 2.52287 66.4576 2.49125 66.5381 2.49125L67.4653 2.52287L68.3804 2.49125C68.461 2.49125 68.4926 2.52287 68.4926 2.60314V2.74422C68.4926 2.8245 68.461 2.85612 68.3804 2.85612L67.8403 2.84153V5.85053H67.9669L69.532 2.49125L70.2625 2.52287L71.1437 2.49125C71.2242 2.49125 71.2559 2.52287 71.2559 2.60314V2.74422C71.2559 2.8245 71.2242 2.85612 71.1437 2.85612L70.5811 2.8318V5.95269L71.1512 5.9381C71.2311 5.9381 71.2627 5.96972 71.2627 6.04999V6.19108C71.2627 6.27135 71.2311 6.30299 71.1512 6.30299L70.1774 6.27135L69.303 6.30299C69.2254 6.30299 69.1915 6.27135 69.1915 6.19108V6.04999C69.1915 5.96972 69.2254 5.9381 69.303 5.9381L69.8581 5.95269V2.93882H69.693L68.1446 6.29812L67.4193 6.26648ZM68.0474 0.491733C68.1521 0.485712 68.255 0.521125 68.3338 0.590316C68.4127 0.659507 68.461 0.756911 68.4684 0.86147V0.873637C68.4736 1.06728 68.4149 1.25724 68.3005 1.41365C68.3799 1.48651 68.4736 1.54173 68.576 1.57569C68.6784 1.60965 68.7871 1.62158 68.8941 1.61069C69.0068 1.62403 69.1213 1.61336 69.2294 1.5794C69.3376 1.54544 69.4376 1.48894 69.5222 1.41365C69.4083 1.25724 69.3491 1.06728 69.3542 0.873637C69.3583 0.768892 69.4037 0.669914 69.4802 0.598348C69.5567 0.526782 69.6585 0.488449 69.7632 0.491733H69.7759C69.8317 0.487069 69.8875 0.493437 69.9409 0.510478C69.9944 0.527517 70.0439 0.55489 70.0865 0.591036C70.129 0.627182 70.1641 0.671389 70.19 0.721131C70.2153 0.770873 70.2309 0.825181 70.2355 0.880935C70.2372 0.90281 70.2372 0.924732 70.2355 0.94661C70.2355 1.67636 69.3594 1.88312 68.8849 1.88312C68.4098 1.88312 67.5895 1.68365 67.5895 0.94661C67.5855 0.89068 67.5924 0.834519 67.6103 0.78135C67.6281 0.72818 67.6563 0.679046 67.6931 0.636779C67.7305 0.594512 67.7753 0.559941 67.8254 0.535049C67.8754 0.510157 67.9301 0.495438 67.9864 0.491733H68.0474Z" fill="black"/>
<path d="M78.3349 4.06271C78.3349 4.11623 78.3108 4.1746 78.1842 4.1746H78.0721C78.0381 4.17349 78.0059 4.16082 77.98 4.13869C77.9541 4.11656 77.9369 4.08631 77.9311 4.05298C77.8017 3.57865 77.7241 3.18945 77.6194 2.86836H76.4023V5.96493L76.9424 5.9479C77.0229 5.9479 77.0545 5.97952 77.0545 6.05979V6.20333C77.0545 6.28114 77.0229 6.31523 76.9424 6.31523L75.9812 6.28114L75.1 6.31523C75.0195 6.31523 74.9878 6.28114 74.9878 6.20333V6.05979C74.9878 5.97952 75.0195 5.9479 75.1 5.9479L75.6867 5.97223V2.86836H75.1C75.0195 2.86836 74.9878 2.83673 74.9878 2.75646V2.60322C74.9878 2.52537 75.0195 2.49375 75.1 2.49375H78.1744C78.2233 2.9243 78.3349 3.98001 78.3349 4.06271Z" fill="black"/>
<path d="M82.8657 4.40069C82.8657 5.59262 82.1352 6.44154 80.918 6.44154C79.7009 6.44154 78.9704 5.59262 78.9704 4.40069C78.9704 3.20877 79.7009 2.39875 80.918 2.39875C82.1352 2.39875 82.8657 3.24039 82.8657 4.40069ZM80.918 6.04506C81.7285 6.04506 82.1179 5.55856 82.1179 4.40069C82.1179 3.24282 81.7285 2.79525 80.918 2.79525C80.107 2.79525 79.7176 3.25742 79.7176 4.40069C79.7176 5.54397 80.107 6.04506 80.918 6.04506Z" fill="black"/>
<path d="M85.4558 6.41982C84.3117 6.41982 83.564 5.60979 83.564 4.38624C83.5536 4.13448 83.5933 3.88312 83.6819 3.6471C83.7699 3.41107 83.9051 3.19519 84.0788 3.01231C84.2519 2.82942 84.4607 2.68324 84.6919 2.58246C84.9226 2.48168 85.1717 2.42835 85.4242 2.42565C86.2979 2.42565 86.8846 2.84404 86.8846 3.47163C86.8903 3.53824 86.8829 3.60531 86.8622 3.66888C86.8414 3.73246 86.8081 3.79124 86.7644 3.84179C86.7207 3.89234 86.6672 3.93363 86.6068 3.96321C86.5469 3.9928 86.4814 4.01009 86.4146 4.01407C86.3514 4.01741 86.2881 4.00684 86.2294 3.98308C86.1708 3.95932 86.1179 3.92295 86.0747 3.87656C86.0316 3.83016 85.9988 3.77487 85.9798 3.71457C85.9603 3.65426 85.9539 3.59043 85.962 3.52757C85.9585 3.3298 86.0327 3.13856 86.169 2.99485C85.9539 2.82982 85.6842 2.75324 85.4144 2.7808C84.7621 2.7808 84.3405 3.23324 84.3405 4.37652C84.3405 5.51979 84.7719 5.94791 85.5018 5.94791C85.7952 5.95869 86.0839 5.87287 86.3238 5.70366C86.5636 5.53445 86.7408 5.29122 86.8288 5.01139L87.1308 5.11113C87.0508 5.49173 86.8391 5.83191 86.5326 6.0714C86.226 6.31095 85.8446 6.43436 85.4558 6.41982Z" fill="black"/>
<path d="M88.0506 7.97416C88.0517 7.90871 88.0667 7.84423 88.0949 7.78496C88.1225 7.72569 88.1628 7.673 88.2122 7.63026C88.2623 7.58752 88.3204 7.55577 88.383 7.53706C88.4457 7.51835 88.5119 7.51315 88.5769 7.52173C88.7046 7.52562 88.8311 7.54942 88.9513 7.59227L89.3873 6.35414L87.8682 2.84647L87.3816 2.86349C87.3034 2.86349 87.2718 2.83187 87.2718 2.75159V2.60322C87.2718 2.52537 87.3034 2.49375 87.3816 2.49375L88.3111 2.52537L89.2269 2.49375C89.3045 2.49375 89.3362 2.52537 89.3362 2.60322V2.74673C89.3362 2.827 89.3045 2.85862 89.2269 2.85862L88.6937 2.8416L89.7187 5.44681L90.6286 2.84647L90.1029 2.87079C90.0252 2.87079 89.9913 2.83917 89.9913 2.7589V2.60322C89.9913 2.52537 90.0252 2.49375 90.1029 2.49375L90.8506 2.52537L91.5512 2.49375C91.6295 2.49375 91.6611 2.52537 91.6611 2.60322V2.74673C91.6611 2.827 91.6295 2.85862 91.5512 2.85862L91.033 2.84647L89.2533 7.75527C89.0779 8.22956 88.9761 8.46064 88.555 8.46064C88.4291 8.46682 88.306 8.42414 88.2111 8.34164C88.1161 8.25914 88.0569 8.14311 88.046 8.01793C88.046 8.00323 88.0477 7.98858 88.0506 7.97416Z" fill="black"/>
<path d="M94.5947 5.90164H95.1716L95.2838 6.03543L94.9283 8.17358C94.9277 8.18577 94.9243 8.19767 94.9191 8.2086C94.9139 8.21958 94.9064 8.22942 94.8978 8.2376C94.8886 8.24573 94.8783 8.25196 94.8667 8.25602C94.8552 8.26009 94.8432 8.2618 94.8305 8.26117H94.6556C94.6309 8.26249 94.6062 8.25408 94.5878 8.23772C94.5688 8.22135 94.5573 8.19835 94.5556 8.17358V6.32001H91.878L91.8533 8.13714C91.8562 8.15201 91.855 8.16723 91.8516 8.18188C91.8481 8.19652 91.8412 8.21026 91.8326 8.22233C91.8234 8.23434 91.8119 8.24447 91.7986 8.25196C91.7854 8.25946 91.771 8.26426 91.7561 8.26604H91.5979C91.4978 8.26604 91.4616 8.23199 91.4541 8.15413L91.2108 6.01841L91.3109 5.90651H91.8585C92.3451 4.81189 92.8323 3.8097 93.297 2.84886L92.4791 2.87318C92.3986 2.87318 92.3669 2.84156 92.3669 2.76129V2.61777C92.3669 2.53993 92.3986 2.50831 92.4791 2.50831L93.8619 2.53993L94.456 2.50831C94.536 2.50831 94.5676 2.53993 94.5676 2.61777L94.5947 5.90164ZM93.8791 5.90164V2.96076H93.6352C93.19 3.88997 92.7126 4.87513 92.2697 5.90651L93.8791 5.90164Z" fill="black"/>
<path d="M98.2654 4.15508V3.62236C98.2654 2.93153 98.0906 2.78801 97.6937 2.76369C97.4688 2.73727 97.2404 2.76222 97.0265 2.83666C97.0707 2.88609 97.1047 2.94379 97.1265 3.00642C97.1484 3.06906 97.157 3.13537 97.153 3.20153C97.1513 3.25883 97.1386 3.31524 97.115 3.3675C97.0915 3.41976 97.0581 3.46682 97.0161 3.50597C96.9741 3.54511 96.9246 3.57556 96.8712 3.59554C96.8171 3.61552 96.7601 3.62463 96.7026 3.62236H96.6859C96.625 3.62657 96.564 3.61744 96.5071 3.59562C96.4501 3.57379 96.3983 3.5398 96.3558 3.49601C96.3138 3.45222 96.281 3.39969 96.2614 3.3421C96.2413 3.28451 96.2338 3.22325 96.2402 3.16261C96.2402 2.74909 96.7636 2.43286 97.723 2.43286C98.5651 2.43286 98.962 2.79044 98.962 3.50559V5.48078C98.962 5.99647 99.2881 5.94053 99.7529 5.88701L99.792 6.17165C99.5412 6.30798 99.26 6.37904 98.9741 6.37835C98.8125 6.38207 98.6548 6.32686 98.5306 6.22302C98.4064 6.11918 98.3247 5.97384 98.2999 5.81404C98.128 6.00125 97.9192 6.15071 97.6868 6.25289C97.4538 6.35507 97.2025 6.40776 96.9488 6.40759C96.384 6.40759 95.8508 6.07187 95.8508 5.39808C95.8582 4.49562 96.6319 4.24994 98.2654 4.15508ZM97.1703 5.90161C97.3768 5.90149 97.5809 5.85814 97.7696 5.77435C97.9583 5.69055 98.1274 5.56817 98.2654 5.41511V4.49319C96.9948 4.59292 96.5859 4.73644 96.5859 5.29592C96.5789 5.37527 96.5893 5.45514 96.6163 5.53017C96.6428 5.6052 96.6854 5.67367 96.7406 5.73101C96.7958 5.78835 96.8631 5.83323 96.9367 5.86265C97.0109 5.89207 97.0903 5.90535 97.1703 5.90161Z" fill="black"/>
<path d="M104.298 4.32767C104.298 5.51959 103.646 6.40501 102.445 6.40501C102.051 6.4133 101.667 6.27748 101.365 6.02312V8.00072L101.959 7.9764C102.036 7.9764 102.068 8.00804 102.068 8.08831V8.2294C102.068 8.30967 102.036 8.3413 101.959 8.3413L100.985 8.30967L100.101 8.3413C100.023 8.3413 99.9915 8.30967 99.9915 8.2294V8.08831C99.9915 8.00804 100.023 7.9764 100.101 7.9764L100.602 7.99099V2.84627L100.023 2.86331C99.9426 2.86331 99.911 2.83168 99.911 2.7514V2.60789C99.911 2.53005 99.9426 2.49843 100.023 2.49843H101.082C101.274 2.49843 101.313 2.76844 101.325 2.98493C101.48 2.81028 101.669 2.67 101.882 2.5732C102.094 2.47641 102.324 2.42524 102.558 2.42302C103.638 2.44005 104.298 3.01169 104.298 4.32767ZM102.431 5.98177C103.273 5.98177 103.526 5.48067 103.526 4.32767C103.526 3.17466 103.217 2.86817 102.455 2.86817C102.238 2.8736 102.027 2.9313 101.837 3.03634C101.648 3.14139 101.486 3.29066 101.367 3.47143V5.48067C101.494 5.64014 101.656 5.76829 101.84 5.85519C102.025 5.94208 102.227 5.9854 102.431 5.98177Z" fill="black"/>
<path d="M106.939 6.41982C105.795 6.41982 105.048 5.60979 105.048 4.38624C105.037 4.13448 105.077 3.88312 105.165 3.6471C105.253 3.41107 105.389 3.19519 105.562 3.01231C105.735 2.82942 105.944 2.68324 106.175 2.58246C106.406 2.48168 106.656 2.42835 106.908 2.42565C107.781 2.42565 108.368 2.84404 108.368 3.47163C108.374 3.53824 108.366 3.60531 108.346 3.66888C108.325 3.73246 108.292 3.79124 108.248 3.84179C108.204 3.89234 108.151 3.93363 108.09 3.96321C108.031 3.9928 107.966 4.01009 107.898 4.01407C107.835 4.01741 107.772 4.00684 107.713 3.98308C107.654 3.95931 107.601 3.92295 107.558 3.87656C107.515 3.83016 107.483 3.77487 107.463 3.71457C107.444 3.65426 107.437 3.59043 107.446 3.52757C107.442 3.3298 107.517 3.13856 107.653 2.99485C107.437 2.82982 107.168 2.75324 106.898 2.7808C106.246 2.7808 105.825 3.23324 105.825 4.37652C105.825 5.51979 106.253 5.94791 106.985 5.94791C107.279 5.95869 107.567 5.87287 107.807 5.70366C108.047 5.53445 108.224 5.29122 108.312 5.01139L108.609 5.11113C108.531 5.49134 108.32 5.83141 108.014 6.071C107.708 6.31061 107.328 6.43418 106.939 6.41982Z" fill="black"/>
<path d="M112.619 4.04828C112.492 3.56178 112.419 3.18231 112.307 2.86122H111.363V5.95779L111.928 5.9432C112.008 5.9432 112.04 5.97482 112.04 6.05266V6.19616C112.04 6.27643 112.008 6.30806 111.928 6.30806L110.954 6.27643L110.07 6.30806C109.992 6.30806 109.96 6.27643 109.96 6.19616V6.05266C109.96 5.97482 109.992 5.9432 110.07 5.9432L110.634 5.96752V2.86852H109.69C109.578 3.18718 109.508 3.57638 109.381 4.05558C109.374 4.08847 109.355 4.11798 109.329 4.13953C109.303 4.16108 109.271 4.17347 109.237 4.17477H109.125C108.999 4.17477 108.974 4.11882 108.974 4.06288C108.974 4.00693 109.101 2.9269 109.14 2.50608H112.845C112.884 2.9269 113.011 3.98261 113.011 4.06288C113.011 4.14315 112.986 4.17477 112.86 4.17477H112.748C112.716 4.17081 112.685 4.15627 112.662 4.1334C112.638 4.11053 112.623 4.08062 112.619 4.04828Z" fill="black"/>
<path d="M113.605 6.05979C113.605 5.98196 113.636 5.95033 113.714 5.95033H114.308V2.84647L113.714 2.87079C113.636 2.87079 113.605 2.83917 113.605 2.7589V2.60322C113.605 2.52537 113.636 2.49375 113.714 2.49375H115.766C116.672 2.49375 117.1 2.77105 117.1 3.39864C117.1 3.81946 116.837 4.05785 116.416 4.20137V4.27921C117.01 4.37894 117.346 4.6757 117.346 5.24004C117.346 5.86763 116.774 6.30545 115.863 6.30545H113.717C113.639 6.30545 113.607 6.27387 113.607 6.1936L113.605 6.05979ZM115.708 4.11379C116.129 4.09677 116.402 4.0019 116.402 3.50324C116.402 3.00458 116.205 2.84647 115.62 2.84647H115.007V4.14055L115.708 4.11379ZM115.845 5.9406C116.272 5.9406 116.592 5.77276 116.592 5.21085C116.592 4.67814 116.37 4.4957 115.83 4.4957H115.017V5.94304L115.845 5.9406Z" fill="black"/>
<path d="M118.912 4.40096C118.912 5.52964 119.382 5.98208 120.112 5.98208C120.843 5.98208 121.249 5.60018 121.497 5.00908L121.794 5.09909C121.702 5.49181 121.476 5.84051 121.156 6.08612C120.836 6.33173 120.44 6.45909 120.037 6.44667C118.82 6.44667 118.131 5.60505 118.131 4.40826C118.131 3.26985 118.759 2.43063 119.983 2.43063C120.57 2.43063 121.556 2.6374 121.556 4.01176C121.556 4.1796 121.499 4.28906 121.312 4.28906H118.915L118.912 4.40096ZM120.715 3.91446C120.82 3.08984 120.519 2.8028 119.946 2.8028C119.318 2.8028 119.014 3.12147 118.936 3.91446H120.715Z" fill="black"/>
<path d="M122.437 6.20333V6.05979C122.437 5.98195 122.466 5.95033 122.546 5.95033L123.14 5.97223V2.84647L122.546 2.87079C122.466 2.87079 122.437 2.83917 122.437 2.7589V2.60322C122.437 2.52537 122.466 2.49375 122.546 2.49375L123.476 2.52537L124.391 2.49375C124.47 2.49375 124.501 2.52537 124.501 2.60322V2.74673C124.501 2.827 124.47 2.85862 124.391 2.85862L123.849 2.8416V4.11379H125.869V2.84647L125.329 2.86349C125.248 2.86349 125.217 2.83187 125.217 2.75159V2.60322C125.217 2.52537 125.248 2.49375 125.329 2.49375L126.203 2.52537L127.177 2.49375C127.257 2.49375 127.289 2.52537 127.289 2.60322V2.74673C127.289 2.827 127.257 2.85862 127.177 2.85862L126.575 2.84647V5.96006L127.167 5.94546C127.247 5.94546 127.279 5.97709 127.279 6.05493V6.19846C127.279 6.27873 127.247 6.31031 127.167 6.31031L126.193 6.27873L125.319 6.31523C125.239 6.31523 125.207 6.2836 125.207 6.20333V6.05979C125.207 5.98195 125.239 5.95033 125.319 5.95033L125.859 5.96493V4.46651H123.839V5.96006L124.382 5.94546C124.46 5.94546 124.492 5.97709 124.492 6.05493V6.19846C124.492 6.27873 124.46 6.31031 124.382 6.31031L123.421 6.27873L122.536 6.31031C122.471 6.3201 122.437 6.2836 122.437 6.20333Z" fill="black"/>
<path d="M128.113 6.20333V6.05979C128.113 5.98196 128.145 5.95033 128.226 5.95033L128.82 5.97223V2.84647L128.226 2.87079C128.145 2.87079 128.113 2.83917 128.113 2.7589V2.60322C128.113 2.52537 128.145 2.49375 128.226 2.49375L129.156 2.52537L130.069 2.49375C130.149 2.49375 130.181 2.52537 130.181 2.60322V2.74673C130.181 2.827 130.149 2.85862 130.069 2.85862L129.528 2.8416V4.11379H131.549V2.84647L131.008 2.86349C130.928 2.86349 130.896 2.83187 130.896 2.75159V2.60322C130.896 2.52537 130.928 2.49375 131.008 2.49375L131.882 2.52537L132.856 2.49375C132.937 2.49375 132.968 2.52537 132.968 2.60322V2.74673C132.968 2.827 132.937 2.85862 132.856 2.85862L132.262 2.8416V5.9552L132.856 5.9406C132.937 5.9406 132.968 5.97223 132.968 6.05007V6.1936C132.968 6.27387 132.937 6.30545 132.856 6.30545L131.882 6.27387L131.008 6.30545C130.928 6.30545 130.896 6.27387 130.896 6.1936V6.05007C130.896 5.97223 130.928 5.9406 131.008 5.9406L131.549 5.9552V4.46165H129.528V5.9552L130.069 5.9406C130.149 5.9406 130.181 5.97223 130.181 6.05007V6.1936C130.181 6.27387 130.149 6.30545 130.069 6.30545L129.095 6.27387L128.214 6.30545C128.145 6.3201 128.113 6.2836 128.113 6.20333Z" fill="black"/>
<path d="M135.999 4.08217C137.024 4.08217 137.372 4.4884 137.372 5.1695C137.372 5.79708 136.873 6.31523 135.89 6.31523H133.959C133.879 6.31523 133.847 6.28114 133.847 6.20333V6.05979C133.847 5.97952 133.879 5.9479 133.959 5.9479L134.446 5.96493V2.84647L133.889 2.86349C133.81 2.86349 133.776 2.83187 133.776 2.75159V2.60322C133.776 2.52537 133.81 2.49375 133.889 2.49375L134.818 2.52537L135.734 2.49375C135.811 2.49375 135.843 2.52537 135.843 2.60322V2.74673C135.843 2.827 135.811 2.85862 135.734 2.85862L135.159 2.8343V4.08947L135.963 4.07245L135.999 4.08217ZM135.88 5.93331C136.483 5.93331 136.627 5.63168 136.627 5.13058C136.627 4.67084 136.459 4.43245 135.863 4.43245H135.171V5.93331H135.88ZM137.532 6.05979C137.532 5.98195 137.564 5.95033 137.642 5.95033L138.182 5.96493V2.84647L137.642 2.86349C137.564 2.86349 137.532 2.83187 137.532 2.75159V2.60322C137.532 2.52537 137.564 2.49375 137.642 2.49375L138.516 2.52537L139.49 2.49375C139.568 2.49375 139.6 2.52537 139.6 2.60322V2.74673C139.6 2.827 139.568 2.85862 139.49 2.85862L138.896 2.8416V5.9552L139.49 5.9406C139.568 5.9406 139.6 5.97223 139.6 6.05007V6.1936C139.6 6.27387 139.568 6.30545 139.49 6.30545L138.516 6.27387L137.642 6.30545C137.564 6.30545 137.532 6.27387 137.532 6.1936V6.05979Z" fill="black"/>
<path d="M141.425 6.28366L140.541 6.31524C140.464 6.31524 140.432 6.28361 140.432 6.20334V6.05984C140.432 5.98201 140.464 5.95038 140.541 5.95038L141.135 5.97228V2.84652L140.541 2.87084C140.464 2.87084 140.432 2.83922 140.432 2.75895V2.60327C140.432 2.52542 140.464 2.4938 140.541 2.4938L141.474 2.52542L142.387 2.4938C142.465 2.4938 142.496 2.52542 142.496 2.60327V2.74678C142.496 2.82705 142.465 2.85867 142.387 2.85867L141.846 2.84165V5.86281H141.973L143.538 2.5011L144.269 2.53272L145.15 2.5011C145.23 2.5011 145.262 2.53272 145.262 2.613V2.75652C145.262 2.83435 145.23 2.86841 145.15 2.86841L144.59 2.84652V5.9674L145.165 5.95038C145.242 5.95038 145.274 5.98201 145.274 6.06225V6.2058C145.274 6.28361 145.242 6.3177 145.165 6.3177L144.191 6.28366L143.317 6.3177C143.239 6.3177 143.207 6.28361 143.207 6.2058V6.06225C143.207 5.98201 143.239 5.95038 143.317 5.95038L143.874 5.9674V2.96084H143.706L142.155 6.32011L141.425 6.28366ZM142.054 0.508887C142.105 0.505592 142.157 0.512545 142.207 0.52936C142.255 0.546175 142.301 0.572516 142.339 0.606868C142.379 0.64122 142.41 0.682912 142.433 0.729547C142.456 0.776181 142.469 0.82684 142.472 0.878623C142.477 1.07216 142.418 1.2619 142.304 1.41864C142.384 1.49061 142.478 1.54526 142.58 1.57917C142.683 1.61307 142.791 1.6255 142.898 1.61567C143.011 1.62901 143.125 1.61835 143.233 1.58439C143.341 1.55043 143.441 1.49394 143.526 1.41864C143.413 1.2619 143.353 1.07216 143.358 0.878623C143.362 0.773878 143.407 0.6749 143.484 0.603334C143.561 0.531768 143.662 0.493435 143.767 0.496719C143.823 0.492055 143.879 0.498424 143.933 0.515464C143.986 0.532503 144.035 0.559883 144.078 0.59603C144.121 0.632176 144.156 0.676383 144.182 0.726125C144.207 0.775867 144.223 0.830167 144.227 0.885921C144.229 0.907746 144.229 0.92977 144.227 0.951596C144.227 1.68135 143.353 1.88811 142.878 1.88811C142.404 1.88811 141.581 1.68864 141.581 0.951596C141.574 0.838393 141.612 0.726905 141.687 0.641617C141.761 0.556329 141.867 0.504216 141.98 0.496719L142.054 0.508887Z" fill="black"/>
<path d="M21.8131 17.1666C21.8139 17.1009 21.8286 17.0362 21.8563 16.9767C21.884 16.9171 21.924 16.8641 21.9737 16.8211C22.0234 16.7781 22.0816 16.7461 22.1446 16.7273C22.2075 16.7084 22.2737 16.7031 22.3389 16.7118C22.4661 16.7165 22.5918 16.7411 22.7114 16.7847L23.1544 15.549L21.6232 12.0462L21.1363 12.0633C21.0559 12.0633 21.0243 12.0316 21.0243 11.9513V11.8078C21.0243 11.73 21.0559 11.6984 21.1363 11.6984L22.0663 11.73L22.9792 11.6984C23.0595 11.6984 23.0911 11.73 23.0911 11.8078V11.9513C23.0911 12.0316 23.0595 12.0633 22.9792 12.0633L22.4484 12.0462L23.4709 14.6514L24.3935 12.0389L23.8701 12.0633C23.7898 12.0633 23.7582 12.0316 23.7582 11.9513V11.8078C23.7582 11.73 23.7898 11.6984 23.8701 11.6984L24.6175 11.73L25.3162 11.6984C25.3941 11.6984 25.4257 11.73 25.4257 11.8078V11.9513C25.4257 12.0316 25.3941 12.0633 25.3162 12.0633L24.8074 12.0389L23.0205 16.955C22.8453 17.4415 22.743 17.6604 22.3218 17.6604C22.1963 17.6659 22.0735 17.6226 21.9791 17.5396C21.8847 17.4567 21.8261 17.3404 21.8155 17.2153C21.8131 17.1992 21.8123 17.1828 21.8131 17.1666Z" fill="black"/>
<path d="M25.6765 15.3982V15.2522C25.6765 15.1744 25.7081 15.1428 25.7885 15.1428L26.3752 15.1671V12.0389L25.7885 12.0633C25.7081 12.0633 25.6765 12.0316 25.6765 11.9513V11.8078C25.6765 11.73 25.7081 11.6984 25.7885 11.6984L26.716 11.73L27.6313 11.6984C27.7116 11.6984 27.7433 11.73 27.7433 11.8078V11.9513C27.7433 12.0316 27.7116 12.0633 27.6313 12.0633L27.0909 12.0462V13.3184H29.1089V12.0462L28.5686 12.0633C28.4882 12.0633 28.4566 12.0316 28.4566 11.9513V11.8078C28.4566 11.73 28.4882 11.6984 28.5686 11.6984L29.4425 11.73L30.4163 11.6984C30.4966 11.6984 30.5283 11.73 30.5283 11.8078V11.9513C30.5283 12.0316 30.4966 12.0633 30.4163 12.0633L29.8296 12.0462V15.1598L30.4163 15.1452C30.4966 15.1452 30.5283 15.1768 30.5283 15.2547V15.3982C30.5283 15.4784 30.4966 15.5101 30.4163 15.5101L29.4425 15.4784L28.5686 15.5101C28.4882 15.5101 28.4566 15.4784 28.4566 15.3982V15.2522C28.4566 15.1744 28.4882 15.1428 28.5686 15.1428L29.1089 15.1574V13.6662H27.0909V15.1574L27.6313 15.1428C27.7116 15.1428 27.7433 15.1744 27.7433 15.2522V15.3958C27.7433 15.476 27.7116 15.5077 27.6313 15.5077L26.6697 15.476L25.7885 15.5077C25.7081 15.5101 25.6765 15.4784 25.6765 15.3982Z" fill="black"/>
<path d="M32.3442 15.4784L31.4606 15.5101C31.3827 15.5101 31.351 15.4784 31.351 15.3982V15.2522C31.351 15.1744 31.3827 15.1428 31.4606 15.1428L32.0497 15.1671V12.0389L31.4606 12.0633C31.3827 12.0633 31.351 12.0316 31.351 11.9513V11.8078C31.351 11.73 31.3827 11.6984 31.4606 11.6984L32.3905 11.73L33.3059 11.6984C33.3837 11.6984 33.4178 11.73 33.4178 11.8078V11.9513C33.4178 12.0316 33.3837 12.0633 33.3059 12.0633L32.7654 12.0462V15.0576H32.892L34.4573 11.6984L35.1877 11.73L36.0689 11.6984C36.1492 11.6984 36.1809 11.73 36.1809 11.8078V11.9513C36.1809 12.0292 36.1492 12.0608 36.0689 12.0608L35.5041 12.0389V15.1598L36.0762 15.1428C36.1565 15.1428 36.1882 15.1744 36.1882 15.2547V15.3982C36.1882 15.476 36.1565 15.5077 36.0762 15.5077L35.1025 15.476L34.2285 15.5077C34.1482 15.5077 34.1165 15.476 34.1165 15.3982V15.2522C34.1165 15.1719 34.1482 15.1404 34.2285 15.1404L34.7835 15.1574V12.1508H34.618L33.0941 15.5101L32.3442 15.4784Z" fill="black"/>
<path d="M37.0233 15.2522C37.0233 15.1744 37.0549 15.1428 37.1353 15.1428H37.7195V12.0389L37.1255 12.0633C37.0452 12.0633 37.0136 12.0316 37.0136 11.9513V11.8078C37.0136 11.73 37.0452 11.6984 37.1255 11.6984H39.1801C40.0857 11.6984 40.5167 11.9757 40.5167 12.6032C40.5167 13.0241 40.2537 13.2624 39.8326 13.4035V13.4838C40.4266 13.5836 40.7625 13.8803 40.7625 14.4447C40.7625 15.0722 40.1904 15.5101 39.2799 15.5101H37.1328C37.0549 15.5101 37.0233 15.4784 37.0233 15.3982V15.2522ZM39.1315 13.3063C39.5526 13.2892 39.8229 13.1943 39.8229 12.6932C39.8229 12.1922 39.6256 12.0268 39.0511 12.0268H38.4498V13.3208L39.1315 13.3063ZM39.2653 15.133C39.6938 15.133 40.0127 14.9652 40.0127 14.4033C40.0127 13.8706 39.7912 13.6881 39.2483 13.6881H38.4377V15.133H39.2653Z" fill="black"/>
<path d="M42.3448 13.5956C42.3448 14.7243 42.8122 15.1768 43.545 15.1768C44.2777 15.1768 44.6818 14.7949 44.9301 14.2038L45.2272 14.2913C45.1351 14.6845 44.9098 15.0338 44.5895 15.2799C44.2691 15.5259 43.8734 15.6537 43.4695 15.6414C42.2523 15.6414 41.5585 14.7997 41.5585 13.6005C41.5585 12.4646 42.1866 11.6229 43.4111 11.6229C44.0002 11.6229 44.9861 11.8297 44.9861 13.204C44.9861 13.3718 44.9301 13.4837 44.7427 13.4837H42.3448V13.5956ZM44.1487 13.1092C44.2534 12.2821 43.9515 11.9975 43.377 11.9975C42.7489 11.9975 42.447 12.3137 42.3691 13.1092H44.1487Z" fill="black"/>
<path d="M49.9768 13.5251C49.9768 14.717 49.3268 15.6 48.1266 15.6C47.7317 15.6089 47.3472 15.4731 47.0458 15.2181V17.1982L47.6373 17.1763C47.7176 17.1763 47.7493 17.2079 47.7493 17.2857V17.4293C47.7493 17.5071 47.7176 17.5411 47.6373 17.5411L46.6635 17.5071L45.7823 17.5411C45.702 17.5411 45.6703 17.5071 45.6703 17.4293V17.2857C45.6703 17.2079 45.702 17.1763 45.7823 17.1763L46.2838 17.1909V12.0486L45.7019 12.0631C45.624 12.0631 45.5924 12.0315 45.5924 11.9537V11.8101C45.5924 11.7299 45.624 11.6983 45.7019 11.6983H46.7585C46.9508 11.6983 47.0019 11.9683 47.0141 12.1994C47.1685 12.0237 47.3582 11.8823 47.5709 11.7847C47.7835 11.6871 48.0143 11.6352 48.2483 11.6326C49.317 11.6326 49.9768 12.2067 49.9768 13.5251ZM48.1096 15.1768C48.9519 15.1768 49.2075 14.6756 49.2075 13.5251C49.2075 12.3745 48.8959 12.0656 48.1339 12.0656C47.9172 12.0704 47.7049 12.1278 47.5153 12.2329C47.3257 12.338 47.1645 12.4877 47.0458 12.6688V14.6781C47.1731 14.837 47.3352 14.9646 47.5197 15.051C47.7041 15.1374 47.9059 15.1805 48.1096 15.1768Z" fill="black"/>
<path d="M52.6156 15.6124C51.4714 15.6124 50.724 14.8023 50.724 13.5787C50.7133 13.327 50.7533 13.0756 50.8416 12.8396C50.93 12.6036 51.0649 12.3877 51.2384 12.2048C51.4119 12.0219 51.6204 11.8758 51.8515 11.775C52.0827 11.6742 52.3318 11.6209 52.5839 11.6182C53.4579 11.6182 54.0446 12.039 54.0446 12.6665C54.0499 12.733 54.0419 12.7998 54.021 12.8631C54.0002 12.9264 53.9669 12.9849 53.9232 13.0352C53.8794 13.0855 53.826 13.1265 53.7662 13.1559C53.7064 13.1853 53.6413 13.2026 53.5747 13.2066C53.5114 13.2099 53.4482 13.1994 53.3894 13.1756C53.3306 13.1518 53.2777 13.1155 53.2345 13.0691C53.1914 13.0227 53.1589 12.9674 53.1395 12.9071C53.12 12.8468 53.114 12.783 53.1219 12.7201C53.1191 12.5224 53.1933 12.3313 53.3289 12.1874C53.1139 12.0223 52.8439 11.9457 52.5742 11.9733C51.9218 11.9733 51.5006 12.4257 51.5006 13.569C51.5006 14.7123 51.9315 15.1429 52.6618 15.1429C52.9551 15.1536 53.2439 15.0678 53.4836 14.8986C53.7233 14.7294 53.9007 14.4862 53.9886 14.2064L54.2904 14.3085C54.2098 14.6882 53.9975 15.0272 53.6911 15.2658C53.3847 15.5043 53.0038 15.6271 52.6156 15.6124Z" fill="black"/>
<path d="M55.8655 15.4784L54.9843 15.5101C54.904 15.5101 54.8723 15.4784 54.8723 15.3982V15.2522C54.8723 15.1744 54.904 15.1428 54.9843 15.1428L55.571 15.1671V12.0389L54.9843 12.0633C54.904 12.0633 54.8723 12.0316 54.8723 11.9513V11.8078C54.8723 11.73 54.904 11.6984 54.9843 11.6984L55.9142 11.73L56.8271 11.6984C56.9075 11.6984 56.9391 11.73 56.9391 11.8078V11.9513C56.9391 12.0316 56.9075 12.0633 56.8271 12.0633L56.2867 12.0462V15.0576H56.4133L57.9787 11.6984L58.7092 11.73L59.5927 11.6984C59.6703 11.6984 59.702 11.73 59.702 11.8078V11.9513C59.702 12.0292 59.6703 12.0608 59.5927 12.0608L59.0278 12.0389V15.1598L59.6002 15.1428C59.6778 15.1428 59.7117 15.1744 59.7117 15.2547V15.3982C59.7117 15.476 59.6778 15.5077 59.6002 15.5077L58.6264 15.476L57.7521 15.5077C57.6744 15.5077 57.6428 15.476 57.6428 15.3982V15.2522C57.6428 15.1719 57.6744 15.1404 57.7521 15.1404L58.3094 15.1574V12.1508H58.1415L56.5934 15.5101L55.8655 15.4784Z" fill="black"/>
<path d="M63.9724 13.2455C63.8458 12.759 63.7751 12.382 63.6629 12.0609H62.7161V15.1574L63.281 15.1429C63.3615 15.1429 63.3931 15.1744 63.3931 15.2523V15.3958C63.3931 15.4761 63.3615 15.5077 63.281 15.5077L62.3072 15.4761L61.426 15.5077C61.3454 15.5077 61.3138 15.4761 61.3138 15.3958V15.2523C61.3138 15.1744 61.3454 15.1429 61.426 15.1429L61.9908 15.1672V12.0633H61.0435C60.9319 12.382 60.8611 12.7687 60.7346 13.2479C60.7282 13.2814 60.7104 13.3117 60.684 13.3335C60.6581 13.3552 60.6247 13.3671 60.5908 13.3671H60.4786C60.3521 13.3671 60.3279 13.3111 60.3279 13.2577C60.3279 13.2041 60.4545 12.1192 60.4959 11.7008H64.1984C64.2375 12.1192 64.3664 13.1774 64.3664 13.2577C64.3664 13.3379 64.3422 13.3671 64.2157 13.3671H64.1035C64.0713 13.3643 64.0408 13.3508 64.0172 13.3288C63.9931 13.3068 63.9775 13.2774 63.9724 13.2455Z" fill="black"/>
<path d="M65.676 13.5956C65.676 14.7243 66.146 15.1768 66.8765 15.1768C67.607 15.1768 68.0131 14.7949 68.2616 14.2038L68.5584 14.2913C68.4663 14.6843 68.2408 15.0333 67.9205 15.2793C67.6001 15.5253 67.2049 15.6532 66.8011 15.6414C65.584 15.6414 64.8949 14.7997 64.8949 13.6005C64.8949 12.4646 65.523 11.6229 66.7448 11.6229C67.3389 11.6229 68.3173 11.8297 68.3173 13.204C68.3173 13.3718 68.2639 13.4837 68.074 13.4837H65.6789L65.676 13.5956ZM67.4799 13.1092C67.5799 12.2821 67.2831 11.9975 66.7108 11.9975C66.0827 11.9975 65.7807 12.3137 65.7008 13.1092H67.4799Z" fill="black"/>
<path d="M72.6334 13.2455C72.5069 12.759 72.4367 12.382 72.3246 12.0609H71.3778V15.1574L71.942 15.1429C72.0226 15.1429 72.0542 15.1744 72.0542 15.2523V15.3958C72.0542 15.4761 72.0226 15.5077 71.942 15.5077L70.9688 15.4761L70.087 15.5077C70.0071 15.5077 69.9755 15.4761 69.9755 15.3958V15.2523C69.9755 15.1744 70.0071 15.1429 70.087 15.1429L70.6519 15.1672V12.0633H69.7051C69.5929 12.382 69.5228 12.7687 69.3957 13.2479C69.3893 13.2812 69.3715 13.3112 69.345 13.3329C69.3192 13.3546 69.2864 13.3666 69.2524 13.3671H69.1403C69.0137 13.3671 68.9896 13.3111 68.9896 13.2577C68.9896 13.2041 69.1184 12.1192 69.1575 11.7008H72.8721C72.9113 12.1192 73.0401 13.1774 73.0401 13.2577C73.0401 13.3379 73.0159 13.3671 72.8894 13.3671H72.7749C72.741 13.3665 72.7082 13.3539 72.6823 13.3317C72.6564 13.3095 72.6392 13.279 72.6334 13.2455Z" fill="black"/>
<path d="M77.1374 15.4202L76.2734 15.4518C76.1981 15.4518 76.1659 15.4202 76.1659 15.3424V15.2037C76.1659 15.1259 76.1981 15.0943 76.2734 15.0943L76.8504 15.1186V12.0537L76.2734 12.078C76.1981 12.078 76.1659 12.0463 76.1659 11.9685V11.8274C76.1659 11.752 76.1981 11.7204 76.2734 11.7204L77.1863 11.752L78.0796 11.7204C78.1572 11.7204 78.1894 11.752 78.1894 11.8274V11.9685C78.1894 12.0463 78.1572 12.078 78.0796 12.078L77.5486 12.0634V15.0091H77.6758L79.2092 11.7253L79.9397 11.7569L80.806 11.7253C80.8813 11.7253 80.913 11.7569 80.913 11.8347V11.9758C80.913 12.0537 80.8813 12.0852 80.806 12.0852L80.2509 12.0609V15.1161L80.8112 15.1015C80.8911 15.1015 80.9204 15.1332 80.9204 15.2086V15.3497C80.9204 15.4275 80.8911 15.4567 80.8112 15.4567L79.8638 15.4275L79.0073 15.4567C78.9291 15.4567 78.8998 15.4275 78.8998 15.3497V15.2086C78.8998 15.1332 78.9291 15.1015 79.0073 15.1015L79.5526 15.1161V12.1582H79.3968L77.88 15.4421L77.1374 15.4202Z" fill="black"/>
<path d="M82.841 12.1704H82.7317V15.1186L83.323 15.0943C83.4012 15.0943 83.4328 15.1259 83.4328 15.2037V15.3424C83.4328 15.4202 83.4012 15.4518 83.323 15.4518L82.5419 15.4202L81.8263 15.4518C81.7481 15.4518 81.7165 15.4202 81.7165 15.3424V15.2037C81.7165 15.1259 81.7481 15.0943 81.8263 15.0943L82.3618 15.1186V12.0634L81.8263 12.078C81.7481 12.078 81.7165 12.0463 81.7165 11.9685V11.8274C81.7165 11.752 81.7481 11.7204 81.8263 11.7204H83.4058L84.3066 13.6858L85.2171 11.7204H86.7678C86.8432 11.7204 86.8748 11.752 86.8748 11.8274V11.9685C86.8748 12.0463 86.8432 12.078 86.7678 12.078L86.2151 12.0634V15.1113L86.7678 15.0943C86.8432 15.0943 86.8748 15.1259 86.8748 15.2037V15.3424C86.8748 15.4202 86.8432 15.4518 86.7678 15.4518L85.828 15.4202L84.9565 15.4518C84.8789 15.4518 84.8473 15.4202 84.8473 15.3424V15.2037C84.8473 15.1259 84.8789 15.0943 84.9565 15.0943L85.5093 15.1186V12.1704H85.3925L84.2554 14.5883H83.973L82.841 12.1704Z" fill="black"/>
<path d="M88.3961 13.5786C88.3961 14.683 88.8563 15.1257 89.5724 15.1257C90.288 15.1257 90.6848 14.751 90.9258 14.1697L91.2129 14.2524C91.1249 14.6382 90.9051 14.9812 90.5917 15.2227C90.2782 15.4641 89.8899 15.589 89.4942 15.5757C88.2943 15.5757 87.6271 14.751 87.6271 13.5786C87.6271 12.4645 88.2431 11.6326 89.4407 11.6326C90.0153 11.6326 90.9816 11.8345 90.9816 13.1796C90.9816 13.3354 90.9258 13.4521 90.7383 13.4521H88.3915L88.3961 13.5786ZM90.1637 13.1091C90.2638 12.3015 89.9687 12.0145 89.4091 12.0145C88.793 12.0145 88.4985 12.3283 88.4209 13.1091H90.1637Z" fill="black"/>
<path d="M91.8532 15.3424V15.2037C91.8532 15.1259 91.8825 15.0943 91.9608 15.0943L92.5348 15.1186V12.0537L91.9608 12.078C91.8825 12.078 91.8532 12.0463 91.8532 11.9685V11.8274C91.8532 11.752 91.8825 11.7204 91.9608 11.7204L92.8713 11.752L93.7669 11.7204C93.8445 11.7204 93.8762 11.752 93.8762 11.8274V11.9685C93.8762 12.0463 93.8445 12.078 93.7669 12.078L93.236 12.0634V13.3064H95.2152V12.0561L94.6849 12.0901C94.6067 12.0901 94.575 12.0585 94.575 11.9807V11.8396C94.575 11.7642 94.6067 11.7325 94.6849 11.7325L95.5391 11.7642L96.4887 11.7325C96.5664 11.7325 96.598 11.7642 96.598 11.8396V11.9807C96.598 12.0585 96.5664 12.0901 96.4887 12.0901L95.9141 12.0755V15.1234L96.4887 15.1064C96.5664 15.1064 96.598 15.138 96.598 15.2159V15.3545C96.598 15.4324 96.5664 15.464 96.4887 15.464L95.5391 15.4324L94.6849 15.464C94.6067 15.464 94.575 15.4324 94.575 15.3545V15.2159C94.575 15.138 94.6067 15.1064 94.6849 15.1064L95.2152 15.1234V13.664H93.236V15.1234L93.7669 15.1064C93.8445 15.1064 93.8762 15.138 93.8762 15.2159V15.3545C93.8762 15.4324 93.8445 15.464 93.7669 15.464L92.827 15.4324L91.9631 15.464C91.8825 15.4518 91.8532 15.4202 91.8532 15.3424Z" fill="black"/>
<path d="M98.38 15.4202L97.516 15.4518C97.4378 15.4518 97.4062 15.4202 97.4062 15.3424V15.2037C97.4062 15.1259 97.4378 15.0943 97.516 15.0943L98.0929 15.1186V12.0537L97.516 12.078C97.4378 12.078 97.4062 12.0463 97.4062 11.9685V11.8274C97.4062 11.752 97.4378 11.7204 97.516 11.7204L98.4266 11.752L99.3221 11.7204C99.3998 11.7204 99.4291 11.752 99.4291 11.8274V11.9685C99.4291 12.0463 99.3998 12.078 99.3221 12.078L98.7912 12.0634V15.0091H98.9178L100.45 11.7253L101.179 11.7569L102.044 11.7253C102.122 11.7253 102.151 11.7569 102.151 11.8347V11.9758C102.151 12.0537 102.122 12.0852 102.044 12.0852L101.491 12.0609V15.1161L102.051 15.1015C102.127 15.1015 102.158 15.1332 102.158 15.2086V15.3497C102.158 15.4275 102.127 15.4567 102.051 15.4567L101.102 15.4275L100.245 15.4567C100.167 15.4567 100.135 15.4275 100.135 15.3497V15.2086C100.135 15.1332 100.167 15.1015 100.245 15.1015L100.79 15.1161V12.1582H100.634L99.1151 15.4421L98.38 15.4202Z" fill="black"/>
<path d="M106.068 10.7009H105.898V15.0794L106.582 15.0551C106.659 15.0551 106.691 15.0867 106.691 15.1645V15.3348C106.691 15.4126 106.659 15.4443 106.582 15.4443L105.679 15.4126L104.775 15.4443C104.7 15.4443 104.668 15.4126 104.668 15.3348V15.1645C104.668 15.0867 104.7 15.0551 104.775 15.0551L105.43 15.0794V10.5963H104.768C104.69 10.5963 104.661 10.5671 104.661 10.4868V10.3166C104.661 10.2387 104.69 10.2071 104.775 10.2071H106.674L108.074 13.2526L109.379 10.212H111.224C111.302 10.212 111.333 10.2436 111.333 10.3214V10.4917C111.333 10.572 111.302 10.6011 111.224 10.6011H110.582V15.0794L111.187 15.0648C111.266 15.0648 111.297 15.0964 111.297 15.1718V15.3445C111.297 15.4224 111.266 15.4515 111.187 15.4515L110.17 15.4224L109.231 15.4515C109.152 15.4515 109.121 15.4224 109.121 15.3445V15.1718C109.121 15.0964 109.152 15.0648 109.231 15.0648L109.807 15.0794V10.7009H109.62L108.074 14.1429H107.709L106.068 10.7009Z" fill="black"/>
<path d="M112.943 14.9724C112.947 15.0399 112.938 15.1076 112.913 15.1707C112.888 15.2337 112.85 15.2905 112.801 15.3371C112.752 15.3836 112.693 15.4187 112.629 15.4398C112.564 15.4608 112.496 15.4674 112.429 15.4589C112.078 15.4589 111.918 15.2741 111.918 14.9894C111.918 14.7049 112.074 14.5199 112.429 14.5199C112.494 14.5104 112.559 14.515 112.622 14.5335C112.685 14.5519 112.742 14.5839 112.791 14.6269C112.84 14.67 112.879 14.7233 112.905 14.783C112.931 14.8426 112.944 14.9073 112.943 14.9724Z" fill="black"/>
<path d="M117.585 12.5276V12.637C118.656 12.7927 118.883 13.2743 118.883 13.9117C118.883 14.8214 118.291 15.4514 116.821 15.4514H114.564C114.486 15.4514 114.454 15.4198 114.454 15.342V15.1717C114.454 15.0938 114.486 15.0622 114.564 15.0622L115.165 15.0866V10.5767L114.408 10.5986C114.33 10.5986 114.301 10.5694 114.301 10.4916V10.3188C114.301 10.2434 114.33 10.2118 114.408 10.2118H116.86C118.111 10.2118 118.542 10.7543 118.542 11.4281C118.542 12.0021 118.113 12.3329 117.585 12.5276ZM116.434 12.4643C116.867 12.4643 117.746 12.4424 117.746 11.4792C117.746 10.7932 117.49 10.6059 116.809 10.6059H115.937V12.4716L116.434 12.4643ZM116.775 15.0549C117.678 15.0549 118.091 14.8603 118.091 13.9895C118.091 13.2087 117.826 12.8535 116.543 12.8535H115.944V15.0549H116.775Z" fill="black"/>
<path d="M120.489 14.9722C120.477 15.0997 120.417 15.218 120.323 15.3041C120.228 15.3902 120.104 15.4379 119.976 15.4379C119.847 15.4379 119.724 15.3902 119.629 15.3041C119.534 15.218 119.475 15.0997 119.462 14.9722C119.462 14.69 119.618 14.5028 119.976 14.5028C120.333 14.5028 120.489 14.6974 120.489 14.9722Z" fill="black"/>
<path d="M125.263 15.3422V15.1719C125.263 15.0941 125.295 15.0625 125.373 15.0625L125.95 15.0795V10.6305H124.959C124.837 11.5334 124.656 12.4273 124.416 13.3062C123.929 14.9141 123.506 15.5587 122.758 15.5587C122.6 15.5666 122.446 15.5117 122.329 15.4059C122.211 15.3001 122.141 15.1521 122.133 14.9944V14.953C122.127 14.8303 122.171 14.7105 122.253 14.6194C122.336 14.5284 122.451 14.4734 122.573 14.4665H122.6C122.666 14.4636 122.733 14.4739 122.796 14.4968C122.858 14.5198 122.916 14.5548 122.964 14.6001C123.013 14.6453 123.053 14.6998 123.081 14.7604C123.108 14.821 123.124 14.8864 123.126 14.953C123.128 14.9805 123.128 15.0082 123.126 15.0357C123.406 14.9019 123.695 14.3668 124.022 13.1919C124.246 12.3493 124.409 11.4917 124.509 10.6256H123.668C123.591 10.6256 123.561 10.5964 123.561 10.5161V10.3458C123.561 10.268 123.591 10.2364 123.668 10.2364H127.305C127.384 10.2364 127.415 10.268 127.415 10.3458V10.5161C127.415 10.5964 127.384 10.6256 127.305 10.6256L126.722 10.6085V15.1038L127.328 15.0892C127.405 15.0892 127.437 15.1208 127.437 15.1962V15.369C127.437 15.4468 127.405 15.476 127.328 15.476L126.31 15.4468L125.37 15.476C125.295 15.4517 125.263 15.42 125.263 15.3422Z" fill="black"/>
<path d="M131.987 13.5787C131.987 14.7439 131.256 15.5758 130.081 15.5758C128.905 15.5758 128.172 14.7439 128.172 13.5787C128.172 12.4136 128.903 11.6182 130.081 11.6182C131.259 11.6182 131.987 12.4428 131.987 13.5787ZM130.081 15.1866C130.872 15.1866 131.254 14.7002 131.254 13.5787C131.254 12.4574 130.872 12.0025 130.081 12.0025C129.29 12.0025 128.905 12.4525 128.905 13.5739C128.905 14.6953 129.29 15.1866 130.081 15.1866Z" fill="black"/>
<path d="M133.854 12.1704H133.745V15.1186L134.336 15.0943C134.414 15.0943 134.446 15.1259 134.446 15.2037V15.3424C134.446 15.4202 134.414 15.4518 134.336 15.4518L133.555 15.4202L132.839 15.4518C132.761 15.4518 132.73 15.4202 132.73 15.3424V15.2037C132.73 15.1259 132.761 15.0943 132.839 15.0943L133.377 15.1186V12.0634L132.839 12.078C132.761 12.078 132.73 12.0463 132.73 11.9685V11.8274C132.73 11.752 132.761 11.7204 132.839 11.7204H134.421L135.325 13.6858L136.235 11.7204H137.773C137.852 11.7204 137.883 11.752 137.883 11.8274V11.9685C137.883 12.0463 137.852 12.078 137.773 12.078L137.221 12.0634V15.1113L137.773 15.0943C137.852 15.0943 137.883 15.1259 137.883 15.2037V15.3424C137.883 15.4202 137.852 15.4518 137.773 15.4518L136.834 15.4202L135.962 15.4518C135.885 15.4518 135.853 15.4202 135.853 15.3424V15.2037C135.853 15.1259 135.885 15.0943 135.962 15.0943L136.515 15.1186V12.1704H136.398L135.261 14.5883H134.991L133.854 12.1704Z" fill="black"/>
<path d="M142.453 13.5787C142.453 14.7439 141.722 15.5758 140.546 15.5758C139.371 15.5758 138.638 14.7439 138.638 13.5787C138.638 12.4136 139.368 11.6182 140.546 11.6182C141.724 11.6182 142.453 12.4428 142.453 13.5787ZM140.554 15.1866C141.347 15.1866 141.727 14.7002 141.727 13.5787C141.727 12.4574 141.335 12.0025 140.554 12.0025C139.772 12.0025 139.378 12.4525 139.378 13.5739C139.378 14.6953 139.753 15.1866 140.554 15.1866Z" fill="black"/>
<path d="M143.197 15.3421V15.2034C143.197 15.1256 143.229 15.094 143.307 15.094L143.884 15.1183V12.0533L143.307 12.0776C143.229 12.0776 143.197 12.0461 143.197 11.9682V11.8271C143.197 11.7517 143.229 11.7201 143.307 11.7201L144.217 11.7517L145.113 11.7201C145.191 11.7201 145.223 11.7517 145.223 11.8271V11.9682C145.223 12.0461 145.191 12.0776 145.113 12.0776L144.585 12.063V13.3061H146.56V12.0558L146.031 12.0704C145.953 12.0704 145.922 12.0387 145.922 11.9609V11.8198C145.922 11.7444 145.953 11.7128 146.031 11.7128L146.888 11.7444L147.838 11.7128C147.915 11.7128 147.947 11.7444 147.947 11.8198V11.9609C147.947 12.0387 147.915 12.0704 147.838 12.0704L147.261 12.0558V15.1037L147.838 15.0867C147.915 15.0867 147.947 15.1183 147.947 15.1961V15.3348C147.947 15.4126 147.915 15.4442 147.838 15.4442L146.888 15.4126L146.031 15.4442C145.953 15.4442 145.922 15.4126 145.922 15.3348V15.1961C145.922 15.1183 145.953 15.0867 146.031 15.0867L146.56 15.1037V13.6442H144.59V15.1037L145.118 15.0867C145.196 15.0867 145.228 15.1183 145.228 15.1961V15.3348C145.228 15.4126 145.196 15.4442 145.118 15.4442L144.178 15.4126L143.317 15.4442C143.229 15.4516 143.197 15.4199 143.197 15.3421Z" fill="black"/>
<path d="M152.504 13.5787C152.504 14.7439 151.774 15.5758 150.6 15.5758C149.427 15.5758 148.687 14.7439 148.687 13.5787C148.687 12.4136 149.418 11.6182 150.596 11.6182C151.774 11.6182 152.504 12.4428 152.504 13.5787ZM150.6 15.1866C151.392 15.1866 151.774 14.7002 151.774 13.5787C151.774 12.4574 151.392 12.0025 150.6 12.0025C149.809 12.0025 149.422 12.4525 149.422 13.5739C149.422 14.6953 149.804 15.1866 150.6 15.1866Z" fill="black"/>
<path d="M155.043 15.5512C153.921 15.5512 153.191 14.7606 153.191 13.5614C153.18 13.3149 153.219 13.0687 153.305 12.8375C153.392 12.6063 153.524 12.3949 153.694 12.2159C153.863 12.0367 154.068 11.8937 154.294 11.7951C154.521 11.6965 154.765 11.6445 155.011 11.6422C155.866 11.6422 156.451 12.0533 156.451 12.6687C156.456 12.7326 156.449 12.797 156.43 12.8582C156.41 12.9195 156.379 12.9762 156.338 13.0253C156.296 13.0743 156.245 13.1147 156.188 13.1441C156.131 13.1735 156.069 13.1913 156.005 13.1965H155.993C155.879 13.2018 155.768 13.162 155.685 13.0859C155.601 13.0097 155.55 12.9034 155.545 12.7903C155.543 12.7692 155.543 12.7481 155.545 12.7271C155.543 12.5341 155.615 12.3477 155.747 12.2065C155.538 12.0478 155.278 11.9732 155.017 11.9973C154.376 11.9973 153.965 12.44 153.965 13.5614C153.965 14.6828 154.386 15.1012 155.102 15.1012C155.389 15.112 155.671 15.0281 155.906 14.8623C156.141 14.6965 156.314 14.4582 156.399 14.1841L156.696 14.2839C156.616 14.6567 156.406 14.9888 156.103 15.2209C155.8 15.4531 155.424 15.5701 155.043 15.5512Z" fill="black"/>
<path d="M161.003 13.5787C161.003 14.7439 160.272 15.5758 159.094 15.5758C157.916 15.5758 157.188 14.7439 157.188 13.5787C157.188 12.4136 157.904 11.6182 159.094 11.6182C160.284 11.6182 161.003 12.4428 161.003 13.5787ZM159.094 15.1866C159.89 15.1866 160.27 14.7002 160.27 13.5787C160.27 12.4574 159.89 12.0073 159.094 12.0073C158.298 12.0073 157.921 12.4574 157.921 13.5787C157.921 14.7002 158.303 15.1866 159.094 15.1866Z" fill="black"/>
<path d="M161.748 15.2037C161.748 15.1259 161.779 15.0943 161.857 15.0943H162.434V12.0537L161.857 12.078C161.779 12.078 161.748 12.0463 161.748 11.9685V11.8274C161.748 11.752 161.779 11.7204 161.857 11.7204H163.861C164.749 11.7204 165.171 11.9928 165.171 12.6058C165.171 13.0169 164.912 13.2528 164.501 13.3867V13.4669C165.083 13.5594 165.412 13.8561 165.412 14.4034C165.412 15.0189 164.852 15.4445 163.951 15.4445H161.85C161.772 15.4445 161.74 15.4153 161.74 15.3375L161.748 15.2037ZM163.822 13.3064C164.235 13.2918 164.498 13.1969 164.498 12.708C164.498 12.2191 164.306 12.0537 163.747 12.0537H163.147V13.321L163.822 13.3064ZM163.956 15.0943C164.377 15.0943 164.686 14.9386 164.686 14.3645C164.686 13.844 164.467 13.664 163.936 13.664H163.145V15.0797L163.956 15.0943Z" fill="black"/>
<path d="M168.488 13.3352V12.8195C168.488 12.1433 168.318 12.0046 167.929 11.9803C167.708 11.9537 167.484 11.9778 167.274 12.0508C167.317 12.0991 167.351 12.1556 167.372 12.2171C167.393 12.2785 167.402 12.3436 167.398 12.4084C167.396 12.4645 167.383 12.5198 167.36 12.571C167.337 12.6222 167.305 12.6684 167.264 12.7068C167.223 12.7453 167.175 12.7752 167.122 12.795C167.069 12.8147 167.014 12.8239 166.957 12.8219H166.938C166.83 12.8286 166.723 12.7922 166.641 12.7207C166.56 12.6491 166.51 12.5483 166.502 12.44C166.501 12.4174 166.501 12.3946 166.502 12.3719C166.502 11.9681 167.016 11.6422 167.963 11.6422C168.788 11.6422 169.18 11.9924 169.18 12.693V14.6269C169.18 15.1328 169.494 15.0793 169.961 15.0233L170 15.3031C169.755 15.4373 169.479 15.5068 169.199 15.505C169.041 15.5091 168.886 15.4553 168.765 15.3536C168.644 15.2519 168.563 15.1094 168.54 14.9528C168.372 15.1367 168.167 15.2835 167.939 15.3841C167.711 15.4846 167.465 15.5365 167.215 15.5366C166.663 15.5366 166.142 15.2106 166.142 14.549C166.13 13.6709 166.877 13.4301 168.488 13.3352ZM167.415 15.055C167.617 15.0559 167.817 15.0146 168.001 14.9338C168.186 14.8529 168.352 14.7343 168.488 14.5855V13.6855C167.237 13.7779 166.845 13.9117 166.845 14.4663C166.836 14.6107 166.884 14.753 166.98 14.8619C167.075 14.9709 167.21 15.0377 167.354 15.0476H167.415V15.055Z" fill="black"/>
</svg>
