<svg width="170" height="52" viewBox="0 0 170 52" fill="none" xmlns="http://www.w3.org/2000/svg">
<path fill-rule="evenodd" clip-rule="evenodd" d="M55.4069 11.6075V2.29614H54.7808V6.57853H49.1452V2.29614H48.5191V11.6075H49.1452V7.18454H54.7808V11.6075H55.4069ZM61.0632 4.86131C59.1841 4.86131 57.6697 6.39709 57.6697 8.29517C57.6697 10.1737 59.1841 11.6887 61.0632 11.6887C62.9613 11.6887 64.4971 10.1737 64.4971 8.29517C64.4971 6.39709 62.9619 4.86131 61.0632 4.86131ZM61.0834 5.44775C62.6186 5.44775 63.8911 6.67993 63.8911 8.29576C63.8911 9.89143 62.6186 11.1242 61.0834 11.1242C59.5482 11.1242 58.2757 9.89202 58.2757 8.29576C58.2757 6.67993 59.5482 5.44775 61.0834 5.44775ZM66.6584 4.96211V11.6075H70.1729C71.8095 11.6075 72.5163 10.941 72.5163 9.76928C72.5163 8.96166 72.0918 8.33549 71.1828 8.13329C71.9103 7.87001 72.1932 7.28416 72.1932 6.63842C72.1932 5.72941 71.6275 4.96152 70.1326 4.96152L66.6584 4.96211ZM67.2644 5.48807H70.1332C71.2444 5.48807 71.6073 6.03301 71.6073 6.6995C71.6073 7.36658 71.2444 7.91092 70.1332 7.91092H67.2644V5.48807ZM67.2644 11.0833V8.3764L70.1931 8.39656C71.4656 8.39656 71.9103 8.92252 71.9103 9.72955C71.9103 10.5573 71.4656 11.0833 70.1729 11.0833H67.2644ZM77.7279 4.86131C75.8494 4.86131 74.3338 6.39709 74.3338 8.29517C74.3338 10.1737 75.8494 11.6887 77.7279 11.6887C79.6266 11.6887 81.1624 10.1737 81.1624 8.29517C81.1624 6.39709 79.6272 4.86131 77.7279 4.86131ZM77.7487 5.44775C79.2838 5.44775 80.5552 6.67993 80.5552 8.29576C80.5552 9.89143 79.2832 11.1242 77.7487 11.1242C76.2141 11.1242 74.941 9.89202 74.941 8.29576C74.9404 6.67993 76.2135 5.44775 77.7487 5.44775ZM86.333 4.86131C84.4349 4.86131 82.9187 6.39709 82.9187 8.29517C82.9187 10.1737 84.4349 11.6887 86.333 11.6887C87.3837 11.6887 88.3331 11.2244 88.9598 10.4767L88.5756 10.0723C88.0105 10.7388 87.2219 11.123 86.3336 11.123C84.7777 11.123 83.5265 9.89083 83.5265 8.29457C83.5265 6.67874 84.7777 5.44656 86.3336 5.44656C87.2219 5.44656 88.0105 5.82962 88.5756 6.49611L88.9598 6.11306C88.3331 5.34576 87.3843 4.86131 86.333 4.86131ZM96.937 11.6075V4.96211H96.5948L91.6454 10.5372V4.96211H91.0595V11.6075H91.3827L96.312 6.03301V11.6075H96.937ZM104.776 2.29614C104.776 2.84167 104.411 3.00236 103.059 3.00236C100.594 3.00236 99.0989 4.11417 99.0989 6.41606V8.25484C99.0989 10.2146 100.553 11.7095 102.513 11.7095C104.493 11.7095 105.928 10.1737 105.928 8.29517C105.928 6.43681 104.473 4.94254 102.575 4.94254C101.301 4.94254 100.191 5.70925 99.7061 6.8003V6.27553C99.7061 4.35669 100.958 3.52832 103.018 3.52832H103.201C104.736 3.52832 105.383 3.20516 105.383 2.29614H104.776ZM102.513 5.50764C104.069 5.50764 105.32 6.73982 105.32 8.31473C105.32 9.89083 104.109 11.1432 102.513 11.1432C100.896 11.1432 99.7055 9.89143 99.7055 8.31473C99.7055 6.73982 100.977 5.50764 102.513 5.50764ZM113.966 11.6075V4.96211H113.643L108.694 10.5372V4.96211H108.088V11.6075H108.432L113.361 6.03301V11.6075H113.966ZM120.026 4.86131C118.733 4.86131 117.603 5.64876 117.098 6.73982L117.077 4.96211H116.613V14.0511H117.198V9.91099C117.704 10.9617 118.773 11.6887 120.026 11.6887C121.925 11.6887 123.4 10.1737 123.4 8.29517C123.399 6.39709 121.925 4.86131 120.026 4.86131ZM119.986 5.44775C121.541 5.44775 122.794 6.67993 122.794 8.29576C122.794 9.89143 121.541 11.1242 119.986 11.1242C118.45 11.1242 117.197 9.89202 117.197 8.29576C117.197 6.67993 118.45 5.44775 119.986 5.44775ZM128.57 4.86131C126.693 4.86131 125.177 6.39709 125.177 8.29517C125.177 10.1737 126.693 11.6887 128.57 11.6887C129.621 11.6887 130.57 11.2244 131.197 10.4767L130.813 10.0723C130.248 10.7388 129.46 11.123 128.571 11.123C127.035 11.123 125.764 9.89083 125.764 8.29457C125.764 6.67874 127.036 5.44656 128.571 5.44656C129.46 5.44656 130.248 5.82962 130.813 6.49611L131.197 6.11306C130.57 5.34576 129.621 4.86131 128.57 4.86131ZM138.388 11.6075H139.074L137.822 9.68923C137.256 8.81994 136.933 8.31533 136.328 8.13388C136.811 7.93168 137.135 7.44723 137.64 6.65918L138.771 4.9627H138.064L137.156 6.37692C136.428 7.48755 136.186 7.89195 135.075 7.89195H133.963V4.96211H133.357V11.6075H133.963V8.45645H135.256C136.368 8.45645 136.629 8.84069 137.337 9.97266L138.388 11.6075ZM146.731 11.6075V4.96211H146.407L141.458 10.5372V4.96211H140.853V11.6075H141.175L146.125 6.03301V11.6075H146.731ZM152.225 4.09342C153.234 4.09342 154.042 3.40677 154.042 2.49834H153.578C153.578 3.14408 152.992 3.62913 152.225 3.62913C151.457 3.62913 150.891 3.14408 150.891 2.49834H150.406C150.406 3.40677 151.215 4.09342 152.225 4.09342ZM155.174 11.6075V4.96211H154.85L149.902 10.5372V4.96211H149.295V11.6075H149.639L154.568 6.03301V11.6075H155.174ZM48.9839 17.6883H53.5693V17.1025H48.3779V23.768H48.9839V17.6883ZM58.0533 17.0218C56.1541 17.0218 54.6402 18.5363 54.6402 20.4349C54.6402 22.3134 56.1547 23.8486 58.0533 23.8486C59.9313 23.8486 61.467 22.3134 61.467 20.4349C61.467 18.5363 59.9318 17.0218 58.0533 17.0218ZM58.0533 17.5869C59.5885 17.5869 60.8616 18.8191 60.8616 20.4349C60.8616 22.0519 59.5891 23.2634 58.0533 23.2634C56.5181 23.2634 55.2658 22.0519 55.2658 20.4349C55.2658 18.8191 56.5181 17.5869 58.0533 17.5869ZM66.6383 17.0218C64.7604 17.0218 63.2441 18.5363 63.2441 20.4349C63.2441 22.3134 64.7598 23.8486 66.6383 23.8486C67.6884 23.8486 68.6383 23.3642 69.2639 22.617L68.9004 22.2132C68.3152 22.8797 67.5271 23.2634 66.6383 23.2634C65.1031 23.2634 63.8306 22.0519 63.8306 20.4349C63.8306 18.8191 65.1031 17.6077 66.6383 17.6077C67.5271 17.6077 68.3152 17.9706 68.9004 18.6371L69.2639 18.2534C68.6378 17.4861 67.6884 17.0218 66.6383 17.0218ZM77.5868 17.1025H76.96V20.1734C76.96 22.0715 75.9099 23.223 74.3142 23.223C72.9 23.223 71.9708 22.3953 71.9708 20.6383V17.1031H71.3654V20.6786C71.3654 22.6775 72.4962 23.8089 74.2531 23.8089C75.2238 23.8089 76.4352 23.3244 76.96 22.0519V23.0208C76.96 24.7588 76.1109 25.7277 74.3954 25.7479C73.4046 25.7479 72.6373 25.4247 71.9506 24.9L71.5866 25.2836C72.3147 25.9104 73.2635 26.3136 74.3954 26.2934C76.4756 26.2934 77.5868 24.98 77.5868 22.9402V17.1025ZM86.9188 25.3642V23.1827H86.0697L83.2822 17.1025H82.959L80.1513 23.1827H79.3034V25.3642H79.9088V23.7686H86.3324V25.3642H86.9188ZM83.1013 18.1123L85.4436 23.1827H80.7781L83.1013 18.1123ZM94.6547 23.768V17.1025H94.191L94.1702 18.8796C93.665 17.769 92.5348 17.0218 91.2208 17.0218C89.3417 17.0218 87.8682 18.5363 87.8682 20.4349C87.8682 22.3134 89.3417 23.8486 91.2208 23.8486C92.5348 23.8486 93.665 23.0813 94.1702 21.9903L94.191 23.768H94.6547ZM91.2825 23.2634C89.7265 23.2634 88.4742 22.0519 88.4742 20.4349C88.4742 18.8191 89.7265 17.5869 91.2825 17.5869C92.7969 17.5869 94.0896 18.8191 94.0896 20.4349C94.0896 22.0519 92.7969 23.2634 91.2825 23.2634ZM100.715 17.0218C99.4227 17.0218 98.2913 17.7885 97.7867 18.8796L97.7464 17.1025H97.2815V26.2122H97.8881V22.0513C98.372 23.1009 99.4636 23.848 100.715 23.848C102.615 23.848 104.089 22.3128 104.089 20.4343C104.089 18.5363 102.614 17.0218 100.715 17.0218ZM100.674 17.6077C102.23 17.6077 103.483 18.8191 103.483 20.4349C103.483 22.0519 102.23 23.2634 100.674 23.2634C99.1393 23.2634 97.8674 22.0519 97.8674 20.4349C97.8668 18.8191 99.1393 17.6077 100.674 17.6077ZM109.26 17.0218C107.381 17.0218 105.846 18.5363 105.846 20.4349C105.846 22.3134 107.381 23.8486 109.26 23.8486C110.31 23.8486 111.259 23.3642 111.885 22.617L111.502 22.2132C110.936 22.8797 110.148 23.2634 109.26 23.2634C107.725 23.2634 106.452 22.0519 106.452 20.4349C106.452 18.8191 107.725 17.6077 109.26 17.6077C110.148 17.6077 110.936 17.9706 111.502 18.6371L111.885 18.2534C111.259 17.4861 110.31 17.0218 109.26 17.0218ZM116.431 17.6883H119.058V17.1025H113.219V17.6883H115.824V23.768H116.431V17.6883ZM120.854 17.1025V23.768H124.37C126.026 23.768 126.712 23.0813 126.712 21.9096C126.712 21.102 126.308 20.4954 125.399 20.2736C126.106 20.0305 126.409 19.4459 126.409 18.7788C126.409 17.8698 125.824 17.1025 124.349 17.1025H120.854ZM121.48 17.6486H124.33C125.44 17.6486 125.803 18.1929 125.803 18.8399C125.803 19.5063 125.44 20.0519 124.33 20.0519H121.48V17.6486ZM121.48 23.2225V20.5357H124.389C125.661 20.5357 126.106 21.0819 126.106 21.8895C126.106 22.7172 125.661 23.2225 124.389 23.2225H121.48ZM131.924 17.0218C129.924 17.0218 128.53 18.5363 128.53 20.4349C128.53 22.4753 129.965 23.8297 132.065 23.8486C133.196 23.8486 134.126 23.4247 134.852 22.8186L134.508 22.4558C133.842 22.9805 133.035 23.3043 132.065 23.3043C130.348 23.2841 129.156 22.2541 129.156 20.5363H135.075C135.175 20.174 135.115 19.4862 134.933 19.0421C134.469 17.8502 133.398 17.0218 131.924 17.0218ZM131.944 17.5674C133.156 17.5674 134.025 18.2333 134.408 19.2027C134.508 19.4862 134.569 19.8295 134.549 20.0922H129.176C129.277 18.6981 130.368 17.5674 131.944 17.5674ZM143.176 23.768V17.1025H142.569V20.1325H137.863V17.1025H137.278V23.768H137.863V20.6976H142.569V23.768H143.176ZM151.618 23.768V17.1025H151.033V20.1325H146.327V17.1025H145.741V23.768H146.327V20.6976H151.033V23.768H151.618ZM154.79 19.3854V17.1025H154.183V23.768H157.457C159.415 23.768 160.041 22.6769 160.041 21.5657C160.041 20.4753 159.415 19.3848 157.457 19.3848L154.79 19.3854ZM161.557 23.768V17.1025H160.95V23.768H161.557ZM154.81 23.2029V19.9505H157.517C158.971 19.9505 159.435 20.6982 159.435 21.5663C159.435 22.4356 158.971 23.2035 157.517 23.2035L154.81 23.2029ZM167.05 16.2344C168.061 16.2344 168.848 15.5465 168.848 14.6375H168.383C168.383 15.285 167.798 15.7689 167.05 15.7689C166.284 15.7689 165.698 15.285 165.698 14.6375H165.233C165.233 15.5465 166.041 16.2344 167.05 16.2344ZM170 23.768V17.1025H169.658L164.708 22.6769V17.1025H164.122V23.768H164.445L169.374 18.1929V23.768H170ZM54.5993 29.263H53.9737V32.3328C53.9737 34.2314 52.923 35.3628 51.3273 35.3628C49.9131 35.3628 48.9839 34.5558 48.9839 32.7976V29.263H48.3779V32.8184C48.3779 34.8173 49.5087 35.9487 51.2669 35.9487C52.2364 35.9487 53.4478 35.4838 53.9737 34.1905V35.1814C53.9737 36.898 53.1246 37.8675 51.408 37.8871C50.4385 37.8871 49.651 37.5639 48.9638 37.0391L48.5997 37.4228C49.3468 38.0478 50.2766 38.4528 51.4074 38.4528C53.5083 38.432 54.5987 37.1192 54.5987 35.0794L54.5993 29.263ZM62.9827 35.9083V29.263H62.3968V32.2729H57.6898V29.263H57.0844V35.9083H57.6898V32.838H62.3968V35.9083H62.9827ZM71.4253 35.9083V29.263H71.1027L66.1532 34.8173V29.263H65.5478V35.9083H65.8911L70.8205 30.3333V35.9083H71.4253ZM73.991 29.263V35.9083H77.5061C79.1629 35.9083 79.8489 35.2223 79.8489 34.05C79.8489 33.2418 79.4445 32.6358 78.5361 32.4134C79.2429 32.1709 79.5465 31.5856 79.5465 30.9185C79.5465 30.0101 78.9802 29.263 77.4848 29.263H73.991ZM74.6172 29.7884H77.4658C78.5966 29.7884 78.9393 30.3333 78.9393 30.9802C78.9393 31.6467 78.5966 32.2118 77.4658 32.2118H74.6172V29.7884ZM74.6172 35.3628V32.6767H77.5459C78.7982 32.6962 79.2423 33.2222 79.2423 34.0292C79.2423 34.857 78.7982 35.3628 77.5251 35.3628H74.6172ZM85.0611 29.1616C83.061 29.1616 81.6664 30.6974 81.6664 32.5747C81.6664 34.6364 83.1013 35.97 85.2016 35.989C86.333 35.989 87.2634 35.5644 87.9892 34.9786L87.6458 34.5955C86.9787 35.1203 86.1717 35.4435 85.2016 35.4435C83.485 35.4239 82.2931 34.3939 82.2931 32.6767H88.2121C88.3123 32.3328 88.2524 31.6467 88.0911 31.1818C87.6055 29.99 86.5352 29.1616 85.0611 29.1616ZM85.0807 29.7267C86.2927 29.7267 87.1614 30.3938 87.5456 31.3639C87.6458 31.6254 87.7063 31.9894 87.6856 32.2521H82.3329C82.4141 30.8379 83.5051 29.7267 85.0807 29.7267ZM94.3528 29.1616C93.0388 29.1616 91.9092 29.9295 91.4034 31.0205L91.3827 29.263H90.9178V38.3519H91.5244V34.1905C92.0089 35.2626 93.0792 35.9884 94.3528 35.9884C96.2302 35.9884 97.7055 34.474 97.7055 32.5741C97.7055 30.6974 96.2302 29.1616 94.3528 29.1616ZM94.3119 29.7468C95.8471 29.7468 97.119 30.9589 97.119 32.5747C97.119 34.1911 95.8465 35.4031 94.3119 35.4031C92.7773 35.4031 91.5037 34.1911 91.5037 32.5747C91.5037 30.9589 92.7767 29.7468 94.3119 29.7468ZM102.897 29.1616C100.999 29.1616 99.4826 30.6974 99.4826 32.5747C99.4826 34.4746 100.999 35.989 102.897 35.989C103.948 35.989 104.876 35.5051 105.503 34.7574L105.139 34.3536C104.573 35.0189 103.786 35.4031 102.897 35.4031C101.342 35.4031 100.09 34.1911 100.09 32.5747C100.09 30.9589 101.342 29.7468 102.897 29.7468C103.786 29.7468 104.573 30.1109 105.139 30.7774L105.503 30.3938C104.876 29.646 103.948 29.1616 102.897 29.1616ZM113.481 35.9083V29.263H113.158L108.209 34.8173V29.263H107.603V35.9083H107.946L112.875 30.3333V35.9083H113.481ZM118.511 29.8287H121.136V29.263H115.28V29.8287H117.905V35.9083H118.511V29.8287ZM125.924 29.1616C123.925 29.1616 122.531 30.6974 122.531 32.5747C122.531 34.6364 123.964 35.97 126.066 35.989C127.196 35.989 128.126 35.5644 128.854 34.9786L128.51 34.5955C127.843 35.1203 127.035 35.4435 126.066 35.4435C124.349 35.4239 123.157 34.3939 123.157 32.6767H129.075C129.176 32.3328 129.115 31.6467 128.935 31.1818C128.47 29.99 127.399 29.1616 125.924 29.1616ZM125.945 29.7267C127.156 29.7267 128.026 30.3938 128.409 31.3639C128.51 31.6254 128.57 31.9894 128.55 32.2521H123.198C123.278 30.8379 124.37 29.7267 125.945 29.7267ZM133.5 29.8287H136.125V29.263H130.268V29.8287H132.893V35.9083H133.5V29.8287Z" fill="#434343"/>
<path fill-rule="evenodd" clip-rule="evenodd" d="M15.796 50.1282V41.7259H14.5034V45.2801H10.6248V41.7259H9.33154V50.1282H10.6248V46.5135H14.5034V50.1282H15.796ZM19.6343 48.2503H22.9063L23.6736 50.1282H25.108L21.6741 41.7259H20.9056L17.432 50.1282H18.8664L19.6343 48.2503ZM21.2703 44.0895L22.4627 47.0175H20.0992L21.2703 44.0895ZM29.8748 41.6453C27.4917 41.6453 25.593 43.5647 25.593 45.9282C25.593 48.2918 27.4923 50.2302 29.8748 50.2302C31.107 50.2302 32.2378 49.6847 33.0466 48.8367L32.198 48.0487C31.5926 48.6541 30.7838 48.998 29.8754 48.998C28.1991 48.998 26.8857 47.7249 26.8857 45.9277C26.8857 44.1499 28.1991 42.8763 29.8754 42.8763C30.7844 42.8763 31.5926 43.2202 32.198 43.8256L33.0472 43.0381C32.2384 42.1908 31.107 41.6453 29.8748 41.6453ZM37.9753 42.9575H40.4402V41.7259H34.2183V42.9575H36.6826V50.1282H37.9759L37.9753 42.9575ZM45.8333 41.6453C43.4703 41.6453 41.571 43.5647 41.571 45.9282C41.571 48.3114 43.4703 50.2302 45.8333 50.2302C48.217 50.2302 50.1352 48.3114 50.1352 45.9282C50.1352 43.5647 48.2164 41.6453 45.8333 41.6453ZM45.8333 42.8769C47.5096 42.8769 48.8426 44.1499 48.8426 45.9282C48.8426 47.7249 47.5096 48.9986 45.8333 48.9986C44.1771 48.9986 42.8631 47.7255 42.8631 45.9282C42.8631 44.1499 44.1771 42.8769 45.8333 42.8769ZM57.9724 50.1282V41.7259H55.2057C52.9435 41.7259 51.5696 42.9978 51.5696 44.836C51.5696 46.1696 52.3369 47.078 53.5495 47.5032C53.1249 47.7048 52.7419 48.1293 52.2159 48.9364L51.4486 50.1282H52.9032L53.5092 49.1783C54.1952 48.1287 54.4988 47.9467 55.3474 47.9277H56.681V50.1282H57.9724ZM56.6804 42.9575V46.7151H55.0847C53.8122 46.7151 52.7816 46.1488 52.7816 44.836C52.7816 43.5641 53.8116 42.9575 55.0847 42.9575H56.6804ZM71.7286 51.6842V48.9174H70.6376V41.7259H69.3449V48.9174H66.1933V41.7259H64.9012V48.9174H61.7704V41.7259H60.4777V50.1282H70.436V51.6842H71.7286ZM75.2034 48.2503H78.476L79.2439 50.1282H80.6581L77.2236 41.7259H76.4765L73.0017 50.1282H74.4367L75.2034 48.2503ZM76.8394 44.0895L78.0306 47.0175H75.6469L76.8394 44.0895ZM88.2723 50.1282V41.7259H85.5056C83.2636 41.7259 81.8701 42.9978 81.8701 44.836C81.8701 46.1696 82.6368 47.078 83.8494 47.5032C83.4456 47.7048 83.0406 48.1293 82.5158 48.9364L81.7474 50.1282H83.2019L83.8287 49.1783C84.5159 48.1287 84.7988 47.9467 85.6674 47.9277H86.9797V50.1282H88.2723ZM86.9791 42.9575V46.7151H85.3846C84.1323 46.7151 83.0809 46.1488 83.0809 44.836C83.0809 43.5641 84.1317 42.9575 85.3846 42.9575H86.9791ZM101.179 50.1282V41.7259H99.8867V45.2801H96.0087V41.7259H94.7155V50.1282H96.0087V46.5135H99.8867V50.1282H101.179ZM105.018 48.2503H108.291L109.058 50.1282H110.493L107.059 41.7259H106.291L102.817 50.1282H104.25L105.018 48.2503ZM106.674 44.0895L107.847 47.0175H105.484L106.674 44.0895ZM113.845 50.1282L118.733 41.7259H117.259L114.875 45.7859L112.471 41.7259H110.998L114.127 47.1189L112.35 50.1282H113.845ZM125.924 50.1282H127.4L125.4 47.0383C124.894 46.2502 124.632 45.9674 124.268 45.8464C124.572 45.6857 124.833 45.4011 125.319 44.6943L127.237 41.7259H125.743L124.125 44.2905C123.641 44.9973 123.439 45.2398 122.732 45.2398H121.742V41.7259H120.449V50.1282H121.742V46.4928H122.813C123.541 46.4928 123.742 46.7347 124.206 47.4628L125.924 50.1282ZM130.672 48.2503H133.944L134.692 50.1282H136.126L132.692 41.7259H131.945L128.471 50.1282H129.904L130.672 48.2503ZM132.307 44.0895L133.5 47.0175H131.116L132.307 44.0895Z" fill="#434343"/>
<path fill-rule="evenodd" clip-rule="evenodd" d="M30.582 6.8205L35.4503 8.41616L32.5412 12.4157L35.187 14.3547L38.0362 10.437L40.7828 14.2343L43.4488 12.2953L40.5604 8.33552L45.2265 6.8199L44.2173 3.7104L39.5506 5.22542V0.315674C38.4602 0.315674 37.3697 0.315674 36.2585 0.315674V5.22483L31.6126 3.7098L30.582 6.8205Z" fill="#1DBFEA"/>
<path fill-rule="evenodd" clip-rule="evenodd" d="M7.61545 43.3625L5.09001 44.1695L6.60563 46.2698L5.23232 47.2802L3.73746 45.2398L2.30307 47.2209L0.929769 46.2105L2.42463 44.1499L0 43.3625L0.524774 41.7259L2.94881 42.5134V39.9678C3.51391 39.9678 4.09976 39.9678 4.66604 39.9678V42.5134L7.08949 41.7259L7.61545 43.3625Z" fill="#434343"/>
<path d="M27.3097 35.9083V2.29614H19.1487V20.7783L5.2318 2.29614H0.323242V35.9083H8.48362V17.4256L22.4011 35.9083H27.3097Z" fill="#434343"/>
</svg>
