<svg width="171" height="38" viewBox="0 0 171 38" fill="none" xmlns="http://www.w3.org/2000/svg">
<path fill-rule="evenodd" clip-rule="evenodd" d="M16.1006 21.0712C14.6217 19.6089 11.2465 17.3849 8.37685 17.3849C3.75052 17.3849 0 13.6344 0 9.00795C0 4.38162 3.75052 0.631104 8.37685 0.631104C13.0033 0.631104 16.7538 4.38162 16.7538 9.00795C16.7538 11.9543 18.3093 15.4499 19.7726 16.9042C21.236 18.3585 25.5495 20.6152 28.9633 20.6152C33.5898 20.6152 37.3403 24.3657 37.3403 28.9921C37.3403 33.6185 33.5898 37.369 28.9633 37.369C24.337 37.369 20.5865 33.6185 20.5865 28.9921C20.5865 25.7758 17.5795 22.5335 16.1006 21.0712Z" fill="#0264BB"/>
<path fill-rule="evenodd" clip-rule="evenodd" d="M7.55561 22.2578C11.7284 22.2578 15.1112 25.6406 15.1112 29.8134C15.1112 33.9862 11.7284 37.369 7.55561 37.369C3.38278 37.369 0 33.9862 0 29.8134C0 25.6406 3.38278 22.2578 7.55561 22.2578ZM29.7847 0.631104C33.9575 0.631104 37.3403 4.01388 37.3403 8.18671C37.3403 12.3595 33.9575 15.7423 29.7847 15.7423C25.6118 15.7423 22.2291 12.3595 22.2291 8.18671C22.2291 4.01388 25.6118 0.631104 29.7847 0.631104Z" fill="#001F75"/>
<path d="M47.7604 12.3688L45.8736 11.9422C46.2796 10.4338 47.4327 9.67966 49.3328 9.67966C50.4567 9.67966 51.3066 9.9188 51.8796 10.3972C52.4528 10.8756 52.7384 11.4379 52.7384 12.0844C52.7384 12.5261 52.6067 12.9248 52.3458 13.2824C52.0849 13.638 51.6924 13.9505 51.1705 14.2219C51.8039 14.4331 52.2811 14.7305 52.5978 15.1162C52.9146 15.5041 53.0728 15.9782 53.0728 16.5448C53.0728 17.3593 52.7652 18.0166 52.1473 18.5186C51.5318 19.0207 50.6084 19.2729 49.3796 19.2729C48.3783 19.2729 47.5865 19.1112 47.0067 18.788C46.4269 18.4648 45.9919 17.8593 45.6997 16.9715L47.4661 16.4155C47.6489 16.9737 47.8942 17.3357 48.1976 17.4994C48.5009 17.6653 48.8755 17.7473 49.3216 17.7473C49.9327 17.7473 50.3787 17.6201 50.6598 17.3637C50.9385 17.1073 51.0791 16.8142 51.0791 16.4823C51.0791 16.1032 50.9207 15.795 50.604 15.5623C50.2895 15.3296 49.8122 15.2132 49.1767 15.2132H48.7373V13.8169H48.9581C49.549 13.8169 50.0018 13.6876 50.3141 13.4312C50.6285 13.1747 50.7847 12.8321 50.7847 12.4076C50.7847 12.0693 50.6576 11.7849 50.4033 11.5522C50.1491 11.3215 49.7855 11.2052 49.3127 11.2052C48.5032 11.2052 47.9857 11.5931 47.7604 12.3688ZM63.4101 19.1048H61.3203L60.4928 16.9973H56.6502L55.854 19.1048H53.8021L57.5222 9.84768H59.5718L63.4101 19.1048ZM59.8639 15.433L58.5325 12.0068L57.239 15.433H59.8639ZM63.865 14.5323C63.865 13.5885 64.0122 12.7955 64.3043 12.1533C64.5207 11.6815 64.8195 11.2569 65.1965 10.882C65.5734 10.507 65.9859 10.2291 66.4343 10.0459C67.032 9.80244 67.721 9.67966 68.5017 9.67966C69.9156 9.67966 71.0442 10.1041 71.8938 10.951C72.7414 11.7999 73.1651 12.9787 73.1651 14.4892C73.1651 15.9868 72.7436 17.1589 71.9028 18.0036C71.062 18.8505 69.9357 19.2729 68.5285 19.2729C67.1033 19.2729 65.9681 18.8527 65.1274 18.0101C64.2865 17.1698 63.865 16.0105 63.865 14.5323ZM65.8589 14.4698C65.8589 15.5191 66.1109 16.3143 66.6127 16.8573C67.1144 17.3982 67.7523 17.6696 68.524 17.6696C69.2979 17.6696 69.9313 17.4003 70.4286 16.8637C70.9237 16.325 71.1713 15.5191 71.1713 14.4439C71.1713 13.3816 70.9305 12.5886 70.4465 12.0672C69.9648 11.5435 69.3246 11.2828 68.524 11.2828C67.7255 11.2828 67.081 11.5478 66.5926 12.0758C66.1041 12.6058 65.8589 13.4031 65.8589 14.4698ZM84.682 14.5323C84.682 13.5885 84.8292 12.7955 85.1213 12.1533C85.3377 11.6815 85.6365 11.2569 86.0135 10.882C86.3904 10.507 86.8029 10.2291 87.2513 10.0459C87.849 9.80244 88.538 9.67966 89.3187 9.67966C90.7326 9.67966 91.8612 10.1041 92.7108 10.951C93.5584 11.7999 93.9821 12.9787 93.9821 14.4892C93.9821 15.9868 93.5606 17.1589 92.7198 18.0036C91.879 18.8505 90.7527 19.2729 89.3455 19.2729C87.9203 19.2729 86.7851 18.8527 85.9444 18.0101C85.1035 17.1698 84.682 16.0105 84.682 14.5323ZM86.6758 14.4698C86.6758 15.5191 86.9279 16.3143 87.4297 16.8573C87.9314 17.3982 88.5693 17.6696 89.341 17.6696C90.1149 17.6696 90.7483 17.4003 91.2456 16.8637C91.7407 16.325 91.9883 15.5191 91.9883 14.4439C91.9883 13.3816 91.7474 12.5886 91.2634 12.0672C90.7818 11.5435 90.1416 11.2828 89.341 11.2828C88.5425 11.2828 87.898 11.5478 87.4096 12.0758C86.9211 12.6058 86.6758 13.4031 86.6758 14.4698ZM94.0111 19.1048L97.3185 14.278L94.3189 9.84768H96.578L98.465 12.6037L100.352 9.84768H102.615L99.609 14.2801L102.91 19.1048H100.586L98.4626 15.9695L96.3372 19.1048H94.0111ZM106.061 19.1048V11.4121H103.224V9.84768H110.825V11.4121H108.001V19.1048H106.061ZM112.107 9.84768H113.914V16.0105L117.794 9.84768H119.721V19.1048H117.915V13.0412L114.034 19.1048H112.107V9.84768ZM121.7 19.1048V9.84768H123.64V13.4937H127.413V9.84768H129.354V19.1048H127.413V15.058H123.64V19.1048H121.7ZM131.136 16.6353V14.8641H134.749V16.6353H131.136ZM135.418 14.5323C135.418 13.5885 135.565 12.7955 135.857 12.1533C136.073 11.6815 136.372 11.2569 136.749 10.882C137.126 10.507 137.539 10.2291 137.987 10.0459C138.585 9.80244 139.274 9.67966 140.054 9.67966C141.468 9.67966 142.597 10.1041 143.447 10.951C144.294 11.7999 144.718 12.9787 144.718 14.4892C144.718 15.9868 144.296 17.1589 143.456 18.0036C142.615 18.8505 141.488 19.2729 140.081 19.2729C138.656 19.2729 137.521 18.8527 136.68 18.0101C135.839 17.1698 135.418 16.0105 135.418 14.5323ZM137.412 14.4698C137.412 15.5191 137.664 16.3143 138.165 16.8573C138.667 17.3982 139.305 17.6696 140.077 17.6696C140.851 17.6696 141.484 17.4003 141.981 16.8637C142.476 16.325 142.724 15.5191 142.724 14.4439C142.724 13.3816 142.483 12.5886 141.999 12.0672C141.518 11.5435 140.877 11.2828 140.077 11.2828C139.278 11.2828 138.634 11.5478 138.145 12.0758C137.657 12.6058 137.412 13.4031 137.412 14.4698ZM146.254 9.84768H148.061V16.0105L151.942 9.84768H153.868V19.1048H152.062V13.0412L148.181 19.1048H146.254V9.84768ZM151.206 7.17139H152.102C152.051 7.74246 151.841 8.19286 151.478 8.51817C151.114 8.84357 150.644 9.00728 150.066 9.00728C149.486 9.00728 149.015 8.84357 148.652 8.51817C148.288 8.19286 148.079 7.74246 148.027 7.17139H148.924C148.955 7.46881 149.062 7.69501 149.25 7.84808C149.437 8.00106 149.709 8.0765 150.066 8.0765C150.421 8.0765 150.693 8.00106 150.88 7.84808C151.067 7.69501 151.174 7.46881 151.206 7.17139ZM156.536 9.84768H163.247V19.1048H161.306V11.4121H158.429V15.364C158.429 16.4953 158.389 17.2861 158.311 17.7321C158.233 18.1804 158.044 18.5316 157.74 18.7815C157.437 19.0315 156.964 19.1565 156.32 19.1565C156.092 19.1565 155.682 19.1349 155.084 19.094V17.6438L155.517 17.6503C155.92 17.6503 156.195 17.5986 156.333 17.493C156.473 17.3873 156.543 17.1288 156.543 16.7173L156.536 15.1269V9.84768ZM80.1189 13.5971H78.2857V12.3279C78.2857 11.8129 78.3325 11.4078 78.4262 11.1126C78.5199 10.8152 78.6915 10.548 78.9436 10.3131C79.1956 10.0761 79.519 9.89081 79.9093 9.7572L80.2661 10.4942C79.9027 10.6126 79.644 10.7765 79.4856 10.9854C79.3273 11.1967 79.2447 11.4767 79.2358 11.8258H80.1189V13.5971ZM83.1833 13.5971H81.35V12.3279C81.35 11.8108 81.3969 11.4035 81.4905 11.1083C81.5843 10.8131 81.7581 10.548 82.0124 10.3131C82.2667 10.0761 82.5878 9.89081 82.9736 9.7572L83.3305 10.4942C82.9669 10.6126 82.7082 10.7765 82.5499 10.9854C82.3916 11.1967 82.309 11.4767 82.3001 11.8258H83.1833V13.5971ZM168.166 9.84768H170V11.1212C170 11.634 169.953 12.037 169.859 12.3322C169.766 12.6253 169.592 12.8924 169.34 13.1294C169.085 13.3665 168.764 13.554 168.378 13.6876L168.019 12.9506C168.385 12.8321 168.646 12.6683 168.804 12.4594C168.965 12.2481 169.045 11.968 169.05 11.619H168.166V9.84768ZM165.089 9.84768H166.922V11.1212C166.922 11.634 166.877 12.037 166.786 12.3322C166.695 12.6253 166.521 12.8924 166.266 13.1294C166.012 13.3665 165.689 13.554 165.298 13.6876L164.942 12.9506C165.31 12.8321 165.571 12.6683 165.727 12.4594C165.881 12.2481 165.963 11.968 165.972 11.619H165.089V9.84768Z" fill="#0264BB" stroke="#0264BB" stroke-width="0.288" stroke-miterlimit="22.9256"/>
<path d="M85.9878 23.8943H87.0741V25.3499H88.6442V23.8943H89.7305V27.8705H88.6442V26.2003H87.0741V27.8705H85.9878V23.8943ZM93.2036 26.614L94.2899 26.7903C94.1513 27.1746 93.9305 27.467 93.6305 27.6688C93.3291 27.8692 92.9525 27.9701 92.5019 27.9701C91.7869 27.9701 91.257 27.7441 90.9147 27.2921C90.6437 26.9294 90.5076 26.4723 90.5076 25.9195C90.5076 25.2605 90.6859 24.7434 91.0415 24.3706C91.397 23.9964 91.8477 23.81 92.3921 23.81C93.0027 23.81 93.4851 24.0053 93.8393 24.396C94.1921 24.7868 94.3613 25.3857 94.3455 26.1927H91.6257C91.6336 26.5043 91.7209 26.7468 91.8887 26.9205C92.0552 27.0942 92.2639 27.181 92.5124 27.181C92.683 27.181 92.8257 27.1363 92.9406 27.047C93.057 26.9576 93.1442 26.8132 93.2036 26.614ZM93.267 25.5491C93.2592 25.244 93.1786 25.0115 93.0239 24.8533C92.8692 24.6936 92.6816 24.6144 92.4595 24.6144C92.223 24.6144 92.0274 24.6987 91.8727 24.866C91.7181 25.0332 91.6429 25.2618 91.6455 25.5491H93.267ZM97.59 22.385H98.6763V24.4051C98.8071 24.2097 98.9644 24.0628 99.1469 23.9645C99.3292 23.8662 99.5381 23.8176 99.772 23.8176C100.212 23.8176 100.571 24.0245 100.85 24.437C101.129 24.8506 101.269 25.3436 101.269 25.9182C101.269 26.4953 101.113 26.9805 100.8 27.3764C100.488 27.7722 100.118 27.9701 99.6913 27.9701C99.4984 27.9701 99.3173 27.9229 99.1469 27.8297C98.9777 27.7364 98.8204 27.5972 98.6763 27.4121V29.3798H97.59V27.4121C97.4327 27.5972 97.2648 27.7364 97.0865 27.8297C96.908 27.9229 96.7177 27.9701 96.5169 27.9701C96.0754 27.9701 95.7094 27.7709 95.4213 27.3738C95.1332 26.9766 94.9891 26.4774 94.9891 25.8747C94.9891 25.2784 95.1544 24.7842 95.4834 24.3948C95.8125 24.0053 96.1693 23.81 96.5525 23.81C96.7601 23.81 96.9504 23.8573 97.1235 23.9518C97.2953 24.0475 97.4512 24.1892 97.59 24.3782V22.385ZM96.8644 24.6144C96.6649 24.6144 96.4891 24.7319 96.3399 24.9656C96.1904 25.1992 96.1152 25.507 96.1152 25.8901C96.1152 26.2757 96.1851 26.5847 96.3239 26.817C96.4639 27.0495 96.6372 27.1656 96.8446 27.1656C97.0548 27.1656 97.2332 27.0495 97.3786 26.817C97.5252 26.5847 97.598 26.2667 97.598 25.8632C97.598 25.4265 97.5186 25.1085 97.3601 24.9106C97.2014 24.7127 97.0362 24.6144 96.8644 24.6144ZM99.4085 24.6221C99.1865 24.6221 99.0068 24.7472 98.868 24.9975C98.7292 25.2491 98.6606 25.5618 98.6606 25.9386C98.6606 26.3153 98.7345 26.614 98.8825 26.835C99.0292 27.0559 99.205 27.1656 99.4085 27.1656C99.6107 27.1656 99.7851 27.0405 99.9319 26.7916C100.079 26.5425 100.151 26.2476 100.151 25.9092C100.151 25.5478 100.084 25.2427 99.9503 24.9937C99.8169 24.7459 99.6359 24.6221 99.4085 24.6221ZM101.577 23.8943H105.296V24.7447H103.98V27.8705H102.893V24.7447H101.577V23.8943ZM109.48 23.8943V27.8705H108.394V26.2233H108.293C108.058 26.2233 107.885 26.2527 107.775 26.3114C107.664 26.3702 107.543 26.494 107.408 26.683L107.342 26.7609L106.624 27.8705H105.357L106.137 26.72C106.359 26.3906 106.56 26.2016 106.739 26.1518C106.435 26.1339 106.188 26.0229 105.998 25.816C105.809 25.6104 105.714 25.3474 105.714 25.0269C105.714 24.7689 105.777 24.5493 105.903 24.3667C106.028 24.1841 106.195 24.0603 106.404 23.9939C106.611 23.9275 106.922 23.8943 107.333 23.8943H109.48ZM108.394 24.5685H107.613C107.325 24.5685 107.124 24.6081 107.006 24.6872C106.89 24.7664 106.832 24.8966 106.832 25.0793C106.832 25.2631 106.898 25.3946 107.03 25.4751C107.162 25.5555 107.379 25.5951 107.679 25.5951H108.394V24.5685ZM110.531 23.8943H111.617V25.3499H113.187V23.8943H114.274V27.8705H113.187V26.2003H111.617V27.8705H110.531V23.8943ZM116.177 25.1201L115.194 24.9516C115.305 24.5634 115.496 24.2761 115.767 24.0896C116.038 23.9032 116.441 23.81 116.975 23.81C117.46 23.81 117.822 23.8649 118.06 23.976C118.297 24.0871 118.464 24.2275 118.561 24.3986C118.657 24.5698 118.706 24.8825 118.706 25.3397L118.69 26.5656C118.69 26.9141 118.708 27.172 118.742 27.338C118.776 27.5041 118.841 27.6815 118.936 27.8705H117.858C117.83 27.8016 117.794 27.6994 117.753 27.5641C117.736 27.5015 117.723 27.4606 117.715 27.4415C117.53 27.6177 117.332 27.7492 117.12 27.8373C116.909 27.9254 116.684 27.9701 116.445 27.9701C116.023 27.9701 115.69 27.859 115.447 27.6369C115.204 27.4159 115.083 27.135 115.083 26.7954C115.083 26.5719 115.138 26.3715 115.249 26.1952C115.36 26.0203 115.515 25.885 115.716 25.7918C115.915 25.6985 116.203 25.6168 116.58 25.5466C117.087 25.4546 117.44 25.3678 117.636 25.2886V25.1827C117.636 24.9783 117.584 24.8328 117.481 24.7447C117.377 24.6578 117.181 24.6144 116.894 24.6144C116.7 24.6144 116.549 24.6514 116.441 24.7268C116.331 24.8009 116.244 24.9324 116.177 25.1201ZM117.636 25.9705C117.497 26.0151 117.276 26.0688 116.974 26.1314C116.672 26.1939 116.474 26.2552 116.382 26.314C116.24 26.4123 116.169 26.5349 116.169 26.6842C116.169 26.8324 116.226 26.9588 116.339 27.0661C116.453 27.1733 116.597 27.2269 116.773 27.2269C116.968 27.2269 117.156 27.1644 117.334 27.0405C117.465 26.9447 117.553 26.8299 117.594 26.6919C117.621 26.6026 117.636 26.4314 117.636 26.1799V25.9705ZM123.307 23.8943V27.8705H122.22V26.2233H122.12C121.885 26.2233 121.712 26.2527 121.602 26.3114C121.491 26.3702 121.369 26.494 121.234 26.683L121.168 26.7609L120.451 27.8705H119.183L119.963 26.72C120.185 26.3906 120.386 26.2016 120.566 26.1518C120.262 26.1339 120.015 26.0229 119.824 25.816C119.635 25.6104 119.54 25.3474 119.54 25.0269C119.54 24.7689 119.604 24.5493 119.729 24.3667C119.855 24.1841 120.021 24.0603 120.23 23.9939C120.438 23.9275 120.748 23.8943 121.159 23.8943H123.307ZM122.22 24.5685H121.439C121.151 24.5685 120.95 24.6081 120.833 24.6872C120.716 24.7664 120.658 24.8966 120.658 25.0793C120.658 25.2631 120.724 25.3946 120.857 25.4751C120.989 25.5555 121.205 25.5951 121.505 25.5951H122.22V24.5685ZM126.56 23.8943H127.647V25.5185C127.828 25.4981 127.956 25.4444 128.031 25.3576C128.105 25.2707 128.197 25.0805 128.302 24.7868C128.442 24.3948 128.594 24.1459 128.761 24.036C128.926 23.9262 129.143 23.8713 129.413 23.8713C129.496 23.8713 129.638 23.8776 129.843 23.8905L129.847 24.5838C129.559 24.5838 129.375 24.6093 129.296 24.6617C129.215 24.7166 129.128 24.88 129.036 25.152C128.909 25.5172 128.725 25.7432 128.487 25.8275C128.831 25.9195 129.122 26.2092 129.36 26.6958C129.371 26.7213 129.386 26.7468 129.402 26.7749L130.01 27.8705H128.84L128.298 26.7174C128.187 26.4851 128.091 26.3356 128.009 26.2692C127.928 26.2028 127.807 26.1697 127.647 26.1697V27.8705H126.56V23.8943ZM130.219 25.8339C130.219 25.484 130.307 25.1457 130.486 24.8187C130.664 24.4905 130.916 24.2416 131.243 24.0692C131.569 23.8968 131.933 23.81 132.336 23.81C132.958 23.81 133.467 24.0053 133.865 24.396C134.263 24.788 134.461 25.281 134.461 25.8785C134.461 26.4812 134.26 26.9805 133.859 27.3764C133.458 27.7722 132.953 27.9701 132.344 27.9701C131.967 27.9701 131.608 27.8871 131.265 27.7223C130.924 27.5576 130.664 27.3163 130.486 26.9971C130.307 26.6792 130.219 26.291 130.219 25.8339ZM131.337 25.8901C131.337 26.2846 131.433 26.5872 131.626 26.7967C131.82 27.0073 132.058 27.112 132.342 27.112C132.625 27.112 132.863 27.0073 133.055 26.7967C133.246 26.5872 133.343 26.2821 133.343 25.8823C133.343 25.4929 133.246 25.1929 133.055 24.9835C132.863 24.7728 132.625 24.6681 132.342 24.6681C132.058 24.6681 131.82 24.7728 131.626 24.9835C131.433 25.1929 131.337 25.4954 131.337 25.8901ZM135.243 23.8943H136.599L137.61 26.6652L138.638 23.8943H139.985V27.8705H139.057V25.2529L138.061 27.8705H137.127L136.171 25.2529V27.8705H135.243V23.8943ZM141.029 23.8943H144.685V27.8705H143.598V24.7447H142.115V27.8705H141.029V23.8943ZM146.675 25.1201L145.692 24.9516C145.803 24.5634 145.994 24.2761 146.265 24.0896C146.536 23.9032 146.939 23.81 147.473 23.81C147.958 23.81 148.32 23.8649 148.558 23.976C148.795 24.0871 148.963 24.2275 149.059 24.3986C149.156 24.5698 149.204 24.8825 149.204 25.3397L149.189 26.5656C149.189 26.9141 149.206 27.172 149.24 27.338C149.275 27.5041 149.339 27.6815 149.434 27.8705H148.356C148.328 27.8016 148.293 27.6994 148.252 27.5641C148.234 27.5015 148.221 27.4606 148.213 27.4415C148.028 27.6177 147.83 27.7492 147.619 27.8373C147.407 27.9254 147.182 27.9701 146.943 27.9701C146.522 27.9701 146.189 27.859 145.945 27.6369C145.702 27.4159 145.581 27.135 145.581 26.7954C145.581 26.5719 145.636 26.3715 145.747 26.1952C145.858 26.0203 146.013 25.885 146.214 25.7918C146.413 25.6985 146.701 25.6168 147.078 25.5466C147.586 25.4546 147.938 25.3678 148.134 25.2886V25.1827C148.134 24.9783 148.082 24.8328 147.979 24.7447C147.875 24.6578 147.679 24.6144 147.393 24.6144C147.198 24.6144 147.048 24.6514 146.939 24.7268C146.83 24.8009 146.742 24.9324 146.675 25.1201ZM148.134 25.9705C147.995 26.0151 147.774 26.0688 147.472 26.1314C147.171 26.1939 146.972 26.2552 146.88 26.314C146.738 26.4123 146.667 26.5349 146.667 26.6842C146.667 26.8324 146.724 26.9588 146.837 27.0661C146.951 27.1733 147.095 27.2269 147.271 27.2269C147.467 27.2269 147.654 27.1644 147.833 27.0405C147.964 26.9447 148.051 26.8299 148.092 26.6919C148.119 26.6026 148.134 26.4314 148.134 26.1799V25.9705ZM150.229 23.8943H151.315V25.3499H152.885V23.8943H153.971V27.8705H152.885V26.2003H151.315V27.8705H150.229V23.8943ZM155.034 23.8943H156.081V26.3931L157.754 23.8943H158.824V27.8705H157.778V25.3358L156.081 27.8705H155.034V23.8943ZM163.468 23.8943V27.8705H162.382V26.2233H162.282C162.046 26.2233 161.873 26.2527 161.764 26.3114C161.652 26.3702 161.531 26.494 161.396 26.683L161.33 26.7609L160.612 27.8705H159.345L160.125 26.72C160.347 26.3906 160.548 26.2016 160.728 26.1518C160.423 26.1339 160.176 26.0229 159.986 25.816C159.797 25.6104 159.702 25.3474 159.702 25.0269C159.702 24.7689 159.765 24.5493 159.891 24.3667C160.016 24.1841 160.183 24.0603 160.392 23.9939C160.599 23.9275 160.91 23.8943 161.321 23.8943H163.468ZM162.382 24.5685H161.601C161.313 24.5685 161.112 24.6081 160.994 24.6872C160.878 24.7664 160.82 24.8966 160.82 25.0793C160.82 25.2631 160.886 25.3946 161.018 25.4751C161.15 25.5555 161.367 25.5951 161.667 25.5951H162.382V24.5685Z" fill="#008DD2"/>
</svg>
