<svg width="170" height="46" viewBox="0 0 170 46" fill="none" xmlns="http://www.w3.org/2000/svg">
<path d="M12.0575 7.72475C13.3273 5.58323 14.7031 2.87674 15.4173 1.1227C15.4556 1.03101 15.4938 0.954102 15.5026 0.954102C15.5114 0.954102 15.5585 1.05171 15.6055 1.17003C15.7936 1.63442 16.2698 2.67265 16.7225 3.60143C17.475 5.13953 18.1952 6.47058 19.083 7.95841C19.3446 8.40211 19.5621 8.77775 19.5621 8.79254C19.5621 8.86946 18.692 9.99937 18.0982 10.6975C16.5226 12.5432 13.6036 15.4863 11.5665 17.2847C8.90626 19.6274 6.00198 21.6653 3.20355 23.1443C2.63914 23.4431 1.74846 23.8749 1.60736 23.9193C1.53975 23.9429 1.53975 23.94 1.5809 23.8424C1.90425 23.097 2.69793 21.618 3.35933 20.5354C4.28234 19.0239 5.22301 17.6485 7.3777 14.664C9.94981 11.0997 10.8552 9.75683 12.0575 7.72475Z" fill="black"/>
<path d="M22.0831 13.8273C22.3219 13.5035 22.543 13.1976 22.5696 13.1501C22.599 13.1026 22.6285 13.064 22.6374 13.064C22.6462 13.064 22.8113 13.2897 23.0088 13.5629C23.1744 13.7955 23.5728 14.3487 23.9568 14.8818L24.1555 15.1579C25.1873 16.5924 25.5647 17.1211 26.1307 17.9497C26.6613 18.7249 27.3246 19.7407 27.3246 19.7793C27.3246 19.7941 27.2155 19.9367 27.0828 20.0941C26.0069 21.389 24.4327 22.7701 22.6963 23.9314C21.2784 24.8818 20.0402 25.4699 18.4159 25.9689C17.0363 26.3936 15.5181 26.7114 12.7765 27.154C12.5519 27.1902 12.2694 27.2359 11.9645 27.2853L11.9527 27.2872L11.95 27.2876C11.3579 27.3836 10.6832 27.4929 10.1823 27.5727C8.02148 27.9232 6.8423 28.14 5.50984 28.437C3.43743 28.9002 1.3945 29.5241 0.194691 30.0645C0.100357 30.1061 0.017815 30.142 0.00897118 30.142C-0.0323001 30.142 0.0767737 28.9983 0.174056 28.3895C0.238911 27.9974 0.406944 27.1985 0.483589 26.946L0.527808 26.7946L0.78428 26.7738C1.3945 26.7233 2.38501 26.5659 3.2399 26.3817C7.29333 25.5085 11.4381 23.6374 14.8695 21.1307C17.4284 19.2595 19.9459 16.7112 22.0831 13.8273Z" fill="black"/>
<path d="M29.3264 24.5061C29.0164 24.8726 28.14 25.7375 27.7212 26.0952C26.4347 27.1917 25.1188 27.992 23.794 28.4905C22.9207 28.8159 20.9674 29.2967 19.3299 29.5869C17.9697 29.8275 16.2791 30.021 12.0982 30.4225C7.73734 30.8419 5.29134 31.2318 2.74505 31.9062C1.81564 32.1523 0.0364762 32.7095 0.00107007 32.7651C-0.016633 32.7943 0.189903 33.7999 0.28137 34.1372C0.316776 34.272 0.358082 34.3805 0.369884 34.3805C0.375611 34.3805 0.49938 34.3852 0.695382 34.3929L0.699505 34.3932C0.907222 34.4012 1.19488 34.4125 1.50878 34.4246C11.4786 34.8085 20.4157 34.9083 23.856 34.6738C25.9892 34.5272 28.5002 34.0727 29.7866 33.5976C30.1112 33.4775 30.5447 33.281 30.7158 33.1727L30.8368 33.0964L30.9018 32.686C31.0286 31.8739 31.0641 31.3547 31.0465 30.4225C31.0316 29.5547 30.9964 29.162 30.8754 28.4436C30.6775 27.265 30.2881 25.9544 29.7659 24.7055L29.6871 24.5205C29.619 24.3608 29.5703 24.2465 29.5681 24.2422C29.5623 24.2393 29.4562 24.3566 29.3264 24.5061Z" fill="black"/>
<path d="M1.50641 36.9696C1.30893 36.5979 0.931641 35.7976 0.931641 35.7472C0.931641 35.7323 0.981748 35.7262 1.04365 35.7351C3.80846 36.1338 6.15765 36.58 8.03525 37.065C8.60709 37.2108 8.8871 37.294 10.0131 37.639C13.4145 38.6892 16.309 39.4537 18.6553 39.9296C20.3885 40.2776 21.7473 40.3876 23.3036 40.3013C24.6477 40.2242 26.0743 39.9891 27.2091 39.6559C27.3238 39.6226 27.4355 39.5892 27.5145 39.5655C27.5693 39.5493 27.6084 39.5377 27.6219 39.5338C27.7043 39.5101 27.4007 39.8582 26.8701 40.3906C25.6528 41.6191 24.3441 42.5621 22.7583 43.3506C20.9338 44.2608 19.1475 44.7695 17.0253 44.9927C16.3385 45.0641 14.5818 45.0641 13.9009 44.9927C11.0654 44.6951 8.6513 43.8383 6.4141 42.3422C4.31838 40.9351 2.65301 39.1144 1.50641 36.9696Z" fill="black"/>
<path d="M52.5763 15.1361C54.7519 15.3064 55.8399 16.1104 55.8399 17.5482C55.8399 18.4185 55.4615 19.0853 54.7048 19.5489C53.9481 20.0124 52.9312 20.2441 51.6542 20.2441H45.936V10.3119H51.5691C52.7325 10.3119 53.6689 10.5294 54.3783 10.9646C55.0972 11.3997 55.4569 12.0429 55.4569 12.8943C55.4569 14.228 54.4968 14.9753 52.5763 15.1361ZM51.3277 14.1854C52.2263 14.1854 52.6758 13.8969 52.6758 13.3199C52.6758 12.7429 52.2359 12.4544 51.356 12.4544H48.7312V14.1854H51.3277ZM51.3844 18.1016C51.9805 18.1016 52.4063 18.0259 52.6614 17.8746C52.9169 17.7138 53.0448 17.4773 53.0448 17.1651C53.0448 16.5408 52.5338 16.2287 51.5123 16.2287H48.7312V18.1016H51.3844ZM62.6593 13.7456C63.4066 13.7456 64.0639 13.8449 64.6316 14.0436C65.2086 14.2422 65.6815 14.5922 66.0505 15.0935C66.4289 15.5949 66.6179 16.2287 66.6179 16.9948C66.6179 18.1111 66.2492 18.934 65.5112 19.4637C64.7735 19.984 63.8228 20.2441 62.6593 20.2441H57.3953V10.3119H60.1904V13.7456H62.6593ZM67.7673 10.3119H70.5625V20.2441H67.7673V10.3119ZM62.4038 17.9597C63.3592 17.9597 63.8371 17.6286 63.8371 16.9665C63.8371 16.2949 63.3592 15.9591 62.4038 15.9591H60.1904V17.9597H62.4038ZM73.7123 19.0523C72.7285 18.1347 72.2366 16.8766 72.2366 15.278C72.2366 13.6794 72.7142 12.426 73.6696 11.5179C74.6344 10.6004 75.9731 10.1416 77.685 10.1416C79.1136 10.1416 80.2674 10.4538 81.1473 11.0781C82.0269 11.7024 82.566 12.5584 82.7646 13.6463L80.083 13.8449C79.9505 13.4098 79.6669 13.0645 79.2318 12.8091C78.806 12.5443 78.2904 12.4118 77.685 12.4118C76.815 12.4118 76.1528 12.6814 75.6986 13.2206C75.2541 13.7598 75.0317 14.4456 75.0317 15.278C75.0317 16.1577 75.2778 16.8577 75.7697 17.3779C76.271 17.8887 76.9616 18.1441 77.8412 18.1441C78.4938 18.1441 79.0237 17.9975 79.4305 17.7043C79.8466 17.4111 80.1208 17.0327 80.2533 16.5692L82.9493 16.7253C82.7693 17.9266 82.2493 18.8441 81.3884 19.4779C80.5275 20.1022 79.3453 20.4144 77.8412 20.4144C76.0723 20.4144 74.6961 19.9603 73.7123 19.0523ZM96.1477 10.3119H98.872V20.2441H84.4842V10.3119H87.2086V17.9597H90.3159V10.3119H93.0403V17.9597H96.1477V10.3119ZM108.732 20.2441L108.051 18.2577H103.525L102.844 20.2441H100.105L103.738 10.3119H107.923L111.57 20.2441H108.732ZM104.248 16.1577H107.327L105.795 11.6882L104.248 16.1577ZM116.255 10.3119H122.143V20.2441H119.348V16.6827H117.872L115.332 20.2441H111.927L114.907 16.5692C113.157 16.257 112.282 15.2591 112.282 13.5753C112.282 12.4686 112.655 11.6504 113.403 11.1206C114.159 10.5815 115.11 10.3119 116.255 10.3119ZM116.496 14.5969H119.348V12.5395H116.496C115.55 12.5395 115.077 12.8848 115.077 13.5753C115.077 14.2564 115.55 14.5969 116.496 14.5969ZM57.5992 27.3975H60.3235V37.3297H45.936V27.3975H48.6604V35.0452H51.7677V27.3975H54.4918V35.0452H57.5992V27.3975ZM69.4459 37.3297L66.1966 33.4135H65.3312V37.3297H62.5358V27.3975H65.3312V31.2853H66.1398L69.1904 27.3975H72.4824L68.3675 32.1792L72.8511 37.3297H69.4459ZM74.0452 36.1519C73.0517 35.2439 72.5552 33.9812 72.5552 32.3636C72.5552 30.746 73.0517 29.488 74.0452 28.5893C75.0384 27.6813 76.4383 27.2272 78.2449 27.2272C80.0422 27.2272 81.4375 27.6813 82.4306 28.5893C83.4335 29.488 83.9347 30.746 83.9347 32.3636C83.9347 33.9812 83.4335 35.2439 82.4306 36.1519C81.4375 37.0506 80.0422 37.5 78.2449 37.5C76.4383 37.5 75.0384 37.0506 74.0452 36.1519ZM76.1026 30.2778C75.6011 30.7887 75.3506 31.484 75.3506 32.3636C75.3506 33.2432 75.6011 33.9432 76.1026 34.4635C76.6133 34.9744 77.3276 35.2299 78.2449 35.2299C79.1532 35.2299 79.8626 34.9744 80.3735 34.4635C80.8841 33.9432 81.1396 33.2432 81.1396 32.3636C81.1396 31.484 80.8841 30.7887 80.3735 30.2778C79.8626 29.7575 79.1532 29.4974 78.2449 29.4974C77.3276 29.4974 76.6133 29.7575 76.1026 30.2778ZM86.7056 27.3975H95.3325V37.3297H92.5374V29.682H89.2453C89.1318 31.9144 89.0563 33.2198 89.0183 33.5982C88.8482 35.1588 88.4555 36.2137 87.8407 36.7621C87.3679 37.1878 86.715 37.4006 85.8828 37.4006C85.5422 37.4006 85.0787 37.3771 84.4922 37.3297V35.0736C84.7948 35.102 85.0313 35.1163 85.2016 35.1163C85.3625 35.1163 85.5041 35.0833 85.6273 35.0168C85.7596 34.9507 85.8731 34.8418 85.9677 34.6906C86.0625 34.5393 86.1426 34.3783 86.2091 34.2083C86.2752 34.0283 86.3273 33.7919 86.365 33.4987C86.4124 33.1961 86.4455 32.9076 86.4645 32.6331C86.4929 32.3496 86.5163 31.9899 86.5353 31.5548C86.5637 31.1103 86.5827 30.7035 86.5921 30.3345C86.6015 29.9658 86.6158 29.5023 86.6345 28.944C86.6629 28.3765 86.6866 27.861 86.7056 27.3975ZM105.199 37.3297L104.518 35.3434H99.9914L99.3104 37.3297H96.5718L100.204 27.3975H104.39L108.036 37.3297H105.199ZM100.715 33.2432H103.794L102.262 28.7737L100.715 33.2432ZM119.933 27.3975H122.728V37.3297H119.933V33.4135H115.464V37.3297H112.668V27.3975H115.464V31.1293H119.933V27.3975ZM127.74 35.1588H133.969V37.3297H124.945V27.3975H133.742V29.5685H127.74V31.2569H132.408V33.3H127.74V35.1588ZM143.05 28.0786C144.64 28.0786 145.846 28.4428 146.668 29.1711C147.492 29.89 147.903 30.8832 147.903 32.1509C147.903 33.4279 147.492 34.4257 146.668 35.1447C145.855 35.8637 144.649 36.223 143.05 36.223H142.497V37.3297H139.815V36.223H139.262C137.673 36.223 136.467 35.8637 135.644 35.1447C134.821 34.4164 134.409 33.4182 134.409 32.1509C134.409 30.8832 134.821 29.89 135.644 29.1711C136.467 28.4428 137.673 28.0786 139.262 28.0786H139.815V27.2272H142.497V28.0786H143.05ZM139.418 34.0804H139.815V30.221H139.418C138.671 30.221 138.113 30.396 137.744 30.746C137.384 31.0866 137.205 31.5548 137.205 32.1509C137.205 32.7563 137.384 33.2292 137.744 33.5698C138.113 33.9101 138.671 34.0804 139.418 34.0804ZM142.894 34.0804C143.642 34.0804 144.195 33.9101 144.555 33.5698C144.923 33.2292 145.108 32.7563 145.108 32.1509C145.108 31.5548 144.923 31.0866 144.555 30.746C144.195 30.396 143.642 30.221 142.894 30.221H142.497V34.0804H142.894ZM158.176 27.3975V29.682H154.671V37.3297H151.876V29.682H148.371V27.3975H158.176ZM165.687 27.3975H170V37.3297H167.29V29.5401L163.927 37.3297H159.6V27.3975H162.31V35.2155L165.687 27.3975Z" fill="black"/>
</svg>
