<svg width="70" height="70" viewBox="0 0 70 70" fill="none" xmlns="http://www.w3.org/2000/svg">
<path d="M28.8453 10.5977C24.1891 11.8111 20.076 14.3688 16.9448 17.8314V18.0551H53.2545C50.0995 14.479 45.91 11.8371 41.1542 10.5977H28.8453Z" fill="#61BFF5" fill-opacity="0.7"/>
<path d="M55.3527 20.8022H40.7378C44.0946 22.2476 46.7975 24.9223 48.2795 28.2598H58.6178C57.9494 25.5692 56.8331 23.0555 55.3527 20.8022Z" fill="#61BFF5"/>
<path d="M59.0805 30.6152H49.0898C49.3725 31.7458 49.5225 32.9293 49.5225 34.1476C49.5225 35.5078 49.3355 36.8241 48.9858 38.0726H59.0201C59.2272 36.7948 59.3349 35.4838 59.3349 34.1476C59.3349 32.9478 59.2481 31.7683 59.0805 30.6152Z" fill="#61BFF5"/>
<path d="M58.5169 40.4272H48.098C46.4267 43.9065 43.4101 46.6172 39.7222 47.8846H55.0894C56.6267 45.6408 57.798 43.1262 58.5169 40.4272Z" fill="#61BFF5"/>
<path d="M52.9009 50.6323H17.0991C20.6076 54.4401 25.3155 57.1258 30.6234 58.0897H39.3768C44.6846 57.1258 49.3925 54.4401 52.9009 50.6323Z" fill="#61BFF5" fill-opacity="0.7"/>
<path d="M16.9448 47.8846H30.2777C28.7025 47.3433 27.2501 46.539 25.9723 45.5236V40.4272H16.9448V47.8846Z" fill="#61BFF5"/>
<path d="M16.9448 38.0726H25.9723V30.6152H16.9448V38.0726Z" fill="#61BFF5"/>
<path d="M16.9448 28.2598H25.9723V22.7708C26.9705 21.9777 28.0753 21.3131 29.2621 20.8022H16.9448V28.2598Z" fill="#61BFF5"/>
<path d="M59.3474 58.0897H39.3765C44.6843 57.1258 49.3922 54.4401 52.9008 50.6323H64.9119C63.3999 53.3696 61.5234 55.8772 59.3474 58.0897Z" fill="#0A1A4D" fill-opacity="0.7"/>
<path d="M66.2714 47.8846C67.3091 45.5265 68.0874 43.0286 68.571 40.4272H58.5169C57.7978 43.1262 56.6266 45.6408 55.0894 47.8846H66.2714Z" fill="#0A1A4D" fill-opacity="0.85"/>
<path d="M10.9799 38.0726C10.7727 36.7948 10.665 35.4838 10.665 34.1476C10.665 32.9478 10.7518 31.7683 10.9195 30.6152H1.03304C0.913694 31.7765 0.852539 32.9549 0.852539 34.1476C0.852539 35.475 0.928276 36.7847 1.07566 38.0726H10.9799Z" fill="#0A1A4D"/>
<path d="M1.42871 40.4272C1.9123 43.0286 2.69082 45.5265 3.72826 47.8846H14.9105C13.3731 45.6408 12.2019 43.1262 11.483 40.4272H1.42871Z" fill="#0A1A4D" fill-opacity="0.85"/>
<path d="M17.0989 50.6323H5.08789C6.5997 53.3696 8.47633 55.8772 10.6522 58.0897H30.6232C25.3154 57.1258 20.6074 54.4401 17.0989 50.6323Z" fill="#0A1A4D" fill-opacity="0.7"/>
<path d="M1.35791 28.2598H11.3818C12.0503 25.5692 13.1666 23.0555 14.6469 20.8022H3.55832C2.55476 23.1636 1.80949 25.6612 1.35791 28.2598Z" fill="#0A1A4D" fill-opacity="0.85"/>
<path d="M4.87451 18.0551H16.7451C19.9001 14.4789 24.0897 11.8371 28.8454 10.5977H10.2723C8.15551 12.8197 6.33507 15.3266 4.87451 18.0551Z" fill="#0A1A4D" fill-opacity="0.7"/>
<path d="M12.751 8.24249C18.7271 3.10499 26.5011 0 35 0C43.499 0 51.2729 3.10499 57.2492 8.24249H12.751Z" fill="#0A1A4D" fill-opacity="0.5"/>
<path d="M59.7274 10.5977H41.1543C45.91 11.8371 50.0996 14.4789 53.2546 18.0551H65.1251C63.6647 15.3266 61.8441 12.8197 59.7274 10.5977Z" fill="#0A1A4D" fill-opacity="0.7"/>
<path d="M66.4412 20.8022H55.3525C56.833 23.0555 57.9493 25.5692 58.6177 28.2598H68.6416C68.19 25.6612 67.4447 23.1636 66.4412 20.8022Z" fill="#0A1A4D" fill-opacity="0.85"/>
<path d="M68.967 30.6152H59.0804C59.2483 31.7683 59.3351 32.9478 59.3351 34.1476C59.3351 35.4838 59.2273 36.7948 59.02 38.0726H68.9243C69.0717 36.7847 69.1475 35.475 69.1475 34.1476C69.1475 32.9549 69.0862 31.7765 68.967 30.6152Z" fill="#0A1A4D"/>
<path d="M11.0454 63.9759V64.3471C11.0454 64.9424 10.9647 65.4766 10.8034 65.9498C10.642 66.4233 10.4143 66.8267 10.1203 67.1602C9.82626 67.49 9.47487 67.7427 9.06609 67.9185C8.6609 68.0943 8.21091 68.182 7.71608 68.182C7.22484 68.182 6.77482 68.0943 6.36604 67.9185C5.96088 67.7427 5.60947 67.49 5.31186 67.1602C5.01425 66.8267 4.78297 66.4233 4.61803 65.9498C4.45667 65.4766 4.37598 64.9424 4.37598 64.3471V63.9759C4.37598 63.3771 4.45667 62.8429 4.61803 62.3732C4.77938 61.9 5.00706 61.4966 5.30111 61.163C5.59872 60.8295 5.95011 60.575 6.35529 60.3992C6.76407 60.2236 7.21407 60.1357 7.7053 60.1357C8.20013 60.1357 8.65015 60.2236 9.05534 60.3992C9.46409 60.575 9.8155 60.8295 10.1095 61.163C10.4071 61.4966 10.6366 61.9 10.798 62.3732C10.9629 62.8429 11.0454 63.3771 11.0454 63.9759ZM9.41569 64.3471V63.9653C9.41569 63.5494 9.37804 63.1835 9.30274 62.868C9.22744 62.5525 9.1163 62.287 8.96929 62.072C8.82226 61.8568 8.64297 61.6955 8.43141 61.588C8.21987 61.4767 7.97782 61.4212 7.7053 61.4212C7.43281 61.4212 7.19076 61.4767 6.9792 61.588C6.77123 61.6955 6.59375 61.8568 6.44674 62.072C6.3033 62.287 6.19394 62.5525 6.11864 62.868C6.04334 63.1835 6.00569 63.5494 6.00569 63.9653V64.3471C6.00569 64.7595 6.04334 65.1252 6.11864 65.4445C6.19394 65.7599 6.30511 66.0269 6.45212 66.2457C6.59913 66.461 6.77841 66.624 6.98997 66.7352C7.20153 66.8463 7.44356 66.902 7.71608 66.902C7.9886 66.902 8.23062 66.8463 8.44218 66.7352C8.65374 66.624 8.83122 66.461 8.97466 66.2457C9.11808 66.0269 9.22744 65.7599 9.30274 65.4445C9.37804 65.1252 9.41569 64.7595 9.41569 64.3471ZM12.944 60.2433H14.3102L16.3218 65.993L18.3333 60.2433H19.6995L16.8704 68.0745H15.7731L12.944 60.2433ZM12.2072 60.2433H13.568L13.8154 65.8478V68.0745H12.2072V60.2433ZM19.0756 60.2433H20.4417V68.0745H18.8282V65.8478L19.0756 60.2433ZM27.0789 63.4328V64.6915H22.9911V63.4328H27.0789ZM23.4699 60.2433V68.0745H21.8563V60.2433H23.4699ZM28.23 60.2433V68.0745H26.6218V60.2433H28.23ZM31.1881 65.5359L34.3345 60.2433H35.9482V68.0745H34.3345V62.7821L31.1881 68.0745H29.5745V60.2433H31.1881V65.5359ZM46.3019 66.8159V68.0745H40.6597V66.8159H46.3019ZM41.1384 66.8159V69.9947H39.6216L39.5357 66.8159H41.1384ZM47.4636 66.8159L47.3237 69.9999H45.8448V66.8159H47.4636ZM45.4143 60.2433V61.5071H41.644V60.2433H45.4143ZM46.5654 60.2433V68.0745H44.9572V60.2433H46.5654ZM41.4451 60.2433H43.0586L42.8489 63.4328C42.8165 63.9598 42.7592 64.426 42.6768 64.8311C42.5979 65.2327 42.501 65.5859 42.3862 65.8908C42.2752 66.1955 42.1514 66.4627 42.0152 66.6923C41.8788 66.9181 41.7354 67.1153 41.585 67.2838C41.4343 67.4488 41.2818 67.5957 41.1276 67.7248C40.9736 67.8504 40.8229 67.967 40.676 68.0745H39.7507V66.8159H40.1111C40.2151 66.7297 40.3246 66.6114 40.4391 66.4609C40.5577 66.3103 40.6687 66.1078 40.7727 65.8531C40.8802 65.5949 40.9736 65.2687 41.0525 64.8743C41.1349 64.4797 41.1959 63.9992 41.2353 63.4328L41.4451 60.2433ZM51.5675 61.5825L49.4375 68.0745H47.7218L50.6316 60.2433H51.7234L51.5675 61.5825ZM53.337 68.0745L51.2017 61.5825L51.0297 60.2433H52.1323L55.0582 68.0745H53.337ZM53.2402 65.1594V66.4233H49.104V65.1594H53.2402ZM58.6188 60.2433V68.0745H57.0106V60.2433H58.6188ZM61.0283 60.2433V61.5071H54.6387V60.2433H61.0283ZM64.5514 61.5825L62.4215 68.0745H60.7057L63.6155 60.2433H64.7074L64.5514 61.5825ZM66.3209 68.0745L64.1857 61.5825L64.0134 60.2433H65.116L68.0419 68.0745H66.3209ZM66.224 65.1594V66.4233H62.0879V65.1594H66.224Z" fill="#0A1A4D"/>
</svg>
