<svg width="170" height="44" viewBox="0 0 170 44" fill="none" xmlns="http://www.w3.org/2000/svg">
<path d="M38.9952 4.33643H0V43.3311H17.1698V23.5427H21.8259V43.3311H38.9952V4.33643Z" fill="#292D32"/>
<path d="M55.1724 5.61475H66.0514V17.8928H63.1054V8.19326H58.1188V17.8928H55.1724V5.61475Z" fill="#292D32"/>
<path d="M71.9025 10.1822H78.287C77.9443 8.63514 76.8876 7.82466 75.1935 7.82466C73.3766 7.82466 72.2471 8.63514 71.9025 10.1822ZM75.1686 5.36841C78.7292 5.36841 81.1852 7.7259 81.1852 11.1889C81.1852 11.6065 81.1355 12.0721 81.062 12.5146H71.8052C72.0502 14.6021 73.3766 15.5603 75.2183 15.5603C76.8631 15.5603 78.0666 14.8231 78.3865 13.7181L81.1119 14.2097C80.5709 16.6896 78.1165 18.1388 75.2183 18.1388C71.2154 18.1388 68.8091 15.4618 68.8091 11.8028C68.8091 8.09488 71.4357 5.36841 75.1686 5.36841Z" fill="#292D32"/>
<path d="M86.9863 11.7535C86.9863 13.9638 88.3374 15.4369 90.3766 15.4369C92.4149 15.4369 93.7646 13.9638 93.7646 11.7535C93.7646 9.54367 92.4149 8.07014 90.3766 8.07014C88.3374 8.07014 86.9863 9.54367 86.9863 11.7535ZM86.7414 5.61477L86.8882 7.11233C87.8707 6.00716 89.2218 5.36841 90.818 5.36841C94.2313 5.36841 96.835 8.07015 96.835 11.7535C96.835 15.4369 94.2313 18.1388 90.818 18.1388C89.2718 18.1388 87.9702 17.5244 86.9863 16.4936V23.2953H84.0405V5.61477H86.7414Z" fill="#292D32"/>
<path d="M99.5928 5.61475H102.613L106.519 10.943L110.374 5.61475H113.395V17.8928H110.569V9.5924L106.813 14.7745H106.174L102.416 9.64187V17.8928H99.5928V5.61475Z" fill="#292D32"/>
<path d="M122.511 15.4369C124.133 15.4369 125.188 14.5535 125.508 13.2027L128.331 13.6936C127.914 16.2226 125.557 18.1388 122.487 18.1388C118.828 18.1388 116.152 15.4369 116.152 11.7786C116.152 8.07015 118.853 5.36841 122.511 5.36841C125.508 5.36841 127.693 7.11233 128.258 9.74013L125.385 10.2307C125.065 8.88018 124.01 8.07014 122.561 8.07014C120.597 8.07014 119.221 9.49482 119.221 11.7786C119.221 14.0128 120.547 15.4369 122.511 15.4369Z" fill="#292D32"/>
<path d="M133.716 5.61475V10.1334H135.043L138.628 5.61475H142.141L137.377 11.3854L142.386 17.8928H138.826L135.019 12.9817H133.716V17.8928H130.77V5.61475H133.716Z" fill="#292D32"/>
<path d="M144.355 5.61475H147.204V13.6936L152.483 5.61475H155.332V17.8928H152.483V9.81369L147.204 17.8928H144.355V5.61475Z" fill="#292D32"/>
<path d="M168.65 0.42334C168.617 2.57554 166.998 4.01798 164.622 4.01798C162.246 4.01798 160.627 2.57554 160.595 0.42334H163.198C163.204 1.34689 163.743 1.80817 164.597 1.80817C165.477 1.80817 166.016 1.34689 166.046 0.42334H168.65ZM159.023 5.61473H161.871V13.6935L167.151 5.61473H170V17.8928H167.151V9.81367L161.871 17.8928H159.023V5.61473Z" fill="#292D32"/>
<path d="M55.1724 31.052H66.0514V43.3301H63.1054V33.6307H58.1188V43.3301H55.1724V31.052Z" fill="#292D32"/>
<path d="M71.878 37.1915C71.878 39.4012 73.2539 40.8747 75.3156 40.8747C77.3795 40.8747 78.7537 39.4012 78.7537 37.1915C78.7537 34.981 77.3795 33.5081 75.3156 33.5081C73.2539 33.5081 71.878 34.981 71.878 37.1915ZM81.8242 37.1915C81.8242 40.8747 79.0736 43.5764 75.3156 43.5764C71.5583 43.5764 68.8091 40.8747 68.8091 37.1915C68.8091 33.5081 71.5583 30.8064 75.3156 30.8064C79.0736 30.8064 81.8242 33.5081 81.8242 37.1915Z" fill="#292D32"/>
<path d="M83.6726 40.8747C84.8264 40.8747 85.196 40.3835 85.3919 35.276L85.564 31.052H95.1159V43.3301H92.1702V33.6307H88.4118L88.3146 35.9143C88.0698 41.7338 87.0875 43.5765 84.1148 43.5765C83.5993 43.5765 83.28 43.5027 82.8623 43.3791L83.2073 40.8259C83.3544 40.8504 83.4768 40.8747 83.6726 40.8747Z" fill="#292D32"/>
<path d="M98.8062 31.052H101.655V39.1316L106.934 31.052H109.783V43.3301H106.934V35.2513L101.655 43.3301H98.8062V31.052Z" fill="#292D32"/>
<path d="M116.053 33.6307H112.125V31.052H122.929V33.6307H118.999V43.3301H116.053V33.6307Z" fill="#292D32"/>
<path d="M127.426 35.6198H133.811C133.469 34.0731 132.411 33.2622 130.717 33.2622C128.901 33.2622 127.772 34.0731 127.426 35.6198ZM130.693 30.8064C134.254 30.8064 136.709 33.1635 136.709 36.6263C136.709 37.0438 136.66 37.5102 136.587 37.9524H127.329C127.574 40.0395 128.901 40.9981 130.743 40.9981C132.387 40.9981 133.591 40.2607 133.91 39.1554L136.636 39.6474C136.095 42.1272 133.639 43.5764 130.743 43.5764C126.739 43.5764 124.333 40.8994 124.333 37.2403C124.333 33.532 126.96 30.8064 130.693 30.8064Z" fill="#292D32"/>
<path d="M143.764 34.8088L146.22 31.052H149.486L145.385 37.1178L149.756 43.3301H146.293L143.42 39.2787L140.866 43.3301H137.697L141.775 36.9457L137.6 31.052H141.111L143.764 34.8088Z" fill="#292D32"/>
</svg>
