<svg width="170" height="56" viewBox="0 0 170 56" fill="none" xmlns="http://www.w3.org/2000/svg">
<path fill-rule="evenodd" clip-rule="evenodd" d="M42.5215 50.4534L51.5251 15.8703C53.3621 19.5247 54.4097 23.6679 54.4097 28.0228C54.4097 37.3056 49.6899 45.5404 42.5215 50.4534ZM28.2499 0.806396H27.0765L24.7581 9.71589C20.6834 10.0654 15.6834 12.9508 13.3583 16.832L17.047 2.75673C16.2602 3.07188 15.4904 3.42162 14.739 3.80614L4.52807 42.971C5.00034 43.6869 5.50702 44.3525 6.03226 45.0166L11.0149 26.0115C13.2181 17.8287 18.9525 11.5694 27.3456 11.5694C36.2961 11.5694 43.7097 18.9475 43.7097 28.0037C43.7097 36.9557 36.2961 44.3696 27.3456 44.3696L25.772 44.4038L25.7363 34.8932H27.2758C31.2958 34.8932 34.1638 31.9899 34.1638 28.0037C34.1638 23.9125 31.2958 21.0458 27.2758 21.0458C23.988 21.0458 21.2259 23.1262 20.492 26.0115L13.8821 51.6774C13.8649 51.6604 13.8478 51.6434 13.8293 51.6434V51.6605C14.425 51.9745 15.0189 52.2899 15.6129 52.5688L22.3798 26.7285C22.8 25.3645 23.7954 23.9832 25.195 23.6158L17.4669 53.3906C18.0779 53.6191 18.691 53.8276 19.3021 54.0189L23.604 37.4285V44.6494L21.0688 54.4932C21.7329 54.6334 22.3611 54.773 23.027 54.8759L25.2648 46.4504C25.9289 46.5203 26.6104 46.4145 27.3101 46.4145C27.3272 46.4145 27.363 46.4145 27.3973 46.4145L25.1249 55.1218C25.7889 55.1561 26.4529 55.1934 27.1529 55.1934L29.4782 46.2931C30.1606 46.2233 30.8419 46.1005 31.523 45.9249L29.1281 55.1218C29.8276 55.087 30.5282 55.0159 31.2264 54.9132L33.7441 45.2435C34.4951 44.9635 35.2121 44.6325 35.9118 44.2467L33.2371 54.5105C33.9713 54.3701 34.7051 54.1591 35.4408 53.9164L38.3774 42.6555C39.3739 41.9043 40.2842 41.0475 41.1226 40.0862L37.7661 53.0583C38.5346 52.7443 39.3045 52.3589 40.0737 51.9745L50.1101 13.3695C49.6544 12.6354 49.1655 11.9368 48.6405 11.272L45.2841 24.1059C45.0038 22.8815 44.62 21.7094 44.1126 20.5735L47.0145 9.40127C46.5249 8.84179 45.9649 8.31673 45.4068 7.79293L42.7486 18.0385C42.3118 17.3914 41.839 16.7621 41.3323 16.15L43.85 6.48155C43.29 6.06208 42.6958 5.64189 42.1021 5.25738L39.7063 14.454C39.1812 13.9994 38.6567 13.5445 38.0976 13.1248L40.4054 4.2085C39.8105 3.89389 39.2167 3.57856 38.6228 3.29891L36.3662 11.9889C35.7381 11.6387 35.1081 11.3248 34.4436 11.0273L36.6649 2.49476C36.0347 2.25007 35.4053 2.04033 34.775 1.86555L32.5729 10.3458C31.9787 10.171 31.4021 10.0126 30.808 9.89065L33.0099 1.3938C32.3461 1.25397 31.6819 1.14911 31.052 1.04352L28.831 9.5937C28.3245 9.55874 27.8171 9.52328 27.3101 9.52328C27.1529 9.52328 26.9956 9.54109 26.856 9.54109L29.1108 0.851619C28.8186 0.835402 28.5341 0.81919 28.2499 0.806396ZM12.2388 5.30943L3.0601 40.5233C1.10112 36.7816 0 32.5326 0 28.0228C0 18.5457 4.86033 10.1881 12.2388 5.30943ZM28.9009 32.637L30.9289 24.805C31.6633 25.7146 32.1529 26.7984 32.1529 28.0565C32.1529 30.1203 30.7893 31.9384 28.9009 32.637ZM24.7752 32.8995L27.1873 23.2305C27.7829 23.2305 28.6211 23.2655 29.1807 23.5109L26.7331 32.9166L24.7752 32.8995Z" fill="#008AC2"/>
<path fill-rule="evenodd" clip-rule="evenodd" d="M28.1928 43.6907L28.9779 43.6282L29.754 43.5265L30.5192 43.3854L31.2715 43.2053L32.0102 42.9896L32.736 42.7382L33.4454 42.4512L34.1384 42.1314L34.8139 41.7785L35.4711 41.3942L36.1093 40.9803L36.725 40.5362L37.3201 40.0635L37.8933 39.565L38.4416 39.039L38.9638 38.4911L39.4617 37.9166L39.9314 37.3213L40.3738 36.7027L40.7857 36.0656L41.1677 35.4074L41.5192 34.7333L41.8363 34.0405L42.1205 33.3322L42.3722 32.6094L42.5864 31.8728L42.7632 31.1227L42.903 30.363L43.0047 29.592L43.0657 28.8108L43.0874 28.0206L43.0657 27.1994L43.0047 26.3883L42.9018 25.5899L42.76 24.8049L42.5807 24.0338L42.3646 23.2787L42.1122 22.5388L41.8242 21.8167L41.5046 21.1123L41.1511 20.427L40.7666 19.7622L40.3509 19.1184L39.9073 18.4953L39.4343 17.8965L38.9328 17.3207L38.4072 16.7702L37.856 16.2451L37.2805 15.7475L36.6821 15.2777L36.0621 14.8366L35.4222 14.4252L34.7622 14.0445L34.0844 13.6955L33.3887 13.3789L32.676 13.096L31.949 12.8488L31.2077 12.6365L30.4536 12.4598L29.6882 12.3212L28.9109 12.2208L28.1226 12.1597L27.3272 12.1394L26.5857 12.1572L25.8591 12.21L25.1479 12.2965L24.4507 12.4165L23.7696 12.5691L23.1042 12.7522L22.4528 12.9677L21.8171 13.2131L21.1975 13.4877L20.5917 13.7908L20.0034 14.1214L19.4307 14.4799L18.874 14.8651L18.3325 15.2757L17.8083 15.7105L17.3 16.1707L16.8087 16.6538L16.3344 17.1599L15.8775 17.6888L15.4373 18.2373L15.0146 18.8081L14.6108 19.398L14.2236 20.0063L13.8551 20.633L13.5051 21.2777L13.1738 21.9386L12.8608 22.615L12.5666 23.3073L12.2932 24.0135L12.0384 24.7324L11.8037 25.4647L11.5883 26.2065L6.71484 45.1307C7.67235 46.1801 8.67653 47.1775 9.74035 48.1182C10.8694 49.1011 12.0626 50.0191 13.3424 50.7961L19.8836 25.9173L20.0877 25.2771L20.3374 24.6726L20.6275 24.103L20.9591 23.5698L21.3276 23.076L21.733 22.6195L22.1716 22.2037L22.6413 21.8287L23.1395 21.495L23.6653 21.2046L24.2152 20.9579L24.7879 20.7532L25.3805 20.5943L25.9919 20.4798L26.6176 20.4106L27.2587 20.3878L28.0444 20.4195L28.4285 20.4608L28.8055 20.518L29.1754 20.5898L29.5367 20.6782L29.8925 20.7824L30.2381 20.9026L30.5752 21.0386L30.9035 21.1892L31.2221 21.3552L31.5293 21.5357L31.8261 21.7327L32.1115 21.9438L32.3859 22.1695L32.6485 22.4096L32.8975 22.6641L33.1326 22.9322L33.3555 23.2145L33.5642 23.5108L33.7582 23.8196L33.9373 24.1419L34.1013 24.4757L34.2482 24.824L34.3799 25.1831L34.4952 25.5542L34.5941 25.9382L34.6754 26.3323L34.7379 26.7386L34.7851 27.1555L34.8123 27.584L34.8222 28.0226L34.8123 28.4122L34.7866 28.7962L34.7435 29.1738L34.684 29.5463L34.6071 29.9117L34.5127 30.269L34.4038 30.6198L34.2781 30.9613L34.137 31.2943L33.98 31.6196L33.808 31.9337L33.6224 32.2382L33.4213 32.5325L33.2061 32.8148L32.9769 33.0869L32.7342 33.3462L32.4773 33.595L32.2072 33.8291L31.9261 34.0491L31.6315 34.2578L31.3245 34.4504L31.0079 34.6289L30.6776 34.7918L30.3361 34.9403L29.9848 35.0718L29.6235 35.1873L29.2523 35.2859L28.8712 35.3673L28.4815 35.4317L28.0817 35.4789L27.6744 35.5057L26.3931 35.5162L26.3618 43.7366L28.1928 43.6907Z" fill="#E31E24"/>
<path fill-rule="evenodd" clip-rule="evenodd" d="M65.8771 48.9675H73.0663L78.1891 26.856C80.0418 21.3344 83.9856 22.0247 85.5082 24.2682C86.6953 26.0002 86.014 28.9896 82.5763 30.0999C82.5763 33.1502 82.5763 36.7178 82.5763 39.8378C88.2806 39.8378 90.417 37.6116 92.9126 34.1597C96.6874 38.7675 98.1572 38.8372 104.413 38.7362L109.849 38.6521L113.899 23.4738H115.507L111.197 40.2366H103.725C99.4128 40.2448 96.8554 40.3318 93.1424 36.8155C90.9298 39.5598 88.1962 41.8322 81.0681 41.6179V28.3595C84.1377 27.949 84.3904 25.9257 83.4647 25.0229C82.5381 24.1208 80.5776 24.1901 79.6818 27.5122L74.5439 50.4073L65.8619 50.5L65.8771 48.9675ZM159.733 50.2541L150.43 33.2752L148.753 40.384L137.459 40.3756C133.05 42.6564 127.889 41.717 123.853 39.0052L124.825 37.4114C128.478 40.115 134.397 41.208 139.206 37.0247L138.647 38.9993L147.842 38.9762L150.017 29.8309L160.291 48.6438H168.968L170 50.2541H159.733ZM149.595 26.5786L146.931 37.6663H140.399L141.985 31.4935C139.496 37.8285 130.599 40.7166 125.653 36.0468L128.944 30.1926C132.452 32.6961 135.499 31.1178 136.38 28.6428C137.253 26.1945 136.579 22.9126 132.606 22.0891L123.777 22.0949L120.04 37.5048H113.991L117.574 22.0949H112.85L108.816 37.0705C96.9632 37.3484 95.309 36.5936 92.8365 31.1557C90.8379 34.2374 89.7271 36.7004 84.1684 38.0561C84.0156 36.0616 84.3215 33.5807 84.2534 31.5024C89.1454 29.2127 88.5866 24.8607 86.611 22.7105C84.1305 19.9987 79.3528 19.368 76.8565 25.8934L71.8495 47.4504L65.1343 47.4324L71.5814 21.8573C72.4465 18.9371 75.5245 14.901 80.5703 14.1753C85.6161 13.4525 90.9528 15.2917 93.0431 20.6317L94.574 14.7854H101.251L98.9999 22.7504C97.0626 29.6289 100.385 30.354 103.732 30.354L107.789 14.8784L131.847 14.852C135.951 14.7451 142.375 16.9247 142.941 22.4178L144.81 14.9475H152.398L150.33 23.722L158.531 14.8607L167.167 14.8461L157.191 25.477L169.379 47.6407L161.241 47.7561L149.595 26.5786ZM114.589 40.2218L114.076 38.6295H121.005L124.651 23.6127L128.402 23.6293C127.988 24.1901 127.077 25.107 126.166 25.0608L122.275 40.2076L114.589 40.2218ZM131.334 29.7996C131.25 29.7996 131.097 29.6373 130.859 29.6373C130.223 29.3221 129.742 28.9148 129.352 28.3595C129.352 28.1107 129.191 27.7868 128.944 27.3971C128.944 27.1481 128.944 26.7493 128.869 26.4312L128.944 26.2724V26.1104L129.029 25.9488V25.7867L129.105 25.4686C129.512 24.6619 129.986 24.0198 131.021 23.6127H131.182L131.334 23.543C131.817 23.3809 132.367 23.543 132.919 23.543C133.08 23.6993 133.485 23.8584 133.876 24.0982C134.282 24.5056 134.68 24.9857 134.91 25.6997C135.154 26.7493 134.832 27.949 134.121 28.9149C133.724 29.2293 133.325 29.4751 132.766 29.7151C132.291 29.7151 131.817 29.7151 131.334 29.7996ZM101.067 27.5733C100.248 27.3564 99.773 26.6165 100.662 23.5372L103.012 15.2218H104.536L101.067 27.5733ZM160.169 27.3971L159.159 25.4918L167.765 16.1011L168.699 17.9661L160.169 27.3971ZM152.198 20.2006L153.538 14.8784H155.132L154.219 17.8647L152.198 20.2006Z" fill="#008AC2"/>
</svg>
