<svg width="170" height="62" viewBox="0 0 170 62" fill="none" xmlns="http://www.w3.org/2000/svg">
<path fill-rule="evenodd" clip-rule="evenodd" d="M16.0499 0.66748V5.71305H10.73V10.7697H5.36493V15.9365H0V33.1461C0 33.1461 9.44816 41.7741 10.8032 43.017V61.3323H33.9938V43.1149C35.3278 41.8713 44.7209 33.1272 44.7209 33.1272V15.9385H39.3889V10.8077H33.9938V5.72215H28.5909V0.66748H16.0499Z" fill="none"/>
<path fill-rule="evenodd" clip-rule="evenodd" d="M19.212 57.3216H14.6641V34.6599H19.212V57.3216Z" fill="#FFD100"/>
<path fill-rule="evenodd" clip-rule="evenodd" d="M24.5979 57.3215H20.0522V29.9819H24.5979V57.3215Z" fill="#FFD100"/>
<path fill-rule="evenodd" clip-rule="evenodd" d="M25.438 57.3216H29.9807V34.6599H25.438V57.3216Z" fill="#FFD100"/>
<path fill-rule="evenodd" clip-rule="evenodd" d="M8.43413 35.5499L3.89014 31.5098V19.8914H8.43413V35.5499Z" fill="#211F20"/>
<path fill-rule="evenodd" clip-rule="evenodd" d="M13.8232 40.6022L9.27734 36.1406V14.7546H13.8232V40.6022Z" fill="#211F20"/>
<path fill-rule="evenodd" clip-rule="evenodd" d="M19.212 33.9488H14.6641V9.70459H19.212V33.9488Z" fill="#211F20"/>
<path fill-rule="evenodd" clip-rule="evenodd" d="M24.5979 28.9832H20.0522V4.64868H24.5979V28.9832Z" fill="#211F20"/>
<path fill-rule="evenodd" clip-rule="evenodd" d="M36.2129 35.5499L40.7566 31.5098V19.8914H36.2129V35.5499Z" fill="#211F20"/>
<path fill-rule="evenodd" clip-rule="evenodd" d="M30.8223 40.6022L35.3719 36.1406V14.7546H30.8223V40.6022Z" fill="#211F20"/>
<path fill-rule="evenodd" clip-rule="evenodd" d="M25.438 33.9488H29.9807V9.70459H25.438V33.9488Z" fill="#211F20"/>
<path fill-rule="evenodd" clip-rule="evenodd" d="M73.0879 56.5226C72.516 57.1015 71.4515 57.3868 69.8933 57.3868H64.7834C63.2403 57.3868 62.1697 57.1134 61.5736 56.5535C60.9716 56.0008 60.6694 55.1585 60.6694 54.0369V49.0944C60.6694 47.9676 60.9716 47.1335 61.5736 46.5737C62.1697 46.0187 63.2403 45.7402 64.7834 45.7402H69.8933C71.4515 45.7402 72.516 46.0267 73.0879 46.6027C73.6648 47.1815 73.9443 48.0108 73.9443 49.0944V54.0369C73.9443 55.1225 73.6648 55.9486 73.0879 56.5226ZM70.453 50.2401C70.453 49.6003 70.3199 49.1264 70.0564 48.8341C69.789 48.5405 69.1991 48.3923 68.2776 48.3923H66.3228C65.4705 48.3923 64.9008 48.5566 64.6152 48.8741C64.3298 49.1926 64.1877 49.6503 64.1877 50.2401V52.8911C64.1877 53.4839 64.3298 53.9347 64.6152 54.258C64.9008 54.5797 65.4705 54.743 66.3228 54.743H68.2776C69.1991 54.743 69.78 54.5905 70.0374 54.3C70.2878 54.0029 70.4269 53.5441 70.453 52.9121V50.2401Z" fill="#211F20"/>
<path fill-rule="evenodd" clip-rule="evenodd" d="M88.3939 56.5226C87.8222 57.1015 86.7596 57.3868 85.2061 57.3868H80.0957C78.5523 57.3868 77.4816 57.1134 76.8808 56.5535C76.278 56.0008 75.9824 55.1585 75.9824 54.0369V49.0944C75.9824 47.9676 76.278 47.1335 76.8808 46.5737C77.4816 46.0187 78.5523 45.7402 80.0957 45.7402H85.2061C86.7596 45.7402 87.8222 46.0267 88.3939 46.6027C88.9699 47.1815 89.2533 48.0108 89.2533 49.0944V50.2401H85.764C85.764 49.6003 85.6289 49.1264 85.3645 48.8341C85.0971 48.5405 84.5072 48.3923 83.5857 48.3923H81.6309C80.7816 48.3923 80.2117 48.5566 79.9234 48.8741C79.638 49.1926 79.4947 49.6503 79.4947 50.2401V52.8911C79.4947 53.4839 79.638 53.9347 79.9234 54.258C80.2117 54.5797 80.7816 54.743 81.6309 54.743H83.5857C84.5072 54.743 85.0971 54.5905 85.3645 54.3C85.6289 54.0029 85.764 53.5341 85.764 52.8911H89.2533V54.0369C89.2533 55.1225 88.9699 55.9486 88.3939 56.5226Z" fill="#211F20"/>
<path fill-rule="evenodd" clip-rule="evenodd" d="M94.7857 57.387H91.3126L91.2905 54.036V49.0946L91.3126 45.7407H94.7857V50.1964H101.053V45.7407H104.565V49.0946V54.036V57.387H101.053V52.8482H94.7857V57.387Z" fill="#211F20"/>
<path fill-rule="evenodd" clip-rule="evenodd" d="M111.094 52.848H110.097C110.109 53.4651 110.259 53.9347 110.544 54.2583C110.834 54.5797 111.398 54.7429 112.253 54.7429H114.208H119.876V57.3868H115.824H110.716C109.172 57.3868 108.097 57.1134 107.499 56.5566C106.902 56.0008 106.602 55.1585 106.602 54.0369V49.0943C106.602 47.9679 106.902 47.1335 107.499 46.5737C108.097 46.0189 109.172 45.7405 110.716 45.7405H115.824H119.876V48.3923H114.208H112.253C111.398 48.3923 110.834 48.5566 110.544 48.8741C110.259 49.1926 110.109 49.6323 110.097 50.197H111.094H119.876V52.848H111.094Z" fill="#211F20"/>
<path fill-rule="evenodd" clip-rule="evenodd" d="M146.724 48.3924H141.933V45.7415H145.963H151.071H155.189V48.3924H150.198V57.3869H146.724V48.3924Z" fill="#211F20"/>
<path fill-rule="evenodd" clip-rule="evenodd" d="M138.856 47.8288H133.46V45.6987H130.018V47.8288H124.492C124.492 47.8288 121.354 47.9239 121.354 51.4833C121.354 55.0447 124.579 55.0697 124.579 55.0697H130.018V57.3772H133.46V55.0697H138.768C138.768 55.0697 141.996 55.0447 141.996 51.4833C141.996 47.9239 138.856 47.8288 138.856 47.8288ZM137.009 52.7523H133.46V50.2887H136.98C136.98 50.2887 138.191 50.1314 138.191 51.5835C138.191 52.7983 137.009 52.7523 137.009 52.7523ZM125.264 51.5835C125.264 50.1314 126.477 50.2887 126.477 50.2887H130.003V52.7523H126.454C126.454 52.7523 125.264 52.7983 125.264 51.5835Z" fill="#211F20"/>
<path fill-rule="evenodd" clip-rule="evenodd" d="M57.7789 46.6025C57.206 46.0268 56.1434 45.7412 54.584 45.7412H45.3794V57.3878H48.8556V53.3727H54.584C56.1434 53.3727 57.206 53.0883 57.7789 52.5105C58.3505 51.9325 58.6382 51.1013 58.6382 50.0196V49.0942C58.6382 48.0106 58.3505 47.1813 57.7789 46.6025ZM54.0011 50.7226H48.8556V48.3921H54.0011C54.646 48.3921 55.1671 48.915 55.1671 49.559C55.1671 50.2019 54.646 50.7226 54.0011 50.7226Z" fill="#211F20"/>
<path fill-rule="evenodd" clip-rule="evenodd" d="M170 54.0364V53.1101C170 52.0285 169.714 51.1961 169.143 50.6184C168.566 50.0436 167.503 49.7591 165.945 49.7591H160.218L160.216 45.7412H156.743V57.3875H165.945C167.503 57.3875 168.566 57.1022 169.143 56.5253C169.714 55.9485 170 55.1172 170 54.0364ZM166.531 53.5709C166.531 54.2158 166.007 54.7385 165.364 54.7385H160.218V52.4069H165.364C166.007 52.4069 166.531 52.9287 166.531 53.5709Z" fill="#211F20"/>
</svg>
