<svg width="125" height="40" viewBox="0 0 125 40" fill="none" xmlns="http://www.w3.org/2000/svg">
<path fill-rule="evenodd" clip-rule="evenodd" d="M12.4635 39.9999H9.00977V22.7905H12.4635V39.9999Z" fill="#FFD100"/>
<path fill-rule="evenodd" clip-rule="evenodd" d="M16.5535 40.0001H13.1016V19.2383H16.5535V40.0001Z" fill="#FFD100"/>
<path fill-rule="evenodd" clip-rule="evenodd" d="M17.1919 39.9999H20.6416V22.7905H17.1919V39.9999Z" fill="#FFD100"/>
<path fill-rule="evenodd" clip-rule="evenodd" d="M4.27886 23.4664L0.828125 20.3983V11.5752H4.27886V23.4664Z" fill="#211F20"/>
<path fill-rule="evenodd" clip-rule="evenodd" d="M8.37106 27.3034L4.91895 23.9151V7.67456H8.37106V27.3034Z" fill="#211F20"/>
<path fill-rule="evenodd" clip-rule="evenodd" d="M12.4635 22.2505H9.00977V3.83936H12.4635V22.2505Z" fill="#211F20"/>
<path fill-rule="evenodd" clip-rule="evenodd" d="M16.5535 18.4797H13.1016V0H16.5535V18.4797Z" fill="#211F20"/>
<path fill-rule="evenodd" clip-rule="evenodd" d="M25.374 23.4664L28.8246 20.3983V11.5752H25.374V23.4664Z" fill="#211F20"/>
<path fill-rule="evenodd" clip-rule="evenodd" d="M21.2803 27.3034L24.7353 23.9151V7.67456H21.2803V27.3034Z" fill="#211F20"/>
<path fill-rule="evenodd" clip-rule="evenodd" d="M17.1919 22.2505H20.6416V3.83936H17.1919V22.2505Z" fill="#211F20"/>
<path fill-rule="evenodd" clip-rule="evenodd" d="M53.5657 19.4611C53.1491 19.8828 52.3735 20.0907 51.2382 20.0907H47.5154C46.3911 20.0907 45.6112 19.8915 45.1768 19.4836C44.7383 19.0809 44.5181 18.4672 44.5181 17.6501V14.0491C44.5181 13.2282 44.7383 12.6205 45.1768 12.2127C45.6112 11.8083 46.3911 11.6055 47.5154 11.6055H51.2382C52.3735 11.6055 53.1491 11.8141 53.5657 12.2338C53.9859 12.6555 54.1896 13.2597 54.1896 14.0491V17.6501C54.1896 18.4409 53.9859 19.0428 53.5657 19.4611ZM51.646 14.8839C51.646 14.4177 51.549 14.0725 51.3571 13.8595C51.1623 13.6456 50.7325 13.5376 50.0611 13.5376H48.6369C48.016 13.5376 47.6009 13.6574 47.3928 13.8886C47.1849 14.1207 47.0813 14.4542 47.0813 14.8839V16.8153C47.0813 17.2471 47.1849 17.5756 47.3928 17.8112C47.6009 18.0456 48.016 18.1645 48.6369 18.1645H50.0611C50.7325 18.1645 51.1557 18.0534 51.3433 17.8418C51.5257 17.6252 51.627 17.291 51.646 16.8305V14.8839Z" fill="#211F20"/>
<path fill-rule="evenodd" clip-rule="evenodd" d="M64.7168 19.4611C64.3003 19.8828 63.5262 20.0907 62.3943 20.0907H58.6711C57.5466 20.0907 56.7666 19.8915 56.3289 19.4836C55.8896 19.0809 55.6743 18.4672 55.6743 17.6501V14.0491C55.6743 13.2282 55.8896 12.6205 56.3289 12.2127C56.7666 11.8083 57.5466 11.6055 58.6711 11.6055H62.3943C63.5262 11.6055 64.3003 11.8141 64.7168 12.2338C65.1365 12.6555 65.3429 13.2597 65.3429 14.0491V14.8839H62.8007C62.8007 14.4177 62.7024 14.0725 62.5097 13.8595C62.3149 13.6456 61.8852 13.5376 61.2137 13.5376H59.7896C59.1708 13.5376 58.7556 13.6574 58.5455 13.8886C58.3376 14.1207 58.2332 14.4542 58.2332 14.8839V16.8153C58.2332 17.2471 58.3376 17.5756 58.5455 17.8112C58.7556 18.0456 59.1708 18.1645 59.7896 18.1645H61.2137C61.8852 18.1645 62.3149 18.0534 62.5097 17.8418C62.7024 17.6252 62.8007 17.2838 62.8007 16.8153H65.3429V17.6501C65.3429 18.4409 65.1365 19.0428 64.7168 19.4611Z" fill="#211F20"/>
<path fill-rule="evenodd" clip-rule="evenodd" d="M69.3736 20.091H66.8432L66.8271 17.6496V14.0495L66.8432 11.606H69.3736V14.8523H73.9398V11.606H76.4981V14.0495V17.6496V20.091H73.9398V16.7842H69.3736V20.091Z" fill="#211F20"/>
<path fill-rule="evenodd" clip-rule="evenodd" d="M81.2549 16.784H80.5289C80.5376 17.2336 80.6464 17.5757 80.8542 17.8114C81.0659 18.0457 81.4766 18.1646 82.0997 18.1646H83.5241H87.6532V20.0908H84.701H80.9797C79.8546 20.0908 79.0718 19.8916 78.6361 19.486C78.2013 19.0811 77.9824 18.4673 77.9824 17.6502V14.0492C77.9824 13.2285 78.2013 12.6206 78.6361 12.2128C79.0718 11.8086 79.8546 11.6057 80.9797 11.6057H84.701H87.6532V13.5377H83.5241H82.0997C81.4766 13.5377 81.0659 13.6575 80.8542 13.8887C80.6464 14.1208 80.5376 14.4412 80.5289 14.8525H81.2549H87.6532V16.784H81.2549Z" fill="#211F20"/>
<path fill-rule="evenodd" clip-rule="evenodd" d="M107.214 13.5378H103.723V11.6064H106.66H110.381H113.382V13.5378H109.745V20.0909H107.214V13.5378Z" fill="#211F20"/>
<path fill-rule="evenodd" clip-rule="evenodd" d="M101.481 13.127H97.5506V11.5752H95.0422V13.127H91.0167C91.0167 13.127 88.73 13.1964 88.73 15.7896C88.73 18.3843 91.0801 18.4025 91.0801 18.4025H95.0422V20.0836H97.5506V18.4025H101.418C101.418 18.4025 103.77 18.3843 103.77 15.7896C103.77 13.1964 101.481 13.127 101.481 13.127ZM100.136 16.7141H97.5506V14.9193H100.115C100.115 14.9193 100.997 14.8047 100.997 15.8626C100.997 16.7476 100.136 16.7141 100.136 16.7141ZM91.5792 15.8626C91.5792 14.8047 92.4629 14.9193 92.4629 14.9193H95.0319V16.7141H92.4461C92.4461 16.7141 91.5792 16.7476 91.5792 15.8626Z" fill="#211F20"/>
<path fill-rule="evenodd" clip-rule="evenodd" d="M42.4117 12.2337C41.9944 11.8143 41.2202 11.6062 40.0841 11.6062H33.3779V20.0914H35.9106V17.1663H40.0841C41.2202 17.1663 41.9944 16.959 42.4117 16.5381C42.8282 16.117 43.0378 15.5113 43.0378 14.7233V14.049C43.0378 13.2595 42.8282 12.6554 42.4117 12.2337ZM39.6594 15.2354H35.9106V13.5375H39.6594C40.1293 13.5375 40.509 13.9185 40.509 14.3876C40.509 14.8561 40.1293 15.2354 39.6594 15.2354Z" fill="#211F20"/>
<path fill-rule="evenodd" clip-rule="evenodd" d="M124.172 17.6497V16.9749C124.172 16.1869 123.963 15.5804 123.547 15.1596C123.127 14.7407 122.353 14.5335 121.218 14.5335H117.046L117.044 11.6062H114.514V20.0913H121.218C122.353 20.0913 123.127 19.8833 123.547 19.4631C123.963 19.0428 124.172 18.4372 124.172 17.6497ZM121.645 17.3106C121.645 17.7805 121.263 18.1612 120.795 18.1612H117.046V16.4626H120.795C121.263 16.4626 121.645 16.8427 121.645 17.3106Z" fill="#211F20"/>
<path fill-rule="evenodd" clip-rule="evenodd" d="M42.9274 26.6388C43.0771 27.3061 43.1514 28.4487 42.8312 28.9753C42.4785 29.1799 41.7876 29.2223 41.455 29.0239C41.1064 28.8158 40.9538 26.6947 41.558 26.4607C42.075 26.2605 42.6439 26.4522 42.9274 26.6388ZM39.9832 26.5185C40.0369 27.3544 39.8039 27.2931 39.1362 27.2555C38.8674 26.7342 39.0317 26.0157 38.9706 25.432L37.8996 25.4103L37.8706 30.1461L38.999 30.1492C38.9928 29.5449 38.8836 28.712 39.1231 28.2577L39.8146 28.2528L39.9579 29.1208C40.1413 30.1645 41.4059 30.4258 42.7177 30.2712C44.1267 30.105 44.3483 29.3577 44.3462 27.8504C44.3441 26.4229 44.3792 25.5103 42.8302 25.294C41.5611 25.1167 39.9891 25.3283 39.9832 26.5185Z" fill="#020202"/>
<path fill-rule="evenodd" clip-rule="evenodd" d="M48.3626 27.7552L48.1382 28.3907C47.7424 28.2323 47.9071 28.3813 47.8543 27.9796L47.3672 25.9794C47.3484 25.9548 47.3191 25.8871 47.3115 25.905L47.0133 25.3713L45.1342 25.3623L45.124 30.1193L46.3291 30.1208L46.3401 28.2682C46.324 28.2364 46.3017 28.2002 46.2923 28.1726L46.2203 26.4786C46.5119 26.6969 46.5852 27.1348 46.6688 27.6054C46.8056 28.1102 47.3129 29.8372 47.5757 30.1977C49.1936 30.2496 48.5093 30.3268 49.7132 26.8542C49.8546 26.9935 49.8882 26.9861 49.8846 27.5041L49.8099 30.215L51.0622 30.2188L51.0769 25.2979L48.9768 25.3027C48.8093 25.8863 48.2958 27.2817 48.3626 27.7552Z" fill="#020202"/>
<path fill-rule="evenodd" clip-rule="evenodd" d="M98.3907 28.5199C98.3403 28.5583 98.4217 28.9091 97.5244 28.6655C97.3461 28.2431 97.3278 27.2652 97.5244 26.8437C97.7313 26.7953 97.6912 26.7389 97.9798 26.7815C98.565 26.8679 98.1991 26.87 98.3303 26.9917C98.6934 27.3689 98.65 28.0786 98.3907 28.5199ZM95.3655 26.9877C95.4237 26.9372 95.2644 26.6536 96.1744 26.8401C96.3348 27.2435 96.3317 28.26 96.1744 28.6574C95.2308 28.9088 95.3596 28.5493 95.3197 28.5174C95.0513 28.1351 94.9898 27.3505 95.3655 26.9877ZM96.1744 25.7676C94.5954 25.9146 93.8258 25.718 93.7849 27.6205C93.719 30.6874 95.6183 29.1163 96.1555 29.898C96.1592 29.9035 96.2756 30.1766 96.2869 30.2015C97.9229 30.243 97.2973 30.2274 97.5014 29.975C97.6639 29.7738 97.4747 29.8561 97.7493 29.7097C99.3635 29.7084 99.9251 29.4607 99.9198 27.7378C99.9135 25.7041 99.1662 25.9363 97.5244 25.7651L97.2994 25.3165L96.3994 25.3132L96.1744 25.7676Z" fill="#020202"/>
<path fill-rule="evenodd" clip-rule="evenodd" d="M81.3174 38.8705C81.497 38.3709 82.4553 36.0674 82.7849 35.8196L82.7962 38.901L84.0089 38.8661L83.9724 33.9693L82.3555 33.9688C81.912 34.6276 81.3303 36.2155 81.0508 36.6845L80.7513 37.0138L80.7084 33.975L79.5472 33.9694L79.5322 38.9003L81.3174 38.8705Z" fill="#020202"/>
<path fill-rule="evenodd" clip-rule="evenodd" d="M72.9711 27.955L72.6624 28.4529C72.4062 27.9957 72.5712 25.9524 72.5274 25.3743L71.4483 25.3628L71.4287 30.1323L73.1131 30.1339C73.4801 29.8054 74.0194 28.0581 74.3024 27.5897L74.6104 27.2469L74.6275 30.1579L75.8716 30.2116L75.8753 25.333L74.1659 25.2974L72.9711 27.955Z" fill="#020202"/>
<path fill-rule="evenodd" clip-rule="evenodd" d="M79.8731 27.1333C79.9671 26.917 79.6915 26.8622 80.0298 26.9821L80.0759 30.1339L81.1243 30.1283L81.1098 25.4444L79.5009 25.4286L78.0076 28.4731L77.9334 25.3027L76.7563 25.3013L76.7119 30.1911L78.4947 30.2158L79.8731 27.1333Z" fill="#020202"/>
<path fill-rule="evenodd" clip-rule="evenodd" d="M117.442 26.5067C117.776 27.072 117.744 28.5305 117.408 29.045C116.903 29.1692 116.352 29.1442 115.954 28.9999C115.77 28.4716 115.728 27.5742 115.834 26.945C115.957 26.2102 116.829 26.3359 117.442 26.5067ZM116.052 25.3102C114.252 25.5768 114.412 26.7322 114.49 28.5305C114.561 30.1416 115.835 30.5225 117.494 30.2457C119.153 29.9689 119.03 28.7746 118.981 27.0565C118.934 25.3908 117.698 25.0664 116.052 25.3102Z" fill="#020202"/>
<path fill-rule="evenodd" clip-rule="evenodd" d="M121.161 28.261C121.012 28.6852 121.286 28.4156 120.924 28.5656C120.689 27.9527 120.873 26.2235 120.819 25.4443L119.809 25.4401L119.81 30.1492C120.435 30.1184 120.909 30.2116 121.508 30.0376C121.858 29.4795 122.522 27.5094 122.946 27.1551L122.965 30.1863L124.074 30.2231V25.2966L122.528 25.3023C122.28 25.6596 121.237 27.8337 121.161 28.261Z" fill="#020202"/>
<path fill-rule="evenodd" clip-rule="evenodd" d="M90.7723 40H91.8737L91.8744 37.975C91.7774 37.7213 92.0271 37.8402 91.6611 37.7581C91.3752 37.531 91.5073 38.104 91.4013 37.3085L91.4066 34.0288L90.2436 34.0384L90.2338 36.964C90.246 37.9233 90.198 37.665 90.0132 37.764L88.6109 37.7413C88.3525 37.6035 88.4988 37.8256 88.4297 37.4165C88.4251 37.3897 88.4308 37.0199 88.4316 36.9646C88.4362 36.6264 88.4348 36.2884 88.4348 35.9501C88.4348 35.3101 88.4451 34.6692 88.4183 34.0298L87.2806 34.0467L87.2544 38.801L90.7014 38.815L90.7723 40Z" fill="#020202"/>
<path fill-rule="evenodd" clip-rule="evenodd" d="M107.337 26.3848L107.326 27.4048C106.844 27.4123 106.333 27.4322 105.939 27.2744L105.95 26.4338L107.337 26.3848ZM105.259 25.5131C104.565 25.7517 104.038 27.3883 105.368 28.3002C105.253 29.0314 104.634 29.4701 104.482 30.2207C106.006 30.2264 105.877 30.5464 106.709 28.5032L107.299 28.4788C107.484 28.6394 107.451 28.7258 107.439 29.1974C107.431 29.5203 107.431 29.8228 107.436 30.1459L108.551 30.1488L108.549 25.4058C107.366 25.3951 106.394 25.3989 105.259 25.5131Z" fill="#020202"/>
<path fill-rule="evenodd" clip-rule="evenodd" d="M67.6379 27.1322L67.5959 25.3594L66.3223 25.3099L66.3361 30.222L67.5825 30.2078L67.6125 28.3254C68.2539 28.2993 68.9943 29.6606 69.2959 30.1945L70.8567 30.2244C70.5994 29.4886 69.5691 28.5201 69.1556 27.7377C69.4214 27.0289 70.5863 25.871 70.704 25.3112L69.2877 25.2983C68.4598 26.2243 68.3274 27.1572 67.6379 27.1322Z" fill="#040404"/>
<path fill-rule="evenodd" clip-rule="evenodd" d="M54.7583 35.3069L54.9301 35.0103L55.0553 35.3244L55.4548 37.1008L54.3125 37.0648L54.7583 35.3069ZM53.9997 38.0652L55.7753 38.0929L56.012 38.8839L57.335 38.8853L55.846 33.9695L53.8917 33.9678L52.4839 38.9096L53.7892 38.8662L53.9997 38.0652Z" fill="#040404"/>
<path fill-rule="evenodd" clip-rule="evenodd" d="M65.5808 28.4033L64.338 28.387L64.1058 29.0634C62.6442 29.3283 62.649 28.8141 62.6462 27.8518C62.644 27.0779 62.5246 26.1857 63.7599 26.4176C64.4456 26.5463 64.0014 26.7962 64.4504 27.061L65.5621 27.0541C65.7104 25.4064 64.566 25.1686 63.0953 25.2661C61.3649 25.3808 61.3089 26.1305 61.3091 27.8505C61.3093 29.4514 61.4538 30.2219 63.0961 30.294C64.804 30.3691 65.6277 30.1837 65.5808 28.4033Z" fill="#020202"/>
<path fill-rule="evenodd" clip-rule="evenodd" d="M56.454 30.2068L57.601 30.2246L57.6278 28.3357L59.2731 28.2929L59.3179 30.1785L60.4765 30.242C60.6816 29.2574 60.559 26.5138 60.5315 25.3737L59.3723 25.3521L59.3366 27.1427C58.8474 27.3453 58.1105 27.3012 57.5538 27.1861L57.5233 25.3717L56.4053 25.4229L56.454 30.2068Z" fill="#020202"/>
<path fill-rule="evenodd" clip-rule="evenodd" d="M70.5712 38.8295L71.759 38.8492L71.7398 34.016L70.5919 34.0766L70.5306 35.8715L69.175 35.8932C68.5089 35.8469 69.006 35.9232 68.8237 35.6351L68.8369 34.0288L67.5921 34.0103L67.5864 38.8468L68.7578 38.8476L68.7789 37.0142C69.2886 36.8007 70.0041 36.8703 70.557 36.9375L70.5712 38.8295Z" fill="#020202"/>
<path fill-rule="evenodd" clip-rule="evenodd" d="M96.859 38.7853L98.0407 38.8067L98.0694 36.9614C98.6258 36.7844 99.347 36.7893 99.8813 36.9617L99.9223 38.7865L101.013 38.81L101.058 34.0503L99.9246 34.0493L99.8087 35.7659C99.5759 35.9668 99.5976 35.9216 98.9869 35.9145C98.5823 35.9099 98.5074 35.9427 98.0967 35.8208L98.0591 34.0298L96.8174 34.0447L96.859 38.7853Z" fill="#010101"/>
<path fill-rule="evenodd" clip-rule="evenodd" d="M85.7761 28.2953C86.6676 28.31 86.9563 28.2141 87.3049 28.4038L87.3826 30.2107L88.5614 30.2063L88.5967 25.3589L87.4315 25.3655L87.3743 27.1935L85.7345 27.19C85.6037 27.0449 85.658 27.1815 85.5933 26.9439C85.5149 26.6568 85.6373 25.9772 85.5419 25.446L84.4663 25.4059L84.4732 30.1562L85.5865 30.1163C85.5782 29.7734 85.5727 29.4289 85.5674 29.0862C85.553 28.1534 85.6276 28.3768 85.7761 28.2953Z" fill="#010101"/>
<path fill-rule="evenodd" clip-rule="evenodd" d="M110.882 28.3058L112.449 28.3011L112.499 30.1303L113.726 30.1432L113.712 25.3518L112.544 25.3859L112.493 27.2131L110.864 27.1744C110.685 26.9867 110.73 27.4088 110.695 26.8377L110.667 25.4012L109.596 25.4382L109.59 30.1407L110.697 30.1606C110.69 29.8018 110.69 29.4444 110.686 29.0856C110.675 28.1277 110.709 28.3908 110.882 28.3058Z" fill="#010101"/>
<path fill-rule="evenodd" clip-rule="evenodd" d="M47.7752 38.9468L48.9274 38.9332L48.9606 36.9982C49.4751 36.8091 50.182 36.8593 50.7204 36.9524L50.7779 38.8878L51.8514 38.8594L51.8675 34.0526L50.7803 34.0574L50.727 35.8656C50.1859 35.9706 49.4661 36.0278 48.9503 35.8138L48.9131 34.0434L47.748 34.0271L47.7752 38.9468Z" fill="#010101"/>
<path fill-rule="evenodd" clip-rule="evenodd" d="M108.772 35.2745C109.005 35.4192 108.904 36.0176 108.822 36.2744C108.693 36.4164 108.89 36.3741 108.525 36.4807L107.402 36.4743L107.408 35.0307C107.629 34.9985 108 34.9534 108.22 34.9729C108.681 35.0137 108.618 34.9386 108.772 35.2745ZM107.417 38.779L107.461 37.5568C108.615 37.4525 109.886 37.8463 110.174 36.5644C110.434 35.4066 110.213 34.1507 109.17 34.0559L106.218 34.0188L106.19 38.8437L107.417 38.779Z" fill="#020202"/>
<path fill-rule="evenodd" clip-rule="evenodd" d="M74.0892 37.8745C73.9182 37.7134 73.7888 38.2756 73.9514 36.8925C74.2863 36.8056 74.7679 36.7473 75.108 36.8796C75.2657 36.941 75.4187 37.0598 75.442 37.2994C75.4924 37.817 75.291 37.728 75.2198 37.7951L74.0892 37.8745ZM72.731 38.881C74.0439 39.0031 76.3026 39.2258 76.5943 37.9631C76.7671 37.2147 76.6104 36.4062 76.1169 36.0955C75.5968 35.7683 74.7404 35.905 74.0817 35.8614C73.8025 35.5296 73.9163 34.7625 73.8931 34.0073L72.7119 34.0656L72.731 38.881Z" fill="#020202"/>
<path fill-rule="evenodd" clip-rule="evenodd" d="M96.007 37.864L93.7203 37.847L93.7033 36.8748L95.7254 36.7999L95.7486 36.0046L93.7158 35.9824L93.7289 35.1621C93.876 34.9428 93.5128 35.0088 94.0373 34.9622L95.8823 34.9637L95.8385 34.1086L92.4584 34.1496L92.4497 38.8791L95.9829 38.9057L96.007 37.864Z" fill="#020202"/>
<path fill-rule="evenodd" clip-rule="evenodd" d="M52.0506 30.2145L55.3818 30.2129L55.3912 29.2043L53.1924 29.1615L53.1988 28.1429L55.2299 28.125L55.2014 27.3403L53.1727 27.2853L53.222 26.4996C53.3923 26.266 53.0287 26.3563 53.6424 26.3002L55.3788 26.315L55.3506 25.3728L51.9966 25.3889L52.0506 30.2145Z" fill="#020202"/>
<path fill-rule="evenodd" clip-rule="evenodd" d="M89.6391 30.2092L92.9719 30.229L92.9855 29.2031L90.7733 29.1651L90.7768 28.1434L92.8002 28.1235L92.7777 27.338L90.7423 27.2986L90.7998 26.4998C90.9641 26.2745 90.6175 26.357 91.2162 26.3005H92.9419L92.9108 25.3677L89.5967 25.4339L89.6391 30.2092Z" fill="#020202"/>
<path fill-rule="evenodd" clip-rule="evenodd" d="M58.0534 38.8651C59.8205 39.2596 60.0759 38.1272 60.647 36.978C60.925 36.4186 61.9491 34.4494 62.0393 33.9644L60.6126 33.9756L59.699 36.0283L58.8254 33.9666L57.4863 33.9631C57.5273 34.6678 58.835 36.8561 58.9766 37.3826C59.1336 37.966 58.542 37.8545 58.0643 37.8941L58.0534 38.8651Z" fill="#060606"/>
<path fill-rule="evenodd" clip-rule="evenodd" d="M62.7165 36.0335C62.7319 36.5613 63.052 36.8826 63.5519 36.9052C64.1738 36.9465 64.916 36.8567 65.3503 36.9024C65.5832 37.4123 65.3731 38.1661 65.5088 38.776L66.6037 38.7664L66.6182 34.0623L65.4935 34.0739L65.4565 35.4999C65.4468 36.1798 65.4835 35.6447 65.2922 35.8519C64.7904 35.9168 64.1321 36.0315 63.9486 35.5528C63.939 35.5278 63.9279 35.4973 63.9201 35.4692L63.8826 34.9393C63.8803 34.6772 63.886 34.4118 63.8826 34.1495L62.6789 34.0692C62.5839 34.7146 62.6516 35.4053 62.7165 36.0335Z" fill="#020202"/>
<path fill-rule="evenodd" clip-rule="evenodd" d="M34.6543 26.5417L34.634 30.2041L35.9387 30.207L35.942 26.4454L37.149 26.3793L37.1138 25.4525C36.6784 25.3036 34.0249 25.357 33.4054 25.4142L33.3779 26.3247C33.6293 26.3372 33.8508 26.3215 34.0841 26.3278C34.7378 26.3451 34.5715 26.3822 34.6543 26.5417Z" fill="#020202"/>
<path fill-rule="evenodd" clip-rule="evenodd" d="M104.171 38.8648C104.23 37.9114 104.005 35.8435 104.298 35.0842L105.513 35.0582L105.519 34.0332L101.663 34.0837L101.7 35.1206L102.956 35.1356L102.979 38.826L104.171 38.8648Z" fill="#020202"/>
<path fill-rule="evenodd" clip-rule="evenodd" d="M101.685 30.1938L102.732 30.2215L102.803 26.4235L104.107 26.3651L104.105 25.3674L100.315 25.3616L100.297 26.3623L101.574 26.3847C101.813 27.3362 101.559 29.1087 101.685 30.1938Z" fill="#020202"/>
<path fill-rule="evenodd" clip-rule="evenodd" d="M77.3857 38.9036L78.6801 38.8359L78.6641 33.9736L77.3888 33.9795L77.3857 38.9036Z" fill="#020202"/>
<path fill-rule="evenodd" clip-rule="evenodd" d="M82.7666 32.6164C81.757 32.5846 82.5592 33.0334 81.6629 33.0345C80.7625 33.0356 81.5557 32.5829 80.5604 32.62C80.456 33.9987 82.853 34.0085 82.7666 32.6164Z" fill="#0B0B0B"/>
<path fill-rule="evenodd" clip-rule="evenodd" d="M79.8298 24.4823L79.9107 24.024L79.3683 24.1123C79.1303 24.4609 79.0026 24.3652 78.4857 24.3479C78.0828 23.9061 78.4601 23.9319 77.7546 23.9352C77.6572 25.0642 78.7581 25.0463 79.3788 24.8955C79.8394 24.7837 79.7694 24.728 79.8298 24.4823Z" fill="#0B0B0B"/>
<path fill-rule="evenodd" clip-rule="evenodd" d="M122.811 24.5016L122.898 24.0253C122.534 24.0527 122.597 24.032 122.353 24.151C122.111 24.4442 121.958 24.3841 121.486 24.3253C121.07 23.9175 121.435 23.9138 120.72 23.9369C120.651 25.4388 122.592 25.0469 122.811 24.5016Z" fill="#090909"/>
</svg>
