<svg width="170" height="44" viewBox="0 0 170 44" fill="none" xmlns="http://www.w3.org/2000/svg">
<path d="M53.0659 19.424C52.2595 19.0012 51.5862 18.3671 51.1165 17.592C50.6389 16.7856 50.3962 15.8696 50.4118 14.9301C50.3962 13.9906 50.6389 13.0746 51.1243 12.2682C51.594 11.4932 52.2673 10.859 53.0737 10.4362C53.9349 9.98999 54.8979 9.76295 55.8687 9.77861C56.7064 9.76295 57.5441 9.92736 58.3192 10.2562C59.0238 10.5615 59.6501 11.0391 60.1277 11.6419L58.3427 13.2547C57.7007 12.4796 56.9256 12.096 56.0096 12.096C55.5086 12.0882 55.0153 12.2056 54.5769 12.4483C54.162 12.6754 53.8175 13.0277 53.5983 13.4504C53.1364 14.3821 53.1364 15.4703 53.5983 16.402C53.8253 16.8247 54.162 17.1692 54.5769 17.4041C55.0153 17.6468 55.5086 17.7642 56.0096 17.7564C56.9256 17.7564 57.7085 17.3728 58.3427 16.5977L60.1277 18.2105C59.6501 18.8133 59.0238 19.2909 58.3192 19.5962C57.5441 19.925 56.7142 20.0895 55.8687 20.0738C54.8901 20.0895 53.9349 19.8702 53.0659 19.424Z" fill="#0F1740"/>
<path d="M68.1825 17.9676H63.994L63.2111 19.8935H60.3613L64.7299 9.98193H67.4779L71.8622 19.8857H68.9576L68.1825 17.9676ZM67.3683 15.9007L66.0922 12.7299L64.8161 15.9007H67.3683Z" fill="#0F1740"/>
<path d="M75.0732 9.96631L76.8425 12.6438L78.5963 9.96631H81.8531L78.5963 14.7029L82.135 19.8857H78.8311L76.8425 16.9498L74.8618 19.8857H71.6362L75.1593 14.8281L71.8633 9.96631H75.0732Z" fill="#0F1740"/>
<path d="M89.7367 17.968H85.5482L84.7653 19.894H81.9155L86.2841 9.99023H89.0321L93.4164 19.894H90.5118L89.7367 17.968ZM88.9147 15.8933L87.6386 12.7226L86.3624 15.8933H88.9147Z" fill="#0F1740"/>
<path d="M104.056 9.97437V19.8781H101.308V12.1978H98.4583L98.3956 13.8028C98.3721 14.9615 98.2625 16.1202 98.0511 17.2554C97.8711 18.1401 97.5579 18.829 97.1117 19.3144C96.6654 19.7998 96.0391 20.0425 95.2249 20.0425C94.7943 20.0425 94.3715 19.9799 93.9487 19.8703L94.1053 17.5764C94.2306 17.6077 94.3558 17.6233 94.4889 17.6233C94.8256 17.639 95.1544 17.4746 95.3423 17.1849C95.5693 16.8091 95.7181 16.3942 95.7651 15.9636C95.859 15.2903 95.9216 14.6013 95.9295 13.9202L96.0704 9.97437H104.056Z" fill="#0F1740"/>
<path d="M106.318 9.97437H109.066V15.807L113.153 9.98219H115.799V19.8859H113.044V14.0846L108.972 19.8859H106.318V9.97437Z" fill="#0F1740"/>
<path d="M127.481 9.97437V19.8859H124.678V16.0184H120.857V19.8859H118.062V9.97437H120.857V13.6932H124.678V9.97437H127.481Z" fill="#0F1740"/>
<path d="M131.779 19.4242C130.972 19.0014 130.299 18.3673 129.829 17.5922C129.352 16.7858 129.109 15.8698 129.125 14.9303C129.109 13.9909 129.352 13.0749 129.829 12.2685C130.299 11.4934 130.972 10.8592 131.779 10.4365C132.64 9.99022 133.603 9.76318 134.574 9.77883C135.411 9.77101 136.249 9.93542 137.024 10.2642C137.729 10.5696 138.355 11.0471 138.833 11.65L137.048 13.2628C136.406 12.4877 135.631 12.1041 134.715 12.1041C134.214 12.0962 133.72 12.2137 133.274 12.4564C132.859 12.6834 132.515 13.0357 132.288 13.4585C131.826 14.3901 131.826 15.4784 132.288 16.41C132.515 16.8328 132.851 17.1773 133.274 17.4121C133.713 17.6549 134.206 17.7723 134.715 17.7645C135.631 17.7645 136.414 17.3808 137.048 16.6058L138.833 18.2185C138.355 18.8214 137.729 19.2989 137.024 19.6043C136.249 19.9331 135.419 20.0975 134.574 20.0819C133.603 20.0819 132.64 19.8705 131.779 19.4242Z" fill="#0F1740"/>
<path d="M144.235 16.0888H142.967V19.8859H140.172V9.97437H142.967V13.8184H144.306L146.662 9.97437H149.614L146.513 14.7579L149.637 19.8859H146.482L144.235 16.0888Z" fill="#0F1740"/>
<path d="M157.279 17.968H153.09L152.307 19.894H149.458L153.826 9.99023H156.574L160.974 19.8861H158.054L157.279 17.968ZM156.457 15.8933L155.181 12.7226L153.904 15.8933H156.457Z" fill="#0F1740"/>
<path d="M170 9.97437V19.8781H167.252V17.3885H165.726L164.097 19.8781H161.146L163.15 16.9814C162.531 16.723 161.999 16.2767 161.639 15.7131C161.279 15.1259 161.099 14.4369 161.114 13.748C161.099 13.0433 161.279 12.3466 161.654 11.7359C162.03 11.1566 162.563 10.7025 163.197 10.4363C163.941 10.1231 164.747 9.96654 165.553 9.98219H170V9.97437ZM163.948 13.6932C163.917 14.1159 164.074 14.5309 164.371 14.8362C164.653 15.0946 165.052 15.2277 165.577 15.2277H167.244V12.1822H165.6C164.496 12.1822 163.948 12.6832 163.948 13.6932Z" fill="#0F1740"/>
<path d="M57.1515 24.5835C57.9265 25.0062 58.5763 25.6404 59.0148 26.4155C59.9073 28.0752 59.9073 30.0716 59.0148 31.7314C58.5763 32.5064 57.9344 33.1406 57.1515 33.5634C56.3294 34.0096 55.4056 34.2367 54.4661 34.221C53.6206 34.2367 52.775 34.0723 51.9999 33.7434C51.2875 33.4381 50.6612 32.9605 50.1836 32.3577L51.953 30.7449C52.6106 31.52 53.4013 31.9036 54.3252 31.9036C54.8732 31.9193 55.4134 31.747 55.844 31.4104C56.2746 31.0659 56.5799 30.5962 56.713 30.0638H53.1273V27.9969H56.6817C56.5408 27.4802 56.2433 27.0339 55.8205 26.713C55.3899 26.392 54.8575 26.2276 54.3173 26.2432C53.3857 26.2432 52.5167 26.6738 51.9451 27.4019L50.1758 25.7891C50.6612 25.1863 51.2797 24.7166 51.9921 24.4112C52.775 24.0746 53.6127 23.9102 54.4661 23.918C55.3978 23.918 56.3216 24.1372 57.1515 24.5835Z" fill="#0F1740"/>
<path d="M70.7592 24.1216V34.0331H67.9564V30.1734H64.1358V34.0331H61.3408V24.1216H64.1436V27.8404H67.9642V24.1216H70.7592Z" fill="#0F1740"/>
<path d="M80.9763 31.8645V34.0331H73.022V24.1216H80.7962V26.2902H75.8013V27.95H80.209V30.0482H75.8013V31.8645H80.9763Z" fill="#0F1740"/>
<path d="M89.5804 24.5675C91.3498 25.3191 92.1796 27.3703 91.4202 29.1475C91.0679 29.9774 90.4025 30.635 89.5804 30.9873C88.8445 31.3005 88.0459 31.4492 87.2474 31.4336H85.5171V34.025H82.7222V24.1212H87.2395C88.0381 24.1056 88.8366 24.2543 89.5804 24.5675ZM88.3747 28.8578C88.6722 28.5916 88.8367 28.1923 88.8132 27.7931C88.8367 27.3859 88.6722 26.9945 88.3747 26.7205C88.0851 26.4621 87.6466 26.3369 87.0751 26.3369H85.5171V29.2336H87.0751C87.6466 29.2336 88.0851 29.1083 88.3747 28.8578Z" fill="#0F1740"/>
<path d="M100.29 26.345H95.8042V34.0331H93.0483V24.1216H100.314L100.29 26.345Z" fill="#0F1740"/>
<path d="M101.708 24.1216H104.456V29.9542L108.543 24.1372H111.173V34.0331H108.425V28.2318L104.346 34.0331H101.708V24.1216Z" fill="#0F1740"/>
<path d="M121.742 24.1216V34.0253H118.994V31.5357H117.467L115.839 34.0253H112.887L114.891 31.1286C114.273 30.8702 113.741 30.424 113.38 29.8603C113.02 29.2653 112.84 28.5841 112.856 27.8952C112.84 27.1906 113.028 26.4938 113.396 25.8831C113.772 25.3038 114.304 24.8497 114.938 24.5835C115.682 24.2703 116.481 24.1138 117.287 24.1294H121.742V24.1216ZM115.682 27.8404C115.651 28.2631 115.807 28.6781 116.105 28.9834C116.379 29.2418 116.786 29.3749 117.311 29.3749H118.978V26.3294H117.35C116.238 26.3294 115.682 26.8304 115.682 27.8404Z" fill="#0F1740"/>
<path d="M43.0512 22.0002C43.0512 33.8064 33.5389 43.3813 21.811 43.3813C10.0831 43.3813 0.570801 33.8143 0.570801 22.0002C0.570801 10.1862 10.0831 0.626958 21.811 0.626958C33.5389 0.619129 43.0512 10.194 43.0512 22.0002Z" fill="#0F1740"/>
<path d="M21.8117 0.618866C33.5475 0.618866 43.0519 10.186 43.0519 21.9921C43.0519 33.7983 33.5396 43.3733 21.8117 43.3733C10.0838 43.3733 0.57152 33.8062 0.57152 21.9921C0.57152 10.1938 10.076 0.618866 21.8117 0.618866ZM21.8117 0.0551758C15.9869 0.0551758 10.5144 2.34126 6.3885 6.48282C2.27042 10.6244 0 16.136 0 22C0 27.8639 2.27042 33.3756 6.3885 37.5171C10.5066 41.6587 15.9869 43.9448 21.8117 43.9448C27.6365 43.9448 33.109 41.6587 37.2349 37.5171C41.353 33.3756 43.6234 27.8639 43.6234 22C43.6234 16.136 41.353 10.6244 37.2349 6.48282C33.109 2.33343 27.6365 0.0551758 21.8117 0.0551758Z" fill="white"/>
<path d="M32.8581 33.1175C26.7593 39.2555 16.8634 39.2555 10.7646 33.1175C4.66572 26.9795 4.66572 17.021 10.7646 10.883C16.8634 4.74505 26.7593 4.74505 32.8581 10.883C38.9569 17.021 38.9569 26.9795 32.8581 33.1175Z" fill="#0F1740"/>
<path d="M26.462 10.8201L26.9708 11.8535L28.1061 12.0257L27.284 12.8243L27.4797 13.9595L26.462 13.4271L25.452 13.9595L25.6477 12.8243L24.8257 12.0257L25.9609 11.8535L26.462 10.8201Z" fill="#F7A824"/>
<path d="M26.462 14.5232L26.9708 15.5566L28.1061 15.721L27.284 16.5274L27.4797 17.6626L26.462 17.1224L25.452 17.6626L25.6477 16.5274L24.8257 15.721L25.9609 15.5566L26.462 14.5232Z" fill="#F7A824"/>
<path d="M21.8123 7.73552C25.6016 7.73552 29.156 9.22303 31.8335 11.9162C34.511 14.6094 35.9829 18.1951 35.9829 22C35.9829 25.8049 34.511 29.3906 31.8335 32.0838C29.156 34.777 25.5938 36.2645 21.8123 36.2645C18.0309 36.2645 14.4687 34.777 11.7911 32.0838C9.11361 29.3906 7.64175 25.8049 7.64175 22C7.64175 18.1951 9.11361 14.6094 11.7911 11.9162C14.4608 9.2152 18.0231 7.73552 21.8123 7.73552ZM21.8123 6.27148C13.1847 6.27148 6.18555 13.3098 6.18555 21.9922C6.18555 30.6746 13.1847 37.7129 21.8123 37.7129C30.4399 37.7129 37.4391 30.6746 37.4391 21.9922C37.4391 13.3176 30.4399 6.27148 21.8123 6.27148Z" fill="#0F1740"/>
<path d="M40.3353 25.0767C40.2726 25.4055 39.9595 25.6169 39.6306 25.5543C39.3018 25.4916 39.0904 25.1706 39.1531 24.8496C39.2157 24.5208 39.5289 24.3094 39.8577 24.3721C40.1865 24.4347 40.3979 24.7479 40.3353 25.0767Z" fill="white"/>
<path d="M3.17848 25.0767C3.24111 25.4055 3.55427 25.6169 3.88309 25.5543C4.21191 25.4916 4.42329 25.1706 4.35283 24.8496C4.2902 24.5208 3.97704 24.3094 3.64822 24.3721C3.32723 24.4347 3.11584 24.7479 3.17848 25.0767Z" fill="white"/>
<path d="M4.72142 19.5497C4.5805 19.7297 4.41609 19.8628 4.2047 19.9411C4.00115 20.0194 3.78194 20.0429 3.53923 20.0037C3.30436 19.9646 3.10081 19.8707 2.92857 19.7297C2.76416 19.5888 2.63889 19.4087 2.56843 19.1895C2.49797 18.9703 2.48231 18.7433 2.52146 18.4927C2.56843 18.2735 2.63889 18.0856 2.7485 17.9212C2.85028 17.7568 2.9912 17.6315 3.14778 17.5376L3.46094 18.0308C3.24956 18.1561 3.1243 18.3283 3.09298 18.5475C3.06949 18.6806 3.07732 18.7981 3.1243 18.9077C3.16344 19.0173 3.2339 19.1112 3.32002 19.1817C3.41397 19.2522 3.52358 19.2991 3.65667 19.3226C3.78976 19.3461 3.91503 19.3383 4.02464 19.2991C4.13424 19.26 4.22819 19.1974 4.29865 19.1034C4.37694 19.0173 4.42392 18.9077 4.4474 18.7824C4.48655 18.5632 4.42392 18.3596 4.25951 18.1718L4.71359 17.8116C4.83886 17.9525 4.92498 18.1169 4.97195 18.3048C5.01892 18.4927 5.02675 18.6963 4.98761 18.9155C4.94846 19.1582 4.86234 19.3696 4.72142 19.5497Z" fill="white"/>
<path d="M5.31596 15.7288L4.98714 16.6917L5.37076 17.0206L5.14372 17.686L3.21777 15.901L3.42916 15.2669L6.04406 15.032L5.81702 15.7053L5.31596 15.7288ZM4.77575 15.7601L3.9537 15.8071L4.58003 16.3473L4.77575 15.7601Z" fill="white"/>
<path d="M4.3533 13.0905L5.12838 13.02L4.75258 12.3311L5.12838 11.6343L5.77036 12.8791L7.27353 12.7069L6.90557 13.4193L6.0522 13.5132L6.45148 14.2727L6.08352 14.9616L5.40239 13.6307L3.99316 13.7794L4.3533 13.0905Z" fill="white"/>
<path d="M8.07999 10.8359L7.46932 11.6501L7.72768 12.0807L7.31274 12.6366L6.04443 10.3349L6.45154 9.80249L9.00381 10.4053L8.58104 10.969L8.07999 10.8359ZM7.56327 10.6872L6.76471 10.468L7.18747 11.1804L7.56327 10.6872Z" fill="white"/>
<path d="M9.32423 6.77271L10.9605 8.53424L10.4751 8.98832L9.2068 7.61824L8.70574 8.08798L8.9641 8.38549C9.19114 8.64385 9.35555 8.87089 9.47299 9.05878C9.59042 9.24668 9.64523 9.41892 9.64523 9.58333C9.64523 9.74774 9.57476 9.88866 9.43384 10.0218C9.36338 10.0844 9.28509 10.147 9.18331 10.2018L8.831 9.77123C8.831 9.77123 8.88581 9.73991 8.90929 9.71642C8.97193 9.65379 9.00324 9.58333 8.98759 9.49721C8.97193 9.41109 8.93278 9.31714 8.86232 9.20754C8.79186 9.09793 8.69008 8.97267 8.55699 8.81609L7.93066 8.08798L9.32423 6.77271Z" fill="white"/>
<path d="M10.1777 6.09936L10.7336 5.73139L11.5008 6.91358L11.5635 5.18336L12.0959 4.83105L13.4033 6.85095L12.8474 7.21891L12.0802 6.03673L12.0254 7.76695L11.4852 8.11925L10.1777 6.09936Z" fill="white"/>
<path d="M15.149 3.40576L16.0963 5.62138L15.47 5.8954L15.102 5.0342L14.2565 5.39434L14.6244 6.26336L13.9981 6.52955L13.0508 4.31393L13.6771 4.04774L14.0294 4.87762L14.8828 4.50966L14.5226 3.67978L15.149 3.40576Z" fill="white"/>
<path d="M17.1921 5.19104C16.9729 5.13624 16.785 5.02663 16.6284 4.87005C16.4718 4.71347 16.3622 4.51774 16.3074 4.28287C16.2526 4.048 16.2526 3.82879 16.3231 3.60957C16.3857 3.39819 16.5031 3.21812 16.6754 3.06154C16.8476 2.91279 17.0512 2.80318 17.2939 2.74055C17.5052 2.68575 17.7088 2.67792 17.8967 2.70923C18.0846 2.74055 18.2568 2.81884 18.4056 2.92845L18.0768 3.41385C17.881 3.2651 17.6775 3.21812 17.4583 3.27293C17.333 3.30424 17.2234 3.35905 17.1451 3.43734C17.059 3.51563 17.0042 3.6174 16.9729 3.72701C16.9415 3.84445 16.9415 3.96188 16.9807 4.09498C17.012 4.22807 17.0668 4.33768 17.1451 4.42379C17.2234 4.50991 17.3173 4.57255 17.4348 4.60386C17.5444 4.63518 17.6696 4.63518 17.7949 4.60386C18.0063 4.54906 18.1707 4.41597 18.2725 4.19675L18.7814 4.47077C18.7031 4.64301 18.5856 4.78393 18.4369 4.90137C18.2881 5.0188 18.1002 5.10492 17.8889 5.15972C17.6383 5.24584 17.4113 5.24584 17.1921 5.19104Z" fill="white"/>
<path d="M20.2308 3.8288L19.9255 3.85228L20.0038 4.77611L19.3305 4.83091L19.127 2.4274L19.8003 2.3726L19.8785 3.30425L20.2074 3.28076L20.6928 2.29431L21.4052 2.2395L20.7554 3.46083L21.6088 4.63519L20.8493 4.70565L20.2308 3.8288Z" fill="white"/>
<path d="M23.6281 4.29842L22.6181 4.22013L22.3989 4.67422L21.71 4.61942L22.9391 2.29419L23.6046 2.34116L24.4893 4.82297L23.7847 4.76817L23.6281 4.29842ZM23.4637 3.78171L23.2131 2.99097L22.8452 3.73473L23.4637 3.78171Z" fill="white"/>
<path d="M27.2844 3.03008L26.7364 5.37879L26.0865 5.22221L26.2275 4.63503L25.8673 4.54891L25.3428 5.04997L24.646 4.88556L25.2801 4.31404C25.1392 4.20443 25.0453 4.07917 24.9905 3.93042C24.9357 3.78167 24.9357 3.61726 24.9748 3.43719C25.0218 3.25712 25.1001 3.10837 25.2097 2.99093C25.3271 2.8735 25.468 2.80304 25.6481 2.77172C25.8204 2.7404 26.0161 2.74823 26.2275 2.79521L27.2844 3.03008ZM25.6559 3.57028C25.6246 3.68772 25.6403 3.78949 25.6873 3.85996C25.7421 3.93825 25.8282 3.99305 25.9534 4.01654L26.3449 4.11049L26.5171 3.39021L26.1335 3.29627C25.8673 3.24146 25.7107 3.33541 25.6559 3.57028Z" fill="white"/>
<path d="M30.8624 4.62727C30.9877 4.80734 31.0581 5.0109 31.066 5.23011C31.0816 5.44932 31.0346 5.66854 30.925 5.87992C30.8154 6.09913 30.6745 6.26354 30.4944 6.38881C30.3144 6.51407 30.1108 6.5767 29.8916 6.58453C29.6724 6.59236 29.4532 6.54539 29.234 6.43578C29.0382 6.334 28.8738 6.21657 28.7486 6.06782C28.6233 5.91906 28.545 5.75466 28.5059 5.56676L29.0617 5.40235C29.1244 5.64505 29.2496 5.80946 29.4532 5.91124C29.5784 5.97387 29.7115 5.99736 29.8368 5.96604C29.9621 5.94255 30.0717 5.87209 30.1734 5.76248L29.3984 5.37886L29.6176 4.92478L30.3848 5.3084C30.4083 5.17531 30.3848 5.05004 30.3379 4.93261C30.2831 4.823 30.1891 4.72905 30.0638 4.66642C29.8603 4.56464 29.6489 4.56464 29.4219 4.66642L29.2105 4.12622C29.3827 4.04792 29.5628 4.00878 29.7507 4.01661C29.9464 4.02444 30.1421 4.07924 30.3379 4.18102C30.5649 4.29845 30.7371 4.44721 30.8624 4.62727Z" fill="white"/>
<path d="M34.0962 6.60805L32.7027 8.56531L32.1546 8.17386L32.6948 7.40662L31.9432 6.86641L31.403 7.62583L30.8472 7.23438L32.2486 5.26929L32.7966 5.66857L32.2721 6.4045L33.0236 6.9447L33.5482 6.20877L34.0962 6.60805Z" fill="white"/>
<path d="M34.9485 10.0138L34.5805 10.3896L33.2104 9.0273L34.8937 7.31274L36.2325 8.64368L35.8645 9.01948L35.0033 8.15828L34.7215 8.44796L35.4809 9.20737L35.1207 9.56751L34.3613 8.81592L34.056 9.12908L34.9485 10.0138Z" fill="white"/>
<path d="M37.775 10.7735C37.8142 10.9457 37.8063 11.1101 37.7515 11.2589C37.6967 11.4076 37.5949 11.5407 37.454 11.6503C37.3131 11.7599 37.1565 11.8147 36.9999 11.8304C36.8434 11.8382 36.6868 11.7991 36.5302 11.7208C36.3736 11.6346 36.2327 11.5016 36.1074 11.3293L35.8569 10.9927L35.3558 11.3685L34.9487 10.8204L36.8668 9.37988L37.5245 10.2646C37.6498 10.429 37.7359 10.6012 37.775 10.7735ZM36.7651 11.1649C36.859 11.1884 36.9451 11.1649 37.0391 11.0944C37.1252 11.024 37.18 10.9457 37.1878 10.8517C37.1878 10.7578 37.1565 10.656 37.0704 10.5386L36.8434 10.2332L36.2797 10.656L36.5067 10.9613C36.5928 11.0788 36.6789 11.1492 36.7651 11.1649Z" fill="white"/>
<path d="M38.9496 13.631L38.425 12.668L36.7966 13.5684L36.4756 12.9812L38.5738 11.8225L39.4193 13.3727L38.9496 13.631Z" fill="white"/>
<path d="M39.7797 14.1399L40.0067 14.774L38.6836 15.2516L40.3434 15.7057L40.5626 16.3085L38.3078 17.1306L38.0808 16.5043L39.396 16.0189L37.7441 15.5648L37.5249 14.9619L39.7797 14.1399Z" fill="white"/>
<path d="M41.1884 19.3379L38.8319 19.7764L38.7144 19.1187L39.3094 19.0091L39.239 18.6412L38.5735 18.3593L38.4482 17.6547L39.2233 18.007C39.2625 17.8348 39.3408 17.6938 39.4582 17.5921C39.5756 17.4825 39.7244 17.412 39.9044 17.3807C40.0845 17.3494 40.2568 17.3572 40.4055 17.4198C40.5543 17.4825 40.6795 17.5842 40.7813 17.733C40.8831 17.8817 40.9535 18.0618 40.9927 18.2732L41.1884 19.3379ZM40.0375 18.054C39.9201 18.0775 39.834 18.1244 39.787 18.2027C39.74 18.281 39.7244 18.3828 39.7479 18.5081L39.8183 18.9073L40.5464 18.7743L40.476 18.3828C40.4212 18.1166 40.2802 18.007 40.0375 18.054Z" fill="white"/>
<path d="M4.45421 30.9406C4.40724 30.7527 4.39158 30.5962 4.40724 30.4552L4.95527 30.4083C4.94744 30.5414 4.95527 30.6745 4.98659 30.8232C5.0179 30.972 5.06488 31.1051 5.13534 31.2225C5.26061 31.4495 5.38587 31.5357 5.49548 31.473C5.55811 31.4417 5.5816 31.3791 5.57377 31.3008C5.56594 31.2225 5.54245 31.0972 5.48765 30.9328C5.43284 30.7527 5.3937 30.604 5.37804 30.4709C5.35455 30.3456 5.37021 30.2125 5.41719 30.0951C5.46416 29.9698 5.55811 29.8681 5.69903 29.7898C5.8243 29.7193 5.95739 29.688 6.10614 29.7037C6.24706 29.7193 6.38799 29.7741 6.52108 29.8837C6.65417 29.9933 6.77944 30.1421 6.89688 30.3456C6.97517 30.4866 7.02997 30.6275 7.07694 30.7841C7.12392 30.9328 7.13958 31.0816 7.13958 31.2147L6.59937 31.2773C6.59937 31.0189 6.54457 30.7919 6.43496 30.604C6.37233 30.4866 6.30187 30.4083 6.23924 30.377C6.1766 30.3456 6.11397 30.3378 6.05917 30.377C6.00436 30.4161 5.98088 30.4631 5.98871 30.5414C5.99654 30.6197 6.02785 30.7371 6.07483 30.9015C6.12963 31.0816 6.16877 31.2381 6.18443 31.3634C6.20009 31.4887 6.19226 31.6139 6.15312 31.7392C6.11397 31.8645 6.02002 31.9663 5.87127 32.0524C5.74601 32.1228 5.61291 32.1541 5.47199 32.1385C5.33107 32.1228 5.19014 32.068 5.05705 31.9584C4.91613 31.8488 4.79086 31.7001 4.68126 31.4965C4.57165 31.3086 4.50119 31.1285 4.45421 30.9485" fill="white"/>
<path d="M7.10873 34.1665L6.4824 33.368L5.997 33.5089L5.56641 32.9608L8.10302 32.311L8.51796 32.8356L7.2888 35.1686L6.85037 34.6128L7.10873 34.1665ZM7.37492 33.7046L7.78986 32.9843L6.99912 33.2192L7.37492 33.7046Z" fill="white"/>
<path d="M9.16821 35.7554L8.80024 35.7867L8.40096 36.233L7.8999 35.7789L9.51269 33.9939L10.0059 34.448L9.34045 35.1917L10.6949 35.0743L11.2507 35.5754L9.81019 35.7085L9.6771 37.3995L9.08992 36.8672L9.16821 35.7554Z" fill="white"/>
<path d="M13.5752 37.1022L12.2834 39.1378L11.7118 38.7698L12.2129 37.9791L11.4378 37.478L10.9289 38.2687L10.3574 37.9008L11.6492 35.873L12.2207 36.2332L11.7353 37.0004L12.5182 37.5015L13.0036 36.7342L13.5752 37.1022Z" fill="white"/>
<path d="M14.9767 39.8578L14.0373 39.4663L13.685 39.8264L13.043 39.5603L14.9376 37.7361L15.5561 37.9944L15.6187 40.6328L14.9689 40.3588V39.8578H14.9767ZM14.9846 39.3176V38.4877L14.4131 39.0827L14.9846 39.3176Z" fill="white"/>
<path d="M16.9968 38.5032L17.6544 38.6676L17.2238 40.4839L18.3356 40.7579L18.2025 41.2825L16.4331 40.8519L16.9968 38.5032Z" fill="white"/>
<path d="M19.3458 39.0046L20.0191 39.0829L19.7216 41.4786L19.0483 41.3925L19.3458 39.0046Z" fill="white"/>
<path d="M23.0644 39.1531L23.1035 41.5644L22.5477 41.5801L21.4673 40.3118L21.4907 41.5957L20.8253 41.6036L20.7861 39.1922L21.342 39.1844L22.4224 40.4527L22.3989 39.1687L23.0644 39.1531Z" fill="white"/>
<path d="M27.4639 40.2262L27.5892 40.743L25.7259 41.2127L25.1387 38.8797L26.9628 38.4099L27.0881 38.9266L25.9216 39.2241L26.0155 39.6156L27.049 39.3572L27.1742 39.8505L26.1408 40.1088L26.2504 40.5394L27.4639 40.2262Z" fill="white"/>
<path d="M29.711 37.2822L30.6661 39.4978L30.1572 39.7171L28.6775 38.9655L29.1864 40.1477L28.5758 40.4138L27.6206 38.1982L28.1295 37.979L29.6092 38.7306L29.1003 37.5484L29.711 37.2822Z" fill="white"/>
<path d="M32.9914 37.4384L33.2733 37.8846L31.6605 38.9337L30.353 36.9138L31.9345 35.8804L32.2163 36.3266L31.2064 36.9843L31.4256 37.3287L32.3181 36.7416L32.5921 37.1722L31.6996 37.7515L31.9423 38.1273L32.9914 37.4384Z" fill="white"/>
<path d="M34.448 36.0766L34.174 36.3271L34.5967 36.8047L34.0957 37.2588L32.4985 35.4659L33.3128 34.73C33.4772 34.5812 33.6416 34.4873 33.806 34.4325C33.9704 34.3777 34.1348 34.3699 34.2836 34.4168C34.4401 34.456 34.5732 34.5499 34.6985 34.683C34.8159 34.8161 34.8864 34.957 34.9099 35.1058C34.9334 35.2545 34.9099 35.4111 34.8551 35.5677L35.7398 35.7869L35.1996 36.2723L34.448 36.0766ZM33.9312 35.004C33.8373 35.004 33.7355 35.051 33.6337 35.1449L33.3519 35.3955L33.8216 35.92L34.1035 35.6695C34.2053 35.5755 34.2679 35.4816 34.2757 35.3876C34.2914 35.2937 34.2601 35.2076 34.1818 35.1214C34.1113 35.051 34.0252 35.004 33.9312 35.004Z" fill="white"/>
<path d="M36.4368 32.9921L36.8126 32.5223L37.5877 33.1487C37.5877 33.3209 37.5407 33.4853 37.4702 33.6654C37.3998 33.8376 37.3058 33.9942 37.1962 34.1351C37.0396 34.3308 36.8596 34.4796 36.6482 34.5657C36.4368 34.6597 36.2254 34.691 36.0062 34.6597C35.787 34.6283 35.5834 34.5422 35.3955 34.3856C35.2076 34.2369 35.0745 34.0568 34.9962 33.8454C34.918 33.6341 34.9023 33.4227 34.9493 33.1956C34.9962 32.9686 35.098 32.7572 35.2546 32.5536C35.3955 32.3814 35.5521 32.2405 35.7165 32.1544C35.8888 32.0604 36.061 32.0134 36.2489 32.0056L36.288 32.5928C36.0453 32.6085 35.8574 32.7024 35.7165 32.8825C35.5913 33.0469 35.5365 33.2113 35.5521 33.3914C35.5678 33.5714 35.6617 33.7202 35.8261 33.8533C35.9279 33.9394 36.0375 33.9864 36.1549 34.0099C36.2724 34.0333 36.382 34.0099 36.4916 33.9707C36.6012 33.9237 36.6952 33.8533 36.7813 33.7515C36.8596 33.6497 36.9222 33.5401 36.9457 33.4148L36.4368 32.9921Z" fill="white"/>
<path d="M38.2691 30.839L39.0129 31.2696L38.6841 31.8646L37.9247 31.434L36.1475 31.481L36.4998 30.8546L37.6037 30.8233L37.0556 29.8525L37.3766 29.281L38.2691 30.839Z" fill="white"/>
<path d="M21.0605 8.667L21.8434 7.97021L22.8064 9.4499L22.3915 9.8257L23.4875 13.5367L22.7281 15.0712L26.627 26.8695H25.6875L24.3879 25.2411H22.6342L20.9901 29.6488L22.1096 31.3086L22.2584 32.389L23.4641 33.2893L23.8555 33.8687L23.4641 35.3405H22.9865L22.4698 34.0174L20.6613 34.0096L19.8627 36.0295H19.4164L19.2051 34.4402L19.6122 33.3128L19.3381 30.604L19.988 29.7819L19.9253 28.0908L19.4321 27.3471L20.4264 21.671L19.8862 20.8177L20.7552 19.0561L18.9858 16.2768L19.5808 12.3466L19.3695 10.8983L20.2698 10.5225L20.9196 11.1253L21.6477 10.4833L21.0605 8.667Z" fill="white"/>
<path d="M14.7263 26.322L15.3604 22.5014L14.6636 21.2409V18.5477L16.3234 16.7079V15.604L15.7597 15.2595L15.7754 14.3514L15.1255 13.8816L15.7519 13.5998L16.3077 12.535L15.4074 11.2041L14.969 9.59131C14.0843 10.155 12.1192 11.2354 11.3598 12.0027C8.70573 14.6724 7.2417 18.2267 7.2417 22.0082C7.2417 25.7896 8.70573 29.344 11.3598 32.0137C11.485 32.1389 11.6103 32.2564 11.7356 32.3738L12.5576 29.1639L14.7263 26.322Z" fill="white"/>
<path d="M21.8113 7.21063C25.7336 7.21063 29.4289 8.75295 32.2004 11.5401C34.9797 14.3351 36.5064 18.046 36.5064 21.9997C36.5064 25.9534 34.9797 29.6643 32.2004 32.4593C29.4211 35.2543 25.7336 36.7887 21.8113 36.7887C17.8889 36.7887 14.1936 35.2464 11.4221 32.4593C8.64281 29.6643 7.11614 25.9534 7.11614 21.9997C7.11614 18.046 8.64281 14.3351 11.4221 11.5401C14.1936 8.74512 17.8811 7.21063 21.8113 7.21063ZM21.8113 6.78003C13.4577 6.78003 6.68555 13.5913 6.68555 21.9997C6.68555 30.4081 13.4577 37.2193 21.8113 37.2193C30.1649 37.2193 36.937 30.4081 36.937 21.9997C36.937 13.5913 30.1649 6.78003 21.8113 6.78003Z" fill="white"/>
<path d="M21.8114 7.82922C25.5771 7.82922 29.108 9.30108 31.7699 11.9786C34.4318 14.6561 35.8958 18.2184 35.8958 21.9998C35.8958 25.7812 34.4318 29.3434 31.7699 32.021C29.108 34.6985 25.5693 36.1703 21.8114 36.1703C18.0534 36.1703 14.5147 34.6985 11.8528 32.021C9.19094 29.3434 7.72691 25.7812 7.72691 21.9998C7.72691 18.2184 9.19094 14.6561 11.8528 11.9786C14.5069 9.30108 18.0456 7.82922 21.8114 7.82922ZM21.8114 7.19507C13.6848 7.19507 7.10059 13.8263 7.10059 21.9998C7.10059 30.1733 13.6848 36.8045 21.8114 36.8045C29.9379 36.8045 36.5221 30.1733 36.5221 21.9998C36.5221 13.8263 29.9379 7.19507 21.8114 7.19507Z" fill="#0F1740"/>
</svg>
