<svg width="170" height="40" viewBox="0 0 170 40" fill="none" xmlns="http://www.w3.org/2000/svg">
<path fill-rule="evenodd" clip-rule="evenodd" d="M43.8633 0.875488H49.1867V32.3728H43.8633V0.875488Z" fill="#003366"/>
<path fill-rule="evenodd" clip-rule="evenodd" d="M23.0875 12.2473C23.0875 11.5019 22.5753 11.0961 21.9872 11.0961C21.402 11.0961 20.8765 11.4902 20.8765 12.2473V27.4168C20.8765 28.1729 21.4017 28.568 21.9872 28.568C22.5754 28.568 23.0875 28.1552 23.0875 27.4168V22.4457H28.4058V27.028C28.4058 30.7449 25.4827 32.6822 21.9625 32.6822C18.5957 32.6822 15.5571 30.8072 15.5571 27.028V12.6331C15.5571 8.86179 18.596 6.98145 21.9625 6.98145C25.4232 6.98145 28.4058 8.92027 28.4058 12.6331V16.7363H23.0875V12.2473Z" fill="#003366"/>
<path fill-rule="evenodd" clip-rule="evenodd" d="M35.0243 12.9304C35.0243 12.1737 35.5479 11.7795 36.1333 11.7795C36.7209 11.7795 37.2355 12.1876 37.2355 12.9304V32.3755H42.5587V11.5418C42.5587 8.14668 40.3585 6.97713 38.6792 6.97713C36.8032 6.97713 35.4851 8.33311 35.1214 9.02165H35.0351V0.875488H29.7119V32.3755H35.0241V12.9304H35.0243Z" fill="#003366"/>
<path fill-rule="evenodd" clip-rule="evenodd" d="M58.0167 26.9637C58.0167 27.7047 57.5024 28.1154 56.9146 28.1154C56.331 28.1154 55.8055 27.7205 55.8055 26.9637V7.27441H50.4849V28.1819C50.4849 30.9541 52.3967 32.6826 54.4482 32.6826C56.5269 32.6826 57.6553 31.1758 57.9747 30.6238H58.0946L58.1899 32.3755H63.3376V7.27441H58.017V26.9637H58.0167Z" fill="#003366"/>
<path fill-rule="evenodd" clip-rule="evenodd" d="M69.9559 32.3754H64.6348V7.27427H69.905L69.9582 9.0252H70.0647C70.4551 8.25483 71.7213 6.97705 73.6402 6.97705C75.6273 6.97705 76.9049 8.50769 77.1778 9.40837H77.253C77.6502 8.49268 79.0434 6.97705 81.0591 6.97705C83.0955 6.97705 85.0468 8.35845 85.0468 11.775V32.3754H79.7238V12.6819C79.7238 11.9233 79.203 11.5284 78.6168 11.5284C78.0288 11.5284 77.51 11.9358 77.51 12.6819V32.3754H72.1623V12.691C72.1623 11.9321 71.6323 11.5375 71.0471 11.5375C70.459 11.5375 69.9556 11.9463 69.9556 12.691V32.3754H69.9559Z" fill="#003366"/>
<path fill-rule="evenodd" clip-rule="evenodd" d="M95.1813 6.97713C93.4002 6.97527 92.1187 8.48393 91.7833 9.03411H91.6696V0.875488H86.3472V32.3755H91.6101L91.6696 30.6237H91.7833C92.0494 31.2998 93.1915 32.6727 95.1436 32.6753C97.3968 32.6782 99.229 30.7365 99.229 27.8001V11.5418C99.229 8.71815 97.3187 6.97713 95.1813 6.97713ZM93.8881 26.9723C93.8881 27.716 93.3735 28.1244 92.7831 28.1244C92.1985 28.1244 91.6723 27.7277 91.6723 26.9723V12.6984C91.6723 11.9413 92.1985 11.5472 92.7831 11.5472C93.3732 11.5472 93.8881 11.9571 93.8881 12.6984V26.9723Z" fill="#003366"/>
<path fill-rule="evenodd" clip-rule="evenodd" d="M105.85 27.429C105.85 28.1858 106.378 28.581 106.964 28.581C107.549 28.581 108.063 28.1729 108.063 27.429V22.4457H113.383V27.0238C113.383 30.809 110.268 32.6825 106.941 32.6825C103.572 32.6825 100.522 30.809 100.522 27.0238V12.6419C100.522 8.86886 103.567 6.98145 106.937 6.98145C110.395 6.98145 113.383 8.91145 113.383 12.6419V20.7524H105.85V27.429H105.85ZM108.063 16.9245V12.2517C108.063 11.5092 107.55 11.1008 106.964 11.1008C106.378 11.1008 105.85 11.4928 105.85 12.2517L105.855 16.9245H108.063Z" fill="#003366"/>
<path fill-rule="evenodd" clip-rule="evenodd" d="M121.128 11.5417C120.545 11.5417 120.015 11.9357 120.015 12.6951V32.3754H114.688V7.27427H119.908L120.01 9.02157H120.128C120.63 8.3239 121.915 6.97705 123.693 6.97705C125.755 6.97705 127.553 8.64869 127.553 11.3038V20.726H122.227V12.5284C122.227 11.928 121.653 11.5417 121.116 11.5417H121.128Z" fill="#003366"/>
<path fill-rule="evenodd" clip-rule="evenodd" d="M148.312 27.429C148.312 28.1858 148.841 28.581 149.425 28.581C150.013 28.581 150.525 28.1729 150.525 27.429V22.4457H155.846V27.0238C155.846 30.809 152.725 32.6825 149.403 32.6825C146.034 32.6825 142.988 30.809 142.988 27.0238V12.6419C142.988 8.86886 146.029 6.98145 149.399 6.98145C152.856 6.98145 155.846 8.91145 155.846 12.6419V20.7524H148.312V27.429ZM150.525 16.9245V12.2517C150.525 11.5092 150.012 11.1008 149.425 11.1008C148.841 11.1008 148.312 11.4928 148.312 12.2517L148.316 16.9245H150.525Z" fill="#003366"/>
<path fill-rule="evenodd" clip-rule="evenodd" d="M163.575 11.5417C162.984 11.5417 162.459 11.9357 162.459 12.6951V32.3754H157.131V7.27427H162.348L162.454 9.02157H162.569C163.073 8.3239 164.359 6.97705 166.138 6.97705C168.201 6.97705 170 8.64869 170 11.3038V20.726H164.67V12.5284C164.67 11.928 164.096 11.5417 163.561 11.5417H163.575Z" fill="#003366"/>
<path fill-rule="evenodd" clip-rule="evenodd" d="M136.377 25.3996C136.377 26.1406 135.866 26.549 135.276 26.549C134.692 26.549 134.166 26.1567 134.166 25.3996V12.7024C134.166 11.9482 134.692 11.5559 135.276 11.5559C135.866 11.5559 136.377 11.9607 136.377 12.7024V25.3996ZM136.377 34.214C136.377 34.9567 135.863 35.3631 135.276 35.3631C134.692 35.3631 134.166 34.9682 134.166 34.214V32.1783H128.851V33.5618C128.851 37.4855 131.557 39.2311 135.259 39.2311C138.931 39.2311 141.702 37.4855 141.702 33.5618V7.27427H136.456L136.377 9.03403H136.248C135.97 8.45893 134.724 6.97705 132.739 6.97705C130.82 6.97705 128.851 8.45195 128.851 11.1779V26.1691C128.851 29.04 130.694 30.7161 132.77 30.7161C134.744 30.7161 135.893 29.3965 136.219 28.8738H136.376V34.214H136.377Z" fill="#003366"/>
<path fill-rule="evenodd" clip-rule="evenodd" d="M5.99125 27.0239C5.99125 27.7825 6.51877 28.1774 7.10476 28.1774C7.69174 28.1774 8.20268 27.7664 8.20268 27.0239V24.0474C8.20268 21.6721 7.6941 20.8094 5.93052 19.152C4.42726 17.7375 3.66866 17.0098 2.69743 16.0941C1.45488 14.9191 0.0214886 13.2828 0.0214886 10.225V6.4519C0.0200167 2.31048 3.46643 0.769043 7.0975 0.769043C10.7171 0.769043 14.1353 2.34423 14.1353 6.42256V11.2871H8.20238V6.56719C8.20238 5.82361 7.68988 5.41521 7.10212 5.41521C6.51641 5.41521 5.99125 5.81085 5.99125 6.56719V8.83336C5.99125 10.7963 6.60571 11.6596 8.23309 13.2134C8.88758 13.8399 10.369 15.2811 11.5092 16.393C13.548 18.3902 14.2528 20.1917 14.2528 22.6693V26.886C14.2528 31.2705 10.7239 32.8101 7.0975 32.8101C3.42433 32.8104 0 31.2705 0 27.0948V21.0545H5.99125V27.0239Z" fill="#003366"/>
</svg>
