<svg width="170" height="34" viewBox="0 0 170 34" fill="none" xmlns="http://www.w3.org/2000/svg">
<path d="M32.071 14.8461C32.071 14.8461 32.866 5.7487 32.9468 4.858C32.9704 4.34014 32.8904 3.82281 32.7117 3.33682C32.5328 2.85083 32.259 2.40614 31.9062 2.02925C31.5536 1.65237 31.1292 1.351 30.6588 1.14312C30.1883 0.935235 29.681 0.825088 29.1674 0.819245H6.41669C5.36782 0.745874 4.33249 1.09204 3.53449 1.78291C2.73648 2.47377 2.23993 3.45385 2.15218 4.51124C2.05114 5.57873 0.171519 27.5744 0.0300429 28.839C-0.0371632 29.3775 0.00868232 29.9244 0.164599 30.4439C0.320516 30.9633 0.583015 31.444 0.935032 31.8545C1.28705 32.2649 1.72071 32.596 2.20781 32.8261C2.6949 33.0563 3.22456 33.1805 3.76232 33.1905H26.4052C29.4032 33.1905 30.5687 31.5859 30.8247 29.111C30.9796 27.6356 31.6938 18.6809 31.6938 18.6809H18.0514L17.4585 25.5957H13.9958L15.4846 8.414H18.9474L18.4018 14.8461H32.071Z" fill="#02818A"/>
<path d="M53.1712 3.6001C52.6861 5.01434 48.7045 17.5861 48.7045 17.5861L50.4763 0.819202H36.807L33.9438 33.1905H44.2447C46.8316 33.1905 47.721 31.7082 48.1521 30.5184C48.6641 29.1041 52.457 18.4973 52.457 18.4973L51.0625 33.1905H64.7384L67.5546 0.819202H56.8226C55.9956 0.812835 55.1896 1.08186 54.5295 1.58461C53.8693 2.08735 53.392 2.79576 53.1712 3.6001Z" fill="#02818A"/>
<path d="M122.441 0.819092L121.161 15.5735H117.692L118.972 0.819092H105.302C105.302 0.819092 103.989 16.4574 103.847 17.9532C103.686 19.755 104.696 22.3115 107.728 22.3115H120.575L120.292 25.5888H103.187L102.513 33.1835H129.724C131.57 33.1835 133.348 31.9665 133.591 29.3692C133.759 27.7102 136.117 0.819092 136.117 0.819092H122.441Z" fill="#02818A"/>
<path d="M139.553 0.819092L136.75 33.1835H150.426L151.288 23.1683H164.574C166.925 23.1683 168.488 21.958 168.737 19.1838C168.837 18.1096 169.916 5.83695 169.99 4.75586C170.152 2.36252 168.266 0.819092 165.947 0.819092H139.553ZM151.874 16.4574L152.548 8.42745H155.977L155.304 16.4574H151.874Z" fill="#02818A"/>
<path d="M83.7704 11.6979L84.0601 8.41385H101.185L101.859 0.819092H71.0374L68.2349 33.1903H95.5263C97.2577 33.1903 99.1374 32.1501 99.38 29.444C99.5618 27.4042 100.404 17.79 100.559 16.0426C100.761 13.7105 99.299 11.6979 96.4157 11.6979H83.7704ZM85.9801 26.4592H82.4904L83.1641 18.4292H86.6538L85.9801 26.4592Z" fill="#02818A"/>
</svg>
