<svg width="170" height="50" viewBox="0 0 170 50" fill="none" xmlns="http://www.w3.org/2000/svg">
<path d="M5.39982 1.68458C7.32869 0.685225 9.51828 0.317125 11.6718 0.247892C13.2042 0.212301 14.7449 0.281046 16.2544 0.561021C17.5068 0.795777 18.7466 1.17802 19.847 1.83072C20.7592 2.36264 21.5558 3.10177 22.1184 3.99837C23.012 5.40264 23.2593 7.10358 23.2619 8.73979C20.7575 8.74906 18.2524 8.74211 15.7478 8.74345C15.7785 7.75104 15.5747 6.67331 14.8535 5.94235C14.3488 5.44396 13.6562 5.18044 12.9607 5.09743C11.9954 4.97871 10.9658 5.0828 10.1127 5.57852C9.52839 5.89982 9.06595 6.44502 8.8674 7.08371C8.60266 7.95496 8.77696 9.00112 9.45977 9.63847C10.0092 10.1439 10.7345 10.3878 11.442 10.5764C12.5266 10.8584 13.6125 11.1384 14.6976 11.4186C15.8336 11.723 16.9777 11.9959 18.1062 12.3283C19.2827 12.6814 20.45 13.1177 21.4702 13.8149C22.2726 14.3715 22.9622 15.1037 23.4104 15.9755C23.9755 17.0639 24.1918 18.3052 24.1788 19.5237C24.1995 20.7087 23.9832 21.9055 23.4966 22.9894C22.819 24.5124 21.568 25.7259 20.1129 26.5115C18.0944 27.6107 15.7798 28.0319 13.5055 28.1431C11.1954 28.2323 8.8446 28.0733 6.62881 27.3747C5.38044 26.9736 4.17887 26.3701 3.20195 25.4859C2.47806 24.8187 1.8819 24.009 1.47797 23.1104C0.893274 21.8499 0.708371 20.4481 0.6857 19.0712C3.16514 19.0737 5.64445 19.0684 8.12401 19.0737C8.13948 20.0796 8.33731 21.1562 9.0339 21.9248C9.65052 22.6424 10.5836 22.9978 11.5007 23.1285C12.5466 23.2646 13.6393 23.2483 14.6439 22.896C15.2031 22.7027 15.7231 22.3624 16.0722 21.8779C16.4284 21.3872 16.5628 20.7684 16.5668 20.1699C16.5587 19.7607 16.509 19.3408 16.3185 18.9732C16.0638 18.4445 15.5555 18.0919 15.0308 17.8645C14.4964 17.6327 13.9222 17.5245 13.3636 17.3703C11.9419 17.0038 10.5215 16.6318 9.10057 16.2634C7.99078 15.9626 6.86003 15.7236 5.78962 15.2962C4.66289 14.8429 3.59064 14.1965 2.77887 13.2825C2.11215 12.5527 1.6441 11.6528 1.38863 10.6997C0.824774 8.49602 1.15899 6.02317 2.4967 4.15487C3.2429 3.10871 4.2631 2.27537 5.39982 1.68458ZM28.5194 0.900234C30.7874 0.89804 33.0554 0.896334 35.3233 0.901088C35.329 6.3341 35.3173 11.7663 35.329 17.1992C37.4522 14.4804 39.5548 11.7475 41.6694 9.02306C44.2352 9.02026 46.8006 9.01806 49.366 9.02428C47.6872 11.1374 45.9763 13.2256 44.2903 15.3331C43.8749 15.8346 43.4803 16.3536 43.0567 16.8485C44.5926 19.159 46.1603 21.4485 47.7105 23.7505C48.5636 25.0274 49.4412 26.2888 50.2813 27.5737C47.4946 27.5768 44.7078 27.5751 41.9202 27.5751C39.73 24.1442 37.5264 20.7216 35.329 17.2948C35.3173 20.7211 35.3304 24.1472 35.3227 27.5732C33.0541 27.5774 30.7864 27.5751 28.5177 27.5751C28.5177 18.6834 28.5146 9.79168 28.5194 0.900234ZM76.8609 0.898528C79.1794 0.900234 81.4971 0.895115 83.8152 0.901088C83.8109 9.79034 83.8117 18.6805 83.8143 27.5697C81.4976 27.5826 79.1799 27.5715 76.8631 27.5757C76.8554 18.6834 76.8588 9.79107 76.8609 0.898528ZM60.6042 8.4469C62.1199 8.33598 63.6546 8.40265 65.1446 8.71334C67.2467 9.14519 69.2999 10.1521 70.6759 11.8376C71.4112 12.7192 71.9358 13.7683 72.2523 14.8696C72.6306 16.1865 72.7235 17.573 72.6349 18.9364C72.4978 21.0273 71.8437 23.1351 70.5039 24.7741C69.7497 25.6742 68.8102 26.4179 67.7516 26.9269C66.8764 27.3624 65.9296 27.6359 64.9704 27.8064C63.5764 28.0501 62.1514 28.0523 60.7427 27.9673C59.3852 27.8691 58.0264 27.6376 56.7489 27.1555C54.8062 26.4363 53.097 25.0237 52.1609 23.1603C51.4867 21.8582 51.178 20.3937 51.107 18.9376C51.0223 17.3299 51.211 15.6925 51.7907 14.1847C52.3337 12.7627 53.2608 11.4832 54.4734 10.5585C56.2201 9.20906 58.4301 8.60413 60.6042 8.4469ZM61.3524 12.4078C60.6291 12.5125 59.942 12.8848 59.4892 13.4621C58.7506 14.3806 58.5011 15.5772 58.3743 16.7221C58.2522 18.1661 58.2612 19.6401 58.5854 21.0588C58.7935 21.8774 59.0949 22.7183 59.7042 23.3272C60.1364 23.7633 60.725 24.0256 61.3322 24.0981C61.9522 24.1705 62.5998 24.1254 63.179 23.8783C63.7131 23.6538 64.1593 23.2515 64.4754 22.769C65.0481 21.9119 65.2761 20.8786 65.4013 19.8703C65.5491 18.4077 65.5255 16.9156 65.2228 15.4735C64.9966 14.4929 64.5812 13.4718 63.7277 12.876C63.0427 12.3968 62.1638 12.2896 61.3524 12.4078ZM1.26137 42.014C1.77513 41.6249 2.45807 41.581 3.07579 41.6534C3.58711 41.7108 4.06674 41.9493 4.43423 42.3075C4.29113 42.4475 4.14828 42.5873 4.00969 42.7315C3.74764 42.5301 3.46839 42.3354 3.13881 42.2693C2.66198 42.1724 2.11739 42.159 1.70468 42.4558C1.18824 42.8171 1.11682 43.7204 1.6452 44.1013C2.36129 44.5548 3.30067 44.3206 4.01445 44.7792C4.91824 45.3438 4.91422 46.8385 4.05735 47.4441C3.56139 47.8094 2.91978 47.8929 2.31948 47.8626C1.62655 47.8426 0.930085 47.5731 0.462402 47.0506C0.611593 46.8953 0.75993 46.7381 0.918262 46.5926C1.23773 46.9093 1.63581 47.1657 2.08984 47.2283C2.58715 47.3002 3.14234 47.2956 3.57712 47.0122C4.0604 46.7013 4.15145 45.985 3.85343 45.5185C3.68352 45.2608 3.37478 45.1533 3.08335 45.113C2.47367 44.9973 1.81474 44.9919 1.27405 44.6508C0.853905 44.3983 0.623172 43.9057 0.626707 43.4241C0.600867 42.89 0.812463 42.3249 1.26137 42.014ZM80.5261 41.8599C81.006 41.6178 81.5638 41.5944 82.0892 41.6508C82.603 41.7108 83.0975 41.9415 83.4639 42.3087C83.3091 42.4458 83.187 42.6248 83.0017 42.7235C82.5411 42.2606 81.8368 42.1333 81.2129 42.2473C80.8396 42.3198 80.4858 42.5773 80.3791 42.9545C80.2548 43.3365 80.3018 43.8484 80.6659 44.0872C81.0809 44.3779 81.605 44.3847 82.0867 44.4714C82.4904 44.5317 82.9199 44.6244 83.2257 44.9166C83.6866 45.3198 83.8156 46.0029 83.6685 46.5804C83.5379 47.118 83.0941 47.544 82.5756 47.7144C81.995 47.9086 81.3625 47.9035 80.767 47.7858C80.2737 47.6836 79.836 47.4037 79.483 47.0518C79.6438 46.9017 79.7999 46.7475 79.9534 46.591C80.2604 46.908 80.6508 47.1589 81.0946 47.2237C81.6068 47.3087 82.1791 47.2945 82.6266 47.0004C83.1078 46.6737 83.1891 45.9263 82.8507 45.4711C82.5849 45.1316 82.1236 45.12 81.7344 45.0515C81.1497 44.9716 80.5094 44.8898 80.0639 44.4625C79.6674 44.0763 79.6013 43.4744 79.698 42.9545C79.7879 42.4869 80.1048 42.0777 80.5261 41.8599ZM5.93162 41.6737C6.14016 41.6716 6.34981 41.6716 6.5597 41.6734C6.5597 43.0333 6.5597 44.3936 6.5597 45.7541C7.2029 45.0423 7.80844 44.2955 8.45822 43.5894C8.71796 43.5445 8.98648 43.5866 9.25025 43.5715C8.79317 44.1119 8.31866 44.6383 7.84306 45.1631C7.84367 45.1848 7.84537 45.2288 7.84635 45.2502C8.40849 46.094 8.94992 46.9531 9.50194 47.8045C9.26938 47.8057 9.03694 47.8139 8.80548 47.8116C8.71796 47.8302 8.67445 47.7472 8.63849 47.6888C8.22871 47.0082 7.79735 46.3414 7.38878 45.6601C7.11295 45.9772 6.8181 46.2828 6.56494 46.6167C6.54971 47.0115 6.56263 47.4076 6.56214 47.8033C6.34981 47.8108 6.13785 47.8116 5.92613 47.8022C5.93856 45.7592 5.9282 43.7164 5.93162 41.6737ZM14.9161 41.6734C15.1253 41.6716 15.3346 41.6716 15.5444 41.6737C15.5444 43.2311 15.5444 44.7886 15.5444 46.346C15.5515 46.5955 15.5088 46.875 15.6523 47.0973C15.8483 47.3273 16.1837 47.2534 16.4507 47.2715C16.45 47.4494 16.45 47.6269 16.4484 47.8062C16.0908 47.8 15.6998 47.8667 15.3803 47.6647C15.0628 47.4832 14.919 47.1079 14.9167 46.7567C14.9151 45.0621 14.9167 43.3675 14.9161 41.6734ZM17.4879 41.6729C17.6966 41.6716 17.9054 41.6716 18.1151 41.6734C18.1178 43.0232 18.1098 44.3734 18.1191 45.7237C18.3177 45.5713 18.4503 45.3537 18.6212 45.1744C19.0861 44.6443 19.5432 44.1061 20.0106 43.579C20.2748 43.5587 20.5407 43.5773 20.8059 43.5726C20.3354 44.1145 19.8587 44.6514 19.3779 45.1843C19.789 45.8616 20.2322 46.5196 20.657 47.1891C20.7837 47.3957 20.9333 47.5903 21.0357 47.8122C20.7756 47.8085 20.5157 47.8106 20.2567 47.804C19.8296 47.0811 19.3756 46.3746 18.9354 45.6601C18.6776 45.9498 18.4306 46.2491 18.1653 46.5325C18.0978 46.5879 18.1215 46.679 18.1151 46.7567C18.1154 47.1056 18.1109 47.4552 18.1195 47.8051C17.9099 47.8094 17.7006 47.8099 17.4922 47.8081C17.482 45.7635 17.4904 43.7181 17.4879 41.6729ZM36.9605 41.6734C37.1839 41.6716 37.4085 41.6716 37.6333 41.6734C37.631 43.7181 37.6381 45.7635 37.6298 47.8085C37.4043 47.8094 37.1792 47.8099 36.9555 47.8057C36.9672 45.7615 36.9565 43.7176 36.9605 41.6734ZM51.1173 41.6729C51.3559 41.6722 51.5942 41.6716 51.8341 41.6734C51.8332 41.9049 51.832 42.1368 51.8363 42.3694C51.5971 42.3751 51.3586 42.3751 51.1203 42.3705C51.1152 42.1375 51.116 41.9049 51.1173 41.6729ZM75.8444 41.7307C76.1239 41.6348 76.4288 41.6508 76.7212 41.6659C76.7736 41.8307 76.7293 42.0357 76.7401 42.2174C76.455 42.2123 76.0719 42.1498 75.9145 42.4558C75.7662 42.8148 75.8625 43.2196 75.8392 43.5983C76.1406 43.6057 76.4434 43.5938 76.7462 43.6094C76.7426 43.7679 76.7426 43.9269 76.7406 44.0869C76.44 44.0827 76.1394 44.0803 75.8397 44.0851C75.829 45.3249 75.8431 46.5653 75.8329 47.8057C75.6247 47.8099 75.4175 47.8099 75.2115 47.8075C75.2076 46.5679 75.2064 45.3287 75.2118 44.0891C75.0308 44.0824 74.8503 44.0816 74.6714 44.0864C74.668 43.9248 74.6654 43.7656 74.6615 43.6057C74.8447 43.6006 75.0283 43.5995 75.2137 43.5972C75.2064 43.3049 75.2067 43.013 75.2093 42.7212C75.2055 42.308 75.4406 41.8727 75.8444 41.7307ZM89.1454 41.6737C89.3827 41.6716 89.6214 41.6722 89.8609 41.6729C89.8596 41.9042 89.8587 42.1368 89.866 42.3694C89.6248 42.3751 89.3844 42.3729 89.1441 42.3705C89.1454 42.1375 89.1446 41.9054 89.1454 41.6737ZM123.417 41.6737C123.626 41.6716 123.835 41.6716 124.047 41.6734C124.043 43.7176 124.051 45.7629 124.042 47.8075C123.833 47.8106 123.626 47.8085 123.419 47.8062C123.418 47.656 123.415 47.5065 123.414 47.3592C123.223 47.5468 123.015 47.7307 122.751 47.8022C122.25 47.9315 121.674 47.881 121.254 47.561C120.813 47.1748 120.704 46.5547 120.677 45.9975C120.655 45.3372 120.665 44.6174 121.049 44.049C121.371 43.5844 121.995 43.4604 122.526 43.5339C122.879 43.5637 123.189 43.7689 123.419 44.0313C123.417 43.2454 123.419 42.4595 123.417 41.6737ZM122.144 44.1011C121.826 44.151 121.55 44.379 121.448 44.684C121.272 45.1778 121.284 45.7179 121.335 46.2331C121.376 46.6126 121.524 47.0442 121.9 47.2104C122.317 47.385 122.896 47.3295 123.162 46.924C123.427 46.4938 123.416 45.9628 123.411 45.4751C123.386 45.0836 123.353 44.6404 123.061 44.3469C122.831 44.0996 122.461 44.0452 122.144 44.1011ZM127.202 41.6729C128.608 41.6729 130.016 41.6729 131.423 41.6729C131.422 41.8727 131.422 42.073 131.424 42.2746C130.828 42.2736 130.232 42.2606 129.636 42.2807C129.647 44.123 129.642 45.9651 129.639 47.8075C129.419 47.8116 129.199 47.8106 128.981 47.8033C128.988 45.9603 128.981 44.1178 128.985 42.2754C128.391 42.2676 127.796 42.2693 127.204 42.2754C127.2 42.0737 127.2 41.8727 127.202 41.6729ZM140.555 41.6729C140.768 41.6716 140.983 41.6716 141.198 41.6745C141.196 42.4475 141.198 43.2214 141.198 43.9945C141.56 43.6146 142.11 43.4538 142.623 43.5306C143.076 43.575 143.524 43.8356 143.72 44.2593C143.956 44.7038 143.894 45.2205 143.9 45.7049C143.898 46.404 143.904 47.1033 143.898 47.8028C143.688 47.8099 143.48 47.8099 143.272 47.8085C143.272 46.9904 143.272 46.173 143.272 45.3554C143.269 45.0862 143.255 44.8062 143.129 44.5631C142.774 43.8711 141.57 43.933 141.289 44.6595C141.166 44.9331 141.201 45.2374 141.198 45.5291C141.198 46.2869 141.194 47.0455 141.2 47.804C140.983 47.8106 140.768 47.8099 140.554 47.8051C140.556 45.761 140.554 43.7169 140.555 41.6729ZM154.769 41.6734C154.979 41.6712 155.189 41.6712 155.399 41.6765C155.393 43.3106 155.402 44.9454 155.397 46.5796C155.399 46.786 155.406 47.0403 155.595 47.1723C155.803 47.3108 156.066 47.2571 156.302 47.2712C156.302 47.4494 156.302 47.6276 156.3 47.8068C155.913 47.8022 155.478 47.8729 155.157 47.6117C154.868 47.403 154.762 47.0355 154.769 46.6954C154.769 45.0213 154.769 43.3477 154.769 41.6734ZM48.3972 42.2754C48.6083 42.2693 48.8203 42.2684 49.0331 42.2799C49.0237 42.7189 49.0297 43.1583 49.0314 43.5983C49.3316 43.604 49.6325 43.5983 49.934 43.6049C49.9331 43.7643 49.9309 43.9255 49.9236 44.0872C49.6252 44.0803 49.3272 44.0797 49.0297 44.0872C49.0284 44.9183 49.0297 45.7495 49.028 46.5804C49.0229 46.8053 49.0727 47.0602 49.2774 47.191C49.4782 47.2996 49.7151 47.2593 49.9348 47.2715C49.9348 47.4481 49.934 47.625 49.9318 47.8033C49.5909 47.8045 49.2219 47.8589 48.9132 47.6796C48.5794 47.4994 48.4144 47.1185 48.4015 46.7532C48.3925 45.8623 48.411 44.9711 48.3933 44.0803C48.2157 44.0816 48.0398 44.0824 47.8644 44.0864C47.8592 43.9255 47.8575 43.7649 47.8597 43.6057C48.0376 43.6006 48.2161 43.5995 48.3955 43.6006C48.4032 43.1583 48.401 42.7164 48.3972 42.2754ZM53.4246 42.2746C53.6387 42.2693 53.8538 42.2693 54.0696 42.2746C54.0657 42.7153 54.0705 43.1566 54.0675 43.5977C54.3688 43.604 54.6708 43.5966 54.9739 43.6057C54.9752 43.766 54.9739 43.9269 54.9708 44.0887C54.6699 44.0773 54.3688 44.0839 54.0684 44.0856C54.0679 44.9551 54.0684 45.8254 54.0679 46.696C54.0679 46.882 54.1363 47.0893 54.3057 47.1891C54.5095 47.3019 54.7507 47.2588 54.9744 47.2721C54.9744 47.4494 54.9744 47.6269 54.9713 47.8057C54.6393 47.801 54.286 47.8578 53.9798 47.6993C53.6122 47.5154 53.4273 47.0945 53.431 46.6973C53.4178 45.827 53.4298 44.9559 53.4259 44.0856C53.2505 44.0827 53.0755 44.0834 52.9013 44.0869C52.9005 43.9248 52.8996 43.7649 52.8996 43.604C53.0738 43.5995 53.2492 43.6 53.4251 43.6053C53.4251 43.1611 53.4273 42.7175 53.4246 42.2746ZM61.1271 42.2742C61.3344 42.2712 61.5416 42.2701 61.7501 42.2742C61.7596 42.7148 61.7467 43.1558 61.7566 43.5977C62.0568 43.6053 62.3577 43.5966 62.6591 43.6053C62.6591 43.7643 62.6588 43.9238 62.6583 44.0839C62.3569 44.0816 62.0563 44.0824 61.7566 44.0839C61.7484 44.8977 61.7554 45.7122 61.7518 46.5259C61.7554 46.7293 61.7514 46.9688 61.9158 47.1197C62.11 47.3144 62.4084 47.2593 62.6583 47.2712C62.657 47.4474 62.6574 47.6246 62.6622 47.8022C62.3096 47.804 61.9229 47.8643 61.6099 47.6627C61.2544 47.4622 61.1078 47.0284 61.1232 46.64C61.1267 45.7879 61.1219 44.9365 61.1258 44.0851C60.9465 44.0824 60.7684 44.0834 60.5913 44.0896C60.5827 43.9269 60.5815 43.7649 60.5857 43.6036C60.7655 43.6013 60.9465 43.5995 61.1288 43.5972C61.1193 43.1558 61.125 42.7148 61.1271 42.2742ZM31.6212 43.5142C32.072 43.5059 32.5395 43.6492 32.8614 43.9765C33.2401 44.3246 33.3709 44.8554 33.3948 45.352C33.3985 45.781 33.4207 46.2186 33.3024 46.6363C33.2249 46.946 33.0613 47.2371 32.8228 47.4511C32.1508 48.0475 30.9867 48.0101 30.3926 47.3201C30.0541 46.9537 29.957 46.437 29.936 45.9556C29.9232 45.4011 29.9249 44.812 30.2083 44.3163C30.4841 43.811 31.0565 43.5222 31.6212 43.5142ZM31.4536 44.1044C31.0819 44.1722 30.7566 44.4575 30.6623 44.8259C30.5461 45.2533 30.5486 45.7044 30.5864 46.1437C30.6186 46.4681 30.7033 46.8235 30.9627 47.0442C31.397 47.4316 32.1513 47.3734 32.5085 46.908C32.772 46.5453 32.7661 46.0749 32.7698 45.6463C32.7679 45.2391 32.7488 44.7946 32.4943 44.4567C32.2468 44.1621 31.8282 44.0243 31.4536 44.1044ZM39.9076 44.0149C40.4844 43.3845 41.5826 43.3378 42.2047 43.9238C42.5222 44.2322 42.6313 44.6916 42.629 45.1225C42.6297 46.017 42.6321 46.9118 42.6283 47.8062C42.4117 47.8106 42.1953 47.8099 41.9804 47.804C41.9968 46.9286 41.9834 46.0533 41.9869 45.1778C41.9975 44.7922 41.8413 44.3574 41.4691 44.1891C41.0601 44.0078 40.5243 44.0458 40.1987 44.3734C39.9591 44.6126 39.9123 44.9716 39.9123 45.2952C39.9158 46.1316 39.9071 46.9679 39.917 47.8045C39.7054 47.8099 39.4939 47.8099 39.2837 47.8057C39.2853 46.3944 39.2837 44.9832 39.2842 43.5719C39.4909 43.571 39.6979 43.5743 39.9058 43.5666C39.9123 43.7152 39.9142 43.8642 39.9076 44.0149ZM44.3475 43.842C44.7573 43.5339 45.3016 43.4819 45.7987 43.5316C46.2304 43.566 46.6531 43.7111 47.0053 43.9658C46.872 44.1167 46.7322 44.2623 46.5771 44.3901C46.2563 44.143 45.8431 44.0569 45.447 44.0541C45.1912 44.0535 44.922 44.1053 44.7229 44.2749C44.4043 44.5357 44.4528 45.1607 44.8808 45.2812C45.5411 45.4812 46.3432 45.2778 46.9004 45.7716C47.3557 46.2605 47.2624 47.1624 46.6996 47.5357C46.209 47.877 45.5726 47.9021 44.9977 47.8413C44.5135 47.7946 44.0517 47.5889 43.7008 47.2523C43.8431 47.1113 43.9859 46.97 44.1248 46.8256C44.6391 47.3406 45.4651 47.4311 46.1311 47.202C46.5444 47.0758 46.7069 46.5102 46.4321 46.1818C46.2386 45.9865 45.9453 45.9725 45.6883 45.9503C45.2411 45.9043 44.7578 45.9228 44.363 45.6776C43.7261 45.2969 43.761 44.2528 44.3475 43.842ZM64.2445 43.8747C64.7128 43.4902 65.3819 43.4312 65.9451 43.6155C66.4233 43.7742 66.7846 44.1937 66.929 44.6708C67.0636 45.0526 67.0661 45.463 67.054 45.8645C66.1038 45.8696 65.1527 45.8599 64.2029 45.869C64.2097 46.3366 64.3383 46.8661 64.7588 47.1326C65.3349 47.4714 66.1193 47.3229 66.5583 46.8251C66.7062 46.9501 66.855 47.0754 66.9969 47.2104C66.7579 47.4259 66.5114 47.649 66.1989 47.7502C65.7405 47.9026 65.2305 47.9115 64.7678 47.7743C64.3112 47.6432 63.9349 47.2828 63.7669 46.8421C63.5626 46.332 63.5497 45.7704 63.5991 45.231C63.6594 44.7267 63.8485 44.2109 64.2445 43.8747ZM64.6496 44.2826C64.3138 44.5416 64.2102 44.9844 64.2085 45.3883C64.9484 45.3811 65.6884 45.38 66.4297 45.3887C66.4168 45.064 66.3683 44.7184 66.1593 44.4575C65.8144 43.9998 65.0908 43.9255 64.6496 44.2826ZM71.9948 43.5148C72.5141 43.5031 73.0491 43.7227 73.3634 44.1459C73.719 44.6004 73.7572 45.2101 73.7499 45.7652C73.7533 46.3204 73.6708 46.9304 73.2726 47.3498C72.6109 48.0706 71.3149 48.0373 70.6982 47.2745C70.3435 46.8362 70.2811 46.2495 70.283 45.7061C70.2799 45.1732 70.332 44.5987 70.6617 44.1581C70.9678 43.7416 71.4831 43.516 71.9948 43.5148ZM71.7736 44.1102C71.5914 44.151 71.4215 44.2406 71.2852 44.3681C70.9468 44.6965 70.927 45.2066 70.9115 45.6487C70.9214 46.0882 70.9231 46.5773 71.2108 46.9398C71.6227 47.4416 72.491 47.4113 72.8744 46.8914C73.0942 46.5609 73.1175 46.1462 73.1209 45.7615C73.1221 45.3747 73.1192 44.9685 72.9475 44.614C72.7313 44.2015 72.2179 44.0038 71.7736 44.1102ZM96.5555 44.0122C96.9192 43.596 97.5121 43.4441 98.0458 43.5417C98.4659 43.5906 98.8524 43.8514 99.0588 44.2208C99.1972 44.4771 99.2588 44.7712 99.2557 45.0626C99.254 45.9761 99.2554 46.8901 99.2554 47.804C99.0455 47.8122 98.8374 47.8108 98.6301 47.8057C98.6207 46.9297 98.6306 46.0536 98.6245 45.1785C98.6194 44.8837 98.5462 44.5747 98.3356 44.3584C98.0044 44.0367 97.4666 44.0087 97.0619 44.1991C96.7313 44.3684 96.5597 44.739 96.5529 45.0996C96.5456 46.0029 96.5593 46.907 96.5468 47.8108C96.3326 47.8085 96.1195 47.8085 95.9074 47.8057C95.9126 46.3944 95.9092 44.9832 95.9092 43.5719C96.1237 43.5702 96.3374 43.5702 96.5529 43.5719C96.5485 43.7181 96.5498 43.8647 96.5555 44.0122ZM102.248 43.5199C102.647 43.4937 103.074 43.5533 103.407 43.7937C103.548 43.8981 103.674 44.0226 103.811 44.1358C103.672 44.2855 103.523 44.4242 103.372 44.5602C103.184 44.3503 102.956 44.1571 102.671 44.1053C102.225 44.0209 101.708 44.1581 101.439 44.5442C101.165 44.9075 101.144 45.384 101.154 45.8213C101.159 46.2228 101.242 46.6518 101.53 46.9514C101.834 47.2798 102.334 47.3669 102.755 47.2534C103.006 47.1846 103.197 46.9981 103.369 46.8116C103.514 46.9531 103.658 47.0982 103.813 47.2334C103.549 47.5134 103.228 47.7671 102.838 47.8292C102.234 47.9417 101.548 47.824 101.104 47.3743C100.688 46.9679 100.534 46.3684 100.52 45.803C100.505 45.2502 100.595 44.6632 100.934 44.2102C101.226 43.7835 101.742 43.5549 102.248 43.5199ZM104.994 44.1861C105.579 43.3057 107.055 43.2849 107.68 44.131C108.066 44.6174 108.107 45.2719 108.093 45.8686C107.142 45.8628 106.192 45.8664 105.241 45.8664C105.222 46.3684 105.399 46.9229 105.863 47.1793C106.43 47.4441 107.163 47.3135 107.573 46.8279C107.735 46.938 107.879 47.0722 108.019 47.2104C107.72 47.5089 107.358 47.7671 106.93 47.8297C106.349 47.9204 105.679 47.8699 105.224 47.4581C104.814 47.1073 104.657 46.5547 104.616 46.0357C104.567 45.404 104.634 44.7255 104.994 44.1861ZM105.747 44.2336C105.363 44.4739 105.229 44.9572 105.244 45.3853C105.979 45.3848 106.714 45.3789 107.45 45.3887C107.452 45.0866 107.404 44.7729 107.235 44.5176C106.924 44.0389 106.212 43.9109 105.747 44.2336ZM112.479 43.5364C113.003 43.4849 113.573 43.5076 114.032 43.7923C114.387 44.0049 114.556 44.4242 114.564 44.8242C114.566 45.817 114.562 46.81 114.566 47.8028C114.357 47.8116 114.15 47.8108 113.944 47.8062C113.937 47.6854 113.931 47.5655 113.927 47.4474C113.689 47.6445 113.418 47.8202 113.101 47.8448C112.573 47.8969 111.96 47.8946 111.546 47.5112C111.146 47.1086 111.096 46.4307 111.373 45.9468C111.627 45.5653 112.097 45.3981 112.54 45.3865C113.004 45.38 113.47 45.3825 113.936 45.3877C113.934 45.0539 113.98 44.6847 113.779 44.3948C113.597 44.1598 113.286 44.0851 113.005 44.071C112.742 44.0616 112.469 44.0633 112.226 44.1704C112.041 44.2474 111.916 44.4087 111.78 44.5473C111.65 44.4153 111.514 44.2895 111.369 44.1798C111.575 43.7759 112.045 43.5766 112.479 43.5364ZM112.096 46.0215C111.691 46.2893 111.714 47.0403 112.191 47.2185C112.48 47.3463 112.806 47.3166 113.114 47.3026C113.424 47.281 113.759 47.1109 113.864 46.8012C113.964 46.5008 113.931 46.1788 113.936 45.8686C113.546 45.8623 113.155 45.8668 112.766 45.8645C112.536 45.8656 112.288 45.885 112.096 46.0215ZM136.65 44.0529C137.138 43.5346 137.932 43.4067 138.598 43.5972C138.916 43.6902 139.167 43.9163 139.4 44.1425C139.259 44.2883 139.11 44.4259 138.962 44.5631C138.797 44.3766 138.605 44.1984 138.359 44.1335C137.82 43.9652 137.158 44.1963 136.919 44.7267C136.69 45.2381 136.706 45.8319 136.813 46.3724C136.923 46.9193 137.453 47.3372 138.014 47.3002C138.4 47.3258 138.72 47.0799 138.973 46.8154C139.105 46.9642 139.255 47.0957 139.404 47.23C139.143 47.516 138.815 47.7635 138.425 47.8297C137.81 47.9454 137.106 47.8179 136.667 47.3441C136.265 46.9252 136.112 46.3295 136.113 45.7629C136.095 45.1573 136.227 44.5085 136.65 44.0529ZM146.018 44.0189C146.416 43.5733 147.07 43.4224 147.639 43.5644C148.051 43.6443 148.412 43.9344 148.58 44.3177C148.784 44.7502 148.729 45.2399 148.735 45.7033C148.738 46.4022 148.733 47.1011 148.74 47.8005C148.523 47.8122 148.306 47.8116 148.092 47.8022C148.094 46.8878 148.092 45.9739 148.092 45.0599C148.085 44.6958 147.89 44.3269 147.55 44.175C147.146 44.0127 146.636 44.0529 146.314 44.3645C146.088 44.5923 146.025 44.9266 146.02 45.2363C146.012 46.0929 146.025 46.9501 146.014 47.8068C145.806 47.8106 145.598 47.8085 145.39 47.8062C145.39 46.3933 145.39 44.9804 145.39 43.5679C145.598 43.5737 145.808 43.5733 146.018 43.566C146.016 43.7164 146.018 43.867 146.018 44.0189ZM151.705 43.5136C152.236 43.5031 152.788 43.7298 153.105 44.1691C153.422 44.6099 153.475 45.1744 153.47 45.7021C153.475 46.228 153.415 46.7914 153.095 47.2291C152.478 48.0652 151.057 48.0862 150.414 47.2712C150.074 46.851 150.003 46.2858 150.006 45.7635C149.995 45.2662 150.029 44.7424 150.286 44.3029C150.568 43.8056 151.14 43.5177 151.705 43.5136ZM151.533 44.1037C151.108 44.1691 150.768 44.5268 150.7 44.9471C150.605 45.4671 150.601 46.0147 150.726 46.5311C150.823 46.9904 151.283 47.3172 151.745 47.2993C152.217 47.3104 152.684 46.9707 152.767 46.4962C152.869 45.9655 152.876 45.407 152.763 44.878C152.657 44.3346 152.062 43.9834 151.533 44.1037ZM161.957 43.9448C162.357 43.5082 163.021 43.4382 163.57 43.5777C163.841 43.6369 164.039 43.8397 164.237 44.0212C164.234 43.8718 164.234 43.7227 164.237 43.575C164.443 43.5698 164.653 43.5698 164.864 43.571C164.866 45.0413 164.866 46.5108 164.864 47.9804C164.855 48.5157 164.658 49.0785 164.215 49.4079C163.733 49.7831 163.07 49.8248 162.493 49.6914C162.163 49.6155 161.894 49.4045 161.639 49.1941C161.77 49.0493 161.913 48.9126 162.057 48.7806C162.263 48.9361 162.463 49.124 162.73 49.1677C163.075 49.2311 163.461 49.2164 163.758 49.0085C164.069 48.7851 164.215 48.3976 164.222 48.0255C164.222 47.7922 164.222 47.5591 164.222 47.3266C164.039 47.4527 163.89 47.6315 163.674 47.7041C163.087 47.916 162.346 47.8196 161.923 47.3318C161.56 46.8543 161.501 46.2268 161.503 45.6463C161.501 45.0564 161.564 44.4148 161.957 43.9448ZM162.932 44.1074C162.601 44.1647 162.336 44.4317 162.248 44.7524C162.108 45.2314 162.115 45.7435 162.174 46.2362C162.219 46.5483 162.323 46.8883 162.603 47.069C163.026 47.3507 163.699 47.2874 163.988 46.8426C164.224 46.471 164.224 46.0135 164.222 45.5892C164.226 45.1877 164.19 44.7572 163.954 44.4188C163.723 44.1067 163.291 44.0367 162.932 44.1074ZM11.4509 43.5634C11.9825 43.447 12.5852 43.5393 13.0029 43.9069C13.4307 44.2545 13.5896 44.8273 13.6106 45.3585C13.633 46.0141 13.633 46.7475 13.1971 47.2846C12.5746 48.0441 11.2796 48.0658 10.621 47.3423C10.2606 46.9497 10.1606 46.3944 10.1531 45.8792C10.1438 45.37 10.1523 44.8351 10.3954 44.3734C10.6054 43.9658 11.0026 43.6598 11.4509 43.5634ZM11.7517 44.0909C11.4375 44.1353 11.1212 44.305 10.9751 44.5976C10.7707 44.9902 10.7796 45.4496 10.7823 45.8815C10.8015 46.2822 10.8427 46.7452 11.1657 47.0278C11.5991 47.4398 12.3893 47.3779 12.74 46.887C12.976 46.5412 12.9811 46.1033 12.9884 45.7016C12.982 45.3207 12.9777 44.9177 12.7931 44.5747C12.5862 44.2208 12.1503 44.0426 11.7517 44.0909ZM22.9698 43.5715C23.5125 43.4375 24.1373 43.5353 24.5616 43.9174C24.8923 44.1844 25.065 44.5987 25.1261 45.0106C25.1874 45.4345 25.1891 45.8668 25.1378 46.2916C25.0911 46.6839 24.9556 47.0822 24.6732 47.3692C24.0018 48.0756 22.7061 48.0307 22.1015 47.2588C21.7519 46.8154 21.7035 46.2275 21.6958 45.6844C21.7065 45.2182 21.7373 44.7279 21.9775 44.3152C22.1868 43.9443 22.5573 43.6732 22.9698 43.5715ZM23.1558 44.1178C22.8741 44.1971 22.6151 44.3864 22.4937 44.6583C22.3334 45.023 22.3324 45.4313 22.3357 45.8237C22.3423 46.2104 22.3784 46.6363 22.6397 46.9451C23.0293 47.4224 23.857 47.419 24.2439 46.9403C24.522 46.6169 24.5248 46.1641 24.542 45.7621C24.5382 45.3421 24.5336 44.892 24.3097 44.5216C24.0673 44.1551 23.57 44.0089 23.1558 44.1178ZM25.7152 43.5685C25.9431 43.5733 26.171 43.5719 26.3997 43.5685C26.7911 44.6916 27.1586 45.8242 27.5536 46.9466C27.9234 45.8166 28.3222 44.6957 28.7013 43.5685C28.928 43.5719 29.1559 43.5737 29.3839 43.5679C28.9069 44.9226 28.3946 46.2649 27.906 47.6158C27.8714 47.6747 27.8704 47.7662 27.8038 47.8022C27.6172 47.8217 27.4305 47.8075 27.2452 47.7969C26.7601 46.3793 26.2148 44.9815 25.7152 43.5685ZM51.1474 43.5691C51.3607 43.5715 51.5757 43.5698 51.7898 43.5733C51.7885 44.9839 51.7868 46.3944 51.7915 47.8057C51.5774 47.8081 51.3641 47.8085 51.1521 47.8108C51.1409 46.3973 51.1496 44.9832 51.1474 43.5691ZM56.1452 43.5657C56.3529 43.5755 56.5601 43.5719 56.7687 43.571C56.776 44.4381 56.767 45.3058 56.7726 46.1738C56.7747 46.5113 56.8621 46.8864 57.1441 47.1022C57.4528 47.3349 57.8875 47.3481 58.2423 47.2219C58.6258 47.0928 58.8374 46.6768 58.8443 46.2906C58.8508 45.3829 58.8435 44.4761 58.8469 43.5691C59.058 43.5719 59.2696 43.5733 59.4815 43.5673C59.5009 44.9786 59.4768 46.3911 59.494 47.8022C59.2803 47.8116 59.0679 47.8116 58.8567 47.8033C58.8602 47.6671 58.8623 47.5312 58.8627 47.3967C58.6305 47.5579 58.407 47.7467 58.1241 47.8094C57.565 47.9489 56.8908 47.8513 56.4969 47.3979C56.1929 47.0478 56.1216 46.5622 56.1427 46.1139C56.1465 45.2644 56.1374 44.4148 56.1452 43.5657ZM85.8336 43.6638C86.5435 43.3797 87.4611 43.4796 87.9671 44.098C88.0227 44.1828 87.919 44.2393 87.873 44.2977C87.781 44.3847 87.6859 44.4688 87.5961 44.5579C87.4439 44.421 87.3042 44.2628 87.1149 44.1804C86.6105 43.9635 85.9445 44.1044 85.6341 44.5747C85.3958 44.8986 85.3718 45.3169 85.3636 45.7044C85.373 46.1139 85.4104 46.5645 85.6955 46.8861C86.0937 47.3949 86.9511 47.4516 87.4082 46.9922C87.4684 46.9337 87.5282 46.875 87.5901 46.8176C87.7368 46.9549 87.8842 47.0928 88.0244 47.2402C87.7982 47.4556 87.5656 47.6854 87.2569 47.776C86.7069 47.94 86.076 47.8946 85.5837 47.5878C85.1503 47.3189 84.8931 46.8368 84.7948 46.3484C84.6907 45.7891 84.7065 45.1972 84.904 44.66C85.0622 44.2208 85.4002 43.8444 85.8336 43.6638ZM89.1772 43.5698C89.3909 43.571 89.6063 43.5673 89.8218 43.5783C89.814 44.9868 89.8102 46.3956 89.8235 47.804C89.6068 47.8099 89.3904 47.8106 89.1755 47.8057C89.1737 46.3933 89.1708 44.9815 89.1772 43.5698ZM91.7244 43.9443C92.1648 43.513 92.8524 43.4271 93.4268 43.5955C93.9166 43.7275 94.2963 44.1371 94.4596 44.6095C94.6135 45.0102 94.6188 45.4456 94.6062 45.869C93.7463 45.861 92.8868 45.869 92.0272 45.8645C91.9403 45.8767 91.826 45.8353 91.7615 45.8954C91.7571 46.3489 91.896 46.8613 92.2963 47.1237C92.6627 47.3492 93.1353 47.3629 93.5352 47.2237C93.7587 47.1424 93.9363 46.9777 94.1182 46.83C94.2481 46.952 94.3908 47.0602 94.5207 47.1857C94.5035 47.3108 94.3607 47.3639 94.2811 47.4471C93.8065 47.8485 93.14 47.9315 92.5449 47.8302C92.1235 47.7578 91.7202 47.5305 91.4888 47.1647C91.1367 46.6358 91.1044 45.972 91.1371 45.3572C91.1796 44.8431 91.34 44.3075 91.7244 43.9443ZM92.1295 44.3486C91.835 44.6041 91.7722 45.0173 91.7554 45.3858C92.4976 45.3811 93.2397 45.3848 93.9819 45.384C93.9698 45.0027 93.8955 44.5765 93.5811 44.3229C93.1829 43.9577 92.5148 43.9719 92.1295 44.3486ZM116.055 43.5715C116.269 43.5698 116.485 43.5679 116.701 43.579C116.697 43.7075 116.694 43.8379 116.697 43.9695C116.891 43.8524 117.055 43.6808 117.28 43.6172C117.906 43.3956 118.717 43.5182 119.117 44.0905C119.373 44.4361 119.418 44.881 119.402 45.2993C119.403 46.1344 119.393 46.9696 119.407 47.8045C119.193 47.8094 118.979 47.8099 118.767 47.8057C118.778 46.9679 118.767 46.1304 118.774 45.2929C118.779 44.9657 118.719 44.6112 118.491 44.3632C118.151 44.0354 117.596 44.0038 117.187 44.2112C116.833 44.3864 116.688 44.808 116.698 45.1813C116.7 46.0556 116.69 46.9297 116.704 47.8045C116.487 47.8099 116.271 47.8106 116.057 47.8057C116.052 46.3944 116.057 44.9827 116.055 43.5715ZM132.536 43.6741C133.032 43.4538 133.628 43.4604 134.117 43.6976C134.525 43.9145 134.82 44.3146 134.934 44.76C135.047 45.1183 135.035 45.4968 135.032 45.8681C134.08 45.8645 133.128 45.8616 132.178 45.8696C132.198 46.2828 132.278 46.7387 132.602 47.0284C132.944 47.3375 133.456 47.3646 133.884 47.2495C134.144 47.1816 134.341 46.9887 134.55 46.8316C134.691 46.9566 134.834 47.0829 134.969 47.2177C134.692 47.4605 134.399 47.7142 134.03 47.796C133.506 47.9186 132.925 47.9009 132.441 47.6466C131.984 47.4076 131.711 46.9193 131.619 46.4253C131.525 45.9188 131.523 45.3877 131.64 44.8844C131.751 44.3797 132.063 43.9045 132.536 43.6741ZM132.659 44.2615C132.29 44.5045 132.197 44.9746 132.18 45.3858C132.922 45.38 133.665 45.3865 134.408 45.3825C134.393 45.0423 134.338 44.6765 134.1 44.4165C133.755 44.0038 133.084 43.9354 132.659 44.2615ZM158.248 43.5637C158.792 43.4418 159.408 43.5479 159.827 43.933C160.222 44.2668 160.373 44.7996 160.402 45.2993C160.423 45.9503 160.443 46.6687 160.041 47.2219C159.442 48.0395 158.089 48.0885 157.417 47.3406C157.082 46.9807 156.974 46.4764 156.95 46.0001C156.933 45.4928 156.935 44.9662 157.133 44.4901C157.326 44.0261 157.753 43.6667 158.248 43.5637ZM158.435 44.1113C158.172 44.1704 157.921 44.3235 157.789 44.5625C157.617 44.8533 157.589 45.2 157.575 45.5309C157.566 45.885 157.579 46.2471 157.681 46.5896C157.768 46.8824 158.002 47.1211 158.286 47.2294C158.7 47.389 159.219 47.2781 159.506 46.9274C159.733 46.6311 159.769 46.2414 159.78 45.8807C159.784 45.4549 159.79 45.0089 159.61 44.614C159.393 44.2042 158.877 44.0038 158.435 44.1113ZM165.715 43.5702C165.945 43.5733 166.176 43.5733 166.406 43.566C166.775 44.6965 167.181 45.8148 167.548 46.9466C167.941 45.823 168.32 44.6942 168.7 43.5666C168.93 43.5743 169.157 43.5719 169.386 43.5691C168.753 45.3341 168.099 47.091 167.457 48.853C167.37 49.1076 167.211 49.3444 166.973 49.4787C166.694 49.6412 166.359 49.6369 166.046 49.6327C166.046 49.443 166.046 49.2543 166.046 49.0668C166.249 49.064 166.467 49.0825 166.654 48.9837C166.913 48.7765 166.96 48.4256 167.085 48.1376C167.128 47.9657 167.268 47.7929 167.2 47.6135C166.703 46.2658 166.204 44.9209 165.715 43.5702Z" fill="#6F6F6F"/>
<path d="M148.667 0.904292C151.01 0.898685 153.353 0.898198 155.697 0.904292C155.701 4.26424 155.699 7.62444 155.699 10.9844C155.82 10.9651 155.888 10.8546 155.977 10.7789C156.829 9.92738 157.895 9.29551 159.051 8.95569C160.26 8.60429 161.541 8.54115 162.786 8.70716C164.107 8.8867 165.397 9.41411 166.414 10.2845C167.293 10.9776 167.948 11.9551 168.22 13.0432C168.555 14.2984 168.487 15.6086 168.523 16.895C168.517 20.1281 168.523 23.3606 168.521 26.5939C168.517 26.92 168.534 27.2473 168.508 27.5734C166.204 27.5645 163.899 27.5769 161.594 27.5677C161.59 24.2443 161.594 20.9211 161.592 17.5982C161.596 16.561 161.566 15.4829 161.141 14.5188C160.878 13.9087 160.377 13.3857 159.733 13.1869C158.73 12.8621 157.517 13.0134 156.744 13.7715C156.245 14.2733 155.971 14.9489 155.807 15.6273C155.671 16.2737 155.652 16.9369 155.635 17.5953C155.631 20.9199 155.633 24.2448 155.633 27.5694C153.311 27.5734 150.987 27.5668 148.665 27.5729C148.663 18.6828 148.659 9.79355 148.667 0.904292ZM96.3443 3.97659C96.7024 3.85275 97.0387 3.65493 97.4136 3.5835C97.4063 5.42096 97.402 7.25853 97.4144 9.09598C98.876 9.09391 100.338 9.08587 101.799 9.10049C101.8 10.58 101.798 12.0602 101.8 13.5404C100.489 13.5528 99.1783 13.5422 97.8672 13.5457C97.6815 13.5521 97.4906 13.5171 97.3139 13.5818C97.3384 15.8534 97.3105 18.1258 97.328 20.398C97.3659 21.0666 97.3384 21.7725 97.6381 22.3906C97.8659 22.825 98.3235 23.0766 98.793 23.169C99.767 23.366 100.771 23.2819 101.751 23.1725C101.754 24.6299 101.756 26.0878 101.75 27.5459C100.369 27.7676 98.9714 27.8791 97.574 27.865C96.1121 27.8809 94.6118 27.8281 93.2233 27.3263C92.3311 27.0141 91.5201 26.3895 91.1198 25.5176C90.5552 24.3259 90.5845 22.9731 90.5901 21.6859C90.5896 18.9726 90.5901 16.2591 90.5896 13.5457C89.4204 13.5445 88.2513 13.5487 87.083 13.544C87.0891 12.0609 87.0804 10.5783 87.0874 9.09598C88.2935 9.08818 89.5 9.09696 90.707 9.0916C90.7092 8.1282 90.7006 7.16456 90.7122 6.20091C92.5985 5.48495 94.4643 4.71181 96.3443 3.97659ZM110.19 8.94606C111.697 8.44949 113.299 8.32383 114.877 8.37465C116.199 8.41975 117.527 8.61892 118.769 9.08709C119.813 9.48919 120.791 10.0899 121.565 10.9043C122.314 11.6629 122.855 12.5944 123.285 13.5627C123.795 14.7805 123.978 16.1082 124.035 17.4194C124.096 18.1839 124.089 18.9522 124.084 19.719C119.655 19.7142 115.227 19.718 110.799 19.7171C110.792 20.7983 110.932 21.9371 111.534 22.8629C111.917 23.4348 112.505 23.8697 113.172 24.0462C113.644 24.1998 114.148 24.2011 114.641 24.1858C115.33 24.1643 116.028 23.9404 116.558 23.4911C116.943 23.1656 117.207 22.7162 117.355 22.2376C117.45 21.9974 117.448 21.7356 117.53 21.4932C119.254 21.5166 120.982 21.4955 122.707 21.5029C123.127 21.4939 123.548 21.5206 123.969 21.4965C123.886 22.6589 123.451 23.792 122.761 24.7304C122.016 25.7211 120.978 26.4631 119.849 26.9598C118.661 27.4842 117.379 27.761 116.093 27.8974C114.597 28.0431 113.08 28.0134 111.596 27.7698C110.42 27.5611 109.259 27.1966 108.229 26.5835C107.375 26.0832 106.624 25.4071 106.037 24.6113C105.231 23.5133 104.76 22.2013 104.537 20.8662C104.313 19.4992 104.319 18.1003 104.459 16.7253C104.609 15.3562 104.959 13.9957 105.598 12.7708C106.047 11.9341 106.625 11.1586 107.348 10.5386C108.169 9.81573 109.154 9.29149 110.19 8.94606ZM113.706 12.0995C113.206 12.1649 112.712 12.3386 112.306 12.6424C111.858 12.9925 111.506 13.4639 111.298 13.9927C111.037 14.6058 110.924 15.2707 110.879 15.9317C113.098 15.9341 115.318 15.9347 117.537 15.9317C117.486 14.9721 117.302 13.967 116.718 13.1787C116.517 12.8935 116.239 12.6744 115.95 12.487C115.278 12.0897 114.468 12.0227 113.706 12.0995ZM132.301 9.37291C133.677 8.77384 135.174 8.4952 136.668 8.415C138.2 8.34504 139.753 8.46595 141.235 8.88061C142.326 9.19642 143.388 9.67897 144.266 10.4142C144.96 10.9727 145.536 11.6765 145.967 12.4558C146.483 13.3951 146.715 14.4667 146.755 15.5307C144.463 15.5274 142.169 15.5418 139.875 15.5234C139.87 14.8535 139.785 14.1647 139.475 13.5627C139.307 13.2558 139.099 12.9607 138.804 12.768C138.173 12.3284 137.345 12.2785 136.617 12.4647C136.02 12.6118 135.509 13.0186 135.181 13.5311C134.622 14.4105 134.44 15.4666 134.351 16.488C134.268 17.2055 134.292 17.9293 134.289 18.6501C134.288 19.4719 134.364 20.2934 134.509 21.1026C134.643 21.7998 134.855 22.499 135.261 23.09C135.563 23.5289 136.019 23.8639 136.539 23.9936C137.077 24.124 137.651 24.1332 138.182 23.9654C138.755 23.7849 139.22 23.3256 139.45 22.7758C139.794 22.008 139.834 21.15 139.848 20.3219C142.186 20.325 144.525 20.325 146.864 20.3219C146.897 21.7305 146.532 23.1644 145.755 24.3453C145.202 25.2155 144.429 25.9273 143.563 26.4796C142.549 27.1194 141.404 27.5273 140.233 27.7645C138.888 28.0351 137.505 28.07 136.141 27.9633C134.63 27.8269 133.127 27.4561 131.776 26.7564C130.77 26.2374 129.868 25.5181 129.148 24.647C128.516 23.8796 128.041 22.9931 127.707 22.0593C127.267 20.7983 127.093 19.455 127.104 18.1226C127.107 16.5884 127.34 15.033 127.962 13.6217C128.376 12.6644 128.982 11.7914 129.725 11.0609C130.479 10.3569 131.35 9.7766 132.301 9.37291Z" fill="#9EA718"/>
<path d="M0 34.5586C55.4901 34.5603 110.98 34.5586 166.471 34.5595C167.646 34.5685 168.823 34.54 170 34.5734C169.998 34.6319 169.996 34.7486 169.994 34.8065C114.357 34.8007 58.722 34.8057 3.08534 34.804C2.05941 34.8074 1.03324 34.7958 0.00706947 34.8106C0.00353474 34.7252 0.00134076 34.6409 0 34.5586Z" fill="#9B9B9B"/>
</svg>
