<svg width="170" height="50" viewBox="0 0 170 50" fill="none" xmlns="http://www.w3.org/2000/svg">
<g clip-path="url(#clip0_246_4622)">
<path d="M60.2056 9.47288C60.2056 8.5523 59.8373 7.6931 58.794 7.6931C57.137 7.6931 56.8915 9.90248 56.8915 11.1299C56.8915 12.787 57.1983 15.1805 59.3464 15.1805C60.2056 15.1805 60.8193 14.8736 61.4944 14.3213V15.5487C60.7579 15.9783 59.9601 16.101 59.1009 16.101C56.3391 16.101 55.3572 13.7689 55.3572 11.314C55.3572 9.04328 56.2164 6.89526 58.8554 6.89526C60.5124 6.89526 61.8012 7.6931 61.8012 9.47288H60.2056ZM65.9745 15.9783V15.1191C65.6063 15.7328 64.9312 16.101 64.2561 16.101C63.3969 16.101 62.5991 15.4873 62.5991 14.5667C62.5991 12.8483 64.7471 12.6028 66.0359 12.5415V11.9891C66.0359 11.3754 66.0359 10.2093 65.1767 10.2093C64.3788 10.2093 64.1947 10.8844 64.1947 11.5595H62.8446C62.9673 10.148 63.8265 9.657 65.1767 9.657C66.8951 9.657 67.3247 10.3935 67.3247 11.9891V15.9169L65.9745 15.9783ZM65.9745 13.0938C65.1767 13.1552 63.9492 13.3393 63.9492 14.3826C63.9492 14.8122 64.1947 15.3032 64.6857 15.3032C64.8698 15.3032 65.0539 15.2418 65.1767 15.1805C65.6677 14.935 65.9745 14.3826 65.9745 13.8303V13.0938ZM72.7868 15.9783V13.1552H70.4547V15.9783H69.1658V9.84111H70.4547V12.4187H72.7868V9.84111H74.0756V15.9783H72.7868ZM75.9781 9.84111H77.2669V12.4801C78.0034 11.6209 78.7399 10.7617 79.4763 9.84111H80.7651L78.3716 12.6028C79.1695 12.7256 79.7832 12.9097 80.2128 14.1371L80.8265 15.9169H79.4149L78.924 14.5667C78.5557 13.5234 78.2489 13.2779 77.451 13.2779H77.2669V15.9783H75.9781V9.84111ZM84.202 10.5776V15.9783H82.9131V10.5776H81.2561V9.84111H85.9204V10.5776H84.202ZM86.6568 12.1119H89.7868V13.0324H86.6568V12.1119ZM96.0467 15.9783V7.99996H92.9168V15.9783H91.5052V7.07938H97.4583V15.9783H96.0467ZM100.281 12.2346C100.281 13.7075 100.956 15.4259 102.675 15.4259C103.104 15.4259 103.473 15.3646 103.841 15.1805V15.7942C103.227 16.0397 102.736 16.1624 102.061 16.1624C99.9131 16.1624 98.9926 14.6895 98.9926 12.6642C98.9926 10.8844 99.729 9.71837 101.632 9.71837C103.289 9.71837 104.025 10.6389 104.025 12.2346H100.281ZM101.57 10.2707C100.772 10.2707 100.404 10.9458 100.343 11.6209H102.736C102.736 10.8844 102.368 10.2707 101.57 10.2707ZM107.523 10.5776V15.9783H106.234V10.5776H104.577V9.84111H109.242V10.5776H107.523ZM110.96 12.2346C110.96 13.7075 111.635 15.4259 113.354 15.4259C113.783 15.4259 114.151 15.3646 114.52 15.1805V15.7942C113.906 16.0397 113.415 16.1624 112.74 16.1624C110.592 16.1624 109.671 14.6895 109.671 12.6642C109.671 10.8844 110.408 9.71837 112.31 9.71837C113.967 9.71837 114.704 10.6389 114.704 12.2346H110.96ZM112.188 10.2707C111.39 10.2707 111.021 10.9458 110.96 11.6209H113.354C113.354 10.8844 113.047 10.2707 112.188 10.2707ZM119 16.101C118.263 16.101 117.772 15.7942 117.404 15.1191V18.74H116.115V9.84111H117.404V10.8844C117.711 10.2093 118.202 9.71837 119 9.71837C120.902 9.71837 121.332 11.3754 121.332 12.9097C121.332 14.444 120.841 16.101 119 16.101ZM118.632 10.5162C117.465 10.5162 117.404 12.0505 117.404 12.9097C117.404 13.7689 117.404 15.3646 118.632 15.3646C119.736 15.3646 119.859 13.7075 119.859 12.9097C119.92 12.1119 119.798 10.5162 118.632 10.5162ZM127.346 7.93858L125.26 8.73642C124.094 9.16602 123.603 9.77974 123.357 10.8231H123.419C123.787 10.0866 124.462 9.71837 125.321 9.71837C127.162 9.71837 127.776 11.0685 127.776 12.8483C127.776 14.8122 126.978 16.1624 125.076 16.1624C123.05 16.1624 122.375 14.8122 122.375 12.6642C122.375 10.2707 122.928 8.5523 124.953 7.6931C125.567 7.44761 126.18 7.14075 126.855 6.89526L127.346 7.93858ZM125.076 15.5487C126.242 15.5487 126.364 14.0758 126.364 13.1552V12.6642C126.364 11.7436 126.303 10.3321 125.076 10.3321C123.971 10.3321 123.725 11.805 123.725 12.6642V13.1552C123.787 14.0758 123.91 15.5487 125.076 15.5487ZM130.845 18.74H129.801L130.722 16.0397L128.39 9.84111H129.74L131.336 14.1985L132.808 9.84111H134.036L130.845 18.74ZM137.902 16.101C137.166 16.101 136.675 15.7942 136.307 15.1191V18.74H135.018V9.84111H136.307V10.8844C136.614 10.2093 137.104 9.71837 137.902 9.71837C139.805 9.71837 140.234 11.3754 140.234 12.9097C140.234 14.444 139.743 16.101 137.902 16.101ZM137.595 10.5162C136.429 10.5162 136.368 12.0505 136.368 12.9097C136.368 13.7689 136.368 15.3646 137.595 15.3646C138.7 15.3646 138.823 13.7075 138.823 12.9097C138.823 12.1119 138.7 10.5162 137.595 10.5162ZM145.206 9.84111V10.5776H142.996V15.9783H141.707V9.84111H145.206ZM149.011 11.8664C149.011 11.2527 148.949 10.2707 148.09 10.2707C147.169 10.2707 146.924 11.5595 146.924 12.2346C146.924 13.5848 147.476 15.4259 149.133 15.4259C149.502 15.4259 149.87 15.3646 150.238 15.1805V15.7942C149.686 15.9783 149.133 16.101 148.581 16.101C146.433 16.101 145.512 14.6895 145.512 12.6642C145.512 10.9458 146.249 9.71837 148.09 9.71837C149.563 9.71837 150.299 10.3935 150.299 11.8664H149.011ZM151.465 9.84111H152.754V12.4801C153.491 11.6209 154.227 10.7617 154.964 9.84111H156.253L153.859 12.6028C154.657 12.7256 155.271 12.9097 155.7 14.1371L156.314 15.9169H154.902L154.411 14.5667C154.043 13.5234 153.736 13.2779 152.938 13.2779H152.816V15.9783H151.527L151.465 9.84111ZM157.48 15.9783V9.84111H158.707V14.444L161.285 9.84111H162.512V15.9783H161.285V11.4982L158.707 16.0397H157.48M164.415 15.9783V9.84111H165.642V14.444L168.22 9.84111H169.447V15.9783H168.22V11.4982L165.642 16.0397H164.415V15.9783ZM168.834 6.95664C168.772 7.99996 168.159 8.79779 167.054 8.79779C165.949 8.79779 165.213 8.06133 165.213 6.95664H165.949C166.072 7.50898 166.44 7.81584 166.993 7.81584C167.606 7.81584 167.913 7.50898 168.097 6.95664H168.834ZM59.2236 23.527V24.2635H57.0756V29.6642H55.7868V23.527H59.2236ZM62.2922 29.787C60.2669 29.787 59.5918 28.3754 59.5918 26.5956C59.5918 24.8158 60.3283 23.4043 62.2922 23.4043C64.2561 23.4043 64.9926 24.7545 64.9926 26.5956C64.9926 28.4368 64.3175 29.787 62.2922 29.787ZM62.2922 23.8953C61.0648 23.8953 61.0034 25.675 61.0034 26.5343C61.0034 27.3935 61.0648 29.1732 62.2922 29.1732C63.5196 29.1732 63.581 27.3935 63.581 26.5343C63.581 25.675 63.581 23.8953 62.2922 23.8953ZM69.5341 25.4909C69.5341 24.8772 69.4727 23.8953 68.6135 23.8953C67.6929 23.8953 67.5088 25.1841 67.5088 25.8592C67.5088 27.2093 68.0612 29.0505 69.7182 29.0505C70.0864 29.0505 70.4547 28.9891 70.8229 28.805V29.4187C70.2705 29.6028 69.7182 29.7256 69.1658 29.7256C67.0178 29.7256 66.0973 28.314 66.0973 26.2888C66.0973 24.5704 66.8337 23.3429 68.6749 23.3429C70.1478 23.3429 70.8843 24.018 70.8843 25.4909H69.5341ZM73.5846 32.3646H72.5413L73.4619 29.6642L71.1297 23.4657H72.4799L74.0756 27.8231L75.5485 23.4657H76.776L73.5846 32.3646ZM78.1261 29.6642C78.0648 30.1552 78.0648 30.6462 78.0034 31.1371H76.9601V28.9278H77.5738C78.0648 28.0685 78.2489 26.5956 78.2489 24.9386V23.527H82.4835V28.9278H83.3427L83.1586 31.1371H82.1153V29.6642H78.1261ZM79.5377 24.2021V24.8772C79.5377 26.2888 79.3536 27.8231 78.8012 28.8664H81.1947V24.2021H79.5377ZM87.5774 29.6642V28.805C87.2092 29.4187 86.5341 29.787 85.859 29.787C84.9998 29.787 84.202 29.1732 84.202 28.2527C84.202 26.5343 86.35 26.2888 87.6388 26.2274V25.675C87.6388 25.0613 87.6388 23.8953 86.7796 23.8953C85.9817 23.8953 85.7976 24.5704 85.7976 25.2454H84.4474C84.5702 23.8339 85.4294 23.3429 86.8409 23.3429C88.5594 23.3429 88.989 24.0794 88.989 25.675V29.6028H87.5774V29.6642ZM87.5774 26.7797C86.7796 26.8411 85.5521 27.0252 85.5521 28.0685C85.5521 28.4982 85.7976 28.9891 86.2886 28.9891C86.4727 28.9891 86.6568 28.9278 86.7796 28.8664C87.2705 28.6209 87.5774 28.0685 87.5774 27.5162V26.7797ZM93.7146 29.787C92.9781 29.787 92.4872 29.4801 92.1189 28.805V32.3646H90.8301V23.527H92.1189V24.509C92.4258 23.8339 92.9168 23.3429 93.7146 23.3429C95.6171 23.3429 96.0467 25 96.0467 26.5343C96.0467 28.0685 95.5557 29.787 93.7146 29.787ZM93.3464 24.2021C92.1803 24.2021 92.1189 25.7364 92.1189 26.5956C92.1189 27.4548 92.1189 29.0505 93.3464 29.0505C94.4511 29.0505 94.5738 27.3935 94.5738 26.5956C94.5738 25.7364 94.4511 24.2021 93.3464 24.2021ZM100.465 25.4909C100.465 24.8772 100.404 23.8953 99.5449 23.8953C98.6243 23.8953 98.3788 25.1841 98.3788 25.8592C98.3788 27.2093 98.9312 29.0505 100.588 29.0505C100.956 29.0505 101.325 28.9891 101.693 28.805V29.4187C101.141 29.6028 100.588 29.7256 100.036 29.7256C97.8879 29.7256 96.9673 28.314 96.9673 26.2888C96.9673 24.5704 97.7038 23.3429 99.5449 23.3429C101.018 23.3429 101.754 24.018 101.754 25.4909H100.465ZM105.191 24.2021V29.6028H103.902V24.2021H102.245V23.4657H106.91V24.2021H105.191ZM110.162 29.6642H107.953V23.527H110.101C111.267 23.527 112.433 23.7725 112.433 25C112.433 25.675 112.003 26.2274 111.144 26.4729C112.188 26.5956 112.74 27.0866 112.74 28.0072C112.74 29.3574 111.574 29.6642 110.162 29.6642ZM109.794 24.1407H109.242V26.1046H109.733C110.469 26.1046 111.021 25.9205 111.021 25.1227C111.083 24.3862 110.592 24.1407 109.794 24.1407ZM109.794 26.7797H109.242V28.9278H109.794C110.715 28.9278 111.39 28.7436 111.39 27.8231C111.39 26.9639 110.715 26.7797 109.794 26.7797ZM115.011 25.8592C115.011 27.3321 115.686 29.0505 117.404 29.0505C117.834 29.0505 118.202 28.9891 118.57 28.805V29.4187C117.956 29.6642 117.465 29.787 116.79 29.787C114.642 29.787 113.722 28.314 113.722 26.2888C113.722 24.509 114.458 23.3429 116.361 23.3429C118.018 23.3429 118.754 24.2635 118.754 25.8592H115.011ZM116.238 23.8953C115.44 23.8953 115.072 24.5704 115.011 25.2454H117.404C117.404 24.5704 117.036 23.8953 116.238 23.8953ZM123.725 29.6642V26.8411H121.393V29.6642H120.104V23.527H121.393V26.1046H123.725V23.527H125.014V29.6642H123.725ZM130.538 29.6642V26.8411H128.267V29.6642H126.978V23.527H128.267V26.1046H130.599V23.527H131.888V29.6642H130.538ZM135.079 23.527V26.1046H136.061C137.35 26.1046 138.393 26.4729 138.393 27.8231C138.393 29.296 137.166 29.6642 135.877 29.6642H133.79V23.527H135.079ZM135.325 26.7797H135.079V28.9891H135.754C136.491 28.9278 137.043 28.6823 137.043 27.8844C136.982 26.9025 136.307 26.7797 135.325 26.7797ZM139.068 23.527H140.357V29.6642H139.068V23.527ZM142.321 29.6642V23.527H143.549V28.1299L146.126 23.527H147.354V29.6642H146.126V25.1227L143.549 29.6028L142.321 29.6642ZM146.74 20.5812C146.678 21.6245 146.065 22.4223 144.96 22.4223C143.855 22.4223 143.119 21.6859 143.119 20.5812H143.855C143.978 21.1335 144.346 21.4404 144.899 21.4404C145.512 21.4404 145.819 21.1335 146.003 20.5198L146.74 20.5812ZM57.3211 46.0505H56.2778L57.1983 43.3501L54.8662 37.1516H56.2164L57.8121 41.509L59.285 37.1516H60.5124L57.3211 46.0505ZM65.1153 43.2888V40.4657H62.7832V43.2888H61.4944V37.1516H62.7832V39.7292H65.1153V37.1516H66.4041V43.2888H65.1153ZM68.3066 43.2888V37.1516H69.5341V41.7545L72.1117 37.1516H73.3391V43.2888H72.1117V38.8086L69.5341 43.2888H68.3066ZM77.451 43.2888H75.2417V37.1516H77.3897C78.5557 37.1516 79.7218 37.3971 79.7218 38.6245C79.7218 39.2996 79.2922 39.8519 78.433 40.0974C79.4763 40.2202 80.0287 40.7111 80.0287 41.6317C80.0287 42.9819 78.8626 43.2888 77.451 43.2888ZM77.0828 37.8267H76.5305V39.7292H77.0214C77.7579 39.7292 78.3103 39.5451 78.3103 38.7472C78.3716 38.0108 77.942 37.8267 77.0828 37.8267ZM77.1442 40.4043H76.5918V42.6137H77.1442C78.0648 42.6137 78.7399 42.4296 78.7399 41.509C78.6785 40.5884 78.0034 40.4043 77.1442 40.4043ZM82.2994 39.5451C82.2994 41.018 82.9745 42.7978 84.6929 42.7978C85.1225 42.7978 85.4908 42.7364 85.859 42.5523V43.166C85.2453 43.4115 84.7543 43.5342 84.0792 43.5342C81.9312 43.5342 81.0106 42.0613 81.0106 40.0361C81.0106 38.2563 81.7471 37.0902 83.6496 37.0902C85.3066 37.0902 86.0431 38.0108 86.0431 39.6065L82.2994 39.5451ZM83.5269 37.5198C82.729 37.5198 82.3608 38.1949 82.2994 38.87H84.6929C84.6929 38.1949 84.3861 37.5198 83.5269 37.5198ZM90.3391 43.4115C89.6027 43.4115 89.1117 43.1046 88.7435 42.4296V46.0505H87.4547V37.1516H88.7435V38.1335C89.0503 37.4584 89.5413 36.9675 90.3391 36.9675C92.2417 36.9675 92.6713 38.6245 92.6713 40.1588C92.6713 41.6931 92.1803 43.4115 90.3391 43.4115ZM89.9709 37.8267C88.8048 37.8267 88.7435 39.361 88.7435 40.2202C88.7435 41.0794 88.7435 42.675 89.9709 42.675C91.0756 42.675 91.1983 41.018 91.1983 40.2202C91.1983 39.4223 91.137 37.8267 89.9709 37.8267ZM97.09 39.1155C97.09 38.5018 97.0287 37.5198 96.1695 37.5198C95.2489 37.5198 95.0034 38.8086 95.0034 39.4837C95.0034 40.8339 95.5557 42.675 97.2128 42.675C97.581 42.675 97.9492 42.6137 98.3175 42.4296V43.0433C97.7651 43.2274 97.2128 43.3501 96.6604 43.3501C94.5124 43.3501 93.5918 41.9386 93.5918 39.9133C93.5918 38.1949 94.3283 36.9675 96.1695 36.9675C97.6424 36.9675 98.3788 37.6426 98.3788 39.1155H97.09ZM99.6063 43.2888V37.1516H100.834V41.7545L103.411 37.1516H104.639V43.2888H103.411V38.8086L100.834 43.2888H99.6063ZM108.628 37.888V43.2888H107.339V37.888H105.682V37.1516H110.346V37.888H108.628ZM112.065 39.5451C112.065 41.018 112.74 42.7978 114.458 42.7978C114.888 42.7978 115.256 42.7364 115.624 42.5523V43.166C115.011 43.4115 114.52 43.5342 113.845 43.5342C111.697 43.5342 110.776 42.0613 110.776 40.0361C110.776 38.2563 111.512 37.0902 113.415 37.0902C115.072 37.0902 115.808 38.0108 115.808 39.6065L112.065 39.5451ZM113.292 37.5198C112.494 37.5198 112.126 38.1949 112.065 38.87H114.458C114.458 38.1949 114.09 37.5198 113.292 37.5198ZM119.245 37.888V43.2888H117.956V37.888H116.299V37.1516H120.964V37.888H119.245Z" fill="black"/>
<path d="M17.9265 8.39887C17.9388 8.4357 17.9572 8.46638 17.9695 8.49707C18.2211 9.031 18.6752 9.54039 18.6752 9.54039C18.6752 9.54039 18.6752 9.54039 18.6814 9.54039C18.6814 9.54039 18.7489 9.49129 18.8778 9.41764C18.9207 9.3931 18.976 9.36241 19.0373 9.33172C19.1846 9.25808 19.3687 9.17829 19.602 9.09237C20.1543 8.89598 20.8846 8.83461 20.8846 8.83461C20.8846 8.83461 20.2034 7.88335 20.0745 6.50862C20.0009 5.7292 20.0316 5.32414 20.0377 5.29959C19.9886 5.29959 19.9456 5.29346 19.8965 5.29346C19.3749 5.29346 18.9023 5.47757 18.5279 5.77829C18.5157 5.78443 18.5095 5.79057 18.4973 5.80284C18.0124 6.20176 17.7056 6.80934 17.7056 7.48443C17.7056 7.67468 17.7301 7.85266 17.7792 8.03064C17.816 8.14111 17.8651 8.28227 17.9142 8.40501L17.9265 8.39887Z" fill="black"/>
<path d="M31.0908 15.0576C31.3118 15.4135 31.3056 15.8554 31.3056 15.8554C31.3056 15.8554 31.7598 15.9352 31.9807 16.1561C31.9807 16.1561 32.0175 16.1193 32.0175 16.1132C32.3183 15.7388 32.8767 15.1312 33.0424 14.2413C33.1713 13.5172 33.0915 12.5045 32.9381 12.1854C32.9381 12.1731 32.9258 12.1547 32.9197 12.1486C33.067 11.9829 33.3063 11.5901 33.963 11.5901C34.2085 11.5901 34.4233 11.6576 34.6013 11.7374C34.8897 11.8785 35.0677 12.0626 35.0677 12.0626C35.0677 12.0626 34.497 13.0814 34.1962 13.5601C34.0428 13.8056 33.9323 14.002 33.6255 14.6771C33.3677 15.2417 33.3002 15.6161 33.3432 16.0211C33.38 16.3587 33.558 17.0092 33.6378 17.6598C33.785 18.9117 33.5396 19.5193 33.5396 19.5193C33.5396 19.5193 33.5457 19.5193 33.5518 19.507V19.5193C33.5518 19.5193 35.037 18.5374 35.9699 16.3525C35.9699 16.3525 35.9637 16.3525 35.9576 16.3525C35.7858 16.3218 35.6446 16.2727 35.5219 16.2114C35.3991 16.15 35.2887 16.0702 35.172 15.9843C34.3435 15.3522 34.5276 14.6771 34.7977 14.3579C34.8775 14.2659 34.9511 14.18 35.037 14.094C35.2457 13.8731 35.4728 13.646 35.706 13.3699C36.0067 13.02 36.111 12.6702 36.154 12.3634C36.1663 12.259 36.1847 12.1486 36.1847 12.0442C36.1847 11.1236 35.7367 10.4977 35.172 10.1847C34.9818 10.0803 34.7793 10.0067 34.5767 9.976C33.9385 9.86553 33.1652 10.1049 32.5944 10.4915C32.3796 10.6388 32.0175 10.9641 31.9193 11.2157C31.7966 11.8356 31.9807 11.9951 32.171 12.6334C32.171 12.6457 32.1832 12.6579 32.1894 12.6702C32.5822 14.094 32.3796 14.7875 31.0908 15.0576Z" fill="black"/>
<path d="M24.7269 13.7872C24.8927 14.1432 25.1995 14.4869 25.1995 14.4869L25.2425 14.5298C25.2425 14.5298 25.4082 14.3825 25.8501 14.2107C26.2121 14.0695 26.6786 14.0204 26.6786 14.0204C26.6786 14.0204 26.2183 13.3822 26.1324 12.4677C26.0833 11.9338 26.1017 11.6576 26.1078 11.6576C26.1078 11.6576 26.1017 11.6576 26.0955 11.6576C25.8623 11.6147 25.623 11.6576 25.402 11.762C25.2486 11.8479 25.1136 11.9399 25.0031 12.0443C24.8067 12.2222 24.6717 12.4186 24.6226 12.6273C24.5428 12.8544 24.5121 13.0999 24.5612 13.3576C24.5612 13.3822 24.6472 13.6461 24.7147 13.7934L24.7269 13.7872Z" fill="black"/>
<path d="M26.7522 12.8422C26.9486 13.3946 27.28 13.8549 27.5316 13.9531C27.5684 13.9715 27.6052 13.9776 27.6421 13.9776C27.906 13.9469 28.2496 13.4191 28.4154 12.7747C28.5749 12.1733 28.4644 11.6639 28.2005 11.4491C28.1392 11.4061 28.0717 11.3632 28.0042 11.3325C27.9919 11.3325 27.9796 11.3264 27.9673 11.3202C28.0962 11.2036 28.1883 11.0379 28.1883 10.8477C28.1883 10.5531 27.998 10.3137 27.728 10.2401V9.98231H28.1637V9.62635H27.728V9.06787H27.372V9.62635H26.9302V9.98231H27.372V10.2401C27.1081 10.3137 26.9179 10.5531 26.9179 10.8477C26.9179 11.0318 26.9977 11.2036 27.1327 11.3202C27.0283 11.3693 26.9302 11.4307 26.8442 11.5043C26.5987 11.7375 26.5374 12.2531 26.746 12.8422H26.7522Z" fill="black"/>
<path d="M28.5381 13.9713C28.5381 13.9713 29.3175 13.9713 30.0969 14.2843C30.1092 14.2843 30.1215 14.2966 30.1338 14.3027C30.2381 14.1677 30.3915 13.959 30.4897 13.7442C30.5572 13.5969 30.637 13.333 30.6431 13.3085C30.6922 13.0507 30.6616 12.8052 30.5818 12.5782C30.5327 12.3695 30.3977 12.1731 30.2013 11.9951C30.0908 11.8969 29.9558 11.7987 29.8023 11.7128C29.5814 11.6085 29.3421 11.5655 29.1088 11.6023C29.1088 11.6023 29.1334 11.8846 29.0843 12.4124C28.9984 13.333 28.5381 13.9652 28.5381 13.9652C28.5381 13.9652 28.5442 13.9652 28.5504 13.9652L28.5381 13.9713Z" fill="black"/>
<path d="M23.4625 8.82854C23.4625 8.82854 24.1928 8.88991 24.7451 9.0863C24.9784 9.16609 25.1686 9.25201 25.3098 9.32565C25.3711 9.35634 25.4202 9.38703 25.4693 9.41158C25.6043 9.48522 25.6657 9.53432 25.6657 9.53432H25.6719C25.6719 9.53432 26.1321 9.0188 26.3776 8.491C26.3899 8.46031 26.4083 8.42963 26.4206 8.3928C26.4697 8.27006 26.5188 8.1289 26.5556 8.01843C26.5986 7.84659 26.6293 7.66248 26.6293 7.47222C26.6293 6.79713 26.3224 6.18955 25.8376 5.79064C25.8314 5.7845 25.8191 5.77836 25.8069 5.76609C25.4325 5.46537 24.9538 5.28125 24.4383 5.28125C24.3892 5.28125 24.3462 5.28125 24.2971 5.28739C24.3033 5.31194 24.3339 5.71699 24.2603 6.49641C24.1314 7.87114 23.4502 8.82241 23.4502 8.82241L23.4625 8.82854Z" fill="black"/>
<path d="M23.9472 10.9396C23.9472 10.9396 24.0331 11.3692 24.0822 11.5594H24.1374C24.4627 11.4306 25.101 11.2342 25.101 11.0255V10.3443C25.101 10.2215 24.9782 10.1049 24.7573 10.0006C24.3093 9.79193 23.4623 9.64463 22.4988 9.62622H21.9403C20.9461 9.63236 20.0562 9.78579 19.5959 10.0006C19.375 10.1049 19.2461 10.2215 19.2461 10.3443V11.0255C19.2461 11.2403 19.8905 11.4306 20.2158 11.5594H20.271C20.3201 11.3692 20.4122 10.9396 20.4122 10.9396C20.4122 10.9396 20.3446 10.9089 20.3262 10.8843C20.2894 10.7984 20.3569 10.7493 20.4797 10.6818C20.6024 10.6143 20.7988 10.5775 20.9645 10.5713C21.0688 10.9457 21.0811 11.5349 21.0627 12.0381C21.0197 13.0508 20.8295 14.3273 20.228 15.1926C20.4551 15.4136 20.7067 15.702 20.9645 16.0703C21.5844 14.8735 21.6826 13.5663 21.7378 12.2222C21.7623 11.6269 21.7378 10.9334 21.7378 10.4609C21.793 10.4609 21.9894 10.4363 22.1797 10.4363C22.3699 10.4363 22.5602 10.4609 22.6215 10.4609C22.6215 10.9334 22.597 11.6269 22.6215 12.2222C22.6768 13.5908 22.775 14.9226 23.4255 16.1316C23.6649 15.788 23.8919 15.5056 24.1129 15.2847C24.1313 15.2663 24.1436 15.2417 24.1558 15.2233C23.536 14.358 23.3396 13.063 23.2966 12.0381C23.2721 11.5349 23.2905 10.9457 23.3948 10.5713C23.5605 10.5775 23.7631 10.6143 23.8797 10.6818C24.0024 10.7493 24.0699 10.7984 24.0331 10.8843C24.0208 10.915 23.9472 10.9396 23.9472 10.9396Z" fill="black"/>
<path d="M32.343 20.5136C32.343 20.5136 32.343 20.5136 32.3368 20.5136C32.3245 20.5136 32.3184 20.5136 32.3061 20.5136H32.2877C32.2509 20.5136 32.2202 20.5197 32.1834 20.5259C31.8274 20.5504 31.4837 20.5259 31.1953 20.4093C31.0357 20.354 30.8946 20.262 30.7596 20.1699C30.7289 20.1454 30.3668 19.8262 30.2993 19.7649C30.0354 19.5194 29.5383 19.1573 29.0289 19.1082C28.452 19.0529 28.0837 19.2616 27.6664 19.4273C27.6296 19.4457 27.5989 19.4825 27.5928 19.5255C27.5928 19.5746 27.6173 19.6176 27.6603 19.636C27.6726 19.6421 27.691 19.6483 27.7094 19.6483C28.1206 19.6789 28.5134 19.7464 28.8816 19.8569C29.1578 19.9428 29.4278 20.0288 29.6426 20.1822C29.9249 20.3847 30.1704 20.6425 30.3361 20.7468C30.5448 20.8818 30.735 21.0107 30.9805 21.0598C31.2383 21.1028 31.5022 21.0844 31.7476 21.023C31.7599 21.023 31.7722 21.0168 31.7783 21.0107C31.8458 20.9923 31.9072 20.9677 31.9686 20.9432C32.0545 20.9064 32.1404 20.8696 32.2202 20.8266C32.2202 20.8266 32.2263 20.8266 32.2325 20.8266C32.2816 20.7959 32.3368 20.7714 32.3859 20.7345C32.4166 20.71 32.435 20.6732 32.4289 20.6363C32.4289 20.5872 32.3859 20.5443 32.3368 20.5381L32.343 20.5136Z" fill="black"/>
<path d="M30.7533 16.6901C30.7778 16.7699 30.8637 16.862 30.9619 16.9172C31.2688 17.0952 31.3792 17.3591 30.919 17.4143C30.5814 17.4511 30.2316 17.2302 28.9857 17.5739C28.2554 17.7764 27.3962 18.5129 27.0955 18.8504C27.0034 18.9547 26.9052 19.0775 26.8193 19.2064C26.5309 19.6237 26.5309 20.1822 26.8439 20.5872C27.028 20.8266 27.2366 20.98 27.298 21.023C28.3904 21.7656 29.4153 21.1518 29.532 21.0352C29.624 20.9432 29.6301 20.9125 29.6117 20.8879C29.6117 20.8879 29.6117 20.8879 29.6056 20.8879C29.6056 20.8879 29.2558 21.0721 28.7709 21.0721C28.4948 21.0721 28.2125 21.023 27.9792 20.9186C27.8074 20.8388 27.4146 20.6302 27.1814 20.2558C27.028 20.0165 27.0648 19.7035 27.2428 19.4825C27.4269 19.2616 27.6478 19.0529 27.8565 18.8995C28.3229 18.5558 28.863 18.3471 29.489 18.3349C29.5013 18.3349 29.5197 18.3349 29.532 18.3349C29.8449 18.3349 30.1457 18.3901 30.428 18.4822C30.5691 18.5313 30.7103 18.5865 30.8392 18.654C31.2381 18.8565 31.5879 19.1511 31.8518 19.5132C31.8518 19.5132 31.8518 19.5132 31.8579 19.5194C31.9623 19.3475 32.0727 19.0836 32.1709 18.7215C32.1894 18.6601 32.2078 18.5926 32.22 18.519C32.3612 17.9053 32.3182 16.4814 30.9681 16.4814C30.9435 16.4814 30.919 16.4937 30.8944 16.4999C30.7533 16.5367 30.7164 16.6165 30.741 16.6962L30.7533 16.6901Z" fill="black"/>
<path d="M8.5246 13.376C8.76395 13.6521 8.98489 13.8792 9.19355 14.1001C9.27334 14.1861 9.35312 14.2781 9.4329 14.364C9.70294 14.6832 9.88705 15.3583 9.05853 15.9904C8.94193 16.0763 8.83146 16.1561 8.70871 16.2175C8.58597 16.2789 8.44482 16.3279 8.27297 16.3586C8.27297 16.3586 8.26684 16.3586 8.2607 16.3586C9.19969 18.5435 10.6788 19.5254 10.6788 19.5254V19.5131C10.6849 19.5131 10.691 19.5254 10.691 19.5254C10.691 19.5254 10.4455 18.9117 10.5928 17.6659C10.6726 17.0153 10.8506 16.3648 10.8874 16.0272C10.9304 15.6222 10.8629 15.2478 10.6051 14.6832C10.2982 14.0081 10.1878 13.8117 10.0343 13.5662C9.73362 13.0814 9.16287 12.0687 9.16287 12.0687C9.16287 12.0687 9.34084 11.8846 9.62929 11.7435C9.80727 11.6576 10.0221 11.5962 10.2676 11.5962C10.9304 11.5962 11.1697 11.9828 11.3109 12.1547C11.3109 12.1669 11.2986 12.1792 11.2925 12.1915C11.139 12.5168 11.0531 13.5294 11.1881 14.2474C11.3477 15.1373 11.9062 15.7449 12.213 16.1193C12.213 16.1254 12.2499 16.1622 12.2499 16.1622C12.4708 15.9413 12.9188 15.8615 12.925 15.8615C12.925 15.8615 12.9127 15.4196 13.1398 15.0637C11.8571 14.7937 11.6546 14.1002 12.0412 12.6763C12.0412 12.664 12.0535 12.6518 12.0596 12.6395C12.2499 12.0012 12.434 11.8417 12.3112 11.2218C12.213 10.9763 11.851 10.6449 11.6362 10.4976C11.0654 10.111 10.2921 9.87163 9.65384 9.9821C9.45131 10.0189 9.24879 10.0864 9.05853 10.1908C8.48778 10.5038 8.0459 11.1298 8.0459 12.0503C8.0459 12.1608 8.05817 12.2651 8.07658 12.3695C8.11341 12.6763 8.22388 13.0261 8.5246 13.376Z" fill="black"/>
<path d="M17.5523 14.0204C17.5523 14.0204 18.0187 14.0695 18.3808 14.2106C18.8227 14.3825 18.9884 14.5298 18.9884 14.5298L19.0314 14.4868C19.0314 14.4868 19.3382 14.1431 19.5039 13.7872C19.5714 13.6399 19.6512 13.376 19.6574 13.3514C19.7065 13.0937 19.6758 12.8482 19.596 12.6211C19.5469 12.4125 19.4119 12.2161 19.2155 12.0381C19.105 11.9399 18.97 11.8417 18.8166 11.7558C18.5956 11.6514 18.3563 11.6085 18.1231 11.6453C18.1231 11.6453 18.1169 11.6453 18.1108 11.6453C18.1108 11.6453 18.1353 11.9276 18.0862 12.4554C18.0003 13.376 17.54 14.0081 17.54 14.0081L17.5523 14.0204Z" fill="black"/>
<path d="M16.5951 13.9776C16.6319 13.9776 16.6688 13.9653 16.7056 13.953C16.9572 13.8548 17.2886 13.3946 17.485 12.8422C17.6937 12.253 17.6323 11.7375 17.3868 11.5043C17.3009 11.4307 17.2027 11.3693 17.0922 11.3263C17.2272 11.2097 17.3132 11.044 17.3132 10.8538C17.3132 10.5592 17.1229 10.3198 16.8529 10.2462V9.98841H17.2886V9.63246H16.8529V9.07397H16.4969V9.63246H16.055V9.98841H16.4969V10.2462C16.233 10.3198 16.0428 10.5592 16.0428 10.8538C16.0428 11.044 16.1287 11.2097 16.2637 11.3263C16.2514 11.3263 16.2391 11.3325 16.233 11.3386C16.1655 11.3693 16.098 11.4061 16.0366 11.4552C15.7727 11.67 15.6684 12.1733 15.8218 12.7808C15.9875 13.4252 16.3373 13.953 16.5951 13.9837V13.9776Z" fill="black"/>
<path d="M13.7473 13.7381C13.8455 13.9529 13.9989 14.1615 14.1033 14.2966C14.1155 14.2904 14.1278 14.2843 14.1401 14.2782C14.9195 13.9713 15.6989 13.9652 15.6989 13.9652H15.7112C15.7112 13.9652 15.2509 13.3269 15.165 12.4124C15.1159 11.8785 15.1405 11.6023 15.1405 11.6023C14.9072 11.5655 14.6679 11.6085 14.447 11.7128C14.2935 11.7987 14.1585 11.8908 14.048 11.9951C13.8517 12.1731 13.7166 12.3695 13.6675 12.5782C13.5878 12.8052 13.5571 13.0507 13.6062 13.3085C13.6062 13.333 13.6921 13.5969 13.7596 13.7442L13.7473 13.7381Z" fill="black"/>
<path d="M16.5274 19.636C16.5274 19.636 16.5581 19.6299 16.5765 19.6238C16.6194 19.6054 16.644 19.5624 16.644 19.5133C16.644 19.4703 16.6133 19.4335 16.5704 19.4151C16.153 19.2494 15.7848 19.0407 15.2079 19.096C14.6924 19.1451 14.2014 19.5072 13.9375 19.7527C13.87 19.814 13.5079 20.1332 13.4772 20.1577C13.3422 20.2559 13.201 20.348 13.0415 20.3971C12.753 20.5075 12.4093 20.5382 12.0534 20.5137C12.0227 20.5137 11.9859 20.5075 11.9491 20.5014H11.9306C11.9306 20.5014 11.9122 20.5014 11.9 20.5014C11.9 20.5014 11.9 20.5014 11.8938 20.5014C11.8447 20.5075 11.8079 20.5505 11.8018 20.5996C11.8018 20.6364 11.814 20.6794 11.8447 20.6978C11.8938 20.7346 11.9429 20.7592 11.9981 20.7898C11.9981 20.7898 12.0043 20.7898 12.0104 20.7898C12.0902 20.8328 12.17 20.8758 12.262 20.9064C12.3234 20.931 12.3909 20.9555 12.4523 20.974C12.4646 20.974 12.4768 20.9801 12.483 20.9862C12.7346 21.0537 12.9985 21.066 13.2501 21.023C13.4956 20.974 13.6797 20.8451 13.8945 20.7101C14.0602 20.6057 14.3057 20.348 14.588 20.1454C14.8028 19.992 15.079 19.9061 15.3491 19.8202C15.7173 19.7097 16.1101 19.6422 16.5213 19.6115L16.5274 19.636Z" fill="black"/>
<path d="M11.998 18.5129C12.0164 18.5866 12.0286 18.6479 12.0471 18.7154C12.1452 19.0837 12.2619 19.3414 12.36 19.5133C12.36 19.5133 12.36 19.5133 12.3662 19.5071C12.6301 19.145 12.9799 18.8505 13.3788 18.6479C13.5138 18.5804 13.6489 18.5252 13.79 18.4761C14.0723 18.384 14.373 18.3288 14.686 18.3288C14.6983 18.3288 14.7167 18.3288 14.729 18.3288C15.355 18.3411 15.8951 18.5497 16.3615 18.8934C16.5702 19.0469 16.7911 19.2555 16.9752 19.4765C17.1593 19.6974 17.19 20.0104 17.0366 20.2497C16.8034 20.6241 16.4106 20.8328 16.2387 20.9126C16.0055 21.0169 15.7232 21.066 15.4471 21.066C14.9622 21.066 14.6185 20.8819 14.6124 20.8819C14.6124 20.8819 14.6124 20.8819 14.6063 20.8819C14.5878 20.9064 14.594 20.9432 14.686 21.0292C14.7965 21.1396 15.8214 21.7534 16.92 21.0169C16.9813 20.9739 17.19 20.8205 17.3741 20.5812C17.6871 20.1822 17.6871 19.6176 17.3987 19.2003C17.3128 19.0714 17.2146 18.9487 17.1225 18.8443C16.8218 18.5068 15.9626 17.7703 15.2323 17.5678C13.9864 17.2241 13.6366 17.4512 13.299 17.4082C12.8387 17.353 12.9492 17.0891 13.2561 16.9111C13.3543 16.8559 13.4402 16.77 13.4647 16.684C13.4893 16.6043 13.4586 16.5245 13.3113 16.4876C13.2868 16.4876 13.2622 16.4692 13.2377 16.4692C11.8875 16.4692 11.8445 17.8931 11.9857 18.5068L11.998 18.5129Z" fill="black"/>
<path d="M28.458 39.3794V39.3917C28.458 39.3917 28.4641 39.3917 28.4703 39.3917C28.4703 39.3917 28.4703 39.3794 28.458 39.3794Z" fill="black"/>
<path d="M22.8857 25.5891C22.9287 25.6811 23.1067 25.8223 23.1496 26.0985C23.1496 26.1291 23.8309 25.3804 23.8309 25.3804V24.6624L23.1067 24.9692L22.8857 25.5952V25.5891Z" fill="black"/>
<path d="M18.4668 44.4608C18.7921 44.3749 19.0928 44.2706 19.4119 44.1478C19.5715 44.0865 19.7249 44.019 19.8845 43.9392C20.0441 43.8594 20.1975 43.7673 20.3509 43.663C20.4982 43.5587 20.6394 43.4237 20.756 43.2764C20.8174 43.2027 20.8665 43.1229 20.9094 43.0309C20.9278 42.9879 20.9524 42.9388 20.9646 42.8959L20.9953 42.7793C21.0137 42.6872 20.9646 42.6013 20.8787 42.5829C20.848 42.5767 20.8112 42.5829 20.7805 42.589C20.7498 42.5951 20.7253 42.6135 20.7069 42.6381C20.6087 42.7547 20.5044 42.8345 20.3878 42.8959C20.2773 42.9572 20.1545 43.0002 20.0257 43.037C19.7618 43.1168 19.4733 43.1536 19.1726 43.1904C18.878 43.2273 18.5589 43.258 18.2704 43.2886C17.9758 43.3132 17.6813 43.3316 17.3805 43.3377L16.4477 43.3684C16.1224 43.3868 15.7849 43.4052 15.3982 43.4912C15.2509 43.528 15.0914 43.5709 14.9257 43.6507C14.8704 43.6753 14.8152 43.706 14.76 43.7367C14.5452 43.8717 14.3365 44.0865 14.2322 44.3381C14.1217 44.5897 14.1094 44.8352 14.1524 45.0439C14.2015 45.2587 14.2874 45.4367 14.4408 45.5962C14.5022 45.6576 14.5942 45.676 14.6679 45.6392C14.6924 45.6269 14.76 45.5717 14.76 45.5717C15.03 45.1359 15.6069 44.9027 15.7174 44.8782C16.1838 44.7677 16.8466 44.7432 17.491 44.645C17.8163 44.5959 18.1477 44.5345 18.4729 44.4486L18.4668 44.4608Z" fill="black"/>
<path d="M15.5332 42.6628C15.5332 42.7487 15.5946 42.8223 15.6805 42.8285C15.7173 42.8285 15.748 42.8223 15.7787 42.8039L15.8278 42.7671C15.9014 42.718 15.9751 42.675 16.0549 42.6382C16.2881 42.5339 16.5152 42.4971 16.7484 42.4909C17.0614 42.4787 17.3805 42.5216 17.7487 42.583C18.1476 42.6566 18.5895 42.6873 19.0253 42.6505C19.2462 42.6321 19.4671 42.5891 19.6942 42.5278C19.8047 42.4909 19.9213 42.4541 20.0379 42.3927C20.0379 42.3927 20.0379 42.3927 20.044 42.3927C20.1484 42.3314 20.3018 42.2577 20.3754 42.092C20.4061 42.0306 20.3754 41.9509 20.3141 41.9202C20.3018 41.9202 20.2957 41.914 20.2834 41.9079C20.2834 41.9079 19.8415 41.8281 19.6635 41.7729L19.105 41.6317C18.7184 41.5397 18.3563 41.4537 17.9451 41.3862C17.5094 41.3126 16.9877 41.3126 16.509 41.5028C16.4476 41.5274 16.3863 41.5519 16.331 41.5826C15.9198 41.7913 15.5639 42.1779 15.5332 42.6628Z" fill="black"/>
<path d="M16.1656 41.1099C16.1656 41.1099 16.4417 41.0117 16.5645 40.9749C16.5645 40.9749 15.0486 40.4226 15.9139 39.4468V39.4099C15.7666 39.3915 15.6194 39.4099 15.4905 39.459C15.3555 39.5143 15.2389 39.6002 15.1407 39.7229C14.7295 40.2323 15.2941 40.7908 15.3064 40.7969C15.2204 40.7908 15.0179 40.7601 14.932 40.754C14.5638 40.5024 13.9562 39.8825 14.8277 38.5753C14.8031 38.5753 14.7847 38.5753 14.7602 38.5753C14.6313 38.5753 14.5085 38.5937 14.3919 38.6428C14.3244 38.6673 14.2569 38.6919 14.1955 38.7226C13.7659 38.9312 13.4713 39.3363 13.4713 39.8089C13.4713 39.9991 13.5266 40.1832 13.6125 40.3428C13.6739 40.4594 13.7598 40.5637 13.858 40.6619C13.7905 40.6619 13.5143 40.6374 13.4468 40.619C13.0479 40.1587 12.606 39.2995 13.4591 38.293C13.4345 38.293 13.4161 38.293 13.3916 38.293C13.2627 38.293 13.1399 38.3114 13.0233 38.3605C12.9435 38.3912 12.876 38.4218 12.8085 38.4587C12.336 38.7287 12.1089 39.2442 12.1089 39.6677C12.1089 39.858 12.1764 40.1709 12.25 40.3428C12.8085 41.7114 15.4537 41.2941 16.1656 41.1161V41.1099Z" fill="black"/>
<path d="M29.6059 43.7491C29.5507 43.7123 29.4955 43.6877 29.4402 43.6632C29.2745 43.5834 29.115 43.5404 28.9677 43.5036C28.581 43.4116 28.2435 43.3993 27.9182 43.3809L26.9853 43.3502C26.6846 43.3379 26.3839 43.3256 26.0955 43.3011C25.807 43.2704 25.4879 43.2397 25.1933 43.2029C24.8987 43.1661 24.6041 43.1231 24.3402 43.0495C24.2113 43.0065 24.0886 42.9635 23.9781 42.9083C23.8615 42.8469 23.7572 42.7672 23.659 42.6506C23.6406 42.626 23.616 42.6137 23.5853 42.6015C23.5547 42.5892 23.524 42.583 23.4872 42.5953C23.4012 42.6137 23.3521 42.7058 23.3705 42.7917L23.4012 42.9144C23.4135 42.9574 23.4381 43.0065 23.4565 43.0495C23.4994 43.1354 23.5485 43.2152 23.6099 43.295C23.7265 43.4422 23.8677 43.5773 24.015 43.6816C24.1684 43.7859 24.3218 43.878 24.4814 43.9578C24.6348 44.0376 24.7944 44.1051 24.9539 44.1664C25.2731 44.2892 25.5677 44.3874 25.8991 44.4794C26.2305 44.5653 26.5557 44.6267 26.881 44.6758C27.5254 44.7679 28.1882 44.7986 28.6547 44.909C28.7651 44.9336 29.342 45.1668 29.6121 45.6025C29.6121 45.6025 29.6796 45.6578 29.7041 45.67C29.7778 45.7007 29.8698 45.6885 29.9312 45.6271C30.0846 45.4675 30.1705 45.2834 30.2196 45.0747C30.2626 44.8661 30.2503 44.6144 30.1399 44.369C30.0355 44.1173 29.8207 43.9025 29.6121 43.7675L29.6059 43.7491Z" fill="black"/>
<path d="M24.3095 42.3927C24.3095 42.3927 24.3095 42.3927 24.3156 42.3927C24.4322 42.4541 24.5488 42.4909 24.6593 42.5278C24.8864 42.5891 25.1073 42.6321 25.3282 42.6505C25.764 42.6873 26.212 42.6505 26.6048 42.583C26.973 42.5155 27.2921 42.4787 27.6051 42.4909C27.8322 42.4909 28.0654 42.5339 28.2986 42.6382C28.3723 42.675 28.4459 42.7119 28.5257 42.7671L28.5748 42.7978H28.581C28.581 42.7978 28.6423 42.8285 28.6792 42.8285C28.7651 42.8285 28.8326 42.7487 28.8264 42.6628C28.7958 42.1779 28.4398 41.7974 28.0286 41.5826C27.9672 41.5519 27.912 41.5213 27.8506 41.5028C27.3658 41.3126 26.8503 41.3126 26.4145 41.3862C26.0033 41.4537 25.6412 41.5397 25.2546 41.6317L24.6961 41.7729C24.5181 41.822 24.0763 41.9079 24.0763 41.9079C24.064 41.9079 24.0579 41.9079 24.0456 41.9202C23.9842 41.9509 23.9535 42.0245 23.9842 42.092C24.0579 42.2577 24.2113 42.3375 24.3156 42.3927H24.3095Z" fill="black"/>
<path d="M31.5512 38.4525C31.4836 38.4157 31.41 38.3789 31.3364 38.3543C31.2197 38.3052 31.097 38.2807 30.9681 38.2868C30.9436 38.2868 30.9252 38.2868 30.9006 38.2868C31.7537 39.2933 31.3118 40.1525 30.9129 40.6128C30.8454 40.6312 30.5692 40.6496 30.5017 40.6558C30.5999 40.5637 30.6858 40.4594 30.7472 40.3366C30.8331 40.1771 30.8883 39.993 30.8883 39.8027C30.8883 39.3301 30.5938 38.9251 30.1642 38.7164C30.1028 38.6857 30.0353 38.6612 29.9678 38.6366C29.8512 38.5875 29.7284 38.563 29.5995 38.5691C29.575 38.5691 29.5566 38.5691 29.532 38.5691C30.4035 39.8763 29.7959 40.4962 29.4277 40.7478C29.3418 40.754 29.1392 40.7847 29.0533 40.7908C29.0656 40.7785 29.6364 40.2262 29.219 39.7168C29.1208 39.594 29.0042 39.5081 28.8692 39.4529C28.7342 39.3976 28.5869 39.3854 28.4457 39.4038C28.4457 39.4038 28.4457 39.4099 28.4396 39.4038V39.4406C29.3049 40.4164 27.7891 40.9688 27.7891 40.9688C27.9118 41.0117 28.1696 41.1038 28.188 41.1099C28.8999 41.2879 31.545 41.7052 32.1035 40.3366C32.171 40.1648 32.2447 39.8518 32.2447 39.6615C32.2447 39.2381 32.0114 38.7226 31.545 38.4525H31.5512Z" fill="black"/>
<path d="M26.6233 29.9282C26.3471 29.4249 25.9666 29.0997 25.5002 29.026C25.2486 28.9892 24.997 29.026 24.7453 29.1365L24.6962 29.1549C24.506 29.2408 24.3219 29.3636 24.1439 29.517C23.4197 30.1491 22.7998 31.3213 22.5421 32.7206C22.2966 34.0585 22.4378 35.2982 22.8551 36.1145C23.1313 36.6607 23.5302 37.0228 24.015 37.0964C24.4937 37.1701 24.9908 36.9553 25.4388 36.5379C26.1323 35.8935 26.7215 34.752 26.967 33.4018C27.2186 32.021 27.0591 30.7383 26.611 29.922L26.6233 29.9282ZM23.3215 32.3094C23.5977 31.2538 24.0334 30.6708 24.0334 30.6708C24.2789 30.3087 24.5612 30.0448 24.8435 29.9036C25.0706 29.7748 25.3591 29.7625 25.6475 29.8914C25.7948 29.9589 25.9237 30.0632 26.0219 30.1859C26.0403 30.2166 26.0526 30.235 26.071 30.2596C26.0894 30.2964 26.1078 30.3332 26.1262 30.3701C26.2244 30.5664 26.2919 30.7751 26.341 31.0145C26.341 31.0451 26.3533 31.0697 26.3533 31.1004C26.4576 31.8307 26.4515 31.935 26.4453 32.6961C26.4453 32.739 26.4269 33.0275 26.4208 33.0704C26.384 33.3589 26.2735 33.9603 25.9359 34.7643C25.8378 35.0773 25.6045 35.3657 25.6107 35.3719C25.2179 36.0408 24.6042 36.4397 24.1807 36.3906C23.8677 36.3538 23.6897 36.1758 23.5854 36.0592C23.2908 35.7278 23.2663 35.5437 23.2233 35.3964C23.1251 35.0834 23.1374 34.9238 23.1251 34.7581C23.0453 33.9358 23.1374 33.3282 23.2294 32.7758C23.2417 32.7022 23.2785 32.5181 23.3031 32.3953C23.3031 32.3953 23.3092 32.3524 23.3215 32.3155" fill="black"/>
<path d="M23.3765 32.291C23.3826 32.2603 23.3887 32.2296 23.3949 32.2112L23.3765 32.291Z" fill="black"/>
<path d="M42.003 26.0248C41.9662 25.902 41.8803 25.8038 41.7759 25.7547C41.6716 25.6995 41.5489 25.6811 41.4261 25.7179H41.4077C40.8861 25.8775 40.3337 26.0432 39.7936 26.1659C39.5236 26.2334 39.2536 26.2948 38.9897 26.3562C38.7196 26.4114 38.4557 26.4605 38.1673 26.4973C37.6027 26.571 37.038 26.6385 36.4673 26.6876C36.1052 26.7183 35.7308 26.7428 35.3687 26.7612C35.4178 26.749 35.4731 26.7367 35.5283 26.7183C35.6879 26.6753 35.8413 26.6323 35.9947 26.5832C36.3016 26.4851 36.6023 26.3869 36.8969 26.2764C37.4922 26.0616 38.0691 25.8222 38.6398 25.5706C39.2167 25.3251 39.8182 25.0428 40.3521 24.6991C40.8861 24.3432 41.3954 23.9749 41.8619 23.5147C42.0092 23.3735 42.046 23.1464 41.9355 22.9623C41.8864 22.8764 41.8189 22.815 41.7391 22.7782C41.6041 22.7107 41.4445 22.7107 41.3095 22.7905L41.2911 22.8027C40.794 23.0912 40.2662 23.3858 39.7445 23.6374C39.2167 23.8952 38.7074 24.1468 38.1427 24.337C37.5781 24.5334 37.0074 24.7175 36.4366 24.8771C36.1543 24.9569 35.8658 25.0305 35.5835 25.098L35.3933 25.141C35.5344 25.0796 35.6756 25.0183 35.8106 24.9508C36.1236 24.7973 36.4182 24.6378 36.7066 24.4721C37.2897 24.1406 37.842 23.7786 38.3821 23.4103C38.9406 23.036 39.4929 22.6248 39.9778 22.1645C40.4626 21.6919 40.9045 21.2009 41.2911 20.6302C41.4077 20.4583 41.3954 20.2251 41.2481 20.0717C41.2052 20.0226 41.1561 19.9858 41.1009 19.9612C40.9413 19.8814 40.7388 19.906 40.5976 20.0349L40.5792 20.0471C40.1312 20.4522 39.6525 20.8695 39.1676 21.2378C38.6767 21.6121 38.198 21.9804 37.664 22.2872C37.5658 22.3486 37.4615 22.3977 37.3633 22.4591C36.9153 22.7107 36.4673 22.9562 36.0131 23.1771C35.9272 23.2201 35.8352 23.2569 35.7492 23.2999C35.5835 23.3735 35.4178 23.4471 35.2521 23.5147C35.2828 23.4962 35.3135 23.4717 35.3442 23.4533C35.5406 23.3183 35.7247 23.171 35.9027 23.0298C36.0009 22.95 36.0991 22.8703 36.1972 22.7905C36.7312 22.3363 37.2283 21.8576 37.7009 21.3728C37.7009 21.3666 37.7131 21.3605 37.7193 21.3544C38.2225 20.8388 38.6951 20.311 39.094 19.728C39.4868 19.1388 39.8427 18.5435 40.1189 17.8684C40.1987 17.6782 40.1373 17.4511 39.9593 17.3284C39.9593 17.3284 39.9593 17.3284 39.9532 17.3284C39.7507 17.1811 39.4622 17.2302 39.3211 17.4388L39.3088 17.4573C38.9467 17.9728 38.5416 18.5067 38.1182 18.9977C37.9893 19.145 37.8666 19.2923 37.7377 19.4396C37.437 19.7771 37.1301 20.1085 36.7987 20.4031C36.633 20.5504 36.4611 20.6916 36.2954 20.8327C35.9886 21.0905 35.6817 21.3421 35.3626 21.5753C35.4117 21.5139 35.4608 21.4464 35.5099 21.3851C35.7676 21.0291 36.0131 20.6609 36.2402 20.2988C36.3998 20.0471 36.5532 19.7894 36.7066 19.5316C36.9705 19.0836 37.216 18.6295 37.4247 18.163C37.5167 17.9544 37.6088 17.7396 37.6886 17.5248C37.9402 16.819 38.1427 16.1255 38.2532 15.3645C38.2839 15.1558 38.1611 14.9471 37.9586 14.8735C37.9586 14.8735 37.9586 14.8735 37.9525 14.8735C37.7193 14.7876 37.4554 14.9103 37.3756 15.1497V15.1742C37.1792 15.7143 36.946 16.2666 36.6944 16.8006C36.6575 16.8865 36.6207 16.9724 36.5778 17.0583C36.2954 17.6414 36.0009 18.206 35.6572 18.7461C35.6388 18.7768 35.6203 18.8136 35.5958 18.8443C35.338 19.2248 35.068 19.5869 34.7918 19.949C33.9449 20.8941 32.5149 21.8392 31.7417 22.2136C31.3673 22.3977 30.9806 22.6493 30.594 22.8334C30.594 22.8334 30.5817 22.8396 30.5756 22.8396C30.3178 22.9684 30.0907 23.1648 29.9619 23.4226C29.9312 23.4901 29.9005 23.5576 29.8759 23.6251C29.833 23.7479 29.8084 23.8829 29.8084 24.0179C29.8084 24.515 30.0785 24.9876 30.4835 25.1962C30.6185 25.2699 30.7658 25.3129 30.9254 25.319C30.95 25.319 30.9745 25.319 30.9991 25.319C31.1402 25.3067 31.2139 25.2453 31.2139 25.2453C31.2139 25.2453 31.1034 24.9569 31.2691 24.8219C31.2936 24.8035 31.3243 24.7912 31.355 24.7728C31.4287 24.736 31.5146 24.7175 31.6066 24.7175C31.6926 24.7175 31.7723 24.736 31.8398 24.7666C32.0546 24.8587 32.2081 25.0735 32.2081 25.3251C32.2081 25.632 31.9749 25.8897 31.6803 25.9266C31.5453 25.9818 31.2875 25.9879 31.1218 25.9879C30.7781 25.9879 30.4467 25.9511 30.1214 25.8897C29.6734 25.81 29.25 25.6688 28.851 25.4847C28.3662 25.2638 27.4824 24.6132 27.4947 24.5764C26.5803 23.7295 26.0034 22.5634 25.9543 21.2746C25.9543 21.2132 25.942 21.158 25.942 21.0966C25.942 20.9125 25.9543 20.71 25.9788 20.532C26.0157 20.2129 26.0893 19.8999 26.1875 19.5991C26.3655 19.0591 26.6355 18.5558 26.9792 18.1201C27.0099 18.0771 27.1694 17.9053 27.372 17.7089C27.3842 17.6966 27.3965 17.6843 27.4088 17.6721C27.4088 17.6721 27.4088 17.6721 27.4149 17.6659C27.6359 17.445 27.9059 17.1995 28.1391 17.0522C28.1207 17.0399 28.0962 17.0215 28.0716 16.997C28.0409 16.9663 28.0102 16.9356 27.998 16.9172C27.5806 16.8742 27.4272 16.6778 27.3597 16.506C27.3597 16.506 27.3597 16.4937 27.3597 16.4876C27.3597 16.4753 27.3474 16.4569 27.3413 16.4446C27.3167 16.3832 27.3229 16.193 27.329 16.1623C27.3597 16.0089 27.4518 15.8555 27.5315 15.7757C27.5684 15.7327 27.6113 15.6959 27.6481 15.6652C27.777 15.567 27.9182 15.5118 28.0716 15.4872C28.1084 15.4811 28.1453 15.4749 28.1882 15.4688H28.2005C28.5933 15.4258 28.9738 15.5977 29.1333 15.9966L28.8879 16.058C28.8081 15.8861 28.6731 15.8125 28.5196 15.8248C28.4705 15.8248 28.4153 15.8432 28.3539 15.8616C28.3171 15.8739 28.2864 15.8923 28.2619 15.9168C28.0102 16.1316 28.2312 16.6717 28.581 16.7085C28.6362 16.7085 28.6915 16.7085 28.7528 16.684C28.7528 16.684 28.7528 16.684 28.759 16.684C28.9124 16.6226 29.8821 16.3894 30.4651 16.2973C30.5756 16.2789 30.6738 16.2666 30.7536 16.2605C30.7536 16.2605 30.7536 16.2605 30.7597 16.2605C30.8579 16.0948 30.864 15.0208 30.0171 14.671C29.3481 14.3948 28.7651 14.3518 28.2373 14.3457C27.7586 14.3457 27.329 14.3948 26.881 14.493C25.1565 14.8735 24.107 15.8677 23.1496 18.0342C22.4991 19.3107 22.2658 20.5381 22.1738 20.8757C22.1738 20.8757 22.137 20.8757 22.0756 20.8757C21.9774 20.5136 21.7442 19.2984 21.1059 18.0342C20.1424 15.8739 19.0929 14.8735 17.3684 14.493C16.9265 14.3948 16.4846 14.3457 16.0059 14.3457C15.4781 14.3457 14.9012 14.3887 14.2261 14.671C13.3792 15.0208 13.3853 16.0948 13.4835 16.2605C13.4835 16.2605 13.4835 16.2605 13.4897 16.2605C13.5633 16.2605 13.6615 16.2789 13.7781 16.2973C14.3611 16.3894 15.3308 16.6226 15.4843 16.684C15.4843 16.684 15.4843 16.684 15.4904 16.684C15.5518 16.7085 15.607 16.7147 15.6622 16.7085C16.0427 16.6656 16.2759 16.015 15.8893 15.8616C15.8341 15.837 15.7788 15.8248 15.7236 15.8248C15.5702 15.8125 15.4352 15.8861 15.3554 16.058C15.3554 16.058 15.116 16.015 15.1037 15.9966C15.2572 15.5916 15.6438 15.4258 16.0366 15.4688H16.0489C16.0857 15.4688 16.1287 15.4811 16.1655 15.4872C16.368 15.524 16.5583 15.61 16.7117 15.7818C16.7915 15.8555 16.8835 16.0089 16.9142 16.1684C16.9204 16.193 16.9204 16.3894 16.9019 16.4508C16.9019 16.463 16.8897 16.4753 16.8835 16.4937C16.8835 16.4937 16.8835 16.506 16.8835 16.5121C16.816 16.684 16.6626 16.8804 16.2453 16.9233C16.2268 16.9417 16.1962 16.9724 16.1716 17.0031C16.1471 17.0277 16.1225 17.0522 16.1041 17.0583C16.3496 17.2179 16.638 17.4879 16.8713 17.715C17.0738 17.9175 17.2272 18.0894 17.264 18.1323C17.6077 18.5681 17.8778 19.0713 18.0557 19.6114C18.1539 19.9121 18.2276 20.2251 18.2644 20.5443C18.2828 20.7222 18.3012 20.9309 18.3012 21.115C18.3012 21.1764 18.2951 21.2378 18.2889 21.293C18.2889 21.4035 18.2767 21.5078 18.2644 21.6121C18.1478 22.1522 17.9084 23.0298 17.4604 23.7724C17.4359 23.8031 17.4175 23.8399 17.3929 23.8706H17.3991C17.2272 24.1345 17.0308 24.38 16.7976 24.5825C16.8099 24.6193 15.9261 25.2699 15.4413 25.4908C15.0424 25.6749 14.6189 25.8161 14.1709 25.8959C13.8456 25.9573 13.5142 25.9941 13.1705 25.9941C13.0048 25.9941 12.7471 25.9879 12.612 25.9327C12.3113 25.8897 12.0843 25.6381 12.0843 25.3313C12.0843 25.0796 12.2377 24.8648 12.4525 24.7728C12.5261 24.7421 12.6059 24.7237 12.6857 24.7237C12.7778 24.7237 12.8575 24.7421 12.9373 24.7789C12.968 24.7912 12.9987 24.8096 13.0232 24.828C13.1889 24.9569 13.0785 25.2515 13.0785 25.2515C13.0785 25.2515 13.1583 25.3128 13.2933 25.3251C13.3178 25.3251 13.3362 25.3313 13.3669 25.3251C13.5265 25.3251 13.6799 25.276 13.8088 25.2024C14.2139 24.9876 14.4839 24.515 14.4839 24.024C14.4839 23.8829 14.4593 23.754 14.4164 23.6313C14.3918 23.5638 14.3673 23.4901 14.3305 23.4287C14.2016 23.171 13.9745 22.9684 13.7167 22.8457C13.7167 22.8457 13.7045 22.8396 13.6983 22.8396C13.3117 22.6493 12.9312 22.3977 12.5507 22.2197C11.7774 21.8453 10.3474 20.9002 9.50049 19.9551C9.22432 19.5991 8.95429 19.2309 8.69652 18.8504C8.67811 18.8197 8.6597 18.789 8.63515 18.7522C8.29147 18.2183 7.99689 17.6475 7.71457 17.0645C7.67161 16.9786 7.64093 16.8926 7.59797 16.8067C7.34634 16.2728 7.11927 15.7143 6.92902 15.1804V15.1558C6.83696 14.9226 6.5792 14.7937 6.33985 14.8796C6.33985 14.8796 6.33985 14.8796 6.33371 14.8796C6.12504 14.9533 6.00844 15.1619 6.03912 15.3706C6.14346 16.1316 6.35212 16.8313 6.60374 17.5309C6.68353 17.7457 6.76945 17.9605 6.86764 18.1692C7.07631 18.6356 7.32179 19.0959 7.58569 19.5378C7.73912 19.7955 7.89255 20.0533 8.05212 20.3049C8.2792 20.6731 8.52468 21.0352 8.78244 21.3912C8.83154 21.4526 8.88064 21.5201 8.92974 21.5814C8.61674 21.3482 8.30374 21.0966 7.99689 20.8388C7.82504 20.6977 7.65934 20.5565 7.49364 20.4092C7.16223 20.1147 6.85537 19.7832 6.55465 19.4457C6.42577 19.2984 6.30302 19.1511 6.17414 19.0038C5.75068 18.5129 5.35176 17.9789 4.98353 17.4634L4.97125 17.445C4.8301 17.2425 4.54165 17.1934 4.33912 17.3345C4.33912 17.3345 4.33912 17.3345 4.33299 17.3345C4.15501 17.4573 4.09364 17.6843 4.17342 17.8746C4.44959 18.5497 4.80555 19.145 5.19833 19.7342C5.59725 20.3172 6.06981 20.845 6.57306 21.3605C6.57306 21.3605 6.58533 21.3728 6.59147 21.3789C7.07017 21.8638 7.56114 22.3425 8.09508 22.7966C8.19327 22.8764 8.29147 22.9562 8.38967 23.036C8.56764 23.1832 8.75176 23.3244 8.94815 23.4594C8.97883 23.4778 9.00952 23.5024 9.04021 23.5208C8.8745 23.4533 8.7088 23.3796 8.54309 23.306C8.45717 23.263 8.36512 23.2262 8.2792 23.1832C7.82504 22.9623 7.37703 22.723 6.92902 22.4652C6.83082 22.41 6.72649 22.3547 6.62829 22.2934C6.09436 21.9865 5.61566 21.6183 5.12468 21.2439C4.63371 20.8757 4.15501 20.4583 3.71313 20.0533L3.69472 20.041C3.55356 19.9121 3.35717 19.8937 3.19147 19.9674C3.13624 19.9919 3.08714 20.0287 3.04418 20.0778C2.90302 20.2374 2.89075 20.4706 3.00122 20.6363C3.38786 21.2132 3.83587 21.698 4.31458 22.1706C4.79941 22.637 5.35176 23.0421 5.91024 23.4165C6.45032 23.7908 7.0088 24.1468 7.58569 24.4782C7.87414 24.6439 8.17486 24.8035 8.48172 24.9569C8.61674 25.0244 8.7579 25.0858 8.89905 25.1471L8.7088 25.1042C8.42649 25.0367 8.13804 24.963 7.85573 24.8832C7.28497 24.7237 6.71421 24.5396 6.14959 24.3432C5.58497 24.1529 5.08172 23.9013 4.54779 23.6435C4.01999 23.3919 3.49833 23.0973 3.00122 22.8089L2.98281 22.7966C2.84779 22.7168 2.68208 22.7168 2.5532 22.7843C2.47342 22.8212 2.39977 22.8825 2.35681 22.9684C2.25248 23.1526 2.2893 23.3796 2.43046 23.5208C2.90302 23.9811 3.40627 24.3493 3.94021 24.7053C4.47414 25.049 5.07559 25.3313 5.65248 25.5767C6.22938 25.8284 6.80627 26.0677 7.39544 26.2825C7.69003 26.393 7.99075 26.4912 8.29761 26.5894C8.45104 26.6385 8.60447 26.6814 8.76403 26.7244C8.81927 26.7367 8.86837 26.7551 8.9236 26.7674C8.56151 26.749 8.19328 26.7244 7.82504 26.6937C7.26042 26.6446 6.68967 26.5832 6.12504 26.5035C5.8366 26.4666 5.5727 26.4175 5.30266 26.3623C5.03263 26.3009 4.76873 26.2396 4.49869 26.1721C3.95862 26.0493 3.41241 25.8836 2.88461 25.724H2.8662C2.74346 25.6811 2.62071 25.6995 2.51638 25.7547C2.41205 25.81 2.32613 25.902 2.2893 26.0248C2.22793 26.2273 2.31385 26.436 2.48569 26.5403C3.01349 26.8656 3.5597 27.1049 4.12432 27.3258C4.68281 27.5406 5.3088 27.6757 5.87956 27.7984C6.45645 27.9212 7.03948 28.0378 7.62252 28.136C8.15031 28.2219 8.6597 28.3017 9.21205 28.3569C8.88064 28.3999 8.54309 28.4367 8.20555 28.4674C7.66548 28.5226 7.12541 28.5656 6.58533 28.6024C6.45031 28.6147 6.3153 28.6147 6.18028 28.6208H5.79364L5.00808 28.6147C4.48028 28.6147 3.94021 28.5717 3.41855 28.541H3.40013C3.30808 28.541 3.21602 28.5594 3.14237 28.6024C3.01349 28.676 2.92143 28.811 2.9153 28.9706C2.90302 29.1793 3.0319 29.3634 3.22216 29.4248C3.78064 29.615 4.32685 29.7316 4.89761 29.8237C5.17992 29.8666 5.46837 29.8912 5.75681 29.9035C5.90411 29.9096 6.04526 29.9157 6.19255 29.9157H6.60988C7.16837 29.9341 7.72685 29.9341 8.28533 29.928C8.67198 29.928 8.7579 29.928 9.14454 29.9096L9.19364 30.0814C8.55537 30.284 8.11963 30.4129 7.47522 30.5908C6.97198 30.732 6.49941 30.824 6.0023 30.9284C5.51133 31.0388 5.00194 31.1248 4.51096 31.2291H4.49869C4.468 31.2414 4.43118 31.2475 4.4005 31.2659C4.20411 31.3457 4.0875 31.5605 4.13046 31.7753C4.17342 31.9778 4.33912 32.119 4.53551 32.1374C5.08172 32.1865 5.61566 32.1742 6.15573 32.1374C6.6958 32.1006 7.24201 31.9778 7.7514 31.8858C8.26692 31.7876 9.02793 31.6096 9.54346 31.5053L9.58642 31.6342C9.37161 31.7569 8.91133 32.0024 8.69652 32.119C8.48172 32.2356 8.27306 32.3461 8.05826 32.4504C7.84959 32.5547 7.63479 32.6529 7.41999 32.7634C7.41999 32.7634 7.41999 32.7634 7.41385 32.7634C6.98425 32.9843 6.54237 33.193 6.11891 33.4262H6.11277C5.89183 33.549 5.80591 33.8251 5.92865 34.0522C6.02685 34.2302 6.22324 34.3222 6.41349 34.2854C6.91674 34.1872 7.39544 34.0461 7.88028 33.8926C8.35898 33.7331 8.82541 33.5121 9.27956 33.3096C9.4023 33.2544 9.881 33.0518 9.99761 32.9966L10.0774 33.3771C10.0037 33.4262 9.73371 33.6165 9.73371 33.6165L9.20591 34.0706C8.85609 34.3775 8.53696 34.7212 8.2301 35.0771C8.06439 35.2735 8.08894 35.5619 8.2792 35.7277C8.42649 35.8504 8.62901 35.8688 8.78858 35.7829C8.78858 35.7829 8.78858 35.7829 8.79472 35.7829C9.21818 35.5619 9.6171 35.3165 9.99761 35.0464L10.3965 34.8132C10.3965 34.8132 10.6175 36.1388 10.6727 36.6851C10.8507 38.3912 10.8016 40.3489 10.9857 40.576C11.1391 40.7663 11.446 40.7233 11.716 40.7295C11.6976 40.6619 11.6915 40.6067 11.6731 40.5392C11.6731 40.5331 11.6731 40.5269 11.6731 40.5208C11.4767 39.6064 11.7467 38.9374 11.9185 38.6612V38.649C11.9185 38.649 11.937 38.5876 11.937 38.5753C11.8756 37.4952 11.7344 35.7461 11.4889 34.3897C11.0962 32.2295 10.4456 28.7619 10.2554 27.78C10.2431 27.7248 10.2676 27.6695 10.3045 27.6327C10.3474 27.5959 10.4027 27.5775 10.464 27.5959C11.1268 27.7616 12.2193 27.8598 12.9189 27.9089C13.4467 27.9457 14.6987 27.9396 15.9936 27.5406C15.4474 28.8356 15.1344 30.3147 15.1344 31.8919C15.1344 34.9789 16.3312 37.71 18.1601 39.3486C17.9453 39.3854 17.7857 39.4161 17.7366 39.4284C17.264 39.5941 16.8958 39.8334 16.6933 39.95C16.6933 39.95 16.6871 39.9562 16.681 39.9623C16.6687 39.9684 16.6503 39.9746 16.638 39.9807C16.5644 40.0175 16.5644 40.1035 16.5767 40.1832C16.6258 40.4042 16.7485 40.6865 16.8713 40.8522C16.8958 40.889 16.9265 40.9258 16.9694 40.9258C18.6756 41.0118 19.9337 41.1406 20.9402 41.7789C20.9402 41.7789 20.9463 41.7789 20.9525 41.7851C20.9832 41.8035 21.0077 41.8219 21.0323 41.8403C21.5048 42.2147 21.7012 42.9879 21.3084 43.5403C21.1734 43.6753 21.0384 43.8103 20.8972 43.9392C20.4308 44.3443 19.9214 44.6879 19.3875 44.9457C18.8536 45.2035 18.2951 45.3692 17.7305 45.449C17.1597 45.5533 16.5951 45.6269 15.8525 45.8049C15.8525 45.8049 15.8034 45.8233 15.785 45.8356C15.7236 45.8786 15.6868 45.9522 15.7052 46.0258C15.7113 46.0565 15.7297 46.0872 15.7481 46.1056C16.2944 46.6948 17.0983 46.928 17.8778 46.8851C18.4669 46.8421 19.0377 46.6703 19.5593 46.4186C19.7312 46.3327 19.903 46.2468 20.0626 46.1425C20.707 45.7435 21.2655 45.2219 21.6828 44.6082C21.6889 44.5959 21.7012 44.5836 21.7074 44.5713C21.7074 44.5775 21.7074 44.5836 21.7074 44.5897C21.6092 44.9212 21.2962 45.7926 21.0445 46.0811C20.7868 46.3757 20.5536 46.658 20.2835 46.8789C20.081 47.0446 19.8723 47.1858 19.633 47.3024C19.5532 47.3392 19.4734 47.376 19.3936 47.4128C19.0561 47.554 18.6633 47.6461 18.203 47.7443C18.203 47.7443 18.1601 47.7627 18.1417 47.7749C18.0803 47.8118 18.0496 47.8793 18.0619 47.9529C18.0741 47.9959 18.0926 48.0327 18.1294 48.0573C18.5406 48.3457 19.0561 48.4869 19.59 48.45C19.8601 48.4316 20.1301 48.3703 20.3879 48.2659C20.6395 48.1616 20.8788 48.0204 21.0875 47.8486C21.155 47.7934 21.2164 47.7258 21.2778 47.6645C21.3944 47.8977 21.5232 48.137 21.6092 48.3703C21.7258 48.6526 21.824 48.9287 21.9774 49.211C22.0142 49.2724 22.0879 49.3031 22.1185 49.297C22.1185 49.297 22.2413 49.2724 22.272 49.211C22.4254 48.9287 22.5359 48.6526 22.6525 48.3703C22.7445 48.137 22.8673 47.9038 22.9839 47.6645C23.0453 47.7258 23.1005 47.7934 23.1741 47.8486C23.3828 48.0204 23.6222 48.1616 23.8738 48.2659C24.1315 48.3703 24.4016 48.4378 24.6716 48.45C25.2055 48.4807 25.7211 48.3457 26.1323 48.0573C26.163 48.0327 26.1875 47.9959 26.1998 47.9529C26.2182 47.8793 26.1814 47.8118 26.12 47.7749C26.1016 47.7627 26.0832 47.7504 26.0586 47.7443C25.5983 47.6461 25.2055 47.554 24.868 47.4128C24.7821 47.3822 24.7023 47.3453 24.6287 47.3024C24.3954 47.1858 24.1806 47.0446 23.9781 46.8789C23.7081 46.658 23.4749 46.3757 23.2171 46.0811C22.9655 45.7926 22.6463 44.9212 22.5543 44.5897C22.5543 44.5836 22.5543 44.5775 22.5543 44.5713C22.5604 44.5836 22.5727 44.5959 22.5788 44.6082C22.9962 45.2219 23.5546 45.7435 24.1991 46.1425C24.3586 46.2406 24.5305 46.3327 24.7023 46.4186C25.224 46.6703 25.7947 46.836 26.3839 46.8851C27.1633 46.928 27.9673 46.6948 28.5135 46.1056C28.5319 46.0811 28.5503 46.0565 28.5565 46.0258C28.5749 45.9522 28.538 45.8786 28.4767 45.8356C28.4583 45.8233 28.4337 45.811 28.4092 45.8049C27.6666 45.6269 27.1019 45.5533 26.5312 45.449C25.9666 45.3692 25.4081 45.2035 24.8741 44.9457C24.3402 44.6879 23.8308 44.3443 23.3644 43.9392C23.2294 43.8103 23.0882 43.6814 22.9532 43.5403C22.5666 42.9879 22.7568 42.2147 23.2294 41.8403C23.2539 41.8219 23.2846 41.8035 23.3092 41.7851C23.3092 41.7851 23.3153 41.7851 23.3214 41.7789C24.3279 41.1406 25.5861 41.0118 27.2922 40.9258C27.3352 40.9258 27.3658 40.889 27.3904 40.8522C27.5131 40.6865 27.6359 40.4103 27.685 40.1832C27.7034 40.1035 27.6972 40.0237 27.6236 39.9807C27.6113 39.9746 27.5929 39.9684 27.5806 39.9623C27.5806 39.9623 27.5684 39.9562 27.5684 39.95C27.3597 39.8273 26.9915 39.5941 26.5189 39.4284C26.4759 39.4161 26.3225 39.3854 26.12 39.3547C27.9489 37.7161 29.1518 34.9851 29.1518 31.8919C29.1518 30.3147 28.8388 28.8356 28.2864 27.5468C29.5752 27.9396 30.8211 27.9396 31.3427 27.9089C32.0485 27.8598 33.1348 27.7616 33.7976 27.5959C33.859 27.5836 33.9142 27.5959 33.9572 27.6327C33.994 27.6695 34.0124 27.7248 34.0063 27.78C33.8222 28.7619 33.1655 32.2233 32.7727 34.3897C32.5272 35.7461 32.3799 37.4952 32.3247 38.5753C32.3247 38.5876 32.337 38.6428 32.3431 38.649V38.6612C32.5088 38.9374 32.785 39.6125 32.5886 40.5208C32.5886 40.5269 32.5886 40.5331 32.5886 40.5392C32.5763 40.6006 32.564 40.6619 32.5456 40.7295C32.8218 40.7233 33.1225 40.7663 33.2759 40.576C33.4601 40.3489 33.411 38.3851 33.5889 36.6851C33.6442 36.1388 33.8651 34.8193 33.8651 34.8132L34.264 35.0464C34.6445 35.3165 35.0435 35.5619 35.4669 35.7829C35.4669 35.7829 35.4669 35.7829 35.4731 35.7829C35.6326 35.8688 35.8352 35.8504 35.9824 35.7277C36.1788 35.5619 36.1972 35.2735 36.0315 35.0771C35.7247 34.715 35.3994 34.3775 35.0557 34.0706L34.5279 33.6165C34.5279 33.6165 34.2579 33.4262 34.1842 33.3771L34.264 32.9966C34.3868 33.0518 34.8593 33.2544 34.9821 33.3096C35.4362 33.506 35.9027 33.7331 36.3814 33.8926C36.8662 34.0461 37.3449 34.1872 37.8481 34.2854C38.0384 34.3222 38.2409 34.2363 38.333 34.0522C38.4557 33.8313 38.3698 33.5551 38.1489 33.4323H38.1427C37.7193 33.1991 37.2774 32.9843 36.8478 32.7634C36.8478 32.7634 36.8478 32.7634 36.8416 32.7634C36.6268 32.6591 36.4182 32.5547 36.2034 32.4504C35.9886 32.3461 35.7738 32.2417 35.5651 32.119C35.3503 32.0024 34.89 31.7569 34.6752 31.6342L34.7182 31.5053C35.2337 31.6096 35.9886 31.7937 36.5102 31.8858C37.0258 31.984 37.5658 32.1006 38.1059 32.1374C38.646 32.1742 39.1799 32.1865 39.7261 32.1374C39.9225 32.119 40.0882 31.9778 40.1312 31.7753C40.1741 31.5605 40.0575 31.3457 39.8611 31.2659C39.8305 31.2536 39.7998 31.2414 39.763 31.2352H39.7507C39.2597 31.1309 38.7503 31.045 38.2593 30.9345C37.7622 30.8302 37.2897 30.7381 36.7864 30.597C36.142 30.419 35.7063 30.284 35.068 30.0876L35.1171 29.9157C35.5037 29.928 35.5897 29.928 35.9763 29.9342C36.5348 29.9403 37.0933 29.9341 37.6518 29.928H38.0691C38.2164 29.9219 38.3637 29.9157 38.5048 29.9096C38.7933 29.8973 39.0817 29.8728 39.364 29.8298C39.9348 29.7378 40.481 29.6212 41.0395 29.4309C41.2297 29.3634 41.3586 29.1854 41.3463 28.9767C41.3402 28.8172 41.2481 28.6822 41.1193 28.6085C41.0456 28.5656 40.9536 28.541 40.8615 28.5471H40.8431C40.3214 28.5778 39.7814 28.6147 39.2536 28.6208L38.468 28.6331H38.0814C37.9402 28.6208 37.8113 28.6147 37.6763 28.6085C37.1362 28.5717 36.5962 28.5287 36.0561 28.4735C35.7185 28.4428 35.381 28.3999 35.0496 28.363C35.6019 28.3078 36.1113 28.228 36.6391 28.1421C37.2222 28.0439 37.8052 27.9273 38.3821 27.8045C38.9528 27.6879 39.5788 27.5468 40.1373 27.332C40.7081 27.111 41.2481 26.8717 41.7759 26.5464C41.9478 26.4421 42.0337 26.2334 41.9723 26.0309L42.003 26.0248ZM22.1554 39.95C22.1554 39.95 22.137 39.95 22.1308 39.95C20.0994 39.9378 18.3012 38.5753 17.2149 36.5009C17.7182 35.6479 18.7676 33.7822 18.7676 33.7822C18.8658 34.1627 19.4489 36.6912 19.4489 36.6912C19.4489 36.6912 18.7124 37.0103 19.0868 37.2374C19.4611 37.4645 20.2528 37.2988 20.2528 37.2988C20.2528 37.2988 20.4554 37.4829 20.6702 37.6302C20.9279 37.8266 21.2225 37.9677 21.5355 38.0536C21.6521 38.1027 21.738 38.1273 21.738 38.1273C21.738 38.1273 21.6644 38.4771 21.7749 38.6551C21.8178 38.7287 21.8608 38.7901 22.0019 38.7901C22.0449 38.7901 22.0817 38.7778 22.1247 38.7656C22.2474 38.7226 22.364 38.6244 22.4315 38.5508C22.6034 38.3728 22.6648 38.25 22.7875 38.0782C22.7875 38.0721 22.7875 38.0598 22.7998 38.0475C23.1005 37.9677 23.4196 37.8573 23.7265 37.4768C22.99 37.1883 22.364 36.5132 22.1247 35.4024C22.0388 34.9973 21.9897 34.5555 21.9835 34.089C21.9835 33.5981 22.0203 33.0887 22.1124 32.5609C22.1124 32.5425 22.1185 32.524 22.1247 32.5056C22.4684 30.6829 23.6037 29.2897 23.9352 29.1731C23.8308 28.9399 23.8738 28.3446 23.0821 28.0193C22.9102 27.9457 22.3824 27.915 22.3272 27.6757C22.5788 27.5038 22.7691 27.1847 22.812 26.8042C22.8734 26.2887 22.6586 25.8284 22.3088 25.6627C22.3947 25.4724 22.5972 25.2147 22.5972 25.2147L22.1983 24.7912L22.1185 24.8342L21.6889 25.0674C21.6889 25.0674 21.8178 25.4417 21.8178 25.6381C21.4741 25.7547 21.2225 26.0186 21.1611 26.4973C21.1305 26.7305 21.2593 27.0926 21.5294 27.3627C21.6705 27.5038 21.7012 27.6266 21.6153 27.7186C21.4189 27.915 21.0139 27.8659 20.8052 28.1666C20.6763 28.3569 20.5167 28.7988 20.5167 28.7988C20.4185 28.9952 19.8417 30.376 19.5593 30.8609C19.4857 30.9836 19.2034 31.4316 19.2034 31.4316C19.2034 31.4316 19.0806 31.5175 18.9395 31.628C18.8229 31.7201 18.7001 31.8305 18.6265 31.9226C18.4117 32.1988 18.4976 32.702 18.6265 32.9107L16.951 35.967C16.8835 35.8258 16.8528 35.7522 16.8528 35.7522C16.3803 34.6045 16.1164 33.2851 16.1164 31.8858C16.1164 27.602 18.6265 24.0916 21.781 23.8399H22.5113C22.8611 23.8706 23.1987 23.9381 23.5301 24.0425C23.7019 24.0977 23.8738 24.1591 24.0395 24.2327C26.433 25.3006 28.1698 28.3262 28.1698 31.8858C28.1698 36.3352 25.4694 39.95 22.1431 39.95H22.1554ZM21.5355 31.2168C21.5355 31.2168 20.3633 31.6587 19.8048 31.8858L20.9463 29.9035C20.9463 29.9035 21.0016 30.1796 21.4619 30.376C21.4496 30.4497 21.5294 31.2168 21.5294 31.2168H21.5355Z" fill="black"/>
<path d="M20.4309 3.04106C20.4309 3.04106 20.4739 3.03493 20.4923 3.02879C20.5782 3.16994 20.7193 3.26814 20.8973 3.26814C21.0692 3.26814 21.2226 3.17608 21.3024 3.02879H21.9406V3.44612C21.5356 3.54431 21.2287 3.91254 21.2287 4.34828C21.2287 4.5815 21.3208 4.7963 21.4619 4.95587C21.3085 5.0111 21.1674 5.09088 21.0508 5.20135C20.6825 5.55117 20.5905 6.29991 20.9035 7.17753C21.1244 7.78511 21.4435 8.28836 21.7504 8.58294C21.8915 8.73023 22.0266 8.79774 22.1554 8.79774H22.1861C22.315 8.79774 22.45 8.73023 22.5912 8.58294C22.898 8.28836 23.2233 7.78511 23.4381 7.17753C23.7511 6.29991 23.6591 5.55731 23.2908 5.20135C23.1681 5.09088 23.0208 5.00496 22.8674 4.94973C23.0024 4.79016 23.0944 4.57536 23.0944 4.34828C23.0944 3.91254 22.7937 3.54431 22.3825 3.44612V3.02879H23.0208C23.0944 3.16994 23.2479 3.26814 23.4258 3.26814C23.6038 3.26814 23.7573 3.16994 23.837 3.01652C23.8554 3.01652 23.8739 3.02879 23.8923 3.02879C24.015 3.02879 24.1132 2.93059 24.1132 2.80785C24.1132 2.68511 24.015 2.58691 23.8923 2.58691C23.88 2.58691 23.8616 2.58691 23.8432 2.59305C23.7634 2.44576 23.61 2.34142 23.432 2.34142C23.2601 2.34142 23.1067 2.43962 23.0269 2.58078H22.3887V1.73998C22.536 1.65406 22.628 1.51291 22.628 1.33493C22.628 1.15695 22.5237 0.991244 22.3702 0.917598C22.3825 0.893049 22.3825 0.874638 22.3825 0.850089C22.3825 0.727345 22.2843 0.62915 22.1616 0.62915C22.0388 0.62915 21.9406 0.733483 21.9406 0.850089C21.9406 0.874638 21.9468 0.899187 21.9591 0.917598C21.8056 0.991244 21.7013 1.15081 21.7013 1.33493C21.7013 1.51904 21.7934 1.6602 21.9406 1.73998V2.58078H21.3024C21.2165 2.43962 21.0692 2.34142 20.8973 2.34142C20.7132 2.34142 20.5475 2.45189 20.48 2.60532C20.4616 2.60532 20.4493 2.60532 20.4309 2.60532C20.3082 2.60532 20.21 2.69738 20.21 2.82626C20.21 2.95514 20.3143 3.0472 20.4309 3.0472V3.04106Z" fill="black"/>
<path d="M26.3654 32.5118C26.2673 32.4197 26.1568 32.3829 26.0586 32.3829C26.1138 32.2663 26.1506 32.1006 26.1138 31.984C26.1016 31.9533 26.0831 31.9164 26.0586 31.8919C25.9236 31.7201 25.8131 31.6832 25.7579 31.671C25.721 31.6648 25.5431 31.6464 25.451 31.7692L25.4387 31.6157C25.3651 31.6771 25.2976 31.8735 25.2792 31.9226C25.2423 32.0392 25.1626 32.3276 25.1626 32.3276C25.3835 31.9778 25.5062 31.9349 25.6965 31.8858C25.5308 32.0024 25.3958 32.2663 25.3221 32.5056L25.764 32.211L25.6658 32.1435C25.721 32.0576 25.7763 32.0208 25.8683 32.076C25.899 32.0944 25.9236 32.1312 25.9297 32.1803C25.9297 32.2172 25.9297 32.3154 25.8438 32.432L25.046 33.1193C24.9846 33.1684 24.9662 33.2175 24.9723 33.3832C24.9723 33.4385 25.0275 33.4998 25.1319 33.4016L25.9849 32.6406C26.0279 32.6038 26.0893 32.6406 26.1077 32.6652C26.1568 32.7388 26.1322 32.8861 26.0034 33.0764L25.9297 32.9107C25.8561 33.0089 25.721 33.2544 25.6106 33.3771C25.6106 33.3771 25.8315 33.3955 26.0095 33.2605C26.0586 33.2237 26.0954 33.1868 26.1322 33.15C25.9911 33.5121 25.6658 33.7699 25.6658 33.7699C25.6658 33.7699 25.8867 33.7453 26.0034 33.684C26.1261 33.6226 26.2427 33.5428 26.3409 33.4323L26.1813 33.3771C26.2611 33.2666 26.39 33.1316 26.4452 32.9045C26.4882 32.7266 26.4636 32.5977 26.3777 32.5118H26.3654Z" fill="black"/>
<path d="M24.5487 32.5547L24.653 32.0208L24.5119 32.1313C24.5119 32.1313 24.4076 31.984 24.3707 31.9472C24.2296 31.7937 24.0946 31.7262 23.9534 31.7508C23.7938 31.7815 23.757 31.8919 23.5668 31.8367C23.5729 31.984 23.4256 32.0392 23.3458 32.162C23.266 32.2786 23.266 32.432 23.3458 32.6223C23.3642 32.6714 23.4624 32.8309 23.4624 32.8309L23.2783 32.8862L23.8552 33.0519C23.8552 32.9905 23.7877 32.6038 23.7877 32.6038L23.6527 32.702C23.5975 32.6345 23.579 32.5916 23.5422 32.5302C23.487 32.4381 23.4563 32.3645 23.4808 32.3031C23.5054 32.2479 23.5975 32.2417 23.6466 32.2356L24.291 33.2482C24.3216 33.3096 24.383 33.3096 24.4014 33.2728C24.4628 33.1501 24.4628 33.015 24.4382 32.9843L23.8675 32.1067C23.892 32.0638 23.9534 32.0085 24.0025 32.0024C24.0823 31.9901 24.1191 32.0085 24.1989 32.076C24.2541 32.119 24.3032 32.1988 24.3278 32.2295L24.1743 32.2908C24.2848 32.3706 24.4812 32.4995 24.5426 32.5547H24.5487Z" fill="black"/>
<path d="M24.6591 30.732C24.745 30.8547 24.8985 31.0143 24.966 31.0818C24.966 31.0818 24.8678 31.2045 24.8494 31.2291C24.788 31.3334 25.0519 31.3702 25.0703 31.3764C25.101 31.3764 25.3526 31.4316 25.3281 31.315C25.3281 31.2843 25.2544 31.1431 25.2544 31.1431C25.3403 31.1063 25.5551 31.002 25.6779 30.9161C25.6963 30.9038 25.7331 30.8731 25.7454 30.8608C25.9847 30.5663 25.905 30.376 25.905 30.376L25.4569 30.6522C25.414 30.6767 25.3956 30.6522 25.3956 30.6522C25.4324 30.6276 25.4876 30.4926 25.4999 30.4619C25.5183 30.4067 25.4999 30.3699 25.4324 30.3576C25.371 30.3453 25.3465 30.3637 25.3465 30.3637C25.3587 30.3392 25.3587 30.3392 25.3649 30.333C25.3649 30.333 25.3649 30.3269 25.371 30.3208C25.371 30.3146 25.371 30.3085 25.3772 30.2962C25.3772 30.2962 25.3772 30.2962 25.3772 30.2901C25.3772 30.2287 25.3281 30.1735 25.2605 30.1735C25.2114 30.1735 25.1685 30.2042 25.1562 30.2533C25.1562 30.2533 25.1562 30.2533 25.1562 30.2594C25.1562 30.2839 25.1501 30.2655 25.1562 30.333C25.1562 30.333 25.1378 30.3085 25.0764 30.2962C25.0089 30.2839 24.9905 30.3146 24.9905 30.3699C24.9905 30.4067 24.9782 30.5172 25.0089 30.5908C25.0089 30.5908 24.9782 30.6092 24.9476 30.5663L24.6223 30.1489C24.6223 30.1489 24.4811 30.2962 24.6039 30.6583C24.61 30.6767 24.6346 30.7197 24.6468 30.7381L24.6591 30.732Z" fill="black"/>
<path d="M24.1926 34.1933C24.2417 34.1442 24.2724 34.0829 24.2846 34.0153L24.3092 33.8865C24.3215 33.8128 24.2417 33.776 24.1864 33.8251L23.4377 34.537L23.4193 34.5554C23.4193 34.5554 23.3825 34.5431 23.364 34.5431C23.3334 34.5431 23.2965 34.5431 23.2659 34.5493C23.229 34.5616 23.1983 34.58 23.1677 34.6045C23.0572 34.7088 23.0326 34.893 23.1186 35.0218C23.1615 35.0832 23.2229 35.1262 23.2904 35.1323C23.3456 35.1384 23.4009 35.1262 23.4438 35.0955C23.4561 35.0893 23.4684 35.0771 23.4807 35.0709C23.5482 35.0096 23.6034 34.8868 23.5727 34.7886L24.1803 34.1995L24.1926 34.1933ZM23.3211 34.9666C23.2536 34.9666 23.2045 34.9114 23.2045 34.85C23.2045 34.7886 23.2597 34.7334 23.3211 34.7334C23.3825 34.7334 23.4377 34.7886 23.4377 34.85C23.4377 34.9114 23.3825 34.9666 23.3211 34.9666Z" fill="black"/>
<path d="M25.5982 34.807C25.5982 34.807 25.543 34.807 25.5185 34.8131L24.9661 33.9417C24.9293 33.8803 24.8556 33.8926 24.8434 33.9601L24.825 34.0337C24.8065 34.1258 24.7943 34.1258 24.8863 34.2976L25.3343 34.9788C25.2914 35.0832 25.2975 35.2059 25.3589 35.298C25.4019 35.3594 25.4632 35.4023 25.5369 35.4084C25.6105 35.4146 25.678 35.39 25.7333 35.3409C25.8437 35.2366 25.8683 35.0464 25.7824 34.9175C25.7394 34.8561 25.678 34.8131 25.6044 34.807H25.5982ZM25.5614 35.2182C25.4939 35.2182 25.4448 35.163 25.4448 35.1016C25.4448 35.0402 25.5 34.985 25.5614 34.985C25.6228 34.985 25.678 35.0402 25.678 35.1016C25.678 35.163 25.6228 35.2182 25.5614 35.2182Z" fill="black"/>
<path d="M24.3768 35.7215C24.5425 34.8439 24.966 32.5548 24.9721 32.5363C25.0028 32.3522 25.1072 31.8551 25.1317 31.5728C25.1501 31.4685 24.9783 31.401 24.9414 31.5483C24.8924 31.7508 24.7696 32.2786 24.7266 32.4811C24.7266 32.4811 24.2664 34.7887 24.0884 35.6724C24.0761 35.7277 24.0516 35.7706 24.0209 35.8136C24.0025 35.8443 23.984 35.8811 23.9779 35.9179C23.9595 36.0468 24.0331 36.1634 24.1498 36.1818C24.2664 36.2002 24.3707 36.1143 24.3952 35.9854C24.3952 35.9548 24.3952 35.9241 24.3952 35.8995C24.383 35.8381 24.3768 35.7768 24.3891 35.7154L24.3768 35.7215Z" fill="black"/>
<path d="M25.5721 34.4544L24.9631 34.9108C24.9441 34.925 24.9402 34.9519 24.9545 34.9709L25.0134 35.0495C25.0276 35.0685 25.0545 35.0723 25.0735 35.0581L25.6825 34.6017C25.7015 34.5875 25.7053 34.5605 25.6911 34.5416L25.6322 34.463C25.618 34.444 25.591 34.4401 25.5721 34.4544Z" fill="black"/>
</g>
<defs>
<clipPath id="clip0_246_4622">
<rect width="170" height="49.0975" fill="white" transform="translate(0 0.451172)"/>
</clipPath>
</defs>
</svg>
