<svg width="128" height="70" viewBox="0 0 128 70" fill="none" xmlns="http://www.w3.org/2000/svg">
<path d="M20.3021 11.6267C31.5047 5.51326 46.9162 1.7364 64.0001 1.7364C81.084 1.7364 96.5275 5.51326 107.698 11.6267C118.709 17.652 125.518 25.9179 125.518 35C125.518 44.0821 118.709 52.348 107.698 58.3733C96.4955 64.4867 81.084 68.2636 64.0001 68.2636C46.9162 68.2636 31.4727 64.4867 20.3021 58.3733C9.29159 52.348 2.48203 44.0821 2.48203 35C2.48203 25.9179 9.29159 17.652 20.3021 11.6267ZM64.0001 0C46.6361 0 30.8965 3.86488 19.4779 10.1063C7.91527 16.4358 0.785645 25.2378 0.785645 35C0.785645 44.7622 7.93928 53.5642 19.5099 59.8937C30.9205 66.1351 46.6681 70 64.0321 70C81.3961 70 97.1357 66.1351 108.554 59.8937C120.085 53.5642 127.215 44.7622 127.215 35C127.215 25.2378 120.061 16.4358 108.49 10.1063C97.0797 3.86488 81.3321 0 63.9681 0" fill="#B88A57"/>
<path fill-rule="evenodd" clip-rule="evenodd" d="M18.9974 34.9439L20.5497 30.5909H22.5582L20.1576 37.1444C19.9028 37.9371 19.516 38.6811 19.0134 39.3449C18.8021 39.5965 18.5331 39.7934 18.2294 39.9188C17.9257 40.0442 17.5962 40.0943 17.269 40.0651C16.973 40.041 16.6805 39.9847 16.3968 39.897V38.3687C16.5609 38.4159 16.7302 38.4428 16.9009 38.4487C17.0265 38.4571 17.1525 38.4394 17.2709 38.3967C17.3894 38.354 17.4977 38.2872 17.5891 38.2006C17.8034 37.9278 17.9612 37.615 18.0532 37.2804L14.7084 30.6309H16.8449L18.9974 34.9439ZM25.959 35.256H26.8552C27.3006 35.286 27.7424 35.1585 28.1035 34.8959C28.2604 34.7499 28.3829 34.5707 28.4618 34.3713C28.5407 34.172 28.5741 33.9575 28.5596 33.7436C28.6022 32.6767 28.0314 32.1433 26.8472 32.1433H25.967L25.959 35.256ZM25.959 36.8563V39.865H23.9265V30.5909H26.7752C27.8344 30.5277 28.8896 30.7693 29.8158 31.2871C30.1929 31.5733 30.4871 31.9545 30.6685 32.3918C30.8498 32.829 30.9118 33.3066 30.8481 33.7756C30.8481 35.8134 29.5918 36.8323 27.0792 36.8323L25.959 36.8563ZM37.9617 32.1513H34.3929V39.865H32.3684V30.5909H37.9697L37.9617 32.1513ZM42.8508 34.9599L44.4032 30.6069H46.3956L43.9951 37.1604C43.7399 37.9529 43.353 38.6968 42.8508 39.3609C42.6395 39.6125 42.3706 39.8094 42.0669 39.9348C41.7632 40.0602 41.4337 40.1104 41.1064 40.0811C40.8104 40.0572 40.5179 40.0008 40.2342 39.913V38.3847C40.3983 38.432 40.5676 38.4589 40.7383 38.4647C40.8709 38.4714 41.0032 38.4491 41.1262 38.3993C41.2492 38.3495 41.3599 38.2736 41.4505 38.1766C41.6649 37.9038 41.8226 37.591 41.9146 37.2564L38.5698 30.6069H40.7063L42.8508 34.9599ZM51.3888 32.1353V39.857H49.3643V32.1193H47.0038V30.5909H53.7413V32.1193L51.3888 32.1353ZM57.1261 35.6081V39.857H55.1016V30.5909H57.1261V34.0477H60.4949V30.5909H62.5193V39.841H60.4949V35.5921L57.1261 35.6081ZM70.4011 32.1353H66.7043V34.3118H69.801V35.9121H66.7043V38.3127H70.8652V39.817H64.6718V30.5909H70.4011V32.1353ZM77.9548 32.5193V36.9764C78.2508 37.0265 78.5541 37.014 78.8449 36.9396C79.1358 36.8651 79.4077 36.7305 79.6432 36.5443C80.0518 36.0352 80.2417 35.3848 80.1714 34.7359C80.1714 33.1728 79.4325 32.434 77.9548 32.5193ZM75.9624 32.5193C74.5541 32.3913 73.8499 33.1248 73.8499 34.7199C73.7823 35.3636 73.9594 36.0092 74.346 36.5283C74.5656 36.7119 74.8224 36.8456 75.0987 36.9202C75.375 36.9948 75.6643 37.0085 75.9464 36.9604L75.9624 32.5193ZM75.9624 39.833V38.4727H75.6663C75.0789 38.4869 74.493 38.4086 73.9299 38.2407C73.2996 37.9937 72.7701 37.5431 72.4256 36.9604C72.0222 36.287 71.8196 35.5125 71.8414 34.7279C71.8469 34.1564 71.9526 33.5904 72.1535 33.0555C72.3945 32.4424 72.8266 31.9233 73.3858 31.5751C74.1637 31.1204 75.0659 30.9243 75.9624 31.015V29.9268H77.9548V30.999C78.8744 30.9066 79.8 31.1023 80.6035 31.5591C81.1697 31.9034 81.6081 32.4232 81.8517 33.0395C82.0527 33.5744 82.1583 34.1404 82.1638 34.7119C82.1828 35.4972 81.9774 36.2717 81.5717 36.9444C81.2113 37.5332 80.6566 37.9775 80.0033 38.2006C79.4266 38.3685 78.8274 38.4468 78.2269 38.4327H77.9308V39.793L75.9624 39.833ZM87.381 32.1113V39.833H85.3565V32.1193H82.996V30.5909H89.7335V32.1193L87.381 32.1113ZM96.8312 32.1113H93.1343V34.2878H96.231V35.8881H93.1343V38.2887H97.2953V39.793H91.1019V30.5909H96.8072L96.8312 32.1113ZM104.417 32.1113H100.808V39.825H98.7836V30.5909H104.385L104.417 32.1113ZM108.37 36.3362H110.61L109.458 33.4236L108.37 36.3362ZM107.77 37.9366L107.058 39.841H105.025L108.514 30.5909H110.41L113.963 39.841H111.931L111.13 37.8966L107.77 37.9366ZM115.884 32.7034L114.987 31.4311C115.927 30.7231 117.076 30.3486 118.252 30.3669C118.889 30.3355 119.525 30.4533 120.108 30.7109C120.544 30.9056 120.915 31.2189 121.181 31.6151C121.402 31.9607 121.541 32.352 121.589 32.7594C121.615 33.0753 121.58 33.3932 121.485 33.6956C121.387 34.0064 121.204 34.2836 120.957 34.4958C120.681 34.7296 120.346 34.882 119.988 34.9359V35.0799C120.492 35.1157 120.967 35.3315 121.325 35.6881C121.513 35.8763 121.66 36.1015 121.756 36.3494C121.853 36.5973 121.896 36.8626 121.885 37.1284C121.884 37.623 121.739 38.1065 121.469 38.5207C121.157 38.9869 120.722 39.358 120.212 39.593C119.57 39.8908 118.872 40.0463 118.164 40.0491C116.839 40.0614 115.556 39.5825 114.563 38.7048L115.531 37.4645C115.572 37.4698 115.611 37.4864 115.643 37.5125L115.739 37.5925L116.028 37.7765L116.436 38.0246C116.973 38.3094 117.583 38.4264 118.188 38.3607C118.599 38.3242 118.981 38.1359 119.26 37.8326C119.382 37.704 119.475 37.5514 119.534 37.3847C119.594 37.218 119.617 37.0408 119.604 36.8643C119.604 36.1655 119.132 35.8161 118.188 35.8161H117.292V34.2637H118.028C118.234 34.2902 118.444 34.2694 118.64 34.2028C118.837 34.1363 119.016 34.0258 119.164 33.8797C119.254 33.7687 119.32 33.6402 119.357 33.5024C119.394 33.3646 119.402 33.2205 119.38 33.0795C119.359 32.93 119.306 32.7867 119.227 32.6586C119.147 32.5305 119.041 32.4204 118.916 32.3353C118.601 32.1283 118.228 32.0274 117.852 32.0472C117.146 32.0856 116.465 32.3182 115.884 32.7194M13.7802 31.6792L12.78 32.8874C12.5025 32.6034 12.1656 32.3843 11.7934 32.246C11.4213 32.1076 11.0231 32.0534 10.6275 32.0872C10.3138 32.1367 10.0124 32.2453 9.73926 32.4073C9.36822 32.6405 9.0734 32.977 8.89107 33.3755C8.62444 33.9565 8.50358 34.5937 8.53898 35.232C8.47818 36.0461 8.71725 36.8544 9.21114 37.5045C9.57456 37.9212 10.0679 38.2031 10.6115 38.3047C11.0608 38.347 11.5133 38.2701 11.9235 38.0819C12.3337 37.8937 12.6871 37.6007 12.948 37.2324L14.0602 38.2166C13.6437 38.7902 13.0992 39.2588 12.47 39.5852C11.8408 39.9116 11.1442 40.0869 10.4354 40.0971C9.65888 40.1087 8.89526 39.8977 8.23492 39.4889C7.57386 39.0671 7.04436 38.4683 6.70657 37.7605C6.33106 36.9942 6.14448 36.1492 6.16244 35.296C6.12683 34.6217 6.23386 33.9475 6.47653 33.3173C6.71921 32.6872 7.09207 32.1154 7.57076 31.6391C8.42112 30.8437 9.54308 30.4029 10.7075 30.4069C11.2985 30.4018 11.8842 30.5189 12.4279 30.7509C12.9384 30.9696 13.3966 31.2941 13.7722 31.7032" fill="#00649D"/>
<path fill-rule="evenodd" clip-rule="evenodd" d="M97.0963 43.8018C88.6303 56.3807 65.297 62.6141 49.8214 64.8866C46.9968 64.5346 46.1566 64.4225 43.5 64.0064C52.8941 60.8937 74.5471 55.3405 78.476 43.8018H97.0963ZM74.4831 12.1706C82.0928 14.3231 91.479 17.8919 96.9442 26.1498H74.6031C74.299 25.7657 73.987 25.3496 73.6669 24.9975L73.3148 24.5814L72.5866 23.7813L72.4986 23.6772L72.3146 23.4692L71.9385 23.0611L71.6504 22.757L71.2663 22.3569L71.1703 22.1969L70.9783 21.9968L70.6822 21.7008L70.4822 21.5087L70.3861 21.4127L70.1861 21.2207L70.0901 21.1246L69.9861 21.0286L69.786 20.8366L69.4739 20.5485L68.1536 19.3482L67.9776 19.1962L67.7135 18.9562L67.5375 18.8041L67.3615 18.6601L67.1854 18.508L66.8413 18.212L66.3212 17.7799L65.8091 17.3718V17.2918C68.5517 15.3248 71.4654 13.6082 74.5151 12.1626" fill="#A97654"/>
<path fill-rule="evenodd" clip-rule="evenodd" d="M99.4163 43.802C92.1507 56.4609 69.8896 63.5105 56.4785 65.551C59.0231 65.647 61.2316 65.8311 64.2003 65.8311C80.7081 65.8311 95.4714 62.2782 106.258 56.5809C113.46 52.66 117.933 48.4511 120.613 43.778L99.4163 43.802ZM77.2273 10.8665C86.9015 14.3233 94.1831 17.9001 99.4563 26.15L120.573 26.086C114.412 15.3155 100.008 9.64222 88.0617 6.80957C85.9412 7.3937 78.1315 10.4264 77.2273 10.8985" fill="#B88A57"/>
<path fill-rule="evenodd" clip-rule="evenodd" d="M30.8809 43.8024C35.2579 50.1318 42.0834 54.2768 50.2853 56.7333C51.6776 57.1494 54.0061 57.5975 55.3905 57.8616C59.188 56.7227 62.8566 55.1914 66.337 53.2926L64.2325 53.3886H61.7439C58.376 52.9657 55.2366 51.4606 52.7979 49.0996C51.2975 47.6184 50.1442 45.8229 49.4211 43.8424L30.8809 43.8024ZM78.2197 5.08154C56.0146 8.28227 37.6904 15.948 31.0089 26.1424H53.414L53.486 26.0463L53.8221 25.6142L53.9021 25.5102L54.1582 25.1901L54.5983 24.654L54.6863 24.55C54.9264 24.2699 55.1664 23.9899 55.4145 23.7498L55.5025 23.6458L55.6865 23.4377L56.0626 23.0296L56.3507 22.7256L56.7348 22.3255L56.8308 22.2295L57.0228 22.0294L57.3189 21.7333L57.5189 21.5413L57.615 21.4453L57.815 21.2532L57.911 21.1572L58.0151 21.0612L58.1591 20.9252C58.9593 20.125 59.8635 19.3248 60.7597 18.5726L60.9757 18.3966L61.1438 18.2606L61.6639 17.8285L62.176 17.4204C62.7121 16.9963 63.2403 16.6202 63.7764 16.2601C70.124 11.76 77.1465 8.29737 84.5811 6.00175L84.3331 5.93774C82.6527 5.62567 79.9481 5.35361 78.1957 5.13756" fill="#00649D"/>
<path fill-rule="evenodd" clip-rule="evenodd" d="M28.552 26.1981C36.3538 12.947 59.191 6.59358 71.5779 4.4811C68.7292 4.25705 66.7768 4.14502 63.8001 4.14502C47.2923 4.14502 32.3689 7.69783 21.5905 13.3951C15.253 16.98 10.2199 21.341 7.38721 26.1981H28.552ZM46.1561 57.4052C38.6424 54.3405 32.721 50.8517 28.552 43.8741H7.44322C13.5006 54.4285 27.9919 60.3259 39.8826 63.2865C42.1632 62.6704 49.9169 60.1258 52.2695 59.1576C50.1963 58.7576 48.1636 58.1711 46.1961 57.4052" fill="#007EAF"/>
</svg>
