<svg width="170" height="42" viewBox="0 0 170 42" fill="none" xmlns="http://www.w3.org/2000/svg">
<path fill-rule="evenodd" clip-rule="evenodd" d="M0 11.1284H15.5275V41.4016H28.4387H28.9176H42.1305L45.6851 34.4914H59.5026V41.4016H72.2809V15.7352H59.5026V22.3163H52.1897L63.7923 0.598633H50.4022L28.9176 40.512V11.1284H41.1762L46.6975 0.598633H5.52132L0 11.1284Z" fill="#2B2A29"/>
<path fill-rule="evenodd" clip-rule="evenodd" d="M61.8203 11.1284H80.0351V41.4016H93.4252V11.1284H104.967H105.684H132.389V1.21392L144.394 21.2396L138.587 30.8718H104.967V41.4016H132.239H140.834H145.401L150.957 32.1865L156.481 41.4016H170L157.756 20.9087L170 0.598633H156.838L151.204 9.94344L145.621 0.598633H132.389H132.02H111.205H104.967H67.3417L61.8203 11.1284Z" fill="#2B2A29"/>
<path fill-rule="evenodd" clip-rule="evenodd" d="M104.967 26.3746H132.389V15.7351H104.967V26.3746Z" fill="#2B2A29"/>
</svg>
