<svg width="170" height="46" viewBox="0 0 170 46" fill="none" xmlns="http://www.w3.org/2000/svg">
<path fill-rule="evenodd" clip-rule="evenodd" d="M89.478 30.3673H90.5915H94.0657H95.1791L105.388 38.0673V30.3673H110.077V45.5481H109.739H105.388H105.151L94.0657 37.1872V45.5481H89.478V30.3673ZM3.53871 36.3949C-9.24343 18.2386 17.1179 16.3695 11.799 0.00561523C24.7679 19.1489 0.527381 17.4873 3.53871 36.3949ZM120.492 36.4913H129.339V39.3935H120.492V42.6153H132.421V45.5175H120.492V45.5481H113.46V30.3673H113.78H120.492H132.421V33.2694H120.492V36.4913ZM142.483 36.7697H149.989V39.6719H142.483V45.5481H135.451V30.3673H139.608H142.483H157.163H164.196H170V33.2694H164.196V45.5481H157.163V33.2694H142.483V36.7697Z" fill="#1AB374"/>
<path fill-rule="evenodd" clip-rule="evenodd" d="M29.4354 30.3672H35.2401H42.2722H48.0766V33.2694H42.2722V45.548H35.2401V33.2694H29.4354V30.3672ZM10.6364 45.9945C-2.14578 27.8382 24.2156 25.9691 18.8966 9.60522C31.8656 28.7485 7.62504 27.0869 10.6364 45.9945ZM80.9648 33.2694V45.548H73.9327V33.2694H68.128V30.3672H73.9327H80.9648H86.7692V33.2694H80.9648ZM53.2289 40.1901H59.9363L56.5884 33.9228L53.2289 40.1901ZM61.4866 43.0923H51.6731L50.3567 45.548H46.0964L54.234 30.3672H54.6891H58.4943H61.7211L69.8302 45.548H62.7981L61.4866 43.0923Z" fill="#EE3A43"/>
</svg>
