<svg width="170" height="58" viewBox="0 0 170 58" fill="none" xmlns="http://www.w3.org/2000/svg">
<mask id="mask0_246_4314" style="mask-type:luminance" maskUnits="userSpaceOnUse" x="0" y="0" width="35" height="58">
<path d="M0 57.0109H34.8581V0.989014H0V57.0109Z" fill="white"/>
</mask>
<g mask="url(#mask0_246_4314)">
<path fill-rule="evenodd" clip-rule="evenodd" d="M31.5557 32.0469V47.7109L28.2855 48.1048V32.1301L31.5557 32.0469ZM24.707 26.9409L34.7622 27.6862L34.741 31.9657L24.707 32.2213V26.9409Z" fill="url(#paint0_linear_246_4314)"/>
<path fill-rule="evenodd" clip-rule="evenodd" d="M24.6079 32.2249V32.2349L24.7152 32.2322L24.7553 32.2349L24.6079 32.2249ZM23.2705 26.8452L24.7553 26.9462V32.2311L28.2503 32.1423V48.1048L24.2966 47.8361V37.1912L25.6561 37.1502L25.6277 33.3658L24.2966 33.3937V32.2037L24.3735 32.209L23.2705 32.134V26.8452Z" fill="black"/>
<path fill-rule="evenodd" clip-rule="evenodd" d="M8.98089 1.75513H10.2116L8.8342 2.91895C4.34118 7.76855 1.26612 17.6238 1.26612 28.9926C1.26612 40.3614 4.34118 50.2167 8.8342 55.0662L10.3425 56.3406H9.14981L8.5808 55.9683C3.5945 51.524 0.0957031 41.1193 0.0957031 28.9926C0.0957031 16.8659 3.5945 6.46125 8.5808 2.01685L8.98089 1.75513Z" fill="url(#paint1_linear_246_4314)"/>
<path fill-rule="evenodd" clip-rule="evenodd" d="M19.5145 37.3199L17.1432 50.074L15.9606 50.3028L15.615 49.6956C15.2562 48.9945 14.9166 48.2176 14.5989 47.3725L13.8472 45.0512L15.1338 37.4519L19.5145 37.3199ZM13.4314 24.6669L18.366 24.9386V33.4922L13.4314 33.5953V24.6669ZM15.8106 7.94655L17.3089 8.37002L19.6559 20.9934L15.0991 20.576L13.8198 13.0195L14.5989 10.6134C14.9166 9.76846 15.2562 8.9914 15.615 8.29043L15.8106 7.94655ZM9.82253 2.01318L12.1075 2.01322L10.54 3.94447C7.02696 9.08135 4.6803 18.3776 4.6803 28.9929C4.6803 41.1247 7.74531 51.5338 12.1135 55.98L12.1439 56.0068H9.86274L8.76584 55.0775C4.28296 50.226 1.21484 40.3665 1.21484 28.9929C1.21481 17.6195 4.28296 7.76 8.76584 2.90841L9.82253 2.01318Z" fill="url(#paint2_linear_246_4314)"/>
<path fill-rule="evenodd" clip-rule="evenodd" d="M19.4987 37.3074L12.3105 37.5234L12.3793 38.1342C13.0245 42.8532 14.1545 46.8683 15.5923 49.6693L15.9385 50.2759L17.1232 50.0474L19.4987 37.3074ZM28.8596 34.3938L28.8283 34.8859L28.826 34.9075L28.8048 34.9036L28.8596 34.3938ZM29.0164 31.8221L29.0131 31.981L28.9829 32.4559L29.0164 31.8221ZM11.9302 24.5876L11.8488 25.8134C11.8029 26.8536 11.7794 27.9138 11.7794 28.9897C11.7794 30.0658 11.8029 31.126 11.8488 32.166L11.9451 33.6173L18.3481 33.4841V24.9399L11.9302 24.5876ZM15.7884 7.9668L15.5923 8.31022C14.1545 11.1113 13.0245 15.1263 12.3793 19.8453L12.3246 20.3309L19.6403 20.9991L17.2892 8.38981L15.7884 7.9668ZM13.2181 1.08472L20.0853 2.98481L23.5103 21.3526L25.6891 21.5516L25.6606 25.3413L23.2914 25.2112V33.3812L25.6606 33.3319L25.6891 37.1216L23.4001 37.1903L19.9639 55.6185L13.2411 56.9151L12.1386 55.9467C7.76275 51.5055 4.69238 41.108 4.69238 28.9897C4.69235 16.8715 7.76275 6.47412 12.1386 2.03279L13.2181 1.08472Z" fill="url(#paint3_linear_246_4314)"/>
</g>
<path d="M42.3246 47.8384V38.1169H38.9374V36.14H48.0127V38.1169H44.6414V47.8384H42.3246ZM58.811 47.8384H56.3158L55.3278 45.1752H50.7396L49.7889 47.8384H47.339L51.7808 36.14H54.228L58.811 47.8384ZM54.5769 43.1982L52.9871 38.8685L51.4426 43.1982H54.5769ZM61.8201 47.8384V38.1169H58.4328V36.14H67.5082V38.1169H64.1369V47.8384H61.8201ZM69.0074 47.8384V36.14H71.3242V40.7474H75.8299V36.14H78.1467V47.8384H75.8299V42.7244H71.3242V47.8384H69.0074ZM80.546 47.8384V36.14H89.0142V38.1169H82.8628V40.7147H88.5828V42.6917H82.8628V45.8614H89.2379V47.8384H80.546ZM97.9937 46.4659V47.8384H95.7249V46.4659C93.8954 46.3979 92.6065 45.9349 91.8529 45.0826C91.0993 44.2275 90.7238 43.1601 90.7238 41.8775C90.7238 40.5269 91.1179 39.4458 91.9035 38.6289C92.6917 37.812 93.9646 37.3681 95.7249 37.3V36.14H97.9937V37.3C99.8125 37.3681 101.099 37.8256 101.858 38.6724C102.617 39.5166 102.995 40.5895 102.995 41.8857C102.995 43.1737 102.617 44.2411 101.863 45.0908C101.107 45.9376 99.8178 46.3979 97.9937 46.4659ZM97.9937 44.489C98.5982 44.489 99.1201 44.3855 99.5568 44.1785C99.9909 43.9716 100.3 43.6938 100.484 43.3425C100.667 42.994 100.758 42.482 100.758 41.8067C100.758 40.1211 99.8364 39.277 97.9937 39.277V44.489ZM95.7249 44.489V39.277C94.7475 39.277 94.0445 39.4975 93.6105 39.9414C93.1764 40.3853 92.9607 41.0551 92.9607 41.951C92.9607 43.6421 93.8821 44.489 95.7249 44.489ZM106.803 47.8384V38.1169H103.415V36.14H112.491V38.1169H109.119V47.8384H106.803ZM113.99 47.8384V36.14H122.458V38.1169H116.307V40.7147H122.027V42.6917H116.307V45.8614H122.682V47.8384H113.99ZM124.679 36.14H133.77V47.8384H131.454V38.1169H126.996V47.8384H124.679V36.14ZM136.132 47.8384V36.14H139.837C141.24 36.14 142.153 36.1971 142.579 36.3142C143.235 36.4912 143.783 36.8725 144.225 37.4607C144.667 38.0488 144.888 38.8086 144.888 39.7399C144.888 40.4588 144.76 41.0606 144.507 41.5507C144.252 42.0409 143.93 42.4248 143.538 42.7053C143.147 42.9831 142.747 43.1682 142.342 43.2581C141.791 43.3698 140.995 43.427 139.951 43.427H138.449V47.8384H136.132ZM138.449 38.1169V41.45H139.709C140.617 41.45 141.221 41.3873 141.528 41.2648C141.834 41.1423 142.074 40.9517 142.247 40.6875C142.42 40.4261 142.508 40.1238 142.508 39.7753C142.508 39.3478 142.385 38.9965 142.143 38.7187C141.898 38.441 141.592 38.2667 141.216 38.1959C140.942 38.1441 140.391 38.1169 139.56 38.1169H138.449ZM146.1 42.06C146.1 40.8673 146.276 39.8652 146.624 39.0537C146.883 38.4573 147.24 37.9209 147.69 37.447C148.14 36.9732 148.632 36.622 149.168 36.3905C149.881 36.0828 150.704 35.9276 151.636 35.9276C153.324 35.9276 154.672 36.464 155.687 37.5342C156.698 38.6071 157.204 40.0966 157.204 42.0055C157.204 43.898 156.701 45.3794 155.697 46.4469C154.693 47.517 153.348 48.0507 151.668 48.0507C149.966 48.0507 148.611 47.5197 147.607 46.455C146.603 45.393 146.1 43.928 146.1 42.06ZM148.481 41.981C148.481 43.3071 148.781 44.3119 149.381 44.9982C149.98 45.6817 150.741 46.0248 151.663 46.0248C152.587 46.0248 153.343 45.6844 153.937 45.0063C154.528 44.3256 154.824 43.3071 154.824 41.9483C154.824 40.6058 154.536 39.6037 153.958 38.9447C153.383 38.283 152.619 37.9535 151.663 37.9535C150.709 37.9535 149.94 38.2885 149.357 38.9556C148.773 39.6255 148.481 40.633 148.481 41.981ZM158.975 47.8384V36.14H162.445L164.496 44.1186L166.522 36.14H170V47.8384H167.859L167.851 38.6289L165.595 47.8384H163.369L161.124 38.6289L161.116 47.8384H158.975ZM38.6699 32.169L39.9941 28.717H40.4964L41.9017 32.169H41.3818L40.9825 31.1228H39.5289L39.1545 32.169H38.6699ZM39.6631 30.7516H40.8394L40.4795 29.7946C40.371 29.5037 40.289 29.2634 40.232 29.0738C40.1846 29.2988 40.1211 29.5198 40.0415 29.7383L39.6631 30.7516ZM42.2738 28.717H42.7318V30.2309C42.9399 30.2309 43.0869 30.1899 43.1713 30.1087C43.2565 30.0276 43.3641 29.8331 43.4959 29.5246C43.5915 29.2972 43.6703 29.1373 43.733 29.0441C43.7948 28.95 43.8832 28.8713 43.9981 28.8078C44.1122 28.7443 44.2392 28.7122 44.3774 28.7122C44.5533 28.7122 44.6457 28.7138 44.6554 28.717V29.1124C44.6393 29.1124 44.6088 29.1116 44.5638 29.1099C44.5132 29.1084 44.4827 29.1076 44.4714 29.1076C44.326 29.1076 44.2175 29.1429 44.1468 29.2136C44.0745 29.2843 43.9925 29.4354 43.8993 29.666C43.7836 29.9585 43.6855 30.1433 43.6052 30.2196C43.5256 30.2952 43.4292 30.3562 43.3183 30.402C43.5409 30.4631 43.7611 30.6696 43.978 31.02L44.6891 32.169H44.1219L43.5425 31.2337C43.3842 30.9741 43.2516 30.7958 43.1456 30.6993C43.0387 30.6021 42.9013 30.5539 42.7318 30.5539V32.169H42.2738V28.717ZM45.0821 28.717H45.5401V31.764H47.3335V28.717H47.7915V31.764H48.1049V33.1284H47.7V32.169H45.0821V28.717ZM48.6481 28.717H49.0627V31.4506L50.9004 28.717H51.3528V32.169H50.9382V29.4426L49.1053 32.169H48.6481V28.717ZM51.9643 30.4888C51.9643 29.9167 52.1185 29.4683 52.4263 29.1445C52.734 28.8207 53.131 28.6592 53.6179 28.6592C53.9369 28.6592 54.2238 28.7355 54.4801 28.8874C54.7356 29.0393 54.9309 29.2514 55.0651 29.5238C55.1992 29.7954 55.2667 30.1039 55.2667 30.4486C55.2667 30.7982 55.196 31.1115 55.0546 31.3871C54.9132 31.6636 54.7131 31.8725 54.4544 32.0139C54.1948 32.1561 53.9152 32.2268 53.6155 32.2268C53.2901 32.2268 53 32.1481 52.7437 31.9914C52.4881 31.8347 52.2937 31.621 52.1619 31.3494C52.0301 31.0786 51.9643 30.7917 51.9643 30.4888ZM52.4367 30.4968C52.4367 30.9123 52.5484 31.2393 52.7718 31.478C52.9952 31.7166 53.2756 31.8363 53.6131 31.8363C53.957 31.8363 54.239 31.7158 54.4616 31.4747C54.6834 31.2337 54.7943 30.8914 54.7943 30.4478C54.7943 30.1674 54.7468 29.9223 54.652 29.7134C54.5572 29.5045 54.4182 29.3422 54.2358 29.2273C54.0526 29.1124 53.8477 29.0545 53.6203 29.0545C53.2973 29.0545 53.0193 29.1654 52.7863 29.3872C52.5533 29.609 52.4367 29.9786 52.4367 30.4968ZM55.8734 32.169V28.717H56.3314V30.1393H58.1152V28.717H58.5732V32.169H58.1152V30.5443H56.3314V32.169H55.8734ZM59.3454 32.169V28.717H61.838V29.122H59.8034V30.1827H61.7078V30.5876H59.8034V31.764H61.9199V32.169H59.3454ZM62.5515 32.169V28.717H63.8548C64.0838 28.717 64.259 28.7283 64.3804 28.75C64.5499 28.7781 64.6921 28.8319 64.807 28.9107C64.9219 28.9902 65.0143 29.1011 65.0842 29.2434C65.1541 29.3856 65.1887 29.5422 65.1887 29.7134C65.1887 30.0059 65.0955 30.2542 64.9082 30.4567C64.7218 30.66 64.3835 30.7612 63.895 30.7612H63.0095V32.169H62.5515ZM63.0095 30.3562H63.9014C64.1971 30.3562 64.406 30.3016 64.5306 30.1915C64.6543 30.0814 64.7162 29.9271 64.7162 29.7271C64.7162 29.5832 64.68 29.4595 64.6069 29.3566C64.5338 29.2538 64.4374 29.1855 64.3185 29.1525C64.2413 29.1325 64.0991 29.122 63.8926 29.122H63.0095V30.3562ZM65.7865 32.169V28.717H66.2445V30.1393H68.0283V28.717H68.4863V32.169H68.0283V30.5443H66.2445V32.169H65.7865ZM69.1091 30.4888C69.1091 29.9167 69.2634 29.4683 69.5711 29.1445C69.8789 28.8207 70.2758 28.6592 70.7627 28.6592C71.0818 28.6592 71.3686 28.7355 71.6249 28.8874C71.8805 29.0393 72.0757 29.2514 72.2099 29.5238C72.3441 29.7954 72.4116 30.1039 72.4116 30.4486C72.4116 30.7982 72.3409 31.1115 72.1994 31.3871C72.058 31.6636 71.8579 31.8725 71.5992 32.0139C71.3397 32.1561 71.06 32.2268 70.7603 32.2268C70.4349 32.2268 70.1448 32.1481 69.8885 31.9914C69.633 31.8347 69.4385 31.621 69.3068 31.3494C69.175 31.0786 69.1091 30.7917 69.1091 30.4888ZM69.5815 30.4968C69.5815 30.9123 69.6932 31.2393 69.9166 31.478C70.14 31.7166 70.4205 31.8363 70.7579 31.8363C71.1018 31.8363 71.3839 31.7158 71.6064 31.4747C71.8282 31.2337 71.9391 30.8914 71.9391 30.4478C71.9391 30.1674 71.8917 29.9223 71.7969 29.7134C71.7021 29.5045 71.5631 29.3422 71.3807 29.2273C71.1974 29.1124 70.9925 29.0545 70.7652 29.0545C70.4421 29.0545 70.1641 29.1654 69.9311 29.3872C69.6981 29.609 69.5815 29.9786 69.5815 30.4968ZM73.0086 32.169V28.717H75.5011V29.122H73.4666V30.1827H75.371V30.5876H73.4666V31.764H75.5831V32.169H73.0086ZM77.4143 30.4888C77.4143 29.9167 77.5686 29.4683 77.8764 29.1445C78.1841 28.8207 78.5811 28.6592 79.068 28.6592C79.387 28.6592 79.6738 28.7355 79.9302 28.8874C80.1857 29.0393 80.3809 29.2514 80.5151 29.5238C80.6493 29.7954 80.7168 30.1039 80.7168 30.4486C80.7168 30.7982 80.6461 31.1115 80.5047 31.3871C80.3633 31.6636 80.1632 31.8725 79.9045 32.0139C79.6449 32.1561 79.3653 32.2268 79.0656 32.2268C78.7401 32.2268 78.4501 32.1481 78.1938 31.9914C77.9382 31.8347 77.7438 31.621 77.612 31.3494C77.4802 31.0786 77.4143 30.7917 77.4143 30.4888ZM77.8868 30.4968C77.8868 30.9123 77.9985 31.2393 78.2219 31.478C78.4453 31.7166 78.7257 31.8363 79.0632 31.8363C79.4071 31.8363 79.6891 31.7158 79.9117 31.4747C80.1335 31.2337 80.2443 30.8914 80.2443 30.4478C80.2443 30.1674 80.1969 29.9223 80.1021 29.7134C80.0073 29.5045 79.8683 29.3422 79.6859 29.2273C79.5027 29.1124 79.2978 29.0545 79.0704 29.0545C78.7474 29.0545 78.4694 29.1654 78.2364 29.3872C78.0033 29.609 77.8868 29.9786 77.8868 30.4968ZM81.3235 28.717H83.5653V29.122H81.7815V30.1875H82.6059C82.9105 30.1875 83.1523 30.2164 83.3323 30.2751C83.5123 30.3329 83.6561 30.4422 83.7646 30.6037C83.8731 30.7644 83.9269 30.9516 83.9269 31.1654C83.9269 31.3397 83.8883 31.5029 83.8104 31.6539C83.7325 31.8058 83.6167 31.9295 83.4625 32.0251C83.309 32.1208 83.0462 32.169 82.6758 32.169H81.3235V28.717ZM81.7815 31.7785H82.6951C82.9418 31.7785 83.1266 31.7286 83.2503 31.6282C83.3733 31.5278 83.4352 31.3775 83.4352 31.1774C83.4352 31.0344 83.3998 30.9155 83.3291 30.8199C83.2584 30.7242 83.1603 30.6608 83.035 30.6294C82.9089 30.5981 82.6943 30.5828 82.3914 30.5828H81.7815V31.7785ZM84.4781 28.717H84.9361V31.764H86.0788V28.717H86.5368V31.764H87.6794V28.717H88.1374V31.764H88.4459V33.1284H88.041V32.169H84.4781V28.717ZM88.998 32.169V28.717H91.4905V29.122H89.456V30.1827H91.3603V30.5876H89.456V31.764H91.5725V32.169H88.998ZM94.6628 30.9581L95.1208 31.0738C95.0252 31.449 94.8533 31.7343 94.605 31.9311C94.3567 32.128 94.053 32.2268 93.6938 32.2268C93.3225 32.2268 93.0204 32.1513 92.7874 31.9994C92.5544 31.8484 92.3776 31.629 92.2563 31.3422C92.1349 31.0545 92.0739 30.7467 92.0739 30.4173C92.0739 30.0581 92.1422 29.7448 92.2796 29.4772C92.417 29.2096 92.6122 29.0063 92.8653 28.8673C93.1185 28.7283 93.3973 28.6592 93.701 28.6592C94.0465 28.6592 94.3366 28.7468 94.5712 28.9227C94.8066 29.0987 94.9706 29.3454 95.063 29.6636L94.6146 29.7697C94.5351 29.5189 94.4186 29.3358 94.2667 29.2216C94.1148 29.1068 93.9236 29.0497 93.693 29.0497C93.4286 29.0497 93.2069 29.1132 93.0293 29.2401C92.8517 29.3671 92.7263 29.5382 92.6548 29.752C92.5825 29.9665 92.5463 30.1875 92.5463 30.4149C92.5463 30.7082 92.5889 30.9645 92.6741 31.183C92.7593 31.4024 92.8919 31.5655 93.0718 31.674C93.2518 31.7825 93.4463 31.8363 93.656 31.8363C93.9115 31.8363 94.1269 31.7624 94.3036 31.6153C94.4804 31.4675 94.6002 31.249 94.6628 30.9581ZM96.4032 32.169V29.122H95.2655V28.717H97.9991V29.122H96.8613V32.169H96.4032ZM98.4514 32.169V28.717H99.7467C100.01 28.717 100.222 28.7516 100.382 28.8215C100.541 28.8914 100.665 28.9991 100.755 29.1445C100.846 29.2891 100.891 29.441 100.891 29.6001C100.891 29.7471 100.851 29.8862 100.771 30.0163C100.692 30.1465 100.571 30.2518 100.41 30.3321C100.619 30.3932 100.779 30.4976 100.891 30.6455C101.003 30.7925 101.06 30.9669 101.06 31.1678C101.06 31.3301 101.025 31.4803 100.957 31.6194C100.889 31.7584 100.804 31.8652 100.704 31.9408C100.603 32.0155 100.477 32.0726 100.326 32.1111C100.174 32.1497 99.9886 32.169 99.7684 32.169H98.4514ZM98.9094 30.1682H99.6559C99.8584 30.1682 100.004 30.1545 100.091 30.128C100.208 30.0935 100.296 30.0356 100.354 29.9553C100.413 29.8749 100.443 29.7745 100.443 29.6531C100.443 29.5382 100.415 29.437 100.36 29.3502C100.305 29.2626 100.226 29.2023 100.124 29.1702C100.022 29.1381 99.8472 29.122 99.5997 29.122H98.9094V30.1682ZM98.9094 31.764H99.7692C99.917 31.764 100.021 31.7584 100.081 31.7471C100.185 31.7286 100.274 31.6973 100.345 31.6531C100.415 31.6089 100.473 31.5446 100.519 31.4603C100.565 31.3759 100.587 31.2787 100.587 31.1686C100.587 31.0392 100.554 30.9275 100.488 30.8319C100.422 30.7363 100.33 30.6696 100.213 30.631C100.096 30.5925 99.9275 30.5732 99.7081 30.5732H98.9094V31.764ZM101.387 30.4888C101.387 29.9167 101.541 29.4683 101.849 29.1445C102.157 28.8207 102.553 28.6592 103.04 28.6592C103.359 28.6592 103.646 28.7355 103.903 28.8874C104.158 29.0393 104.353 29.2514 104.488 29.5238C104.622 29.7954 104.689 30.1039 104.689 30.4486C104.689 30.7982 104.618 31.1115 104.477 31.3871C104.336 31.6636 104.136 31.8725 103.877 32.0139C103.617 32.1561 103.338 32.2268 103.038 32.2268C102.713 32.2268 102.422 32.1481 102.166 31.9914C101.911 31.8347 101.716 31.621 101.584 31.3494C101.453 31.0786 101.387 30.7917 101.387 30.4888ZM101.859 30.4968C101.859 30.9123 101.971 31.2393 102.194 31.478C102.418 31.7166 102.698 31.8363 103.036 31.8363C103.379 31.8363 103.662 31.7158 103.884 31.4747C104.106 31.2337 104.217 30.8914 104.217 30.4478C104.217 30.1674 104.169 29.9223 104.075 29.7134C103.98 29.5045 103.841 29.3422 103.658 29.2273C103.475 29.1124 103.27 29.0545 103.043 29.0545C102.72 29.0545 102.442 29.1654 102.209 29.3872C101.976 29.609 101.859 29.9786 101.859 30.4968Z" fill="#2B2A29"/>
<defs>
<linearGradient id="paint0_linear_246_4314" x1="21.5468" y1="41.4013" x2="37.9224" y2="33.5486" gradientUnits="userSpaceOnUse">
<stop stop-color="#333333"/>
<stop offset="0.321569" stop-color="#333333"/>
<stop offset="0.929412" stop-color="#676767"/>
<stop offset="1" stop-color="#676767"/>
</linearGradient>
<linearGradient id="paint1_linear_246_4314" x1="5.17123" y1="56.3406" x2="5.17123" y2="1.75517" gradientUnits="userSpaceOnUse">
<stop stop-color="#550707"/>
<stop offset="0.321569" stop-color="#550707"/>
<stop offset="0.929412" stop-color="#D51001"/>
<stop offset="1" stop-color="#D51001"/>
</linearGradient>
<linearGradient id="paint2_linear_246_4314" x1="-7.94821" y1="32.591" x2="29.2082" y2="25.2172" gradientUnits="userSpaceOnUse">
<stop stop-color="#750A0A"/>
<stop offset="0.321569" stop-color="#750A0A"/>
<stop offset="0.929412" stop-color="#B54F4F"/>
<stop offset="1" stop-color="#B54F4F"/>
</linearGradient>
<linearGradient id="paint3_linear_246_4314" x1="-3.63911" y1="37.8581" x2="37.2521" y2="20.046" gradientUnits="userSpaceOnUse">
<stop stop-color="#FE2C1E"/>
<stop offset="0.321569" stop-color="#FE2C1E"/>
<stop offset="0.929412" stop-color="#FF9085"/>
<stop offset="1" stop-color="#FF9085"/>
</linearGradient>
</defs>
</svg>
