<svg width="170" height="56" viewBox="0 0 170 56" fill="none" xmlns="http://www.w3.org/2000/svg">
<path d="M12.0093 55.7797C12.29 55.7483 12.4921 55.4953 12.4607 55.2146C12.4292 54.9338 12.1762 54.7318 11.8955 54.7632C11.6148 54.7946 11.4127 55.0476 11.4441 55.3283C11.4755 55.6091 11.7286 55.8112 12.0093 55.7797Z" fill="#00B473"/>
<path d="M10.5246 54.4706C10.7117 54.4496 10.8464 54.2809 10.8255 54.0938C10.8045 53.9067 10.6359 53.7719 10.4487 53.7929C10.2616 53.8138 10.1268 53.9825 10.1478 54.1697C10.1687 54.3568 10.3374 54.4915 10.5246 54.4706Z" fill="#00B473"/>
<path d="M11.112 53.5817C11.2991 53.5607 11.4338 53.392 11.4129 53.2049C11.3919 53.0177 11.2233 52.883 11.0361 52.904C10.849 52.9249 10.7142 53.0936 10.7352 53.2807C10.7561 53.4679 10.9248 53.6026 11.112 53.5817Z" fill="#00B473"/>
<path d="M10.2082 53.4769C10.3953 53.456 10.53 53.2873 10.5091 53.1002C10.4881 52.913 10.3194 52.7783 10.1323 52.7992C9.94516 52.8202 9.81044 52.9889 9.83139 53.176C9.85233 53.3632 10.021 53.4979 10.2082 53.4769Z" fill="#00B473"/>
<path d="M9.06803 50.0363C9.25517 50.0153 9.3899 49.8466 9.36895 49.6595C9.348 49.4723 9.17931 49.3376 8.99217 49.3586C8.80503 49.3795 8.6703 49.5482 8.69125 49.7353C8.7122 49.9225 8.88088 50.0572 9.06803 50.0363Z" fill="#00B473"/>
<path d="M11.5338 54.598C11.721 54.5771 11.8557 54.4084 11.8348 54.2212C11.8138 54.0341 11.6451 53.8994 11.458 53.9203C11.2708 53.9413 11.1361 54.11 11.1571 54.2971C11.178 54.4842 11.3467 54.619 11.5338 54.598Z" fill="#00B473"/>
<path d="M7.49967 48.2904C7.68681 48.2695 7.82154 48.1008 7.80059 47.9136C7.77965 47.7265 7.61095 47.5918 7.42381 47.6127C7.23667 47.6337 7.10194 47.8023 7.12289 47.9895C7.14384 48.1766 7.31253 48.3114 7.49967 48.2904Z" fill="#00B473"/>
<path d="M7.27653 46.2914C7.46367 46.2704 7.5984 46.1018 7.57745 45.9146C7.5565 45.7275 7.38781 45.5927 7.20067 45.6137C7.01353 45.6346 6.8788 45.8033 6.89975 45.9905C6.92069 46.1776 7.08938 46.3123 7.27653 46.2914Z" fill="#00B473"/>
<path d="M8.0275 43.8053C8.21465 43.7844 8.34937 43.6157 8.32843 43.4285C8.30748 43.2414 8.13879 43.1067 7.95165 43.1276C7.7645 43.1485 7.62977 43.3172 7.65072 43.5044C7.67167 43.6915 7.84036 43.8262 8.0275 43.8053Z" fill="#00B473"/>
<path d="M8.85807 42.0314C9.04521 42.0104 9.17994 41.8417 9.15899 41.6546C9.13804 41.4674 8.96936 41.3327 8.78221 41.3537C8.59507 41.3746 8.46034 41.5433 8.48129 41.7304C8.50223 41.9176 8.67093 42.0523 8.85807 42.0314Z" fill="#00B473"/>
<path d="M11.1213 38.692C11.3084 38.6711 11.4431 38.5024 11.4222 38.3152C11.4012 38.1281 11.2325 37.9934 11.0454 38.0143C10.8583 38.0353 10.7235 38.204 10.7445 38.3911C10.7654 38.5782 10.9341 38.713 11.1213 38.692Z" fill="#00B473"/>
<path d="M11.258 36.7487C11.4451 36.7277 11.5798 36.559 11.5589 36.3719C11.5379 36.1847 11.3693 36.05 11.1821 36.071C10.995 36.0919 10.8602 36.2606 10.8812 36.4477C10.9021 36.6349 11.0708 36.7696 11.258 36.7487Z" fill="#00B473"/>
<path d="M10.7458 35.8619C10.9329 35.841 11.0676 35.6723 11.0467 35.4852C11.0257 35.298 10.857 35.1633 10.6699 35.1842C10.4828 35.2052 10.348 35.3739 10.369 35.561C10.3899 35.7482 10.5586 35.8829 10.7458 35.8619Z" fill="#00B473"/>
<path d="M14.2336 40.4003C14.4207 40.3793 14.5554 40.2106 14.5345 40.0235C14.5135 39.8364 14.3448 39.7016 14.1577 39.7226C13.9706 39.7435 13.8358 39.9122 13.8568 40.0994C13.8777 40.2865 14.0464 40.4212 14.2336 40.4003Z" fill="#00B473"/>
<path d="M16.7087 32.7811C16.8958 32.7602 17.0305 32.5915 17.0096 32.4044C16.9886 32.2172 16.8199 32.0825 16.6328 32.1034C16.4457 32.1244 16.3109 32.2931 16.3319 32.4802C16.3528 32.6674 16.5215 32.8021 16.7087 32.7811Z" fill="#00B473"/>
<path d="M18.9704 30.6066C19.1575 30.5856 19.2922 30.4169 19.2713 30.2298C19.2503 30.0427 19.0817 29.9079 18.8945 29.9289C18.7074 29.9498 18.5726 30.1185 18.5936 30.3057C18.6145 30.4928 18.7832 30.6275 18.9704 30.6066Z" fill="#00B473"/>
<path d="M20.5324 33.339C20.7195 33.318 20.8543 33.1494 20.8333 32.9622C20.8124 32.7751 20.6437 32.6403 20.4565 32.6613C20.2694 32.6822 20.1347 32.8509 20.1556 33.0381C20.1766 33.2252 20.3452 33.3599 20.5324 33.339Z" fill="#00B473"/>
<path d="M21.6911 30.5089C21.8782 30.488 22.0129 30.3193 21.992 30.1321C21.9711 29.945 21.8024 29.8103 21.6152 29.8312C21.4281 29.8522 21.2933 30.0209 21.3143 30.208C21.3352 30.3951 21.5039 30.5299 21.6911 30.5089Z" fill="#00B473"/>
<path d="M12.0422 39.8514C12.2293 39.8305 12.364 39.6618 12.3431 39.4747C12.3221 39.2875 12.1534 39.1528 11.9663 39.1737C11.7792 39.1947 11.6444 39.3634 11.6654 39.5505C11.6863 39.7377 11.855 39.8724 12.0422 39.8514Z" fill="#00B473"/>
<path d="M7.81363 36.578C8.00078 36.5571 8.13551 36.3884 8.11456 36.2012C8.09361 36.0141 7.92492 35.8794 7.73778 35.9003C7.55063 35.9213 7.41591 36.0899 7.43685 36.2771C7.4578 36.4642 7.62649 36.599 7.81363 36.578Z" fill="#00B473"/>
<path d="M9.62076 35.5209C9.8079 35.4999 9.94263 35.3312 9.92169 35.1441C9.90074 34.957 9.73205 34.8222 9.5449 34.8432C9.35776 34.8641 9.22304 35.0328 9.24398 35.22C9.26493 35.4071 9.43362 35.5418 9.62076 35.5209Z" fill="#00B473"/>
<path d="M7.64371 38.7262C7.83086 38.7053 7.96558 38.5366 7.94464 38.3494C7.92369 38.1623 7.755 38.0275 7.56786 38.0485C7.38071 38.0694 7.24599 38.2381 7.26693 38.4253C7.28788 38.6124 7.45657 38.7472 7.64371 38.7262Z" fill="#00B473"/>
<path d="M7.41275 19.3085C7.5999 19.2875 7.73463 19.1188 7.71368 18.9317C7.69273 18.7446 7.52404 18.6098 7.3369 18.6308C7.14975 18.6517 7.01503 18.8204 7.03598 19.0076C7.05692 19.1947 7.22561 19.3294 7.41275 19.3085Z" fill="#00B473"/>
<path d="M13.2463 20.234C13.4334 20.2131 13.5681 20.0444 13.5472 19.8572C13.5262 19.6701 13.3575 19.5354 13.1704 19.5563C12.9833 19.5773 12.8485 19.7459 12.8695 19.9331C12.8904 20.1202 13.0591 20.255 13.2463 20.234Z" fill="#00B473"/>
<path d="M13.1672 21.5414C13.3543 21.5204 13.489 21.3518 13.4681 21.1646C13.4471 20.9775 13.2784 20.8427 13.0913 20.8637C12.9042 20.8846 12.7694 21.0533 12.7904 21.2405C12.8113 21.4276 12.98 21.5623 13.1672 21.5414Z" fill="#00B473"/>
<path d="M14.3258 27.0309C14.513 27.0099 14.6477 26.8413 14.6268 26.6541C14.6058 26.467 14.4371 26.3322 14.25 26.3532C14.0628 26.3741 13.9281 26.5428 13.9491 26.73C13.97 26.9171 14.1387 27.0518 14.3258 27.0309Z" fill="#00B473"/>
<path d="M19.7477 26.6217C19.9349 26.6008 20.0696 26.4321 20.0486 26.2449C20.0277 26.0578 19.859 25.9231 19.6719 25.944C19.4847 25.965 19.35 26.1336 19.3709 26.3208C19.3919 26.5079 19.5606 26.6427 19.7477 26.6217Z" fill="#00B473"/>
<path d="M19.714 28.9403C19.9012 28.9194 20.0359 28.7507 20.0149 28.5635C19.994 28.3764 19.8253 28.2417 19.6382 28.2626C19.451 28.2836 19.3163 28.4522 19.3372 28.6394C19.3582 28.8265 19.5269 28.9613 19.714 28.9403Z" fill="#00B473"/>
<path d="M20.2936 31.6339C20.4808 31.613 20.6155 31.4443 20.5945 31.2571C20.5736 31.07 20.4049 30.9353 20.2178 30.9562C20.0306 30.9772 19.8959 31.1458 19.9168 31.333C19.9378 31.5201 20.1065 31.6549 20.2936 31.6339Z" fill="#00B473"/>
<path d="M15.2131 30.611C15.4002 30.59 15.5349 30.4213 15.514 30.2342C15.493 30.047 15.3243 29.9123 15.1372 29.9333C14.9501 29.9542 14.8153 30.1229 14.8363 30.31C14.8572 30.4972 15.0259 30.6319 15.2131 30.611Z" fill="#00B473"/>
<path d="M11.4963 28.6676C11.6834 28.6467 11.8181 28.478 11.7972 28.2908C11.7762 28.1037 11.6075 27.969 11.4204 27.9899C11.2333 28.0109 11.0985 28.1795 11.1195 28.3667C11.1404 28.5538 11.3091 28.6886 11.4963 28.6676Z" fill="#00B473"/>
<path d="M11.5304 22.837C11.7176 22.8161 11.8523 22.6474 11.8314 22.4603C11.8104 22.2731 11.6417 22.1384 11.4546 22.1593C11.2674 22.1803 11.1327 22.349 11.1537 22.5361C11.1746 22.7233 11.3433 22.858 11.5304 22.837Z" fill="#00B473"/>
<path d="M12.2467 16.0861C12.4339 16.0651 12.5686 15.8964 12.5477 15.7093C12.5267 15.5221 12.358 15.3874 12.1709 15.4084C11.9837 15.4293 11.849 15.598 11.87 15.7851C11.8909 15.9723 12.0596 16.107 12.2467 16.0861Z" fill="#00B473"/>
<path d="M10.7458 17.9955C10.9329 17.9745 11.0676 17.8059 11.0467 17.6187C11.0257 17.4316 10.857 17.2968 10.6699 17.3178C10.4828 17.3387 10.348 17.5074 10.369 17.6946C10.3899 17.8817 10.5586 18.0164 10.7458 17.9955Z" fill="#00B473"/>
<path d="M11.7008 17.6884C11.888 17.6674 12.0227 17.4987 12.0018 17.3116C11.9808 17.1244 11.8121 16.9897 11.625 17.0107C11.4378 17.0316 11.3031 17.2003 11.3241 17.3874C11.345 17.5746 11.5137 17.7093 11.7008 17.6884Z" fill="#00B473"/>
<path d="M12.3488 19.9049C12.5359 19.884 12.6707 19.7153 12.6497 19.5281C12.6288 19.341 12.4601 19.2063 12.2729 19.2272C12.0858 19.2482 11.9511 19.4168 11.972 19.604C11.993 19.7911 12.1617 19.9259 12.3488 19.9049Z" fill="#00B473"/>
<path d="M12.8947 18.4044C13.0818 18.3835 13.2166 18.2148 13.1956 18.0276C13.1747 17.8405 13.006 17.7058 12.8188 17.7267C12.6317 17.7477 12.497 17.9164 12.5179 18.1035C12.5389 18.2906 12.7075 18.4254 12.8947 18.4044Z" fill="#00B473"/>
<path d="M12.9626 19.3932C13.1497 19.3722 13.2844 19.2036 13.2635 19.0164C13.2425 18.8293 13.0738 18.6945 12.8867 18.7155C12.6996 18.7364 12.5648 18.9051 12.5858 19.0923C12.6067 19.2794 12.7754 19.4141 12.9626 19.3932Z" fill="#00B473"/>
<path d="M11.0192 12.6762C11.2063 12.6552 11.3411 12.4865 11.3201 12.2994C11.2992 12.1122 11.1305 11.9775 10.9433 11.9984C10.7562 12.0194 10.6215 12.1881 10.6424 12.3752C10.6634 12.5624 10.8321 12.6971 11.0192 12.6762Z" fill="#00B473"/>
<path d="M7.99137 18.3517C8.17851 18.3307 8.31324 18.162 8.29229 17.9749C8.27134 17.7878 8.10266 17.653 7.91551 17.674C7.72837 17.6949 7.59364 17.8636 7.61459 18.0508C7.63554 18.2379 7.80423 18.3726 7.99137 18.3517Z" fill="#00B473"/>
<path d="M12.1022 35.4581C12.2893 35.4372 12.4241 35.2685 12.4031 35.0814C12.3822 34.8942 12.2135 34.7595 12.0263 34.7804C11.8392 34.8014 11.7045 34.9701 11.7254 35.1572C11.7464 35.3444 11.9151 35.4791 12.1022 35.4581Z" fill="#00B473"/>
<path d="M10.6779 34.9076C10.865 34.8866 10.9998 34.718 10.9788 34.5308C10.9579 34.3437 10.7892 34.2089 10.602 34.2299C10.4149 34.2508 10.2802 34.4195 10.3011 34.6067C10.3221 34.7938 10.4907 34.9285 10.6779 34.9076Z" fill="#00B473"/>
<path d="M13.4738 35.1119C13.6609 35.091 13.7957 34.9223 13.7747 34.7352C13.7538 34.548 13.5851 34.4133 13.3979 34.4342C13.2108 34.4552 13.0761 34.6239 13.097 34.811C13.118 34.9982 13.2866 35.1329 13.4738 35.1119Z" fill="#00B473"/>
<path d="M11.5646 34.8053C11.7518 34.7844 11.8865 34.6157 11.8655 34.4285C11.8446 34.2414 11.6759 34.1067 11.4888 34.1276C11.3016 34.1485 11.1669 34.3172 11.1878 34.5044C11.2088 34.6915 11.3775 34.8263 11.5646 34.8053Z" fill="#00B473"/>
<path d="M10.7809 33.7482C10.9681 33.7272 11.1028 33.5585 11.0818 33.3714C11.0609 33.1843 10.8922 33.0495 10.7051 33.0705C10.5179 33.0914 10.3832 33.2601 10.4041 33.4473C10.4251 33.6344 10.5938 33.7691 10.7809 33.7482Z" fill="#00B473"/>
<path d="M21.5895 26.8947C21.7767 26.8737 21.9114 26.705 21.8904 26.5179C21.8695 26.3307 21.7008 26.196 21.5137 26.217C21.3265 26.2379 21.1918 26.4066 21.2127 26.5937C21.2337 26.7809 21.4024 26.9156 21.5895 26.8947Z" fill="#00B473"/>
<path d="M15.7438 36.1139C15.931 36.093 16.0657 35.9243 16.0447 35.7371C16.0238 35.55 15.8551 35.4152 15.668 35.4362C15.4808 35.4571 15.3461 35.6258 15.367 35.813C15.388 36.0001 15.5567 36.1348 15.7438 36.1139Z" fill="#00B473"/>
<path d="M16.5019 38.2936C16.7827 38.2622 16.9848 38.0092 16.9533 37.7285C16.9219 37.4478 16.6689 37.2457 16.3882 37.2771C16.1074 37.3085 15.9054 37.5615 15.9368 37.8423C15.9682 38.123 16.2212 38.3251 16.5019 38.2936Z" fill="#00B473"/>
<path d="M10.1352 33.0148C10.416 32.9834 10.6181 32.7304 10.5866 32.4497C10.5552 32.169 10.3022 31.9669 10.0215 31.9983C9.74075 32.0297 9.53866 32.2827 9.57008 32.5635C9.6015 32.8442 9.85453 33.0463 10.1352 33.0148Z" fill="#00B473"/>
<path d="M21.4556 32.4011C21.7363 32.3696 21.9384 32.1166 21.9069 31.8359C21.8755 31.5552 21.6225 31.3531 21.3418 31.3845C21.0611 31.4159 20.859 31.669 20.8904 31.9497C20.9218 32.2304 21.1748 32.4325 21.4556 32.4011Z" fill="#00B473"/>
<path d="M20.0234 34.7538C20.3041 34.7224 20.5062 34.4694 20.4748 34.1887C20.4434 33.908 20.1904 33.7059 19.9096 33.7373C19.6289 33.7687 19.4268 34.0218 19.4583 34.3025C19.4897 34.5832 19.7427 34.7853 20.0234 34.7538Z" fill="#00B473"/>
<path d="M15.8745 39.7363C16.1552 39.7049 16.3573 39.4518 16.3259 39.1711C16.2945 38.8904 16.0414 38.6883 15.7607 38.7197C15.48 38.7511 15.2779 39.0042 15.3093 39.2849C15.3408 39.5656 15.5938 39.7677 15.8745 39.7363Z" fill="#00B473"/>
<path d="M8.37809 44.7955C8.56523 44.7746 8.69996 44.6059 8.67901 44.4188C8.65806 44.2316 8.48937 44.0969 8.30223 44.1178C8.11509 44.1388 7.98036 44.3075 8.00131 44.4946C8.02226 44.6818 8.19095 44.8165 8.37809 44.7955Z" fill="#00B473"/>
<path d="M8.99723 51.5538C9.18437 51.5329 9.3191 51.3642 9.29815 51.1771C9.2772 50.9899 9.10852 50.8552 8.92137 50.8761C8.73423 50.8971 8.5995 51.0658 8.62045 51.2529C8.64139 51.4401 8.81009 51.5748 8.99723 51.5538Z" fill="#00B473"/>
<path d="M6.62385 17.1668C6.99814 17.1249 7.2676 16.7875 7.2257 16.4132C7.18381 16.0389 6.84643 15.7695 6.47214 15.8113C6.09785 15.8532 5.8284 16.1906 5.87029 16.5649C5.91219 16.9392 6.24957 17.2087 6.62385 17.1668Z" fill="#00B473"/>
<path d="M14.0599 19.0862C14.4342 19.0443 14.7036 18.7069 14.6617 18.3326C14.6198 17.9583 14.2825 17.6889 13.9082 17.7308C13.5339 17.7727 13.2644 18.1101 13.3063 18.4843C13.3482 18.8586 13.6856 19.1281 14.0599 19.0862Z" fill="#00B473"/>
<path d="M11.7406 19.1543C12.1148 19.1124 12.3843 18.775 12.3424 18.4007C12.3005 18.0265 11.9631 17.757 11.5888 17.7989C11.2146 17.8408 10.9451 18.1782 10.987 18.5525C11.0289 18.9267 11.3663 19.1962 11.7406 19.1543Z" fill="#00B473"/>
<path d="M10.3768 19.7339C10.7511 19.692 11.0205 19.3546 10.9786 18.9803C10.9367 18.606 10.5994 18.3366 10.2251 18.3785C9.85078 18.4204 9.58133 18.7578 9.62322 19.132C9.66512 19.5063 10.0025 19.7758 10.3768 19.7339Z" fill="#00B473"/>
<path d="M10.3524 22.8909C10.7267 22.849 10.9961 22.5116 10.9542 22.1373C10.9123 21.763 10.5749 21.4936 10.2007 21.5355C9.82637 21.5774 9.55691 21.9147 9.59881 22.289C9.6407 22.6633 9.97808 22.9328 10.3524 22.8909Z" fill="#00B473"/>
<path d="M11.1605 24.3367C11.5348 24.2948 11.8042 23.9574 11.7623 23.5831C11.7204 23.2088 11.383 22.9394 11.0088 22.9813C10.6345 23.0232 10.365 23.3605 10.4069 23.7348C10.4488 24.1091 10.7862 24.3786 11.1605 24.3367Z" fill="#00B473"/>
<path d="M10.9564 17.0061C11.3307 16.9642 11.6001 16.6268 11.5582 16.2526C11.5163 15.8783 11.1789 15.6088 10.8047 15.6507C10.4304 15.6926 10.1609 16.03 10.2028 16.4043C10.2447 16.7786 10.5821 17.048 10.9564 17.0061Z" fill="#00B473"/>
<path d="M12.8997 17.5518C13.274 17.5099 13.5435 17.1725 13.5016 16.7982C13.4597 16.4239 13.1223 16.1545 12.748 16.1964C12.3737 16.2383 12.1043 16.5756 12.1462 16.9499C12.1881 17.3242 12.5254 17.5937 12.8997 17.5518Z" fill="#00B473"/>
<path d="M20.1615 28.0715C20.5357 28.0296 20.8052 27.6923 20.7633 27.318C20.7214 26.9437 20.384 26.6742 20.0097 26.7161C19.6355 26.758 19.366 27.0954 19.4079 27.4697C19.4498 27.844 19.7872 28.1134 20.1615 28.0715Z" fill="#00B473"/>
<path d="M20.3592 30.4512C20.7335 30.4093 21.0029 30.0719 20.9611 29.6976C20.9192 29.3233 20.5818 29.0539 20.2075 29.0958C19.8332 29.1377 19.5637 29.475 19.6056 29.8493C19.6475 30.2236 19.9849 30.4931 20.3592 30.4512Z" fill="#00B473"/>
<path d="M21.6971 29.1104C22.0714 29.0685 22.3408 28.7311 22.2989 28.3568C22.257 27.9825 21.9197 27.7131 21.5454 27.755C21.1711 27.7968 20.9016 28.1342 20.9435 28.5085C20.9854 28.8828 21.3228 29.1523 21.6971 29.1104Z" fill="#00B473"/>
<path d="M16.0345 31.9644C16.4088 31.9225 16.6782 31.5851 16.6363 31.2108C16.5945 30.8365 16.2571 30.5671 15.8828 30.609C15.5085 30.6509 15.239 30.9882 15.2809 31.3625C15.3228 31.7368 15.6602 32.0063 16.0345 31.9644Z" fill="#00B473"/>
<path d="M14.096 28.7505C14.4703 28.7086 14.7398 28.3712 14.6979 27.9969C14.656 27.6227 14.3186 27.3532 13.9443 27.3951C13.57 27.437 13.3006 27.7744 13.3425 28.1487C13.3844 28.5229 13.7217 28.7924 14.096 28.7505Z" fill="#00B473"/>
<path d="M18.5145 26.2315C18.8888 26.1896 19.1582 25.8522 19.1163 25.4779C19.0744 25.1036 18.737 24.8342 18.3628 24.876C17.9885 24.9179 17.719 25.2553 17.7609 25.6296C17.8028 26.0039 18.1402 26.2733 18.5145 26.2315Z" fill="#00B473"/>
<path d="M20.5037 25.9055C20.878 25.8636 21.1475 25.5263 21.1056 25.152C21.0637 24.7777 20.7263 24.5082 20.352 24.5501C19.9777 24.592 19.7083 24.9294 19.7502 25.3037C19.7921 25.678 20.1294 25.9474 20.5037 25.9055Z" fill="#00B473"/>
<path d="M12.534 34.4148C12.9083 34.3729 13.1777 34.0355 13.1359 33.6612C13.094 33.287 12.7566 33.0175 12.3823 33.0594C12.008 33.1013 11.7386 33.4387 11.7804 33.813C11.8223 34.1872 12.1597 34.4567 12.534 34.4148Z" fill="#00B473"/>
<path d="M6.57698 47.7075C6.95126 47.6656 7.22072 47.3282 7.17883 46.954C7.13693 46.5797 6.79955 46.3102 6.42526 46.3521C6.05098 46.394 5.78152 46.7314 5.82342 47.1057C5.86531 47.48 6.20269 47.7494 6.57698 47.7075Z" fill="#00B473"/>
<path d="M5.86507 42.8809C6.23935 42.839 6.50881 42.5016 6.46691 42.1273C6.42502 41.753 6.08764 41.4836 5.71335 41.5255C5.33907 41.5674 5.06961 41.9047 5.1115 42.279C5.1534 42.6533 5.49078 42.9228 5.86507 42.8809Z" fill="#00B473"/>
<path d="M7.94319 51.3286C8.31747 51.2867 8.58693 50.9493 8.54504 50.5751C8.50314 50.2008 8.16576 49.9313 7.79147 49.9732C7.41719 50.0151 7.14773 50.3525 7.18963 50.7268C7.23152 51.1011 7.5689 51.3705 7.94319 51.3286Z" fill="#00B473"/>
<path d="M7.6761 42.8154C8.05038 42.7735 8.31984 42.4362 8.27795 42.0619C8.23605 41.6876 7.89867 41.4181 7.52438 41.46C7.1501 41.5019 6.88064 41.8393 6.92254 42.2136C6.96443 42.5879 7.30181 42.8573 7.6761 42.8154Z" fill="#00B473"/>
<path d="M8.80891 40.908C9.1832 40.8661 9.45265 40.5287 9.41076 40.1544C9.36886 39.7801 9.03148 39.5107 8.6572 39.5526C8.28291 39.5945 8.01345 39.9318 8.05535 40.3061C8.09724 40.6804 8.43462 40.9499 8.80891 40.908Z" fill="#00B473"/>
<path d="M10.4451 40.0557C10.8194 40.0138 11.0889 39.6764 11.047 39.3021C11.0051 38.9278 10.6677 38.6584 10.2934 38.7003C9.91914 38.7422 9.64969 39.0795 9.69158 39.4538C9.73348 39.8281 10.0709 40.0976 10.4451 40.0557Z" fill="#00B473"/>
<path d="M9.52473 34.6001C9.89902 34.5582 10.1685 34.2208 10.1266 33.8465C10.0847 33.4723 9.7473 33.2028 9.37302 33.2447C8.99873 33.2866 8.72928 33.624 8.77117 33.9983C8.81306 34.3725 9.15044 34.642 9.52473 34.6001Z" fill="#00B473"/>
<path d="M8.2967 35.7935C8.67099 35.7516 8.94045 35.4142 8.89855 35.0399C8.85666 34.6656 8.51927 34.3962 8.14499 34.4381C7.7707 34.48 7.50125 34.8173 7.54314 35.1916C7.58504 35.5659 7.92242 35.8354 8.2967 35.7935Z" fill="#00B473"/>
<path d="M10.3426 41.6582C10.7169 41.6163 10.9863 41.2789 10.9445 40.9046C10.9026 40.5304 10.5652 40.2609 10.1909 40.3028C9.8166 40.3447 9.54715 40.6821 9.58904 41.0564C9.63094 41.4306 9.96832 41.7001 10.3426 41.6582Z" fill="#00B473"/>
<path d="M7.13752 37.8394C7.51181 37.7975 7.78127 37.4601 7.73937 37.0858C7.69748 36.7115 7.36009 36.4421 6.98581 36.484C6.61152 36.5259 6.34207 36.8632 6.38396 37.2375C6.42586 37.6118 6.76324 37.8813 7.13752 37.8394Z" fill="#00B473"/>
<path d="M10.1292 49.7114C10.5035 49.6695 10.773 49.3322 10.7311 48.9579C10.6892 48.5836 10.3518 48.3141 9.97751 48.356C9.60323 48.3979 9.33377 48.7353 9.37566 49.1096C9.41756 49.4839 9.75494 49.7533 10.1292 49.7114Z" fill="#00B473"/>
<path d="M8.69807 49.1858C9.07236 49.1439 9.34181 48.8065 9.29992 48.4322C9.25802 48.0579 8.92064 47.7885 8.54636 47.8304C8.17207 47.8723 7.90261 48.2097 7.94451 48.5839C7.9864 48.9582 8.32378 49.2277 8.69807 49.1858Z" fill="#00B473"/>
<path d="M7.08332 49.7781C7.45761 49.7362 7.72707 49.3988 7.68517 49.0245C7.64328 48.6502 7.3059 48.3808 6.93161 48.4227C6.55732 48.4646 6.28787 48.802 6.32976 49.1762C6.37166 49.5505 6.70904 49.82 7.08332 49.7781Z" fill="#00B473"/>
<path d="M10.1346 51.2893C10.5089 51.2474 10.7783 50.91 10.7364 50.5358C10.6945 50.1615 10.3572 49.892 9.98288 49.9339C9.6086 49.9758 9.33914 50.3132 9.38103 50.6875C9.42293 51.0618 9.76031 51.3312 10.1346 51.2893Z" fill="#00B473"/>
<path d="M9.07063 53.124C9.44491 53.0821 9.71437 52.7448 9.67248 52.3705C9.63058 51.9962 9.2932 51.7267 8.91891 51.7686C8.54463 51.8105 8.27517 52.1479 8.31707 52.5222C8.35896 52.8965 8.69634 53.1659 9.07063 53.124Z" fill="#00B473"/>
<path d="M10.6741 52.7385C11.0484 52.6966 11.3179 52.3593 11.276 51.985C11.2341 51.6107 10.8967 51.3412 10.5224 51.3831C10.1481 51.425 9.87869 51.7624 9.92058 52.1367C9.96248 52.511 10.2999 52.7804 10.6741 52.7385Z" fill="#00B473"/>
<path d="M10.5967 4.34882C10.8785 4.32825 11.1235 4.53996 11.1441 4.82167C11.1647 5.10339 10.953 5.34844 10.6712 5.36901C10.3895 5.38958 10.1445 5.17787 10.1239 4.89616C10.1033 4.61444 10.315 4.36939 10.5967 4.34882Z" fill="#00B473"/>
<path d="M9.37684 5.90808C9.56465 5.89437 9.72802 6.03551 9.74173 6.22332C9.75545 6.41113 9.61431 6.5745 9.42649 6.58821C9.23868 6.60192 9.07531 6.46079 9.0616 6.27297C9.04788 6.08516 9.18902 5.9218 9.37684 5.90808Z" fill="#00B473"/>
<path d="M10.1161 6.67469C10.3039 6.66097 10.4673 6.80211 10.481 6.98992C10.4947 7.17773 10.3536 7.3411 10.1658 7.35481C9.97794 7.36852 9.81457 7.22739 9.80085 7.03958C9.78714 6.85176 9.92828 6.6884 10.1161 6.67469Z" fill="#00B473"/>
<path d="M9.24744 6.94324C9.43526 6.92953 9.59863 7.07066 9.61234 7.25847C9.62605 7.44629 9.48491 7.60965 9.2971 7.62337C9.10929 7.63708 8.94591 7.49594 8.9322 7.30813C8.91849 7.12032 9.05963 6.95695 9.24744 6.94324Z" fill="#00B473"/>
<path d="M8.75721 10.5343C8.94502 10.5206 9.10839 10.6617 9.1221 10.8495C9.13582 11.0374 8.99468 11.2007 8.80687 11.2144C8.61905 11.2281 8.45568 11.087 8.44197 10.8992C8.42825 10.7114 8.56939 10.548 8.75721 10.5343Z" fill="#00B473"/>
<path d="M10.3456 5.59803C10.5334 5.58431 10.6968 5.72545 10.7105 5.91326C10.7242 6.10107 10.5831 6.26444 10.3952 6.27815C10.2074 6.29186 10.0441 6.15073 10.0303 5.96292C10.0166 5.7751 10.1578 5.61174 10.3456 5.59803Z" fill="#00B473"/>
<path d="M8.41004 9.0553C8.59785 9.04159 8.76122 9.18272 8.77494 9.37054C8.78865 9.55835 8.64751 9.72171 8.4597 9.73543C8.27188 9.74914 8.10851 9.608 8.0948 9.42019C8.08109 9.23238 8.22222 9.06901 8.41004 9.0553Z" fill="#00B473"/>
<path d="M7.41432 9.46998C7.78994 9.44255 8.11669 9.72482 8.14411 10.1004C8.17154 10.4761 7.88926 10.8028 7.51363 10.8302C7.138 10.8577 6.81126 10.5754 6.78384 10.1998C6.75641 9.82413 7.03869 9.4974 7.41432 9.46998Z" fill="#00B473"/>
<path d="M9.8606 10.6589C10.2362 10.6315 10.563 10.9138 10.5904 11.2894C10.6178 11.665 10.3356 11.9918 9.95992 12.0192C9.58429 12.0466 9.25755 11.7643 9.23013 11.3887C9.2027 11.0131 9.48497 10.6864 9.8606 10.6589Z" fill="#00B473"/>
<path d="M6.85377 11.1519C7.2294 11.1244 7.55614 11.4067 7.58356 11.7823C7.61099 12.158 7.32872 12.4847 6.95309 12.5121C6.57746 12.5395 6.25072 12.2573 6.22329 11.8816C6.19586 11.506 6.47814 11.1793 6.85377 11.1519Z" fill="#00B473"/>
<path d="M9.57642 9.10718C9.95205 9.07976 10.2788 9.36203 10.3062 9.73765C10.3336 10.1133 10.0514 10.44 9.67574 10.4674C9.30011 10.4949 8.97337 10.2126 8.94595 9.83696C8.91852 9.46134 9.2008 9.13461 9.57642 9.10718Z" fill="#00B473"/>
<path d="M8.19459 7.49854C8.57022 7.47112 8.89696 7.75339 8.92438 8.12901C8.95181 8.50463 8.66954 8.83137 8.29391 8.85879C7.91828 8.88622 7.59154 8.60394 7.56411 8.22832C7.53668 7.8527 7.81896 7.52597 8.19459 7.49854Z" fill="#00B473"/>
<path d="M9.84107 7.5835C10.2167 7.55608 10.5434 7.83835 10.5709 8.21397C10.5983 8.58959 10.316 8.91633 9.94039 8.94375C9.56476 8.97118 9.23802 8.68891 9.2106 8.31328C9.18317 7.93766 9.46544 7.61093 9.84107 7.5835Z" fill="#00B473"/>
<path d="M8.83901 18.8743C9.58758 18.7905 10.1265 18.1157 10.0427 17.3672C9.95891 16.6186 9.28415 16.0797 8.53558 16.1635C7.78701 16.2473 7.2481 16.922 7.33189 17.6706C7.41568 18.4192 8.09044 18.9581 8.83901 18.8743Z" fill="#00B473"/>
<path d="M8.8644 21.8565C9.61297 21.7727 10.1519 21.0979 10.0681 20.3493C9.9843 19.6008 9.30954 19.0619 8.56097 19.1456C7.8124 19.2294 7.27349 19.9042 7.35728 20.6528C7.44107 21.4013 8.11583 21.9402 8.8644 21.8565Z" fill="#00B473"/>
<path d="M18.6051 24.2678C19.3537 24.184 19.8926 23.5093 19.8088 22.7607C19.725 22.0121 19.0503 21.4732 18.3017 21.557C17.5531 21.6408 17.0142 22.3156 17.098 23.0641C17.1818 23.8127 17.8566 24.3516 18.6051 24.2678Z" fill="#00B473"/>
<path d="M15.3585 35.1279C16.1071 35.0442 16.646 34.3694 16.5622 33.6208C16.4784 32.8723 15.8037 32.3333 15.0551 32.4171C14.3065 32.5009 13.7676 33.1757 13.8514 33.9243C13.9352 34.6728 14.61 35.2117 15.3585 35.1279Z" fill="#00B473"/>
<path d="M12.7667 42.6231C13.5153 42.5393 14.0542 41.8645 13.9704 41.1159C13.8866 40.3674 13.2119 39.8285 12.4633 39.9123C11.7147 39.996 11.1758 40.6708 11.2596 41.4194C11.3434 42.1679 12.0182 42.7068 12.7667 42.6231Z" fill="#00B473"/>
<path d="M9.5353 38.5205C10.2839 38.4367 10.8228 37.762 10.739 37.0134C10.6552 36.2648 9.98044 35.7259 9.23187 35.8097C8.4833 35.8935 7.94439 36.5683 8.02818 37.3168C8.11197 38.0654 8.78673 38.6043 9.5353 38.5205Z" fill="#00B473"/>
<path d="M6.46645 41.2483C7.21502 41.1645 7.75393 40.4898 7.67014 39.7412C7.58635 38.9926 6.91159 38.4537 6.16302 38.5375C5.41445 38.6213 4.87554 39.296 4.95933 40.0446C5.04312 40.7932 5.71788 41.3321 6.46645 41.2483Z" fill="#00B473"/>
<path d="M10.2418 44.5869C10.9904 44.5031 11.5293 43.8284 11.4455 43.0798C11.3617 42.3312 10.687 41.7923 9.93841 41.8761C9.18984 41.9599 8.65093 42.6347 8.73472 43.3832C8.81851 44.1318 9.49327 44.6707 10.2418 44.5869Z" fill="#00B473"/>
<path d="M6.35317 45.7085C7.10174 45.6247 7.64065 44.95 7.55686 44.2014C7.47307 43.4528 6.79831 42.9139 6.04974 42.9977C5.30117 43.0815 4.76226 43.7563 4.84605 44.5048C4.92984 45.2534 5.6046 45.7923 6.35317 45.7085Z" fill="#00B473"/>
<path d="M9.20522 47.5847C9.95379 47.5009 10.4927 46.8262 10.4089 46.0776C10.3251 45.329 9.65036 44.7901 8.90179 44.8739C8.15322 44.9577 7.61431 45.6325 7.6981 46.381C7.78189 47.1296 8.45665 47.6685 9.20522 47.5847Z" fill="#00B473"/>
<path d="M18.6632 33.6946C19.4118 33.6108 19.9507 32.936 19.8669 32.1875C19.7831 31.4389 19.1084 30.9 18.3598 30.9838C17.6112 31.0676 17.0723 31.7423 17.1561 32.4909C17.2399 33.2395 17.9147 33.7784 18.6632 33.6946Z" fill="#00B473"/>
<path d="M15.5418 22.5968C16.4775 22.4921 17.1512 21.6486 17.0464 20.7129C16.9417 19.7772 16.0982 19.1036 15.1625 19.2083C14.2268 19.313 13.5532 20.1565 13.6579 21.0922C13.7626 22.0279 14.6061 22.7016 15.5418 22.5968Z" fill="#00B473"/>
<path d="M12.1321 27.8134C13.0679 27.7086 13.7415 26.8652 13.6368 25.9295C13.532 24.9938 12.6886 24.3201 11.7529 24.4249C10.8171 24.5296 10.1435 25.373 10.2482 26.3088C10.353 27.2445 11.1964 27.9181 12.1321 27.8134Z" fill="#00B473"/>
<path d="M15.7127 26.3134C16.6484 26.2086 17.3221 25.3652 17.2173 24.4295C17.1126 23.4938 16.2691 22.8201 15.3334 22.9249C14.3977 23.0296 13.7241 23.873 13.8288 24.8088C13.9335 25.7445 14.777 26.4181 15.7127 26.3134Z" fill="#00B473"/>
<path d="M18.14 37.5956C19.0757 37.4909 19.7493 36.6474 19.6446 35.7117C19.5398 34.776 18.6964 34.1023 17.7607 34.2071C16.825 34.3118 16.1513 35.1553 16.256 36.091C16.3608 37.0267 17.2042 37.7003 18.14 37.5956Z" fill="#00B473"/>
<path d="M13.7812 39.4217C14.9041 39.296 15.7125 38.2838 15.5868 37.161C15.4611 36.0381 14.4489 35.2298 13.3261 35.3554C12.2032 35.4811 11.3949 36.4933 11.5205 37.6161C11.6462 38.739 12.6584 39.5473 13.7812 39.4217Z" fill="#00B473"/>
<path d="M12.6831 32.6824C13.8059 32.5567 14.6143 31.5446 14.4886 30.4217C14.3629 29.2989 13.3508 28.4905 12.2279 28.6162C11.1051 28.7419 10.2967 29.754 10.4224 30.8769C10.5481 31.9997 11.5602 32.8081 12.6831 32.6824Z" fill="#00B473"/>
<path d="M17.2378 30.4576C18.3606 30.3319 19.169 29.3197 19.0433 28.1969C18.9176 27.074 17.9055 26.2656 16.7826 26.3913C15.6598 26.517 14.8514 27.5292 14.9771 28.652C15.1028 29.7749 16.1149 30.5832 17.2378 30.4576Z" fill="#00B473"/>
<path d="M9.18651 15.8502C9.74794 15.7874 10.1521 15.2813 10.0893 14.7199C10.0264 14.1585 9.52037 13.7543 8.95894 13.8171C8.39751 13.88 7.99333 14.386 8.05617 14.9475C8.11901 15.5089 8.62508 15.9131 9.18651 15.8502Z" fill="#00B473"/>
<path d="M11.6689 21.7826C12.2304 21.7198 12.6345 21.2137 12.5717 20.6523C12.5089 20.0908 12.0028 19.6867 11.4414 19.7495C10.8799 19.8123 10.4757 20.3184 10.5386 20.8798C10.6014 21.4413 11.1075 21.8454 11.6689 21.7826Z" fill="#00B473"/>
<path d="M13.1782 23.9276C13.7396 23.8648 14.1438 23.3587 14.081 22.7973C14.0181 22.2359 13.5121 21.8317 12.9506 21.8945C12.3892 21.9574 11.985 22.4634 12.0479 23.0249C12.1107 23.5863 12.6168 23.9905 13.1782 23.9276Z" fill="#00B473"/>
<path d="M11.5073 15.2328C12.0687 15.17 12.4729 14.6639 12.4101 14.1025C12.3472 13.541 11.8412 13.1368 11.2797 13.1997C10.7183 13.2625 10.3141 13.7686 10.377 14.33C10.4398 14.8915 10.9459 15.2956 11.5073 15.2328Z" fill="#00B473"/>
<path d="M8.84764 13.7326C9.40907 13.6697 9.81326 13.1636 9.75041 12.6022C9.68757 12.0408 9.1815 11.6366 8.62007 11.6994C8.05864 11.7623 7.65446 12.2684 7.7173 12.8298C7.78014 13.3912 8.28622 13.7954 8.84764 13.7326Z" fill="#00B473"/>
<path d="M6.80223 15.2328C7.36366 15.17 7.76784 14.6639 7.705 14.1025C7.64216 13.541 7.13609 13.1368 6.57466 13.1997C6.01323 13.2625 5.60905 13.7686 5.67189 14.33C5.73473 14.8915 6.24081 15.2956 6.80223 15.2328Z" fill="#00B473"/>
<path d="M11.5879 0.233782C11.3081 0.272679 11.1129 0.531017 11.1518 0.810793C11.1907 1.09057 11.449 1.28584 11.7288 1.24694C12.0085 1.20805 12.2038 0.949711 12.1649 0.669935C12.126 0.390159 11.8677 0.194885 11.5879 0.233782Z" fill="#C4292E"/>
<path d="M13.1074 1.50262C12.9209 1.52855 12.7907 1.70077 12.8167 1.88729C12.8426 2.07381 13.0148 2.20399 13.2013 2.17806C13.3879 2.15213 13.518 1.9799 13.4921 1.79339C13.4662 1.60687 13.294 1.47669 13.1074 1.50262Z" fill="#C4292E"/>
<path d="M12.5444 2.40716C12.3579 2.43309 12.2278 2.60531 12.2537 2.79183C12.2796 2.97835 12.4518 3.10853 12.6384 3.0826C12.8249 3.05667 12.9551 2.88444 12.9291 2.69792C12.9032 2.51141 12.731 2.38123 12.5444 2.40716Z" fill="#C4292E"/>
<path d="M13.4502 2.48772C13.2637 2.51366 13.1335 2.68588 13.1594 2.87239C13.1854 3.05891 13.3576 3.18909 13.5441 3.16316C13.7306 3.13723 13.8608 2.96501 13.8349 2.77849C13.809 2.59197 13.6367 2.46179 13.4502 2.48772Z" fill="#C4292E"/>
<path d="M14.6817 5.89666C14.4951 5.92259 14.365 6.09481 14.3909 6.28133C14.4168 6.46785 14.589 6.59803 14.7756 6.5721C14.9621 6.54617 15.0923 6.37394 15.0663 6.18743C15.0404 6.00091 14.8682 5.87073 14.6817 5.89666Z" fill="#C4292E"/>
<path d="M12.0952 1.40252C11.9087 1.42845 11.7785 1.60068 11.8045 1.78719C11.8304 1.97371 12.0026 2.10389 12.1891 2.07796C12.3757 2.05203 12.5058 1.87981 12.4799 1.69329C12.454 1.50677 12.2817 1.37659 12.0952 1.40252Z" fill="#C4292E"/>
<path d="M16.2959 7.60027C16.1094 7.6262 15.9792 7.79843 16.0051 7.98495C16.0311 8.17147 16.2033 8.30164 16.3898 8.27571C16.5763 8.24978 16.7065 8.07756 16.6806 7.89104C16.6547 7.70452 16.4824 7.57434 16.2959 7.60027Z" fill="#C4292E"/>
<path d="M16.5723 9.59271C16.3858 9.61864 16.2556 9.79086 16.2815 9.97738C16.3074 10.1639 16.4797 10.2941 16.6662 10.2681C16.8527 10.2422 16.9829 10.07 16.957 9.88347C16.931 9.69696 16.7588 9.56677 16.5723 9.59271Z" fill="#C4292E"/>
<path d="M15.8882 12.0973C15.7017 12.1233 15.5715 12.2955 15.5974 12.482C15.6234 12.6685 15.7956 12.7987 15.9821 12.7728C16.1686 12.7469 16.2988 12.5746 16.2729 12.3881C16.2469 12.2016 16.0747 12.0714 15.8882 12.0973Z" fill="#C4292E"/>
<path d="M15.105 13.8932C14.9185 13.9192 14.7883 14.0914 14.8142 14.2779C14.8402 14.4644 15.0124 14.5946 15.1989 14.5687C15.3854 14.5428 15.5156 14.3705 15.4897 14.184C15.4637 13.9975 15.2915 13.8673 15.105 13.8932Z" fill="#C4292E"/>
<path d="M14.2837 14.2241C14.0972 14.25 13.967 14.4222 13.9929 14.6087C14.0189 14.7952 14.1911 14.9254 14.3776 14.8995C14.5641 14.8736 14.6943 14.7013 14.6684 14.5148C14.6424 14.3283 14.4702 14.1981 14.2837 14.2241Z" fill="#C4292E"/>
<path d="M16.1592 14.5991C15.9727 14.625 15.8425 14.7972 15.8684 14.9837C15.8944 15.1702 16.0666 15.3004 16.2531 15.2745C16.4396 15.2486 16.5698 15.0763 16.5439 14.8898C16.5179 14.7033 16.3457 14.5731 16.1592 14.5991Z" fill="#C4292E"/>
<path d="M16.1245 16.9858C15.938 17.0117 15.8078 17.1839 15.8338 17.3704C15.8597 17.557 16.0319 17.6871 16.2184 17.6612C16.4049 17.6353 16.5351 17.4631 16.5092 17.2765C16.4833 17.09 16.311 16.9598 16.1245 16.9858Z" fill="#C4292E"/>
<path d="M13.0215 14.1559C12.835 14.1819 12.7048 14.3541 12.7307 14.5406C12.7567 14.7271 12.9289 14.8573 13.1154 14.8314C13.3019 14.8054 13.4321 14.6332 13.4062 14.4467C13.3802 14.2602 13.208 14.13 13.0215 14.1559Z" fill="#C4292E"/>
<path d="M14.0786 16.8837C13.8921 16.9097 13.7619 17.0819 13.7879 17.2684C13.8138 17.4549 13.986 17.5851 14.1725 17.5592C14.3591 17.5332 14.4892 17.361 14.4633 17.1745C14.4374 16.988 14.2651 16.8578 14.0786 16.8837Z" fill="#C4292E"/>
<path d="M6.78224 19.4064C6.59572 19.4324 6.46554 19.6046 6.49148 19.7911C6.51741 19.9776 6.68963 20.1078 6.87615 20.0819C7.06266 20.0559 7.19285 19.8837 7.16691 19.6972C7.14098 19.5107 6.96876 19.3805 6.78224 19.4064Z" fill="#C4292E"/>
<path d="M2.65675 24.3508C2.47024 24.3767 2.34005 24.5489 2.36599 24.7354C2.39192 24.9219 2.56414 25.0521 2.75066 25.0262C2.93718 25.0003 3.06736 24.828 3.04143 24.6415C3.01549 24.455 2.84327 24.3248 2.65675 24.3508Z" fill="#C4292E"/>
<path d="M3.71339 25.8852C3.52688 25.9111 3.39669 26.0833 3.42262 26.2699C3.44856 26.4564 3.62078 26.5866 3.8073 26.5606C3.99382 26.5347 4.124 26.3625 4.09807 26.176C4.07214 25.9894 3.89991 25.8593 3.71339 25.8852Z" fill="#C4292E"/>
<path d="M4.6006 26.0898C4.41409 26.1157 4.2839 26.2879 4.30983 26.4744C4.33577 26.661 4.50799 26.7911 4.69451 26.7652C4.88103 26.7393 5.0112 26.5671 4.98527 26.3805C4.95934 26.194 4.78712 26.0638 4.6006 26.0898Z" fill="#C4292E"/>
<path d="M7.87306 25.9875C7.68654 26.0134 7.55636 26.1856 7.5823 26.3722C7.60823 26.5587 7.78045 26.6889 7.96697 26.6629C8.15348 26.637 8.28367 26.4648 8.25773 26.2782C8.2318 26.0917 8.05958 25.9615 7.87306 25.9875Z" fill="#C4292E"/>
<path d="M8.93019 24.8964C8.74367 24.9223 8.61349 25.0946 8.63942 25.2811C8.66536 25.4676 8.83758 25.5978 9.0241 25.5719C9.21061 25.5459 9.34079 25.3737 9.31486 25.1872C9.28893 25.0007 9.11671 24.8705 8.93019 24.8964Z" fill="#C4292E"/>
<path d="M6.71437 25.6122C6.52785 25.6382 6.39767 25.8104 6.4236 25.9969C6.44954 26.1834 6.62176 26.3136 6.80827 26.2877C6.99479 26.2617 7.12497 26.0895 7.09904 25.903C7.07311 25.7165 6.90089 25.5863 6.71437 25.6122Z" fill="#C4292E"/>
<path d="M6.37258 24.6916C6.18606 24.7175 6.05588 24.8897 6.08181 25.0763C6.10774 25.2628 6.27996 25.393 6.46648 25.367C6.653 25.3411 6.78318 25.1689 6.75725 24.9823C6.73132 24.7958 6.55909 24.6656 6.37258 24.6916Z" fill="#C4292E"/>
<path d="M5.82765 25.5783C5.64113 25.6042 5.51095 25.7765 5.53689 25.963C5.56282 26.1495 5.73504 26.2797 5.92156 26.2537C6.10807 26.2278 6.23826 26.0556 6.21232 25.8691C6.18639 25.6825 6.01417 25.5524 5.82765 25.5783Z" fill="#C4292E"/>
<path d="M9.44142 25.7145C9.2549 25.7405 9.12472 25.9127 9.15065 26.0992C9.17658 26.2857 9.34881 26.4159 9.53533 26.39C9.72184 26.364 9.85203 26.1918 9.82609 26.0053C9.80016 25.8188 9.62794 25.6886 9.44142 25.7145Z" fill="#C4292E"/>
<path d="M8.38478 27.1122C8.19827 27.1382 8.06808 27.3104 8.09401 27.4969C8.11995 27.6834 8.29217 27.8136 8.47869 27.7877C8.66521 27.7617 8.79538 27.5895 8.76945 27.403C8.74352 27.2165 8.5713 27.0863 8.38478 27.1122Z" fill="#C4292E"/>
<path d="M8.69142 26.1579C8.5049 26.1838 8.37472 26.3561 8.40066 26.5426C8.42659 26.7291 8.59881 26.8593 8.78533 26.8333C8.97184 26.8074 9.10203 26.6352 9.0761 26.4487C9.05016 26.2621 8.87794 26.132 8.69142 26.1579Z" fill="#C4292E"/>
<path d="M9.95314 24.6916C9.76662 24.7175 9.63644 24.8897 9.66237 25.0763C9.6883 25.2628 9.86053 25.393 10.047 25.367C10.2336 25.3411 10.3637 25.1689 10.3378 24.9823C10.3119 24.7958 10.1397 24.6656 9.95314 24.6916Z" fill="#C4292E"/>
<path d="M7.8047 32.6703C7.61818 32.6963 7.48801 32.8685 7.51394 33.055C7.53987 33.2415 7.71209 33.3717 7.89861 33.3458C8.08512 33.3198 8.21531 33.1476 8.18938 32.9611C8.16344 32.7746 7.99122 32.6444 7.8047 32.6703Z" fill="#C4292E"/>
<path d="M7.94142 23.6005C7.7549 23.6264 7.62472 23.7987 7.65065 23.9852C7.67659 24.1717 7.84881 24.3019 8.03533 24.276C8.22184 24.25 8.35203 24.0778 8.32609 23.8913C8.30016 23.7048 8.12794 23.5746 7.94142 23.6005Z" fill="#C4292E"/>
<path d="M1.4966 25.7487C1.31008 25.7746 1.1799 25.9469 1.20583 26.1334C1.23176 26.3199 1.40399 26.4501 1.5905 26.4241C1.77702 26.3982 1.9072 26.226 1.88127 26.0395C1.85534 25.853 1.68312 25.7228 1.4966 25.7487Z" fill="#C4292E"/>
<path d="M5.38429 36.1821C5.19778 36.208 5.06759 36.3802 5.09353 36.5667C5.11946 36.7532 5.29168 36.8834 5.4782 36.8575C5.66472 36.8316 5.7949 36.6593 5.76897 36.4728C5.74303 36.2863 5.57081 36.1561 5.38429 36.1821Z" fill="#C4292E"/>
<path d="M2.96339 32.3635C2.77688 32.3894 2.6467 32.5616 2.67263 32.7481C2.69856 32.9346 2.87078 33.0648 3.0573 33.0389C3.24382 33.013 3.374 32.8407 3.34807 32.6542C3.32214 32.4677 3.14991 32.3375 2.96339 32.3635Z" fill="#C4292E"/>
<path d="M2.47609 23.5871C2.28957 23.613 2.15939 23.7852 2.18532 23.9718C2.21125 24.1583 2.38348 24.2885 2.57 24.2625C2.75651 24.2366 2.88669 24.0644 2.86076 23.8779C2.83483 23.6913 2.66261 23.5612 2.47609 23.5871Z" fill="#C4292E"/>
<path d="M0.814957 26.3625C0.628439 26.3884 0.498259 26.5606 0.52419 26.7472C0.550121 26.9337 0.722345 27.0639 0.908863 27.0379C1.09538 27.012 1.22556 26.8398 1.19963 26.6532C1.1737 26.4667 1.00147 26.3365 0.814957 26.3625Z" fill="#C4292E"/>
<path d="M12.5371 43.9885C12.3506 44.0144 12.2204 44.1866 12.2464 44.3731C12.2723 44.5596 12.4445 44.6898 12.631 44.6639C12.8175 44.638 12.9477 44.4657 12.9218 44.2792C12.8959 44.0927 12.7236 43.9625 12.5371 43.9885Z" fill="#C4292E"/>
<path d="M15.1358 41.8764C14.9492 41.9023 14.8191 42.0745 14.845 42.2611C14.8709 42.4476 15.0431 42.5778 15.2297 42.5518C15.4162 42.5259 15.5464 42.3537 15.5204 42.1672C15.4945 41.9806 15.3223 41.8505 15.1358 41.8764Z" fill="#C4292E"/>
<path d="M0.814958 30.6928C0.62844 30.7187 0.498259 30.891 0.52419 31.0775C0.550121 31.264 0.722345 31.3942 0.908863 31.3682C1.09538 31.3423 1.22556 31.1701 1.19963 30.9836C1.1737 30.7971 1.00148 30.6669 0.814958 30.6928Z" fill="#C4292E"/>
<path d="M1.73586 30.1469C1.54934 30.1728 1.41916 30.3451 1.44509 30.5316C1.47102 30.7181 1.64324 30.8483 1.82976 30.8223C2.01628 30.7964 2.14646 30.6242 2.12053 30.4377C2.0946 30.2512 1.92237 30.121 1.73586 30.1469Z" fill="#C4292E"/>
<path d="M6.6797 32.0224C6.49318 32.0483 6.36301 32.2205 6.38894 32.4071C6.41487 32.5936 6.58709 32.7238 6.77361 32.6978C6.96012 32.6719 7.09031 32.4997 7.06438 32.3132C7.03844 32.1266 6.86622 31.9965 6.6797 32.0224Z" fill="#C4292E"/>
<path d="M6.44094 30.9313C6.25442 30.9573 6.12424 31.1295 6.15017 31.316C6.1761 31.5025 6.34832 31.6327 6.53484 31.6068C6.72136 31.5808 6.85154 31.4086 6.82561 31.2221C6.79968 31.0356 6.62745 30.9054 6.44094 30.9313Z" fill="#C4292E"/>
<path d="M1.08791 31.7497C0.901389 31.7756 0.771208 31.9478 0.797139 32.1344C0.823071 32.3209 0.995294 32.4511 1.18181 32.4251C1.36833 32.3992 1.49851 32.227 1.47258 32.0405C1.44665 31.8539 1.27442 31.7238 1.08791 31.7497Z" fill="#C4292E"/>
<path d="M2.38332 34.0683C2.1968 34.0942 2.06662 34.2664 2.09255 34.453C2.11848 34.6395 2.2907 34.7697 2.47722 34.7437C2.66374 34.7178 2.79392 34.5456 2.76799 34.3591C2.74206 34.1725 2.56983 34.0424 2.38332 34.0683Z" fill="#C4292E"/>
<path d="M1.57863 24.5492C1.29886 24.5881 1.10359 24.8464 1.14248 25.1262C1.18138 25.406 1.43972 25.6013 1.71949 25.5624C1.99927 25.5235 2.19454 25.2651 2.15565 24.9854C2.11675 24.7056 1.85841 24.5103 1.57863 24.5492Z" fill="#C4292E"/>
<path d="M2.94729 22.1591C2.66751 22.198 2.47224 22.4563 2.51114 22.7361C2.55003 23.0159 2.80837 23.2111 3.08815 23.1722C3.36792 23.1333 3.56319 22.875 3.5243 22.5952C3.4854 22.3154 3.22707 22.1202 2.94729 22.1591Z" fill="#C4292E"/>
<path d="M15.5112 11.1171C15.3247 11.1431 15.1945 11.3153 15.2205 11.5018C15.2464 11.6883 15.4186 11.8185 15.6051 11.7926C15.7917 11.7666 15.9218 11.5944 15.8959 11.4079C15.87 11.2214 15.6978 11.0912 15.5112 11.1171Z" fill="#C4292E"/>
<path d="M14.897 17.1904C14.7105 17.2163 14.5803 17.3885 14.6062 17.575C14.6322 17.7616 14.8044 17.8917 14.9909 17.8658C15.1774 17.8399 15.3076 17.6676 15.2817 17.4811C15.2557 17.2946 15.0835 17.1644 14.897 17.1904Z" fill="#C4292E"/>
<path d="M15.2041 14.8376C15.0176 14.8635 14.8874 15.0357 14.9133 15.2222C14.9393 15.4088 15.1115 15.5389 15.298 15.513C15.4845 15.4871 15.6147 15.3149 15.5888 15.1283C15.5629 14.9418 15.3906 14.8116 15.2041 14.8376Z" fill="#C4292E"/>
<path d="M14.7119 4.37786C14.5254 4.40379 14.3952 4.57601 14.4212 4.76253C14.4471 4.94905 14.6193 5.07923 14.8058 5.0533C14.9924 5.02737 15.1225 4.85514 15.0966 4.66863C15.0707 4.48211 14.8984 4.35193 14.7119 4.37786Z" fill="#C4292E"/>
<path d="M16.8116 39.3827C16.4385 39.4345 16.1782 39.779 16.23 40.152C16.2819 40.5251 16.6263 40.7854 16.9994 40.7336C17.3724 40.6817 17.6328 40.3372 17.5809 39.9642C17.529 39.5912 17.1846 39.3308 16.8116 39.3827Z" fill="#C4292E"/>
<path d="M0.675323 27.3983C0.302288 27.4502 0.0419263 27.7946 0.0937887 28.1676C0.145651 28.5407 0.490098 28.801 0.863133 28.7492C1.23617 28.6973 1.49653 28.3529 1.44467 27.9798C1.39281 27.6068 1.04836 27.3464 0.675323 27.3983Z" fill="#C4292E"/>
<path d="M2.61917 25.1139C2.24614 25.1657 1.98577 25.5102 2.03764 25.8832C2.0895 26.2563 2.43395 26.5166 2.80698 26.4648C3.18002 26.4129 3.44038 26.0684 3.38852 25.6954C3.33665 25.3224 2.99221 25.062 2.61917 25.1139Z" fill="#C4292E"/>
<path d="M0.743196 29.0006C0.37016 29.0525 0.109798 29.3969 0.161661 29.7699C0.213523 30.143 0.557971 30.4033 0.931006 30.3515C1.30404 30.2996 1.5644 29.9552 1.51254 29.5821C1.46068 29.2091 1.11623 28.9487 0.743196 29.0006Z" fill="#C4292E"/>
<path d="M7.73343 24.4999C7.36039 24.5517 7.10003 24.8962 7.15189 25.2692C7.20376 25.6422 7.5482 25.9026 7.92124 25.8507C8.29427 25.7989 8.55464 25.4544 8.50277 25.0814C8.45091 24.7084 8.10646 24.448 7.73343 24.4999Z" fill="#C4292E"/>
<path d="M9.57523 26.6139C9.20219 26.6657 8.94183 27.0102 8.99369 27.3832C9.04555 27.7563 9.39 28.0166 9.76304 27.9648C10.1361 27.9129 10.3964 27.5684 10.3446 27.1954C10.2927 26.8224 9.94826 26.562 9.57523 26.6139Z" fill="#C4292E"/>
<path d="M9.37064 23.3407C8.9976 23.3925 8.73724 23.737 8.7891 24.11C8.84096 24.4831 9.18541 24.7434 9.55845 24.6916C9.93148 24.6397 10.1918 24.2953 10.14 23.9222C10.0881 23.5492 9.74367 23.2888 9.37064 23.3407Z" fill="#C4292E"/>
<path d="M7.08597 21.67C6.71293 21.7219 6.45257 22.0663 6.50443 22.4394C6.55629 22.8124 6.90074 23.0728 7.27378 23.0209C7.64681 22.969 7.90718 22.6246 7.85531 22.2516C7.80345 21.8785 7.459 21.6182 7.08597 21.67Z" fill="#C4292E"/>
<path d="M6.64261 23.1703C6.26957 23.2221 6.00921 23.5666 6.06107 23.9396C6.11293 24.3127 6.45738 24.573 6.83042 24.5212C7.20346 24.4693 7.46382 24.1248 7.41195 23.7518C7.36009 23.3788 7.01565 23.1184 6.64261 23.1703Z" fill="#C4292E"/>
<path d="M8.65433 22.1131C8.28129 22.165 8.02093 22.5095 8.07279 22.8825C8.12465 23.2555 8.4691 23.5159 8.84214 23.464C9.21517 23.4122 9.47554 23.0677 9.42367 22.6947C9.37181 22.3216 9.02736 22.0613 8.65433 22.1131Z" fill="#C4292E"/>
<path d="M6.06253 17.8851C5.68949 17.937 5.42913 18.2814 5.48099 18.6545C5.53286 19.0275 5.8773 19.2879 6.25034 19.236C6.62337 19.1841 6.88374 18.8397 6.83188 18.4667C6.78001 18.0936 6.43556 17.8333 6.06253 17.8851Z" fill="#C4292E"/>
<path d="M9.03226 28.0023C8.65922 28.0542 8.39886 28.3986 8.45072 28.7716C8.50258 29.1447 8.84703 29.405 9.22007 29.3532C9.5931 29.3013 9.85346 28.9569 9.8016 28.5838C9.74974 28.2108 9.40529 27.9504 9.03226 28.0023Z" fill="#C4292E"/>
<path d="M4.17772 35.8756C3.81023 35.958 3.57913 36.3227 3.66155 36.6902C3.74397 37.0577 4.1087 37.2888 4.47619 37.2064C4.84369 37.1239 5.07479 36.7592 4.99236 36.3917C4.90994 36.0242 4.54521 35.7931 4.17772 35.8756Z" fill="#C4292E"/>
<path d="M3.3013 34.5926C2.92826 34.6445 2.6679 34.9889 2.71976 35.362C2.77163 35.735 3.11607 35.9954 3.48911 35.9435C3.86214 35.8917 4.12251 35.5472 4.07065 35.1742C4.01878 34.8011 3.67433 34.5408 3.3013 34.5926Z" fill="#C4292E"/>
<path d="M5.41507 36.9796C5.04204 37.0315 4.78167 37.3759 4.83353 37.7489C4.8854 38.122 5.22985 38.3823 5.60288 38.3305C5.97592 38.2786 6.23628 37.9342 6.18442 37.5611C6.13255 37.1881 5.78811 36.9277 5.41507 36.9796Z" fill="#C4292E"/>
<path d="M2.20999 30.8761C1.83696 30.9279 1.5766 31.2724 1.62846 31.6454C1.68032 32.0185 2.02477 32.2788 2.3978 32.227C2.77084 32.1751 3.0312 31.8307 2.97934 31.4576C2.92748 31.0846 2.58303 30.8242 2.20999 30.8761Z" fill="#C4292E"/>
<path d="M1.93655 32.5809C1.56352 32.6328 1.30316 32.9772 1.35502 33.3503C1.40688 33.7233 1.75133 33.9837 2.12436 33.9318C2.4974 33.8799 2.75776 33.5355 2.7059 33.1624C2.65404 32.7894 2.30959 32.529 1.93655 32.5809Z" fill="#C4292E"/>
<path d="M17.2339 8.15807C16.8609 8.20993 16.6005 8.55438 16.6524 8.92741C16.7042 9.30045 17.0487 9.56081 17.4217 9.50894C17.7948 9.45708 18.0551 9.11263 18.0033 8.7396C17.9514 8.36657 17.607 8.1062 17.2339 8.15807Z" fill="#C4292E"/>
<path d="M18.0742 12.9642C17.7012 13.0161 17.4409 13.3605 17.4927 13.7336C17.5446 14.1066 17.889 14.367 18.2621 14.3151C18.6351 14.2632 18.8955 13.9188 18.8436 13.5458C18.7917 13.1727 18.4473 12.9124 18.0742 12.9642Z" fill="#C4292E"/>
<path d="M15.0303 15.7711C14.6573 15.823 14.3969 16.1674 14.4488 16.5404C14.5006 16.9135 14.8451 17.1738 15.2181 17.122C15.5912 17.0701 15.8515 16.7257 15.7996 16.3526C15.7478 15.9796 15.4033 15.7192 15.0303 15.7711Z" fill="#C4292E"/>
<path d="M13.6324 14.9188C13.2593 14.9707 12.999 15.3151 13.0508 15.6882C13.1027 16.0612 13.4471 16.3215 13.8202 16.2697C14.1932 16.2178 14.4536 15.8734 14.4017 15.5003C14.3498 15.1273 14.0054 14.8669 13.6324 14.9188Z" fill="#C4292E"/>
<path d="M15.772 4.57481C15.399 4.62668 15.1386 4.97112 15.1905 5.34416C15.2423 5.71719 15.5868 5.97756 15.9598 5.92569C16.3328 5.87383 16.5932 5.52938 16.5413 5.15635C16.4895 4.78331 16.145 4.52295 15.772 4.57481Z" fill="#C4292E"/>
<path d="M16.2652 13.0777C15.8921 13.1296 15.6318 13.4741 15.6836 13.8471C15.7355 14.2201 16.0799 14.4805 16.453 14.4286C16.826 14.3768 17.0864 14.0323 17.0345 13.6593C16.9827 13.2862 16.6382 13.0259 16.2652 13.0777Z" fill="#C4292E"/>
<path d="M15.5078 17.7486C15.1348 17.8005 14.8744 18.145 14.9263 18.518C14.9782 18.891 15.3226 19.1514 15.6957 19.0995C16.0687 19.0477 16.3291 18.7032 16.2772 18.3302C16.2253 17.9571 15.8809 17.6968 15.5078 17.7486Z" fill="#C4292E"/>
<path d="M17.0078 17.5101C16.6348 17.562 16.3744 17.9064 16.4263 18.2795C16.4782 18.6525 16.8226 18.9129 17.1957 18.861C17.5687 18.8091 17.8291 18.4647 17.7772 18.0917C17.7253 17.7186 17.3809 17.4583 17.0078 17.5101Z" fill="#C4292E"/>
<path d="M13.6294 6.24986C13.2564 6.30173 12.996 6.64617 13.0479 7.01921C13.0998 7.39224 13.4442 7.6526 13.8172 7.60074C14.1903 7.54888 14.4506 7.20443 14.3988 6.8314C14.3469 6.45836 14.0025 6.198 13.6294 6.24986Z" fill="#C4292E"/>
<path d="M15.0743 6.73717C14.7012 6.78903 14.4409 7.13348 14.4927 7.50651C14.5446 7.87955 14.889 8.13991 15.2621 8.08805C15.6351 8.03618 15.8955 7.69174 15.8436 7.3187C15.7917 6.94567 15.4473 6.68531 15.0743 6.73717Z" fill="#C4292E"/>
<path d="M16.6724 6.10191C16.2994 6.15378 16.039 6.49822 16.0909 6.87126C16.1427 7.24429 16.4872 7.50465 16.8602 7.45279C17.2332 7.40093 17.4936 7.05648 17.4417 6.68345C17.3899 6.31041 17.0454 6.05005 16.6724 6.10191Z" fill="#C4292E"/>
<path d="M13.5825 4.67272C13.2095 4.72458 12.9492 5.06902 13.001 5.44206C13.0529 5.81509 13.3973 6.07546 13.7704 6.02359C14.1434 5.97173 14.4038 5.62728 14.3519 5.25425C14.3 4.88121 13.9556 4.62085 13.5825 4.67272Z" fill="#C4292E"/>
<path d="M14.5967 2.81017C14.2237 2.86203 13.9633 3.20648 14.0152 3.57951C14.067 3.95255 14.4115 4.21291 14.7845 4.16104C15.1576 4.10918 15.4179 3.76473 15.3661 3.3917C15.3142 3.01866 14.9697 2.7583 14.5967 2.81017Z" fill="#C4292E"/>
<path d="M13.0044 3.23839C12.6314 3.29025 12.371 3.6347 12.4229 4.00773C12.4748 4.38077 12.8192 4.64113 13.1922 4.58927C13.5653 4.5374 13.8256 4.19296 13.7738 3.81992C13.7219 3.44689 13.3775 3.18653 13.0044 3.23839Z" fill="#C4292E"/>
<path d="M13.1821 52.3016C12.901 52.3297 12.6504 52.1246 12.6223 51.8435C12.5943 51.5624 12.7994 51.3118 13.0804 51.2837C13.3615 51.2557 13.6121 51.4608 13.6402 51.7418C13.6683 52.0229 13.4632 52.2735 13.1821 52.3016Z" fill="#C4292E"/>
<path d="M14.3594 50.7107C14.172 50.7295 14.0049 50.5927 13.9862 50.4054C13.9675 50.218 14.1042 50.0509 14.2916 50.0322C14.479 50.0135 14.646 50.1502 14.6648 50.3376C14.6835 50.5249 14.5467 50.692 14.3594 50.7107Z" fill="#C4292E"/>
<path d="M13.5996 49.9642C13.4122 49.9829 13.2451 49.8461 13.2264 49.6588C13.2077 49.4714 13.3444 49.3043 13.5318 49.2856C13.7192 49.2669 13.8863 49.4036 13.905 49.591C13.9237 49.7784 13.787 49.9454 13.5996 49.9642Z" fill="#C4292E"/>
<path d="M14.4609 49.6724C14.2735 49.6911 14.1065 49.5544 14.0877 49.367C14.069 49.1796 14.2058 49.0126 14.3931 48.9939C14.5805 48.9751 14.7476 49.1119 14.7663 49.2992C14.785 49.4866 14.6483 49.6537 14.4609 49.6724Z" fill="#C4292E"/>
<path d="M14.8555 46.0694C14.6681 46.0881 14.501 45.9514 14.4823 45.764C14.4636 45.5766 14.6003 45.4095 14.7877 45.3908C14.975 45.3721 15.1421 45.5088 15.1608 45.6962C15.1796 45.8836 15.0428 46.0507 14.8555 46.0694Z" fill="#C4292E"/>
<path d="M14.5234 41.9283C14.336 41.947 14.169 41.8103 14.1502 41.6229C14.1315 41.4355 14.2683 41.2684 14.4556 41.2497C14.643 41.231 14.8101 41.3677 14.8288 41.5551C14.8475 41.7425 14.7108 41.9096 14.5234 41.9283Z" fill="#C4292E"/>
<path d="M14.0464 42.9854C13.859 43.0041 13.6919 42.8674 13.6732 42.68C13.6545 42.4926 13.7912 42.3256 13.9786 42.3068C14.166 42.2881 14.333 42.4248 14.3518 42.6122C14.3705 42.7996 14.2338 42.9667 14.0464 42.9854Z" fill="#C4292E"/>
<path d="M13.1592 43.8374C12.9718 43.8562 12.8047 43.7194 12.786 43.5321C12.7673 43.3447 12.904 43.1776 13.0914 43.1589C13.2788 43.1402 13.4458 43.2769 13.4646 43.4643C13.4833 43.6517 13.3465 43.8187 13.1592 43.8374Z" fill="#C4292E"/>
<path d="M12.1709 43.5989C11.9835 43.6176 11.8164 43.4809 11.7977 43.2935C11.779 43.1062 11.9157 42.9391 12.1031 42.9204C12.2905 42.9016 12.4576 43.0384 12.4763 43.2258C12.495 43.4131 12.3583 43.5802 12.1709 43.5989Z" fill="#C4292E"/>
<path d="M13.3989 51.0462C13.2115 51.0649 13.0445 50.9282 13.0257 50.7408C13.007 50.5534 13.1437 50.3863 13.3311 50.3676C13.5185 50.3489 13.6856 50.4856 13.7043 50.673C13.723 50.8604 13.5863 51.0275 13.3989 51.0462Z" fill="#C4292E"/>
<path d="M15.2417 47.5384C15.0543 47.5571 14.8872 47.4204 14.8685 47.233C14.8498 47.0456 14.9865 46.8785 15.1739 46.8598C15.3613 46.8411 15.5284 46.9778 15.5471 47.1652C15.5658 47.3526 15.4291 47.5197 15.2417 47.5384Z" fill="#C4292E"/>
<path d="M16.2256 47.0975C15.8508 47.1349 15.5166 46.8615 15.4792 46.4867C15.4418 46.112 15.7152 45.7778 16.09 45.7404C16.4647 45.703 16.7989 45.9764 16.8363 46.3512C16.8738 46.7259 16.6003 47.0601 16.2256 47.0975Z" fill="#C4292E"/>
<path d="M13.7495 45.9742C13.3747 46.0117 13.0406 45.7382 13.0031 45.3634C12.9657 44.9887 13.2391 44.6545 13.6139 44.6171C13.9887 44.5797 14.3228 44.8531 14.3603 45.2279C14.3977 45.6026 14.1242 45.9368 13.7495 45.9742Z" fill="#C4292E"/>
<path d="M16.7417 45.4012C16.3669 45.4387 16.0327 45.1652 15.9953 44.7904C15.9579 44.4157 16.2313 44.0815 16.6061 44.0441C16.9809 44.0067 17.315 44.2801 17.3525 44.6549C17.3899 45.0296 17.1164 45.3638 16.7417 45.4012Z" fill="#C4292E"/>
<path d="M15.3735 41.4813C14.9987 41.5187 14.6646 41.2453 14.6271 40.8705C14.5897 40.4958 14.8632 40.1616 15.2379 40.1242C15.6127 40.0867 15.9469 40.3602 15.9843 40.735C16.0217 41.1097 15.7483 41.4439 15.3735 41.4813Z" fill="#C4292E"/>
<path d="M14.0747 47.5179C13.6999 47.5554 13.3658 47.2819 13.3283 46.9071C13.2909 46.5324 13.5643 46.1982 13.9391 46.1608C14.3139 46.1234 14.648 46.3968 14.6855 46.7716C14.7229 47.1463 14.4494 47.4805 14.0747 47.5179Z" fill="#C4292E"/>
<path d="M15.4995 49.089C15.1247 49.1264 14.7906 48.8529 14.7531 48.4782C14.7157 48.1034 14.9891 47.7693 15.3639 47.7318C15.7387 47.6944 16.0728 47.9679 16.1103 48.3426C16.1477 48.7174 15.8742 49.0515 15.4995 49.089Z" fill="#C4292E"/>
<path d="M13.851 49.0482C13.4763 49.0856 13.1421 48.8122 13.1047 48.4374C13.0673 48.0627 13.3407 47.7285 13.7155 47.6911C14.0902 47.6536 14.4244 47.9271 14.4618 48.3018C14.4993 48.6766 14.2258 49.0108 13.851 49.0482Z" fill="#C4292E"/>
<path d="M17.5167 14.6125C16.7706 14.7162 16.2499 15.4051 16.3536 16.1512C16.4573 16.8973 17.1462 17.418 17.8923 17.3143C18.6384 17.2106 19.1591 16.5217 19.0554 15.7756C18.9516 15.0295 18.2627 14.5088 17.5167 14.6125Z" fill="#C4292E"/>
<path d="M13.6534 11.3752C12.9073 11.4789 12.3866 12.1678 12.4903 12.9139C12.594 13.66 13.2829 14.1807 14.029 14.077C14.7751 13.9732 15.2958 13.2844 15.1921 12.5383C15.0883 11.7922 14.3995 11.2715 13.6534 11.3752Z" fill="#C4292E"/>
<path d="M17.5113 10.1506C16.7652 10.2543 16.2445 10.9432 16.3482 11.6893C16.452 12.4354 17.1409 12.9561 17.8869 12.8524C18.633 12.7486 19.1537 12.0597 19.05 11.3137C18.9463 10.5676 18.2574 10.0469 17.5113 10.1506Z" fill="#C4292E"/>
<path d="M14.6099 8.35081C13.8639 8.45453 13.3431 9.14342 13.4469 9.88949C13.5506 10.6356 14.2395 11.1563 14.9855 11.0526C15.7316 10.9488 16.2523 10.2599 16.1486 9.51387C16.0449 8.7678 15.356 8.24708 14.6099 8.35081Z" fill="#C4292E"/>
<path d="M4.33405 23.1819C3.58798 23.2856 3.06726 23.9745 3.17098 24.7205C3.27471 25.4666 3.9636 25.9873 4.70967 25.8836C5.45574 25.7799 5.97646 25.091 5.87274 24.3449C5.76901 23.5989 5.08012 23.0781 4.33405 23.1819Z" fill="#C4292E"/>
<path d="M8.23835 29.7422C7.49228 29.8459 6.97156 30.5348 7.07528 31.2808C7.17901 32.0269 7.8679 32.5476 8.61397 32.4439C9.36004 32.3402 9.88076 31.6513 9.77703 30.9052C9.67331 30.1592 8.98442 29.6384 8.23835 29.7422Z" fill="#C4292E"/>
<path d="M2.44245 26.6394C1.69638 26.7431 1.17566 27.432 1.27938 28.1781C1.38311 28.9241 2.072 29.4449 2.81807 29.3411C3.56414 29.2374 4.08486 28.5485 3.98114 27.8024C3.87741 27.0564 3.18852 26.5357 2.44245 26.6394Z" fill="#C4292E"/>
<path d="M4.38581 30.3562C3.63974 30.4599 3.11902 31.1488 3.22274 31.8949C3.32647 32.6409 4.01536 33.1617 4.76143 33.0579C5.5075 32.9542 6.02822 32.2653 5.92449 31.5192C5.82077 30.7732 5.13188 30.2525 4.38581 30.3562Z" fill="#C4292E"/>
<path d="M5.47663 33.3227C4.73056 33.4264 4.20984 34.1153 4.31356 34.8614C4.41729 35.6075 5.10618 36.1282 5.85225 36.0245C6.59832 35.9208 7.11904 35.2319 7.01531 34.4858C6.91159 33.7397 6.2227 33.219 5.47663 33.3227Z" fill="#C4292E"/>
<path d="M4.75447 19.268C3.82189 19.3976 3.17098 20.2587 3.30064 21.1913C3.4303 22.1239 4.29141 22.7748 5.224 22.6452C6.15659 22.5155 6.80749 21.6544 6.67784 20.7218C6.54818 19.7892 5.68706 19.1383 4.75447 19.268Z" fill="#C4292E"/>
<path d="M5.84628 26.3797C4.72718 26.5353 3.94609 27.5686 4.10168 28.6877C4.25727 29.8069 5.29061 30.5879 6.40971 30.4324C7.52882 30.2768 8.30991 29.2434 8.15432 28.1243C7.99873 27.0052 6.96539 26.2241 5.84628 26.3797Z" fill="#C4292E"/>
<path d="M14.6797 42.8748C14.1202 42.9526 13.7296 43.4693 13.8074 44.0288C13.8852 44.5884 14.4019 44.9789 14.9614 44.9011C15.521 44.8233 15.9115 44.3066 15.8338 43.7471C15.756 43.1875 15.2393 42.797 14.6797 42.8748Z" fill="#C4292E"/>
<path d="M16.6846 41.3206C16.1251 41.3984 15.7345 41.9151 15.8123 42.4746C15.8901 43.0342 16.4068 43.4247 16.9663 43.3469C17.5259 43.2691 17.9164 42.7524 17.8386 42.1929C17.7608 41.6333 17.2442 41.2428 16.6846 41.3206Z" fill="#C4292E"/>
<path d="M31.3897 32.9213V25.3921H27.1479V23.0591H38.7598V25.3921H34.5048V32.9213H31.3897ZM44.6217 29.7532V29.5279L41.7982 29.9653C41.0427 30.0846 40.7246 30.2171 40.7246 30.628V30.6413C40.7246 31.0258 41.0162 31.45 42.0236 31.45C43.6011 31.45 44.6217 30.6016 44.6217 29.7532ZM44.7013 31.9404C44.3963 32.3248 43.495 33.0539 41.4006 33.0539H41.2283C38.829 33.0539 37.9144 31.9404 37.9144 30.7209V30.628C37.9144 29.3158 38.776 28.6928 40.9101 28.4939L44.1711 28.189C44.5024 28.1493 44.6217 28.0432 44.6217 27.818C44.6217 27.5527 44.5024 27.2347 42.766 27.2347H42.6997C40.9367 27.2347 40.8704 27.7914 40.8306 28.0299H38.0867V28.0035C38.0867 27.0623 38.365 25.5909 42.3418 25.5909H43.0708C47.2065 25.5909 47.4717 26.8635 47.4717 27.8974V30.628C47.4717 30.8401 47.538 30.986 47.8428 30.986H48.2273V32.9213H45.828C45.258 32.9213 44.8074 32.6164 44.7013 31.9404ZM51.1391 32.9213V27.7516H48.1567V25.7897H57.0777V27.7516H54.0951V32.9213H51.1391ZM58.1203 32.9213V23.0591H61.2089V26.6514H67.8367V23.0591H70.9252V32.9213H67.8367V29.0374H61.2089V32.9213H58.1203ZM82.0629 32.9213V26.4129L75.4484 32.9213H72.3598V23.0591H75.4484V29.5941L82.0629 23.0591H85.1514V32.9213H82.0629ZM86.5863 32.9213V23.0591H98.8474V32.9213H95.7594V25.4451H89.6748V32.9213H86.5863ZM109.985 32.9213V26.4129L103.37 32.9213H100.282V23.0591H103.37V29.5941L109.985 23.0591H113.073V32.9213H109.985ZM117.332 32.9213H114.377V25.7897H117.332V28.3878H121.335V25.7897H124.291V32.9213H121.335V30.3497H117.332V32.9213ZM130.507 27.2479H130.494C129.009 27.2479 128.346 27.6986 128.121 28.4541H132.894C132.694 27.6986 132.006 27.2479 130.507 27.2479ZM135.836 30.4028V30.4159C135.836 31.3837 135.199 33.1202 130.944 33.1202H130.189C126.385 33.1202 125.166 31.3439 125.166 29.4749V29.1832C125.166 27.3539 126.253 25.5909 130.11 25.5909H130.919C135.106 25.5909 135.876 27.6986 135.876 29.435V29.9255H128.068C128.241 30.7607 128.956 31.3174 130.587 31.3174H130.6C132.562 31.3174 132.88 30.575 132.92 30.4028H135.836ZM145.35 33.1202H144.952V35.4133H141.997V33.1202H141.598C137.582 33.1202 136.323 31.0522 136.323 29.435V29.3025C136.323 27.4468 137.728 25.5909 141.598 25.5909H141.997V23.0591H144.952V25.5909H145.35C149.194 25.5909 150.626 27.4468 150.626 29.2495V29.435C150.626 31.0522 149.234 33.1202 145.35 33.1202ZM141.731 31.198H141.997V27.4865H141.731C140.127 27.4865 139.345 28.2819 139.345 29.3556V29.4086C139.345 30.4159 140.1 31.198 141.731 31.198ZM145.218 27.4865H144.952V31.198H145.218C147.073 31.198 147.603 30.4028 147.603 29.4086V29.3556C147.603 28.2951 147.06 27.4865 145.218 27.4865ZM153.793 32.9213V27.7516H150.811V25.7897H159.732V27.7516H156.748V32.9213H153.793ZM160.641 32.9213V25.7897H163.597V27.6456H166.792C168.913 27.6456 170 28.7325 170 30.1244V30.257C170 31.6355 168.926 32.9213 166.792 32.9213H160.641ZM163.597 31.1053H166.05C166.685 31.1053 166.991 30.7209 166.991 30.31V30.2437C166.991 29.8195 166.685 29.4616 166.05 29.4616H163.597V31.1053Z" fill="black"/>
</svg>
