<svg width="70" height="70" viewBox="0 0 70 70" fill="none" xmlns="http://www.w3.org/2000/svg">
<path d="M58.2355 53.369C57.9197 52.9562 57.0688 51.29 56.6163 50.7412C56.2903 50.8255 55.097 51.5977 54.6948 51.8358L50.7671 53.8416C50.1948 54.0969 49.2678 54.3961 48.743 54.702C48.8676 55.1543 50.0021 56.9201 50.3431 57.4903L55.2751 65.743C60.0244 73.4899 69.8201 69.5543 69.8847 62.3313L69.8831 44.8143C69.8831 42.0272 70.033 38.8034 69.8735 36.071C69.5823 36.3531 68.9469 37.6118 68.6788 38.044C68.2714 38.7005 67.8921 39.2799 67.4514 39.9255C65.0788 43.4017 64.2331 43.9557 61.5994 46.6903C61.0954 47.2136 58.7862 49.2387 58.1695 49.4953L58.2355 53.369ZM8.91613 47.4033C8.7708 49.2781 8.90245 51.7277 8.90245 53.6661V66.1903C8.90245 68.3441 8.94362 69.9483 11.3185 69.9548C13.4222 69.9606 15.5271 69.9527 17.6309 69.953C19.4029 69.9531 21.1223 70.0348 21.1123 67.2271C21.0972 63.0568 21.1681 58.8588 21.1086 54.6936C17.8349 53.4142 14.4211 51.5099 11.6491 49.4774L8.91613 47.4033ZM35.8702 57.2181C35.7564 58.0518 35.8452 65.5258 35.8444 67.0381C35.8437 68.2166 35.9807 69.7786 37.8001 69.9395C39.2474 70.0673 41.2649 69.953 42.7737 69.953C44.3428 69.953 46.078 70.2359 47.0278 69.3147C47.9717 68.3992 47.6828 66.5472 47.6828 64.9661C47.6828 63.334 47.6828 61.7017 47.6828 60.0695C47.6828 58.3898 47.533 56.7958 47.5182 55.1965C47.2142 55.2328 43.5879 56.2829 42.0054 56.5723C39.0745 57.1083 37.6967 56.9462 35.8702 57.2181ZM8.61855 47.0804L6.23971 44.6229C4.44237 42.8065 2.37465 39.9293 1.05575 37.6596C0.874746 37.3479 0.386289 36.3107 0.0932163 36.1141C0.0645998 37.4119 -0.0239249 45.0865 0.213465 45.7403C0.729972 47.1631 2.03463 47.0764 3.69411 47.0765C5.33512 47.0765 6.97782 47.0692 8.61855 47.0804Z" fill="#2B2A29"/>
<path d="M43.6212 2.34999C43.1118 2.88496 42.6477 3.44433 42.1838 4.01553C41.6867 4.62748 41.2241 5.11719 40.7078 5.74055C39.94 6.66769 32.2234 15.6285 31.9946 16.0931L36.4909 20.0213C36.8812 20.3331 37.6561 21.1446 38.0652 21.3058C38.8179 20.6103 42.0195 16.4572 42.4515 16.2986C43.4415 23.9346 35.4468 28.1287 29.9231 23.576C26.5883 20.8272 26.2242 14.7952 30.479 11.708C31.8412 10.7197 32.947 10.4107 34.9353 10.2348L34.9535 0.025146C32.755 -0.145425 29.9315 0.579977 28.1295 1.34755C17.5858 5.83879 13.838 18.9208 20.4394 28.1636C28.9424 40.0687 46.3856 37.0859 51.3912 24.7997C54.4332 17.3335 52.2638 8.88342 46.1321 3.9766C45.682 3.61643 44.185 2.46854 43.6212 2.34999ZM58.0974 39.2098C58.4763 38.9991 59.1965 38.0279 59.4602 37.6764C59.8155 37.2029 60.502 36.4532 60.7058 35.9176L58.0964 35.9193L58.0974 39.2098ZM21.0983 51.8681L21.111 49.0517C20.795 48.7888 19.2674 48.1109 18.8132 47.8646C16.8573 46.8042 14.0925 44.9435 12.5953 43.54C10.8793 41.9316 10.7363 41.8523 9.1503 40.0171C8.4862 39.2486 6.54169 36.8618 6.17207 35.9345L3.0127 35.9173C3.32043 36.9733 5.78891 40.1658 6.46147 41.0112C8.76348 43.9051 12.2447 47.0336 15.4437 48.9786C16.4385 49.5835 20.0274 51.6643 21.0983 51.8681ZM35.8656 51.9359L35.8485 54.5535C38.1418 54.9078 44.2915 53.4819 46.6897 52.6743C49.9887 51.5633 52.722 50.2325 55.2722 48.4733C55.1623 48.1246 54.1491 46.4985 53.8855 46.2037C53.3793 46.398 52.5766 47.0119 52.0481 47.3094C48.6345 49.23 45.1621 50.6245 41.185 51.3357C39.2729 51.6775 36.581 51.7942 35.8656 51.9359ZM30.0303 47.0484L30.0382 46.3512C27.5009 45.6472 27.5906 45.9535 24.5932 44.8158C22.9614 44.1962 21.3547 43.3886 19.9372 42.5052C16.6082 40.4304 15.0781 38.9436 12.4518 35.9524L9.18032 35.9125C9.48594 36.8178 12.049 39.5385 12.8248 40.2977C15.6777 43.0902 18.5984 45.0461 22.3844 46.7479C23.138 47.0866 23.0767 47.0816 24.034 47.0768C25.4238 47.07 29.1609 47.1668 30.0303 47.0484ZM35.8729 46.773L35.8458 49.38C39.4101 49.2976 42.2423 48.6481 45.2574 47.687C46.605 47.2575 47.9873 46.6684 49.191 46.0519C50.067 45.6033 52.1285 44.5317 52.6597 43.9667C52.5582 43.649 51.4775 41.9122 51.2487 41.731C50.7897 41.9643 50.2217 42.4093 49.7048 42.7044C45.2109 45.2695 41.3453 46.5285 35.8729 46.773ZM35.8966 41.5184L35.8482 44.094C39.629 44.0158 43.7725 42.8326 46.9942 41.2233C47.7829 40.8293 49.4235 39.9321 49.9342 39.4466L48.6442 37.1544C47.8472 37.4297 44.2458 40.4166 37.8696 41.287C37.3178 41.3623 36.3647 41.374 35.8966 41.5184ZM30.0406 43.6758L30.0416 40.9661C28.3267 40.2387 27.3421 40.4746 24.2607 38.8414C23.3659 38.3672 22.5404 37.9052 21.7664 37.3836C19.0981 35.5862 20.9318 35.9087 16.0015 35.9207C16.294 36.5457 18.3363 38.1555 18.8187 38.5413C19.7562 39.2911 20.8475 40.0489 22.0841 40.7367C23.7884 41.6849 28.2599 43.7109 30.0406 43.6758ZM58.1081 46.324C58.6261 46.0864 60.2037 44.5856 60.6538 44.1435C62.2363 42.5895 66.4256 37.7225 66.955 35.9072C63.3896 35.985 64.1343 35.5735 63.1635 36.9535C61.7183 39.0076 60.4841 40.4504 58.7732 42.1681C58.1071 42.8368 58.0896 42.5896 58.0981 43.8724C58.1033 44.6825 58.0738 45.5183 58.1081 46.324Z" fill="#D9241B"/>
</svg>
