<svg width="170" height="38" viewBox="0 0 170 38" fill="none" xmlns="http://www.w3.org/2000/svg">
<path d="M35.3371 15.9619L29.449 13.8188L23.5583 15.9619L17.6701 13.8188L11.7793 15.9619L5.89113 13.8188L0.00292969 15.9619V23.4522L5.89113 25.5977L11.7793 23.4522L17.6701 25.5977L23.5583 23.4522L29.449 25.5977L35.3371 23.4522V15.9619Z" fill="black"/>
<path d="M35.3371 4.1833L29.449 2.04028L23.5583 4.1833L17.6701 2.04028L11.7793 4.1833L5.89113 2.04028L0.00292969 4.1833V11.6762L5.89113 13.8192L11.7793 11.6762L17.6701 13.8192L23.5583 11.6762L29.449 13.8192L35.3371 11.6762V4.1833Z" fill="#28BE46"/>
<path d="M11.7789 4.1833L5.88818 6.32889L0 4.1833L5.88818 2.04028L11.7789 4.1833Z" fill="black"/>
<path d="M23.5551 4.1833L17.667 6.32889L11.7788 4.1833L17.667 2.04028L23.5551 4.1833Z" fill="black"/>
<path d="M35.3345 4.1833L29.4464 6.32889L23.5557 4.1833L29.4464 2.04028L35.3345 4.1833Z" fill="black"/>
<path d="M0 23.4519L5.88818 21.3088L11.7789 23.4519L5.88818 25.5975L0 23.4519Z" fill="#28BE46"/>
<path d="M23.5581 23.4519L29.4462 21.3088L35.3369 23.4519L29.4462 25.5975L23.5581 23.4519Z" fill="#28BE46"/>
<path d="M23.5551 15.9622L17.667 18.1052L11.7788 15.9622V23.4525L17.667 25.598L23.5551 23.4525V15.9622Z" fill="#28BE46"/>
<path d="M35.3371 27.7414L29.449 25.5984L23.5583 27.7414L17.6701 25.5984L11.7793 27.7414L5.89113 25.5984L0.00292969 27.7414V35.2316L5.89113 37.3746L11.7793 35.2316L17.6701 37.3746L23.5583 35.2316L29.449 37.3746L35.3371 35.2316V27.7414Z" fill="black"/>
<path d="M0 35.2316L5.88818 33.0884L11.7789 35.2316L5.88818 37.3746L0 35.2316Z" fill="#28BE46"/>
<path d="M23.5581 35.2316L29.4462 33.0884L35.3369 35.2316L29.4462 37.3746L23.5581 35.2316Z" fill="#28BE46"/>
<path d="M23.5551 27.741L17.667 29.884L11.7788 27.741V35.2312L17.667 37.3742L23.5551 35.2312V27.741Z" fill="#28BE46"/>
<path d="M48.1445 2.81763H54.1952V4.20542H51.9148V9.66373H50.4163V4.20542H48.1445V2.81763Z" fill="black"/>
<path d="M58.9019 2.71628C59.5974 2.7328 60.2725 2.95411 60.8428 3.35252C61.4131 3.75096 61.8532 4.30877 62.1082 4.95612C62.3629 5.60348 62.4209 6.31159 62.2752 6.99185C62.1296 7.6721 61.7862 8.29425 61.2886 8.78035C60.7909 9.26647 60.1609 9.59498 59.4773 9.72473C58.794 9.85449 58.0874 9.77974 57.4462 9.50984C56.8049 9.23992 56.2577 8.78686 55.8728 8.20738C55.4879 7.62787 55.2825 6.94773 55.2823 6.25202C55.274 5.77831 55.3626 5.30786 55.5426 4.86962C55.7228 4.43136 55.9905 4.03453 56.3296 3.70344C56.6684 3.37238 57.0714 3.11402 57.5139 2.94428C57.9561 2.77452 58.4286 2.69694 58.9019 2.71628ZM60.9659 6.25202C60.9615 5.84372 60.8365 5.44583 60.6064 5.1085C60.3761 4.77119 60.0514 4.50951 59.6728 4.35647C59.2943 4.20345 58.8789 4.16588 58.4789 4.24852C58.079 4.33117 57.7126 4.53031 57.4257 4.82088C57.1388 5.11146 56.9445 5.48045 56.867 5.88137C56.7894 6.28227 56.8322 6.69714 56.9901 7.07375C57.148 7.45032 57.4138 7.7718 57.754 7.99759C58.0943 8.22336 58.4937 8.34338 58.9019 8.34254C59.1773 8.34564 59.4503 8.29305 59.7048 8.18792C59.9593 8.08279 60.1898 7.92728 60.3825 7.73077C60.5754 7.53423 60.7265 7.30076 60.8266 7.04437C60.9269 6.78796 60.9744 6.51393 60.9659 6.23877V6.25202Z" fill="black"/>
<path d="M64.6382 2.81763H66.2248L68.2491 5.21308L70.2732 2.81763H71.8422V9.66373H70.3837V4.70043L68.2491 7.29479L66.1054 4.7181V9.66373H64.6382V2.81763Z" fill="black"/>
<path d="M77.5085 4.14832C76.9542 4.14832 76.4224 4.36859 76.0302 4.76063C75.6383 5.15267 75.4179 5.6844 75.4179 6.23884C75.4179 6.79329 75.6383 7.325 76.0302 7.71707C76.4224 8.1091 76.9542 8.32935 77.5085 8.32935C77.8687 8.33121 78.2238 8.24281 78.541 8.07219C78.8584 7.90157 79.128 7.65419 79.3249 7.35261L80.3989 8.28073C80.0806 8.75278 79.6475 9.13622 79.1404 9.39519C78.6333 9.65414 78.0687 9.78016 77.4995 9.76136C75.4533 9.76136 73.8623 8.35146 73.8623 6.22561C73.8621 5.75375 73.9563 5.28663 74.1396 4.85178C74.3226 4.41693 74.5912 4.02317 74.9289 3.69366C75.2665 3.36415 75.6669 3.10556 76.1061 2.93316C76.5453 2.76076 77.0145 2.67804 77.4864 2.68984C78.0588 2.66141 78.6286 2.78308 79.1397 3.04279C79.6505 3.30249 80.0845 3.69122 80.3989 4.17043L79.3249 5.09855C79.1242 4.80246 78.8533 4.56071 78.5363 4.39489C78.2193 4.22909 77.8661 4.14438 77.5085 4.14832Z" fill="black"/>
<path d="M82.335 9.66373V2.81763H83.851V9.66373H82.335ZM86.3127 2.81763H87.9834L85.5835 5.79649L88.4165 9.66373H86.6487L83.8421 5.85397L86.3127 2.81763Z" fill="black"/>
<path d="M91.6385 7.38319L94.8382 2.81763H96.3498V9.66373H94.8605V5.06723L91.6516 9.66373H90.1489V2.81763H91.6385V7.38319Z" fill="black"/>
<path d="M100.433 7.38299L103.633 2.81742H105.145V9.66353H103.651V5.06703L100.442 9.66353H98.9438V2.81742H100.433V7.38299ZM101.423 0.625244C101.414 0.711319 101.423 0.798362 101.448 0.881028C101.474 0.963693 101.516 1.04025 101.573 1.10603C101.629 1.17181 101.698 1.22541 101.776 1.26357C101.853 1.30173 101.938 1.32366 102.024 1.32799C102.111 1.32239 102.195 1.2997 102.273 1.26125C102.35 1.2228 102.419 1.16934 102.476 1.10398C102.533 1.03862 102.576 0.962666 102.603 0.880487C102.63 0.79831 102.641 0.71154 102.634 0.625244H103.739C103.717 1.06441 103.527 1.47823 103.208 1.78118C102.889 2.08413 102.466 2.25306 102.027 2.25306C101.587 2.25306 101.164 2.08413 100.845 1.78118C100.526 1.47823 100.336 1.06441 100.314 0.625244H101.423Z" fill="black"/>
<path d="M55.1443 23.1171H53.6416V17.6632H50.4948V23.1171H48.9834V16.271H55.1443V23.1171Z" fill="black"/>
<path d="M60.74 16.1737C61.4353 16.191 62.1102 16.4131 62.6797 16.812C63.2496 17.211 63.689 17.769 63.943 18.4165C64.1972 19.0639 64.2546 19.7719 64.1084 20.4518C63.9623 21.1318 63.6187 21.7535 63.1208 22.2391C62.6229 22.7248 61.9929 23.0529 61.3096 23.1823C60.6263 23.3117 59.9199 23.2367 59.2791 22.9667C58.6381 22.6967 58.0911 22.2436 57.7062 21.6643C57.3215 21.0849 57.1162 20.4049 57.1159 19.7094C57.1065 19.2349 57.1944 18.7635 57.3742 18.3244C57.5542 17.8852 57.8223 17.4877 58.1618 17.1563C58.5016 16.8248 58.9058 16.5667 59.3492 16.3977C59.7926 16.2286 60.266 16.1524 60.74 16.1737ZM62.8041 19.7094C62.7998 19.3011 62.6746 18.9032 62.4445 18.5659C62.2145 18.2286 61.8895 17.9669 61.511 17.8139C61.1324 17.6608 60.717 17.6233 60.3173 17.7059C59.9173 17.7886 59.5508 17.9877 59.2639 18.2783C58.977 18.5689 58.7826 18.9378 58.7051 19.3388C58.6275 19.7397 58.6703 20.1545 58.8282 20.5311C58.9861 20.9077 59.2519 21.2292 59.5921 21.455C59.9324 21.6808 60.3318 21.8008 60.74 21.7999C61.0152 21.8024 61.288 21.7494 61.5422 21.6441C61.7965 21.5387 62.0267 21.3832 62.2194 21.1868C62.4121 20.9904 62.5632 20.7571 62.6635 20.501C62.7641 20.2449 62.8118 19.9712 62.8041 19.6961V19.7094Z" fill="black"/>
<path d="M65.4565 23.1657V21.7867H65.8412C66.4423 21.7867 66.725 21.4994 66.725 20.6995V16.2798H72.0597V23.1259H70.5922V17.6499H68.2056V20.7967C68.2056 22.2154 67.5824 23.1612 66.0224 23.1612L65.4565 23.1657Z" fill="black"/>
<path d="M76.1734 20.8409L79.3733 16.271H80.8849V23.1171H79.3909V18.5206L76.1823 23.1171H74.6841V16.271H76.1734V20.8409Z" fill="black"/>
<path d="M82.8335 16.271H88.8887V17.6632H86.608V23.1171H85.1053V17.6632H82.8335V16.271Z" fill="black"/>
<path d="M90.8516 16.271H96.0448V17.6499H92.3632V18.9758H94.9576V20.3018H92.3632V21.7249H96.0845V23.1038H90.8516V16.271Z" fill="black"/>
<path d="M101.184 18.5875L102.921 16.2583H104.623L102.095 19.6305L104.747 23.1044H102.904L101.056 20.7178L99.2179 23.1044H97.4941L100.146 19.6305L97.609 16.2583H99.4344L101.184 18.5875Z" fill="black"/>
<path d="M112.725 16.271V23.1171H111.222V20.3548H108.075V23.1348H106.564V16.271H108.075V18.9538H111.222V16.271H112.725Z" fill="black"/>
<path d="M116.818 20.8409L120.018 16.271H121.529V23.1171H120.035V18.5206L116.827 23.1171H115.329V16.271H116.818V20.8409Z" fill="black"/>
<path d="M129.462 16.271V23.1171H127.963V20.5051H126.054C124.83 20.5051 123.813 19.9614 123.813 18.5118V16.271H125.316V18.3217C125.316 18.9228 125.701 19.1217 126.284 19.1217H127.963V16.271H129.462Z" fill="black"/>
<path d="M132.065 16.271H137.258V17.6499H133.577V18.9758H136.175V20.3018H133.577V21.7249H137.298V23.1038H132.065V16.271Z" fill="black"/>
<path d="M142.363 17.6017C142.08 17.5887 141.797 17.6332 141.532 17.7325C141.267 17.8318 141.025 17.9838 140.82 18.1795C140.615 18.3751 140.452 18.6102 140.341 18.8706C140.229 19.131 140.172 19.4112 140.172 19.6944C140.172 19.9777 140.229 20.2579 140.341 20.5183C140.452 20.7787 140.615 21.0138 140.82 21.2094C141.025 21.405 141.267 21.5571 141.532 21.6564C141.797 21.7557 142.08 21.8002 142.363 21.7872C142.723 21.7874 143.077 21.6983 143.394 21.5278C143.712 21.3574 143.981 21.1109 144.179 20.8104L145.253 21.7385C144.934 22.2103 144.5 22.5935 143.992 22.8524C143.484 23.1113 142.919 23.2375 142.35 23.2191C140.308 23.2191 138.717 21.8048 138.717 19.6834C138.717 19.2115 138.811 18.7444 138.994 18.3096C139.177 17.8747 139.446 17.4809 139.783 17.1515C140.121 16.8219 140.521 16.5634 140.961 16.391C141.4 16.2186 141.869 16.1358 142.341 16.1476C142.913 16.1192 143.482 16.2404 143.993 16.4992C144.504 16.7581 144.938 17.1457 145.253 17.6238L144.179 18.5519C143.978 18.2564 143.707 18.0151 143.39 17.8493C143.073 17.6836 142.721 17.5985 142.363 17.6017Z" fill="black"/>
<path d="M147.186 23.1171V16.271H148.697V23.1171H147.186ZM151.163 16.271H152.83L150.434 19.2498L153.267 23.1171H151.499L148.692 19.3073L151.163 16.271Z" fill="black"/>
<path d="M156.493 20.8409L159.693 16.271H161.196V23.1171H159.706V18.5206L156.498 23.1171H155.008V16.271H156.498L156.493 20.8409Z" fill="black"/>
<path d="M165.289 20.8417L168.489 16.2718H170V23.1179H168.506V18.5214L165.298 23.1179H163.799V16.2718H165.289V20.8417ZM166.274 14.0796C166.266 14.1659 166.275 14.2531 166.301 14.3357C166.327 14.4184 166.37 14.4949 166.427 14.5606C166.483 14.6263 166.553 14.6798 166.63 14.7179C166.708 14.756 166.793 14.778 166.88 14.7823C166.966 14.7767 167.05 14.754 167.128 14.7156C167.206 14.6771 167.275 14.6237 167.332 14.5583C167.388 14.493 167.431 14.417 167.459 14.3348C167.486 14.2527 167.496 14.1659 167.49 14.0796H168.586C168.564 14.5188 168.373 14.9326 168.055 15.2355C167.736 15.5385 167.313 15.7074 166.873 15.7074C166.433 15.7074 166.01 15.5385 165.692 15.2355C165.373 14.9326 165.183 14.5188 165.161 14.0796H166.274Z" fill="black"/>
<path d="M49.0014 35.1919H49.704C49.9002 35.2189 50.0997 35.1989 50.2865 35.1336C50.4733 35.0683 50.6418 34.9595 50.7781 34.8161L47.9849 29.7246H49.6466L51.5516 33.2603L53.0719 29.7246H54.6498L52.2984 35.0636C52.1423 35.5157 51.846 35.9062 51.4524 36.1781C51.0589 36.4499 50.5889 36.589 50.1107 36.5752H49.0014V35.1919Z" fill="black"/>
<path d="M62.6364 29.7246V36.5752H61.1382V33.7907H57.9869V36.5752H56.4487V29.7246H57.9603V32.4074H61.1116V29.7246H62.6364Z" fill="black"/>
<path d="M66.711 34.2945L69.9065 29.7246H71.4181V36.5752H69.9286V31.9743L66.72 36.5752H65.2173V29.7246H66.711V34.2945Z" fill="black"/>
<path d="M74.0128 29.7246H76.8944C78.2866 29.7246 79.1043 30.4671 79.1043 31.5323C79.1142 31.8547 79.0167 32.171 78.8271 32.4318C78.6374 32.6926 78.3665 32.883 78.0568 32.9732C78.4445 33.0251 78.7996 33.2176 79.0545 33.5141C79.3097 33.8109 79.4469 34.1909 79.4401 34.5819C79.4401 35.8327 78.4325 36.5752 76.9916 36.5752H73.9907L74.0128 29.7246ZM76.6645 30.9709H75.52V32.5178H76.6645C76.7759 32.5303 76.8885 32.5192 76.9952 32.4849C77.1018 32.4508 77.2001 32.3947 77.2835 32.32C77.3669 32.2455 77.4336 32.1538 77.4795 32.0516C77.525 31.9494 77.5485 31.8387 77.5485 31.7266C77.5751 31.2449 77.2214 30.9622 76.669 30.9622L76.6645 30.9709ZM76.8723 35.3199C77.4336 35.3199 77.9198 35.0636 77.9198 34.4801C77.9198 33.8969 77.4336 33.6537 76.8723 33.6537H75.52V35.3199H76.8723Z" fill="black"/>
<path d="M81.583 29.7246H86.7763V31.1079H83.0946V32.4339H85.689V33.7599H83.0946V35.1785H86.816V36.5618H81.583V29.7246Z" fill="black"/>
<path d="M89.0132 29.7246H91.7093C93.1324 29.7246 94.2064 30.5245 94.2064 31.9743C94.2064 33.4239 93.1103 34.2061 91.7093 34.2061H90.5248V36.5752H89.0132V29.7246ZM92.6596 31.9743C92.6608 31.8469 92.6344 31.721 92.5825 31.6047C92.5306 31.4886 92.4542 31.385 92.3586 31.3011C92.2627 31.2172 92.1502 31.1549 92.0282 31.1185C91.9062 31.0821 91.7777 31.0724 91.6518 31.0903H90.5248V32.898H91.6518C91.7801 32.9105 91.9095 32.8956 92.0317 32.8548C92.1541 32.8139 92.2665 32.7476 92.3614 32.6607C92.4563 32.5735 92.532 32.4673 92.5835 32.3491C92.6347 32.2309 92.6608 32.1031 92.6596 31.9743Z" fill="black"/>
<path d="M99.2882 31.0589C98.7339 31.0589 98.2021 31.2791 97.8099 31.6712C97.418 32.0632 97.1978 32.5949 97.1978 33.1492C97.1978 33.7038 97.418 34.2356 97.8099 34.6275C98.2021 35.0197 98.7339 35.2399 99.2882 35.2399C99.6486 35.2422 100.004 35.1539 100.321 34.9833C100.639 34.8127 100.908 34.565 101.105 34.2631L102.183 35.1912C101.864 35.6635 101.43 36.0472 100.922 36.3062C100.414 36.5651 99.8493 36.6911 99.2795 36.6718C97.2375 36.6718 95.6465 35.2619 95.6465 33.1361C95.6462 32.6643 95.7407 32.1971 95.9238 31.7624C96.107 31.3275 96.3754 30.9336 96.7131 30.6042C97.051 30.2748 97.4511 30.016 97.8903 29.8436C98.3297 29.6713 98.799 29.5886 99.2706 29.6004C99.843 29.5724 100.413 29.6941 100.923 29.954C101.434 30.2137 101.868 30.6021 102.183 31.081L101.105 32.0091C100.905 31.7121 100.634 31.4696 100.317 31.3037C99.9997 31.1378 99.6463 31.0537 99.2882 31.0589Z" fill="black"/>
<path d="M105.604 34.2945L108.804 29.7246H110.316V36.5752H108.826V31.9743L105.617 36.5752H104.115V29.7246H105.604V34.2945Z" fill="black"/>
<path d="M112.27 29.7246H118.325V31.1169H116.044V36.5752H114.542V31.1169H112.274L112.27 29.7246Z" fill="black"/>
<path d="M120.282 29.7246H125.475V31.1079H121.794V32.4339H124.388V33.7599H121.794V35.1785H125.515V36.5618H120.282V29.7246Z" fill="black"/>
<path d="M126.974 29.7246H133.025V31.1169H130.744V36.5752H129.246V31.1169H126.974V29.7246Z" fill="black"/>
</svg>
