<svg width="170" height="18" viewBox="0 0 170 18" fill="none" xmlns="http://www.w3.org/2000/svg">
<path fill-rule="evenodd" clip-rule="evenodd" d="M18.363 0.403076H19.1563C19.4737 0.442741 19.791 0.482405 20.1083 0.52207C19.315 1.75167 18.482 2.94161 17.6887 4.17121C18.2044 3.25892 18.7597 2.34664 19.2753 1.43436C18.125 1.31536 16.8954 1.55335 15.9038 2.22764C15.3882 2.58463 15.0312 3.10026 14.6742 3.57624C13.6826 5.00416 12.8497 6.55108 11.8977 8.01866C11.2234 9.04996 10.5095 10.1209 9.63685 11.0332C9.20054 11.4695 8.72455 11.9058 8.12956 12.1041C7.61394 12.2628 7.05864 12.2628 6.50333 12.3024C7.01895 12.2231 7.57425 12.2231 8.05025 11.9851C8.80386 11.5885 9.31954 10.9142 9.83516 10.2796C11.6201 7.86004 12.81 5.08349 14.4362 2.54496C12.6117 1.2757 10.1525 0.799722 7.93125 1.31536C6.06702 1.71201 4.40111 2.78295 3.21117 4.21087C2.6162 4.13154 1.98157 4.21087 1.42627 4.44886C2.21956 3.33825 3.21117 2.38631 4.40111 1.71201C5.98769 0.799722 7.93125 0.403076 9.75585 0.561735C11.5011 0.720392 13.167 1.39469 14.5156 2.46564C15.3088 1.19637 16.8557 0.52207 18.363 0.403076Z" fill="#005A9C"/>
<path fill-rule="evenodd" clip-rule="evenodd" d="M0.672858 5.75768C-0.0014393 7.30458 -0.160097 9.04981 0.157219 10.6761C0.514199 12.342 1.38682 13.8889 2.61642 15.0789C4.91696 17.4191 8.72473 18.2123 11.8583 17.1018C13.3655 16.5465 14.7935 15.6738 15.7851 14.4046C14.2382 15.0789 12.4929 15.2772 10.827 14.9995C7.8125 14.5632 4.95663 12.8179 3.44938 10.2001C2.85441 9.12919 2.37843 7.8202 2.77508 6.59063C3.01306 5.99566 3.29072 5.2817 4.00468 5.08338C3.40971 4.84539 2.73542 4.7264 2.10078 4.80573C1.50582 4.88505 0.910842 5.24203 0.672858 5.75768Z" fill="#005A9C"/>
<path fill-rule="evenodd" clip-rule="evenodd" d="M17.5304 6.15474C17.0148 6.1944 16.5388 6.3134 16.1025 6.63071C15.4282 7.14632 14.8332 7.781 14.3176 8.41562C13.4053 9.48654 12.4534 10.5575 11.5411 11.5888C11.1048 12.0648 10.5892 12.5407 9.91485 12.7787C9.04224 13.0564 8.12994 13.0564 7.25732 12.8581C7.81263 13.2151 8.40756 13.572 9.00255 13.8497C10.1132 13.9687 11.2238 13.6514 12.1361 13.0564C13.564 12.2234 14.5952 10.8748 16.0628 10.0815C16.5388 9.80385 17.0544 9.52623 17.6097 9.44692C18.4824 8.41562 19.2757 7.34469 20.1086 6.27373C19.2757 6.15474 18.403 6.07541 17.5304 6.15474Z" fill="#005A9C"/>
<path fill-rule="evenodd" clip-rule="evenodd" d="M17.6492 9.48633C18.4821 9.36733 19.3547 9.52602 20.1084 9.88295C19.1564 11.1126 18.2045 12.3422 17.0939 13.4528C16.1816 14.4047 14.7934 14.7221 13.4844 14.7617C11.9771 14.8014 10.4302 14.4841 9.04199 13.8891C10.1526 14.0081 11.2632 13.6908 12.1754 13.0958C13.6034 12.2629 14.6347 10.9142 16.1023 10.1209C16.5782 9.80364 17.0939 9.56564 17.6492 9.48633Z" fill="#FD4236"/>
<path fill-rule="evenodd" clip-rule="evenodd" d="M26.3398 2.42108C30.1732 2.41626 34.0091 2.41867 37.8425 2.41867C37.6871 3.57597 37.5318 4.73568 37.3764 5.89538C36.0785 5.89538 34.7779 5.89538 33.4799 5.89538C33.0245 9.10931 32.569 12.3232 32.1136 15.5371C30.5365 15.5371 28.9569 15.5371 27.3772 15.5371C27.8327 12.3232 28.2881 9.10931 28.7436 5.89538C27.1428 5.89298 25.5422 5.8978 23.9414 5.89298C24.7313 4.73326 25.5448 3.5832 26.3398 2.42108ZM39.2774 2.43072C38.8719 5.83511 38.4691 9.24188 38.0663 12.6463C37.9609 13.6131 37.7872 14.5752 37.6476 15.5371C39.2458 15.5371 40.8412 15.5371 42.4393 15.5371C42.5604 14.715 42.6763 13.8904 42.7974 13.0682C44.3349 13.0658 45.8725 13.0731 47.41 13.0634C48.8027 13.0441 50.1929 12.0845 50.3719 10.7826C50.6483 8.73078 50.9274 6.67898 51.1985 4.62477C51.3223 3.82672 50.8115 3.00455 50.0086 2.67906C49.5662 2.47654 49.0634 2.42831 48.571 2.43796C45.4749 2.43554 42.3761 2.43313 39.2774 2.43072ZM43.8083 5.8978C44.6403 5.8978 45.4723 5.8978 46.3042 5.8978C46.1357 6.99244 45.9725 8.08699 45.804 9.17919C45.7935 9.39381 45.6065 9.59633 45.3617 9.58671C44.6613 9.60117 43.9637 9.58671 43.2634 9.58913C43.4477 8.35946 43.6188 7.12743 43.8083 5.8978ZM54.7607 3.13475C54.9213 2.67183 55.4531 2.40179 55.9691 2.41867C58.2439 2.42108 60.5212 2.41626 62.7959 2.42108C63.233 2.39697 63.704 2.6646 63.7123 3.09858C64.2175 7.2456 64.7182 11.3926 65.2208 15.5371C63.6016 15.5371 61.9824 15.5371 60.3633 15.5371C60.2764 14.7777 60.1921 14.0182 60.1053 13.2563C58.5677 13.2683 57.0276 13.2901 55.4873 13.3045C55.2083 14.0398 54.9555 14.7873 54.6633 15.5203C54.1288 15.4696 53.5891 15.5106 53.0547 15.4985C51.9805 15.5082 50.909 15.4793 49.8374 15.513C51.4592 11.3805 53.1231 7.26006 54.7607 3.13475ZM58.3255 6.36554C57.8332 7.56864 57.3409 8.77417 56.8512 9.97727C57.8042 9.97727 58.7572 9.97727 59.7103 9.97727C59.5682 8.77417 59.4181 7.57106 59.2733 6.36554C58.9573 6.36554 58.6414 6.36554 58.3255 6.36554ZM68.2932 2.41867C69.8884 2.41867 71.4816 2.41867 73.0767 2.41867C72.8398 4.063 72.6085 5.70974 72.3741 7.35408C73.2742 7.3565 74.175 7.35408 75.0751 7.3565C75.3146 5.70974 75.544 4.063 75.781 2.41626C77.4634 2.41867 79.1483 2.41385 80.8308 2.41867C80.2173 6.78986 79.6115 11.1635 78.998 15.5347C77.3156 15.5347 75.6357 15.5347 73.9539 15.5347C74.1724 13.9796 74.396 12.4244 74.6145 10.8694C73.7138 10.8694 72.8111 10.8694 71.9103 10.8694C71.6893 12.4244 71.4682 13.9796 71.2497 15.5347C69.6571 15.5347 68.0614 15.5347 66.4662 15.5347C67.0739 11.1659 67.6849 6.79228 68.2932 2.41867ZM95.998 2.41867C97.5906 2.42108 99.1838 2.41867 100.776 2.41867C100.544 4.06541 100.308 5.70974 100.076 7.3565C100.976 7.3565 101.88 7.3565 102.78 7.3565C103.017 5.70974 103.246 4.063 103.486 2.41626C105.168 2.41867 106.851 2.41626 108.532 2.41867C107.922 6.79228 107.314 11.1635 106.703 15.5371C105.02 15.5371 103.338 15.5371 101.655 15.5371C101.88 13.982 102.098 12.4269 102.319 10.8742C101.416 10.8742 100.516 10.8742 99.6125 10.8742C99.3914 12.4293 99.1704 13.9844 98.9493 15.5396C97.3561 15.5396 95.761 15.5396 94.1652 15.5396C94.7787 11.1659 95.387 6.78986 95.998 2.41867ZM143.709 2.41867C148.438 2.41867 153.164 2.41626 157.892 2.41867C157.123 3.57838 156.355 4.73809 155.588 5.89538C154.448 5.89538 153.308 5.89538 152.171 5.89538C151.71 9.10931 151.257 12.3232 150.802 15.5371C149.222 15.5396 147.643 15.5371 146.065 15.5371C146.518 12.3232 146.976 9.10931 147.429 5.89538C146.031 5.89538 144.638 5.89538 143.241 5.89538C143.396 4.73809 143.551 3.57838 143.709 2.41867ZM158.65 2.41867C158.036 6.78266 157.42 11.1442 156.831 15.5106C157.55 15.4793 158.271 15.5082 158.993 15.4985C161.457 15.513 163.924 15.472 166.391 15.5203C167.396 15.448 168.376 14.9271 168.868 14.1098C169.179 13.6179 169.189 13.0345 169.276 12.4848C169.521 10.7826 169.739 9.07555 170 7.37574V6.97072C169.929 6.2908 169.447 5.67357 168.773 5.38666C168.128 5.08287 167.383 5.14314 166.685 5.14073C165.469 5.14073 164.255 5.14073 163.039 5.14073C163.173 4.23418 163.31 3.32763 163.444 2.42108C161.847 2.41867 160.248 2.41867 158.65 2.41867ZM162.068 12.0725C162.236 10.9224 162.405 9.77234 162.573 8.6223C163.4 8.6223 164.226 8.6223 165.053 8.6223C164.89 9.63493 164.774 10.6548 164.561 11.6578C164.511 11.8121 164.479 12.0869 164.242 12.0652C163.518 12.0821 162.794 12.0676 162.068 12.0725ZM81.9207 5.32638C81.5754 7.67955 81.2569 10.0351 80.9174 12.3908C80.8097 12.9911 80.8569 13.63 81.1888 14.1676C81.6863 15.026 82.7285 15.5227 83.7662 15.5902H89.5715C91.1667 15.4118 92.6987 14.3774 93.0727 12.9043C93.2307 12.1255 93.2861 11.3347 93.4046 10.5511C91.8145 10.5511 90.227 10.5511 88.6395 10.5511C88.5682 10.9779 88.4968 11.4046 88.4312 11.8314C87.5254 11.8362 86.6227 11.8289 85.7194 11.8362C86.0009 9.86394 86.3252 7.89652 86.6042 5.92432C87.5228 5.93396 88.4421 5.93638 89.3607 5.94361C89.2925 6.37036 89.2263 6.79954 89.1581 7.22871C90.743 7.22871 92.3254 7.22871 93.9129 7.22871C94.0104 6.42099 94.1416 5.6133 94.2289 4.80319C94.2894 4.21489 94.0601 3.59285 93.5651 3.20467C92.8465 2.63566 91.8566 2.47171 90.9322 2.47412C89.1817 2.48136 87.4279 2.46448 85.6773 2.48135C83.9318 2.53199 82.1997 3.70376 81.9207 5.32638ZM110.133 2.47412C109.525 6.84535 108.915 11.2166 108.306 15.5878H120.001C120.156 14.4425 120.312 13.2949 120.465 12.1496C118.158 12.1472 115.852 12.1496 113.545 12.1496C113.627 11.6047 113.711 11.0623 113.795 10.5174C116.096 10.5125 118.395 10.4956 120.693 10.4956C120.833 9.50472 120.972 8.51617 121.112 7.52526C118.811 7.52768 116.507 7.54698 114.206 7.54698C114.288 7.00206 114.372 6.45957 114.456 5.91467C116.76 5.91467 119.061 5.91467 121.365 5.91467C121.52 4.76702 121.676 3.62178 121.828 2.47412C117.932 2.47412 114.032 2.47412 110.133 2.47412ZM123.197 3.94245C123.724 3.02143 124.861 2.46207 125.985 2.48135C130.271 2.48377 134.555 2.47894 138.839 2.48377C139.61 2.49341 140.445 2.41626 141.14 2.78997C141.888 3.1468 142.319 3.94485 142.198 4.70434C141.93 6.73202 141.656 8.75729 141.384 10.7826C141.231 12.0941 139.847 13.0803 138.449 13.1092C136.898 13.1189 135.348 13.1092 133.799 13.1116C133.681 13.9362 133.557 14.7608 133.441 15.5854H128.642C128.784 14.7608 128.897 13.9314 129.026 13.1044C127.56 13.1044 126.093 13.1044 124.627 13.1044C124.174 13.1044 123.713 13.0514 123.305 12.8633C122.645 12.5788 122.141 11.9785 122.078 11.3057C122.039 10.8428 122.155 10.3847 122.21 9.92421C122.423 8.37876 122.639 6.83331 122.852 5.2878C122.91 4.83453 122.95 4.35473 123.197 3.94245ZM127.01 9.63009C127.833 9.63009 128.658 9.63009 129.482 9.63009C129.695 8.40284 129.874 7.17081 130.013 5.93638C129.181 5.93638 128.349 5.93638 127.52 5.93638C127.349 7.16839 127.178 8.39806 127.01 9.63009ZM134.265 9.63735C134.981 9.63251 135.697 9.64697 136.413 9.63251C136.643 9.64697 136.798 9.45165 136.801 9.2564C136.969 8.1521 137.135 7.05028 137.303 5.94843C136.469 5.94843 135.637 5.94843 134.805 5.94843C134.623 7.17565 134.444 8.40768 134.265 9.63735Z" fill="#005A9C"/>
</svg>
