<svg width="156" height="70" viewBox="0 0 156 70" fill="none" xmlns="http://www.w3.org/2000/svg">
<path fill-rule="evenodd" clip-rule="evenodd" d="M129.808 34.8929V53.7368H125.077L125.074 30.6683H137.806V34.8929H129.808ZM138.626 30.6414L145.09 46.1098L144.512 47.6849C144.049 48.9502 143.702 50.4436 140.819 50.4436V54.6701C145.784 54.6701 147.177 52.1214 148.923 47.6849L155.623 30.6414H150.755L147.307 41.2167L143.527 30.6414H138.626ZM84.4913 37.9131C87.7707 37.9131 90.4271 40.5692 90.4271 43.8491C90.4271 47.1283 87.7707 49.7877 84.4913 49.7877C81.2105 49.7877 78.5535 47.1283 78.5535 43.8491C78.5535 40.5692 81.2105 37.9131 84.4913 37.9131ZM84.4897 33.5788C79.4925 33.5788 75.3299 37.1485 74.4106 41.8795H72.2216V33.7991H67.4864V53.7368H72.2216V46.1294H74.478C75.5152 50.7047 79.6044 54.1173 84.4897 54.1173C90.1625 54.1173 94.7581 49.5203 94.7581 43.8491C94.7581 38.1784 90.1625 33.5788 84.4897 33.5788ZM116.543 41.9569L117.416 53.7368H121.761L120.284 33.7991H115.938L109.373 48.9045L102.961 33.7991H98.6175L97.139 53.7368H101.484L102.345 42.1247L107.273 53.7368H111.423L116.543 41.9569ZM65.6898 34.8929H59.0084V53.7368H54.2739V34.8929H47.5908V30.6683H65.6898V34.8929Z" fill="#252422"/>
<path fill-rule="evenodd" clip-rule="evenodd" d="M44.4653 6.36381L33.4431 0L0.376953 19.0917V31.8186L11.3986 38.1822V25.4545L44.4653 6.36381Z" fill="#00A0E3"/>
<path fill-rule="evenodd" clip-rule="evenodd" d="M22.4206 70V31.8186L11.3984 38.1822V63.6362L22.4206 70Z" fill="#00A0E3"/>
</svg>
