<svg width="170" height="54" viewBox="0 0 170 54" fill="none" xmlns="http://www.w3.org/2000/svg">
<path fill-rule="evenodd" clip-rule="evenodd" d="M27.2543 30.0088L35.459 30L27.2543 38.6154V30.0088ZM29.2472 22.2987C29.5275 21.9516 32.4335 18.8232 32.8387 18.6361L33.828 22.3233L29.2472 22.2987ZM27.256 11.08L30.727 11.0719L31.6658 14.69L27.2557 19.2318L27.256 11.08ZM44.4454 41.5849L44.1202 42.0255C43.9085 42.2678 43.9415 42.2626 43.6878 42.446L43.3704 41.1426L40.2347 29.9885L41.8504 29.9765L41.8431 22.323L38.0621 22.2989C37.7068 20.8505 34.0797 7.74059 33.8395 7.35223L25.0315 7.3509L25.0318 4.2585C32.8496 3.96841 38.1796 6.06257 43.3575 11.0887C48.1093 15.7012 50.4586 23.1239 49.6096 30.0032C49.1518 33.7124 47.1421 38.6852 44.6524 41.396C44.5116 41.5493 44.5439 41.5196 44.4454 41.5849ZM27.2626 42.9277C30.4859 39.6992 33.625 36.3824 36.8585 33.1537L41.0401 47.7556C41.4509 49.2886 41.3782 48.8855 41.5872 49.6087C42.1108 49.4033 42.9465 48.7263 43.4547 48.3084C44.2366 47.7939 45.931 46.1519 46.5337 45.5981C47.4887 44.7205 48.3541 43.5599 49.1635 42.4207C50.6512 40.3267 52.0787 37.6202 52.9043 34.6848C57.4433 18.5459 47.1323 3.06276 31.6743 0.374454C29.3679 -0.0266342 23.075 -0.310896 21.2791 0.651835L21.3184 11.0691L23.7152 11.1118L23.6926 22.3131L20.5792 22.319L20.6237 29.976L23.7151 30.0111L23.7174 49.4798C22.0479 49.589 18.1096 48.0153 16.7447 47.3293C12.7762 45.3345 9.58916 42.2699 7.307 38.4442C6.19039 36.5723 5.29866 34.3115 4.75816 31.9428C2.97813 24.1417 5.52131 16.6322 10.4874 11.2921C12.5043 9.12326 13.4244 8.82122 15.5373 7.26485L15.5466 2.58106C14.5253 2.89198 12.4991 4.1587 11.7019 4.73521C11.0755 5.18816 10.4808 5.58707 9.97228 6.01828C-9.98852 22.9435 2.20314 54.0306 27.223 53.9983C27.3749 52.7273 27.2609 47.0912 27.2576 45.0865C27.2541 42.941 27.2538 44.2229 27.2626 42.9277ZM60.5432 13.7577H66.2106L72.0115 26.6588L76.9771 13.7577H82.2269L73.7982 32.6975C72.8816 34.751 71.9477 36.3115 70.9964 37.3846C70.045 38.4578 68.821 38.9915 67.3128 38.9915C65.8278 38.9915 64.6676 38.8928 63.8323 38.7014V34.9541C64.5458 35.0005 65.1897 35.0237 65.764 35.0237C66.9241 35.0237 67.7595 34.8091 68.2641 34.3856C68.763 33.9563 69.2503 33.034 69.7086 31.6244L60.5432 13.7577ZM84.9939 13.7577H101.874V17.9691H90.0406V38.6782H84.9939V13.7577ZM104.479 38.6782V13.7577H109.526V23.5727H119.341V13.7577H124.388V38.6782H119.341V27.7842H109.526V38.6782H104.479ZM135.218 38.6782V17.9691H127.839V13.7577H147.609V17.9691H140.265V38.6782H135.218ZM148.316 13.7577H153.984L159.785 26.6588L164.75 13.7577H170L161.571 32.6975C160.655 34.751 159.721 36.3115 158.77 37.3846C157.818 38.4578 156.594 38.9915 155.086 38.9915C153.601 38.9915 152.441 38.8928 151.605 38.7014V34.9541C152.319 35.0005 152.963 35.0237 153.537 35.0237C154.697 35.0237 155.533 34.8091 156.037 34.3856C156.536 33.9563 157.023 33.034 157.482 31.6244L148.316 13.7577Z" fill="#04427A"/>
</svg>
