<svg width="112" height="70" viewBox="0 0 112 70" fill="none" xmlns="http://www.w3.org/2000/svg">
<path fill-rule="evenodd" clip-rule="evenodd" d="M111.248 48.671C110.835 48.7053 110.203 48.9295 109.821 49.0269C109.326 49.1527 108.848 49.2859 108.36 49.4235C107.945 49.5402 107.327 49.6814 106.92 49.7671C106.365 49.8839 105.966 50.0061 105.421 50.126C102.609 50.745 99.0124 51.3746 96.0831 51.7114L91.1129 52.1656L85.3146 52.312C83.446 52.312 81.7561 52.168 79.9618 52.166C78.715 52.1646 73.3404 51.617 72.398 51.4816C68.47 50.917 64.772 50.2067 61.0063 49.052C60.6526 48.9435 60.3704 48.8167 59.9946 48.7261C59.3472 48.5699 1.95198 48.671 0.528686 48.671C1.23792 50.0113 4.02378 52.6632 5.07855 53.7068C7.11525 55.7221 10.9066 58.2811 13.3693 59.7576L17.2793 61.8666C18.4856 62.3602 19.8777 63.1021 21.3883 63.7024C21.999 63.945 22.5096 64.1559 23.1401 64.4026C27.5173 66.1161 33.7229 67.788 38.1923 68.522C41.3506 69.0407 47.7954 69.9374 51.2088 69.9215C51.7015 69.9192 51.8491 69.9994 52.3191 70L63.3152 69.7704C66.7775 69.499 70.0294 69.057 73.4784 68.4901C76.1544 68.0503 78.8304 67.382 81.3178 66.7438C82.5922 66.4167 83.7357 66.0109 84.986 65.6562C85.5935 65.4839 86.1852 65.272 86.7578 65.0502C88.5956 64.3385 89.9931 63.8788 91.9494 63.0338C95.5731 61.4688 98.773 59.6301 102.005 57.4843L104.058 55.9704C104.518 55.5918 104.916 55.292 105.361 54.8955L106.015 54.3614C106.681 53.8446 109.181 51.3065 109.645 50.7087C109.765 50.5543 109.809 50.5309 109.928 50.3974L111.248 48.671Z" fill="#060605"/>
<path fill-rule="evenodd" clip-rule="evenodd" d="M8.40534 16.5697C8.52505 16.391 8.66495 16.2521 8.84004 16.1127C10.094 15.115 11.2953 14.0679 12.7117 13.2223C13.6049 12.6891 13.9553 12.3559 15.0932 11.7397L17.5949 10.3773C18.4878 9.93083 19.2844 9.55387 20.1948 9.11329C20.6576 8.88931 21.0596 8.72984 21.5326 8.51894C21.9972 8.31181 22.4636 8.13742 22.9062 7.96057C23.8401 7.58731 24.7281 7.22422 25.7099 6.90018C28.7964 5.8814 31.4117 4.98926 34.692 4.29021C38.2634 3.52901 40.8826 3.00102 44.5802 2.58632L48.0854 2.22744C49.201 2.19901 49.6719 2.09615 50.8384 2.08246C51.2512 2.07763 51.3113 2.00733 51.7243 2.00224C53.052 1.98583 54.1713 1.93089 55.517 1.93089C56.8625 1.93089 57.9819 1.98583 59.3096 2.00224C59.7228 2.00733 59.7827 2.07789 60.1954 2.08246C63.985 2.1245 69.631 3.0025 73.2228 3.61959C75.4309 3.999 77.5022 4.53419 79.5927 5.05201C82.3728 5.74062 84.3713 6.46443 87.0337 7.34542L89.8689 8.44864C93.2495 9.79471 98.2534 12.3558 101.125 14.7292L103.223 16.5697L29.7319 16.4954C22.5448 16.4954 15.5917 16.5697 8.40534 16.5697ZM0.231445 21.5484C0.555213 21.393 1.09875 21.2912 1.48544 21.1676C1.90286 21.034 2.34809 20.926 2.8043 20.7774C3.67555 20.4935 4.5002 20.2736 5.39085 20.02C7.16968 19.5135 9.00171 19.0773 10.9537 18.8208C11.9637 18.6881 13.003 18.6227 13.9894 18.5126C15.0252 18.3969 16.3137 18.5042 17.2684 18.3734C18.3378 18.2268 19.5061 18.468 20.5491 18.3102C21.3257 18.1926 23.5499 18.2788 24.6046 18.2788C28.3027 18.2788 31.9806 18.3896 35.4492 18.6548C37.1401 18.7839 38.8793 19.0271 40.5028 19.2487C41.3041 19.3581 42.1396 19.5436 42.9057 19.6694C44.7106 19.9661 48.916 20.9885 50.908 21.4758C51.6167 21.6491 65.4885 21.5484 66.366 21.5484C81.401 21.5484 96.4361 21.5484 111.471 21.5484C110.983 20.8192 110.488 20.2526 109.934 19.5933C109.807 19.443 109.811 19.4132 109.67 19.2628C109.554 19.139 109.485 19.0902 109.38 18.9586C108.495 17.8534 107.184 16.7013 106.103 15.6957L104.476 14.3507C103.573 13.6783 102.686 12.9621 101.737 12.3339L98.8248 10.4904C98.5537 10.3268 98.36 10.2141 98.0728 10.0534L96.5385 9.20983C93.8298 7.63689 88.9744 5.68911 85.6956 4.5966L82.9789 3.74649C78.3898 2.44835 75.1443 1.72621 70.2622 1.00706C68.6423 0.768426 63.0675 0.1309 61.6102 0.147488C61.1064 0.15328 60.9382 0.075697 60.4986 0.0702555C60.1124 0.0655161 59.687 0.0941267 59.3063 0.0735895C56.3105 -0.0882506 54.1265 0.0667431 51.2789 0.0706926L41.4949 0.987228C37.6758 1.53928 33.3937 2.38902 29.6882 3.44765C26.6803 4.30706 25.3399 4.82979 22.5518 5.82277C19.9982 6.7322 17.6102 7.95408 15.1913 9.1627C14.8895 9.31357 14.7131 9.44267 14.4244 9.58468C12.9514 10.3093 9.2643 12.7216 7.91657 13.7773L3.48247 17.6657C3.27701 17.8712 3.0762 18.0477 2.88856 18.2608C2.42884 18.7828 0.351158 21.1001 0.231445 21.5484Z" fill="#060605"/>
<path fill-rule="evenodd" clip-rule="evenodd" d="M9.22278 41.7603H4.46701V36.5587C6.14062 36.5587 10.3269 36.3936 11.6457 36.9595C13.3145 37.6755 13.5211 40.3366 11.9428 41.285C11.249 41.7019 10.2925 41.7603 9.22278 41.7603ZM8.77693 33.2148H4.46701V28.6077C6.04303 28.6077 10.1589 28.3936 11.2818 29.0009C12.5165 29.6686 12.7275 31.9003 11.2274 32.7672C10.5981 33.1309 9.76605 33.2148 8.77693 33.2148ZM0.454361 45.1042C2.88899 45.1042 9.11439 45.2249 11.5968 45.026C12.7149 44.9365 13.6493 44.6778 14.4489 44.237C17.1257 42.7613 18.5583 37.7719 14.9153 35.3246C14.5942 35.109 13.9018 34.7379 13.4584 34.701V34.5524C14.739 34.254 16.1335 32.2146 16.1335 30.3911C16.1335 28.5039 15.195 27.0902 13.9947 26.2879C12.6714 25.4034 11.1519 25.2638 8.99986 25.2638H0.454361V45.1042Z" fill="#060605"/>
<path fill-rule="evenodd" clip-rule="evenodd" d="M40.4323 45.1042H44.222C44.5089 45.1042 45.2085 43.767 45.3402 43.5473L52.5446 32.0259V45.1042H56.26V25.2638H52.4703C52.251 25.2638 52.2091 25.4237 52.1183 25.5806C50.6544 28.1141 48.7654 30.9321 47.2447 33.4881C47.0609 33.7971 46.919 34.022 46.7341 34.315C46.0334 35.4254 44.9159 37.3771 44.2423 38.3624C44.1388 38.5137 44.2213 38.4062 44.1478 38.4907V25.2638H40.4323V45.1042Z" fill="#060605"/>
<path fill-rule="evenodd" clip-rule="evenodd" d="M95.9408 45.1042H99.7305C99.9507 45.1042 99.9911 44.9444 100.082 44.7869L100.849 43.5473C102.451 40.8721 104.359 38.0164 105.986 35.3095L107.959 32.1545C108.063 32.0004 107.979 32.1108 108.053 32.0259V45.1042H111.768V25.2638H107.979C107.72 25.2638 107.595 25.6472 107.381 26.0035L102.243 34.315C102.06 34.6049 101.917 34.8745 101.737 35.1468L99.6562 38.4907V25.2638H95.9408V45.1042Z" fill="#060605"/>
<path fill-rule="evenodd" clip-rule="evenodd" d="M20.4434 45.1042H24.456V36.41H32.2584V45.1042H36.2711V25.2638H32.2584V33.0662H24.456V25.2638H20.4434V45.1042Z" fill="#060605"/>
<path fill-rule="evenodd" clip-rule="evenodd" d="M75.9517 45.1042H79.9644V36.41H87.7667V45.1042H91.7794V25.2638H87.7667V33.0662H79.9644V25.2638H75.9517V45.1042Z" fill="#060605"/>
<path fill-rule="evenodd" clip-rule="evenodd" d="M60.4956 45.1042H64.5082V28.6077H73.8712V25.2638H60.4956V45.1042Z" fill="#060605"/>
</svg>
