<svg width="170" height="48" viewBox="0 0 170 48" fill="none" xmlns="http://www.w3.org/2000/svg">
<mask id="mask0_246_6270" style="mask-type:luminance" maskUnits="userSpaceOnUse" x="0" y="0" width="170" height="48">
<path d="M170 0.933838H0V47.0663H170V0.933838Z" fill="white"/>
</mask>
<g mask="url(#mask0_246_6270)">
<path fill-rule="evenodd" clip-rule="evenodd" d="M30.4242 18.8075L28.5179 18.6009C27.5484 18.4962 26.677 17.976 26.1444 17.1809C25.7768 16.6324 25.4042 16.0886 25.0286 15.5518L12.8604 20.1392L6.10109 22.6889C2.9133 23.8908 0.554008 26.6315 0.0542165 29.9222C0.0342379 30.0522 0.0171327 30.1811 0.00292969 30.308C0.0138634 30.3029 0.0272288 30.2974 0.0411414 30.292L30.4242 18.8075Z" fill="#FCB900"/>
<path fill-rule="evenodd" clip-rule="evenodd" d="M34.1497 25.7515L33.0219 25.6291C31.6916 25.4852 30.5404 24.6835 29.9441 23.5182C29.7272 23.095 29.4997 22.6687 29.2622 22.2393L11.0893 29.0887L0.0825195 33.238C0.0846994 33.2551 0.0872468 33.2726 0.0890268 33.2896C0.440325 35.8843 3.23664 37.4472 5.74513 36.5019L34.1497 25.7515Z" fill="#FCB900"/>
<path fill-rule="evenodd" clip-rule="evenodd" d="M25.8301 12.2882C25.707 12.2749 25.5845 12.2588 25.4628 12.2403C22.5471 11.7965 20.2677 9.54897 19.6911 6.73343L18.5404 1.11548C18.5404 1.11548 8.88096 12.4728 4.0752 20.4882L4.08351 20.4853L4.0752 20.4893C4.65312 20.2713 25.8301 12.2882 25.8301 12.2882Z" fill="#484949"/>
<path fill-rule="evenodd" clip-rule="evenodd" d="M34.9713 28.396L32.2012 29.49C32.2012 29.49 32.2012 29.4889 32.2008 29.4882L11.8391 37.1647C7.17234 38.9234 7.65804 45.5029 12.5376 46.5876C13.7036 46.8466 14.9179 46.9835 16.1654 46.9835C24.1023 46.9835 30.7036 41.4378 32.1036 34.1119C32.5006 32.036 33.4777 30.1057 34.8835 28.4965L34.9713 28.396Z" fill="#484949"/>
<path fill-rule="evenodd" clip-rule="evenodd" d="M164.474 19.1268H161.256V12.6882H158.205V29.4906H164.474C167.752 29.4906 169.956 27.4485 169.956 24.4096C169.956 23.8675 169.802 19.1268 164.474 19.1268ZM164.15 26.8127H161.256V21.729H164.25C166.333 21.729 166.888 23.3663 166.888 24.334C166.888 25.0792 166.621 26.8127 164.15 26.8127ZM144.933 16.3194C144.443 15.6164 143.737 15.0084 142.835 14.5123C141.956 14.0279 140.814 13.7277 139.439 13.6197V12.6882H136.362V13.6197C134.969 13.729 133.817 14.0504 132.938 14.577C132.037 15.1144 131.32 15.7503 130.808 16.4676C130.292 17.1838 129.937 17.9482 129.752 18.742C129.569 19.5286 129.474 20.2426 129.474 20.8643C129.474 21.6346 129.563 22.4491 129.739 23.2848C129.916 24.1276 130.263 24.9218 130.769 25.647C131.276 26.3748 131.998 27.0002 132.916 27.5048C133.812 27.9977 134.979 28.2856 136.387 28.3618V29.4906H139.439V28.3573C140.75 28.2339 141.845 27.9337 142.697 27.4672C143.574 26.9866 144.282 26.3889 144.806 25.6877C145.328 24.9886 145.696 24.2097 145.9 23.3752C146.101 22.5454 146.202 21.7014 146.202 20.8643C146.202 20.1443 146.113 19.3758 145.937 18.581C145.76 17.7795 145.422 17.018 144.933 16.3194ZM136.387 25.7492C135.726 25.6639 135.153 25.5002 134.684 25.2647C134.185 25.0163 133.779 24.6871 133.476 24.2887C133.172 23.8863 132.947 23.4051 132.81 22.8578C132.672 22.3041 132.602 21.6761 132.602 20.9898C132.602 20.3526 132.672 19.7497 132.81 19.1961C132.947 18.6481 133.176 18.1539 133.49 17.7271C133.804 17.3015 134.211 16.9515 134.699 16.6869C135.161 16.4373 135.728 16.2749 136.387 16.2025V25.7492ZM142.246 24.3171C141.69 25.1232 140.745 25.5972 139.439 25.7279V16.227C140.127 16.2995 140.711 16.4702 141.174 16.736C141.663 17.0162 142.057 17.3783 142.345 17.8105C142.636 18.2445 142.84 18.7427 142.952 19.2906C143.066 19.8482 143.125 20.4276 143.125 21.0143C143.125 22.3649 142.829 23.4755 142.246 24.3171ZM122.124 22.1282H126.934V19.4508H122.124V15.3662H127.732V12.6882H119.072V29.4906H127.882V26.8121H122.124V22.1282ZM113.205 19.35H106.825V12.6882H103.774V29.4906H106.825V22.0279H113.205V29.4906H116.256V12.6882H113.205V19.35ZM146.288 15.3662H149.72V29.4906H152.771V15.3662H156.241V12.6882H146.288V15.3662Z" fill="#009832"/>
<path fill-rule="evenodd" clip-rule="evenodd" d="M44.5234 12.6882H50.4084C51.5763 12.6882 52.443 12.743 53.0151 12.8525C53.5905 12.9659 54.1008 13.1967 54.5531 13.5447C55.0053 13.8968 55.382 14.3622 55.6835 14.945C55.985 15.5278 56.1354 16.1848 56.1354 16.9084C56.1354 17.6907 55.9505 18.4143 55.5807 19.0675C55.2106 19.7245 54.7071 20.2134 54.0736 20.542C54.9675 20.8432 55.6526 21.3516 56.1354 22.0713C56.6152 22.7909 56.855 23.6358 56.855 24.6097C56.855 25.3763 56.7006 26.1195 56.3889 26.843C56.0773 27.5666 55.6526 28.1454 55.1114 28.5796C54.5734 29.0099 53.909 29.2758 53.1179 29.3775C52.6246 29.4361 51.4291 29.4753 49.5348 29.4909H44.5234V12.6882ZM47.5035 15.4808V19.3529H49.4491C50.6035 19.3529 51.3227 19.3335 51.6039 19.2943C52.1106 19.2278 52.5116 19.0284 52.8026 18.6959C53.0939 18.3634 53.2378 17.9293 53.2378 17.3895C53.2378 16.8693 53.111 16.4508 52.8607 16.1262C52.6108 15.8016 52.2374 15.606 51.7441 15.5395C51.4498 15.5004 50.6035 15.4808 49.2093 15.4808H47.5035ZM47.5035 22.1456V26.6514H50.2577C51.3263 26.6514 52.0078 26.6162 52.2955 26.5497C52.7376 26.4558 53.0972 26.2328 53.3747 25.877C53.6522 25.5171 53.7924 25.0439 53.7924 24.4454C53.7924 23.937 53.6864 23.5107 53.4706 23.1586C53.2581 22.8066 52.9464 22.5484 52.5421 22.3881C52.1382 22.2278 51.2577 22.1456 49.9046 22.1456H47.5035ZM59.3657 29.4909V12.6882H62.3458V19.3061H68.1415V12.6882H71.1215V29.4909H68.1415V22.1456H62.3458V29.4909H59.3657ZM74.2491 12.6882H77.0236V23.8743L82.9838 12.6882H85.9431V29.4909H83.1686V18.4847L77.2085 29.4909H74.2491V12.6882ZM89.0228 12.6882H91.7972V23.8743L97.7574 12.6882H100.717V29.4909H97.9423V18.4847L91.9821 29.4909H89.0228V12.6882Z" fill="#009832"/>
<path fill-rule="evenodd" clip-rule="evenodd" d="M44.6104 35.697H45.096V38.9535L47.2501 35.697H47.7801V39.8093H47.294V36.5615L45.1461 39.8093H44.6104V35.697ZM48.6493 39.8093V35.697H49.4517L50.4082 38.608C50.4968 38.879 50.5611 39.0817 50.6014 39.2168C50.6475 39.0675 50.7202 38.8474 50.8179 38.5571L51.7918 35.697H52.5085V39.8093H51.9941V36.369L50.8132 39.8093H50.3311L49.1633 36.3058V39.8093H48.6493ZM53.3784 39.8093V35.697H56.2997V36.1795H53.9153V37.4431H56.1471V37.9255H53.9153V39.3269H56.3956V39.8093H53.3784ZM57.1584 39.8093V35.697H57.6953V37.3915H59.7858V35.697H60.3226V39.8093H59.7858V37.8739H57.6953V39.8093H57.1584ZM61.2275 35.697H61.7135V38.9535L63.8672 35.697H64.3976V39.8093H63.9115V36.5615L61.7633 39.8093H61.2275V35.697ZM66.4041 39.8093L67.9563 35.697H68.5448L70.1917 39.8093H69.5826L69.1143 38.563H67.4107L66.9719 39.8093H66.4041ZM67.568 38.1209H68.9469L68.5248 36.9807C68.3976 36.6342 68.3017 36.3479 68.2349 36.1221C68.1793 36.39 68.1049 36.6533 68.0115 36.9137L67.568 38.1209ZM70.6276 35.697H71.1645V37.5005C71.4086 37.5005 71.5808 37.4518 71.6796 37.3548C71.7795 37.2582 71.9055 37.0267 72.0599 36.6591C72.1721 36.3882 72.2644 36.1977 72.3378 36.0867C72.4104 35.9747 72.514 35.8808 72.6487 35.8052C72.7824 35.7296 72.931 35.6913 73.093 35.6913C73.2993 35.6913 73.4076 35.6931 73.4188 35.697V36.168C73.4003 36.168 73.3643 36.1669 73.3117 36.1651C73.2524 36.1633 73.2165 36.1622 73.2034 36.1622C73.0327 36.1622 72.9055 36.2044 72.8227 36.2886C72.7381 36.3728 72.6418 36.5528 72.5329 36.8275C72.397 37.1759 72.2822 37.3962 72.1881 37.487C72.0948 37.5771 71.9818 37.6498 71.8521 37.7042C72.1129 37.7773 72.3708 38.0232 72.6251 38.4405L73.4584 39.8093H72.7937L72.1148 38.6952C71.9291 38.3857 71.7737 38.1736 71.6494 38.0584C71.5241 37.9425 71.3632 37.8851 71.1645 37.8851V39.8093H70.6276V35.697ZM73.4642 39.8093L75.016 35.697H75.6048L77.2518 39.8093H76.6423L76.1744 38.563H74.4708L74.032 39.8093H73.4642ZM74.6281 38.1209H76.0066L75.5849 36.9807C75.4577 36.6342 75.3618 36.3479 75.295 36.1221C75.2394 36.39 75.1649 36.6533 75.0716 36.9137L74.6281 38.1209ZM78.2311 35.697H80.6947V39.3269H81.0561V40.7686H80.5817V39.8093H77.9035V40.7686H77.4287V39.3269H77.7396C78.0673 38.827 78.2311 37.8172 78.2311 36.2982V35.697ZM80.1578 36.1795H78.7451V36.39C78.7451 36.7404 78.7142 37.22 78.6521 37.8277C78.5907 38.4358 78.4683 38.9353 78.2874 39.3269H80.1578V36.1795ZM81.7012 39.8093V35.697H84.6225V36.1795H82.2381V37.4431H84.4699V37.9255H82.2381V39.3269H84.7187V39.8093H81.7012ZM85.4474 39.8093V35.697H86.2498L87.2066 38.608C87.2949 38.879 87.3592 39.0817 87.3995 39.2168C87.4456 39.0675 87.5183 38.8474 87.6164 38.5571L88.5899 35.697H89.3065V39.8093H88.7926V36.369L87.6113 39.8093H87.1292L85.9618 36.3058V39.8093H85.4474ZM90.1765 35.697H90.6626V38.9535L92.8163 35.697H93.3466V39.8093H92.8606V36.5615L90.7127 39.8093H90.1765V35.697ZM94.238 35.697H94.7749V37.5005C95.019 37.5005 95.1912 37.4518 95.29 37.3548C95.3899 37.2582 95.5163 37.0267 95.6707 36.6591C95.7825 36.3882 95.8748 36.1977 95.9485 36.0867C96.0208 35.9747 96.1244 35.8808 96.2591 35.8052C96.3928 35.7296 96.5417 35.6913 96.7037 35.6913C96.9097 35.6913 97.0183 35.6931 97.0296 35.697V36.168C97.0107 36.168 96.9747 36.1669 96.922 36.1651C96.8628 36.1633 96.8269 36.1622 96.8138 36.1622C96.6434 36.1622 96.5163 36.2044 96.4335 36.2886C96.3488 36.3728 96.2526 36.5528 96.1432 36.8275C96.0077 37.1759 95.893 37.3962 95.7985 37.487C95.7055 37.5771 95.5926 37.6498 95.4625 37.7042C95.7233 37.7773 95.9812 38.0232 96.2355 38.4405L97.0688 39.8093H96.4041L95.7251 38.6952C95.5395 38.3857 95.3844 38.1736 95.2602 38.0584C95.1349 37.9425 94.9736 37.8851 94.7749 37.8851V39.8093H94.238V35.697ZM97.0746 39.8093L98.6268 35.697H99.2152L100.862 39.8093H100.253L99.7848 38.563H98.0815L97.6427 39.8093H97.0746ZM98.2388 38.1209H99.6173L99.1956 36.9807C99.0685 36.6342 98.9722 36.3479 98.9054 36.1221C98.8498 36.39 98.7753 36.6533 98.682 36.9137L98.2388 38.1209ZM102.413 39.8093L103.965 35.697H104.554L106.201 39.8093H105.592L105.123 38.563H103.42L102.981 39.8093H102.413ZM103.577 38.1209H104.956L104.534 36.9807C104.407 36.6342 104.311 36.3479 104.244 36.1221C104.188 36.39 104.114 36.6533 104.021 36.9137L103.577 38.1209ZM106.705 39.8093V39.235H107.27V39.8093H106.705ZM108.201 35.697H111.376V39.8093H110.84V36.1795H108.738V39.8093H108.201V35.697ZM112.336 39.8093V39.235H112.901V39.8093H112.336ZM115.408 35.697H115.945V37.5005C116.189 37.5005 116.361 37.4518 116.46 37.3548C116.56 37.2582 116.686 37.0267 116.84 36.6591C116.952 36.3882 117.045 36.1977 117.118 36.0867C117.191 35.9747 117.294 35.8808 117.429 35.8052C117.563 35.7296 117.711 35.6913 117.873 35.6913C118.079 35.6913 118.188 35.6931 118.199 35.697V36.168C118.18 36.168 118.144 36.1669 118.092 36.1651C118.033 36.1633 117.997 36.1622 117.984 36.1622C117.813 36.1622 117.686 36.2044 117.603 36.2886C117.518 36.3728 117.422 36.5528 117.313 36.8275C117.177 37.1759 117.062 37.3962 116.968 37.487C116.875 37.5771 116.762 37.6498 116.632 37.7042C116.893 37.7773 117.151 38.0232 117.405 38.4405L118.239 39.8093H117.574L116.895 38.6952C116.709 38.3857 116.554 38.1736 116.43 38.0584C116.304 37.9425 116.143 37.8851 115.945 37.8851V39.8093H115.408V35.697ZM118.688 39.8093V35.697H120.215C120.484 35.697 120.689 35.7104 120.831 35.7363C121.03 35.7698 121.196 35.8339 121.331 35.9277C121.466 36.0226 121.574 36.1547 121.656 36.324C121.738 36.4935 121.778 36.6801 121.778 36.884C121.778 37.2324 121.669 37.5284 121.45 37.7696C121.231 38.0115 120.835 38.1321 120.263 38.1321H119.225V39.8093H118.688ZM119.225 37.6498H120.27C120.616 37.6498 120.861 37.5847 121.007 37.4536C121.152 37.3225 121.225 37.1386 121.225 36.9002C121.225 36.7289 121.183 36.5816 121.097 36.459C121.011 36.3365 120.898 36.2551 120.759 36.2159C120.668 36.1919 120.502 36.1795 120.26 36.1795H119.225V37.6498ZM122.485 35.697H123.022V37.4489H123.985C124.617 37.4489 125.032 37.5677 125.232 37.806C125.43 38.0432 125.53 38.313 125.53 38.6145C125.53 38.9335 125.424 39.2121 125.21 39.4515C124.997 39.6898 124.602 39.8093 124.023 39.8093H122.485V35.697ZM123.022 39.3439H123.997C124.332 39.3439 124.576 39.2866 124.727 39.1718C124.879 39.057 124.954 38.8732 124.954 38.6204C124.954 38.4493 124.908 38.3047 124.817 38.1888C124.725 38.0729 124.607 37.9992 124.462 37.9676C124.317 37.936 124.076 37.9196 123.736 37.9196H123.022V39.3439ZM126.016 35.697H126.553V39.8093H126.016V35.697ZM127.759 35.697H130.284V39.8093H129.747V36.1795H128.295V38.2978C128.295 38.7286 128.275 39.0435 128.236 39.2437C128.196 39.4446 128.113 39.5997 127.986 39.7116C127.858 39.8227 127.696 39.8783 127.501 39.8783C127.383 39.8783 127.241 39.8532 127.075 39.8035L127.171 39.3211C127.258 39.3672 127.334 39.3901 127.396 39.3901C127.516 39.3901 127.608 39.3439 127.668 39.2513C127.728 39.1583 127.759 38.94 127.759 38.5957V35.697ZM131.003 37.8078C131.003 37.1261 131.184 36.5921 131.545 36.2064C131.906 35.8205 132.371 35.6282 132.942 35.6282C133.315 35.6282 133.651 35.7191 133.952 35.9C134.251 36.0809 134.48 36.3336 134.638 36.6581C134.795 36.9817 134.874 37.3493 134.874 37.7598C134.874 38.1761 134.791 38.5495 134.625 38.8779C134.46 39.2074 134.225 39.4562 133.922 39.6247C133.618 39.794 133.29 39.8783 132.939 39.8783C132.557 39.8783 132.217 39.7846 131.917 39.5979C131.618 39.4111 131.39 39.1565 131.235 38.8329C131.081 38.5103 131.003 38.1685 131.003 37.8078ZM131.557 37.8172C131.557 38.3123 131.688 38.7017 131.95 38.9861C132.212 39.2702 132.54 39.413 132.936 39.413C133.339 39.413 133.67 39.2695 133.93 38.9822C134.19 38.6952 134.32 38.2873 134.32 37.7587C134.32 37.4249 134.265 37.1329 134.154 36.884C134.042 36.6351 133.88 36.4417 133.666 36.3049C133.451 36.168 133.211 36.0991 132.944 36.0991C132.566 36.0991 132.24 36.2312 131.967 36.4954C131.694 36.7596 131.557 37.1999 131.557 37.8172ZM135.54 39.8093V35.697H137.058C137.367 35.697 137.614 35.7382 137.802 35.8215C137.988 35.9047 138.134 36.033 138.24 36.2064C138.346 36.3786 138.399 36.5595 138.399 36.7491C138.399 36.9242 138.352 37.0898 138.259 37.2449C138.165 37.3998 138.024 37.5255 137.835 37.6211C138.079 37.6937 138.268 37.8183 138.399 37.9945C138.531 38.1696 138.596 38.3773 138.596 38.6167C138.596 38.81 138.556 38.9891 138.476 39.1547C138.396 39.3203 138.297 39.4475 138.179 39.5376C138.062 39.6266 137.914 39.6945 137.737 39.7402C137.559 39.7864 137.341 39.8093 137.083 39.8093H135.54ZM136.077 37.4256H136.951C137.189 37.4256 137.359 37.4096 137.462 37.378C137.599 37.337 137.701 37.268 137.77 37.1722C137.838 37.0764 137.873 36.9568 137.873 36.8122C137.873 36.6753 137.841 36.5547 137.776 36.4513C137.712 36.347 137.62 36.2752 137.5 36.2369C137.381 36.1986 137.175 36.1795 136.885 36.1795H136.077V37.4256ZM136.077 39.3269H137.084C137.257 39.3269 137.379 39.3203 137.45 39.3069C137.572 39.2847 137.676 39.2473 137.758 39.1946C137.841 39.142 137.909 39.0657 137.963 38.9651C138.016 38.8645 138.043 38.7486 138.043 38.6174C138.043 38.4634 138.004 38.3305 137.926 38.2164C137.849 38.1027 137.742 38.0232 137.604 37.977C137.467 37.9313 137.269 37.9084 137.013 37.9084H136.077V39.3269ZM138.7 39.8093L140.252 35.697H140.841L142.487 39.8093H141.878L141.41 38.563H139.707L139.268 39.8093H138.7ZM139.864 38.1209H141.243L140.821 36.9807C140.694 36.6342 140.598 36.3479 140.531 36.1221C140.475 36.39 140.401 36.6533 140.308 36.9137L139.864 38.1209Z" fill="#484949"/>
</g>
</svg>
