<svg width="170" height="30" viewBox="0 0 170 30" fill="none" xmlns="http://www.w3.org/2000/svg">
<path d="M120.128 9.3102C120.078 9.52913 120.002 9.72023 119.899 9.88293C119.796 10.0466 119.664 10.1751 119.505 10.2696C119.346 10.3641 119.16 10.4113 118.945 10.4113C118.471 10.4113 118.132 10.2587 117.925 9.9543C117.719 9.64923 117.616 9.20315 117.616 8.61484C117.616 8.3745 117.634 8.14036 117.673 7.913C117.712 7.68517 117.781 7.4826 117.88 7.30411C117.979 7.12568 118.114 6.98292 118.287 6.87586C118.458 6.7688 118.677 6.71521 118.945 6.71521C119.212 6.71521 119.426 6.77299 119.589 6.88844C119.753 7.00453 119.879 7.15362 119.97 7.33668C120.061 7.51894 120.121 7.7215 120.154 7.94507C120.185 8.16811 120.202 8.38913 120.202 8.6085C120.202 8.85734 120.177 9.09141 120.128 9.3102ZM120.689 7.7215C120.632 7.44584 120.532 7.20334 120.392 6.99239C120.253 6.78138 120.065 6.61299 119.828 6.48598C119.591 6.35899 119.297 6.29535 118.945 6.29535C118.596 6.29535 118.3 6.35834 118.057 6.48281C117.814 6.60772 117.619 6.77611 117.47 6.98921C117.321 7.20189 117.214 7.44794 117.148 7.7278C117.081 8.00743 117.048 8.29989 117.048 8.60533C117.048 8.94443 117.083 9.25138 117.151 9.5243C117.22 9.79722 117.33 10.0303 117.484 10.2245C117.636 10.4176 117.832 10.5673 118.07 10.6727C118.309 10.7783 118.6 10.8308 118.945 10.8308C119.245 10.8308 119.511 10.7735 119.741 10.6597C119.971 10.5457 120.162 10.3888 120.315 10.1888C120.468 9.98898 120.583 9.75109 120.661 9.47564C120.737 9.20063 120.777 8.90391 120.777 8.58543C120.777 8.28461 120.747 7.99655 120.689 7.7215ZM115.456 9.84725C115.424 9.94803 115.372 10.0362 115.301 10.1111C115.23 10.1867 115.139 10.2465 115.027 10.2923C114.915 10.3374 114.78 10.3599 114.621 10.3599H113.582V8.695H114.621C114.767 8.695 114.896 8.71814 115.008 8.76284C115.119 8.80796 115.211 8.86931 115.285 8.94695C115.359 9.02423 115.413 9.11383 115.45 9.21461C115.486 9.31604 115.505 9.41999 115.505 9.52747C115.505 9.63935 115.488 9.74582 115.456 9.84725ZM113.582 6.78622H114.505C114.815 6.78622 115.037 6.85651 115.173 6.99824C115.308 7.13932 115.376 7.31884 115.376 7.53715C115.376 7.76455 115.301 7.94407 115.153 8.07671C115.005 8.21007 114.788 8.27617 114.505 8.27617H113.582V6.78622ZM115.898 8.96021C115.843 8.8546 115.768 8.75801 115.676 8.66941C115.583 8.58125 115.464 8.51341 115.317 8.4662C115.545 8.3497 115.703 8.20437 115.792 8.02848C115.879 7.85208 115.924 7.67426 115.924 7.49373C115.924 7.33039 115.898 7.18028 115.844 7.04274C115.79 6.90585 115.71 6.78622 115.601 6.68544C115.494 6.58467 115.359 6.50636 115.195 6.4503C115.031 6.39403 114.842 6.36629 114.627 6.36629H113.04V10.7788H114.801C114.969 10.7788 115.129 10.751 115.278 10.6947C115.429 10.6391 115.562 10.5583 115.676 10.4523C115.79 10.3473 115.879 10.2203 115.946 10.0719C116.013 9.92323 116.046 9.75844 116.046 9.57743C116.046 9.49135 116.035 9.3931 116.014 9.28353C115.993 9.17374 115.954 9.06561 115.898 8.96021ZM108.7 6.7925H110.12V10.7788H110.655L110.661 6.7925H112.074V6.36H108.7V6.7925ZM107.515 10.3049C107.415 10.3242 107.319 10.3406 107.224 10.3532C107.13 10.3662 107.04 10.3757 106.954 10.3819C106.867 10.3888 106.796 10.392 106.74 10.392C106.452 10.392 106.216 10.3458 106.03 10.2535C105.846 10.1605 105.7 10.0335 105.592 9.87277C105.485 9.71122 105.41 9.52221 105.37 9.30494C105.329 9.08759 105.308 8.85208 105.308 8.59848C105.308 8.31042 105.338 8.05047 105.396 7.81806C105.454 7.58547 105.54 7.38919 105.657 7.22752C105.773 7.0665 105.92 6.94304 106.098 6.85694C106.277 6.7709 106.487 6.72785 106.727 6.72785C106.865 6.72785 107.013 6.7373 107.173 6.75681C107.332 6.77611 107.499 6.81599 107.676 6.87645L107.792 6.46959C107.659 6.42235 107.499 6.38038 107.315 6.34425C107.13 6.30755 106.917 6.28906 106.676 6.28906C106.418 6.28906 106.191 6.32475 105.996 6.39569C105.8 6.46647 105.631 6.56091 105.489 6.67953C105.348 6.79776 105.228 6.93423 105.131 7.08896C105.034 7.24386 104.957 7.40703 104.899 7.57918C104.841 7.75133 104.799 7.92453 104.776 8.09884C104.752 8.27307 104.741 8.43952 104.741 8.59848C104.741 8.92979 104.774 9.23314 104.841 9.50815C104.907 9.78317 105.016 10.0187 105.167 10.2146C105.317 10.4103 105.512 10.5621 105.754 10.6696C105.994 10.7773 106.291 10.8308 106.644 10.8308C106.747 10.8308 106.855 10.8249 106.969 10.8145C107.084 10.8035 107.196 10.7899 107.308 10.7725C107.419 10.7552 107.526 10.7336 107.628 10.7081C107.728 10.6822 107.817 10.6544 107.895 10.6244L107.792 10.2371C107.706 10.2629 107.613 10.2853 107.515 10.3049ZM101.738 8.6436H103.545V8.24366H101.738V6.78622H103.88V6.36629H101.19V10.7788H103.984V10.3599H101.738V8.6436ZM99.7429 6.36629H99.1885V10.392H97.6076V6.36629H97.0598V10.392H95.4536V6.36629H94.9173V10.7788H99.763V11.8627H100.195V10.392H99.7429V6.36629ZM93.2816 9.8577C93.2362 9.97211 93.1742 10.0691 93.0978 10.1495C93.02 10.2293 92.9291 10.2896 92.8268 10.3305C92.723 10.3715 92.6112 10.392 92.4916 10.392H91.4203V8.57959H92.4079C92.5327 8.57959 92.6509 8.59531 92.7655 8.62782C92.8787 8.6604 92.9796 8.71079 93.0654 8.78007C93.1512 8.84891 93.2196 8.9396 93.2715 9.05191C93.3235 9.16429 93.3487 9.29967 93.3487 9.45985C93.3487 9.61044 93.3263 9.7433 93.2816 9.8577ZM93.5556 8.55227C93.4388 8.44104 93.291 8.3528 93.1108 8.28879C92.9291 8.2247 92.715 8.19219 92.4649 8.19219H91.4203V6.75364H93.4655V6.36629H90.8782V10.7788H92.5622C92.7561 10.7788 92.9327 10.7504 93.0942 10.6923C93.2557 10.6345 93.3963 10.5484 93.5166 10.4345C93.6378 10.3207 93.7308 10.1814 93.7971 10.0167C93.8641 9.85143 93.8973 9.65932 93.8973 9.44039C93.8973 9.26464 93.8692 9.10021 93.8136 8.94861C93.7574 8.79578 93.6716 8.66415 93.5556 8.55227ZM89.1763 9.3102C89.1272 9.52913 89.0501 9.72023 88.9477 9.88293C88.8439 10.0466 88.7127 10.1751 88.5541 10.2696C88.3941 10.3641 88.2074 10.4113 87.9926 10.4113C87.5197 10.4113 87.1794 10.2587 86.9725 9.9543C86.7664 9.64923 86.6633 9.20315 86.6633 8.61484C86.6633 8.3745 86.6827 8.14036 86.7209 7.913C86.7599 7.68517 86.8291 7.4826 86.9278 7.30411C87.0266 7.12568 87.1621 6.98292 87.3337 6.87586C87.506 6.7688 87.7258 6.71521 87.9926 6.71521C88.2586 6.71521 88.4741 6.77299 88.637 6.88844C88.8007 7.00453 88.9275 7.15362 89.0184 7.33668C89.1078 7.51894 89.1698 7.7215 89.2022 7.94507C89.2339 8.16811 89.2498 8.38913 89.2498 8.6085C89.2498 8.85734 89.226 9.09141 89.1763 9.3102ZM89.4408 6.99239C89.3002 6.78138 89.1121 6.61299 88.8756 6.48598C88.6399 6.35899 88.3451 6.29535 87.9926 6.29535C87.6437 6.29535 87.3481 6.35834 87.1052 6.48281C86.863 6.60772 86.6662 6.77611 86.5184 6.98921C86.3706 7.20189 86.2625 7.44794 86.1961 7.7278C86.1291 8.00743 86.0952 8.29989 86.0952 8.60533C86.0952 8.94443 86.1298 9.25138 86.199 9.5243C86.2675 9.79722 86.3792 10.0303 86.5314 10.2245C86.6835 10.4176 86.8795 10.5673 87.1181 10.6727C87.3568 10.7783 87.6487 10.8308 87.9926 10.8308C88.2932 10.8308 88.5592 10.7735 88.7891 10.6597C89.0191 10.5457 89.2101 10.3888 89.363 10.1888C89.5158 9.98898 89.6311 9.75109 89.7083 9.47564C89.7861 9.20063 89.8243 8.90391 89.8243 8.58543C89.8243 8.28461 89.7955 7.99655 89.7378 7.7215C89.6787 7.44584 89.5807 7.20334 89.4408 6.99239ZM80.6057 8.6436H82.4123V8.24366H80.6057V6.78622H82.7475V6.36629H80.0579V10.7788H82.8506V10.3599H80.6057V8.6436ZM78.2917 9.3102C78.242 9.52913 78.1656 9.72023 78.0625 9.88293C77.9594 10.0466 77.8282 10.1751 77.6696 10.2696C77.5103 10.3641 77.3229 10.4113 77.1073 10.4113C76.6344 10.4113 76.2949 10.2587 76.088 9.9543C75.8818 9.64923 75.7788 9.20315 75.7788 8.61484C75.7788 8.3745 75.7982 8.14036 75.8364 7.913C75.8754 7.68517 75.9446 7.4826 76.0426 7.30411C76.1421 7.12568 76.2776 6.98292 76.4499 6.87586C76.6215 6.7688 76.8413 6.71521 77.1073 6.71521C77.3741 6.71521 77.5889 6.77299 77.7532 6.88844C77.9162 7.00453 78.043 7.15362 78.1339 7.33668C78.2232 7.51894 78.2852 7.7215 78.3177 7.94507C78.3494 8.16811 78.366 8.38913 78.366 8.6085C78.366 8.85734 78.3415 9.09141 78.2917 9.3102ZM78.5563 6.99239C78.4164 6.78138 78.2283 6.61299 77.9911 6.48598C77.7554 6.35899 77.4606 6.29535 77.1073 6.29535C76.7591 6.29535 76.4636 6.35834 76.2207 6.48281C75.9777 6.60772 75.7824 6.77611 75.6339 6.98921C75.4854 7.20189 75.3779 7.44794 75.3116 7.7278C75.2446 8.00743 75.2107 8.29989 75.2107 8.60533C75.2107 8.94443 75.2453 9.25138 75.3145 9.5243C75.383 9.79722 75.494 10.0303 75.6461 10.2245C75.7989 10.4176 75.9943 10.5673 76.2336 10.6727C76.4722 10.7783 76.7635 10.8308 77.1073 10.8308C77.4087 10.8308 77.6739 10.7735 77.9039 10.6597C78.1339 10.5457 78.3263 10.3888 78.4784 10.1888C78.6313 9.98898 78.7466 9.75109 78.8237 9.47564C78.9009 9.20063 78.9405 8.90391 78.9405 8.58543C78.9405 8.28461 78.911 7.99655 78.8526 7.7215C78.7942 7.44584 78.6961 7.20334 78.5563 6.99239ZM73.5318 8.2247H71.4681C71.4681 7.91047 71.4686 7.60079 71.4707 7.2953C71.4729 6.99029 71.474 6.6806 71.474 6.36629H70.9128V10.7788H71.474C71.474 10.4267 71.4729 10.075 71.4707 9.72441C71.4686 9.37421 71.4681 9.02257 71.4681 8.66941H73.5318V10.7788H74.0933V6.36629H73.5318V8.2247ZM69.2661 8.08723C69.2188 8.20063 69.1553 8.29189 69.0758 8.36016C68.9963 8.429 68.9071 8.47737 68.8082 8.50505C68.7093 8.53295 68.6077 8.54701 68.505 8.54701H67.6274V6.77928H68.4787C68.5996 6.77928 68.713 6.7967 68.8178 6.83072C68.9226 6.86532 69.014 6.91891 69.092 6.9913C69.1693 7.0644 69.2295 7.15674 69.2726 7.26805C69.3155 7.3793 69.337 7.5099 69.337 7.66002C69.337 7.83175 69.3134 7.97384 69.2661 8.08723ZM69.5144 6.6827C69.3919 6.57521 69.2473 6.4948 69.0791 6.44084C68.9114 6.38666 68.7265 6.36 68.5239 6.36H67.0797V10.7788H67.6344L67.6274 8.96648H68.5825C68.8361 8.96648 69.0479 8.92244 69.2177 8.8342C69.3875 8.74604 69.523 8.63625 69.6241 8.50505C69.7245 8.37385 69.7961 8.23105 69.8369 8.0757C69.8777 7.92093 69.8981 7.77713 69.8981 7.64384C69.8981 7.43326 69.8648 7.24703 69.7981 7.08579C69.7315 6.92477 69.637 6.7904 69.5144 6.6827ZM63.7819 8.6436H65.5877V8.24366H63.7819V6.78622H65.9231V6.36629H63.233V10.7788H66.0268V10.3599H63.7819V8.6436ZM61.3928 8.2247H59.3295C59.3295 7.91047 59.3306 7.60079 59.3322 7.2953C59.3343 6.99029 59.3354 6.6806 59.3354 6.36629H58.7738V10.7788H59.3354C59.3354 10.4267 59.3343 10.075 59.3322 9.72441C59.3306 9.37421 59.3295 9.02257 59.3295 8.66941H61.3928V10.7788H61.9544V6.36629H61.3928V8.2247ZM57.0082 9.3102C56.9582 9.52913 56.8824 9.72023 56.7787 9.88293C56.6755 10.0466 56.5443 10.1751 56.3858 10.2696C56.2262 10.3641 56.0397 10.4113 55.8242 10.4113C55.3506 10.4113 55.0115 10.2587 54.8051 9.9543C54.5987 9.64923 54.495 9.20315 54.495 8.61484C54.495 8.3745 54.5154 8.14036 54.5536 7.913C54.5918 7.68517 54.6611 7.4826 54.76 7.30411C54.8588 7.12568 54.9938 6.98292 55.1663 6.87586C55.3383 6.7688 55.5576 6.71521 55.8242 6.71521C56.0908 6.71521 56.3063 6.77299 56.4696 6.88844C56.6325 7.00453 56.7594 7.15362 56.8496 7.33668C56.9399 7.51894 57.0017 7.7215 57.034 7.94507C57.0662 8.16811 57.0818 8.38913 57.0818 8.6085C57.0818 8.85734 57.0577 9.09141 57.0082 9.3102ZM57.2726 6.99239C57.1329 6.78138 56.9448 6.61299 56.7083 6.48598C56.4718 6.35899 56.1768 6.29535 55.8242 6.29535C55.4759 6.29535 55.1797 6.35834 54.9373 6.48281C54.6944 6.60772 54.4983 6.77611 54.3504 6.98921C54.2021 7.20189 54.0941 7.44794 54.0275 7.7278C53.9608 8.00743 53.928 8.29989 53.928 8.60533C53.928 8.94443 53.9619 9.25138 54.0306 9.5243C54.0995 9.79722 54.2107 10.0303 54.3628 10.2245C54.516 10.4176 54.7116 10.5673 54.9497 10.6727C55.1889 10.7783 55.4797 10.8308 55.8242 10.8308C56.1256 10.8308 56.3912 10.7735 56.6212 10.6597C56.8507 10.5457 57.0426 10.3888 57.1952 10.1888C57.3473 9.98898 57.4629 9.75109 57.5403 9.47564C57.6176 9.20063 57.6563 8.90391 57.6563 8.58543C57.6563 8.28461 57.6279 7.99655 57.5688 7.7215C57.5112 7.44584 57.4123 7.20334 57.2726 6.99239ZM50.0937 9.92114H50.0749L50.0814 6.37301H49.5391V10.7788H50.0814L52.2613 7.20506H52.2748V10.7788H52.8095V6.37301L52.2871 6.36L50.0937 9.92114ZM48.0895 6.37301H47.5349V10.392H45.464V6.37301H44.9158V10.7788H48.1153V11.8501H48.548V10.3857L48.0895 10.392V6.37301ZM43.2981 8.70827C43.1777 8.57072 43.0078 8.4742 42.7886 8.4179C42.9433 8.36225 43.0745 8.26212 43.1819 8.1183C43.2895 7.97384 43.3712 7.79232 43.427 7.57284L43.7108 6.37301H43.1948L42.9046 7.50211C42.8659 7.65685 42.8154 7.77966 42.7531 7.86953C42.6907 7.95978 42.6241 8.03014 42.5531 8.07887C42.4822 8.12883 42.4069 8.16069 42.3274 8.17604C42.2478 8.19111 42.1737 8.19854 42.1044 8.19854H41.3374V6.36H40.7886V10.7788H41.3374V8.6436H42.1307C42.2119 8.6436 42.2984 8.65305 42.3887 8.67251C42.4789 8.6919 42.5634 8.72759 42.6434 8.77963C42.723 8.8311 42.7971 8.90391 42.8659 8.99842C42.9348 9.0935 42.9906 9.21569 43.0337 9.36585L43.4141 10.7788H43.9495L43.5561 9.2247C43.5045 9.01788 43.4185 8.84574 43.2981 8.70827ZM38.7877 9.20481H37.3103C37.3706 9.01579 37.4267 8.83738 37.4781 8.66941C37.5298 8.50188 37.5791 8.33918 37.6264 8.18232C37.6736 8.02531 37.721 7.87097 37.7682 7.71839C37.8154 7.5651 37.8632 7.40972 37.9104 7.25021L38.0391 6.81142H38.0586L38.1875 7.24386C38.2908 7.56655 38.3918 7.89202 38.4911 8.22117C38.5899 8.55018 38.6888 8.87832 38.7877 9.20481ZM37.7105 6.36C37.4911 7.03538 37.2587 7.7408 37.0139 8.47629C36.7685 9.21151 36.5146 9.97881 36.2524 10.7788H36.8136C36.8739 10.5856 36.9341 10.3931 36.9942 10.2014C37.0542 10.0103 37.1143 9.81784 37.1749 9.62465H38.9167C38.9769 9.81784 39.037 10.0103 39.0972 10.2014C39.1574 10.3931 39.2176 10.5856 39.2778 10.7788H39.8519L38.4071 6.36H37.7105Z" fill="#444141"/>
<path d="M14.278 14.8587C13.8327 20.0486 10.3289 23.6817 5.45589 23.6817L5.45653 15.3221C5.45653 10.2042 9.60503 6.05504 14.7227 6.05504C15.0208 6.05504 15.315 6.06971 15.6058 6.09766C16.2322 5.14345 16.9542 4.26632 17.7688 3.47753C18.4926 2.77631 19.28 2.15527 20.1228 1.61636C18.4507 0.956086 16.6293 0.594317 14.7227 0.594317C6.5917 0.594317 0 7.18559 0 15.3168V29.1355H5.45589C13.341 29.1355 19.0108 23.259 19.7324 14.8587C20.1781 9.66927 23.7189 6.03613 29.4452 6.03613L29.4454 0.582764C20.6321 0.582764 15 6.45916 14.278 14.8587ZM22.7282 10.6539C23.5293 12.0244 23.9889 13.6194 23.9889 15.3221L23.9891 29.1355H29.4452V15.3168C29.4452 12.5539 28.6833 9.96743 27.3587 7.75831C25.367 8.15932 23.788 9.15702 22.7282 10.6539Z" fill="#FAB20B"/>
<path d="M92.4656 23.1771H96.3577V21.0104H92.4656V17.7052H97.0028V15.5382H89.9959V29.1347H96.5054L97.3993 26.967H92.4656V23.1771ZM111.13 22.1425C111.645 21.8286 111.924 21.3079 112.177 20.825C112.755 19.7197 114.401 15.5382 114.401 15.5382H111.954C111.954 15.5382 110.545 19.1702 110.227 19.875C109.786 20.8523 109.468 21.0916 108.608 21.0916H107.855V15.5382H105.424V21.0916H104.425C103.564 21.0916 103.247 20.8523 102.804 19.875C102.488 19.1702 101.079 15.5382 101.079 15.5382H98.6313C98.6313 15.5382 100.277 19.7197 100.857 20.825C101.11 21.3079 101.387 21.8286 101.903 22.1425C101.281 22.4647 100.91 23.0206 100.668 23.4819C100.09 24.5858 98.2543 29.1347 98.2543 29.1347H100.891C100.891 29.1347 102.487 25.1363 102.804 24.4308C103.242 23.4661 103.523 23.2582 104.395 23.2582H105.424V29.1347H107.855V23.2582H108.639C109.509 23.2582 109.791 23.4661 110.227 24.4308C110.545 25.1363 112.143 29.1347 112.143 29.1347H114.78C114.78 29.1347 112.943 24.5858 112.363 23.4819C112.122 23.0206 111.752 22.4647 111.13 22.1425ZM150.848 17.7052H153.625V29.1347H156.095V17.7052H158.902V15.5382H150.848V17.7052ZM124.077 20.9289H118.914V15.5382H116.445V29.1347H118.914V23.0956H124.077V29.1347H126.546V15.5382H124.077V20.9289ZM131.295 23.1771H135.186V21.0104H131.295V17.7052H135.832V15.5382H128.824V29.1347H135.953V26.967H131.295V23.1771ZM48.9747 24.4262L50.3861 20.656L51.8044 24.4262H48.9747ZM50.2544 15.4175L44.5444 29.1347H47.2124L48.1868 26.5314H52.5951L53.5748 29.1347H56.3062L50.5484 15.4175H50.2544ZM147.577 24.9484C147.127 25.6003 146.363 25.984 145.305 26.0901V18.4018C145.862 18.4606 146.335 18.5985 146.709 18.8137C147.105 19.0405 147.424 19.3334 147.657 19.6829C147.892 20.0346 148.057 20.4372 148.149 20.8806C148.241 21.3321 148.287 21.8008 148.287 22.2758C148.287 23.3685 148.048 24.2671 147.577 24.9484ZM142.835 26.1072C142.301 26.0379 141.838 25.9057 141.457 25.7153C141.054 25.5141 140.725 25.2475 140.48 24.9253C140.235 24.5999 140.053 24.2104 139.941 23.7674C139.829 23.3192 139.773 22.8111 139.773 22.2558C139.773 21.7404 139.829 21.2523 139.941 20.804C140.053 20.361 140.237 19.9611 140.492 19.6157C140.746 19.2714 141.075 18.988 141.471 18.7738C141.844 18.5719 142.303 18.4407 142.835 18.3819V26.1072ZM149.751 18.4768C149.354 17.9078 148.783 17.4155 148.054 17.0141C147.342 16.6219 146.418 16.3794 145.305 16.2918V15.5382H142.816V16.2918C141.688 16.3805 140.756 16.6404 140.044 17.0666C139.316 17.5015 138.737 18.0159 138.321 18.5964C137.904 19.1758 137.617 19.7948 137.467 20.4366C137.319 21.0734 137.241 21.6511 137.241 22.154C137.241 22.7775 137.314 23.4367 137.456 24.1128C137.6 24.7951 137.879 25.4375 138.289 26.0243C138.699 26.6132 139.284 27.1192 140.027 27.5276C140.752 27.9264 141.697 28.1595 142.835 28.2214V29.1347H145.305V28.2179C146.366 28.1175 147.253 27.875 147.943 27.4971C148.651 27.1087 149.224 26.6248 149.649 26.0575C150.072 25.4917 150.369 24.8613 150.534 24.1862C150.696 23.5144 150.777 22.8317 150.777 22.154C150.777 21.5714 150.706 20.9499 150.564 20.3065C150.421 19.6577 150.147 19.0421 149.751 18.4768ZM85.0284 26.5145C84.6297 26.8421 84.0934 27.008 83.4323 27.008H81.269V22.9759H83.5534C84.3269 22.9759 84.869 23.1676 85.1646 23.5455C85.4674 23.9312 85.6195 24.4346 85.6195 25.0428C85.6195 25.6957 85.4205 26.1913 85.0284 26.5145ZM83.6738 20.8698H81.2711V17.7052H86.9589V15.5382H78.8007V29.1347H83.6133C87.9839 29.1347 88.1094 25.4791 88.1094 25.0624C88.1094 23.8021 87.6776 20.8698 83.6738 20.8698ZM73.6291 19.4967L72.1665 23.4389L70.7355 19.6368L69.1381 15.5382H66.5449L70.9091 25.9693C70.8688 26.0537 70.7672 26.2706 70.6645 26.4736C70.4404 26.9187 70.1228 27.3764 69.4757 27.3995H69.4311C69.0699 27.3995 68.0735 27.2756 68.0735 27.2756L67.8455 29.1126C67.8455 29.1126 68.9022 29.3478 69.2048 29.3768C69.4945 29.4041 69.7288 29.417 69.9212 29.417H69.924C70.4049 29.4034 70.8215 29.3194 71.1612 29.1673C71.5014 29.0139 71.8072 28.7894 72.0711 28.4981C72.3316 28.2089 72.573 27.8498 72.7915 27.4279C73.0041 27.0149 73.229 26.5377 73.4612 26.0061L77.6805 15.5382H75.1163L73.6291 19.4967ZM165.302 26.9676H162.96V22.8541H165.383C167.068 22.8541 167.518 24.1789 167.518 24.962C167.518 25.5652 167.301 26.9676 165.302 26.9676ZM165.565 20.7484H162.96V15.5382H160.49V29.1347H165.565C168.217 29.1347 170 27.4824 170 25.0229C170 24.5847 169.876 20.7484 165.565 20.7484ZM61.7717 21.8186H59.7251V17.7052H61.691C63.691 17.7052 63.9065 19.1076 63.9065 19.7112C63.9065 20.494 63.4566 21.8186 61.7717 21.8186ZM61.9534 15.5382H57.2554V29.1347H59.7251V23.9721H61.9534C66.2644 23.9721 66.3891 20.0934 66.3891 19.6504C66.3891 17.1908 64.6068 15.5382 61.9534 15.5382ZM42.5709 21.8569C43.0637 21.6161 43.4829 21.2481 43.8189 20.7605C44.1875 20.2236 44.3746 19.6136 44.3746 18.9466C44.3746 17.8365 44.0623 17.0985 43.2964 16.3983C42.5526 15.7212 40.8687 15.4175 39.5289 15.4175C37.892 15.4175 36.3388 15.7202 36.3388 15.7202L36.6168 17.7147C36.6168 17.7147 38.0908 17.5568 39.2783 17.5568C39.8927 17.5568 41.8996 17.6754 41.8996 19.2105C41.8996 20.867 39.9942 20.8859 39.9744 20.8859H38.0421V22.9686H39.6068C42.0506 22.9686 42.2409 24.5295 42.2409 25.0082C42.2409 26.9796 39.9082 27.1324 39.1934 27.1324C37.7098 27.1324 35.9922 26.7745 35.9922 26.7745L35.5879 28.845C35.5879 28.845 37.291 29.3163 39.2945 29.3163C40.5538 29.3163 44.6594 29.0014 44.6594 24.9484C44.6594 23.0295 43.2507 22.1099 42.5709 21.8569Z" fill="#17AD49"/>
</svg>
