<svg width="165" height="60" viewBox="0 0 165 60" fill="none" xmlns="http://www.w3.org/2000/svg">
<path d="M37.6421 60C95.963 0.773525 54.4695 42.6218 96.7192 3.8147e-06H100.975C56.7059 61.9319 92.7435 11.5286 58.0855 60H37.6421Z" fill="white"/>
<path d="M33.2852 -3.8147e-06H42.6427C67.6425 60 42.6427 -3.8147e-06 67.6425 60H57.9947C33.2852 -3.8147e-06 57.9947 60 33.2852 -3.8147e-06Z" fill="white"/>
<path d="M0.975586 60C60.8312 0.773525 18.2458 42.6218 61.6074 3.8147e-06H65.9756C20.5411 61.9319 57.5271 11.5286 21.957 60H0.975586Z" fill="white"/>
<path d="M164.309 60C105.988 0.773525 147.481 42.6218 105.232 3.8147e-06H100.976C145.245 61.9319 109.207 11.5286 143.865 60H164.309Z" fill="white"/>
<path d="M144.309 60C72.1752 0.773525 123.496 42.6218 71.2398 3.8147e-06H65.9756C120.73 61.9319 76.1572 11.5286 119.024 60H144.309Z" fill="white"/>
</svg>
