<svg width="222" height="76" viewBox="0 0 222 76" fill="none" xmlns="http://www.w3.org/2000/svg">
<path d="M101.77 59.9757L100.596 57.3439H100.549L99.3744 59.9757H101.77ZM13.3443 50.982C13.9379 52.5847 13.079 54.5073 11.2556 54.9834C7.95485 55.8455 4.83763 56.8307 3.72693 60.435C2.37608 64.8192 5.0966 69.7412 9.51807 70.9424C14.9704 72.4235 18.2768 68.351 19.4539 63.5243C19.9127 61.6431 21.9015 60.7665 23.527 61.4107L36.0778 74.2647C37.9282 70.9937 40.1371 67.9964 40.6585 64.1074C41.3836 58.7015 36.2404 52.6975 31.0443 50.329C28.4904 49.1648 25.9384 47.149 26.0163 44.8334C26.1108 42.034 29.3296 40.2431 34.9289 40.2868C38.8025 40.3171 47.2619 42.526 50.8935 43.6383C52.5683 44.1514 60.4007 46.5479 66.2435 46.6964L71.7921 41.2713C70.063 39.6616 66.4328 38.507 62.3589 37.7902C55.4705 36.5786 47.0027 36.2835 42.3915 35.089C36.8917 33.6647 37.2938 30.402 43.253 28.5292C48.2689 26.9528 49.3052 25.0758 47.9209 23.9748C46.4313 22.79 42.6552 22.8839 41.5402 24.7213C40.8372 25.8794 37.571 26.5832 34.0119 26.7537C33.5038 29.9971 31.0922 32.8903 27.7879 33.7079C22.3036 35.0656 19.0898 30.9192 18.022 26.067C17.5647 23.989 15.2341 23.0866 13.524 24.0926L0 37.3155L13.3443 50.982ZM49.3389 63.2248L50.7075 61.8866C52.3871 61.0999 54.522 62.0112 54.958 63.9905C56.0256 68.8425 59.2394 72.989 64.7237 71.6316C69.1707 70.5308 72.0022 65.6717 70.7504 61.2579C69.7216 57.6292 66.6276 56.574 63.3469 55.6376C61.4583 55.0984 60.6567 53.0139 61.4407 51.3921L64.1738 48.7199C60.0036 48.2941 56.2351 47.1764 55.1085 46.8313C51.9791 45.8729 31.8051 39.4185 31.6392 44.3482C31.561 46.6637 34.9403 48.7024 37.4943 49.8663C42.125 51.9769 47.338 57.2895 49.3389 63.2248ZM74.0045 39.1079L74.9489 38.1847L62.3058 25.2363C60.6375 23.5277 61.4972 20.6488 63.8291 20.1366C68.6784 19.0707 72.8236 15.8575 71.4705 10.3686C70.3727 5.91773 65.5186 3.08156 61.1074 4.33127C57.4808 5.35886 56.4242 8.4546 55.4866 11.7367C54.8447 13.9834 52.0182 14.7002 50.3866 13.029L49.4657 12.0858C46.7187 12.7482 42.7062 13.8272 38.9329 15.0631C37.9689 15.3789 37.0499 15.7144 36.3681 15.9474C31.3179 17.6738 37.5361 18.0595 37.1402 19.7601C36.8353 21.0703 35.2196 21.7473 33.4016 22.2257C33.5627 22.5664 33.7011 22.9347 33.8146 23.3346C34.0573 24.1903 34.1459 25.0627 34.0995 25.9213C36.862 25.5981 39.6179 24.7295 40.3619 23.5036C41.0488 22.3717 44.0475 21.9699 46.6476 22.2119C50.909 22.6086 54.806 26.9539 48.2119 28.363C45.3277 28.9793 43.578 29.922 42.9071 30.8799C41.3851 33.0537 45.9909 34.0767 47.2713 34.4082C51.8826 35.6025 60.3503 35.8978 67.2386 37.1095C69.0511 37.4282 71.771 38.0906 74.0045 39.1079ZM49.323 11.9395L37.909 0.25L24.6237 13.2397C23.6424 14.8874 24.4328 17.1492 26.4109 17.7141C28.8537 18.4115 31.1925 19.1749 32.6527 21.0167C33.4127 20.625 33.9517 20.1328 34.1026 19.4851C34.4523 17.9835 31.3424 18.1868 32.5265 16.8986C34.1804 15.0993 43.9415 12.9328 49.323 11.9395ZM116.576 19.3194H119.223L125.381 34.6629H110.233L116.576 19.3194ZM111.773 12.4796L96.9323 46.5556H105.184L107.4 41.3796H128.399L130.615 46.5556H138.744L124.273 12.4796H111.773ZM145.935 12.4796V46.5556H153.633V19.4426H177.34V12.4796H145.935ZM161.33 26.4057V46.5556H169.027V33.3687H177.34V26.4057H161.33ZM186.654 12.4796V46.5556H194.167L214.364 23.0167V46.5556H222V12.4796H214.549L194.29 36.1417V12.4796H186.654ZM102.239 61.0098H98.9047L98.1533 62.6546H96.9323L100.079 55.793H101.065L104.212 62.6546H102.991L102.239 61.0098ZM106.227 59.064C105.917 59.3648 105.762 59.7471 105.762 60.2108C105.762 60.6745 105.917 61.0566 106.227 61.3574C106.537 61.6582 106.93 61.8086 107.405 61.8086C107.668 61.8086 107.914 61.7617 108.143 61.6676C108.371 61.5737 108.532 61.4798 108.627 61.3856L108.767 61.2447H108.955V62.2317C108.943 62.2442 108.921 62.2645 108.889 62.2927C108.858 62.321 108.789 62.3664 108.683 62.4289C108.576 62.4916 108.464 62.5482 108.345 62.5981C108.226 62.6483 108.069 62.6937 107.875 62.7345C107.681 62.7753 107.477 62.7956 107.264 62.7956C106.538 62.7956 105.926 62.5465 105.428 62.0482C104.93 61.5502 104.681 60.9376 104.681 60.2108C104.681 59.4838 104.93 58.8714 105.428 58.3732C105.926 57.875 106.538 57.6258 107.264 57.6258C107.64 57.6258 107.985 57.6775 108.298 57.781C108.611 57.8844 108.83 57.9862 108.955 58.0864L109.143 58.2368L108.72 59.0358C108.683 59.0044 108.631 58.9653 108.566 58.9182C108.5 58.8714 108.353 58.8086 108.124 58.7304C107.895 58.652 107.656 58.6129 107.405 58.6129C106.93 58.6129 106.537 58.7632 106.227 59.064ZM111.346 59.064C111.036 59.3648 110.881 59.7471 110.881 60.2108C110.881 60.6745 111.036 61.0566 111.346 61.3574C111.656 61.6582 112.049 61.8086 112.525 61.8086C112.788 61.8086 113.033 61.7617 113.262 61.6676C113.491 61.5737 113.652 61.4798 113.746 61.3856L113.887 61.2447H114.074V62.2317C114.062 62.2442 114.04 62.2645 114.009 62.2927C113.977 62.321 113.909 62.3664 113.802 62.4289C113.696 62.4916 113.583 62.5482 113.464 62.5981C113.345 62.6483 113.188 62.6937 112.994 62.7345C112.8 62.7753 112.597 62.7956 112.384 62.7956C111.657 62.7956 111.045 62.5465 110.547 62.0482C110.05 61.5502 109.801 60.9376 109.801 60.2108C109.801 59.4838 110.05 58.8714 110.547 58.3732C111.045 57.875 111.657 57.6258 112.384 57.6258C112.759 57.6258 113.104 57.6775 113.417 57.781C113.73 57.8844 113.949 57.9862 114.074 58.0864L114.262 58.2368L113.84 59.0358C113.802 59.0044 113.75 58.9653 113.685 58.9182C113.619 58.8714 113.472 58.8086 113.243 58.7304C113.015 58.652 112.775 58.6129 112.525 58.6129C112.049 58.6129 111.656 58.7632 111.346 59.064ZM116.484 59.0592C116.192 59.357 116.047 59.7408 116.047 60.2108C116.047 60.6808 116.192 61.0646 116.484 61.3622C116.775 61.6598 117.146 61.8086 117.597 61.8086C118.048 61.8086 118.419 61.6598 118.71 61.3622C119.001 61.0646 119.147 60.6808 119.147 60.2108C119.147 59.7408 119.001 59.357 118.71 59.0592C118.419 58.7616 118.048 58.6129 117.597 58.6129C117.146 58.6129 116.775 58.7616 116.484 59.0592ZM119.513 58.3684C120.02 58.8634 120.274 59.4775 120.274 60.2108C120.274 60.9439 120.02 61.558 119.513 62.0531C119.006 62.5481 118.367 62.7956 117.597 62.7956C116.827 62.7956 116.188 62.5481 115.681 62.0531C115.173 61.558 114.92 60.9439 114.92 60.2108C114.92 59.4775 115.173 58.8634 115.681 58.3684C116.188 57.8735 116.827 57.6258 117.597 57.6258C118.367 57.6258 119.006 57.8735 119.513 58.3684ZM125.628 62.6546H121.448V57.7668H122.528V61.6676H124.877V57.7668H125.957V61.6676H126.708V63.9706H125.628V62.6546ZM131.264 59.2709L128.634 62.6546H127.6V57.7668H128.681V61.1508L131.311 57.7668H132.344V62.6546H131.264V59.2709ZM135.491 61.8556C135.704 61.8556 135.895 61.8197 136.064 61.7475C136.233 61.6756 136.364 61.5894 136.458 61.489C136.552 61.3888 136.63 61.2886 136.693 61.1882C136.756 61.088 136.799 61.0004 136.825 60.9251L136.853 60.8217C136.828 60.7966 136.785 60.7653 136.726 60.7276C136.666 60.6902 136.532 60.6415 136.322 60.5821C136.112 60.5225 135.882 60.4928 135.631 60.4928C135.356 60.4928 135.138 60.557 134.979 60.6854C134.819 60.8138 134.739 60.9847 134.739 61.1976C134.739 61.4107 134.805 61.5737 134.937 61.6864C135.068 61.7991 135.253 61.8556 135.491 61.8556ZM135.819 57.6258C136.496 57.6258 137.017 57.8013 137.383 58.1523C137.75 58.5033 137.933 58.9856 137.933 59.5998V62.6546H136.9L136.853 61.9027H136.806C136.799 61.9278 136.785 61.9606 136.763 62.0014C136.742 62.042 136.69 62.1125 136.608 62.2129C136.527 62.3131 136.435 62.4023 136.331 62.4808C136.228 62.559 136.079 62.6312 135.885 62.6968C135.691 62.7627 135.481 62.7956 135.256 62.7956C134.774 62.7956 134.379 62.6546 134.072 62.3726C133.765 62.0907 133.612 61.7397 133.612 61.32C133.612 60.85 133.773 60.4691 134.096 60.1778C134.418 59.8864 134.868 59.7408 135.444 59.7408C135.707 59.7408 135.956 59.7689 136.19 59.8253C136.425 59.8818 136.593 59.9349 136.693 59.9851L136.853 60.0698V59.6467C136.853 59.3146 136.751 59.0592 136.547 58.8808C136.344 58.7022 136.054 58.6129 135.678 58.6129C135.359 58.6129 135.051 58.6723 134.753 58.7915C134.456 58.9105 134.238 59.0264 134.1 59.1391L133.894 59.3177H133.753V58.3309C133.816 58.2807 133.903 58.2165 134.016 58.1381C134.129 58.0599 134.365 57.9548 134.725 57.8233C135.085 57.6917 135.45 57.6258 135.819 57.6258ZM143.475 62.6546H139.295V57.7668H140.375V61.6676H142.724V57.7668H143.804V61.6676H144.555V63.9706H143.475V62.6546ZM149.111 59.2709L146.481 62.6546H145.447V57.7668H146.528V61.1508L149.158 57.7668H150.191V62.6546H149.111V59.2709ZM152.586 60.8686C152.555 60.8623 152.516 60.85 152.469 60.8312C152.422 60.8124 152.336 60.7653 152.211 60.6902C152.085 60.6149 151.976 60.5287 151.882 60.4317C151.788 60.3344 151.702 60.1951 151.624 60.0134C151.545 59.8316 151.506 59.631 151.506 59.4118C151.506 58.9293 151.674 58.5344 152.009 58.2274C152.344 57.9203 152.793 57.7668 153.356 57.7668H155.686V62.6546H154.606V61.0098H153.76L152.314 62.6546H150.989L152.586 60.9157V60.8686ZM154.606 58.7068H153.479C153.222 58.7068 153.017 58.771 152.863 58.8994C152.71 59.028 152.633 59.1987 152.633 59.4118C152.633 59.6247 152.71 59.7956 152.863 59.924C153.017 60.0525 153.222 60.1167 153.479 60.1167H154.606V58.7068ZM163.154 58.7538H160.664V62.6546H159.584V57.7668H163.154V58.7538ZM166.065 57.6258C166.798 57.6258 167.38 57.8467 167.812 58.2885C168.244 58.7304 168.46 59.3334 168.46 60.0979V60.4457H164.562C164.612 60.8469 164.783 61.1742 165.074 61.4279C165.366 61.6818 165.758 61.8086 166.253 61.8086C166.472 61.8086 166.682 61.7883 166.883 61.7475C167.083 61.7069 167.247 61.6567 167.376 61.5971C167.504 61.5377 167.617 61.4766 167.714 61.4139C167.811 61.3511 167.881 61.3012 167.925 61.2635L167.991 61.1976H168.132V62.2317C168.113 62.2442 168.085 62.2645 168.047 62.2927C168.01 62.321 167.927 62.3664 167.798 62.4289C167.67 62.4916 167.535 62.5482 167.394 62.5981C167.254 62.6483 167.069 62.6937 166.84 62.7345C166.612 62.7753 166.375 62.7956 166.131 62.7956C165.373 62.7956 164.75 62.5527 164.262 62.0671C163.773 61.5814 163.529 60.9627 163.529 60.2108C163.529 59.4838 163.775 58.8714 164.267 58.3732C164.758 57.875 165.358 57.6258 166.065 57.6258ZM166.112 58.6129C165.724 58.6129 165.403 58.7084 165.149 58.8994C164.896 59.0905 164.716 59.324 164.609 59.5998H167.427C167.377 59.3177 167.239 59.0828 167.014 58.8948C166.788 58.7068 166.488 58.6129 166.112 58.6129ZM170.964 59.0592C170.672 59.357 170.527 59.7408 170.527 60.2108C170.527 60.6808 170.672 61.0646 170.964 61.3622C171.255 61.6598 171.626 61.8086 172.077 61.8086C172.528 61.8086 172.899 61.6598 173.19 61.3622C173.481 61.0646 173.627 60.6808 173.627 60.2108C173.627 59.7408 173.481 59.357 173.19 59.0592C172.899 58.7616 172.528 58.6129 172.077 58.6129C171.626 58.6129 171.255 58.7616 170.964 59.0592ZM173.993 58.3684C174.5 58.8634 174.754 59.4775 174.754 60.2108C174.754 60.9439 174.5 61.558 173.993 62.0531C173.486 62.5481 172.847 62.7956 172.077 62.7956C171.306 62.7956 170.668 62.5481 170.16 62.0531C169.653 61.558 169.4 60.9439 169.4 60.2108C169.4 59.4775 169.653 58.8634 170.16 58.3684C170.668 57.8735 171.306 57.6258 172.077 57.6258C172.847 57.6258 173.486 57.8735 173.993 58.3684ZM177.431 58.7538L177.29 60.4928C177.233 61.2196 177.055 61.76 176.754 62.1141C176.454 62.4682 176.022 62.6954 175.458 62.7956L175.223 61.7617C175.499 61.7115 175.713 61.5939 175.867 61.4091C176.02 61.2244 176.119 60.9188 176.163 60.4928L176.444 57.7668H180.202V62.6546H179.122V58.7538H177.431ZM182.94 59.0592C182.649 59.357 182.503 59.7408 182.503 60.2108C182.503 60.6808 182.649 61.0646 182.94 61.3622C183.231 61.6598 183.602 61.8086 184.053 61.8086C184.504 61.8086 184.875 61.6598 185.166 61.3622C185.457 61.0646 185.603 60.6808 185.603 60.2108C185.603 59.7408 185.457 59.357 185.166 59.0592C184.875 58.7616 184.504 58.6129 184.053 58.6129C183.602 58.6129 183.231 58.7616 182.94 59.0592ZM185.969 58.3684C186.476 58.8634 186.73 59.4775 186.73 60.2108C186.73 60.9439 186.476 61.558 185.969 62.0531C185.462 62.5481 184.823 62.7956 184.053 62.7956C183.283 62.7956 182.644 62.5481 182.137 62.0531C181.629 61.558 181.376 60.9439 181.376 60.2108C181.376 59.4775 181.629 58.8634 182.137 58.3684C182.644 57.8735 183.283 57.6258 184.053 57.6258C184.823 57.6258 185.462 57.8735 185.969 58.3684ZM191.474 58.7538H188.984V62.6546H187.904V57.7668H191.474V58.7538ZM193.413 59.0592C193.122 59.357 192.976 59.7408 192.976 60.2108C192.976 60.6808 193.122 61.0646 193.413 61.3622C193.704 61.6598 194.075 61.8086 194.526 61.8086C194.977 61.8086 195.348 61.6598 195.639 61.3622C195.93 61.0646 196.076 60.6808 196.076 60.2108C196.076 59.7408 195.93 59.357 195.639 59.0592C195.348 58.7616 194.977 58.6129 194.526 58.6129C194.075 58.6129 193.704 58.7616 193.413 59.0592ZM196.442 58.3684C196.95 58.8634 197.203 59.4775 197.203 60.2108C197.203 60.9439 196.95 61.558 196.442 62.0531C195.935 62.5481 195.296 62.7956 194.526 62.7956C193.756 62.7956 193.117 62.5481 192.61 62.0531C192.103 61.558 191.849 60.9439 191.849 60.2108C191.849 59.4775 192.103 58.8634 192.61 58.3684C193.117 57.8735 193.756 57.6258 194.526 57.6258C195.296 57.6258 195.935 57.8735 196.442 58.3684ZM198.377 62.6546V57.7668H200.632C201.22 57.7668 201.665 57.8875 201.966 58.1286C202.266 58.37 202.416 58.6879 202.416 59.0828C202.416 59.2332 202.393 59.3679 202.346 59.4869C202.299 59.6059 202.241 59.6969 202.172 59.7595C202.103 59.8222 202.033 59.8755 201.961 59.9193C201.889 59.9632 201.831 59.9914 201.787 60.0039L201.712 60.0228V60.0698C201.737 60.0759 201.771 60.0853 201.815 60.0979C201.859 60.1104 201.939 60.1449 202.055 60.2014C202.171 60.2576 202.271 60.325 202.355 60.4034C202.44 60.4817 202.518 60.5961 202.59 60.7465C202.662 60.8968 202.698 61.0629 202.698 61.2447C202.698 61.6582 202.543 61.9966 202.233 62.2599C201.923 62.5231 201.483 62.6546 200.913 62.6546H198.377ZM201.43 61.5595C201.555 61.4561 201.618 61.32 201.618 61.1508C201.618 60.9815 201.555 60.8452 201.43 60.7419C201.305 60.6383 201.117 60.5867 200.867 60.5867H199.458V61.7147H200.867C201.117 61.7147 201.305 61.663 201.43 61.5595ZM200.585 58.7068H199.458V59.6467H200.585C201.054 59.6467 201.289 59.4901 201.289 59.1768C201.289 58.8634 201.054 58.7068 200.585 58.7068ZM203.403 62.1375C203.403 61.9558 203.462 61.8086 203.581 61.6958C203.7 61.5831 203.844 61.5266 204.013 61.5266C204.189 61.5266 204.334 61.5862 204.45 61.7052C204.566 61.8242 204.624 61.984 204.624 62.1846C204.624 62.3852 204.599 62.5824 204.549 62.7767C204.498 62.9711 204.436 63.134 204.361 63.2655C204.285 63.3971 204.21 63.5147 204.135 63.618C204.06 63.7215 203.997 63.7983 203.947 63.8483L203.872 63.9235H203.45C203.794 63.4849 203.966 63.0932 203.966 62.7485C203.59 62.6923 203.403 62.4885 203.403 62.1375ZM101.206 69.2813H98.717V73.1821H97.6366V68.2943H101.206V69.2813ZM104.118 68.1533C104.851 68.1533 105.433 68.3742 105.865 68.8159C106.297 69.2579 106.513 69.8609 106.513 70.6253V70.9732H102.615C102.665 71.3744 102.836 71.7017 103.127 71.9554C103.418 72.2093 103.811 72.3361 104.306 72.3361C104.525 72.3361 104.735 72.3157 104.935 72.2749C105.135 72.2344 105.3 72.1842 105.428 72.1246C105.557 72.0652 105.669 72.0041 105.766 71.9414C105.863 71.8786 105.934 71.8286 105.978 71.791L106.043 71.7251H106.184V72.7591C106.166 72.7717 106.137 72.792 106.1 72.8202C106.062 72.8485 105.979 72.8938 105.851 72.9564C105.723 73.0191 105.588 73.0756 105.447 73.1256C105.306 73.1758 105.121 73.2212 104.893 73.262C104.664 73.3028 104.428 73.3231 104.184 73.3231C103.426 73.3231 102.803 73.0802 102.314 72.5946C101.826 72.1089 101.582 71.4902 101.582 70.7383C101.582 70.0113 101.828 69.3989 102.319 68.9007C102.811 68.4025 103.41 68.1533 104.118 68.1533ZM104.165 69.1403C103.777 69.1403 103.456 69.2359 103.202 69.4269C102.948 69.618 102.768 69.8514 102.662 70.1273H105.48C105.43 69.8452 105.292 69.6103 105.067 69.4223C104.841 69.2343 104.541 69.1403 104.165 69.1403ZM109.016 69.5867C108.725 69.8845 108.58 70.2683 108.58 70.7383C108.58 71.2083 108.725 71.592 109.016 71.8897C109.308 72.1873 109.679 72.3361 110.129 72.3361C110.58 72.3361 110.951 72.1873 111.242 71.8897C111.534 71.592 111.679 71.2083 111.679 70.7383C111.679 70.2683 111.534 69.8845 111.242 69.5867C110.951 69.289 110.58 69.1403 110.129 69.1403C109.679 69.1403 109.308 69.289 109.016 69.5867ZM112.046 68.8958C112.553 69.3909 112.806 70.005 112.806 70.7383C112.806 71.4714 112.553 72.0855 112.046 72.5806C111.538 73.0756 110.9 73.3231 110.129 73.3231C109.359 73.3231 108.72 73.0756 108.213 72.5806C107.706 72.0855 107.452 71.4714 107.452 70.7383C107.452 70.005 107.706 69.3909 108.213 68.8958C108.72 68.401 109.359 68.1533 110.129 68.1533C110.9 68.1533 111.538 68.401 112.046 68.8958ZM116.47 72.3361V69.1403C116 69.1654 115.617 69.3267 115.319 69.6243C115.022 69.922 114.873 70.2932 114.873 70.7383C114.873 71.1832 115.022 71.5544 115.319 71.8521C115.617 72.1497 116 72.3112 116.47 72.3361ZM117.55 73.3231V75.25H116.47V73.3231C115.656 73.2791 114.998 73.016 114.497 72.5335C113.996 72.051 113.746 71.4526 113.746 70.7383C113.746 70.0238 113.996 69.4254 114.497 68.9429C114.998 68.4604 115.656 68.1973 116.47 68.1533V66.0385H117.55V68.1533C118.364 68.1973 119.021 68.4604 119.522 68.9429C120.023 69.4254 120.274 70.0238 120.274 70.7383C120.274 71.4526 120.023 72.051 119.522 72.5335C119.021 73.016 118.364 73.2791 117.55 73.3231ZM117.55 69.1403V72.3361C118.02 72.3112 118.403 72.1497 118.701 71.8521C118.998 71.5544 119.147 71.1832 119.147 70.7383C119.147 70.2932 118.998 69.922 118.701 69.6243C118.403 69.3267 118.02 69.1654 117.55 69.1403ZM125.111 69.7984L122.481 73.1821H121.448V68.2943H122.528V71.6782L125.158 68.2943H126.191V73.1821H125.111V69.7984ZM129.15 71.1141H128.587V70.2212H129.056C129.683 70.2212 129.996 70.0332 129.996 69.6574C129.996 69.2813 129.683 69.0933 129.056 69.0933C128.793 69.0933 128.54 69.1403 128.296 69.2342C128.051 69.3284 127.873 69.4223 127.76 69.5162L127.6 69.6574H127.46V68.6703C127.503 68.6327 127.569 68.5857 127.657 68.5294C127.745 68.4729 127.935 68.3961 128.23 68.2991C128.524 68.2018 128.831 68.1533 129.15 68.1533C129.783 68.1533 130.262 68.2834 130.587 68.5434C130.913 68.8034 131.076 69.1435 131.076 69.5633C131.076 69.7199 131.046 69.8625 130.987 69.991C130.927 70.1194 130.857 70.2196 130.775 70.2918C130.694 70.3637 130.612 70.425 130.531 70.475C130.45 70.5252 130.378 70.5565 130.315 70.5691L130.231 70.5973V70.6442C130.256 70.6505 130.29 70.6599 130.334 70.6724C130.378 70.685 130.458 70.7195 130.573 70.7757C130.689 70.8322 130.789 70.8995 130.874 70.978C130.959 71.0562 131.037 71.1706 131.109 71.321C131.181 71.4714 131.217 71.6375 131.217 71.8192C131.217 72.2829 131.043 72.6494 130.695 72.919C130.348 73.1884 129.833 73.3231 129.15 73.3231C128.8 73.3231 128.465 73.2682 128.145 73.1586C127.826 73.0488 127.591 72.9378 127.441 72.8248L127.225 72.665L127.507 71.8192C127.557 71.8629 127.63 71.9163 127.727 71.979C127.824 72.0416 128.017 72.1246 128.305 72.2281C128.593 72.3315 128.875 72.3831 129.15 72.3831C129.808 72.3831 130.137 72.1639 130.137 71.7251C130.137 71.3179 129.808 71.1141 129.15 71.1141ZM136.054 69.7984L133.424 73.1821H132.391V68.2943H133.471V71.6782L136.101 68.2943H137.134V73.1821H136.054V69.7984ZM141.925 73.1821L139.624 70.7851V73.1821H138.543V68.2943H139.624V70.6442L141.878 68.2943H143.146L140.798 70.6912L143.287 73.1821H141.925ZM145.039 69.5867C144.747 69.8845 144.602 70.2683 144.602 70.7383C144.602 71.2083 144.747 71.592 145.039 71.8897C145.33 72.1873 145.701 72.3361 146.152 72.3361C146.603 72.3361 146.974 72.1873 147.265 71.8897C147.556 71.592 147.702 71.2083 147.702 70.7383C147.702 70.2683 147.556 69.8845 147.265 69.5867C146.974 69.289 146.603 69.1403 146.152 69.1403C145.701 69.1403 145.33 69.289 145.039 69.5867ZM148.068 68.8958C148.575 69.3909 148.829 70.005 148.829 70.7383C148.829 71.4714 148.575 72.0855 148.068 72.5806C147.561 73.0756 146.922 73.3231 146.152 73.3231C145.382 73.3231 144.743 73.0756 144.236 72.5806C143.728 72.0855 143.475 71.4714 143.475 70.7383C143.475 70.005 143.728 69.3909 144.236 68.8958C144.743 68.401 145.382 68.1533 146.152 68.1533C146.922 68.1533 147.561 68.401 148.068 68.8958ZM150.003 73.1821V68.2943H152.257C152.846 68.2943 153.29 68.415 153.591 68.6561C153.892 68.8975 154.042 69.2154 154.042 69.6103C154.042 69.7607 154.018 69.8954 153.972 70.0144C153.925 70.1334 153.867 70.2244 153.798 70.2869C153.729 70.3497 153.658 70.403 153.586 70.4467C153.514 70.4907 153.456 70.5189 153.413 70.5314L153.337 70.5503V70.5973C153.363 70.6034 153.397 70.6128 153.441 70.6253C153.485 70.6379 153.564 70.6724 153.68 70.7289C153.796 70.7851 153.896 70.8525 153.981 70.9309C154.065 71.0091 154.144 71.1236 154.216 71.2739C154.288 71.4243 154.324 71.5904 154.324 71.7722C154.324 72.1857 154.169 72.524 153.859 72.7874C153.549 73.0505 153.109 73.1821 152.539 73.1821H150.003ZM153.056 72.087C153.181 71.9836 153.244 71.8474 153.244 71.6782C153.244 71.509 153.181 71.3727 153.056 71.2694C152.93 71.1658 152.743 71.1141 152.492 71.1141H151.083V72.2421H152.492C152.743 72.2421 152.93 72.1905 153.056 72.087ZM152.21 69.2342H151.083V70.1742H152.21C152.68 70.1742 152.915 70.0176 152.915 69.7042C152.915 69.3909 152.68 69.2342 152.21 69.2342ZM161.556 69.7984L158.926 73.1821H157.893V68.2943H158.973V71.6782L161.603 68.2943H162.636V73.1821H161.556V69.7984ZM170.198 69.7984L167.568 73.1821H166.535V68.2943H167.615V71.6782L170.245 68.2943H171.278V73.1821H170.198V69.7984ZM176.257 71.2082H173.767V73.1821H172.687V68.2943H173.767V70.2212H176.257V68.2943H177.337V73.1821H176.257V71.2082ZM184.616 73.1821L182.503 70.8322V73.1821H181.423V70.8322L179.309 73.1821H177.947L180.249 70.6912L178.088 68.2943H179.356L181.423 70.6442V68.2943H182.503V70.6442L184.569 68.2943H185.837L183.677 70.6912L185.978 73.1821H184.616ZM188.702 68.1533C189.435 68.1533 190.017 68.3742 190.449 68.8159C190.881 69.2579 191.097 69.8609 191.097 70.6253V70.9732H187.199C187.249 71.3744 187.42 71.7017 187.711 71.9554C188.003 72.2093 188.395 72.3361 188.89 72.3361C189.109 72.3361 189.319 72.3157 189.52 72.2749C189.72 72.2344 189.884 72.1842 190.013 72.1246C190.141 72.0652 190.254 72.0041 190.351 71.9414C190.448 71.8786 190.518 71.8286 190.562 71.791L190.628 71.7251H190.769V72.7591C190.75 72.7717 190.722 72.792 190.684 72.8202C190.646 72.8485 190.564 72.8938 190.435 72.9564C190.307 73.0191 190.172 73.0756 190.031 73.1256C189.891 73.1758 189.706 73.2212 189.477 73.262C189.249 73.3028 189.012 73.3231 188.768 73.3231C188.01 73.3231 187.387 73.0802 186.899 72.5946C186.41 72.1089 186.166 71.4902 186.166 70.7383C186.166 70.0113 186.412 69.3989 186.904 68.9007C187.395 68.4025 187.995 68.1533 188.702 68.1533ZM188.749 69.1403C188.361 69.1403 188.04 69.2359 187.786 69.4269C187.533 69.618 187.353 69.8514 187.246 70.1273H190.064C190.014 69.8452 189.876 69.6103 189.651 69.4223C189.425 69.2343 189.125 69.1403 188.749 69.1403ZM195.841 71.2082H193.352V73.1821H192.271V68.2943H193.352V70.2212H195.841V68.2943H196.921V73.1821H195.841V71.2082ZM200.631 68.1533C201.364 68.1533 201.946 68.3742 202.378 68.8159C202.81 69.2579 203.026 69.8609 203.026 70.6253V70.9732H199.128C199.178 71.3744 199.349 71.7017 199.64 71.9554C199.931 72.2093 200.324 72.3361 200.819 72.3361C201.038 72.3361 201.248 72.3157 201.449 72.2749C201.649 72.2344 201.813 72.1842 201.942 72.1246C202.07 72.0652 202.183 72.0041 202.28 71.9414C202.377 71.8786 202.447 71.8286 202.491 71.791L202.557 71.7251H202.698V72.7591C202.679 72.7717 202.651 72.792 202.613 72.8202C202.576 72.8485 202.493 72.8938 202.364 72.9564C202.236 73.0191 202.101 73.0756 201.96 73.1256C201.82 73.1758 201.635 73.2212 201.406 73.262C201.178 73.3028 200.941 73.3231 200.697 73.3231C199.939 73.3231 199.316 73.0802 198.828 72.5946C198.339 72.1089 198.095 71.4902 198.095 70.7383C198.095 70.0113 198.341 69.3989 198.833 68.9007C199.324 68.4025 199.924 68.1533 200.631 68.1533ZM200.678 69.1403C200.29 69.1403 199.969 69.2359 199.715 69.4269C199.462 69.618 199.282 69.8514 199.175 70.1273H201.993C201.943 69.8452 201.805 69.6103 201.58 69.4223C201.354 69.2343 201.054 69.1403 200.678 69.1403ZM205.713 69.5915C205.425 69.8923 205.281 70.2746 205.281 70.7383C205.281 71.202 205.425 71.5841 205.713 71.8849C206.001 72.1857 206.358 72.3361 206.784 72.3361C207.209 72.3361 207.566 72.1857 207.854 71.8849C208.142 71.5841 208.286 71.202 208.286 70.7383C208.286 70.2746 208.142 69.8923 207.854 69.5915C207.566 69.2907 207.209 69.1403 206.784 69.1403C206.358 69.1403 206.001 69.2907 205.713 69.5915ZM208.714 68.8912C209.18 69.3832 209.414 69.9987 209.414 70.7383C209.414 71.4777 209.18 72.0932 208.714 72.5851C208.247 73.0771 207.682 73.3231 207.018 73.3231C206.793 73.3231 206.58 73.2917 206.38 73.2291C206.179 73.1664 206.018 73.0928 205.896 73.0083C205.774 72.9235 205.667 72.8374 205.577 72.7497C205.486 72.6619 205.422 72.5868 205.384 72.5241L205.328 72.4302H205.281V75.25H204.2V68.2943H205.234L205.281 69.0462H205.328C205.34 69.0213 205.359 68.9883 205.384 68.9477C205.409 68.9069 205.472 68.8364 205.572 68.736C205.672 68.6358 205.78 68.5465 205.896 68.4683C206.012 68.3899 206.171 68.3179 206.375 68.252C206.579 68.1861 206.793 68.1533 207.018 68.1533C207.682 68.1533 208.247 68.3993 208.714 68.8912ZM211.917 69.5867C211.626 69.8845 211.48 70.2683 211.48 70.7383C211.48 71.2083 211.626 71.592 211.917 71.8897C212.208 72.1873 212.579 72.3361 213.03 72.3361C213.481 72.3361 213.852 72.1873 214.143 71.8897C214.434 71.592 214.58 71.2083 214.58 70.7383C214.58 70.2683 214.434 69.8845 214.143 69.5867C213.852 69.289 213.481 69.1403 213.03 69.1403C212.579 69.1403 212.208 69.289 211.917 69.5867ZM214.946 68.8958C215.453 69.3909 215.707 70.005 215.707 70.7383C215.707 71.4714 215.453 72.0855 214.946 72.5806C214.439 73.0756 213.8 73.3231 213.03 73.3231C212.26 73.3231 211.621 73.0756 211.114 72.5806C210.606 72.0855 210.353 71.4714 210.353 70.7383C210.353 70.005 210.606 69.3909 211.114 68.8958C211.621 68.401 212.26 68.1533 213.03 68.1533C213.8 68.1533 214.439 68.401 214.946 68.8958ZM216.881 73.1821V68.2943H219.135C219.724 68.2943 220.169 68.415 220.469 68.6561C220.77 68.8975 220.92 69.2154 220.92 69.6103C220.92 69.7607 220.897 69.8954 220.85 70.0144C220.803 70.1334 220.745 70.2244 220.676 70.2869C220.607 70.3497 220.537 70.403 220.465 70.4467C220.393 70.4907 220.335 70.5189 220.291 70.5314L220.216 70.5503V70.5973C220.241 70.6034 220.275 70.6128 220.319 70.6253C220.363 70.6379 220.443 70.6724 220.559 70.7289C220.674 70.7851 220.775 70.8525 220.859 70.9309C220.944 71.0091 221.022 71.1236 221.094 71.2739C221.166 71.4243 221.202 71.5904 221.202 71.7722C221.202 72.1857 221.047 72.524 220.737 72.7874C220.427 73.0505 219.987 73.1821 219.417 73.1821H216.881ZM219.934 72.087C220.059 71.9836 220.122 71.8474 220.122 71.6782C220.122 71.509 220.059 71.3727 219.934 71.2694C219.809 71.1658 219.621 71.1141 219.37 71.1141H217.961V72.2421H219.37C219.621 72.2421 219.809 72.1905 219.934 72.087ZM219.088 69.2342H217.961V70.1742H219.088C219.558 70.1742 219.793 70.0176 219.793 69.7042C219.793 69.3909 219.558 69.2342 219.088 69.2342Z" fill="black"/>
</svg>
