<svg width="378" height="76" viewBox="0 0 378 76" fill="none" xmlns="http://www.w3.org/2000/svg">
<path fill-rule="evenodd" clip-rule="evenodd" d="M8.49834 46.7681C8.49834 48.9698 19.1162 53.8182 11.8997 55.5946C10.6871 55.893 9.5866 56.0288 8.57362 56.5171C6.30684 57.6097 6.24709 57.7212 5.01797 59.3338C2.22389 62.9994 3.84862 69.8961 9.34156 71.4075C13.8979 72.6612 18.1167 70.0581 19.3619 65.1764C19.6705 63.9664 19.7327 62.9177 20.3431 61.9101C25.0837 54.0836 38.5483 58.7182 45.009 61.948C45.8223 62.3546 46.4658 62.6779 47.2132 63.0482C48.018 63.4469 48.5756 63.8251 49.3376 64.2281C51.6572 62.6756 51.4494 60.9249 54.295 60.9249C54.8425 61.7421 55.4683 62.7362 55.663 63.8046C56.2806 67.194 57.5561 70.1184 61.3343 71.3491C66.4037 73.0003 71.5277 68.7825 71.5277 64.7C71.5277 62.2568 71.697 61.5266 70.2534 59.3671C69.5516 58.3173 68.9504 57.6883 67.8354 57.0651C65.1353 55.5563 64.1874 56.0748 62.4772 55.3422C61.5797 54.9577 61.5589 54.7562 60.9048 54.3184C56.2594 54.3184 52.6802 54.2003 49.1304 53.1098C47.3829 52.573 45.8604 52.2129 44.2261 51.4051C43.7598 51.1747 43.5502 51.1276 43.0752 50.9039L38.7955 48.5749C38.3448 48.3284 38.1365 48.2554 37.7222 47.996C35.716 46.7401 31.2692 44.3328 29.0087 43.4922C23.8914 41.5893 17.586 40.9503 12.5093 43.2268C10.9279 43.936 8.49834 46.0652 8.49834 46.7681ZM5.66559 31.4317C7.42314 31.0224 12.2986 28.2541 17.9409 28.1285C17.3719 26.9431 17.3366 25.145 16.8084 24.0697C16.7776 24.0072 16.4571 23.4454 16.3795 23.3186C15.1416 21.2982 13.4987 23.4849 12.4526 24.5305C10.9866 25.9958 6.32412 30.4488 5.66559 31.4317ZM56.6556 8.30905L71.5277 12.5561C71.5277 8.89915 70.2265 5.92055 67.1891 4.62337C62.7154 2.71275 58.7474 4.35792 56.6556 8.30905ZM23.6065 61.8687L25.7457 64.2135C25.7789 64.2489 25.8268 64.2998 25.8611 64.3341C25.8955 64.3684 25.9491 64.4135 25.9843 64.447L33.8162 72.1914C38.5938 76.9667 36.7365 76.9066 47.1542 66.5287C47.7315 65.9537 48.1798 65.7352 48.3934 64.9359L44.4557 63.2089C43.0577 62.5433 41.748 61.9518 40.3385 61.4254C36.3286 59.9281 26.2463 57.9286 23.6065 61.8687ZM367.789 50.3074H362.124V43.9368C366.992 43.9368 370.622 43.0569 370.622 47.2401C370.622 49.2066 369.075 50.3074 367.789 50.3074ZM354.806 30.9598V55.2622C354.806 55.8059 354.97 55.97 355.514 55.97H367.317C370.31 55.97 372.995 55.5549 374.782 54.2286C379.124 51.0055 379.068 43.2591 374.641 40.156C371.417 37.8961 366.306 38.2741 362.124 38.2741V30.9598C361.271 30.8889 359.324 30.5847 358.549 30.5524C357.876 30.5243 355.593 30.8943 354.806 30.9598ZM138.098 40.6336C136.935 39.9806 129.903 40.5501 128.057 40.4761C127.404 40.4499 127.574 40.2017 127.686 39.7004C128.521 35.9585 133.618 34.2088 136.542 36.7618C137.043 37.1993 136.605 36.6673 137.116 37.3685C137.34 37.6769 137.478 37.937 137.632 38.2681C137.985 39.0243 138.098 39.4785 138.098 40.6336ZM119.685 42.0493C119.685 46.173 119.81 48.3801 122.372 51.869C127.85 59.3305 141.019 56.5475 142.638 54.1367C143.357 53.0654 143.121 49.4784 142.819 48.1838C142.094 48.3527 141.761 48.5938 141.168 48.8931C137.101 50.9473 130.886 51.8534 128.035 47.3885C127.442 46.4603 127.239 45.451 127.239 44.4087H144.944C144.944 41.6384 146.157 37.3362 141.625 33.0972L138.653 31.113C135.458 29.535 130.645 29.7313 127.397 31.1181L124.578 32.7828C123.263 33.7883 122.553 34.4248 121.649 35.9906C121.328 36.5472 121.315 36.4641 121.017 37.0098C120.507 37.9412 119.685 40.7092 119.685 42.0493ZM308.537 40.3976H297.914C299.562 33.3292 308.537 34.5486 308.537 40.3976ZM313.494 51.2511L313.258 48.1838L309.925 49.5708C304.396 51.6245 299.004 51.1108 297.442 44.4087L313.022 44.4089C314.916 44.4175 315.619 45.0683 315.619 41.5774C315.619 32.4365 306.218 26.9007 296.258 31.8998C295.382 32.3395 294.539 33.03 293.842 33.7317C284.911 42.715 291.741 60.9109 309.486 55.9742C313.015 54.9924 313.494 53.898 313.494 51.2511ZM319.632 51.2511C319.632 53.3876 319.451 54.653 319.868 56.4419C324.401 56.8189 327.963 57.2621 330.652 51.6477C331.128 50.6539 331.362 49.6338 331.625 48.6095C331.815 47.8673 331.885 47.6618 331.908 46.7682C331.964 44.5507 332.852 39.7564 332.852 37.0944H340.406V55.2622C340.406 56.1985 341.155 55.9033 342.003 56.0253C345.139 56.4766 345.317 55.97 347.724 55.97V30.9598H326.242C325.723 33.1855 325.336 40.0221 324.875 43.0422C324.546 45.1948 324.783 46.994 324.034 48.8084C322.755 51.9032 319.632 49.522 319.632 51.2511ZM22.4262 15.1515C22.4262 15.7887 22.5389 15.8021 22.6623 16.3312C23.8591 16.3312 23.9485 16.0953 25.259 16.0953L35.4189 16.0861L44.7632 17.1282C49.498 17.967 50.5552 18.4208 54.8151 19.5865L59.3278 21.2107C60.0834 21.5413 59.9558 21.6791 60.9048 21.758C61.6522 18.5514 68.912 21.1075 71.1947 14.3468C71.4032 13.7295 71.2597 13.8222 71.5277 13.2639C70.2447 12.9652 68.9381 12.7871 67.5675 12.5032C66.4678 12.2755 64.7842 11.8904 63.6845 11.6653C62.2348 11.3686 61.2742 11.1147 59.8662 10.7628C58.6314 10.4543 57.2555 9.96071 55.9474 9.96071C55.8487 11.1465 55.1434 14.6796 53.5868 14.6796C52.4123 14.6796 43.4302 5.11763 41.9608 3.64897C36.8312 -1.47802 38.2204 -1.2242 29.6854 7.30648C28.3689 8.62232 27.2249 9.76574 25.9084 11.0816C25.1699 11.8197 22.4262 14.1511 22.4262 15.1515ZM157.691 44.4087C157.691 42.1405 157.566 40.1421 159.514 38.2078C163.343 34.4053 170.439 36.6745 170.439 43.4649C170.439 47.4519 168.064 49.8501 164.44 50.4636C162.817 50.7386 160.878 49.8499 159.873 48.8345C158.775 47.725 157.691 46.4239 157.691 44.4087ZM177.757 43.4649C177.757 39.889 176.39 36.5482 173.921 34.0859C164.059 24.2487 146.996 33.3969 150.652 46.7255C150.98 47.9224 151.403 49.256 152.07 50.2634C152.635 51.1175 153.591 52.6039 154.341 53.184C156.605 54.934 157.799 55.8117 161.174 56.5002C167.525 57.796 174.69 54.7079 176.963 47.8622L177.757 43.4649ZM228.511 43.4649C228.511 34.0222 241.258 34.377 241.258 42.7571C241.258 44.5834 241.382 45.0608 240.63 46.8474C240.196 47.8775 239.902 48.0004 239.193 48.7151C236.365 51.5665 230.988 51.0879 229.05 46.2295C228.779 45.551 228.511 44.302 228.511 43.4649ZM221.193 42.993C221.193 46.0781 221.849 48.8466 223.614 51.1903C224.7 52.6318 225.489 53.389 226.952 54.4609C231.214 57.5829 239.617 57.7781 244.147 53.4306C244.318 53.2666 244.35 53.2479 244.523 53.0981L244.907 52.7742C252.243 45.4478 248.703 30.016 234.649 30.016C230.92 30.016 227.763 31.484 225.157 33.7422C224.622 34.2059 224.881 34.1464 224.437 34.6738C222.5 36.9713 221.193 39.5993 221.193 42.993ZM97.2588 55.2622C97.2588 56.1985 98.0079 55.9033 98.856 56.0253C101.981 56.475 102.575 55.97 105.285 55.97V22.7018C105.285 21.696 106.142 22.226 107.167 22.2342L121.574 22.2301C123.79 22.2401 124.17 23.0201 124.17 18.2188C124.17 17.2517 124.24 15.3875 123.226 15.3875H97.2588V55.2622ZM180.354 55.97C186.343 56.5232 183.731 55.97 187.436 55.97L190.079 45.3996C190.427 44.0086 190.557 42.5298 191.213 42.0493C191.327 43.42 196.23 54.1999 196.642 55.97C198.022 55.97 198.292 56.2059 199.475 56.2059C200.658 56.2059 200.928 55.97 202.308 55.97C202.819 53.7756 207.254 44.3588 207.737 42.2852H208.209C208.233 43.36 208.704 44.7335 208.965 45.7773L211.514 55.97C217.402 56.4143 215.315 55.97 218.596 55.97L211.72 31.4617C211.372 30.6605 210.155 30.7136 209.028 30.645L205.849 30.9598C205.507 32.4246 200.065 44.5404 199.711 46.0603H199.239C199.164 45.1611 196.707 39.6973 196.17 38.5105L193.101 30.9598C190.983 30.7837 191.374 30.5594 189.093 30.7177C187.109 30.8553 187.346 30.9797 186.727 33.3193L185.119 38.7895C184.905 39.5898 184.803 40.0949 184.573 40.8392C184.391 41.4249 184.277 42.0023 184.087 42.7136C183.454 45.093 180.481 54.4433 180.354 55.97ZM0 37.3303C0 39.3454 3.00459 41.6315 5.01622 43.6421C5.98048 44.6058 6.23343 45.126 7.08199 45.3524C7.53622 43.4037 10.128 41.6994 11.8031 40.8693C18.0765 37.7607 23.8193 38.8843 30.1228 41.4349C31.3298 41.9232 33.4757 42.9973 34.5136 43.6528L40.8393 47.476C46.5079 51.3217 53.9896 53.1387 60.9048 53.1387C61.0377 52.8877 61.0378 52.82 61.2588 52.5487L66.9838 46.9455C67.8997 46.0241 68.7071 45.4827 68.931 44.6446C64.774 44.6446 57.1221 42.6408 52.9723 41.4837C48.9749 40.3691 40.8858 36.8865 37.0637 34.9694L32.4146 33.0097C27.3129 30.9495 30.6377 33.3193 25.0229 33.3193C21.4866 33.3193 19.8329 30.8683 19.3574 30.7239C17.563 30.1788 8.88256 32.6988 6.44943 33.8668L0 37.3303ZM266.753 37.0944H273.599C274.143 37.0944 274.308 37.2586 274.308 37.8023V49.5995H263.685C264.495 48.3903 264.357 49.0695 265.103 47.2421C266.147 44.6848 266.753 39.9092 266.753 37.0944ZM256.131 49.5995C255.341 49.5995 254.553 49.6016 253.764 49.5931C252.88 49.5836 252.117 49.3784 252.117 50.3074V62.3405L256.839 62.5765C258.149 62.5765 258.239 62.3405 259.435 62.3405V55.97H279.029V62.3405L283.514 62.5765C284.825 62.5765 284.914 62.3405 286.111 62.3405V49.5995H281.626V30.9598H260.144C259.763 32.5923 259.894 34.3044 259.578 36.057C258.943 39.5753 259.229 42.1487 258.211 46.016C257.653 48.1343 256.961 48.3594 256.131 49.5995ZM33.2852 25.2971C33.2852 27.8549 31.9449 29.3387 31.8688 30.252C33.3701 30.3769 39.641 33.5936 41.6682 34.6143C51.3694 39.499 56.7971 41.2194 67.4201 43.0875C68.5057 43.2784 69.3754 43.2386 70.3474 43.4649C71.2997 42.6376 75.3048 38.9713 75.3048 38.0382C75.3048 36.449 73.2529 34.9252 71.705 33.3781C70.3869 32.0606 61.9896 23.3874 61.1124 22.9661C58.0849 21.5124 51.5323 19.67 48.158 19.1618C38.9644 17.7772 38.1294 17.9828 28.3278 17.9828C28.7859 18.6078 29.4012 18.717 30.1265 19.2524C31.9986 20.6342 33.2852 23.1668 33.2852 25.2971Z" fill="black"/>
</svg>
