<svg width="300" height="99" viewBox="0 0 300 99" fill="none" xmlns="http://www.w3.org/2000/svg">
<path fill-rule="evenodd" clip-rule="evenodd" d="M81.3114 15.6506H79.9562V26.9004H74.7985V0.56333H79.9562V12.2268L81.1608 11.7001L88.4267 0.56333H94.2995L86.6197 11.6249L84.5866 13.0545L86.695 14.522L95.4666 26.9004H89.1043L81.3114 15.6506ZM0.725374 0.630113H55.2485H55.9028H55.9738V0.701425V1.35505V44.1937V44.3898L55.9744 44.3965V44.3992L55.975 44.4418V44.4433L55.9738 44.5784V44.8473V44.9187H55.9663C55.8789 47.5066 55.0843 50.1728 53.7152 52.7275C52.3119 55.3459 50.3045 57.8477 47.8375 60.028C45.2468 62.3168 42.1446 64.2565 38.7 65.6064C35.511 66.8562 32.0274 67.6017 28.383 67.6522L27.9878 67.6576C24.3703 67.6576 20.9104 67.0061 17.7358 65.8611C14.3451 64.6385 11.2779 62.8526 8.68695 60.6974C6.07361 58.524 3.94133 55.9714 2.44341 53.2363C0.987224 50.5768 0.130628 47.7438 0.0142177 44.9187H0V44.8473V44.259V44.1937V1.35505V0.701425V0.630113H0.0713614H0.725374ZM20.1853 59.6551H20.985V57.3842L21.0712 56.9931L20.7952 57.3325L20.283 57.683L19.9667 57.2518L21.2783 56.1941H21.6983V59.6551H22.4808V60.2876H20.1853V59.6551ZM24.3625 59.3043C24.3625 59.1701 24.3797 59.0504 24.4142 58.945C24.4489 58.8395 24.4976 58.7437 24.5608 58.6576C24.6243 58.5715 24.699 58.4935 24.7855 58.4249C24.8717 58.3557 24.9645 58.2925 25.0643 58.2351C24.8765 58.1161 24.7286 57.9792 24.6213 57.8239C24.5139 57.6688 24.4601 57.476 24.4601 57.2461C24.4601 57.0968 24.4879 56.9566 24.5436 56.8263C24.5992 56.6961 24.68 56.5831 24.7855 56.4873C24.8907 56.3912 25.0183 56.3165 25.168 56.2631C25.3173 56.2093 25.4864 56.1824 25.6741 56.1824C25.8468 56.1824 26.004 56.2053 26.1458 56.2516C26.2876 56.2975 26.4095 56.3628 26.5111 56.4471C26.6127 56.5314 26.6913 56.6338 26.7469 56.7544C26.8025 56.8753 26.8304 57.0086 26.8304 57.1542C26.8304 57.3802 26.7796 57.5718 26.678 57.729C26.5764 57.8861 26.4276 58.03 26.232 58.1602C26.4621 58.2944 26.6356 58.4421 26.7527 58.6029C26.8697 58.7639 26.928 58.971 26.928 59.2239C26.928 59.3964 26.8966 59.5524 26.8334 59.6926C26.7702 59.8325 26.681 59.9522 26.5658 60.0519C26.4509 60.1516 26.3127 60.229 26.1516 60.2846C25.9904 60.3405 25.8141 60.368 25.6221 60.368C25.4304 60.368 25.2569 60.342 25.1017 60.2903C24.9463 60.2386 24.8142 60.1667 24.7047 60.0748C24.5956 59.983 24.5112 59.8718 24.4517 59.7412C24.3921 59.611 24.3625 59.4653 24.3625 59.3043ZM26.2147 59.2296C26.2147 59.1414 26.1936 59.061 26.1516 58.9882C26.1092 58.9153 26.0548 58.8492 25.9877 58.79C25.9206 58.7304 25.8459 58.6757 25.7633 58.6259C25.6808 58.5763 25.5973 58.5283 25.513 58.4823C25.3328 58.5857 25.2091 58.6978 25.142 58.8187C25.0748 58.9392 25.0413 59.0592 25.0413 59.178C25.0413 59.3315 25.0939 59.4623 25.1994 59.5717C25.3049 59.6808 25.4516 59.7355 25.6394 59.7355C25.812 59.7355 25.9511 59.6932 26.0566 59.6089C26.1621 59.5246 26.2147 59.3982 26.2147 59.2296ZM25.1734 57.2576C25.1734 57.3497 25.1909 57.4301 25.2254 57.499C25.2599 57.5682 25.3068 57.6283 25.3663 57.68C25.4256 57.732 25.4927 57.7797 25.5677 57.8239C25.6424 57.868 25.7201 57.9091 25.8008 57.9475C26.0306 57.7519 26.1458 57.5374 26.1458 57.3035C26.1458 57.1427 26.0989 57.021 26.0049 56.9385C25.9109 56.856 25.7969 56.8148 25.6623 56.8148C25.4936 56.8148 25.3699 56.859 25.2916 56.9472C25.2127 57.0354 25.1734 57.1388 25.1734 57.2576ZM28.6491 58.2696C28.6491 57.5643 28.7697 57.04 29.0113 56.6973C29.2529 56.354 29.6 56.1824 30.0524 56.1824C30.5356 56.1824 30.8905 56.3519 31.117 56.6913C31.3432 57.0306 31.4563 57.5567 31.4563 58.2696C31.4563 58.9785 31.3344 59.5055 31.091 59.8506C30.8473 60.1954 30.4993 60.368 30.0466 60.368C29.5674 60.368 29.2145 60.187 28.9884 59.8246C28.7619 59.4623 28.6491 58.9441 28.6491 58.2696ZM29.3968 58.2696C29.3968 58.7371 29.4476 59.0985 29.5492 59.3532C29.6508 59.608 29.8186 59.7355 30.0524 59.7355C30.2788 59.7355 30.4448 59.6186 30.5501 59.385C30.6556 59.1511 30.7082 58.7794 30.7082 58.2696C30.7082 57.8057 30.6586 57.4473 30.5588 57.1944C30.4591 56.9415 30.2885 56.8148 30.0466 56.8148C29.8165 56.8148 29.6508 56.9336 29.5492 57.1714C29.4476 57.409 29.3968 57.7749 29.3968 58.2696ZM36.0071 59.1665H35.3746V60.2876H34.6783V59.1665H32.9354V58.741L34.759 56.2343H35.3746V58.5684H36.0071V59.1665ZM34.6783 57.6888L34.7303 57.2059H34.7073L34.5117 57.6199L33.9133 58.3959L33.6257 58.6144L33.994 58.5684H34.6783V57.6888ZM19.5552 17.138C17.8574 16.1831 17.1314 17.5743 15.463 17.92C13.6155 18.3029 13.1236 16.8627 12.3368 15.5775C13.6379 15.8507 13.7138 16.462 15.41 15.3007C16.6567 14.4476 18.2353 15.0064 19.1576 16.0562L18.1316 13.2966C21.1931 13.2718 24.6415 12.8723 27.6628 13.2966L28.045 13.3606C31.2763 13.998 33.7143 16.763 33.7143 20.262C33.7143 22.823 32.2478 25.6684 30.1032 27.1821V27.5033C32.9732 26.8451 36.2542 24.444 36.5481 23.095C36.1284 22.9312 35.1203 22.3525 35.1327 22.2836C34.0091 21.4783 33.5271 19.8731 33.792 18.6571C34.0572 17.4411 34.6232 16.8533 35.4317 16.3635C35.9887 16.0815 36.4931 15.9105 37.0969 15.8504L52.1994 13.7215C52.2708 14.2315 52.32 14.7507 52.3445 15.2677C52.7821 24.4996 45.645 32.3413 36.4075 32.7786C33.2487 32.9279 29.174 31.1809 27.7396 28.1965C27.6649 28.2089 27.5896 28.2216 27.5137 28.231C26.9649 28.2917 26.4545 28.3854 25.9795 28.5078C25.4972 30.5149 29.607 32.0745 34.3704 32.8402L33.6076 33.9444C34.5086 33.6601 35.468 33.5065 36.4631 33.5065C41.6995 33.5065 45.9462 37.7505 45.9462 42.9844C45.9462 48.2176 41.6995 52.4615 36.4631 52.4615C31.2268 52.4615 26.98 48.2176 26.98 42.9844C26.98 42.4465 27.0257 41.9191 27.1119 41.4063L27.436 41.4538L33.177 41.8436C32.8922 42.3093 32.7271 42.8568 32.7271 43.4431C32.7271 45.1393 34.1035 46.5145 35.8003 46.5145C37.4975 46.5145 38.8733 45.1393 38.8733 43.4431C38.8733 41.7741 37.5407 40.4158 35.8811 40.3729L35.8708 40.3429L35.4937 40.3874C35.4568 40.391 35.4194 40.3955 35.3822 40.4L30.437 40.9809C28.2778 41.3353 26.408 41.4779 24.8127 41.4263L17.972 50.7527L17.1166 48.4884C12.2812 48.0826 13.9545 50.3184 15.0378 51.2335C15.1437 51.3226 15.1449 51.6964 15.0445 51.778C13.2681 51.6423 11.7163 50.2181 11.7163 48.3636C11.7163 46.5091 13.2578 44.9241 15.1579 44.9241C16.4263 44.9241 17.5339 45.6101 18.131 46.6308L21.2372 36.8403H20.7459L18.8664 39.5403C17.7582 38.3836 16.8943 36.9914 16.3592 35.4457L11.1098 28.9496C10.887 29.4527 10.5459 29.8915 10.1235 30.2333L9.07579 27.4604C6.75484 27.3453 5.32253 27.9052 6.52504 29.6682L7.02848 29.6742L6.96286 28.8033H8.41966L8.18986 31.8503L8.19168 31.872H8.18835L8.18442 31.927H7.18722L7.18299 31.724L7.10921 30.7443C5.78122 30.2704 4.5246 29.2246 4.5246 27.5586C4.5246 26.2758 5.3942 24.98 6.63208 24.415L5.95932 15.4865L4.33168 13.4235H7.08381C6.9807 12.2803 7.33387 11.0432 8.00633 10.0447C7.39646 10.1478 6.83315 10.4745 6.2886 11.3795C5.92878 9.41891 7.57486 6.89717 9.8175 7.27399C12.0695 7.65294 11.86 7.00142 13.0434 6.11903C12.9591 6.84941 12.9455 7.58404 12.784 8.21833C15.104 8.47035 14.9982 7.62273 16.4904 6.51068C16.2237 8.81274 16.4695 11.1411 13.643 11.8005C11.0666 12.4021 9.14141 10.8963 7.3765 13.4235H7.69005H11.0475L9.42412 15.4811L8.76557 24.2146C9.32071 24.347 9.82445 24.6147 10.2384 24.98L14.428 27.4939L15.3465 30.8948H15.7774C16.2174 25.2019 20.9046 20.698 26.6756 20.5415L26.4512 19.9798L20.6503 20.0067L19.5552 17.138ZM19.2945 16.2227C19.4775 16.4581 19.628 16.7146 19.736 16.9821C22.2072 17.4248 26.7908 20.2738 25.2611 16.2227H19.2945ZM23.3254 7.97839H24.8193V8.33678H25.291V9.49718C24.9887 9.62198 24.7758 9.91964 24.7758 10.2669C24.7758 10.6352 25.0153 10.9468 25.347 11.0568L25.3515 11.0583L25.3648 11.0628L25.3672 11.0631L25.3751 11.0655L25.3848 11.0683L25.3899 11.0695L25.4044 11.0734L25.4093 11.0746L25.4144 11.0758L25.4192 11.077L25.4241 11.0782L25.4292 11.0791L25.4343 11.0803L25.4431 11.0822L25.4489 11.0834L25.454 11.0843L25.4588 11.0852L25.4607 11.0855L25.474 11.0876L25.4791 11.0885L25.4812 11.0888L25.4879 11.0897L25.4942 11.0906L25.4991 11.0912L25.5018 11.0918L25.5045 11.0921L25.5093 11.0927L25.5148 11.0933L25.5235 11.0942L25.5299 11.0948L25.535 11.0955L25.5402 11.0958L25.5505 11.0967L25.5556 11.097L25.5653 11.0976L25.5864 11.0982L25.5961 11.0985H25.5976H25.6028H25.6079C26.0678 11.0985 26.4403 10.7262 26.4403 10.2669L26.44 10.2511V10.2454L26.4394 10.2306L26.4385 10.2155C26.4379 10.2058 26.4373 10.1961 26.4364 10.1868L26.4352 10.1753V10.1738L26.4334 10.1608V10.1587C26.4309 10.1411 26.4282 10.1236 26.4249 10.1064L26.4231 10.0988L26.4198 10.084L26.4128 10.0547L26.4089 10.0405L26.4086 10.039L26.4037 10.0221L26.4028 10.0194L26.4004 10.0121C26.3593 9.88458 26.2888 9.77097 26.1966 9.6788L26.1951 9.67759L26.1848 9.66732L26.1745 9.65764L26.1676 9.6513L26.1633 9.64737L26.1528 9.638L26.1419 9.62834L26.1374 9.62471L26.1222 9.61262L26.1189 9.6102C26.1098 9.60325 26.1005 9.59631 26.0911 9.58936L26.0899 9.58815L26.0835 9.58422L26.0732 9.57727L26.0717 9.57606L26.0596 9.5679L26.0563 9.56609L26.0536 9.56396C26.0433 9.55762 26.0327 9.55128 26.0221 9.54524C26.0104 9.53889 25.9986 9.53223 25.9868 9.52619L25.9834 9.52408L25.9701 9.51744L25.9686 9.51713L25.9568 9.51139V9.29533C25.9568 8.61057 26.5598 7.71125 27.2449 7.69282L28.5161 7.65868L26.6991 12.4115L21.5027 12.4293L19.6894 7.6765L20.8971 7.69282C21.5825 7.70189 22.1848 8.61057 22.1848 9.29533V9.5126C22.0167 9.59087 21.8794 9.72352 21.7954 9.88791L21.7945 9.89002L21.7878 9.90273L21.7863 9.90605L21.7781 9.92387L21.7757 9.92961L21.7694 9.94291L21.7639 9.95681L21.7621 9.96164L21.7552 9.98038L21.7537 9.98431L21.7485 9.99852C21.7376 10.0309 21.7283 10.0653 21.7213 10.0991C21.7159 10.1257 21.7116 10.1526 21.7086 10.1798V10.1832C21.7071 10.1955 21.7062 10.2076 21.7056 10.22L21.7053 10.2242V10.2285L21.7047 10.2454L21.7044 10.2511L21.7041 10.2669C21.7041 10.7262 22.0766 11.0985 22.5362 11.0985H22.5416H22.5471L22.5573 11.0982L22.5782 11.0976L22.5888 11.097L22.5939 11.0967L22.6042 11.0958L22.6093 11.0955L22.6148 11.0948L22.6211 11.0942L22.6299 11.0933L22.6354 11.0927L22.6402 11.0921L22.6426 11.0918L22.6453 11.0912L22.6505 11.0906L22.6553 11.0897L22.6605 11.0891L22.6632 11.0888L22.6656 11.0885L22.6704 11.0876L22.6756 11.087L22.6837 11.0855L22.6855 11.0852L22.6904 11.0843L22.6955 11.0834L22.7004 11.0825L22.7103 11.0803L22.7152 11.0791L22.72 11.0782L22.7246 11.077L22.7545 11.0695L22.7593 11.0683C23.111 10.9707 23.3686 10.6491 23.3686 10.2669C23.3686 9.91964 23.1557 9.62198 22.8534 9.49718V8.33678H23.3254V7.97839ZM44.1888 36.652C48.1976 35.0272 51.9203 32.3117 52.77 25.5463C51.979 28.8867 50.2428 30.7346 48.0661 31.759C45.7376 32.8544 42.9059 33.0076 40.1883 33.0354C42.0242 33.8272 43.2648 34.9655 44.1888 36.652ZM243.182 82.2814H237.778V97.7899H235.721V82.2814H230.317V80.4483H243.182V82.2814ZM217.611 80.4483H227.055V82.2814H219.668V87.9546H226.435V89.788H219.668V95.9566H227.179V97.7899H217.611V80.4483ZM213.977 82.2814H208.573V97.7899H206.516V82.2814H201.112V80.4483H213.977V82.2814ZM195.42 86.0472L195.569 84.0652H195.47L194.404 86.0965L186.026 97.7899H184.811V80.4483H186.868V92.3397L186.695 94.2969H186.794L187.885 92.2653L196.263 80.4483H197.478V97.7899H195.42V86.0472ZM180.681 97.0716C180.185 97.4515 179.557 97.7156 178.797 97.8643C178.037 98.0129 177.227 98.0873 176.368 98.0873C175.327 98.0873 174.352 97.9096 173.443 97.5545C172.534 97.1994 171.741 96.6585 171.063 95.9318C170.386 95.2053 169.848 94.2761 169.452 93.1447C169.055 92.0136 168.857 90.6716 168.857 89.119C168.857 87.5005 169.076 86.1255 169.514 84.9941C169.952 83.8627 170.53 82.938 171.249 82.2194C171.968 81.5011 172.774 80.9768 173.666 80.6462C174.558 80.3159 175.467 80.1509 176.393 80.1509C177.384 80.1509 178.194 80.2044 178.822 80.312C179.45 80.4193 179.987 80.5637 180.433 80.7453L179.937 82.554C179.144 82.1741 178.012 81.984 176.541 81.984C175.864 81.984 175.195 82.1079 174.534 82.3557C173.873 82.6035 173.282 83.0081 172.761 83.5696C172.241 84.1314 171.823 84.8663 171.509 85.7747C171.195 86.683 171.038 87.7978 171.038 89.119C171.038 90.3081 171.187 91.3488 171.485 92.2406C171.782 93.1323 172.191 93.8757 172.712 94.4701C173.232 95.0648 173.844 95.5108 174.546 95.8079C175.248 96.1052 176.012 96.2539 176.839 96.2539C177.583 96.2539 178.231 96.1796 178.785 96.0309C179.338 95.8822 179.805 95.6924 180.185 95.4613L180.681 97.0716ZM155.06 80.6215C155.688 80.4731 156.365 80.374 157.093 80.3244C157.82 80.2749 158.538 80.2501 159.249 80.2501C160.009 80.2501 160.782 80.3244 161.567 80.4731C162.352 80.6215 163.067 80.894 163.711 81.2905C164.356 81.687 164.88 82.2318 165.285 82.9256C165.69 83.6192 165.893 84.5027 165.893 85.5764C165.893 86.6335 165.702 87.5252 165.322 88.252C164.942 88.9787 164.438 89.5692 163.81 90.0234C163.182 90.4776 162.463 90.8036 161.654 91.0019C160.844 91.2001 160.009 91.2992 159.15 91.2992C159.067 91.2992 158.931 91.2992 158.741 91.2992C158.551 91.2992 158.353 91.295 158.146 91.2868C157.939 91.2784 157.737 91.266 157.539 91.2497C157.34 91.2331 157.2 91.2164 157.117 91.2001V97.7899H155.06V80.6215ZM159.299 82.0336C158.869 82.0336 158.456 82.042 158.059 82.0584C157.663 82.075 157.349 82.1164 157.117 82.1822V89.3667C157.2 89.3997 157.332 89.4206 157.514 89.4287C157.696 89.4369 157.886 89.4453 158.084 89.4535C158.282 89.4616 158.473 89.4659 158.654 89.4659C158.836 89.4659 158.968 89.4659 159.051 89.4659C159.613 89.4659 160.17 89.4121 160.724 89.3048C161.278 89.1975 161.778 89.0035 162.224 88.7228C162.67 88.4418 163.03 88.0456 163.302 87.5334C163.575 87.0215 163.711 86.3691 163.711 85.5764C163.711 84.8992 163.583 84.3335 163.327 83.8793C163.071 83.4251 162.732 83.0619 162.31 82.7894C161.889 82.5168 161.414 82.3228 160.885 82.207C160.356 82.0916 159.827 82.0336 159.299 82.0336ZM140.693 80.4483H150.137V82.2814H142.75V87.9546H149.517V89.788H142.75V95.9566H150.261V97.7899H140.693V80.4483ZM135.597 84.4121C135.597 84.8249 135.53 85.2461 135.398 85.6755C135.266 86.105 135.068 86.5053 134.803 86.877C134.539 87.2487 134.2 87.5748 133.787 87.8555C133.374 88.1362 132.886 88.3511 132.324 88.4998V88.5989C132.82 88.6814 133.295 88.8219 133.75 89.0198C134.204 89.2181 134.605 89.4906 134.952 89.8375C135.299 90.1845 135.58 90.6054 135.795 91.101C136.01 91.5966 136.117 92.1828 136.117 92.86C136.117 93.7518 135.931 94.5239 135.559 95.1763C135.187 95.8287 134.7 96.3612 134.097 96.7743C133.494 97.1871 132.804 97.4925 132.027 97.6908C131.25 97.889 130.457 97.9882 129.647 97.9882C129.366 97.9882 129.036 97.9882 128.656 97.9882C128.276 97.9882 127.879 97.9758 127.466 97.951C127.053 97.9262 126.64 97.8933 126.227 97.8519C125.813 97.8105 125.45 97.7485 125.136 97.666V80.5967C125.747 80.4979 126.458 80.4151 127.268 80.3492C128.077 80.283 128.961 80.2501 129.92 80.2501C130.565 80.2501 131.221 80.3036 131.891 80.4111C132.56 80.5184 133.167 80.7248 133.712 81.0303C134.258 81.3358 134.708 81.7613 135.063 82.3062C135.419 82.8513 135.597 83.5533 135.597 84.4121ZM129.846 96.2043C130.374 96.2043 130.887 96.1424 131.382 96.0185C131.878 95.8946 132.316 95.6967 132.696 95.4241C133.076 95.1515 133.378 94.817 133.601 94.4205C133.824 94.0244 133.936 93.5536 133.936 93.0084C133.936 92.3315 133.799 91.7864 133.527 91.3736C133.254 90.9605 132.899 90.6387 132.461 90.4072C132.023 90.176 131.531 90.0192 130.986 89.9367C130.441 89.8539 129.895 89.8128 129.35 89.8128H127.193V96.0309C127.309 96.0641 127.474 96.0889 127.689 96.1052C127.904 96.1218 128.135 96.1385 128.383 96.1548C128.631 96.1714 128.887 96.1838 129.152 96.1919C129.416 96.2001 129.647 96.2043 129.846 96.2043ZM128.482 88.0785C128.763 88.0785 129.102 88.0704 129.498 88.0538C129.895 88.0371 130.226 88.0124 130.49 87.9794C130.887 87.8474 131.259 87.6863 131.606 87.4962C131.953 87.3064 132.262 87.0834 132.535 86.8275C132.808 86.5715 133.023 86.2742 133.18 85.9357C133.337 85.597 133.415 85.2295 133.415 84.833C133.415 84.2882 133.312 83.8379 133.105 83.4829C132.899 83.1278 132.622 82.8431 132.275 82.6283C131.928 82.4137 131.531 82.2608 131.085 82.1699C130.639 82.0792 130.184 82.0336 129.722 82.0336C129.176 82.0336 128.676 82.046 128.222 82.0707C127.767 82.0955 127.425 82.1327 127.193 82.1822V88.0785H128.482ZM117.784 86.0472L117.932 84.0652H117.833L116.767 86.0965L108.389 97.7899H107.174V80.4483H109.231V92.3397L109.058 94.2969H109.157L110.248 92.2653L118.626 80.4483H119.841V97.7899H117.784V86.0472ZM99.8219 89.8375H91.4929V97.7899H89.4354V80.4483H91.4929V88.0042H99.8219V80.4483H101.879V97.7899H99.8219V89.8375ZM79.5302 89.5898L80.1745 91.7945H80.2985L80.7944 89.5154L84.1161 80.4483H86.223L81.8354 91.7202C81.3894 92.893 80.997 93.8714 80.658 94.6559C80.3194 95.4404 79.9765 96.0765 79.6294 96.5636C79.2822 97.0508 78.9103 97.3977 78.5139 97.6041C78.1172 97.8105 77.6298 97.9138 77.0514 97.9138C76.5059 97.9138 76.072 97.8685 75.75 97.7775C75.4277 97.6866 75.1259 97.5506 74.845 97.3687L75.4649 95.6595C75.7954 95.8411 76.1011 95.9565 76.382 96.0061C76.6629 96.0557 76.919 96.0804 77.1506 96.0804C77.6132 96.0804 78.0014 95.845 78.3156 95.3745C78.6294 94.9037 78.9022 94.206 79.1335 93.281L72.7134 80.4483H75.093L79.5302 89.5898ZM295.106 51.251L295.294 48.5797H295.181L293.563 51.3262L286.861 59.8295H283.774V41.0171H288.669V49.9718L288.443 52.5305H288.593L290.137 49.8591L296.913 41.0171H300V59.8295H295.106V51.251ZM289.873 33.3419C290.049 34.32 290.344 35.0099 290.758 35.4112C291.172 35.8125 291.705 36.0132 292.358 36.0132C293.061 36.0132 293.619 35.8125 294.033 35.4112C294.447 35.0099 294.729 34.3327 294.88 33.3796L298.607 34.32C298.306 35.9507 297.566 37.1609 296.386 37.9508C295.207 38.741 293.826 39.136 292.245 39.136C291.467 39.136 290.714 39.0484 289.986 38.8728C289.258 38.6972 288.606 38.415 288.028 38.0261C287.451 37.6374 286.962 37.1419 286.56 36.5399C286.159 35.938 285.883 35.1979 285.732 34.32L289.873 33.3419ZM262.203 55.7285C262.956 55.879 263.671 55.9542 264.349 55.9542C265.478 55.9542 266.269 55.7472 266.721 55.3332C267.173 54.9195 267.398 54.2735 267.398 53.3956C267.398 52.593 267.173 51.9847 266.721 51.571C266.269 51.157 265.516 50.95 264.462 50.95C263.634 50.95 262.881 51.0379 262.203 51.2135V55.7285ZM262.203 47.7145C262.805 47.6142 263.414 47.545 264.029 47.5075C264.644 47.4697 265.202 47.451 265.704 47.451C266.984 47.451 268.051 47.5951 268.904 47.8837C269.757 48.1723 270.448 48.5797 270.975 49.1067C271.502 49.6334 271.878 50.2541 272.104 50.9691C272.33 51.6837 272.443 52.4552 272.443 53.2829C272.443 54.4116 272.292 55.4024 271.991 56.2552C271.69 57.108 271.201 57.8166 270.523 58.3808C269.845 58.9453 268.967 59.3717 267.888 59.6602C266.808 59.9485 265.478 60.093 263.897 60.093C262.467 60.093 261.23 60.0679 260.189 60.0177C259.147 59.9676 258.187 59.9047 257.309 59.8295V41.0171H262.203V47.7145ZM274.589 41.0171H279.483V59.8295H274.589V41.0171ZM248.123 52.4174H241.987V59.8295H237.093V41.0171H241.987V48.0907H248.123V41.0171H253.017V59.8295H248.123V52.4174ZM223.54 55.7285C224.293 55.879 225.009 55.9542 225.686 55.9542C226.891 55.9542 227.763 55.7472 228.303 55.3332C228.842 54.9195 229.112 54.2735 229.112 53.3956C229.112 51.7653 228.008 50.95 225.799 50.95C224.971 50.95 224.218 51.0379 223.54 51.2135V55.7285ZM223.54 47.7145C224.143 47.6142 224.751 47.545 225.366 47.5075C225.981 47.4697 226.54 47.451 227.041 47.451C228.346 47.451 229.451 47.5951 230.354 47.8837C231.258 48.1723 231.992 48.5797 232.557 49.1067C233.121 49.6334 233.529 50.2541 233.78 50.9691C234.031 51.6837 234.157 52.4552 234.157 53.2829C234.157 55.5653 233.479 57.2711 232.124 58.3998C230.768 59.5285 228.472 60.093 225.234 60.093C223.804 60.093 222.568 60.0679 221.526 60.0177C220.485 59.9676 219.525 59.9047 218.646 59.8295V41.0171H223.54V47.7145ZM209.498 45.3441H205.771C205.621 47.1249 205.445 48.8933 205.244 50.649C205.043 52.405 204.723 53.9788 204.284 55.371C203.845 56.7632 203.249 57.8918 202.496 58.7573C201.743 59.6225 200.764 60.0552 199.559 60.0552C198.104 60.0552 197.075 59.8673 196.472 59.4907L197.075 55.4275C197.476 55.578 197.853 55.6533 198.204 55.6533C198.706 55.6533 199.145 55.4399 199.522 55.0135C199.898 54.5871 200.218 53.822 200.482 52.7184C200.745 51.6148 200.958 50.116 201.122 48.2225C201.285 46.3287 201.404 43.9269 201.479 41.0171H214.392V59.8295H209.498V45.3441ZM180.473 42.1083C181.477 41.6569 182.669 41.2994 184.049 41.0362C185.43 40.7727 186.873 40.6409 188.379 40.6409C189.684 40.6409 190.775 40.7977 191.654 41.1114C192.532 41.4248 193.229 41.8702 193.743 42.4471C194.258 43.0239 194.622 43.7138 194.835 44.5164C195.048 45.3191 195.155 46.222 195.155 47.2252C195.155 48.3288 195.117 49.4388 195.042 50.5551C194.967 51.6713 194.923 52.7686 194.91 53.8471C194.898 54.9259 194.929 55.973 195.004 56.9889C195.08 58.0046 195.268 58.964 195.569 59.8673H191.579L190.788 57.2712H190.6C190.098 58.0487 189.401 58.7195 188.51 59.284C187.619 59.8482 186.471 60.1305 185.066 60.1305C184.187 60.1305 183.397 59.9987 182.694 59.7355C181.991 59.472 181.389 59.0958 180.887 58.6068C180.385 58.1176 179.996 57.5407 179.72 56.8759C179.444 56.2114 179.306 55.465 179.306 54.6373C179.306 53.4835 179.563 52.5114 180.077 51.7215C180.592 50.9313 181.332 50.2915 182.299 49.8026C183.265 49.3134 184.419 48.9749 185.762 48.7867C187.105 48.5987 188.604 48.5422 190.261 48.6174C190.436 47.2129 190.336 46.2033 189.96 45.5886C189.583 44.974 188.742 44.6669 187.437 44.6669C186.459 44.6669 185.423 44.7673 184.331 44.9679C183.24 45.1686 182.342 45.4318 181.64 45.7578L180.473 42.1083ZM186.684 56.1047C187.663 56.1047 188.441 55.8853 189.018 55.4462C189.596 55.0072 190.023 54.537 190.299 54.0353V51.5897C189.521 51.5145 188.774 51.5018 188.059 51.552C187.343 51.6021 186.71 51.7152 186.157 51.8907C185.605 52.0663 185.166 52.3171 184.84 52.6432C184.513 52.9692 184.35 53.3832 184.35 53.8848C184.35 54.5871 184.557 55.1326 184.972 55.5215C185.386 55.9104 185.957 56.1047 186.684 56.1047ZM160.257 41.0171H163.833L164.398 43.2747H164.548C165.201 42.3217 165.972 41.6194 166.864 41.1679C167.755 40.7161 168.84 40.4904 170.12 40.4904C172.479 40.4904 174.248 41.2368 175.428 42.7293C176.608 44.2215 177.197 46.6233 177.197 49.9344C177.197 51.5396 177.009 52.988 176.633 54.2798C176.256 55.5717 175.698 56.6689 174.957 57.5721C174.217 58.4751 173.314 59.1647 172.247 59.6412C171.18 60.1181 169.957 60.3562 168.576 60.3562C167.798 60.3562 167.158 60.2997 166.656 60.187C166.154 60.074 165.653 59.8923 165.151 59.6412V67.3542H160.257V41.0171ZM168.652 44.6292C167.698 44.6292 166.951 44.8676 166.412 45.3441C165.872 45.8207 165.452 46.5357 165.151 47.4888V55.3145C165.502 55.5904 165.885 55.8101 166.299 55.973C166.713 56.1362 167.259 56.2174 167.936 56.2174C169.342 56.2174 170.396 55.7222 171.099 54.7313C171.801 53.7407 172.153 52.1041 172.153 49.8213C172.153 48.166 171.877 46.8868 171.325 45.9836C170.772 45.0806 169.881 44.6292 168.652 44.6292ZM156.191 58.2116C155.438 58.8135 154.415 59.3215 153.122 59.7355C151.83 60.1492 150.456 60.3562 149 60.3562C145.963 60.3562 143.742 59.472 142.337 57.7036C140.931 55.9355 140.228 53.5086 140.228 50.4233C140.228 47.1125 141.019 44.6292 142.6 42.9738C144.181 41.3184 146.402 40.4904 149.263 40.4904C150.217 40.4904 151.146 40.6158 152.049 40.8666C152.953 41.1177 153.756 41.5314 154.459 42.1083C155.162 42.6852 155.726 43.4627 156.153 44.4412C156.579 45.4194 156.793 46.636 156.793 48.0907C156.793 48.6174 156.761 49.1819 156.699 49.7839C156.636 50.3858 156.542 51.0129 156.416 51.665H145.123C145.198 53.2451 145.605 54.4366 146.346 55.2392C147.086 56.0419 148.285 56.4432 149.941 56.4432C150.97 56.4432 151.892 56.2866 152.708 55.973C153.524 55.6593 154.145 55.3396 154.572 55.0135L156.191 58.2116ZM149.188 44.4034C147.908 44.4034 146.961 44.786 146.346 45.5511C145.731 46.316 145.361 47.3383 145.235 48.6174H152.237C152.338 47.263 152.131 46.222 151.616 45.4946C151.102 44.7672 150.293 44.4034 149.188 44.4034ZM138.459 64.1187H134.883L134.318 59.8295H121.669L121.104 64.1187H117.527V55.5028H119.749C119.949 55.2269 120.207 54.7564 120.52 54.0919C120.834 53.427 121.148 52.5177 121.462 51.364C121.775 50.2102 122.045 48.7803 122.271 47.0748C122.497 45.3692 122.61 43.35 122.61 41.0171H135.711V55.5028H138.459V64.1187ZM130.817 55.7285V45.1559H126.864C126.814 46.0588 126.726 47.0182 126.6 48.0342C126.475 49.0502 126.318 50.0347 126.13 50.9878C125.941 51.9409 125.722 52.8314 125.471 53.6591C125.22 54.4868 124.944 55.1767 124.643 55.7285H130.817ZM116.097 58.2116C115.344 58.8135 114.321 59.3215 113.029 59.7355C111.736 60.1492 110.362 60.3562 108.906 60.3562C105.87 60.3562 103.648 59.472 102.243 57.7036C100.838 55.9355 100.135 53.5086 100.135 50.4233C100.135 47.1125 100.925 44.6292 102.507 42.9738C104.088 41.3184 106.309 40.4904 109.17 40.4904C110.124 40.4904 111.052 40.6158 111.956 40.8666C112.859 41.1177 113.662 41.5314 114.365 42.1083C115.068 42.6852 115.633 43.4627 116.059 44.4412C116.486 45.4194 116.699 46.636 116.699 48.0907C116.699 48.6174 116.668 49.1819 116.605 49.7839C116.542 50.3858 116.448 51.0129 116.323 51.665H105.029C105.104 53.2451 105.512 54.4366 106.252 55.2392C106.993 56.0419 108.191 56.4432 109.848 56.4432C110.877 56.4432 111.799 56.2866 112.615 55.973C113.43 55.6593 114.052 55.3396 114.478 55.0135L116.097 58.2116ZM109.095 44.4034C107.815 44.4034 106.867 44.786 106.252 45.5511C105.638 46.316 105.267 47.3383 105.142 48.6174H112.144C112.244 47.263 112.037 46.222 111.523 45.4946C111.009 44.7672 110.199 44.4034 109.095 44.4034ZM83.3067 60.0552C82.8801 60.2057 82.4347 60.2936 81.9703 60.3187C81.5058 60.3438 81.0855 60.3562 80.7091 60.3562C78.4253 60.3562 76.6683 59.5409 75.4386 57.9106C74.2089 56.2803 73.5938 53.7845 73.5938 50.4233C73.5938 47.2129 74.2714 44.7796 75.6269 43.1243C76.9821 41.4689 78.9397 40.6409 81.4998 40.6409C82.2025 40.6409 82.8048 40.6911 83.3067 40.7914V33.4924H88.1255V40.8292C88.5773 40.7539 88.9788 40.7038 89.3301 40.6787C89.6815 40.6536 90.0204 40.6409 90.3467 40.6409C92.8312 40.6409 94.701 41.3746 95.9559 42.842C97.211 44.3094 97.8384 46.7112 97.8384 50.0471C97.8384 51.6272 97.6688 53.0508 97.3301 54.3176C96.9912 55.584 96.4956 56.6689 95.8431 57.5721C95.1906 58.4751 94.3935 59.1647 93.4526 59.6412C92.5113 60.1181 91.4258 60.3562 90.1961 60.3562C89.9702 60.3562 89.6376 60.3374 89.1983 60.2997C88.7593 60.2622 88.4016 60.1933 88.1255 60.093V67.3542H83.3067V60.0552ZM89.2548 44.5164C89.0039 44.5164 88.7844 44.5352 88.596 44.5727C88.4079 44.6104 88.1757 44.6542 87.8996 44.7044V56.3679C88.1004 56.4181 88.3326 56.4495 88.596 56.4622C88.8597 56.4746 89.1421 56.4809 89.4432 56.4809C90.6478 56.4809 91.5326 55.9857 92.0971 54.9948C92.6619 54.0039 92.9443 52.3549 92.9443 50.0471C92.9443 48.0907 92.6683 46.6798 92.1161 45.8143C91.564 44.9489 90.61 44.5164 89.2548 44.5164ZM81.989 56.4809C82.2651 56.4809 82.5224 56.4622 82.7609 56.4244C82.9992 56.3869 83.2565 56.3428 83.5326 56.2927V44.6669C83.0557 44.5666 82.5662 44.5164 82.0643 44.5164C80.9099 44.5164 80.0252 44.9616 79.4104 45.8521C78.7954 46.7424 78.4879 48.2663 78.4879 50.4233C78.4879 52.38 78.7703 53.8785 79.3352 54.9195C79.8997 55.9606 80.7844 56.4809 81.989 56.4809ZM238.41 18.322L238.598 15.6506H238.486L236.867 18.3972L230.165 26.9004H227.079V8.08808H231.973V17.0428L231.747 19.6014H231.897L233.441 16.9301L240.217 8.08808H243.304V26.9004H238.41V18.322ZM233.177 0.412842C233.353 1.39102 233.648 2.08091 234.062 2.48222C234.476 2.88352 235.009 3.08417 235.662 3.08417C236.365 3.08417 236.923 2.88352 237.337 2.48222C237.751 2.08091 238.034 1.40371 238.184 0.450615L241.911 1.39101C241.61 3.02161 240.87 4.23188 239.69 5.0218C238.511 5.81202 237.13 6.20697 235.549 6.20697C234.771 6.20697 234.018 6.11934 233.29 5.94377C232.562 5.7682 231.91 5.48595 231.333 5.09704C230.755 4.70842 230.266 4.21283 229.864 3.61088C229.463 3.00892 229.187 2.26886 229.036 1.39101L233.177 0.412842ZM217.893 18.322L218.081 15.6506H217.968L216.349 18.3972L209.648 26.9004H206.561V8.08808H211.455V17.0428L211.23 19.6014H211.38L212.924 16.9301L219.7 8.08808H222.787V26.9004H217.893V18.322ZM194.364 19.1122H193.046V26.9004H188.152V8.08808H193.046V16.1021L194.213 15.5754L198.618 8.08808H203.851L199.296 15.2369L197.375 16.6666L199.484 18.134L204.566 26.9004H198.957L194.364 19.1122ZM185.178 25.734C184.425 26.2858 183.515 26.7061 182.449 26.9944C181.382 27.283 180.284 27.4272 179.154 27.4272C177.649 27.4272 176.375 27.189 175.333 26.7122C174.292 26.2356 173.445 25.5648 172.792 24.6993C172.139 23.8342 171.669 22.7868 171.381 21.5578C171.092 20.3288 170.948 18.9744 170.948 17.4943C170.948 14.3089 171.663 11.857 173.093 10.1387C174.524 8.42049 176.607 7.56138 179.343 7.56138C180.723 7.56138 181.834 7.6744 182.674 7.90013C183.515 8.12587 184.274 8.41444 184.952 8.76559L183.785 12.7536C183.208 12.4777 182.637 12.2646 182.072 12.1141C181.507 11.9636 180.861 11.8884 180.133 11.8884C178.778 11.8884 177.749 12.3335 177.046 13.2241C176.344 14.1143 175.992 15.5379 175.992 17.4943C175.992 18.2969 176.08 19.0369 176.256 19.7141C176.431 20.3913 176.695 20.9809 177.046 21.4825C177.398 21.9842 177.856 22.3791 178.42 22.6677C178.985 22.9563 179.644 23.1004 180.397 23.1004C181.225 23.1004 181.928 22.9938 182.505 22.7804C183.082 22.5674 183.597 22.3102 184.048 22.0092L185.178 25.734ZM162.665 19.4884H156.529V26.9004H151.635V8.08808H156.529V15.1617H162.665V8.08808H167.559V26.9004H162.665V19.4884ZM132.849 9.17928C133.853 8.72781 135.045 8.37032 136.426 8.10712C137.806 7.84361 139.249 7.71187 140.755 7.71187C142.06 7.71187 143.152 7.8687 144.03 8.18237C144.909 8.49574 145.605 8.94117 146.12 9.51804C146.634 10.0949 146.998 10.7848 147.212 11.5874C147.425 12.39 147.531 13.293 147.531 14.2962C147.531 15.3998 147.494 16.5097 147.419 17.626C147.343 18.7423 147.299 19.8395 147.287 20.9181C147.274 21.9969 147.306 23.0439 147.381 24.0599C147.456 25.0755 147.645 26.035 147.946 26.9382H143.955L143.164 24.3421H142.976C142.474 25.1197 141.778 25.7905 140.887 26.355C139.996 26.9192 138.848 27.2014 137.442 27.2014C136.564 27.2014 135.773 27.0697 135.07 26.8065C134.368 26.543 133.765 26.1667 133.263 25.6778C132.762 25.1886 132.372 24.6117 132.096 23.9469C131.82 23.2824 131.682 22.536 131.682 21.7083C131.682 20.5545 131.939 19.5824 132.454 18.7925C132.969 18.0022 133.709 17.3625 134.675 16.8736C135.642 16.3843 136.796 16.0459 138.139 15.8576C139.481 15.6697 140.981 15.6132 142.637 15.6884C142.813 14.2838 142.713 13.2742 142.336 12.6596C141.96 12.0449 141.119 11.7379 139.814 11.7379C138.835 11.7379 137.8 11.8382 136.708 12.0389C135.616 12.2395 134.719 12.5027 134.016 12.8288L132.849 9.17928ZM139.061 23.1757C140.04 23.1757 140.818 22.9563 141.395 22.5172C141.972 22.0781 142.399 21.6079 142.675 21.1063V18.6607C141.897 18.5855 141.15 18.5728 140.435 18.6229C139.72 18.6731 139.086 18.7861 138.534 18.9617C137.982 19.1373 137.543 19.3881 137.216 19.7141C136.89 20.0402 136.727 20.4542 136.727 20.9558C136.727 21.6581 136.934 22.2035 137.348 22.5925C137.762 22.9814 138.333 23.1757 139.061 23.1757ZM118.657 19.1122V15.6884H120.953C121.831 15.6884 122.553 15.5128 123.118 15.1617C123.682 14.8105 123.965 14.3464 123.965 13.7695C123.965 13.0923 123.714 12.6094 123.212 12.3211C122.71 12.0325 121.944 11.8884 120.915 11.8884C119.937 11.8884 119.071 12.0138 118.318 12.2646C117.565 12.5154 116.962 12.7786 116.511 13.0545L115.457 9.32977C116.209 8.90338 117.207 8.5335 118.449 8.21983C119.692 7.90647 121.016 7.74964 122.421 7.74964C124.58 7.74964 126.192 8.15094 127.259 8.95355C128.326 9.75616 128.859 10.9226 128.859 12.4526C128.859 12.879 128.802 13.3117 128.689 13.7508C128.577 14.1895 128.394 14.6099 128.144 15.0112C127.893 15.4125 127.585 15.77 127.221 16.0834C126.857 16.397 126.424 16.6415 125.922 16.8171V16.9675C127.252 17.2685 128.194 17.8016 128.746 18.5667C129.298 19.3316 129.574 20.3539 129.574 21.633C129.574 22.4356 129.411 23.182 129.085 23.8716C128.759 24.5615 128.263 25.1571 127.598 25.6588C126.933 26.1604 126.098 26.5617 125.094 26.8627C124.09 27.1639 122.898 27.3144 121.518 27.3144C120.138 27.3144 118.939 27.17 117.922 26.8817C116.906 26.5931 116.059 26.2607 115.381 25.8845L116.435 22.0845C117.013 22.4105 117.709 22.6741 118.525 22.8747C119.34 23.0754 120.25 23.1757 121.254 23.1757C123.538 23.1757 124.68 22.4483 124.68 20.9933C124.68 20.3412 124.385 19.8646 123.795 19.5636C123.206 19.2627 122.107 19.1122 120.501 19.1122H118.657ZM97.9134 9.17928C98.9175 8.72781 100.109 8.37032 101.49 8.10712C102.87 7.84361 104.314 7.71187 105.819 7.71187C107.124 7.71187 108.216 7.8687 109.095 8.18237C109.973 8.49574 110.67 8.94117 111.184 9.51804C111.699 10.0949 112.062 10.7848 112.276 11.5874C112.489 12.39 112.596 13.293 112.596 14.2962C112.596 15.3998 112.558 16.5097 112.483 17.626C112.408 18.7423 112.363 19.8395 112.351 20.9181C112.338 21.9969 112.37 23.0439 112.445 24.0599C112.52 25.0755 112.709 26.035 113.01 26.9382H109.019L108.229 24.3421H108.04C107.539 25.1197 106.842 25.7905 105.951 26.355C105.06 26.9192 103.912 27.2014 102.506 27.2014C101.628 27.2014 100.837 27.0697 100.135 26.8065C99.4319 26.543 98.8295 26.1667 98.3276 25.6778C97.8257 25.1886 97.4366 24.6117 97.1605 23.9469C96.8844 23.2824 96.7465 22.536 96.7465 21.7083C96.7465 20.5545 97.0036 19.5824 97.5182 18.7925C98.0328 18.0022 98.773 17.3625 99.7393 16.8736C100.706 16.3843 101.86 16.0459 103.203 15.8576C104.545 15.6697 106.045 15.6132 107.702 15.6884C107.877 14.2838 107.777 13.2742 107.4 12.6596C107.024 12.0449 106.183 11.7379 104.878 11.7379C103.899 11.7379 102.864 11.8382 101.772 12.0389C100.681 12.2395 99.7832 12.5027 99.0805 12.8288L97.9134 9.17928ZM104.125 23.1757C105.104 23.1757 105.882 22.9563 106.459 22.5172C107.037 22.0781 107.463 21.6079 107.739 21.1063V18.6607C106.961 18.5855 106.214 18.5728 105.499 18.6229C104.784 18.6731 104.15 18.7861 103.598 18.9617C103.046 19.1373 102.607 19.3881 102.28 19.7141C101.954 20.0402 101.791 20.4542 101.791 20.9558C101.791 21.6581 101.998 22.2035 102.412 22.5925C102.827 22.9814 103.397 23.1757 104.125 23.1757Z" fill="black"/>
</svg>
