<svg width="765" height="299" viewBox="0 0 765 299" fill="none" xmlns="http://www.w3.org/2000/svg">
<path d="M223.328 144.801L314.281 284.904C314.851 286.043 315.135 287.04 315.135 287.894C315.42 288.464 315.562 289.033 315.562 289.603C315.562 292.166 314.566 294.444 312.573 296.437C310.865 298.146 308.73 299 306.168 299H210.09C204.397 299 200.127 297.719 197.28 295.156C194.718 292.308 193.152 290.315 192.583 289.176L155.433 231.939L119.991 289.176C119.421 290.315 117.713 292.308 114.866 295.156C112.304 297.719 108.177 299 102.483 299H9.39428C6.8322 299 4.5548 298.146 2.56208 296.437C0.854025 294.444 0 292.166 0 289.603C0 289.033 0 288.464 0 287.894C0.284675 287.04 0.711688 286.043 1.28104 284.904L90.9537 146.083L10.2483 14.0957C9.39428 12.3871 8.96727 10.821 8.96727 9.39715C8.96727 6.83429 9.82129 4.69858 11.5293 2.99001C13.5221 0.996671 15.7995 0 18.3615 0H111.023C116.717 0 120.845 1.42381 123.407 4.27142C126.253 7.11906 128.104 9.25478 128.958 10.6786L158.849 62.79L191.302 10.6786C192.156 9.25478 193.864 7.11906 196.426 4.27142C199.273 1.42381 203.543 0 209.236 0H297.628C300.19 0 302.325 0.996671 304.033 2.99001C306.026 4.69858 307.022 6.83429 307.022 9.39715C307.022 10.5362 306.88 11.3905 306.595 11.96C306.595 12.2448 306.31 12.9567 305.741 14.0957L223.328 144.801Z" fill="white" fill-opacity="0.15"/>
<path d="M539 144.801L629.954 284.904C630.523 286.043 630.808 287.04 630.808 287.894C631.093 288.464 631.235 289.033 631.235 289.603C631.235 292.166 630.239 294.444 628.246 296.437C626.538 298.146 624.403 299 621.841 299H525.763C520.069 299 515.799 297.719 512.952 295.156C510.39 292.308 508.825 290.315 508.255 289.176L471.105 231.939L435.663 289.176C435.094 290.315 433.386 292.308 430.539 295.156C427.977 297.719 423.849 299 418.156 299H325.067C322.505 299 320.227 298.146 318.235 296.437C316.527 294.444 315.673 292.166 315.673 289.603C315.673 289.033 315.673 288.464 315.673 287.894C315.957 287.04 316.384 286.043 316.954 284.904L406.626 146.083L325.921 14.0957C325.067 12.3871 324.64 10.821 324.64 9.39715C324.64 6.83429 325.494 4.69858 327.202 2.99001C329.195 0.996671 331.472 0 334.034 0H426.696C432.389 0 436.517 1.42381 439.079 4.27142C441.926 7.11906 443.776 9.25478 444.63 10.6786L474.521 62.79L506.974 10.6786C507.828 9.25478 509.536 7.11906 512.098 4.27142C514.945 1.42381 519.215 0 524.909 0H613.3C615.862 0 617.998 0.996671 619.706 2.99001C621.698 4.69858 622.695 6.83429 622.695 9.39715C622.695 10.5362 622.552 11.3905 622.268 11.96C622.268 12.2448 621.983 12.9567 621.414 14.0957L539 144.801Z" fill="white" fill-opacity="0.15"/>
<path d="M666.36 299C663.229 299 660.524 297.861 658.247 295.583C655.969 293.305 654.831 290.6 654.831 287.467V11.5329C654.831 8.40049 655.969 5.69525 658.247 3.41715C660.524 1.13905 663.229 0 666.36 0H753.471C756.602 0 759.307 1.13905 761.584 3.41715C763.861 5.69525 765 8.40049 765 11.5329V287.467C765 290.6 763.861 293.305 761.584 295.583C759.307 297.861 756.602 299 753.471 299H666.36Z" fill="white" fill-opacity="0.15"/>
</svg>
