<svg width="847" height="331" viewBox="0 0 847 331" fill="none" xmlns="http://www.w3.org/2000/svg">
<path d="M247.266 160.299L347.969 315.396C348.599 316.657 348.915 317.76 348.915 318.706C349.23 319.336 349.387 319.967 349.387 320.597C349.387 323.434 348.284 325.956 346.078 328.163C344.187 330.054 341.823 331 338.986 331H232.61C226.306 331 221.578 329.581 218.426 326.744C215.59 323.592 213.856 321.385 213.226 320.124L172.093 256.761L132.852 320.124C132.222 321.385 130.331 323.592 127.179 326.744C124.342 329.581 119.772 331 113.468 331H10.4012C7.56454 331 5.04303 330.054 2.8367 328.163C0.945568 325.956 0 323.434 0 320.597C0 319.967 0 319.336 0 318.706C0.315189 317.76 0.787973 316.657 1.41835 315.396L100.703 161.717L11.3468 15.6043C10.4012 13.7129 9.92847 11.9791 9.92847 10.4029C9.92847 7.56572 10.874 5.20144 12.7652 3.31001C14.9715 1.10334 17.493 0 20.3297 0H122.924C129.228 0 133.798 1.57619 136.635 4.72857C139.786 7.88096 141.835 10.2453 142.781 11.8214L175.876 69.51L211.807 11.8214C212.753 10.2453 214.644 7.88096 217.481 4.72857C220.633 1.57619 225.36 0 231.664 0H329.531C332.367 0 334.731 1.10334 336.622 3.31001C338.829 5.20144 339.932 7.56572 339.932 10.4029C339.932 11.6638 339.774 12.6095 339.459 13.24C339.459 13.5553 339.144 14.3433 338.513 15.6043L247.266 160.299Z" fill="white"/>
<path d="M596.775 160.299L697.478 315.396C698.109 316.657 698.424 317.76 698.424 318.706C698.739 319.336 698.897 319.967 698.897 320.597C698.897 323.434 697.794 325.956 695.587 328.163C693.696 330.054 691.332 331 688.495 331H582.119C575.815 331 571.087 329.581 567.936 326.744C565.099 323.592 563.365 321.385 562.735 320.124L521.603 256.761L482.362 320.124C481.731 321.385 479.84 323.592 476.688 326.744C473.852 329.581 469.281 331 462.977 331H359.911C357.074 331 354.552 330.054 352.346 328.163C350.455 325.956 349.509 323.434 349.509 320.597C349.509 319.967 349.509 319.336 349.509 318.706C349.824 317.76 350.297 316.657 350.928 315.396L450.212 161.717L360.856 15.6043C359.911 13.7129 359.438 11.9791 359.438 10.4029C359.438 7.56572 360.383 5.20144 362.275 3.31001C364.481 1.10334 367.002 0 369.839 0H472.433C478.737 0 483.307 1.57619 486.144 4.72857C489.296 7.88096 491.345 10.2453 492.29 11.8214L525.385 69.51L561.317 11.8214C562.262 10.2453 564.153 7.88096 566.99 4.72857C570.142 1.57619 574.87 0 581.174 0H679.04C681.877 0 684.24 1.10334 686.132 3.31001C688.338 5.20144 689.441 7.56572 689.441 10.4029C689.441 11.6638 689.283 12.6095 688.968 13.24C688.968 13.5553 688.653 14.3433 688.023 15.6043L596.775 160.299Z" fill="white"/>
<path d="M737.787 331C734.32 331 731.326 329.739 728.804 327.217C726.283 324.695 725.022 321.701 725.022 318.233V12.7671C725.022 9.29954 726.283 6.30477 728.804 3.78286C731.326 1.26095 734.32 0 737.787 0H834.235C837.702 0 840.696 1.26095 843.218 3.78286C845.739 6.30477 847 9.29954 847 12.7671V318.233C847 321.701 845.739 324.695 843.218 327.217C840.696 329.739 837.702 331 834.235 331H737.787Z" fill="white"/>
</svg>
