<svg width="118" height="120" viewBox="0 0 118 120" fill="none" xmlns="http://www.w3.org/2000/svg">
<path d="M0.437988 2.8085C0.437988 2.8085 107.239 2.52117 117.225 2.83205C117.225 -3.54015 117.23 2.83223 117.225 2.83205C117.225 2.83675 117.225 2.84145 117.225 2.84616V119.619H0.438302L0.437988 2.8085Z" fill="white"/>
<path fill-rule="evenodd" clip-rule="evenodd" d="M0.438321 89L17.5088 88.4632L36.2838 82.3253L47.3387 68.0185L70.6748 64.5853L83.1054 64.1167L93.9443 60.4316L105.866 55.4456L112.586 50.2437L117.225 45.2577V37.8875L109.985 46.3414L98.0626 50.0265C98.0626 50.0265 91.3427 51.7611 88.9583 52.8447C86.574 53.9282 79.854 56.7464 79.854 56.7464L72.4844 59.9978L67.0646 61.2986L58.8315 61.226L39.5352 64.7671L32.5987 77.3394L25.0117 79.7237L13.3065 80.5907L5.50302 82.1081L0.438477 84.0593L0.438321 89Z" fill="black" fill-opacity="0.5"/>
<path d="M88.9032 34.2154L84.6517 37.4668C84.4201 37.6432 84.0883 37.5994 83.9119 37.3678C83.7355 37.1362 83.7792 36.8044 84.0108 36.628L88.7202 33.0263L90.3126 24.0078L76.5007 21.8418L67.0449 32.1083L78.0589 40.6438C78.2893 40.8214 78.3319 41.1531 78.1543 41.3835C77.9767 41.6139 77.6449 41.6566 77.4145 41.479L66.5462 33.0569L63.0447 44.3703C62.9595 44.6487 62.6637 44.8053 62.3853 44.7201C62.1069 44.6349 61.9503 44.3391 62.0355 44.0607L65.7981 31.9025L75.7898 21.0546L77.2093 2.79324C77.2303 2.50224 77.4847 2.28386 77.7757 2.30486C78.0667 2.32586 78.2851 2.58023 78.2641 2.87122L76.8679 20.8326C81.6109 21.5766 86.3592 22.3068 91.0992 23.0652C99.9221 27.7361 108.702 32.6471 117.477 37.4242C117.732 37.5628 117.826 37.8838 117.688 38.1394C117.549 38.395 117.228 38.4892 116.973 38.3506L91.3194 24.3852L89.7462 33.298L93.1553 45.7971C93.2315 46.0779 93.0659 46.3683 92.7851 46.4445C92.5043 46.5207 92.2139 46.3551 92.1377 46.0743L88.9032 34.2154ZM0.83478 44.5299C0.558783 44.6223 0.259394 44.4729 0.166995 44.1969C0.0745964 43.9209 0.223983 43.6215 0.499979 43.5291L17.8353 37.6228L27.4694 13.9069C27.5786 13.6363 27.8876 13.5061 28.1582 13.6153C28.4288 13.7245 28.559 14.0335 28.4498 14.3041L19.0431 37.4602L43.8833 35.7718C44.1743 35.7526 44.4269 35.9728 44.4461 36.2638C44.4653 36.5548 44.2452 36.8074 43.9542 36.8266L19.4001 38.4952L30.7165 50.2737L45.7577 52.9862C46.0439 53.0372 46.2347 53.312 46.1837 53.5982C46.1327 53.8844 45.858 54.0752 45.5718 54.0242L30.5623 51.3176L22.7528 56.1979C22.505 56.3515 22.1786 56.2759 22.025 56.0281C21.8715 55.7803 21.9471 55.454 22.1949 55.3004L29.6222 50.6589L18.0861 38.6518L0.83478 44.5299ZM1 27.5147C0.755803 27.6731 0.428798 27.6041 0.2704 27.3599C0.112002 27.1157 0.181006 26.7887 0.425203 26.6303L9.718 20.3964C9.9622 20.238 10.2892 20.307 10.4476 20.5512C10.606 20.7954 10.537 21.1224 10.2928 21.2808L1 27.5147ZM96.2171 75.8915L82.446 77.0681C82.155 77.0915 81.8989 76.8749 81.8755 76.5839C81.8521 76.2929 82.0687 76.0367 82.3597 76.0133L95.6483 74.8781L91.0679 61.4089C90.9743 61.1329 91.1226 60.8323 91.3986 60.7387C91.6746 60.6451 91.9752 60.7933 92.0688 61.0693L96.8129 75.0215L107.745 82.9858L108.3 68.118L105.351 55.5656C105.285 55.2818 105.462 54.9968 105.746 54.9308C106.029 54.8648 106.314 55.0418 106.38 55.3256L109.36 68.0088L108.773 83.7346L117.535 90.1173C117.77 90.2883 117.822 90.6183 117.651 90.8535C117.48 91.0887 117.15 91.1403 116.914 90.9693L96.2171 75.8915ZM63.6117 116.129L63.7545 118.961C63.7653 119.252 63.5385 119.498 63.2475 119.509C62.9565 119.52 62.7105 119.293 62.6997 119.002L62.5695 116.483L51.2369 109.663C50.9873 109.512 50.9063 109.186 51.0569 108.937C51.2075 108.687 51.5333 108.606 51.7829 108.757L62.5173 115.217L61.9593 101.679L49.6067 86.6086C49.4219 86.3836 49.4543 86.0512 49.6793 85.8664C49.9043 85.6816 50.2366 85.714 50.4214 85.939L62.2407 100.358L65.4609 88.6282C65.5371 88.3474 65.8275 88.1817 66.1083 88.2579C66.389 88.3341 66.5546 88.6245 66.4784 88.9053L63.0099 101.54L63.6117 116.129Z" fill="black"/>
<path fill-rule="evenodd" clip-rule="evenodd" d="M74.8249 85.9364L74.8291 85.9472L74.8279 85.9448L74.8249 85.9364ZM49.6132 47.6767C49.6132 48.6157 54.4504 49.3711 54.5691 54.1422C54.6039 55.7316 54.1558 56.721 53.2954 57.6749C51.7126 59.4413 48.718 59.6177 45.5861 59.6531C38.4618 59.7593 29.4097 57.2862 27.5167 61.1369C26.7247 62.7971 27.0691 61.8785 27.2071 63.6803C27.9637 71.6997 31.1995 74.5257 30.6487 81.2384C22.2848 87.1381 9.92915 85.478 14.8509 106.816C15.7113 110.631 16.0892 109.642 17.3294 112.044C19.6694 116.567 16.8123 117.485 21.08 119.534C25.2203 119.534 29.058 119.604 30.2628 119.534C33.5669 120.382 33.5598 118.721 36.3137 119.534L40.5263 115.224C41.6627 112.362 44.6225 108.971 44.6225 104.873C44.6225 100.387 41.9027 99.5742 43.0043 92.2609C44.1059 85.0892 45.5171 89.3989 43.7273 80.6378C42.6257 75.3027 44.4503 72.3004 48.2705 70.2514C51.5404 69.1558 54.5692 71.7706 62.2785 72.8301C66.8558 73.4661 65.3756 73.4307 66.2708 74.4195C70.7798 75.9747 69.9877 79.8255 70.0567 83.4992C70.9861 87.9152 70.298 83.111 74.1529 89.9995C76.5271 94.2391 75.9079 92.8609 76.3213 97.5246C76.8715 104.308 79.6596 108.547 83.0328 112.292C84.4212 116.051 84.1476 118.242 85.7514 119.569C89.2596 119.569 100.358 119.114 105.9 118.937H109.551C105.628 117.312 104.13 110.737 98.968 106.604C93.2549 101.976 86.8181 107.381 82.929 101.164C82.5504 100.916 81.8274 102.259 81.0366 98.4426C80.6232 96.5352 81.0019 96.2527 81.1393 94.7335C80.3827 93.8149 81.5178 96.1464 80.004 93.0025C79.866 92.7553 79.5558 91.9075 79.4532 91.6249C78.5239 89.1517 78.8334 90.0349 78.3516 87.7388L78.0762 87.2798C75.3571 84.2414 73.4647 80.8502 75.3229 76.2927C76.3087 73.8597 75.7459 73.9395 76.1149 71.0283C72.638 63.1858 69.9193 65.2348 62.8292 60.9953C59.3187 58.9109 59.6973 57.9575 59.8347 53.2236C59.9379 48.6306 58.6305 47.2525 58.0107 42.9073C56.221 29.9073 44.3471 32.6624 45.0011 20.1208C45.6317 7.91756 60.5547 8.19658 62.9157 2.31006C62.8815 2.31006 36.7746 2.31004 30.4249 2.83265C30.1147 5.65861 36.7062 12.6665 36.7746 17.1886C36.9126 26.2677 32.7481 23.1238 41.1804 29.5893C50.6308 36.8078 47.9093 36.218 49.6132 47.6767ZM75.9115 88.0183C76.0897 88.3669 76.2583 88.7024 76.4173 89.024C76.2583 88.7012 76.0903 88.3675 75.9115 88.0183ZM77.6664 91.6993C77.8212 92.0575 77.958 92.3899 78.0816 92.7037C77.958 92.3905 77.8212 92.0563 77.6664 91.6993ZM78.4386 93.6637C79.3236 96.2239 79.0495 97.1281 78.9745 98.3838C79.0489 97.1293 79.3242 96.2251 78.4386 93.6637Z" fill="url(#paint0_linear_452_9219)"/>
<path d="M116.804 118.826V3.02344C116.798 3.02327 1 3 1 3V118.826H116.804ZM117.804 119.826H0V2H1V3C1.0002 2 1.00107 2 1.00195 2H2.30078C3.14885 2.00017 4.39263 2.00066 5.97559 2.00098C9.14195 2.00161 13.6657 2.00281 19.0938 2.00391C29.9499 2.00609 44.4253 2.0088 58.9004 2.01172C87.8299 2.01755 116.812 2.02271 116.835 2.02344L117.804 2.05371V119.826Z" fill="black"/>
<defs>
<linearGradient id="paint0_linear_452_9219" x1="109.551" y1="61.0462" x2="13.728" y2="61.0462" gradientUnits="userSpaceOnUse">
<stop stop-color="#00C7D4"/>
<stop offset="1" stop-color="#02E7BD"/>
</linearGradient>
</defs>
</svg>
