<svg width="120" height="120" viewBox="0 0 120 120" fill="none" xmlns="http://www.w3.org/2000/svg">
<path d="M106.419 2.09814H13.5816C7.2397 2.09814 2.09863 7.23922 2.09863 13.5811V106.418C2.09863 112.76 7.2397 117.901 13.5816 117.901H106.419C112.761 117.901 117.902 112.76 117.902 106.418V13.5811C117.902 7.23922 112.761 2.09814 106.419 2.09814Z" fill="white"/>
<path fill-rule="evenodd" clip-rule="evenodd" d="M0.671875 87.3697L19.0252 87.008L37.642 80.9218L48.6038 66.7355L71.7434 63.3312L84.0694 62.8666L94.817 59.2124L106.638 54.2685L113.302 49.1104L117.902 44.1664V36.8582L110.723 45.2409L98.9006 48.895C98.9006 48.895 92.2373 50.615 89.873 51.6894C87.5087 52.7639 80.8454 55.5583 80.8454 55.5583L73.5378 58.7823L68.1637 60.0721L59.9999 60.0002L40.866 63.5115L33.9879 75.9778L26.4649 78.3421L14.8582 79.2018L7.12047 80.7064L2.09857 82.6412L0.671875 87.3697Z" fill="black" fill-opacity="0.5"/>
<path d="M89.8183 33.2172L85.6026 36.4412C85.3729 36.6161 85.0439 36.5727 84.869 36.343C84.6941 36.1134 84.7375 35.7844 84.9671 35.6095L89.6368 32.0381L91.2158 23.0955L77.5203 20.9478L68.144 31.1278L79.0654 39.5914C79.2938 39.7675 79.3361 40.0965 79.16 40.3249C78.9839 40.5534 78.6548 40.5957 78.4264 40.4196L67.6496 32.0684L64.1776 43.2866C64.0931 43.5626 63.7998 43.7179 63.5237 43.6334C63.2477 43.5489 63.0924 43.2556 63.1769 42.9796L66.9077 30.9237L76.8153 20.1672L78.2229 2.05962C78.2438 1.77107 78.496 1.55454 78.7845 1.57536C79.0731 1.59618 79.2897 1.8484 79.2688 2.13695L77.8844 19.9471C82.5874 20.6848 87.2958 21.4089 91.9958 22.1609C100.744 26.7925 109.45 31.6621 118.151 36.399C118.405 36.5364 118.498 36.8547 118.361 37.1081C118.223 37.3616 117.905 37.455 117.651 37.3175L92.2141 23.4697L90.6542 32.3075L94.0346 44.7014C94.1102 44.9798 93.946 45.2677 93.6675 45.3433C93.3891 45.4189 93.1012 45.2547 93.0256 44.9762L89.8183 33.2172ZM2.26398 43.4448C1.99031 43.5365 1.69344 43.3883 1.60182 43.1147C1.5102 42.841 1.65833 42.5441 1.932 42.4525L19.3489 36.5959L28.9018 13.0797C29.0101 12.8114 29.3165 12.6823 29.5848 12.7906C29.8531 12.8988 29.9822 13.2053 29.874 13.4736L20.5465 36.4347L45.1776 34.7605C45.4661 34.7415 45.7166 34.9598 45.7356 35.2484C45.7547 35.5369 45.5364 35.7874 45.2478 35.8064L20.9005 37.4609L32.1216 49.1402L47.0362 51.8299C47.32 51.8805 47.5091 52.1529 47.4586 52.4367C47.408 52.7205 47.1355 52.9097 46.8518 52.8592L31.9687 50.1754L24.225 55.0146C23.9793 55.1669 23.6556 55.0919 23.5033 54.8462C23.351 54.6005 23.426 54.2769 23.6717 54.1246L31.0365 49.5222L19.5975 37.6162L2.26398 43.4448ZM2.38297 26.5729C2.14083 26.73 1.81658 26.6616 1.65952 26.4194C1.50245 26.1773 1.57088 25.8531 1.81302 25.696L11.2999 19.5146C11.5421 19.3575 11.8663 19.4259 12.0234 19.668C12.1804 19.9102 12.112 20.2344 11.8699 20.3915L2.38297 26.5729ZM97.0706 74.5424L83.4155 75.709C83.127 75.7322 82.8729 75.5175 82.8497 75.2289C82.8265 74.9404 83.0413 74.6863 83.3299 74.6631L96.5066 73.5375L91.9648 60.1817C91.872 59.908 92.019 59.61 92.2927 59.5172C92.5663 59.4243 92.8644 59.5713 92.9572 59.845L97.6614 73.6797L108.502 81.5769L109.052 66.8343L106.127 54.3875C106.062 54.1061 106.237 53.8235 106.519 53.7581C106.8 53.6926 107.083 53.8682 107.148 54.1496L110.103 66.726L109.521 82.3194L118.209 88.6484C118.442 88.8179 118.493 89.1452 118.324 89.3784C118.154 89.6116 117.827 89.6627 117.594 89.4932L97.0706 74.5424ZM64.7398 114.441L64.8814 117.881C64.8921 118.17 64.6672 118.414 64.3787 118.425C64.0901 118.435 63.8462 118.21 63.8355 117.922L63.7064 114.792L52.4692 108.029C52.2217 107.88 52.1414 107.557 52.2907 107.309C52.44 107.062 52.7631 106.981 53.0106 107.131L63.6546 113.536L63.1013 100.112L50.8527 85.1692C50.6695 84.9461 50.7016 84.6165 50.9247 84.4332C51.1478 84.25 51.4774 84.2821 51.6606 84.5052L63.3803 98.8028L66.5734 87.1718C66.6489 86.8933 66.9369 86.7291 67.2153 86.8046C67.4938 86.8802 67.658 87.1681 67.5824 87.4466L64.1431 99.9748L64.7398 114.441Z" fill="black"/>
<path fill-rule="evenodd" clip-rule="evenodd" d="M75.8588 84.5024L75.8629 84.5131L75.8617 84.5107L75.8588 84.5024ZM50.8594 46.5649C50.8594 47.496 55.6558 48.245 55.7736 52.976C55.8081 54.552 55.3637 55.533 54.5105 56.479C52.9411 58.2305 49.9717 58.4054 46.8661 58.4405C39.8018 58.5458 30.826 56.0934 28.9489 59.9118C28.1636 61.558 28.5051 60.6471 28.6419 62.4337C29.3922 70.3857 32.6007 73.1878 32.0545 79.844C23.7611 85.694 11.5095 84.0479 16.3898 105.206C17.2429 108.99 17.6177 108.008 18.8474 110.391C21.1677 114.875 18.3347 115.785 22.5665 117.817C26.7989 119.919 30.3964 118.907 31.5911 118.837C34.8674 119.678 34.6984 118.115 37.4292 118.92L41.849 113.543C42.9758 110.706 45.9107 107.343 45.9107 103.279C45.9107 98.8309 43.2138 98.0254 44.3061 90.7737C45.3984 83.6624 46.7978 87.9358 45.0231 79.2485C43.9307 73.9583 45.7399 70.9812 49.5279 68.9495C52.7703 67.8632 55.7736 70.4559 63.418 71.5065C67.9568 72.1372 66.489 72.1021 67.3767 73.0825C71.8477 74.6246 71.0623 78.443 71.1307 82.0858C72.0523 86.4645 71.3699 81.7008 75.1924 88.5313C77.5466 92.7352 76.9326 91.3686 77.3425 95.9931C77.8881 102.719 80.6528 106.923 83.9975 110.636C85.3742 114.364 85.1029 116.536 86.6932 117.852C90.2426 120.479 103.45 119.323 108.945 119.148L110.293 117.225C106.402 115.614 104.917 109.094 99.7985 104.996C94.1335 100.407 87.751 105.767 83.8946 99.6014C83.5192 99.3563 82.8023 100.687 82.0181 96.9033C81.6082 95.012 81.9837 94.7318 82.1199 93.2254C81.3697 92.3146 82.4953 94.6265 80.9943 91.509C80.8574 91.2639 80.5499 90.4232 80.4481 90.143C79.5266 87.6907 79.8335 88.5665 79.3558 86.2896L79.0827 85.8345C76.3865 82.8217 74.51 79.4591 76.3526 74.9399C77.3301 72.5275 76.772 72.6066 77.1379 69.7199C73.6902 61.9435 70.9945 63.9752 63.9641 59.7713C60.4831 57.7045 60.8586 56.7591 60.9948 52.0651C61.0971 47.5108 59.8007 46.1443 59.1862 41.8357C57.4115 28.9452 45.6376 31.6771 46.2861 19.2411C46.9114 7.14059 61.7087 7.41726 64.0498 1.58031C64.0159 1.58031 37.3805 -0.80124 31.8326 2.0985C31.5251 4.90066 38.061 11.8495 38.1288 16.3336C38.2657 25.3362 34.1362 22.2188 42.4975 28.6299C51.8684 35.7876 49.1698 35.2027 50.8594 46.5649ZM77.1135 85.8012L77.0825 85.8018L77.0849 85.7792L77.0819 85.8012H77.1135ZM76.9362 86.5668C77.1129 86.9125 77.2801 87.2451 77.4377 87.564C77.2801 87.2439 77.1135 86.9131 76.9362 86.5668ZM78.6764 90.2168C78.8299 90.572 78.9655 90.9016 79.0881 91.2128C78.9655 90.9022 78.8299 90.5708 78.6764 90.2168ZM79.1065 91.2585C79.2333 91.5828 79.3445 91.8839 79.4421 92.1647C80.3196 94.7033 80.0478 95.5998 79.9734 96.845C80.0472 95.601 80.3202 94.7045 79.4421 92.1647C79.3451 91.8839 79.2333 91.5828 79.1065 91.2585Z" fill="url(#paint0_linear_236_2964)"/>
<path fill-rule="evenodd" clip-rule="evenodd" d="M13.5807 0H106.419C110.157 0 113.553 1.52724 116.013 3.98732C118.473 6.44739 120 9.84331 120 13.5807V106.419C120 110.15 118.473 113.544 116.013 116.004V116.013C113.553 118.473 110.157 120 106.419 120H13.5807C9.84985 120 6.4563 118.473 3.99563 116.013L3.98732 116.004C1.52724 113.544 0 110.15 0 106.419V13.5807C0 9.84331 1.52724 6.44739 3.98732 3.98732H3.99563C6.4563 1.52724 9.84985 0 13.5807 0ZM13.5807 2.09838H106.419C112.735 2.09838 117.902 7.26544 117.902 13.5807V106.419C117.902 112.735 112.735 117.902 106.419 117.902H13.5807C7.26544 117.902 2.09838 112.735 2.09838 106.419V13.5807C2.09838 7.26544 7.26544 2.09838 13.5807 2.09838Z" fill="#2B2A29"/>
<defs>
<linearGradient id="paint0_linear_236_2964" x1="110.293" y1="60.1058" x2="15.2764" y2="60.1058" gradientUnits="userSpaceOnUse">
<stop stop-color="#00C7D4"/>
<stop offset="1" stop-color="#02E7BD"/>
</linearGradient>
</defs>
</svg>
