<svg width="118" height="118" viewBox="0 0 118 118" fill="none" xmlns="http://www.w3.org/2000/svg">
<path fill-rule="evenodd" clip-rule="evenodd" d="M1.00098 1.00024H116.804V116.803H1.00098V1.00024Z" fill="white"/>
<path fill-rule="evenodd" clip-rule="evenodd" d="M1 21.0406H23.1014V116.803H25.2003V21.0406H66.0293V116.803H68.1282V21.0406H116.803V1.00006L1 1C1 7.54434 1 21.0406 1 21.0406Z" fill="black" fill-opacity="0.2"/>
<path fill-rule="evenodd" clip-rule="evenodd" d="M98.7227 6.81128H105.412C105.888 6.81128 106.277 7.19985 106.277 7.6758V14.3653C106.277 14.8412 105.888 15.2297 105.412 15.2297H98.7227C98.2467 15.2297 97.8583 14.8412 97.8583 14.3653V7.6758C97.8583 7.19985 98.2467 6.81128 98.7227 6.81128ZM73.1105 6.81128H79.8C80.276 6.81128 80.6645 7.19985 80.6645 7.6758V14.3653C80.6645 14.8412 80.276 15.2297 79.8 15.2297H73.1105C72.6345 15.2297 72.2461 14.8412 72.2461 14.3653V7.6758C72.2461 7.19985 72.6345 6.81128 73.1105 6.81128ZM85.9166 6.81128H92.6061C93.0821 6.81128 93.4706 7.19985 93.4706 7.6758V14.3653C93.4706 14.8412 93.0821 15.2297 92.6061 15.2297H85.9166C85.4406 15.2297 85.0522 14.8412 85.0522 14.3653V7.6758C85.0522 7.19985 85.4406 6.81128 85.9166 6.81128Z" fill="url(#paint0_linear_452_9252)"/>
<path d="M35.1625 20.8547L37.1966 25.6767C37.2662 25.842 37.2377 26.0194 37.1359 26.1562L34.9525 29.4647L39.6918 33.4293C39.925 33.6251 39.9411 33.957 39.7257 34.1694L37.014 36.924L56.8552 39.0265C57.1711 39.0593 57.3984 39.3193 57.3621 39.6066C57.3347 39.8238 57.1652 39.9946 56.9474 40.0511L38.5394 44.8112L51.001 46.9839C51.3133 47.038 51.5186 47.3129 51.4591 47.5967C51.4139 47.8115 51.23 47.9704 51.0081 48.012L41.1036 50.3744L61.1667 53.8263C61.4791 53.8792 61.685 54.1536 61.6267 54.4373C61.5785 54.6718 61.3637 54.8406 61.1144 54.8621L44.105 56.8873L36.6052 58.8357L39.4818 61.1607C39.7191 61.3529 39.74 61.6849 39.5288 61.9008C39.48 61.9502 39.424 61.9888 39.3634 62.0174L36.0954 63.801L41.8657 67.4088C42.1269 67.573 42.1929 67.8996 42.0121 68.137C41.9621 68.2036 41.8973 68.2559 41.8253 68.2934L38.7726 70.0122L52.0332 72.6918C52.3432 72.7536 52.5389 73.0333 52.4711 73.3147C52.4336 73.47 52.3223 73.5944 52.179 73.664L47.0226 76.1573L58.3461 78.6091C58.6561 78.6757 58.8482 78.9589 58.7751 79.2403C58.7304 79.4104 58.5989 79.542 58.4336 79.6045L48.0799 83.8505C48.0305 83.8707 47.9805 83.8838 47.9299 83.8909L37.2995 85.8965L31.5852 89.6309L34.6539 91.3932L43.1068 93.4065C43.4138 93.4791 43.5988 93.7652 43.519 94.0442C43.475 94.1977 43.3602 94.3179 43.2138 94.3828L36.312 97.4454L48.9949 100.246C49.303 100.314 49.4928 100.598 49.4185 100.878C49.3584 101.104 49.1442 101.26 48.902 101.276L35.4439 102.231L44.4239 106.011C44.7125 106.132 44.838 106.444 44.7053 106.706C44.644 106.827 44.5382 106.916 44.4144 106.966L33.3212 111.431L43.71 114.852L55.2399 116.285L55.087 117.323L43.4952 115.882L43.3757 115.855L31.6054 111.98C31.4525 111.936 31.3204 111.835 31.2502 111.691C31.1223 111.426 31.2544 111.117 31.5453 111L42.7855 106.476L32.9838 102.35C32.7881 102.277 32.6424 102.108 32.6263 101.903C32.6031 101.614 32.8417 101.362 33.1588 101.341L45.2122 100.487L34.5277 98.1273C34.351 98.0999 34.1904 97.9982 34.1059 97.8405C33.9667 97.5805 34.0857 97.2665 34.3718 97.1397L41.3136 94.0609L34.2927 92.3885C34.2314 92.376 34.1707 92.3534 34.1148 92.3213L30.2507 90.1021C30.1906 90.0664 30.1353 90.0212 30.0912 89.9647C29.9056 89.7309 29.9645 89.4036 30.2221 89.2353L36.7046 84.9976C36.7736 84.9476 36.8563 84.9113 36.9473 84.8941L47.6598 82.873L56.4358 79.2736L45.2699 76.8563C45.1141 76.8224 44.9743 76.7303 44.8927 76.5916C44.744 76.3358 44.8511 76.0181 45.1325 75.8825L50.2609 73.4045L37.1627 70.7576C37.0092 70.7315 36.867 70.6488 36.779 70.5185C36.6118 70.2728 36.6957 69.9504 36.9658 69.7986L40.486 67.8169L34.7044 64.202C34.639 64.1604 34.5813 64.1062 34.5373 64.0396C34.3742 63.7921 34.4641 63.4703 34.736 63.3222L38.1295 61.4706L35.0679 58.9951C34.9823 58.9303 34.9162 58.8417 34.8835 58.7369C34.7966 58.4585 34.9745 58.1681 35.2803 58.089L43.8213 55.8699L57.418 54.2469L38.3823 50.9718C38.1705 50.9349 37.9891 50.7909 37.9314 50.5886C37.8516 50.3096 38.0367 50.0235 38.3436 49.9509L48.2911 47.5782L35.9668 45.4294C35.7485 45.4008 35.5575 45.2592 35.4933 45.0533C35.4064 44.7749 35.5843 44.4845 35.8901 44.4054L53.8466 39.7631L35.7788 37.8486C35.6646 37.8355 35.5534 37.7926 35.4612 37.7177C35.225 37.5255 35.2047 37.1941 35.4159 36.9793L38.4942 33.8512L33.8281 29.9472C33.6324 29.7824 33.5824 29.5093 33.724 29.2934L36.0204 25.8135L34.0856 21.2283L35.1625 20.8547Z" fill="url(#paint1_linear_452_9252)"/>
<path d="M54.6455 20.6228C54.6621 20.6317 60.555 23.767 60.555 27.8965C60.555 30.4887 58.7202 31.0694 56.065 31.9095C54.3968 32.4378 52.3562 33.0838 50.3054 34.5289C47.7656 36.3191 42.6824 37.3377 37.9687 38.2818C32.9885 39.2789 28.4491 40.1892 28.4491 41.5748C28.4491 42.4981 28.3265 43.3388 28.2105 44.1414C27.9196 46.1493 27.6644 47.9115 29.7044 50.4031C31.2751 52.32 38.29 53.567 44.4554 54.6623C49.1054 55.4887 53.2979 56.2347 54.7198 57.2366C56.0799 58.1944 57.0811 59.3319 57.469 60.4005C57.6576 60.9175 57.7046 61.4262 57.5856 61.8968C57.4601 62.3935 57.1538 62.8463 56.6397 63.2235C56.1126 63.6114 55.3725 63.9154 54.3926 64.0992C53.1272 64.3378 51.3888 64.4557 49.5195 64.5806C45.321 64.862 40.405 65.1939 39.7291 66.9728C39.3264 68.0312 37.9848 69.0354 36.664 70.0236C35.4997 70.8946 34.3491 71.7549 34.0873 72.4766C33.7946 73.2815 34.8054 74.0651 38.7707 74.8136C40.5388 75.1473 42.1333 75.437 43.463 75.678C46.4026 76.211 48.0547 76.5108 49.3095 76.9005C50.9735 77.4157 51.8707 78.0477 53.9072 79.4838L54.0428 79.5796C56.3351 81.1949 55.8734 82.4752 54.3926 83.5645C53.4913 84.2273 52.1913 84.7848 50.9765 85.3047C50.0186 85.717 49.1149 86.1043 48.6068 86.4624C47.6799 87.1169 47.1064 87.738 47.3122 88.3609C47.5467 89.0683 48.6729 89.8833 51.1698 90.8995C53.9119 92.015 55.9543 92.9431 57.6345 93.9842C59.3431 95.0426 60.674 96.21 61.9674 97.7895C63.8278 100.06 62.8158 101.134 61.5539 102.475C60.981 103.082 60.3456 103.757 60.0047 104.655C59.5204 105.931 58.4061 106.643 57.3412 107.323C56.0561 108.145 54.8561 108.912 55.5896 110.843C57.2424 115.189 30.2518 117.318 30.175 117.324L30.0209 116.283C30.0929 116.278 55.3909 114.28 54.1886 111.117C53.2182 108.561 54.7436 107.586 56.3797 106.54C57.2852 105.962 58.2336 105.356 58.6036 104.38C59.0082 103.316 59.715 102.565 60.3528 101.889C61.3273 100.853 62.1078 100.023 60.7151 98.3225C59.5032 96.8435 58.2675 95.7566 56.6897 94.7791C55.0851 93.7856 53.1141 92.8902 50.4577 91.8098C47.5597 90.6306 46.2205 89.5889 45.8945 88.6025C45.5405 87.5328 46.3098 86.6178 47.5871 85.7164C48.2267 85.2661 49.2024 84.8472 50.2364 84.4045C51.3674 83.9214 52.5787 83.4033 53.3569 82.8304C54.2558 82.1694 54.5092 81.3722 53.0266 80.3275L52.891 80.2316C50.9914 78.893 50.1567 78.3046 48.7348 77.8644C47.5728 77.5038 45.9671 77.2123 43.1096 76.6941C41.8638 76.4681 40.3717 76.1974 38.4054 75.8261C33.3609 74.8736 32.1704 73.6171 32.6815 72.2136C33.0408 71.2242 34.3206 70.2676 35.6163 69.2978C36.811 68.4042 38.0247 67.4958 38.3281 66.698C39.2699 64.2201 44.7272 63.8524 49.3892 63.5395C51.1907 63.4187 52.8678 63.3056 54.0279 63.0866C54.7389 62.9528 55.2553 62.7469 55.6015 62.4917C55.9032 62.2698 56.0829 62.0033 56.1566 61.7123C56.2369 61.3952 56.1994 61.0382 56.0632 60.6634C55.7419 59.7787 54.8805 58.8144 53.7007 57.9827C52.5638 57.1813 48.5545 56.4685 44.1085 55.6785C37.6635 54.5338 30.3315 53.2302 28.4521 50.9361C26.1681 48.1477 26.4471 46.2248 26.7642 44.0343C26.8755 43.271 26.9915 42.4714 26.9915 41.5748C26.9915 39.3955 32.0419 38.3824 37.582 37.2729C42.1208 36.3638 47.0166 35.3821 49.2857 33.7829C51.5321 32.1998 53.7031 31.5126 55.4784 30.9504C57.6178 30.2733 59.0974 29.8045 59.0974 27.8965C59.0974 24.2936 53.7899 21.4671 53.7751 21.4593L54.6455 20.6228Z" fill="black" fill-opacity="0.5"/>
<path fill-rule="evenodd" clip-rule="evenodd" d="M5.33795 107.236L5.92581 107.156C5.99363 107.49 6.10725 107.731 6.26848 107.878C6.42971 108.025 6.62784 108.098 6.86284 108.098C7.14127 108.098 7.37624 108.002 7.56543 107.81C7.75463 107.619 7.84919 107.382 7.84919 107.099C7.84919 106.83 7.76119 106.607 7.58449 106.431C7.40839 106.256 7.18465 106.168 6.91216 106.168C6.80091 106.168 6.66232 106.19 6.49693 106.234L6.56235 105.72C6.60161 105.724 6.63373 105.726 6.65693 105.726C6.90859 105.726 7.1335 105.661 7.33519 105.53C7.53568 105.4 7.63562 105.2 7.63562 104.929C7.63562 104.714 7.56188 104.536 7.41612 104.395C7.27036 104.253 7.08233 104.183 6.85209 104.183C6.62244 104.183 6.43205 104.256 6.27975 104.4C6.12685 104.545 6.02931 104.762 5.98588 105.052L5.39809 104.944C5.47008 104.551 5.63246 104.244 5.88769 104.027C6.14173 103.811 6.45883 103.702 6.83721 103.702C7.0978 103.702 7.33818 103.758 7.55771 103.871C7.77843 103.982 7.94617 104.134 8.06219 104.327C8.17879 104.52 8.23712 104.726 8.23712 104.943C8.23712 105.149 8.1812 105.335 8.07113 105.505C7.95988 105.674 7.79508 105.809 7.57793 105.909C7.86052 105.974 8.08006 106.109 8.23712 106.315C8.393 106.52 8.47092 106.779 8.47092 107.087C8.47092 107.504 8.31804 107.86 8.01402 108.15C7.70941 108.44 7.3239 108.585 6.85865 108.585C6.43863 108.585 6.09057 108.459 5.81333 108.209C5.53489 107.958 5.37663 107.635 5.33795 107.236ZM8.41741 36.4104V36.9714H5.2511C5.24634 36.8298 5.26955 36.6941 5.32012 36.5626C5.40103 36.3479 5.53135 36.1355 5.71043 35.9273C5.8901 35.719 6.14592 35.4788 6.47909 35.2057C6.99669 34.7791 7.34831 34.4417 7.53214 34.1924C7.71717 33.9431 7.80934 33.7069 7.80934 33.4844C7.80934 33.2518 7.72605 33.0561 7.55887 32.8955C7.39169 32.7361 7.17339 32.6563 6.90508 32.6563C6.62129 32.6563 6.39401 32.7407 6.22386 32.9097C6.0537 33.0781 5.96804 33.3119 5.96566 33.6112L5.36416 33.5511C5.4058 33.1013 5.56165 32.7586 5.83116 32.5224C6.10126 32.2862 6.46301 32.1685 6.91873 32.1685C7.37743 32.1685 7.74155 32.2952 8.00868 32.5504C8.27699 32.805 8.41026 33.1215 8.41026 33.4975C8.41026 33.6891 8.37156 33.8777 8.29243 34.0622C8.2145 34.2484 8.08422 34.4429 7.90276 34.6481C7.72012 34.8516 7.41848 35.1331 6.99786 35.4894C6.64506 35.7857 6.41777 35.9861 6.31722 36.092C6.21727 36.1973 6.13458 36.3033 6.06914 36.4104H8.41741ZM9.05337 34.6113C9.05337 34.0467 9.11107 33.5903 9.22708 33.2453C9.34369 32.899 9.51627 32.6325 9.74591 32.4469C9.97377 32.2607 10.2623 32.1685 10.6097 32.1685C10.8656 32.1685 11.0905 32.2196 11.2856 32.3231C11.479 32.4266 11.6396 32.5759 11.7639 32.7705C11.8889 32.9644 11.987 33.2019 12.0578 33.4809C12.1304 33.7605 12.1661 34.1377 12.1661 34.6113C12.1661 35.1723 12.1084 35.6262 11.9936 35.9719C11.8787 36.3181 11.7062 36.5841 11.4766 36.7709C11.2487 36.9583 10.959 37.0517 10.6097 37.0517C10.1498 37.0517 9.78816 36.8881 9.52519 36.5597C9.20987 36.1588 9.05337 35.5097 9.05337 34.6113ZM9.65429 34.6136C9.65429 35.4007 9.74586 35.9237 9.9291 36.1819C10.1129 36.4413 10.3402 36.5704 10.6097 36.5704C10.8792 36.5704 11.1059 36.4401 11.2897 36.1807C11.4736 35.9201 11.5646 35.3984 11.5646 34.6136C11.5646 33.8259 11.4736 33.303 11.2897 33.0448C11.1071 32.7854 10.878 32.6563 10.6026 32.6563C10.3337 32.6563 10.1177 32.7705 9.95589 32.9989C9.7548 33.2899 9.65429 33.8283 9.65429 34.6136ZM12.7688 34.6113C12.7688 34.0467 12.8265 33.5903 12.9425 33.2453C13.0591 32.899 13.2316 32.6325 13.4613 32.4469C13.6891 32.2607 13.9777 32.1685 14.3251 32.1685C14.581 32.1685 14.8058 32.2196 15.001 32.3231C15.1943 32.4266 15.355 32.5759 15.4793 32.7705C15.6042 32.9644 15.7024 33.2019 15.7732 33.4809C15.8458 33.7605 15.8815 34.1377 15.8815 34.6113C15.8815 35.1723 15.8238 35.6262 15.709 35.9719C15.5941 36.3181 15.4216 36.5841 15.192 36.7709C14.9641 36.9583 14.6744 37.0517 14.3251 37.0517C13.8653 37.0517 13.5035 36.8881 13.2405 36.5597C12.9252 36.1588 12.7688 35.5097 12.7688 34.6113ZM13.3696 34.6136C13.3696 35.4007 13.4613 35.9237 13.6445 36.1819C13.8283 36.4413 14.0556 36.5704 14.3251 36.5704C14.5947 36.5704 14.8213 36.4401 15.0051 36.1807C15.189 35.9201 15.28 35.3984 15.28 34.6136C15.28 33.8259 15.189 33.303 15.0051 33.0448C14.8225 32.7854 14.5935 32.6563 14.318 32.6563C14.0491 32.6563 13.8331 32.7705 13.6713 32.9989C13.4702 33.2899 13.3696 33.8283 13.3696 34.6136ZM16.4842 34.6113C16.4842 34.0467 16.5419 33.5903 16.6579 33.2453C16.7745 32.899 16.947 32.6325 17.1767 32.4469C17.4045 32.2607 17.6931 32.1685 18.0406 32.1685C18.2964 32.1685 18.5212 32.2196 18.7164 32.3231C18.9097 32.4266 19.0704 32.5759 19.1947 32.7705C19.3196 32.9644 19.4178 33.2019 19.4886 33.4809C19.5612 33.7605 19.5969 34.1377 19.5969 34.6113C19.5969 35.1723 19.5392 35.6262 19.4244 35.9719C19.3096 36.3181 19.137 36.5841 18.9073 36.7709C18.6795 36.9583 18.3898 37.0517 18.0406 37.0517C17.5807 37.0517 17.2189 36.8881 16.956 36.5597C16.6406 36.1588 16.4842 35.5097 16.4842 34.6113ZM17.0851 34.6136C17.0851 35.4007 17.1767 35.9237 17.3599 36.1819C17.5438 36.4413 17.7711 36.5704 18.0406 36.5704C18.3101 36.5704 18.5367 36.4401 18.7206 36.1807C18.9044 35.9201 18.9954 35.3984 18.9954 34.6136C18.9954 33.8259 18.9044 33.303 18.7206 33.0448C18.5379 32.7854 18.3089 32.6563 18.0334 32.6563C17.7645 32.6563 17.5485 32.7705 17.3867 32.9989C17.1856 33.2899 17.0851 33.8283 17.0851 34.6136ZM8.41741 60.255V60.816H5.2511C5.24634 60.6744 5.26955 60.5388 5.32012 60.4073C5.40103 60.1925 5.53135 59.9802 5.71043 59.7719C5.8901 59.5637 6.14592 59.3233 6.47909 59.0502C6.99669 58.6236 7.34831 58.2863 7.53214 58.0371C7.71717 57.7878 7.80934 57.5516 7.80934 57.3291C7.80934 57.0964 7.72605 56.9007 7.55887 56.7401C7.39169 56.5806 7.17339 56.5009 6.90508 56.5009C6.62129 56.5009 6.39401 56.5854 6.22386 56.7543C6.0537 56.9227 5.96804 57.1565 5.96566 57.4557L5.36416 57.3956C5.4058 56.9459 5.56165 56.6032 5.83116 56.3671C6.10126 56.1309 6.46301 56.013 6.91873 56.013C7.37743 56.013 7.74155 56.1397 8.00868 56.3949C8.27699 56.6496 8.41026 56.9661 8.41026 57.3421C8.41026 57.5336 8.37156 57.7223 8.29243 57.9067C8.2145 58.0929 8.08422 58.2875 7.90276 58.4928C7.72012 58.6963 7.41848 58.9776 6.99786 59.334C6.64506 59.6302 6.41777 59.8308 6.31722 59.9367C6.21727 60.042 6.13458 60.1479 6.06914 60.255H8.41741ZM9.05337 59.5601L9.66794 59.5136C9.71316 59.8129 9.81909 60.0378 9.98389 60.189C10.1487 60.3395 10.3504 60.415 10.5871 60.415C10.8733 60.415 11.1131 60.3085 11.3076 60.0955C11.5016 59.882 11.598 59.5994 11.598 59.2472C11.598 58.9122 11.5057 58.6486 11.3201 58.4547C11.1339 58.2607 10.8882 58.1637 10.5818 58.1637C10.3914 58.1637 10.2212 58.2071 10.0695 58.294C9.91901 58.3808 9.80123 58.4934 9.71436 58.6314L9.15986 58.5516L9.62094 56.0934H11.9924V56.6544H10.0897L9.83452 57.9448C10.1207 57.7431 10.4212 57.6432 10.7353 57.6432C11.1517 57.6432 11.5033 57.7878 11.7895 58.0775C12.0757 58.3666 12.2196 58.7385 12.2196 59.193C12.2196 59.6261 12.0935 59.9997 11.8419 60.315C11.5361 60.7023 11.1172 60.8963 10.5871 60.8963C10.1528 60.8963 9.79884 60.7737 9.52397 60.5298C9.24911 60.2858 9.09204 59.9635 9.05337 59.5601ZM12.7688 58.4558C12.7688 57.8913 12.8265 57.435 12.9425 57.0899C13.0591 56.7437 13.2316 56.4771 13.4613 56.2915C13.6891 56.1053 13.9777 56.013 14.3251 56.013C14.581 56.013 14.8058 56.0643 15.001 56.1678C15.1943 56.2713 15.355 56.4206 15.4793 56.6151C15.6042 56.8091 15.7024 57.0464 15.7732 57.3255C15.8458 57.6051 15.8815 57.9823 15.8815 58.4558C15.8815 59.0169 15.8238 59.4709 15.709 59.8165C15.5941 60.1628 15.4216 60.4287 15.192 60.6155C14.9641 60.8029 14.6744 60.8963 14.3251 60.8963C13.8653 60.8963 13.5035 60.7327 13.2405 60.4043C12.9252 60.0033 12.7688 59.3542 12.7688 58.4558ZM13.3696 58.4583C13.3696 59.2454 13.4613 59.7683 13.6445 60.0265C13.8283 60.2859 14.0556 60.415 14.3251 60.415C14.5947 60.415 14.8213 60.2847 15.0051 60.0254C15.189 59.7648 15.28 59.243 15.28 58.4583C15.28 57.6706 15.189 57.1476 15.0051 56.8894C14.8225 56.63 14.5935 56.5009 14.318 56.5009C14.0491 56.5009 13.8331 56.6151 13.6713 56.8436C13.4702 57.1345 13.3696 57.673 13.3696 58.4583ZM16.4842 58.4558C16.4842 57.8913 16.5419 57.435 16.6579 57.0899C16.7745 56.7437 16.947 56.4771 17.1767 56.2915C17.4045 56.1053 17.6931 56.013 18.0406 56.013C18.2964 56.013 18.5212 56.0643 18.7164 56.1678C18.9097 56.2713 19.0704 56.4206 19.1947 56.6151C19.3196 56.8091 19.4178 57.0464 19.4886 57.3255C19.5612 57.6051 19.5969 57.9823 19.5969 58.4558C19.5969 59.0169 19.5392 59.4709 19.4244 59.8165C19.3096 60.1628 19.137 60.4287 18.9073 60.6155C18.6795 60.8029 18.3898 60.8963 18.0406 60.8963C17.5807 60.8963 17.2189 60.7327 16.956 60.4043C16.6406 60.0033 16.4842 59.3542 16.4842 58.4558ZM17.0851 58.4583C17.0851 59.2454 17.1767 59.7683 17.3599 60.0265C17.5438 60.2859 17.7711 60.415 18.0406 60.415C18.3101 60.415 18.5367 60.2847 18.7206 60.0254C18.9044 59.7648 18.9954 59.243 18.9954 58.4583C18.9954 57.6706 18.9044 57.1476 18.7206 56.8894C18.5379 56.63 18.3089 56.5009 18.0334 56.5009C17.7645 56.5009 17.5485 56.6151 17.3867 56.8436C17.1856 57.1345 17.0851 57.673 17.0851 58.4583ZM5.33795 83.3916L5.92581 83.3112C5.99363 83.645 6.10725 83.886 6.26848 84.0329C6.42971 84.1799 6.62784 84.253 6.86284 84.253C7.14127 84.253 7.37624 84.1572 7.56543 83.9656C7.75463 83.7741 7.84919 83.5373 7.84919 83.2547C7.84919 82.9852 7.76119 82.7621 7.58449 82.5866C7.40839 82.4117 7.18465 82.3236 6.91216 82.3236C6.80091 82.3236 6.66232 82.3456 6.49693 82.389L6.56235 81.8751C6.60161 81.8793 6.63373 81.8816 6.65693 81.8816C6.90859 81.8816 7.1335 81.8162 7.33519 81.6859C7.53568 81.5556 7.63562 81.3551 7.63562 81.0844C7.63562 80.8696 7.56188 80.6918 7.41612 80.5502C7.27036 80.4086 7.08233 80.3384 6.85209 80.3384C6.62244 80.3384 6.43205 80.411 6.27975 80.5555C6.12685 80.7007 6.02931 80.9178 5.98588 81.207L5.39809 81.0998C5.47008 80.706 5.63246 80.3996 5.88769 80.1824C6.14173 79.9659 6.45883 79.8577 6.83721 79.8577C7.0978 79.8577 7.33818 79.9136 7.55771 80.026C7.77843 80.1373 7.94617 80.2896 8.06219 80.4823C8.17879 80.6757 8.23712 80.8809 8.23712 81.0981C8.23712 81.3039 8.1812 81.4907 8.07113 81.6602C7.95988 81.8292 7.79508 81.9643 7.57793 82.0643C7.86052 82.1291 8.08006 82.2648 8.23712 82.4706C8.393 82.6753 8.47092 82.9341 8.47092 83.2423C8.47092 83.6599 8.31804 84.0151 8.01402 84.3054C7.70941 84.5957 7.3239 84.7409 6.85865 84.7409C6.43863 84.7409 6.09057 84.6148 5.81333 84.3643C5.53489 84.1138 5.37663 83.7902 5.33795 83.3916ZM9.05337 82.3005C9.05337 81.7359 9.11107 81.2795 9.22708 80.9345C9.34369 80.5882 9.51627 80.3217 9.74591 80.1361C9.97377 79.9498 10.2623 79.8577 10.6097 79.8577C10.8656 79.8577 11.0905 79.9088 11.2856 80.0123C11.479 80.1158 11.6396 80.2651 11.7639 80.4597C11.8889 80.6536 11.987 80.8911 12.0578 81.1701C12.1304 81.4497 12.1661 81.8269 12.1661 82.3005C12.1661 82.8615 12.1084 83.3154 11.9936 83.6611C11.8787 84.0073 11.7062 84.2733 11.4766 84.4601C11.2487 84.6475 10.959 84.7409 10.6097 84.7409C10.1498 84.7409 9.78816 84.5773 9.52519 84.2489C9.20987 83.8479 9.05337 83.1989 9.05337 82.3005ZM9.65429 82.3028C9.65429 83.0899 9.74586 83.6128 9.9291 83.871C10.1129 84.1304 10.3402 84.2596 10.6097 84.2596C10.8792 84.2596 11.1059 84.1293 11.2897 83.8699C11.4736 83.6093 11.5646 83.0876 11.5646 82.3028C11.5646 81.5151 11.4736 80.9922 11.2897 80.734C11.1071 80.4746 10.878 80.3455 10.6026 80.3455C10.3337 80.3455 10.1177 80.4597 9.95589 80.6881C9.7548 80.979 9.65429 81.5175 9.65429 82.3028ZM12.7688 82.3005C12.7688 81.7359 12.8265 81.2795 12.9425 80.9345C13.0591 80.5882 13.2316 80.3217 13.4613 80.1361C13.6891 79.9498 13.9777 79.8577 14.3251 79.8577C14.581 79.8577 14.8058 79.9088 15.001 80.0123C15.1943 80.1158 15.355 80.2651 15.4793 80.4597C15.6042 80.6536 15.7024 80.8911 15.7732 81.1701C15.8458 81.4497 15.8815 81.8269 15.8815 82.3005C15.8815 82.8615 15.8238 83.3154 15.709 83.6611C15.5941 84.0073 15.4216 84.2733 15.192 84.4601C14.9641 84.6475 14.6744 84.7409 14.3251 84.7409C13.8653 84.7409 13.5035 84.5773 13.2405 84.2489C12.9252 83.8479 12.7688 83.1989 12.7688 82.3005ZM13.3696 82.3028C13.3696 83.0899 13.4613 83.6128 13.6445 83.871C13.8283 84.1304 14.0556 84.2596 14.3251 84.2596C14.5947 84.2596 14.8213 84.1293 15.0051 83.8699C15.189 83.6093 15.28 83.0876 15.28 82.3028C15.28 81.5151 15.189 80.9922 15.0051 80.734C14.8225 80.4746 14.5935 80.3455 14.318 80.3455C14.0491 80.3455 13.8331 80.4597 13.6713 80.6881C13.4702 80.979 13.3696 81.5175 13.3696 82.3028ZM16.4842 82.3005C16.4842 81.7359 16.5419 81.2795 16.6579 80.9345C16.7745 80.5882 16.947 80.3217 17.1767 80.1361C17.4045 79.9498 17.6931 79.8577 18.0406 79.8577C18.2964 79.8577 18.5212 79.9088 18.7164 80.0123C18.9097 80.1158 19.0704 80.2651 19.1947 80.4597C19.3196 80.6536 19.4178 80.8911 19.4886 81.1701C19.5612 81.4497 19.5969 81.8269 19.5969 82.3005C19.5969 82.8615 19.5392 83.3154 19.4244 83.6611C19.3096 84.0073 19.137 84.2733 18.9073 84.4601C18.6795 84.6475 18.3898 84.7409 18.0406 84.7409C17.5807 84.7409 17.2189 84.5773 16.956 84.2489C16.6406 83.8479 16.4842 83.1989 16.4842 82.3005ZM17.0851 82.3028C17.0851 83.0899 17.1767 83.6128 17.3599 83.871C17.5438 84.1304 17.7711 84.2596 18.0406 84.2596C18.3101 84.2596 18.5367 84.1293 18.7206 83.8699C18.9044 83.6093 18.9954 83.0876 18.9954 82.3028C18.9954 81.5151 18.9044 80.9922 18.7206 80.734C18.5379 80.4746 18.3089 80.3455 18.0334 80.3455C17.7645 80.3455 17.5485 80.4597 17.3867 80.6881C17.1856 80.979 17.0851 81.5175 17.0851 82.3028ZM9.05337 107.249L9.66794 107.203C9.71316 107.502 9.81909 107.727 9.98389 107.878C10.1487 108.029 10.3504 108.104 10.5871 108.104C10.8733 108.104 11.1131 107.998 11.3076 107.785C11.5016 107.571 11.598 107.289 11.598 106.936C11.598 106.601 11.5057 106.338 11.3201 106.144C11.1339 105.95 10.8882 105.853 10.5818 105.853C10.3914 105.853 10.2212 105.896 10.0695 105.983C9.91901 106.07 9.80123 106.182 9.71436 106.32C9.6275 106.459 9.15986 106.241 9.15986 106.241L9.62094 103.783H11.9924V104.344H10.0897L9.83452 105.634C10.1207 105.432 10.4212 105.332 10.7353 105.332C11.1517 105.332 11.5033 105.477 11.7895 105.767C12.0757 106.056 12.2196 106.428 12.2196 106.882C12.2196 107.315 12.0935 107.689 11.8419 108.004C11.5361 108.392 11.1172 108.585 10.5871 108.585C10.1528 108.585 9.79884 108.463 9.52397 108.219C9.24911 107.975 9.09204 107.653 9.05337 107.249ZM12.7688 106.145C12.7688 105.58 12.8265 105.124 12.9425 104.779C13.0591 104.433 13.2316 104.166 13.4613 103.981C13.6891 103.794 13.9777 103.702 14.3251 103.702C14.581 103.702 14.8058 103.753 15.001 103.857C15.1943 103.96 15.355 104.11 15.4793 104.304C15.6042 104.498 15.7024 104.736 15.7732 105.015C15.8458 105.294 15.8815 105.671 15.8815 106.145C15.8815 106.706 15.8238 107.16 15.709 107.506C15.5941 107.852 15.4216 108.118 15.192 108.305C14.9641 108.492 14.6744 108.585 14.3251 108.585C13.8653 108.585 13.5035 108.422 13.2405 108.093C12.9252 107.692 12.7688 107.043 12.7688 106.145ZM13.3696 106.147C13.3696 106.935 13.4613 107.457 13.6445 107.716C13.8283 107.975 14.0556 108.104 14.3251 108.104C14.5947 108.104 14.8213 107.974 15.0051 107.715C15.189 107.454 15.28 106.932 15.28 106.147C15.28 105.36 15.189 104.837 15.0051 104.579C14.8225 104.319 14.5935 104.19 14.318 104.19C14.0491 104.19 13.8331 104.304 13.6713 104.533C13.4702 104.824 13.3696 105.362 13.3696 106.147ZM16.4842 106.145C16.4842 105.58 16.5419 105.124 16.6579 104.779C16.7745 104.433 16.947 104.166 17.1767 103.981C17.4045 103.794 17.6931 103.702 18.0406 103.702C18.2964 103.702 18.5212 103.753 18.7164 103.857C18.9097 103.96 19.0704 104.11 19.1947 104.304C19.3196 104.498 19.4178 104.736 19.4886 105.015C19.5612 105.294 19.5969 105.671 19.5969 106.145C19.5969 106.706 19.5392 107.16 19.4244 107.506C19.3096 107.852 19.137 108.118 18.9073 108.305C18.6795 108.492 18.3898 108.585 18.0406 108.585C17.5807 108.585 17.2189 108.422 16.956 108.093C16.6406 107.692 16.4842 107.043 16.4842 106.145ZM17.0851 106.147C17.0851 106.935 17.1767 107.457 17.3599 107.716C17.5438 107.975 17.7711 108.104 18.0406 108.104C18.3101 108.104 18.5367 107.974 18.7206 107.715C18.9044 107.454 18.9954 106.932 18.9954 106.147C18.9954 105.36 18.9044 104.837 18.7206 104.579C18.5379 104.319 18.3089 104.19 18.0334 104.19C17.7645 104.19 17.5485 104.304 17.3867 104.533C17.1856 104.824 17.0851 105.362 17.0851 106.147Z" fill="black"/>
<path d="M73.4457 26.9703C72.9751 24.725 72.9352 22.3733 72.9352 21.0413H71.8857C71.8857 22.4096 71.9274 24.8279 72.4212 27.1833C72.9299 29.6095 73.924 31.9607 75.8492 33.0721C77.5942 34.0793 83.0712 34.9587 88.879 35.8904C95.3341 36.9255 102.207 38.0286 104.516 39.3606C106.631 40.5815 107.664 41.6707 107.899 42.6845C108.119 43.6311 107.607 44.5835 106.625 45.567C106.049 46.1439 105.345 46.7008 104.654 47.2475L104.651 47.2495C102.532 48.9255 100.502 50.5341 101.735 52.67C101.762 52.717 101.593 52.6611 101.411 52.7664C99.9098 53.6333 95.3091 54.569 90.4497 55.5572C83.5424 56.9618 76.1229 58.4719 75.6035 60.412C75.1252 62.1998 75.8867 63.818 77.095 65.1727C78.2391 66.4554 79.7967 67.5024 81.0276 68.2128C81.751 68.6304 82.9974 69.0981 84.417 69.6294C87.7272 70.8692 92.0458 72.4875 92.0458 74.2336C92.0458 76.5783 91.602 76.8322 88.0514 78.8538L86.5742 79.6993C85.7062 80.2002 84.6966 80.7452 83.6495 81.3092C80.6391 82.9322 77.3068 84.7295 75.5672 86.4691C74.1745 87.8618 73.7247 89.2368 74.9985 90.5106C76.5971 92.1092 80.701 93.2503 84.737 94.3724C88.5101 95.4212 92.225 96.4545 93.494 97.7235C94.7374 98.967 96.5252 99.6548 98.3713 100.364C100.743 101.275 103.224 102.229 104.509 104.458C104.873 105.088 105.032 105.636 105.032 106.109C105.032 106.539 104.896 106.914 104.664 107.235C104.414 107.582 104.049 107.879 103.613 108.13C102.275 108.903 100.321 109.22 98.8585 109.22C96.9184 109.22 91.8484 109.765 88.1794 110.833C85.6402 111.572 83.7227 112.61 83.7227 113.998C83.7227 115.211 87.3012 116.804 87.3012 116.804H89.7058C88.892 116.402 84.7721 114.904 84.7721 113.998C84.7721 113.193 86.3642 112.451 88.4709 111.837C92.0375 110.799 96.9702 110.27 98.8585 110.27C100.462 110.27 102.622 109.911 104.137 109.035C104.694 108.713 105.17 108.319 105.512 107.846C105.872 107.349 106.082 106.771 106.082 106.109C106.082 105.461 105.878 104.736 105.414 103.934C103.942 101.386 101.285 100.365 98.7449 99.3882C97.0106 98.7219 95.3311 98.0758 94.2364 96.9811C92.777 95.5218 88.9266 94.4508 85.0154 93.3633C81.115 92.2787 77.1486 91.1757 75.7409 89.7681C75.0115 89.0387 75.3655 88.1557 76.3097 87.2116C77.9475 85.5737 81.2043 83.8175 84.1457 82.2314C85.1904 81.6686 86.1982 81.1248 87.0989 80.6048L88.5678 79.7641C92.592 77.4724 93.0953 77.1857 93.0953 74.2336C93.0953 71.7652 88.3888 70.0012 84.7822 68.65C83.4049 68.1348 82.1966 67.6809 81.5488 67.3072C80.3946 66.6415 78.937 65.6629 77.878 64.4754C76.8832 63.3598 76.2478 62.0581 76.6161 60.682C76.9683 59.3666 84.0588 57.9239 90.6591 56.5817C95.6054 55.5763 100.288 54.6232 101.936 53.6718C102.697 53.2316 102.976 52.7301 102.641 52.1488C101.858 50.7924 103.542 49.4591 105.299 48.0693C106.022 47.4976 106.757 46.9158 107.368 46.3071C108.605 45.0697 109.237 43.8066 108.92 42.4465C108.618 41.1531 107.429 39.836 105.039 38.4551C102.566 37.0267 95.5923 35.9075 89.0432 34.8575C83.3324 33.9418 77.947 33.0763 76.3704 32.1666C74.7599 31.2373 73.902 29.1472 73.4457 26.9703Z" fill="black"/>
<path d="M116.804 116.826V1.02344C116.798 1.02327 1 1 1 1V116.826H116.804ZM117.804 117.826H0V1.48962e-10H1V1C1.0002 0 1.00195 1.48962e-10 1.00195 1.48962e-10H2.30078C3.14885 0.000170446 4.39263 0.00065833 5.97559 0.000976563C9.14195 0.00161312 13.6657 0.00281425 19.0938 0.00390625C29.9499 0.00609024 44.4253 0.00879968 58.9004 0.0117188C87.8299 0.0175527 116.812 0.0227125 116.835 0.0234375L117.804 0.0537109V117.826Z" fill="black"/>
<defs>
<linearGradient id="paint0_linear_452_9252" x1="106.277" y1="11.0205" x2="72.2461" y2="11.0205" gradientUnits="userSpaceOnUse">
<stop stop-color="#00C7D4"/>
<stop offset="1" stop-color="#02E7BD"/>
</linearGradient>
<linearGradient id="paint1_linear_452_9252" x1="61.6365" y1="69.0889" x2="29.9829" y2="69.0889" gradientUnits="userSpaceOnUse">
<stop stop-color="#00C7D4"/>
<stop offset="1" stop-color="#02E7BD"/>
</linearGradient>
</defs>
</svg>
