<svg width="120" height="120" viewBox="0 0 120 120" fill="none" xmlns="http://www.w3.org/2000/svg">
<path d="M106.419 2.09814H13.5816C7.2397 2.09814 2.09863 7.23922 2.09863 13.5811V106.418C2.09863 112.76 7.2397 117.901 13.5816 117.901H106.419C112.761 117.901 117.902 112.76 117.902 106.418V13.5811C117.902 7.23922 112.761 2.09814 106.419 2.09814Z" fill="url(#paint0_linear_236_2961)"/>
<path fill-rule="evenodd" clip-rule="evenodd" d="M2.52816 95.5912C14.5721 95.4657 37.8617 95.192 41.9519 94.9183C47.5146 94.5453 73.6139 93.8009 81.316 93.8009C89.0181 93.8009 95.1686 91.6812 107.417 93.4285C111.306 93.9836 114.709 94.6744 117.544 95.358C117.778 94.5673 117.902 93.7397 117.902 92.8871V12.0913C117.902 6.59468 112.735 2.09814 106.42 2.09814H13.581C7.26569 2.09814 2.09863 6.59468 2.09863 12.0913V92.8871C2.09863 93.8236 2.24854 94.7309 2.52816 95.5912Z" fill="black" fill-opacity="0.2"/>
<path fill-rule="evenodd" clip-rule="evenodd" d="M2.09863 89.487C14.9345 88.453 40.7929 86.4481 44.9468 86.7259C50.5095 87.0983 65.9131 88.5875 71.0474 88.9599C76.1817 89.3324 89.8737 85.6086 96.2919 85.6086C100.423 85.6086 110.934 86.9973 117.902 87.9867V12.0913C117.902 6.59468 112.735 2.09814 106.42 2.09814H13.581C7.26569 2.09814 2.09863 6.59468 2.09863 12.0913V89.487Z" fill="black" fill-opacity="0.2"/>
<path fill-rule="evenodd" clip-rule="evenodd" d="M2.09863 84.0595C14.85 82.9493 38.9165 81.0003 46.4032 81.4078C56.7557 81.9712 72.2849 83.3788 72.2849 83.3788C72.2849 83.3788 84.9023 81.1264 92.6669 80.2816C98.7972 79.6147 110.976 80.3529 117.902 81.5238V12.0913C117.902 6.59468 112.735 2.09814 106.42 2.09814H13.581C7.26569 2.09814 2.09863 6.59468 2.09863 12.0913V84.0595Z" fill="black" fill-opacity="0.2"/>
<path fill-rule="evenodd" clip-rule="evenodd" d="M13.0566 2.09814H105.895C112.21 2.09814 117.377 6.59468 117.377 12.0913V71.6056C109.812 71.2802 97.2001 70.6393 94.0838 69.8641C89.5545 68.7379 75.3194 66.2041 68.2021 63.9511C61.0849 61.6986 42.6435 63.3882 33.9086 63.6702C28.0473 63.8594 11.6977 67.4719 1.57422 69.8273V12.0913C1.57422 6.59468 6.74127 2.09814 13.0566 2.09814Z" fill="black" fill-opacity="0.2"/>
<path fill-rule="evenodd" clip-rule="evenodd" d="M2.09863 63.0736C10.6521 60.8616 24.0728 57.6923 34.433 56.6309C50.9325 54.9419 58.3728 54.9419 69.0496 56.9129C79.7264 58.8834 91.0499 63.9511 99.4611 64.2331C105.731 64.4425 114.064 64.3396 117.902 64.2741V12.0913C117.902 6.59468 112.735 2.09814 106.42 2.09814H13.581C7.26569 2.09814 2.09863 6.59468 2.09863 12.0913V63.0736Z" fill="black" fill-opacity="0.2"/>
<path fill-rule="evenodd" clip-rule="evenodd" d="M2.09863 41.4731C9.3093 41.9609 18.8795 42.5737 24.0799 42.7593C33.1384 43.083 43.1679 42.4356 55.4618 43.7296C67.7556 45.0236 74.2262 44.0527 86.52 45.0236C98.8139 45.9946 101.569 47.2886 110.785 47.2886C113.321 47.2886 115.735 47.4355 117.902 47.6485V13.5805C117.902 7.2652 112.735 2.09814 106.42 2.09814H13.581C7.26569 2.09814 2.09863 7.2652 2.09863 13.5805V41.4731Z" fill="black" fill-opacity="0.2"/>
<path fill-rule="evenodd" clip-rule="evenodd" d="M13.581 2.09814H106.42C112.735 2.09814 117.902 7.2652 117.902 13.5805V31.0592C112.994 30.6767 105.745 30.0859 101.402 29.1715C95.2555 27.8775 85.5496 27.8769 78.7554 28.5242C71.9612 29.1715 61.285 34.6711 56.4321 34.9947C51.5792 35.3184 31.1977 34.3475 23.1095 34.0238C18.4393 33.837 9.13201 34.1898 2.09863 34.5211V13.5805C2.09863 7.2652 7.26569 2.09814 13.581 2.09814Z" fill="black" fill-opacity="0.2"/>
<path fill-rule="evenodd" clip-rule="evenodd" d="M13.581 2.09814H106.42C112.735 2.09814 117.902 7.2652 117.902 13.5805V19.9344C109.075 20.812 93.8282 21.1523 90.7256 20.4359C86.5194 19.465 78.4318 19.7893 75.5201 21.4069C72.6085 23.0245 51.9028 25.6126 46.0796 25.6126C41.677 25.6126 14.9023 26.167 2.09863 26.4377V13.5805C2.09863 7.2652 7.26569 2.09814 13.581 2.09814Z" fill="black" fill-opacity="0.2"/>
<path d="M25.5191 2.09814H19.8999V95.3062H25.5191V2.09814Z" fill="black"/>
<path fill-rule="evenodd" clip-rule="evenodd" d="M20.8721 95.3062V2.09814H24.5494C24.5494 33.1677 24.5494 64.2366 24.5494 95.3062C24.5494 98.2987 27.9465 103.182 30.8849 103.182H110.996V106.859C81.7451 106.859 59.401 106.859 30.1502 106.859C25.7726 106.859 20.8721 100.902 20.8721 95.3062Z" fill="white"/>
<path fill-rule="evenodd" clip-rule="evenodd" d="M13.9972 0H106.003C109.854 0 113.355 1.57481 115.89 4.10985C118.425 6.64489 120 10.1455 120 13.9972V106.003C120 109.855 118.425 113.355 115.89 115.89C113.355 118.425 109.854 120 106.003 120H13.9972C10.1455 120 6.64489 118.425 4.10985 115.89C1.57481 113.355 0 109.855 0 106.003V13.9972C0 10.1455 1.57481 6.64489 4.10985 4.10985C6.64489 1.57481 10.1455 0 13.9972 0ZM13.9972 2.09838H106.003C112.547 2.09838 117.902 7.45284 117.902 13.9972V106.003C117.902 112.547 112.547 117.902 106.003 117.902H13.9972C7.45284 117.902 2.09838 112.547 2.09838 106.003V13.9972C2.09838 7.45284 7.45284 2.09838 13.9972 2.09838Z" fill="#2B2A29"/>
<defs>
<linearGradient id="paint0_linear_236_2961" x1="117.902" y1="59.9998" x2="2.09863" y2="59.9998" gradientUnits="userSpaceOnUse">
<stop stop-color="#00C7D4"/>
<stop offset="1" stop-color="#02E7BD"/>
</linearGradient>
</defs>
</svg>
