<svg width="118" height="118" viewBox="0 0 118 118" fill="none" xmlns="http://www.w3.org/2000/svg">
<path fill-rule="evenodd" clip-rule="evenodd" d="M0 1H117V117H0V1Z" fill="white"/>
<path fill-rule="evenodd" clip-rule="evenodd" d="M70.9767 47.9165H76.9261V52.557C78.4567 52.6992 79.9518 52.8878 81.4086 53.1222C88.3779 54.2449 94.4761 56.417 100.275 57.7205C105.446 58.8836 112.162 59.3548 117.071 59.751V72.7713C109.204 71.3036 99.4823 69.8406 93.6871 68.4389C87.3981 66.9183 83.3686 65.4696 78.0876 64.8175C77.7072 64.7711 77.3203 64.7283 76.9261 64.6896V74.0052C78.8718 74.3788 80.8307 74.8315 82.8227 75.3509C86.2479 76.2433 89.7693 77.3333 93.1303 78.4286C93.7711 74.1331 87.3652 72.387 82.4531 71.25C82.2551 71.4963 82.0577 71.7427 81.8609 71.9884L78.7842 69.6074L83.4605 69.9953L82.8923 70.7033C88.4595 71.7426 95.0629 74.1248 94.1329 78.757C96.8532 79.6517 99.4499 80.5376 101.784 81.3111C101.915 80.5216 101.924 79.8403 101.995 79.196C101.516 79.1966 101.037 79.1966 100.558 79.1978L102.503 76.2701L104.438 79.1943L103.06 79.1949C103.004 79.8416 103.107 80.5894 102.884 81.6734C103.8 81.9726 104.667 82.2499 105.478 82.4986C109.768 83.8152 114.814 84.2375 117.071 84.6397V97.8902C111.493 96.504 104.787 95.0886 98.8907 93.2164C96.2076 92.365 93.4621 91.4179 90.6932 90.4844C85.756 91.4607 80.2332 91.8879 76.9261 91.8879V94.0987C93.7597 94.0987 76.2799 94.1647 93.5983 94.0987L93.6433 93.2973L97.9769 94.5282L93.5155 95.5551C93.5311 95.2761 93.5473 94.997 93.5629 94.7186C73.2146 94.7947 98.0832 94.74 76.9261 94.6675V95.5807C79.638 95.7401 82.3031 96.0887 84.895 96.6718C84.9976 96.695 85.0996 96.7188 85.2016 96.7426C88.4673 97.1335 92.0768 97.8278 96.3864 99.0182C104.595 101.286 105.859 101.676 107.351 102.523L108.18 101.941L110.214 104.767L105.844 103.58C106.132 103.378 106.421 103.176 106.709 102.973C104.772 101.904 103.022 101.522 95.9005 99.6233C94.2091 99.1729 92.5477 98.7797 90.9272 98.4429C96.8406 100.548 102.102 103.404 106.041 105.136C110.094 106.918 114.713 107.579 117.17 107.903C117.658 107.967 117.071 113.903 117.071 116.804H0.286133L0.286563 101.759C6.36195 102.819 15.349 102.96 21.653 102.95C26.3731 102.942 31.8838 102.222 39.9584 100.998C48.0335 99.7726 51.967 97.9372 58.5169 96.839C65.0663 95.7401 66.8519 95.6539 70.9767 95.5158V94.6675C49.8208 94.74 56.7236 94.7947 36.3759 94.7186C36.3909 94.997 36.4071 95.2761 36.4227 95.5551L31.9612 94.5282L36.2949 93.2973L36.3399 94.0987C53.6583 94.1647 54.1431 94.0987 70.9767 94.0987V91.8879C65.5265 91.8879 54.0573 90.7278 49.1075 87.8578C46.6805 88.4777 43.9015 89.0964 40.2446 89.5694C31.3385 90.7218 27.1518 91.2311 19.8021 90.8331C13.8497 90.5112 5.36479 90.2667 0.286563 90.0376V78.6582C6.23956 79.1252 15.658 79.8362 21.653 79.7892C26.8698 79.7488 31.8838 79.0622 40.136 77.5843C42.0499 77.2422 43.7328 76.8609 45.2676 76.4694L45.4008 76.2701L45.4944 76.4111C49.8022 75.2992 52.9557 74.1099 56.8387 73.4507C59.0791 72.1079 62.1792 71.2322 65.0105 70.7033L64.4429 69.9953L69.1198 69.6074L66.0425 71.9884C65.8451 71.7427 65.6477 71.4963 65.4503 71.25C63.3983 71.7254 61.0854 72.3066 59.1337 73.1354C65.0801 72.4661 67.0582 72.7201 70.9767 73.1205V64.4231C67.2502 64.4302 64.6799 64.5183 58.4869 65.325C52.2933 66.1312 48.9256 67.1937 39.5066 68.1718C30.0869 69.1493 24.6487 70.2493 17.2984 69.8507C11.0454 69.5116 4.54581 68.8322 0.286563 68.1028V56.5295C5.64558 57.5706 12.5963 58.5457 19.1493 58.8069C26.3904 59.0966 30.6317 57.4897 39.3974 56.1862C48.1631 54.8832 51.8116 53.6517 58.214 52.9057C64.6175 52.1584 66.9053 52.1662 70.9767 52.2346V47.9165ZM89.3955 90.0477C87.4857 89.4094 85.5676 88.7847 83.6543 88.2088C81.2261 89.3249 78.807 90.0287 76.9261 90.0287V91.3185C79.908 91.3185 84.8548 90.8925 89.3955 90.0477ZM82.7789 87.9488C81.6833 87.6281 80.5896 87.3247 79.5012 87.0457C78.6414 86.8261 77.7847 86.6209 76.9261 86.4341V89.4594C78.5821 89.4594 80.664 88.884 82.7789 87.9488ZM58.9369 85.6089C55.7372 86.0253 53.1963 86.7803 50.2114 87.5704C54.8936 90.0567 65.8457 91.3185 70.9767 91.3185V90.0287C67.8502 90.0287 63.2352 88.085 59.5621 85.5297C59.3587 85.5553 59.1505 85.5809 58.9369 85.6089ZM70.9767 89.4594V85.4476C67.5958 85.0794 65.4617 84.861 60.5874 85.4078C63.9695 87.7358 68.1106 89.4594 70.9767 89.4594Z" fill="url(#paint0_linear_452_9201)"/>
<path fill-rule="evenodd" clip-rule="evenodd" d="M76.9247 95.5807C79.6366 95.7401 82.3017 96.0887 84.8936 96.6718C84.9962 96.695 85.0982 96.7188 85.2002 96.7426C88.4659 97.1335 92.0754 97.8278 96.385 99.0182C104.594 101.286 105.858 101.676 107.35 102.523L108.179 101.941L110.213 104.767L105.842 103.58C106.13 103.378 106.42 103.176 106.708 102.973C104.77 101.904 103.021 101.522 95.899 99.6233C94.2077 99.1729 92.5463 98.7797 90.9258 98.4429C96.8392 100.548 102.101 103.404 106.04 105.136C110.254 106.989 114.765 107.587 117.169 107.903C118.644 108.097 117.072 107.765 117.072 107.231C117.072 104.177 117.072 101.012 117.072 98.9421C117.072 98.3959 117.072 98.5684 117.072 98.1966C117.072 98.992 118.2 98.1704 117.072 97.8908C111.494 96.5046 104.787 95.0892 98.8893 93.2164C96.2062 92.365 93.4607 91.4179 90.6918 90.4844C85.7546 91.4607 80.2318 91.8879 76.9247 91.8879V94.0987C93.7583 94.0987 76.2785 94.1647 93.5969 94.0987L93.6419 93.2973L97.9755 94.5282L93.5141 95.5551C93.5297 95.2761 93.5459 94.997 93.5615 94.7186C73.2132 94.7947 98.0818 94.74 76.9247 94.6675V95.5807ZM89.3941 90.0477C87.4843 89.4094 85.5662 88.7847 83.6528 88.2088C81.2247 89.3249 78.8056 90.0287 76.9247 90.0287V91.3185C79.9066 91.3185 84.8534 90.8925 89.3941 90.0477ZM82.7775 87.9488C81.6819 87.6281 80.5882 87.3247 79.4998 87.0457C78.64 86.8261 77.7833 86.6209 76.9247 86.4341V89.4594C78.5806 89.4594 80.6626 88.884 82.7775 87.9488ZM76.9247 74.0052C78.8704 74.3788 80.8293 74.8315 82.8213 75.3509C86.2465 76.2433 89.7679 77.3333 93.1289 78.4286C93.7697 74.1331 87.3638 72.387 82.4517 71.25C82.2537 71.4963 82.0563 71.7427 81.8595 71.9884L78.7828 69.6074L83.4591 69.9953L82.8909 70.7033C88.4581 71.7426 95.0615 74.1248 94.1315 78.757C96.8518 79.6517 99.4485 80.5377 101.782 81.3111C101.913 80.5216 101.922 79.8403 101.994 79.196C101.514 79.1966 101.035 79.1966 100.557 79.1978L102.501 76.2701L104.437 79.1943L103.059 79.1949C103.003 79.8416 103.106 80.5894 102.883 81.6734C103.798 81.9726 104.666 82.2499 105.477 82.4986C109.769 83.8158 117.072 84.6404 117.072 84.6404C117.072 84.6404 117.072 84.3488 117.072 83.5427V74.574C117.072 73.6042 117 73.5 117.072 72.7719C109.205 71.3042 99.4815 69.8406 93.6857 68.4389C87.3967 66.9183 83.3672 65.4696 78.0862 64.8175C77.7058 64.7711 77.3189 64.7283 76.9247 64.6896V74.0052ZM117.072 49.615C117.072 48.537 117.072 48.5 117.072 47.9165H76.9247V52.557C78.4552 52.6992 79.9504 52.8878 81.4071 53.1222C88.3765 54.2449 94.4747 56.417 100.273 57.7205C105.446 58.8836 112.163 59.3548 117.072 59.751C118.218 59.8444 117.072 59.8112 117.072 58.7135C117.072 56.0999 117.072 50.3409 117.072 49.615ZM58.9355 85.6089C55.7358 86.0253 53.1949 86.7803 50.21 87.5704C54.8922 90.0567 65.8443 91.3185 70.9753 91.3185V90.0287C67.8488 90.0287 63.2338 88.085 59.5607 85.5297C59.3573 85.5553 59.1491 85.5809 58.9355 85.6089ZM49.1061 87.8578C46.6791 88.4777 43.9001 89.0964 40.2432 89.5694C31.3371 90.7218 27.1504 91.2311 19.8007 90.8331C13.7931 90.5082 5.20556 90.2619 0.144134 90.0311C0.14393 91.2072 0.144134 90.1358 0.144134 91.8533C0.144134 94.4503 0.144134 97.0472 0.144134 99.6441C0.144134 100.735 0.144164 100.628 0.144134 101.735C6.22072 102.818 15.299 102.96 21.6516 102.95C26.3717 102.942 31.8824 102.222 39.957 100.998C48.0321 99.7726 51.9656 97.9372 58.5155 96.839C65.0649 95.7401 66.8504 95.6539 70.9753 95.5158V94.6675C49.8194 94.74 56.7222 94.7947 36.3745 94.7186C36.3895 94.997 36.4057 95.2761 36.4213 95.5551L31.9598 94.5282L36.2935 93.2973L36.3385 94.0987C53.6569 94.1647 54.1417 94.0987 70.9753 94.0987V91.8879C65.5251 91.8879 54.0559 90.7278 49.1061 87.8578ZM70.9753 89.4594V85.4476C67.5944 85.0794 65.4603 84.861 60.586 85.4078C63.9681 87.7358 68.1092 89.4594 70.9753 89.4594ZM59.1323 73.1354C65.0787 72.4661 67.0568 72.7201 70.9753 73.1205V64.4231C67.2488 64.4302 64.6785 64.5183 58.4855 65.325C52.292 66.1312 48.9242 67.1937 39.5052 68.1718C30.0855 69.1493 24.6473 70.2493 17.297 69.8507C10.975 69.508 4.40039 68.8173 0.144134 68.0784C0.144134 68.8843 0.144134 68.3336 0.144134 69.044V75.6579C0.144134 77.7789 0.144134 77.5 0.144134 78.6469C6.08873 79.1133 15.6092 79.8368 21.6516 79.7892C26.8684 79.7488 31.8824 79.0622 40.1346 77.5843C42.0485 77.2422 43.7314 76.8609 45.2662 76.4694L45.3994 76.2701L45.493 76.4111C49.8008 75.2992 52.9543 74.1099 56.8373 73.4507C59.0777 72.108 62.1778 71.2322 65.0091 70.7033L64.4415 69.9953L69.1184 69.6074L66.0411 71.9884C65.8437 71.7427 65.6463 71.4963 65.4489 71.25C63.3969 71.7254 61.084 72.3066 59.1323 73.1354ZM70.9753 52.2346V47.9165H42.1997C42.1517 47.9177 42.1037 47.9177 42.0563 47.9165H31.0137H31.0023C31.0023 47.9165 1.80188 47.9165 0.144134 47.9165C0.144134 48.763 0.144134 48.418 0.144134 49.9244V55.1147C0.144134 55.6995 0.144134 55.8541 0.144134 56.5021C5.52235 57.5534 12.5373 58.5433 19.1479 58.8069C26.389 59.0966 30.6303 57.4897 39.396 56.1862C48.1617 54.8832 51.8102 53.6517 58.2126 52.9057C64.6161 52.1584 66.9038 52.1662 70.9753 52.2346Z" fill="black" fill-opacity="0.5"/>
<path fill-rule="evenodd" clip-rule="evenodd" d="M67.6584 38.6679L73.069 41.908L66.3013 45.9976H66.1974L67.6584 38.6679ZM76.9251 116.804H70.9757V47.9169H63.0884V45.9976H65.3203L71.4809 15.0923C70.0331 14.2701 69.0576 12.7233 69.0576 10.9509C69.0576 8.31713 71.2109 6.18188 73.867 6.18188C76.5231 6.18188 78.6764 8.31713 78.6764 10.9509C78.6764 12.7161 77.7087 14.2576 76.2711 15.0822L82.4341 45.9976H84.6654V47.9169H76.9251V116.804ZM81.5473 45.9536L74.785 41.9038L80.1002 38.6923L81.5473 45.9536ZM79.727 36.8213L74.5348 32.4181L78.224 29.2798L79.727 36.8213ZM77.7566 26.9364L74.314 22.6927L76.3875 20.066L77.7566 26.9364ZM76.1115 18.681H71.6429L72.2855 15.4558C72.781 15.6265 73.3132 15.72 73.867 15.72C74.4279 15.72 74.9667 15.6242 75.4671 15.4493L76.1115 18.681ZM71.3297 20.2498L73.3204 22.7034L70.0031 26.9066L71.3297 20.2498ZM69.5315 29.2733L73.2412 32.4199L68.019 36.8617L69.5315 29.2733ZM68.01 45.9976L73.9276 42.422L79.898 45.9976H68.01ZM77.4927 27.8454H70.2467L73.8202 23.3185L77.4927 27.8454ZM72.0964 19.9601H75.4857L73.8148 22.0775L72.0964 19.9601ZM79.0346 37.3329H68.7564L73.888 32.9679L79.0346 37.3329ZM70.6505 29.1245H77.1153L73.888 31.8696L70.6505 29.1245ZM69.288 38.6121H78.5247L73.927 41.3904L69.288 38.6121ZM73.8448 7.79891C75.6274 7.79891 77.0721 9.23217 77.0721 10.9997C77.0721 12.7679 75.6274 14.2005 73.8448 14.2005C72.0617 14.2005 70.6169 12.7679 70.6169 10.9997C70.6169 9.23217 72.0617 7.79891 73.8448 7.79891Z" fill="black" fill-opacity="0.2"/>
<path fill-rule="evenodd" clip-rule="evenodd" d="M74.2655 89.5845H75.3242V102.175H72.469V89.5845H73.7058V47.8649H74.1425V89.5845H74.2655ZM64.4667 70.0376L69.1233 69.648L66.0595 72.0397C65.8629 71.7923 65.6664 71.545 65.4698 71.2982C60.3801 72.4853 53.6773 74.3357 54.9481 79.0436C56.2189 83.7516 65.7351 89.5845 70.973 89.5845C70.973 90.1562 70.973 89.5845 70.973 90.1563C65.4197 90.1563 55.1482 83.9451 53.9013 79.1123C52.6538 74.2789 59.38 71.8126 65.0319 70.7485L64.4667 70.0376ZM43.5773 79.2754L45.5041 76.3383L47.4411 79.279C46.9643 79.2784 46.4869 79.2778 46.0101 79.2772C46.1942 80.9548 45.9588 82.8882 48.5117 86.3015C51.0646 89.7153 64.9913 91.4509 70.973 91.4509C70.973 92.0221 70.9724 91.6122 70.973 92.0221C64.631 92.0221 50.1039 90.4329 47.3156 86.3702C44.5279 82.3075 45.062 80.5838 44.9491 79.2766L43.5773 79.2754ZM46.9834 111.543L48.6712 114.48L50.3668 111.54C49.9492 111.54 49.5315 111.541 49.1139 111.541C49.2752 109.863 49.0691 107.93 51.3042 104.517C53.5399 101.103 65.7351 99.3678 70.973 99.3678C70.973 98.796 70.9724 99.2065 70.973 98.796C65.4197 98.796 52.6986 100.386 50.2569 104.449C47.8157 108.511 48.2835 110.235 48.1849 111.542L46.9834 111.543ZM39.8504 102.117L37.825 104.957L42.1769 103.764C41.8901 103.561 41.6027 103.358 41.3153 103.154C43.2445 102.081 44.9867 101.697 52.0785 99.7914C59.1709 97.8849 65.7351 97.0079 70.973 97.0079C70.973 96.4361 70.9724 96.8465 70.973 96.4361C65.4197 96.4361 59.7689 96.9057 51.5945 99.1832C43.4208 101.46 42.1614 101.853 40.6767 102.702L39.8504 102.117ZM36.4372 93.4381L32.1217 94.6742L36.5644 95.7054C36.5483 95.4252 36.5327 95.1456 36.5172 94.8654C56.7799 94.9418 49.9056 94.8863 70.973 94.8146C70.973 94.2428 70.9724 94.6533 70.973 94.2428C54.2102 94.2428 53.7275 94.3097 36.4826 94.2428L36.4372 93.4381ZM83.4042 70.0376L78.7471 69.648L81.8108 72.0397C82.0079 71.7923 82.2045 71.545 82.4011 71.2982C87.4902 72.4853 94.193 74.3357 92.9222 79.0436C91.6515 83.7516 82.1358 89.5845 76.8979 89.5845C76.8979 90.1562 76.8979 89.5845 76.8979 90.1563C82.4507 90.1563 92.7221 83.9451 93.9696 79.1123C95.2171 74.2789 88.4909 71.8126 82.8384 70.7485L83.4042 70.0376ZM104.293 79.2754L102.366 76.3383L100.429 79.279C100.907 79.2784 101.383 79.2778 101.86 79.2772C101.676 80.9548 101.912 82.8882 99.3586 86.3015C96.8063 89.7153 82.879 91.4509 76.8979 91.4509C76.8979 92.0221 76.8979 91.6122 76.8979 92.0221C83.2393 92.0221 97.767 90.4329 100.555 86.3702C103.343 82.3075 102.808 80.5838 102.921 79.2766L104.293 79.2754ZM100.887 111.543L99.1997 114.48L97.5035 111.54C97.9211 111.54 98.3394 111.541 98.7564 111.541C98.5957 109.863 98.8012 107.93 96.5661 104.517C94.3311 101.103 82.1358 99.3678 76.8979 99.3678C76.8979 98.796 76.8979 99.2065 76.8979 98.796C82.4507 98.796 95.1722 100.386 97.6134 104.449C100.055 108.511 99.5869 110.235 99.6854 111.542L100.887 111.543ZM108.021 102.117L110.045 104.957L105.693 103.764C105.981 103.561 106.268 103.358 106.555 103.154C104.626 102.081 102.884 101.697 95.7918 99.7914C88.7001 97.8849 82.1358 97.0079 76.8979 97.0079C76.8979 96.4361 76.8979 96.8465 76.8979 96.4361C82.4507 96.4361 88.102 96.9057 96.2757 99.1832C104.45 101.46 105.71 101.853 107.194 102.702L108.021 102.117ZM93.5442 93.4381L97.8596 94.6742L93.417 95.7054C93.4331 95.4252 93.4486 95.1456 93.4642 94.8654C73.2021 94.9418 97.9648 94.8863 76.8979 94.8146C76.8979 94.2428 76.8979 94.6533 76.8979 94.2428C93.6607 94.2428 76.2539 94.3097 93.4988 94.2428L93.5442 93.4381ZM35.7841 37.9669C36.2836 37.9687 37.687 37.8719 38.0048 38.087C38.38 38.3409 38.2898 39.5597 38.2182 40.1309L35.7955 40.1338L35.7841 37.9669ZM50.3041 41.2588L68.7905 9.78855C68.8902 7.38559 71.335 5.55859 74.0403 5.55859V5.95773C72.0508 6.32756 69.658 7.63533 69.1173 10.0001C69.1173 10.1213 68.8431 10.2414 68.852 10.3603L50.4726 41.732L50.307 41.6376L50.3393 45.6221H48.103L47.4918 43.7257C47.1047 43.191 46.8227 42.903 46.1744 42.7979C45.7759 42.7333 45.2956 42.8319 44.8911 42.9263C44.3636 43.0494 44.2166 43.1815 43.8832 43.5459C43.7028 43.8518 43.5236 43.9624 43.4029 44.5108C43.382 44.6046 43.1131 45.5922 43.0994 45.6221C42.7923 45.738 38.7595 45.7403 38.4607 45.625C38.3389 45.2265 38.3986 45.3329 38.2558 44.8173C38.058 44.5562 37.9523 43.1289 36.3391 42.8356C35.5708 42.6958 34.8342 42.9909 34.4028 43.3685C33.5699 44.0974 33.8514 44.7719 33.5281 44.8932C33.3776 44.6362 33.4355 43.4389 33.5729 43.1438C33.8042 42.6461 34.22 42.5625 34.9381 42.5697L38.5575 42.5559C38.7021 42.5278 38.6334 42.55 38.7218 42.4944C38.6967 42.1425 38.8497 42.2369 37.8938 42.2393L34.6669 42.2369C33.9703 42.2405 33.5341 42.4801 33.2766 42.9801C32.9862 43.5441 33.1941 44.2192 33.1033 44.88C30.2087 45.171 30.5964 44.4713 30.5934 42.5613C30.5916 41.0605 30.9675 39.8745 31.3839 38.4652C31.7173 37.3348 32.3171 37.8868 32.8321 37.4322C33.2658 37.0492 34.088 37.1842 35.0057 37.1836C38.962 37.1836 37.2556 37.149 38.2337 37.6526C50.2748 37.6526 38.2337 37.6526 50.2748 37.6526L50.3041 41.2588ZM74.0427 7.58579V13.9994C73.9722 14.0042 73.9011 14.0066 73.83 14.0066C73.7733 14.0066 73.7171 14.0054 73.6615 14.0024V7.58276C73.7171 7.57977 73.7733 7.57798 73.83 7.57798C73.9011 7.57798 73.9722 7.58101 74.0427 7.58579ZM74.0427 15.5283V18.506H73.6615V15.5283C73.7249 15.5313 73.7882 15.5325 73.8521 15.5325C73.916 15.5325 73.9794 15.5313 74.0427 15.5283ZM74.0427 19.7905V21.6068L73.8002 21.9169L73.6615 21.7448V19.7905H74.0427ZM74.0427 23.4583V27.7092H73.6615V23.3472L73.8055 23.1632L74.0427 23.4583ZM74.0427 28.9937V31.6046L73.873 31.7504L73.6615 31.5694V28.9937H74.0427ZM74.0427 32.9985V37.2368H73.6615V33.0349L73.873 32.8533L74.0427 32.9985ZM74.0427 38.5213V41.2314L73.9118 41.3114L73.6615 41.1603V38.5213H74.0427ZM74.0427 42.4263V45.9381H73.6615V42.5004L73.9125 42.3474L74.0427 42.4263ZM31.5488 40.1141C31.5697 39.7891 31.7585 39.2209 31.8582 38.8882C32.004 38.3994 32.0602 38.1306 32.5154 38.0021C32.8871 37.8976 34.9567 37.9651 35.5063 37.9615C35.6007 38.2937 35.5708 39.7258 35.529 40.1314L31.5488 40.1141ZM45.1594 43.6887C46.978 43.0817 47.8348 45.7559 46.0926 46.3982C44.3247 47.05 43.2833 44.3154 45.1594 43.6887ZM45.2275 43.0141C42.4338 43.5907 43.3706 47.6325 46.0442 47.0703C48.6718 46.5177 47.8653 42.4693 45.2275 43.0141ZM35.4812 43.6809C37.3208 43.1193 38.125 45.7403 36.4222 46.3892C34.6096 47.0798 33.619 44.2497 35.4812 43.6809ZM35.5051 43.0255C32.7353 43.669 33.7683 47.6271 36.3541 47.0685C37.3901 46.845 38.1973 45.867 37.9386 44.5902C37.7426 43.6206 36.7108 42.7459 35.5051 43.0255ZM37.0101 45.4494C37.2861 44.791 36.7968 44.1344 36.3697 43.9605C35.6927 43.6839 35.0242 44.0979 34.8348 44.607C34.3012 46.0397 36.3947 46.9156 37.0101 45.4494ZM45.1785 43.9802C44.4765 44.3046 44.2829 44.9493 44.5422 45.5181C44.7561 45.9865 45.3738 46.4262 46.0753 46.1078C47.4482 45.484 46.5365 43.3517 45.1785 43.9802Z" fill="black"/>
<path d="M116.804 116.826V1.02344C116.798 1.02327 1 1 1 1V116.826H116.804ZM117.804 117.826H0V1.48962e-10H1V1C1.0002 0 1.00107 -1.77024e-07 1.00195 1.48962e-10H2.30078C3.14885 0.000170446 4.39263 0.00065833 5.97559 0.000976563C9.14195 0.00161312 13.6657 0.00281425 19.0938 0.00390625C29.9499 0.00609024 44.4253 0.00879968 58.9004 0.0117188C87.8299 0.0175527 116.812 0.0227125 116.835 0.0234375L117.804 0.0537109V117.826Z" fill="black"/>
<defs>
<linearGradient id="paint0_linear_452_9201" x1="117.364" y1="82.3602" x2="0.286132" y2="82.3602" gradientUnits="userSpaceOnUse">
<stop stop-color="#00C7D4"/>
<stop offset="1" stop-color="#02E7BD"/>
</linearGradient>
</defs>
</svg>
