<svg width="120" height="120" viewBox="0 0 120 120" fill="none" xmlns="http://www.w3.org/2000/svg">
<path fill-rule="evenodd" clip-rule="evenodd" d="M13.5807 0H106.419C110.157 0 113.553 1.52718 116.013 3.98725C118.473 6.44733 120 9.84324 120 13.5806V106.419C120 110.157 118.473 113.552 116.013 116.013C113.553 118.473 110.157 120 106.419 120H13.5807C9.84985 120 6.4563 118.473 3.99563 116.013H3.98732C1.52724 113.552 0 110.157 0 106.419V13.5806C0 9.84324 1.52724 6.44733 3.98732 3.98725H3.99563C6.4563 1.52718 9.84985 0 13.5807 0ZM13.5807 2.09832H106.419C112.735 2.09832 117.902 7.26537 117.902 13.5806V106.419C117.902 112.734 112.735 117.901 106.419 117.901H13.5807C7.26544 117.901 2.09838 112.734 2.09838 106.419V13.5806C2.09838 7.26537 7.26544 2.09832 13.5807 2.09832Z" fill="#2B2A29"/>
<path fill-rule="evenodd" clip-rule="evenodd" d="M13.5744 2.09717H106.368C112.68 2.09717 117.844 7.26171 117.844 13.5739V106.367C117.844 112.68 112.68 117.844 106.368 117.844H13.5744C7.26219 117.844 2.09766 112.68 2.09766 106.367V13.5739C2.09766 7.26171 7.26219 2.09717 13.5744 2.09717Z" fill="white"/>
<path fill-rule="evenodd" clip-rule="evenodd" d="M72.195 49.0137H78.0945V53.6542C79.6122 53.7964 81.0947 53.985 82.5393 54.2194C89.4501 55.342 95.4971 57.5142 101.247 58.8177C106.375 59.9808 113.034 60.452 117.902 60.8482V73.8685C110.102 72.4008 100.461 70.9378 94.7147 69.5361C88.4785 68.0154 84.4829 66.5668 79.2462 65.9147C78.869 65.8683 78.4853 65.8254 78.0945 65.7868V75.1023C80.0239 75.476 81.9663 75.9287 83.9415 76.4481C87.338 77.3405 90.8298 78.4305 94.1626 79.5257C94.798 75.2303 88.4458 73.4841 83.5751 72.3472C83.3787 72.5935 83.183 72.8398 82.9879 73.0855L79.937 70.7046L84.574 71.0925L84.0105 71.8004C89.531 72.8398 96.0789 75.2219 95.1568 79.8541C97.8542 80.7489 100.429 81.6348 102.743 82.4082C102.873 81.6188 102.882 80.9375 102.953 80.2932C102.477 80.2938 102.003 80.2938 101.528 80.295L103.456 77.3673L105.375 80.2914L104.009 80.292C103.954 80.9387 104.056 81.6866 103.835 82.7705C104.742 83.0698 105.603 83.347 106.407 83.5957C110.661 84.9123 115.664 85.3347 117.902 85.7369V98.9874C112.371 97.6012 105.722 96.1858 99.8746 94.3135C97.214 93.4622 94.4916 92.515 91.746 91.5816C86.8502 92.5579 81.3738 92.985 78.0945 92.985V95.1958C94.7867 95.1958 77.4537 95.2619 94.6267 95.1958L94.6713 94.3945L98.9685 95.6254L94.5446 96.6523C94.56 96.3732 94.5761 96.0942 94.5916 95.8158C74.4142 95.8919 99.0738 95.8372 78.0945 95.7646V96.6778C80.7836 96.8373 83.4263 97.1859 85.9964 97.7689C86.0982 97.7921 86.1993 97.816 86.3005 97.8398C89.5387 98.2306 93.1179 98.9249 97.3913 100.115C105.531 102.383 106.785 102.774 108.264 103.62L109.086 103.038L111.103 105.864L106.769 104.677C107.055 104.475 107.342 104.273 107.627 104.07C105.706 103.001 103.971 102.619 96.9094 100.72C95.2323 100.27 93.5849 99.8768 91.978 99.5401C97.8417 101.646 103.059 104.501 106.965 106.233C110.984 108.016 115.186 108.609 117.622 108.932C116.468 114.049 111.872 117.901 106.42 117.901H13.581C7.26569 117.901 2.09863 112.734 2.09863 106.419V102.856C8.12299 103.916 17.0346 104.057 23.2856 104.047C27.966 104.039 33.4305 103.319 41.4372 102.095C49.4445 100.87 53.345 99.0344 59.8399 97.9361C66.3343 96.8373 68.1048 96.751 72.195 96.613V95.7646C51.2169 95.8372 58.0616 95.8919 37.8848 95.8158C37.8997 96.0942 37.9158 96.3732 37.9313 96.6523L33.5073 95.6254L37.8046 94.3945L37.8492 95.1958C55.0221 95.2619 55.5028 95.1958 72.195 95.1958V92.985C66.7906 92.985 55.4177 91.8249 50.5095 88.955C48.103 89.5749 45.3472 90.1936 41.721 90.6666C32.8898 91.819 28.7382 92.3282 21.4502 91.9302C15.5478 91.6084 7.1342 91.3638 2.09863 91.1348V79.7554C8.00163 80.2224 17.341 80.9334 23.2856 80.8864C28.4586 80.8459 33.4305 80.1593 41.6133 78.6815C43.5112 78.3394 45.18 77.958 46.7019 77.5666L46.8339 77.3673L46.9268 77.5083C51.1984 76.3964 54.3254 75.2071 58.1758 74.5479C60.3973 73.2051 63.4714 72.3293 66.2789 71.8004L65.7161 71.0925L70.3537 70.7046L67.3022 73.0855C67.1065 72.8398 66.9108 72.5935 66.715 72.3472C64.6803 72.8226 62.3868 73.4038 60.4515 74.2325C66.3479 73.5632 68.3095 73.8173 72.195 74.2177V65.5203C68.4999 65.5274 65.9511 65.6155 59.8102 66.4222C53.6686 67.2284 50.3292 68.2909 40.9892 69.269C31.6487 70.2465 26.2562 71.3465 18.9676 70.9479C12.7671 70.6088 6.32211 69.9293 2.09863 69.1999V57.6266C7.41264 58.6678 14.305 59.6428 20.8029 59.904C27.9833 60.1938 32.1889 58.5868 40.881 57.2833C49.5731 55.9804 53.1909 54.7489 59.5395 54.0029C65.8893 53.2556 68.1578 53.2633 72.195 53.3317V49.0137ZM90.4591 91.1449C88.5654 90.5065 86.6634 89.8818 84.7661 89.3059C82.3584 90.422 79.9596 91.1258 78.0945 91.1258V92.4157C81.0513 92.4157 85.9566 91.9897 90.4591 91.1449ZM83.8981 89.0459C82.8117 88.7253 81.7272 88.4219 80.6479 88.1428C79.7954 87.9233 78.9458 87.718 78.0945 87.5312V90.5565C79.7365 90.5565 81.8009 89.9812 83.8981 89.0459ZM60.2564 86.706C57.0836 87.1225 54.564 87.8775 51.6041 88.6676C56.247 91.1538 67.1071 92.4157 72.195 92.4157V91.1258C69.0948 91.1258 64.5185 89.1822 60.8763 86.6269C60.6746 86.6525 60.4682 86.6781 60.2564 86.706ZM72.195 90.5565V86.5448C68.8426 86.1765 66.7263 85.9582 61.8931 86.505C65.2467 88.833 69.353 90.5565 72.195 90.5565Z" fill="url(#paint0_linear_236_2965)"/>
<path fill-rule="evenodd" clip-rule="evenodd" d="M78.0938 96.6778C80.7829 96.8373 83.4256 97.1859 85.9957 97.7689C86.0975 97.7921 86.1986 97.816 86.2997 97.8398C89.538 98.2306 93.1172 98.9249 97.3906 100.115C105.531 102.383 106.784 102.774 108.263 103.62L109.085 103.038L111.102 105.864L106.769 104.677C107.054 104.475 107.341 104.273 107.627 104.07C105.705 103.001 103.971 102.619 96.9087 100.72C95.2316 100.27 93.5842 99.8768 91.9772 99.5401C97.841 101.646 103.059 104.501 106.964 106.233C111.143 108.086 115.52 108.654 117.904 108.97C119.366 109.164 117.904 108.862 117.904 108.329C117.904 105.274 117.904 102.11 117.904 100.039C117.904 99.4931 117.904 99.6656 117.904 99.2938C117.904 100.089 119.023 99.2676 117.904 98.988C112.372 97.6018 105.722 96.1864 99.8739 94.3135C97.2133 93.4622 94.4909 92.515 91.7452 91.5816C86.8495 92.5579 81.3731 92.985 78.0938 92.985V95.1958C94.786 95.1958 77.453 95.2619 94.6259 95.1958L94.6706 94.3945L98.9678 95.6254L94.5438 96.6523C94.5593 96.3732 94.5754 96.0942 94.5909 95.8158C74.4135 95.8919 99.0731 95.8372 78.0938 95.7646V96.6778ZM90.4584 91.1449C88.5647 90.5065 86.6627 89.8818 84.7654 89.3059C82.3577 90.422 79.9589 91.1258 78.0938 91.1258V92.4157C81.0506 92.4157 85.9559 91.9897 90.4584 91.1449ZM83.8974 89.0459C82.811 88.7253 81.7265 88.4219 80.6472 88.1428C79.7947 87.9233 78.9451 87.718 78.0938 87.5312V90.5565C79.7358 90.5565 81.8002 89.9812 83.8974 89.0459ZM78.0938 75.1023C80.0231 75.476 81.9656 75.9287 83.9408 76.4481C87.3373 77.3405 90.829 78.4305 94.1619 79.5257C94.7973 75.2303 88.4451 73.4841 83.5744 72.3472C83.378 72.5935 83.1823 72.8398 82.9871 73.0855L79.9363 70.7046L84.5733 71.0925L84.0098 71.8004C89.5303 72.8398 96.0782 75.2219 95.156 79.8541C97.8535 80.7489 100.428 81.6348 102.743 82.4082C102.872 81.6188 102.881 80.9375 102.952 80.2932C102.477 80.2938 102.002 80.2938 101.527 80.295L103.455 77.3673L105.375 80.2914L104.008 80.292C103.953 80.9387 104.055 81.6866 103.834 82.7705C104.742 83.0698 105.602 83.347 106.406 83.5957C110.662 84.9129 115.667 85.3353 117.904 85.7375C120.11 86.1337 117.904 85.446 117.904 84.6398V75.6711C117.904 74.7014 119.286 74.1285 117.904 73.8691C110.103 72.4013 100.461 70.9378 94.714 69.5361C88.4778 68.0154 84.4822 66.5668 79.2455 65.9147C78.8683 65.8683 78.4846 65.8254 78.0938 65.7868V75.1023ZM117.904 50.7122C117.904 49.6342 119.519 49.0137 117.904 49.0137H78.0938V53.6542C79.6115 53.7964 81.094 53.985 82.5386 54.2194C89.4494 55.342 95.4964 57.5142 101.246 58.8177C106.375 59.9808 113.036 60.452 117.904 60.8482C119.04 60.9416 117.904 60.9083 117.904 59.8107C117.904 57.1971 117.904 51.438 117.904 50.7122ZM60.2557 86.706C57.0829 87.1225 54.5633 87.8775 51.6034 88.6676C56.2463 91.1538 67.1064 92.4157 72.1943 92.4157V91.1258C69.0941 91.1258 64.5178 89.1822 60.8756 86.6269C60.6739 86.6525 60.4675 86.6781 60.2557 86.706ZM50.5088 88.955C48.1022 89.5749 45.3465 90.1936 41.7203 90.6666C32.889 91.819 28.7375 92.3282 21.4495 91.9302C15.4924 91.6054 6.97699 91.3591 1.95808 91.1282C-0.594209 91.0116 1.95808 91.2329 1.95808 92.9505C1.95808 95.5474 1.95808 98.1443 1.95808 100.741C1.95808 101.832 0.258339 102.527 1.95808 102.832C7.98363 103.915 16.9857 104.057 23.2849 104.047C27.9653 104.039 33.4298 103.319 41.4365 102.095C49.4438 100.87 53.3443 99.0344 59.8392 97.9362C66.3336 96.8373 68.1041 96.751 72.1943 96.613V95.7646C51.2162 95.8372 58.0609 95.8919 37.8841 95.8158C37.899 96.0942 37.9151 96.3732 37.9306 96.6523L33.5066 95.6254L37.8038 94.3945L37.8485 95.1958C55.0214 95.2619 55.5021 95.1958 72.1943 95.1958V92.985C66.7899 92.985 55.417 91.8249 50.5088 88.955ZM72.1943 90.5565V86.5448C68.8418 86.1765 66.7256 85.9582 61.8923 86.505C65.246 88.833 69.3523 90.5565 72.1943 90.5565ZM60.4508 74.2325C66.3472 73.5632 68.3088 73.8173 72.1943 74.2177V65.5203C68.4992 65.5274 65.9504 65.6155 59.8095 66.4222C53.6679 67.2284 50.3285 68.2909 40.9885 69.269C31.648 70.2465 26.2555 71.3465 18.9669 70.9479C12.698 70.6052 6.17859 69.9145 1.95808 69.1755C-0.0450798 68.8245 1.95808 69.4308 1.95808 70.1412V76.7551C1.95808 78.8761 0.288086 79.6114 1.95808 79.7441C7.85275 80.2105 17.2933 80.934 23.2849 80.8864C28.4579 80.8459 33.4298 80.1593 41.6126 78.6815C43.5105 78.3394 45.1793 77.958 46.7012 77.5666L46.8332 77.3673L46.9261 77.5083C51.1977 76.3964 54.3247 75.2071 58.1751 74.5479C60.3966 73.2051 63.4707 72.3293 66.2782 71.8004L65.7154 71.0925L70.353 70.7046L67.3015 73.0855C67.1058 72.8398 66.91 72.5935 66.7143 72.3472C64.6796 72.8226 62.3861 73.4038 60.4508 74.2325ZM72.1943 53.3317V49.0137H43.6604C43.6128 49.0149 43.5652 49.0149 43.5182 49.0137H32.5684H32.557H1.95808C0.314264 49.0137 1.95808 49.5152 1.95808 51.0216V56.2119C1.95808 56.7967 0.588531 57.3292 1.95808 57.5993C7.29112 58.6505 14.2472 59.6405 20.8022 59.904C27.9825 60.1938 32.1882 58.5868 40.8803 57.2833C49.5723 55.9804 53.1902 54.7489 59.5388 54.0029C65.8886 53.2556 68.1571 53.2633 72.1943 53.3317Z" fill="black" fill-opacity="0.5"/>
<path fill-rule="evenodd" clip-rule="evenodd" d="M68.9057 39.7651L74.2708 43.0052L67.5599 47.0948H67.457L68.9057 39.7651ZM78.0945 117.901H72.1951V49.014H64.374V47.0948H66.5872L72.696 16.1895C71.2604 15.3673 70.2931 13.8204 70.2931 12.0481C70.2931 9.4143 72.4283 7.27905 75.0621 7.27905C77.6959 7.27905 79.8311 9.4143 79.8311 12.0481C79.8311 13.8133 78.8715 15.3548 77.446 16.1794L83.5572 47.0948H85.7698V49.014H78.0945V117.901ZM82.678 47.0507L75.9724 43.001L81.243 39.7895L82.678 47.0507ZM80.8729 37.9184L75.7243 33.5153L79.3825 30.377L80.8729 37.9184ZM78.9191 28.0335L75.5053 23.7898L77.5615 21.1632L78.9191 28.0335ZM77.2878 19.7781H72.8567L73.4939 16.553C73.9853 16.7237 74.513 16.8171 75.0621 16.8171C75.6184 16.8171 76.1526 16.7214 76.6488 16.5465L77.2878 19.7781ZM72.5461 21.347L74.5201 23.8005L71.2307 28.0038L72.5461 21.347ZM70.7631 30.3704L74.4416 33.5171L69.2632 37.9589L70.7631 30.3704ZM69.2543 47.0948L75.1222 43.5192L81.0424 47.0948H69.2543ZM78.6573 28.9426H71.4722L75.0157 24.4157L78.6573 28.9426ZM73.3064 21.0572H76.6673L75.0104 23.1746L73.3064 21.0572ZM80.1864 38.4301H69.9944L75.0829 34.065L80.1864 38.4301ZM71.8726 30.2217H78.2831L75.0829 32.9668L71.8726 30.2217ZM70.5215 39.7092H79.6807L75.1216 42.4875L70.5215 39.7092ZM75.0401 8.89608C76.8077 8.89608 78.2402 10.3293 78.2402 12.0969C78.2402 13.8651 76.8077 15.2977 75.0401 15.2977C73.272 15.2977 71.8393 13.8651 71.8393 12.0969C71.8393 10.3293 73.272 8.89608 75.0401 8.89608Z" fill="black" fill-opacity="0.2"/>
<path fill-rule="evenodd" clip-rule="evenodd" d="M75.4738 90.5573H76.528V103.094H73.6848V90.5573H74.9163V49.0133H75.3512V90.5573H75.4738ZM65.7162 71.0927L70.3531 70.7047L67.3023 73.0863C67.1065 72.84 66.9108 72.5937 66.7151 72.348C61.6468 73.5301 54.9722 75.3727 56.2376 80.0608C57.5031 84.7489 66.9792 90.5573 72.1951 90.5573C72.1951 91.1266 72.1951 90.5573 72.1951 91.1267C66.6651 91.1267 56.4369 84.9416 55.1953 80.1292C53.953 75.3161 60.6508 72.8602 66.279 71.8006L65.7162 71.0927ZM44.9147 80.2916L46.8334 77.3669L48.7622 80.2952C48.2874 80.2946 47.812 80.294 47.3373 80.2934C47.5205 81.964 47.2861 83.8892 49.8283 87.2881C52.3705 90.6876 66.2385 92.4159 72.1951 92.4159C72.1951 92.9847 72.1945 92.5765 72.1951 92.9846C65.8798 92.9846 51.4138 91.4021 48.6373 87.3565C45.8613 83.3109 46.3931 81.5945 46.2807 80.2928L44.9147 80.2916ZM48.3064 112.424L49.9872 115.348L51.6756 112.42C51.2597 112.421 50.8439 112.421 50.428 112.421C50.5886 110.751 50.3834 108.826 52.6091 105.427C54.8353 102.028 66.9792 100.299 72.1951 100.299C72.1951 99.7301 72.1945 100.139 72.1951 99.73C66.6651 99.73 53.9976 101.313 51.5661 105.359C49.1352 109.404 49.6011 111.121 49.5029 112.422L48.3064 112.424ZM41.2035 103.037L39.1866 105.865L43.5201 104.678C43.2346 104.475 42.9484 104.273 42.6622 104.07C44.5833 103.002 46.3182 102.619 53.3801 100.721C60.4426 98.8228 66.9792 97.9494 72.1951 97.9494C72.1951 97.3801 72.1945 97.7888 72.1951 97.38C66.6651 97.38 61.0381 97.8477 52.8982 100.116C44.7588 102.383 43.5047 102.774 42.0263 103.62L41.2035 103.037ZM37.8046 94.3946L33.5073 95.6255L37.9313 96.6525C37.9152 96.3734 37.8998 96.095 37.8843 95.8159C58.0617 95.8921 51.2163 95.8368 72.1951 95.7654C72.1951 95.196 72.1945 95.6047 72.1951 95.196C55.5029 95.196 55.0221 95.2626 37.8498 95.196L37.8046 94.3946ZM84.574 71.0927L79.9364 70.7047L82.9873 73.0863C83.1836 72.84 83.3794 72.5937 83.5751 72.348C88.6428 73.5301 95.3174 75.3727 94.052 80.0608C92.7865 84.7489 83.3109 90.5573 78.0951 90.5573C78.0951 91.1266 78.0951 90.5573 78.0951 91.1267C83.6245 91.1267 93.8527 84.9416 95.0949 80.1292C96.3372 75.3161 89.6393 72.8602 84.0106 71.8006L84.574 71.0927ZM105.375 80.2916L103.456 77.3669L101.527 80.2952C102.003 80.2946 102.477 80.294 102.952 80.2934C102.769 81.964 103.003 83.8892 100.461 87.2881C97.9196 90.6876 84.051 92.4159 78.0951 92.4159C78.0951 92.9847 78.0951 92.5765 78.0951 92.9846C84.4098 92.9846 98.8763 91.4021 101.652 87.3565C104.429 83.3109 103.896 81.5945 104.009 80.2928L105.375 80.2916ZM101.983 112.424L100.303 115.348L98.6139 112.42C99.0298 112.421 99.4463 112.421 99.8616 112.421C99.7015 110.751 99.9062 108.826 97.6805 105.427C95.4548 102.028 83.3109 100.299 78.0951 100.299C78.0951 99.7301 78.0951 100.139 78.0951 99.73C83.6245 99.73 96.2925 101.313 98.7234 105.359C101.154 109.404 100.689 111.121 100.787 112.422L101.983 112.424ZM109.087 103.037L111.103 105.865L106.769 104.678C107.056 104.475 107.342 104.273 107.627 104.07C105.707 103.002 103.971 102.619 96.9095 100.721C89.8475 98.8228 83.3109 97.9494 78.0951 97.9494C78.0951 97.3801 78.0951 97.7888 78.0951 97.38C83.6245 97.38 89.252 97.8477 97.3914 100.116C105.531 102.383 106.785 102.774 108.264 103.62L109.087 103.037ZM94.6713 94.3946L98.9685 95.6255L94.5446 96.6525C94.5607 96.3734 94.5761 96.095 94.5916 95.8159C74.4148 95.8921 99.0733 95.8368 78.0951 95.7654C78.0951 95.196 78.0951 95.6047 78.0951 95.196C94.7873 95.196 77.4538 95.2626 94.6261 95.196L94.6713 94.3946ZM37.1543 39.1569C37.6517 39.1587 39.0492 39.0623 39.3657 39.2765C39.7393 39.5293 39.6495 40.743 39.5781 41.3118L37.1656 41.3147L37.1543 39.1569ZM51.6131 42.435L70.0217 11.0972C70.1211 8.70432 72.5556 6.88501 75.2495 6.88501V7.28247C73.2683 7.65074 70.8856 8.95301 70.3472 11.3078C70.3472 11.4286 70.0741 11.5482 70.083 11.6665L51.7809 42.9062L51.6161 42.8122L51.6482 46.7799H49.4214L48.8127 44.8915C48.4272 44.359 48.1464 44.0723 47.5009 43.9676C47.1041 43.9033 46.6258 44.0015 46.223 44.0955C45.6977 44.2181 45.5513 44.3495 45.2193 44.7125C45.0397 45.0171 44.8612 45.1272 44.741 45.6733C44.7202 45.7667 44.4524 46.7501 44.4388 46.7799C44.133 46.8953 40.1171 46.8977 39.8197 46.7828C39.6983 46.386 39.7578 46.4919 39.6156 45.9785C39.4186 45.7185 39.3133 44.2972 37.707 44.0051C36.9419 43.8659 36.2083 44.1598 35.7788 44.5358C34.9494 45.2616 35.2297 45.9333 34.9078 46.054C34.7579 45.7982 34.8156 44.6059 34.9524 44.312C35.1827 43.8164 35.5967 43.7332 36.3118 43.7403L39.916 43.7266C40.06 43.6987 39.9916 43.7207 40.0796 43.6654C40.0546 43.315 40.207 43.4089 39.2551 43.4113L36.0418 43.4089C35.3481 43.4125 34.9138 43.6511 34.6573 44.1491C34.3682 44.7107 34.5752 45.383 34.4848 46.041C31.6023 46.3307 31.9884 45.634 31.9855 43.732C31.9837 42.2375 32.3579 41.0566 32.7726 39.6531C33.1046 38.5275 33.7018 39.0772 34.2147 38.6244C34.6466 38.2431 35.4653 38.3775 36.3791 38.3769C40.3188 38.3769 38.6196 38.3425 39.5935 38.844C51.584 38.844 39.5935 38.844 51.584 38.844L51.6131 42.435ZM75.2519 8.90368V15.2903C75.1817 15.2951 75.1109 15.2975 75.0401 15.2975C74.9836 15.2975 74.9276 15.2963 74.8723 15.2933V8.90066C74.9276 8.89768 74.9836 8.89589 75.0401 8.89589C75.1109 8.89589 75.1817 8.89892 75.2519 8.90368ZM75.2519 16.8128V19.7779H74.8723V16.8128C74.9354 16.8157 74.9984 16.817 75.0621 16.817C75.1257 16.817 75.1888 16.8157 75.2519 16.8128ZM75.2519 21.0571V22.8657L75.0104 23.1744L74.8723 23.0031V21.0571H75.2519ZM75.2519 24.7094V28.9424H74.8723V24.5987L75.0157 24.4155L75.2519 24.7094ZM75.2519 30.2215V32.8214L75.0829 32.9666L74.8723 32.7863V30.2215H75.2519ZM75.2519 34.2094V38.4299H74.8723V34.2457L75.0829 34.0648L75.2519 34.2094ZM75.2519 39.709V42.4076L75.1216 42.4874L74.8723 42.3369V39.709H75.2519ZM75.2519 43.5975V47.0946H74.8723V43.6713L75.1222 43.519L75.2519 43.5975ZM32.9368 41.2951C32.9576 40.9715 33.1456 40.4057 33.2449 40.0743C33.3901 39.5877 33.446 39.3199 33.8994 39.192C34.2694 39.0879 36.3303 39.1551 36.8777 39.1516C36.9717 39.4824 36.9419 40.9084 36.9003 41.3124L32.9368 41.2951ZM46.4901 44.8546C48.3011 44.2502 49.1542 46.9132 47.4194 47.5527C45.659 48.2018 44.622 45.4787 46.4901 44.8546ZM46.5579 44.1829C43.776 44.7571 44.7089 48.7819 47.3712 48.222C49.9878 47.6717 49.1846 43.6404 46.5579 44.1829ZM36.8527 44.8469C38.6845 44.2877 39.4853 46.8977 37.7897 47.5438C35.9847 48.2315 34.9983 45.4133 36.8527 44.8469ZM36.8765 44.1943C34.1183 44.835 35.147 48.7765 37.7219 48.2202C38.7535 47.9977 39.5573 47.0238 39.2997 45.7524C39.1045 44.7868 38.077 43.9158 36.8765 44.1943ZM38.3751 46.608C38.65 45.9523 38.1628 45.2984 37.7374 45.1253C37.0633 44.8499 36.3975 45.2622 36.2089 45.7691C35.6777 47.1957 37.7623 48.0679 38.3751 46.608ZM46.5091 45.145C45.8101 45.468 45.6173 46.11 45.8755 46.6763C46.0885 47.1428 46.7037 47.5807 47.4021 47.2635C48.7693 46.6424 47.8614 44.5191 46.5091 45.145Z" fill="black"/>
<defs>
<linearGradient id="paint0_linear_236_2965" x1="117.902" y1="83.4574" x2="2.09863" y2="83.4574" gradientUnits="userSpaceOnUse">
<stop stop-color="#00C7D4"/>
<stop offset="1" stop-color="#02E7BD"/>
</linearGradient>
</defs>
</svg>
