<svg width="118" height="118" viewBox="0 0 118 118" fill="none" xmlns="http://www.w3.org/2000/svg">
<path d="M116.803 1H1V116.803H116.803V1Z" fill="url(#paint0_linear_452_9271)"/>
<path fill-rule="evenodd" clip-rule="evenodd" d="M1.09863 94.706C13.1426 94.5805 36.8617 94.1917 40.9519 93.918C46.5146 93.545 72.6139 92.8007 80.316 92.8007C88.0181 92.8007 94.1686 90.6809 106.417 92.4283C110.306 92.9833 113.709 93.6741 116.544 94.3577C116.778 93.5671 116.902 92.7394 116.902 91.8869V1.09818L1.09863 1.0979V91.8869C1.09863 92.8233 1.09863 93.9998 1.09863 94.706Z" fill="black" fill-opacity="0.2"/>
<path fill-rule="evenodd" clip-rule="evenodd" d="M1.09863 88.4871C13.9345 87.4531 39.7929 85.4482 43.9468 85.726C49.5095 86.0984 64.9131 87.5876 70.0474 87.9601C75.1817 88.3325 88.8737 84.6087 95.2919 84.6087C99.4232 84.6087 109.934 85.9974 116.902 86.9868V1.09814L1.09863 1.09825V88.4871Z" fill="black" fill-opacity="0.2"/>
<path fill-rule="evenodd" clip-rule="evenodd" d="M1.09863 83.059C13.85 81.9488 37.9165 79.9998 45.4032 80.4073C55.7557 80.9707 71.2849 82.3783 71.2849 82.3783C71.2849 82.3783 83.9023 80.1259 91.6669 79.2811C97.7972 78.6142 109.976 79.3524 116.902 80.5233V1.09793L1.09863 1.09766V83.059Z" fill="black" fill-opacity="0.2"/>
<path fill-rule="evenodd" clip-rule="evenodd" d="M1 1.0979H116.803V70.6053C109.237 70.2799 96.6258 69.6391 93.5095 68.8639C88.9803 67.7376 74.7452 65.2039 67.6279 62.9508C60.5107 60.6984 42.0693 62.388 33.3344 62.67C27.4731 62.8592 11.1235 66.4717 1 68.827V1.0979Z" fill="black" fill-opacity="0.2"/>
<path fill-rule="evenodd" clip-rule="evenodd" d="M1.09863 62.0736C9.65208 59.8616 23.0727 56.6923 33.433 55.6309C49.9325 53.9419 57.3728 53.9419 68.0496 55.9129C78.7264 57.8833 90.0499 62.9511 98.4611 63.2331C104.731 63.4425 113.064 63.3396 116.902 63.2741V1.09817L1.09863 1.09814V62.0736Z" fill="black" fill-opacity="0.2"/>
<path fill-rule="evenodd" clip-rule="evenodd" d="M1.09863 40.4733C8.3093 40.9612 17.8795 41.574 23.0799 41.7596C32.1384 42.0832 42.1679 41.4359 54.4618 42.7299C66.7556 44.0239 73.2262 43.053 85.52 44.0239C97.8139 44.9948 100.569 46.2889 109.785 46.2889C112.321 46.2889 114.735 46.4358 116.902 46.6488V1.09814L1.09863 1.0984V40.4733Z" fill="black" fill-opacity="0.2"/>
<path fill-rule="evenodd" clip-rule="evenodd" d="M1.09863 1.09814H116.902V30.0592C111.994 29.6767 104.745 29.0859 100.402 28.1715C94.2555 26.8775 84.5496 26.8769 77.7554 27.5242C70.9612 28.1715 60.285 33.6711 55.4321 33.9947C50.5792 34.3184 30.1977 33.3475 22.1095 33.0238C17.4393 32.837 8.13201 33.1898 1.09863 33.5211V1.09814Z" fill="black" fill-opacity="0.2"/>
<path fill-rule="evenodd" clip-rule="evenodd" d="M1 1.09814H116.803V18.9344C107.977 19.812 92.7296 20.1522 89.627 19.4359C85.4208 18.465 77.3331 18.7893 74.4215 20.4069C71.5099 22.0245 50.8042 24.6126 44.9809 24.6126C40.5784 24.6126 13.8037 25.167 1 25.4377V1.09814Z" fill="black" fill-opacity="0.2"/>
<path d="M24.5191 1.09814H18.8999V94.3062H24.5191V1.09814Z" fill="black"/>
<path fill-rule="evenodd" clip-rule="evenodd" d="M19.8721 94.3062V1.09814H23.5494C23.5494 32.1677 23.5494 63.2366 23.5494 94.3062C23.5494 97.2987 26.9465 102.182 29.8849 102.182H109.996V105.859C80.7451 105.859 58.401 105.859 29.1502 105.859C24.7726 105.859 19.8721 99.9016 19.8721 94.3062Z" fill="white"/>
<path d="M116.804 116.826V1.02344C116.798 1.02327 1 1 1 1V116.826H116.804ZM117.804 117.826H0V1.48962e-10H1V1C1.0002 0 1.00195 1.48962e-10 1.00195 1.48962e-10H2.30078C3.14885 0.000170446 4.39263 0.00065833 5.97559 0.000976563C9.14195 0.00161312 13.6657 0.00281425 19.0938 0.00390625C29.9499 0.00609024 44.4253 0.00879968 58.9004 0.0117188C87.8299 0.0175527 116.812 0.0227125 116.835 0.0234375L117.804 0.0537109V117.826Z" fill="black"/>
<defs>
<linearGradient id="paint0_linear_452_9271" x1="116.803" y1="58.9017" x2="1" y2="58.9017" gradientUnits="userSpaceOnUse">
<stop stop-color="#00C7D4"/>
<stop offset="1" stop-color="#02E7BD"/>
</linearGradient>
</defs>
</svg>
