<svg width="120" height="120" viewBox="0 0 120 120" fill="none" xmlns="http://www.w3.org/2000/svg">
<path fill-rule="evenodd" clip-rule="evenodd" d="M13.581 2.09814H106.42C112.735 2.09814 117.902 7.2652 117.902 13.5805V106.419C117.902 112.734 112.735 117.901 106.42 117.901H13.581C7.26569 117.901 2.09863 112.734 2.09863 106.419V13.5805C2.09863 7.2652 7.26569 2.09814 13.581 2.09814Z" fill="white"/>
<path fill-rule="evenodd" clip-rule="evenodd" d="M2.09814 22.1388H24.1996V117.901H26.2985V22.1388H67.1275V117.901H69.2264V22.1388H117.901V13.9969C117.901 7.4526 112.547 2.09814 106.003 2.09814H13.9969C7.4526 2.09814 2.09814 7.4526 2.09814 13.9969V22.1388Z" fill="black" fill-opacity="0.2"/>
<path fill-rule="evenodd" clip-rule="evenodd" d="M99.8203 7.90894H106.51C106.986 7.90894 107.374 8.29751 107.374 8.77346V15.4629C107.374 15.9389 106.986 16.3273 106.51 16.3273H99.8203C99.3444 16.3273 98.9559 15.9389 98.9559 15.4629V8.77346C98.9559 8.29751 99.3444 7.90894 99.8203 7.90894ZM74.2082 7.90894H80.8977C81.3736 7.90894 81.7621 8.29751 81.7621 8.77346V15.4629C81.7621 15.9389 81.3736 16.3273 80.8977 16.3273H74.2082C73.7322 16.3273 73.3438 15.9389 73.3438 15.4629V8.77346C73.3438 8.29751 73.7322 7.90894 74.2082 7.90894ZM87.0142 7.90894H93.7038C94.1797 7.90894 94.5682 8.29751 94.5682 8.77346V15.4629C94.5682 15.9389 94.1797 16.3273 93.7038 16.3273H87.0142C86.5383 16.3273 86.1498 15.9389 86.1498 15.4629V8.77346C86.1498 8.29751 86.5383 7.90894 87.0142 7.90894Z" fill="url(#paint0_linear_236_3116)"/>
<path d="M36.2602 21.9524L38.2942 26.7743C38.3638 26.9397 38.3353 27.117 38.2336 27.2539L36.0501 30.5624L40.7894 34.527C41.0227 34.7227 41.0387 35.0547 40.8234 35.2671L38.1116 38.0217L57.9529 40.1242C58.2688 40.1569 58.496 40.4169 58.4597 40.7043C58.4324 40.9214 58.2628 41.0922 58.0451 41.1487L39.637 45.9088L52.0986 48.0815C52.411 48.1357 52.6163 48.4106 52.5568 48.6944C52.5115 48.9091 52.3277 49.068 52.1058 49.1097L42.2012 51.4721L62.2644 54.9239C62.5767 54.9769 62.7826 55.2512 62.7243 55.535C62.6761 55.7694 62.4613 55.9383 62.212 55.9597L45.2027 57.9849L37.7029 59.9334L40.5794 62.2584C40.8168 62.4506 40.8376 62.7825 40.6264 62.9985C40.5776 63.0479 40.5217 63.0865 40.461 63.115L37.193 64.8987L42.9634 68.5064C43.2245 68.6706 43.2906 68.9973 43.1097 69.2347C43.0597 69.3013 42.9949 69.3536 42.9229 69.3911L39.8703 71.1099L53.1309 73.7894C53.4409 73.8513 53.6366 74.131 53.5687 74.4124C53.5313 74.5677 53.42 74.6921 53.2766 74.7617L48.1203 77.255L59.4438 79.7068C59.7537 79.7734 59.9459 80.0565 59.8727 80.338C59.8281 80.5081 59.6966 80.6396 59.5312 80.7021L49.1775 84.9482C49.1281 84.9684 49.0781 84.9814 49.0276 84.9886L38.3972 86.9942L32.6828 90.7286L35.7515 92.4909L44.2044 94.5041C44.5114 94.5767 44.6964 94.8628 44.6167 95.1418C44.5727 95.2953 44.4579 95.4156 44.3115 95.4804L37.4096 98.5431L50.0925 101.344C50.4007 101.412 50.5905 101.695 50.5161 101.975C50.456 102.201 50.2418 102.357 49.9997 102.373L36.5416 103.329L45.5216 107.109C45.8101 107.23 45.9356 107.542 45.803 107.804C45.7417 107.925 45.6358 108.014 45.5121 108.063L34.4188 112.529L44.8077 115.95L56.3376 117.383L56.1847 118.421L44.5929 116.98L44.4733 116.953L32.703 113.078C32.5501 113.034 32.4181 112.932 32.3479 112.788C32.22 112.524 32.352 112.214 32.643 112.098L43.8831 107.574L34.0815 103.447C33.8858 103.375 33.74 103.206 33.724 103C33.7008 102.712 33.9393 102.46 34.2564 102.439L46.3099 101.585L35.6254 99.225C35.4487 99.1976 35.2881 99.0958 35.2036 98.9382C35.0644 98.6782 35.1833 98.3641 35.4695 98.2374L42.4112 95.1586L35.3904 93.4861C35.3291 93.4736 35.2684 93.4511 35.2125 93.419L31.3483 91.1998C31.2882 91.1641 31.2329 91.1188 31.1889 91.0623C31.0033 90.8285 31.0622 90.5013 31.3198 90.3329L37.8023 86.0953C37.8713 86.0453 37.954 86.009 38.045 85.9917L48.7575 83.9707L57.5335 80.3713L46.3676 77.954C46.2117 77.9201 46.0719 77.8279 45.9904 77.6893C45.8417 77.4335 45.9488 77.1158 46.2302 76.9801L51.3586 74.5022L38.2604 71.8553C38.1069 71.8291 37.9647 71.7464 37.8766 71.6162C37.7094 71.3704 37.7933 71.048 38.0634 70.8963L41.5837 68.9145L35.8021 65.2997C35.7366 65.258 35.6789 65.2039 35.6349 65.1372C35.4719 64.8897 35.5617 64.568 35.8336 64.4198L39.2271 62.5683L36.1656 60.0928C36.0799 60.028 36.0138 59.9393 35.9811 59.8346C35.8943 59.5562 36.0721 59.2658 36.3779 59.1867L44.9189 56.9675L58.5157 55.3446L39.48 52.0695C39.2682 52.0326 39.0867 51.8885 39.029 51.6863C38.9493 51.4072 39.1343 51.1211 39.4413 51.0486L49.3887 48.6759L37.0645 46.527C36.8462 46.4985 36.6552 46.3568 36.5909 46.151C36.5041 45.8726 36.682 45.5822 36.9878 45.5031L54.9442 40.8608L36.8765 38.9463C36.7623 38.9332 36.651 38.8903 36.5588 38.8153C36.3226 38.6232 36.3024 38.2918 36.5136 38.077L39.5918 34.9488L34.9257 31.0449C34.73 30.8801 34.68 30.607 34.8216 30.391L37.1181 26.9112L35.1833 22.326L36.2602 21.9524Z" fill="url(#paint1_linear_236_3116)"/>
<path d="M55.7431 21.7205C55.7598 21.7294 61.6527 24.8647 61.6527 28.9942C61.6527 31.5863 59.8179 32.1671 57.1627 33.0071C55.4945 33.5354 53.4538 34.1815 51.4031 35.6266C48.8633 37.4168 43.7801 38.4353 39.0664 39.3795C34.0861 40.3766 29.5468 41.2868 29.5468 42.6724C29.5468 43.5958 29.4242 44.4365 29.3082 45.2391C29.0172 47.247 28.762 49.0092 30.8021 51.5008C32.3727 53.4177 39.3877 54.6647 45.553 55.76C50.2031 56.5863 54.3956 57.3324 55.8175 58.3342C57.1775 59.2921 58.1788 60.4296 58.5667 61.4981C58.7553 62.0151 58.8023 62.5238 58.6833 62.9944C58.5578 63.4912 58.2514 63.944 57.7374 64.3212C57.2103 64.7091 56.4701 65.013 55.4903 65.1968C54.2248 65.4354 52.4865 65.5533 50.6172 65.6783C46.4187 65.9597 41.5027 66.2916 40.8268 68.0705C40.424 69.1289 39.0825 70.1331 37.7617 71.1213C36.5974 71.9923 35.4468 72.8526 35.185 73.5742C34.8923 74.3792 35.9031 75.1628 39.8683 75.9112C41.6365 76.245 43.2309 76.5347 44.5606 76.7756C47.5002 77.3087 49.1524 77.6085 50.4071 77.9982C52.0712 78.5134 52.9684 79.1453 55.0048 80.5815L55.1404 80.6772C57.4328 82.2925 56.9711 83.5729 55.4903 84.6622C54.5889 85.3249 53.289 85.8824 52.0741 86.4024C51.1163 86.8147 50.2126 87.2019 49.7045 87.5601C48.7776 88.2145 48.2041 88.8356 48.4099 89.4585C48.6443 90.1659 49.7705 90.981 52.2675 91.9971C55.0096 93.1127 57.052 94.0407 58.7321 95.0819C60.4408 96.1403 61.7717 97.3076 63.0651 98.8872C64.9254 101.157 63.9134 102.232 62.6516 103.573C62.0786 104.18 61.4432 104.855 61.1023 105.753C60.6181 107.029 59.5038 107.741 58.4388 108.421C57.1537 109.243 55.9537 110.01 56.6873 111.94C58.34 116.286 31.3494 118.416 31.2727 118.422L31.1186 117.381C31.1906 117.376 56.4886 115.378 55.2862 112.215C54.3159 109.659 55.8413 108.683 57.4774 107.638C58.3829 107.06 59.3312 106.454 59.7013 105.478C60.1058 104.414 60.8126 103.662 61.4504 102.986C62.4249 101.951 63.2055 101.121 61.8127 99.4202C60.6008 97.9412 59.3651 96.8543 57.7873 95.8768C56.1828 94.8833 54.2118 93.9879 51.5554 92.9074C48.6574 91.7283 47.3182 90.6865 46.9922 89.7001C46.6382 88.6304 47.4074 87.7154 48.6848 86.8141C49.3243 86.3637 50.3 85.9448 51.3341 85.5022C52.465 85.0191 53.6763 84.501 54.4545 83.928C55.3535 83.2671 55.6069 82.4698 54.1243 81.4251L53.9887 81.3292C52.089 79.9906 51.2543 79.4023 49.8324 78.962C48.6705 78.6015 47.0648 78.31 44.2073 77.7918C42.9615 77.5657 41.4693 77.295 39.5031 76.9238C34.4586 75.9713 33.2681 74.7147 33.7791 73.3113C34.1385 72.3219 35.4182 71.3652 36.714 70.3955C37.9086 69.5019 39.1223 68.5935 39.4257 67.7956C40.3675 65.3177 45.8249 64.9501 50.4868 64.6371C52.2883 64.5163 53.9654 64.4032 55.1256 64.1843C55.8365 64.0504 56.3529 63.8446 56.6992 63.5893C57.0008 63.3674 57.1805 63.1009 57.2543 62.81C57.3346 62.4929 57.2971 62.1359 57.1609 61.7611C56.8396 60.8764 55.9781 59.9121 54.7984 59.0804C53.6614 58.279 49.6522 57.5662 45.2062 56.7761C38.7612 55.6315 31.4291 54.3279 29.5497 52.0338C27.2658 49.2453 27.5448 47.3225 27.8619 45.1319C27.9731 44.3686 28.0892 43.569 28.0892 42.6724C28.0892 40.4932 33.1396 39.4801 38.6797 38.3705C43.2185 37.4615 48.1142 36.4798 50.3833 34.8806C52.6298 33.2975 54.8007 32.6102 56.576 32.048C58.7154 31.371 60.1951 30.9022 60.1951 28.9942C60.1951 25.3912 54.8876 22.5647 54.8727 22.557L55.7431 21.7205Z" fill="black" fill-opacity="0.5"/>
<path fill-rule="evenodd" clip-rule="evenodd" d="M74.0325 22.139C74.0325 23.471 74.0724 25.8227 74.543 28.068C74.9993 30.2449 75.8572 32.335 77.4677 33.2643C79.0443 34.174 84.4297 35.0396 90.1405 35.9552C96.6896 37.0052 103.663 38.1244 106.137 39.5528C108.527 40.9337 109.715 42.2509 110.017 43.5443C110.334 44.9043 109.703 46.1674 108.465 47.4049C107.854 48.0135 107.119 48.5953 106.396 49.167C104.639 50.5568 102.955 51.8901 103.738 53.2465C104.073 53.8278 103.794 54.3293 103.033 54.7696C101.385 55.7209 96.7027 56.674 91.7564 57.6794C85.1561 59.0216 78.0656 60.4643 77.7134 61.7797C77.3452 63.1558 77.9806 64.4575 78.9753 65.5731C80.0343 66.7606 81.4919 67.7392 82.6461 68.4049C83.294 68.7786 84.5023 69.2325 85.8796 69.7477C89.4861 71.0989 94.1927 72.8629 94.1927 75.3314C94.1927 78.2834 93.6893 78.5701 89.6652 80.8618L88.1963 81.7026C87.2955 82.2225 86.2877 82.7663 85.243 83.3291C82.3016 84.9152 79.0449 86.6714 77.407 88.3093C76.4628 89.2535 76.1089 90.1364 76.8383 90.8658C78.2459 92.2734 82.2123 93.3764 86.1128 94.461C90.0239 95.5485 93.8744 96.6195 95.3338 98.0788C96.4285 99.1735 98.108 99.8196 99.8422 100.486C102.383 101.462 105.04 102.484 106.511 105.032C106.976 105.834 107.179 106.559 107.179 107.206C107.179 107.869 106.969 108.446 106.61 108.944C106.268 109.417 105.791 109.811 105.235 110.132C103.719 111.009 101.559 111.367 99.9559 111.367C98.0675 111.367 93.1348 111.897 89.5682 112.935C87.4615 113.548 85.8695 114.29 85.8695 115.096C85.8695 116.458 89.4641 117.374 92.4703 117.902H106.003C112.547 117.902 117.902 112.547 117.902 106.003V13.9971C117.902 7.45278 112.547 2.09832 106.003 2.09832H13.9972C7.45284 2.09832 2.09838 7.45278 2.09838 13.9971V106.003C2.09838 112.547 7.45284 117.902 13.9972 117.902H88.3985C86.4037 117.226 84.82 116.308 84.82 115.096C84.82 113.708 86.7375 112.67 89.2767 111.931C92.9457 110.863 98.0158 110.318 99.9559 110.318C101.419 110.318 103.372 110.001 104.711 109.227C105.147 108.977 105.511 108.679 105.761 108.333C105.993 108.012 106.13 107.637 106.13 107.206C106.13 106.733 105.97 106.185 105.607 105.556C104.321 103.327 101.84 102.372 99.4686 101.462C97.6225 100.752 95.8347 100.065 94.5913 98.8212C93.3223 97.5522 89.6075 96.5189 85.8344 95.4701C81.7983 94.348 77.6944 93.2069 76.0958 91.6083C74.8221 90.3345 75.2718 88.9595 76.6646 87.5668C78.4042 85.8272 81.7364 84.0299 84.7468 82.407C85.7939 81.8429 86.8035 81.298 87.6715 80.797L89.1488 79.9515C92.6994 77.9299 93.1432 77.676 93.1432 75.3314C93.1432 73.5852 88.8245 71.9669 85.5143 70.7271C84.0948 70.1958 82.8484 69.7281 82.1249 69.3105C80.894 68.6001 79.3364 67.5531 78.1923 66.2704C76.984 64.9157 76.2225 63.2975 76.7009 61.5097C77.2203 59.5696 84.6398 58.0595 91.547 56.6549C96.4065 55.6667 101.007 54.731 102.508 53.8641C102.69 53.7588 102.859 53.8147 102.832 53.7677C101.6 51.6319 103.63 50.0232 105.749 48.3472C106.441 47.7999 107.146 47.2423 107.723 46.6647C108.704 45.6812 109.217 44.7288 108.997 43.7822C108.762 42.7684 107.729 41.6792 105.614 40.4583C103.305 39.1263 96.4314 38.0233 89.9763 36.9881C84.1685 36.0564 78.6915 35.177 76.9466 34.1698C75.0213 33.0584 74.0272 30.7072 73.5185 28.281C73.0247 25.9257 72.9831 23.5073 72.9831 22.139H74.0325ZM6.43546 108.334L7.02331 108.253C7.09113 108.587 7.20475 108.828 7.36598 108.975C7.52721 109.122 7.72534 109.195 7.96034 109.195C8.23877 109.195 8.47375 109.099 8.66294 108.908C8.85213 108.716 8.9467 108.48 8.9467 108.197C8.9467 107.927 8.85869 107.704 8.682 107.529C8.50589 107.354 8.28215 107.266 8.00967 107.266C7.89841 107.266 7.75982 107.288 7.59443 107.331L7.65985 106.817C7.69912 106.821 7.73123 106.824 7.75444 106.824C8.0061 106.824 8.23101 106.758 8.43269 106.628C8.63319 106.498 8.73312 106.297 8.73312 106.027C8.73312 105.812 8.65938 105.634 8.51362 105.492C8.36786 105.351 8.17983 105.281 7.94959 105.281C7.71995 105.281 7.52956 105.353 7.37725 105.498C7.22435 105.643 7.12682 105.86 7.08339 106.149L6.49559 106.042C6.56758 105.648 6.72997 105.342 6.9852 105.125C7.23924 104.908 7.55634 104.8 7.93472 104.8C8.1953 104.8 8.43568 104.856 8.65521 104.968C8.87593 105.079 9.04368 105.232 9.15969 105.424C9.2763 105.618 9.33463 105.823 9.33463 106.04C9.33463 106.246 9.2787 106.433 9.16864 106.603C9.05738 106.771 8.89258 106.906 8.67543 107.006C8.95803 107.071 9.17756 107.207 9.33463 107.413C9.4905 107.617 9.56842 107.876 9.56842 108.184C9.56842 108.602 9.41554 108.957 9.11153 109.248C8.80692 109.538 8.4214 109.683 7.95616 109.683C7.53613 109.683 7.18807 109.557 6.91083 109.306C6.6324 109.056 6.47413 108.732 6.43546 108.334ZM9.51491 37.508V38.0691H6.3486C6.34384 37.9275 6.36705 37.7918 6.41762 37.6603C6.49853 37.4455 6.62886 37.2331 6.80794 37.0249C6.98761 36.8167 7.24343 36.5764 7.57659 36.3033C8.09419 35.8767 8.44581 35.5393 8.62965 35.29C8.81467 35.0408 8.90684 34.8045 8.90684 34.582C8.90684 34.3494 8.82355 34.1538 8.65637 33.9931C8.4892 33.8337 8.2709 33.7539 8.00258 33.7539C7.71879 33.7539 7.49151 33.8384 7.32136 34.0073C7.15121 34.1757 7.06555 34.4096 7.06317 34.7088L6.46166 34.6487C6.50331 34.199 6.65916 33.8562 6.92867 33.62C7.19877 33.3838 7.56051 33.2661 8.01623 33.2661C8.47493 33.2661 8.83905 33.3928 9.10618 33.648C9.3745 33.9027 9.50777 34.2192 9.50777 34.5952C9.50777 34.7867 9.46907 34.9753 9.38994 35.1598C9.312 35.346 9.18172 35.5405 9.00027 35.7458C8.81762 35.9492 8.51599 36.2307 8.09536 36.5871C7.74257 36.8833 7.51527 37.0838 7.41473 37.1897C7.31478 37.295 7.23209 37.401 7.16664 37.508H9.51491ZM10.1509 35.7089C10.1509 35.1443 10.2086 34.688 10.3246 34.3429C10.4412 33.9966 10.6138 33.7301 10.8434 33.5445C11.0713 33.3583 11.3598 33.2661 11.7072 33.2661C11.9631 33.2661 12.188 33.3172 12.3831 33.4207C12.5765 33.5243 12.7371 33.6736 12.8614 33.8681C12.9864 34.0621 13.0845 34.2995 13.1553 34.5786C13.2279 34.8582 13.2636 35.2354 13.2636 35.7089C13.2636 36.27 13.2059 36.7239 13.0911 37.0695C12.9762 37.4158 12.8037 37.6817 12.5741 37.8685C12.3462 38.0559 12.0565 38.1494 11.7072 38.1494C11.2474 38.1494 10.8857 37.9858 10.6227 37.6574C10.3074 37.2564 10.1509 36.6073 10.1509 35.7089ZM10.7518 35.7113C10.7518 36.4984 10.8434 37.0213 11.0266 37.2795C11.2104 37.5389 11.4377 37.6681 11.7072 37.6681C11.9767 37.6681 12.2034 37.5377 12.3872 37.2783C12.5711 37.0177 12.6621 36.496 12.6621 35.7113C12.6621 34.9236 12.5711 34.4007 12.3872 34.1425C12.2046 33.8831 11.9756 33.7539 11.7001 33.7539C11.4312 33.7539 11.2152 33.8681 11.0534 34.0966C10.8523 34.3875 10.7518 34.9259 10.7518 35.7113ZM13.8663 35.7089C13.8663 35.1443 13.924 34.688 14.04 34.3429C14.1566 33.9966 14.3291 33.7301 14.5588 33.5445C14.7866 33.3583 15.0752 33.2661 15.4227 33.2661C15.6785 33.2661 15.9033 33.3172 16.0985 33.4207C16.2918 33.5243 16.4525 33.6736 16.5768 33.8681C16.7017 34.0621 16.7999 34.2995 16.8707 34.5786C16.9433 34.8582 16.979 35.2354 16.979 35.7089C16.979 36.27 16.9213 36.7239 16.8065 37.0695C16.6916 37.4158 16.5191 37.6817 16.2895 37.8685C16.0616 38.0559 15.7719 38.1494 15.4227 38.1494C14.9628 38.1494 14.601 37.9858 14.338 37.6574C14.0227 37.2564 13.8663 36.6073 13.8663 35.7089ZM14.4671 35.7113C14.4671 36.4984 14.5588 37.0213 14.742 37.2795C14.9259 37.5389 15.1531 37.6681 15.4227 37.6681C15.6922 37.6681 15.9188 37.5377 16.1026 37.2783C16.2865 37.0177 16.3775 36.496 16.3775 35.7113C16.3775 34.9236 16.2865 34.4007 16.1026 34.1425C15.92 33.8831 15.691 33.7539 15.4155 33.7539C15.1466 33.7539 14.9306 33.8681 14.7688 34.0966C14.5677 34.3875 14.4671 34.9259 14.4671 35.7113ZM17.5817 35.7089C17.5817 35.1443 17.6394 34.688 17.7554 34.3429C17.872 33.9966 18.0445 33.7301 18.2742 33.5445C18.502 33.3583 18.7906 33.2661 19.1381 33.2661C19.3939 33.2661 19.6187 33.3172 19.8139 33.4207C20.0072 33.5243 20.1679 33.6736 20.2922 33.8681C20.4171 34.0621 20.5153 34.2995 20.5861 34.5786C20.6587 34.8582 20.6944 35.2354 20.6944 35.7089C20.6944 36.27 20.6367 36.7239 20.5219 37.0695C20.4071 37.4158 20.2345 37.6817 20.0049 37.8685C19.777 38.0559 19.4873 38.1494 19.1381 38.1494C18.6782 38.1494 18.3164 37.9858 18.0535 37.6574C17.7381 37.2564 17.5817 36.6073 17.5817 35.7089ZM18.1826 35.7113C18.1826 36.4984 18.2742 37.0213 18.4574 37.2795C18.6413 37.5389 18.8686 37.6681 19.1381 37.6681C19.4076 37.6681 19.6342 37.5377 19.8181 37.2783C20.0019 37.0177 20.0929 36.496 20.0929 35.7113C20.0929 34.9236 20.0019 34.4007 19.8181 34.1425C19.6354 33.8831 19.4064 33.7539 19.1309 33.7539C18.862 33.7539 18.646 33.8681 18.4842 34.0966C18.2831 34.3875 18.1826 34.9259 18.1826 35.7113ZM9.51491 61.3526V61.9136H6.3486C6.34384 61.772 6.36705 61.6364 6.41762 61.5049C6.49853 61.2901 6.62886 61.0778 6.80794 60.8695C6.98761 60.6613 7.24343 60.4209 7.57659 60.1478C8.09419 59.7213 8.44581 59.384 8.62965 59.1347C8.81467 58.8854 8.90684 58.6492 8.90684 58.4267C8.90684 58.1941 8.82355 57.9983 8.65637 57.8377C8.4892 57.6782 8.2709 57.5985 8.00258 57.5985C7.71879 57.5985 7.49151 57.683 7.32136 57.852C7.15121 58.0203 7.06555 58.2541 7.06317 58.5533L6.46166 58.4933C6.50331 58.0435 6.65916 57.7009 6.92867 57.4647C7.19877 57.2285 7.56051 57.1106 8.01623 57.1106C8.47493 57.1106 8.83905 57.2373 9.10618 57.4926C9.3745 57.7472 9.50777 58.0637 9.50777 58.4397C9.50777 58.6313 9.46907 58.8199 9.38994 59.0043C9.312 59.1905 9.18172 59.3852 9.00027 59.5904C8.81762 59.7939 8.51599 60.0752 8.09536 60.4316C7.74257 60.7279 7.51527 60.9284 7.41473 61.0343C7.31478 61.1396 7.23209 61.2455 7.16664 61.3526H9.51491ZM10.1509 60.6577L10.7654 60.6112C10.8107 60.9105 10.9166 61.1355 11.0814 61.2866C11.2462 61.4371 11.4479 61.5126 11.6846 61.5126C11.9708 61.5126 12.2106 61.4062 12.4051 61.1932C12.5991 60.9796 12.6955 60.697 12.6955 60.3448C12.6955 60.0098 12.6032 59.7463 12.4176 59.5523C12.2314 59.3584 11.9857 59.2613 11.6793 59.2613C11.4889 59.2613 11.3187 59.3047 11.167 59.3916C11.0165 59.4785 10.8987 59.591 10.8119 59.7291L10.2574 59.6492L10.7184 57.191H13.0899V57.752H11.1873L10.932 59.0424C11.2182 58.8407 11.5187 58.7408 11.8328 58.7408C12.2493 58.7408 12.6008 58.8854 12.887 59.1751C13.1732 59.4643 13.3171 59.8361 13.3171 60.2906C13.3171 60.7238 13.191 61.0973 12.9394 61.4127C12.6336 61.8 12.2147 61.9939 11.6846 61.9939C11.2503 61.9939 10.8963 61.8713 10.6215 61.6274C10.3466 61.3835 10.1895 61.0611 10.1509 60.6577ZM13.8663 59.5535C13.8663 58.9889 13.924 58.5326 14.04 58.1876C14.1566 57.8413 14.3291 57.5748 14.5588 57.3891C14.7866 57.2029 15.0752 57.1106 15.4227 57.1106C15.6785 57.1106 15.9033 57.1619 16.0985 57.2654C16.2918 57.3689 16.4525 57.5182 16.5768 57.7128C16.7017 57.9067 16.7999 58.1441 16.8707 58.4231C16.9433 58.7027 16.979 59.0799 16.979 59.5535C16.979 60.1145 16.9213 60.5685 16.8065 60.9142C16.6916 61.2604 16.5191 61.5263 16.2895 61.7132C16.0616 61.9006 15.7719 61.9939 15.4227 61.9939C14.9628 61.9939 14.601 61.8303 14.338 61.5019C14.0227 61.1009 13.8663 60.4518 13.8663 59.5535ZM14.4671 59.5559C14.4671 60.343 14.5588 60.8659 14.742 61.1241C14.9259 61.3835 15.1531 61.5126 15.4227 61.5126C15.6922 61.5126 15.9188 61.3824 16.1026 61.123C16.2865 60.8624 16.3775 60.3406 16.3775 59.5559C16.3775 58.7682 16.2865 58.2452 16.1026 57.987C15.92 57.7276 15.691 57.5985 15.4155 57.5985C15.1466 57.5985 14.9306 57.7128 14.7688 57.9412C14.5677 58.2321 14.4671 58.7706 14.4671 59.5559ZM17.5817 59.5535C17.5817 58.9889 17.6394 58.5326 17.7554 58.1876C17.872 57.8413 18.0445 57.5748 18.2742 57.3891C18.502 57.2029 18.7906 57.1106 19.1381 57.1106C19.3939 57.1106 19.6187 57.1619 19.8139 57.2654C20.0072 57.3689 20.1679 57.5182 20.2922 57.7128C20.4171 57.9067 20.5153 58.1441 20.5861 58.4231C20.6587 58.7027 20.6944 59.0799 20.6944 59.5535C20.6944 60.1145 20.6367 60.5685 20.5219 60.9142C20.4071 61.2604 20.2345 61.5263 20.0049 61.7132C19.777 61.9006 19.4873 61.9939 19.1381 61.9939C18.6782 61.9939 18.3164 61.8303 18.0535 61.5019C17.7381 61.1009 17.5817 60.4518 17.5817 59.5535ZM18.1826 59.5559C18.1826 60.343 18.2742 60.8659 18.4574 61.1241C18.6413 61.3835 18.8686 61.5126 19.1381 61.5126C19.4076 61.5126 19.6342 61.3824 19.8181 61.123C20.0019 60.8624 20.0929 60.3406 20.0929 59.5559C20.0929 58.7682 20.0019 58.2452 19.8181 57.987C19.6354 57.7276 19.4064 57.5985 19.1309 57.5985C18.862 57.5985 18.646 57.7128 18.4842 57.9412C18.2831 58.2321 18.1826 58.7706 18.1826 59.5559ZM6.43546 84.4892L7.02331 84.4088C7.09113 84.7426 7.20475 84.9836 7.36598 85.1305C7.52721 85.2775 7.72534 85.3506 7.96034 85.3506C8.23877 85.3506 8.47375 85.2548 8.66294 85.0633C8.85213 84.8717 8.9467 84.635 8.9467 84.3524C8.9467 84.0828 8.85869 83.8597 8.682 83.6842C8.50589 83.5093 8.28215 83.4212 8.00967 83.4212C7.89841 83.4212 7.75982 83.4432 7.59443 83.4867L7.65985 82.9727C7.69912 82.9769 7.73123 82.9792 7.75444 82.9792C8.0061 82.9792 8.23101 82.9138 8.43269 82.7836C8.63319 82.6533 8.73312 82.4527 8.73312 82.182C8.73312 81.9672 8.65938 81.7894 8.51362 81.6478C8.36786 81.5062 8.17983 81.436 7.94959 81.436C7.71995 81.436 7.52956 81.5086 7.37725 81.6532C7.22435 81.7983 7.12682 82.0154 7.08339 82.3046L6.49559 82.1974C6.56758 81.8036 6.72997 81.4972 6.9852 81.2801C7.23924 81.0635 7.55634 80.9553 7.93472 80.9553C8.1953 80.9553 8.43568 81.0112 8.65521 81.1236C8.87593 81.2349 9.04368 81.3872 9.15969 81.58C9.2763 81.7733 9.33463 81.9785 9.33463 82.1957C9.33463 82.4016 9.2787 82.5883 9.16864 82.7579C9.05738 82.9268 8.89258 83.0619 8.67543 83.1619C8.95803 83.2267 9.17756 83.3624 9.33463 83.5682C9.4905 83.7729 9.56842 84.0317 9.56842 84.3399C9.56842 84.7576 9.41554 85.1127 9.11153 85.403C8.80692 85.6934 8.4214 85.8385 7.95616 85.8385C7.53613 85.8385 7.18807 85.7124 6.91083 85.4619C6.6324 85.2115 6.47413 84.8878 6.43546 84.4892ZM10.1509 83.3981C10.1509 82.8335 10.2086 82.3772 10.3246 82.0321C10.4412 81.6858 10.6138 81.4193 10.8434 81.2337C11.0713 81.0475 11.3598 80.9553 11.7072 80.9553C11.9631 80.9553 12.188 81.0064 12.3831 81.1099C12.5765 81.2135 12.7371 81.3628 12.8614 81.5573C12.9864 81.7513 13.0845 81.9887 13.1553 82.2677C13.2279 82.5474 13.2636 82.9246 13.2636 83.3981C13.2636 83.9592 13.2059 84.413 13.0911 84.7587C12.9762 85.105 12.8037 85.3709 12.5741 85.5577C12.3462 85.7451 12.0565 85.8385 11.7072 85.8385C11.2474 85.8385 10.8857 85.675 10.6227 85.3466C10.3074 84.9456 10.1509 84.2965 10.1509 83.3981ZM10.7518 83.4005C10.7518 84.1876 10.8434 84.7105 11.0266 84.9687C11.2104 85.2281 11.4377 85.3572 11.7072 85.3572C11.9767 85.3572 12.2034 85.2269 12.3872 84.9675C12.5711 84.7069 12.6621 84.1852 12.6621 83.4005C12.6621 82.6128 12.5711 82.0899 12.3872 81.8316C12.2046 81.5723 11.9756 81.4431 11.7001 81.4431C11.4312 81.4431 11.2152 81.5573 11.0534 81.7858C10.8523 82.0767 10.7518 82.6151 10.7518 83.4005ZM13.8663 83.3981C13.8663 82.8335 13.924 82.3772 14.04 82.0321C14.1566 81.6858 14.3291 81.4193 14.5588 81.2337C14.7866 81.0475 15.0752 80.9553 15.4227 80.9553C15.6785 80.9553 15.9033 81.0064 16.0985 81.1099C16.2918 81.2135 16.4525 81.3628 16.5768 81.5573C16.7017 81.7513 16.7999 81.9887 16.8707 82.2677C16.9433 82.5474 16.979 82.9246 16.979 83.3981C16.979 83.9592 16.9213 84.413 16.8065 84.7587C16.6916 85.105 16.5191 85.3709 16.2895 85.5577C16.0616 85.7451 15.7719 85.8385 15.4227 85.8385C14.9628 85.8385 14.601 85.675 14.338 85.3466C14.0227 84.9456 13.8663 84.2965 13.8663 83.3981ZM14.4671 83.4005C14.4671 84.1876 14.5588 84.7105 14.742 84.9687C14.9259 85.2281 15.1531 85.3572 15.4227 85.3572C15.6922 85.3572 15.9188 85.2269 16.1026 84.9675C16.2865 84.7069 16.3775 84.1852 16.3775 83.4005C16.3775 82.6128 16.2865 82.0899 16.1026 81.8316C15.92 81.5723 15.691 81.4431 15.4155 81.4431C15.1466 81.4431 14.9306 81.5573 14.7688 81.7858C14.5677 82.0767 14.4671 82.6151 14.4671 83.4005ZM17.5817 83.3981C17.5817 82.8335 17.6394 82.3772 17.7554 82.0321C17.872 81.6858 18.0445 81.4193 18.2742 81.2337C18.502 81.0475 18.7906 80.9553 19.1381 80.9553C19.3939 80.9553 19.6187 81.0064 19.8139 81.1099C20.0072 81.2135 20.1679 81.3628 20.2922 81.5573C20.4171 81.7513 20.5153 81.9887 20.5861 82.2677C20.6587 82.5474 20.6944 82.9246 20.6944 83.3981C20.6944 83.9592 20.6367 84.413 20.5219 84.7587C20.4071 85.105 20.2345 85.3709 20.0049 85.5577C19.777 85.7451 19.4873 85.8385 19.1381 85.8385C18.6782 85.8385 18.3164 85.675 18.0535 85.3466C17.7381 84.9456 17.5817 84.2965 17.5817 83.3981ZM18.1826 83.4005C18.1826 84.1876 18.2742 84.7105 18.4574 84.9687C18.6413 85.2281 18.8686 85.3572 19.1381 85.3572C19.4076 85.3572 19.6342 85.2269 19.8181 84.9675C20.0019 84.7069 20.0929 84.1852 20.0929 83.4005C20.0929 82.6128 20.0019 82.0899 19.8181 81.8316C19.6354 81.5723 19.4064 81.4431 19.1309 81.4431C18.862 81.4431 18.646 81.5573 18.4842 81.7858C18.2831 82.0767 18.1826 82.6151 18.1826 83.4005ZM10.1509 108.347L10.7654 108.3C10.8107 108.6 10.9166 108.825 11.0814 108.976C11.2462 109.126 11.4479 109.202 11.6846 109.202C11.9708 109.202 12.2106 109.095 12.4051 108.882C12.5991 108.669 12.6955 108.386 12.6955 108.034C12.6955 107.699 12.6032 107.435 12.4176 107.242C12.2314 107.048 11.9857 106.951 11.6793 106.951C11.4889 106.951 11.3187 106.994 11.167 107.081C11.0165 107.168 10.8987 107.28 10.8119 107.418L10.2574 107.338L10.7184 104.88H13.0899V105.441H11.1873L10.932 106.732C11.2182 106.53 11.5187 106.43 11.8328 106.43C12.2493 106.43 12.6008 106.575 12.887 106.864C13.1732 107.153 13.3171 107.525 13.3171 107.98C13.3171 108.413 13.191 108.787 12.9394 109.102C12.6336 109.489 12.2147 109.683 11.6846 109.683C11.2503 109.683 10.8963 109.561 10.6215 109.317C10.3466 109.073 10.1895 108.75 10.1509 108.347ZM13.8663 107.243C13.8663 106.678 13.924 106.222 14.04 105.877C14.1566 105.53 14.3291 105.264 14.5588 105.078C14.7866 104.892 15.0752 104.8 15.4227 104.8C15.6785 104.8 15.9033 104.851 16.0985 104.955C16.2918 105.058 16.4525 105.207 16.5768 105.402C16.7017 105.596 16.7999 105.833 16.8707 106.112C16.9433 106.392 16.979 106.769 16.979 107.243C16.979 107.804 16.9213 108.258 16.8065 108.603C16.6916 108.95 16.5191 109.216 16.2895 109.402C16.0616 109.59 15.7719 109.683 15.4227 109.683C14.9628 109.683 14.601 109.52 14.338 109.191C14.0227 108.79 13.8663 108.141 13.8663 107.243ZM14.4671 107.245C14.4671 108.032 14.5588 108.555 14.742 108.813C14.9259 109.073 15.1531 109.202 15.4227 109.202C15.6922 109.202 15.9188 109.072 16.1026 108.812C16.2865 108.552 16.3775 108.03 16.3775 107.245C16.3775 106.457 16.2865 105.934 16.1026 105.676C15.92 105.417 15.691 105.288 15.4155 105.288C15.1466 105.288 14.9306 105.402 14.7688 105.63C14.5677 105.921 14.4671 106.46 14.4671 107.245ZM17.5817 107.243C17.5817 106.678 17.6394 106.222 17.7554 105.877C17.872 105.53 18.0445 105.264 18.2742 105.078C18.502 104.892 18.7906 104.8 19.1381 104.8C19.3939 104.8 19.6187 104.851 19.8139 104.955C20.0072 105.058 20.1679 105.207 20.2922 105.402C20.4171 105.596 20.5153 105.833 20.5861 106.112C20.6587 106.392 20.6944 106.769 20.6944 107.243C20.6944 107.804 20.6367 108.258 20.5219 108.603C20.4071 108.95 20.2345 109.216 20.0049 109.402C19.777 109.59 19.4873 109.683 19.1381 109.683C18.6782 109.683 18.3164 109.52 18.0535 109.191C17.7381 108.79 17.5817 108.141 17.5817 107.243ZM18.1826 107.245C18.1826 108.032 18.2742 108.555 18.4574 108.813C18.6413 109.073 18.8686 109.202 19.1381 109.202C19.4076 109.202 19.6342 109.072 19.8181 108.812C20.0019 108.552 20.0929 108.03 20.0929 107.245C20.0929 106.457 20.0019 105.934 19.8181 105.676C19.6354 105.417 19.4064 105.288 19.1309 105.288C18.862 105.288 18.646 105.402 18.4842 105.63C18.2831 105.921 18.1826 106.46 18.1826 107.245ZM13.9972 0H106.003C109.854 0 113.355 1.57481 115.89 4.10985C118.425 6.64489 120 10.1455 120 13.9971V106.003C120 109.854 118.425 113.355 115.89 115.89C113.355 118.425 109.854 120 106.003 120H13.9972C10.1455 120 6.64489 118.425 4.10985 115.89C1.57481 113.355 0 109.854 0 106.003V13.9971C0 10.1455 1.57481 6.64489 4.10985 4.10985C6.64489 1.57481 10.1455 0 13.9972 0Z" fill="black"/>
<defs>
<linearGradient id="paint0_linear_236_3116" x1="107.374" y1="12.1181" x2="73.3437" y2="12.1181" gradientUnits="userSpaceOnUse">
<stop stop-color="#00C7D4"/>
<stop offset="1" stop-color="#02E7BD"/>
</linearGradient>
<linearGradient id="paint1_linear_236_3116" x1="62.7342" y1="70.1866" x2="31.0806" y2="70.1866" gradientUnits="userSpaceOnUse">
<stop stop-color="#00C7D4"/>
<stop offset="1" stop-color="#02E7BD"/>
</linearGradient>
</defs>
</svg>
