<svg width="118" height="118" viewBox="0 0 118 118" fill="none" xmlns="http://www.w3.org/2000/svg">
<path fill-rule="evenodd" clip-rule="evenodd" d="M0.000976562 1.00049H115.804V116.804H0.000976562V1.00049Z" fill="white"/>
<path fill-rule="evenodd" clip-rule="evenodd" d="M0 1H25.893C27.0882 7.07969 29.1538 15.2304 32.1529 19.0665C37.2622 25.6025 41.3299 30.9695 44.8787 38.7655C48.4275 46.5616 56.5752 54.6088 60.2531 56.4257C63.931 58.2427 70.1886 64.8329 68.261 77.8264C66.3334 90.8199 65.4826 89.1581 65.9812 97.0619C66.334 102.657 70.5872 110.889 72.8159 116.803H0V1Z" fill="black" fill-opacity="0.2"/>
<path fill-rule="evenodd" clip-rule="evenodd" d="M0.00146484 1.00073H22.9435V42.7398L53.6507 68.0129V116.804H0.00146484V1.00073Z" fill="black" fill-opacity="0.2"/>
<path fill-rule="evenodd" clip-rule="evenodd" d="M66.8032 1.00049H115.805V116.804H96.8745C93.5113 108.532 88.3317 96.0469 91.7699 89.9886C96.2302 82.13 99.2031 60.6794 95.3324 57.5863C91.4617 54.4933 87.9468 43.0514 89.3277 38.8797C90.7085 34.708 90.0708 24.5743 86.1317 19.9826C79.6796 12.4613 70.7512 12.7381 66.8032 1.00049Z" fill="black" fill-opacity="0.5"/>
<path fill-rule="evenodd" clip-rule="evenodd" d="M89.498 1.00024H115.805V116.902C112.404 116.902 111.404 116.902 109.886 115.18C107.294 109.279 108.832 99.9006 107.435 94.1112C105.726 87.0279 107.924 68.464 109.417 58.1656C110.909 47.8672 104.993 39.6421 104.219 22.3365C103.446 5.0309 92.5358 7.15602 90.1043 2.3614C89.8806 1.91996 89.6795 1.4643 89.498 1.00024Z" fill="black"/>
<path d="M80.9556 115.316H78.8567V113.218H80.9556V115.316ZM80.9556 111.12H78.8567V109.021H80.9556V111.12ZM80.9556 106.923H78.8567V104.824H80.9556V106.923ZM80.9556 102.726H78.8567V100.628H80.9556V102.726ZM80.9556 98.5294H78.8567V96.431H80.9556V98.5294ZM80.9556 94.3327H78.8567V92.2343H80.9556V94.3327ZM80.9556 90.1359H78.8567V88.0376H80.9556V90.1359ZM80.9556 85.9393H78.8567V83.8409H80.9556V85.9393ZM80.9556 81.7425H78.8567V79.6442H80.9556V81.7425ZM80.9556 77.5459H78.8567V75.4475H80.9556V77.5459ZM80.9556 73.3491H78.8567V71.2508H80.9556V73.3491ZM80.9556 69.1525H78.8567V67.0541H80.9556V69.1525ZM80.9556 64.9557H78.8567V62.8574H80.9556V64.9557ZM80.9556 60.759H78.8567V58.6613H80.9556V60.759ZM80.9556 56.5629H78.8567V54.4645H80.9556V56.5629ZM80.9556 52.3662H78.8567V50.2679H80.9556V52.3662ZM80.9556 48.1696H78.8567V46.0711H80.9556V48.1696ZM80.9556 43.9728H80.5576L79.9061 44.6242H78.2052V42.5253H80.9556V43.9728ZM76.1069 42.5253V44.6242H74.0085V42.5253H76.1069ZM71.9102 42.5253V44.6242H69.8118V42.5253H71.9102ZM67.7135 42.5253V44.6242H65.6151V42.5253H67.7135ZM63.5173 42.5253V44.6242H61.419V42.5253H63.5173ZM59.3206 42.5253V44.6242H56.7778V42.9692H57.8273V42.5253H59.3206ZM58.8768 40.8707H56.7778V38.7724H58.8768V40.8707ZM58.8768 36.6747H56.7778V34.5763H58.8768V36.6747ZM58.8768 32.478H56.7778V30.3796H58.8768V32.478ZM58.8768 28.2813H56.7778V26.1829H58.8768V28.2813ZM58.8768 24.0846H56.7778V21.9862H58.8768V24.0846ZM58.8768 19.8878H56.7778V17.7895H58.8768V19.8878ZM58.8768 15.6912H56.7778V13.5928H58.8768V15.6912ZM58.8768 11.4944H56.7778V9.3961H58.8768V11.4944ZM58.8768 7.29778H56.7778V5.19934H58.8768V7.29778ZM58.8768 3.10101H56.7778V1.00269H58.8768V3.10101Z" fill="url(#paint0_linear_452_9293)"/>
<path d="M116.804 116.826V1.02344C116.798 1.02327 1 1 1 1V116.826H116.804ZM117.804 117.826H0V1.48962e-10H1V1C1.0002 0 1.00195 1.48962e-10 1.00195 1.48962e-10H2.30078C3.14885 0.000170446 4.39263 0.00065833 5.97559 0.000976563C9.14195 0.00161312 13.6657 0.00281425 19.0938 0.00390625C29.9499 0.00609024 44.4253 0.00879968 58.9004 0.0117188C87.8299 0.0175527 116.812 0.0227125 116.835 0.0234375L117.804 0.0537109V117.826Z" fill="black"/>
<defs>
<linearGradient id="paint0_linear_452_9293" x1="80.9556" y1="58.1594" x2="56.7778" y2="58.1594" gradientUnits="userSpaceOnUse">
<stop stop-color="#00C7D4"/>
<stop offset="1" stop-color="#02E7BD"/>
</linearGradient>
</defs>
</svg>
