<svg width="120" height="120" viewBox="0 0 120 120" fill="none" xmlns="http://www.w3.org/2000/svg">
<path fill-rule="evenodd" clip-rule="evenodd" d="M13.581 2.09814H106.42C112.735 2.09814 117.902 7.2652 117.902 13.5805V106.419C117.902 112.734 112.735 117.901 106.42 117.901H13.581C7.26569 117.901 2.09863 112.734 2.09863 106.419V13.5805C2.09863 7.2652 7.26569 2.09814 13.581 2.09814Z" fill="white"/>
<path fill-rule="evenodd" clip-rule="evenodd" d="M13.9969 2.09814H27.9911C29.1863 8.17783 31.2519 16.3285 34.251 20.1647C39.3604 26.7007 43.428 32.0676 46.9768 39.8637C50.5256 47.6598 58.6733 55.7069 62.3513 57.5239C66.0292 59.3408 72.2867 65.931 70.3591 78.9245C68.4315 91.918 67.5808 90.2562 68.0794 98.16C68.4322 103.755 72.6854 111.987 74.914 117.901H13.9969C7.4526 117.901 2.09814 112.547 2.09814 106.003V13.9969C2.09814 7.4526 7.4526 2.09814 13.9969 2.09814Z" fill="black" fill-opacity="0.2"/>
<path fill-rule="evenodd" clip-rule="evenodd" d="M13.9969 2.09814H25.0402V43.8372L55.7474 69.1103V117.901H13.9969C7.4526 117.901 2.09814 112.547 2.09814 106.003V13.9969C2.09814 7.4526 7.4526 2.09814 13.9969 2.09814Z" fill="black" fill-opacity="0.2"/>
<path fill-rule="evenodd" clip-rule="evenodd" d="M68.8994 2.09814H106.003C112.547 2.09814 117.902 7.4526 117.902 13.9969V106.003C117.902 112.547 112.547 117.901 106.003 117.901H98.9707C95.6075 109.629 90.4279 97.1445 93.8661 91.0863C98.3263 83.2277 101.299 61.7771 97.4286 58.684C93.5579 55.5909 90.043 44.1491 91.4239 39.9773C92.8047 35.8056 92.167 25.672 88.2279 21.0802C81.7757 13.559 72.8474 13.8357 68.8994 2.09814Z" fill="black" fill-opacity="0.5"/>
<path fill-rule="evenodd" clip-rule="evenodd" d="M91.5942 2.09814H106.002C112.547 2.09814 117.901 7.4526 117.901 13.9969V106.003C117.901 110.371 115.515 114.209 111.982 116.278C109.391 110.377 110.929 100.998 109.532 95.2091C107.822 88.1258 110.02 69.5619 111.513 59.2635C113.006 48.9651 107.089 40.74 106.315 23.4344C105.542 6.1288 94.632 8.25392 92.2004 3.4593C91.9768 3.01786 91.7757 2.5622 91.5942 2.09814Z" fill="black"/>
<path d="M83.0518 116.414H80.9529V114.316H83.0518V116.414ZM83.0518 112.217H80.9529V110.119H83.0518V112.217ZM83.0518 108.02H80.9529V105.922H83.0518V108.02ZM83.0518 103.824H80.9529V101.725H83.0518V103.824ZM83.0518 99.627H80.9529V97.5287H83.0518V99.627ZM83.0518 95.4304H80.9529V93.3319H83.0518V95.4304ZM83.0518 91.2336H80.9529V89.1353H83.0518V91.2336ZM83.0518 87.0369H80.9529V84.9385H83.0518V87.0369ZM83.0518 82.8402H80.9529V80.7419H83.0518V82.8402ZM83.0518 78.6435H80.9529V76.5452H83.0518V78.6435ZM83.0518 74.4468H80.9529V72.3484H83.0518V74.4468ZM83.0518 70.2501H80.9529V68.1518H83.0518V70.2501ZM83.0518 66.0534H80.9529V63.955H83.0518V66.0534ZM83.0518 61.8567H80.9529V59.759H83.0518V61.8567ZM83.0518 57.6605H80.9529V55.5622H83.0518V57.6605ZM83.0518 53.4639H80.9529V51.3655H83.0518V53.4639ZM83.0518 49.2672H80.9529V47.1688H83.0518V49.2672ZM83.0518 45.0704H82.6538L82.0023 45.7219H80.3014V43.623H83.0518V45.0704ZM78.2031 43.623V45.7219H76.1047V43.623H78.2031ZM74.0064 43.623V45.7219H71.908V43.623H74.0064ZM69.8096 43.623V45.7219H67.7113V43.623H69.8096ZM65.6135 43.623V45.7219H63.5152V43.623H65.6135ZM61.4168 43.623V45.7219H58.874V44.0668H59.9235V43.623H61.4168ZM60.973 41.9684H58.874V39.8701H60.973V41.9684ZM60.973 37.7723H58.874V35.674H60.973V37.7723ZM60.973 33.5757H58.874V31.4772H60.973V33.5757ZM60.973 29.3789H58.874V27.2806H60.973V29.3789ZM60.973 25.1823H58.874V23.0838H60.973V25.1823ZM60.973 20.9855H58.874V18.8872H60.973V20.9855ZM60.973 16.7888H58.874V14.6904H60.973V16.7888ZM60.973 12.5921H58.874V10.4938H60.973V12.5921ZM60.973 8.39543H58.874V6.29699H60.973V8.39543ZM60.973 4.19867H58.874V2.10034H60.973V4.19867Z" fill="url(#paint0_linear_236_3106)"/>
<path fill-rule="evenodd" clip-rule="evenodd" d="M13.9972 0H106.003C109.854 0 113.355 1.57481 115.89 4.10985C118.425 6.64489 120 10.1456 120 13.9972V106.003C120 109.854 118.425 113.355 115.89 115.89C113.355 118.425 109.854 120 106.003 120H13.9972C10.1455 120 6.64489 118.425 4.10985 115.89C1.57481 113.355 0 109.854 0 106.003V13.9972C0 10.1456 1.57481 6.64489 4.10985 4.10985C6.64489 1.57481 10.1455 0 13.9972 0ZM13.9972 2.09844H106.003C112.547 2.09844 117.902 7.4529 117.902 13.9972V106.003C117.902 112.547 112.547 117.902 106.003 117.902H13.9972C7.45284 117.902 2.09838 112.547 2.09838 106.003V13.9972C2.09838 7.4529 7.45284 2.09844 13.9972 2.09844Z" fill="#2B2A29"/>
<defs>
<linearGradient id="paint0_linear_236_3106" x1="83.0518" y1="59.2571" x2="58.874" y2="59.2571" gradientUnits="userSpaceOnUse">
<stop stop-color="#00C7D4"/>
<stop offset="1" stop-color="#02E7BD"/>
</linearGradient>
</defs>
</svg>
