<svg width="222" height="65" viewBox="0 0 222 65" fill="none" xmlns="http://www.w3.org/2000/svg">
<path d="M23.7656 14.6444C23.7661 14.6336 23.7656 14.6228 23.7636 14.6127C23.767 14.6209 23.767 14.6327 23.7656 14.6444C23.7652 14.6556 23.7637 14.6667 23.7618 14.6766C23.7599 14.6868 23.7533 14.6953 23.7512 14.7051C23.75 14.7103 23.751 14.7007 23.751 14.7007C23.7513 14.6924 23.7567 14.6853 23.7589 14.6773C23.7613 14.669 23.7642 14.6567 23.7656 14.6444Z" fill="white"/>
<path fill-rule="evenodd" clip-rule="evenodd" d="M24.3472 7.37158C25.0365 6.65248 26.1706 6.66926 26.8374 7.41052C28.3775 9.12263 32.6318 13.9966 36.7225 19.9938C40.7932 25.9617 44.7888 33.1651 45.6819 39.5154C46.688 46.6697 44.5926 51.8513 40.7867 55.264C37.0212 58.6404 31.6905 60.1887 26.3642 60.3549C20.9022 60.5253 15.2685 59.421 11.2304 56.17C7.13665 52.8743 4.84292 47.5044 5.84315 39.5282C6.72928 32.4619 10.6251 25.2061 14.6184 19.3692C18.6248 13.5131 22.7975 8.98822 24.3472 7.37158ZM14.1955 31.8869L13.4193 33.5426C12.1265 36.2235 11.6322 38.1805 11.2969 40.8562C10.5943 46.4637 12.2146 49.7717 14.6348 51.7215C16.2273 53.0046 18.2984 53.8076 20.6048 54.1959C20.77 54.2028 20.9377 54.2102 21.1076 54.2176L21.1089 54.2177C23.8235 54.3364 27.0924 54.4794 29.821 53.5552C31.2746 53.0628 32.2515 52.4916 32.8823 51.0957C33.2771 50.2221 32.6342 48.3241 32.146 47.8388C30.315 46.2565 27.6801 44.3598 24.0195 42.1137C21.5733 40.6126 19.7811 39.2679 18.5642 38.0545C17.3939 36.8874 16.5287 35.6187 16.4249 34.2606C16.3046 32.6869 17.2184 31.5811 18.2751 30.9407C19.2699 30.3379 20.5441 30.0245 21.8014 29.8679C24.3526 29.55 27.523 29.7976 30.1726 30.4196C31.501 30.7315 32.7776 31.1556 33.8169 31.6996C34.7778 32.2027 35.8878 32.9892 36.3251 34.201C36.343 34.2506 36.3585 34.3005 36.3716 34.3505C36.1145 34.1967 35.7875 34.0102 35.6313 33.9326C35.6313 33.9326 34.898 33.6501 34.3451 33.4211C33.7586 33.1781 32.8875 32.9096 32.8875 32.9096C32.2015 32.6823 30.3154 32.398 30.3154 32.398C30.3154 32.398 27.2283 31.9718 26.9711 31.9718H24.4845C23.77 31.9718 21.373 32.3313 20.3687 33.1653C20.3237 33.2026 20.2838 33.2355 20.2483 33.2648L20.2474 33.2656L20.2465 33.2663C20.0534 33.4257 19.9912 33.4769 19.9568 33.5426C19.9405 33.5738 19.9305 33.6082 19.9156 33.659C19.9022 33.7051 19.8848 33.7646 19.8552 33.8473C19.778 34.0636 19.9156 34.3841 20.0271 34.5736C20.1845 34.841 20.5247 35.1122 21.0271 35.6132C21.9747 36.5582 23.5137 37.74 25.8461 39.1712C31.5082 42.6455 35.1029 45.4969 37.0752 47.8699C38.0633 49.0588 38.7423 50.2429 38.9862 51.4267C39.2448 52.6825 38.9917 53.8529 38.2811 54.8211C37.6163 55.7269 36.644 56.3318 35.6571 56.7486C34.6554 57.1716 33.5059 57.4566 32.3243 57.6468C29.9863 58.0232 27.3064 58.0622 24.9069 57.9218C20.5241 58.0462 15.8592 57.1586 12.4452 54.4079C8.89919 51.551 7.02817 46.9537 7.84581 40.4287C8.66263 33.9102 12.5804 27.2904 16.1239 22.4307C17.9171 19.9714 19.6595 17.9029 20.954 16.4484C21.6019 15.7204 22.1392 15.1444 22.5169 14.7481C22.7058 14.5499 22.8548 14.3966 22.9579 14.2915C23.0095 14.239 23.0495 14.1985 23.0774 14.1705C23.0913 14.1565 23.1021 14.1456 23.1098 14.1379L23.119 14.1288L23.1227 14.1251C23.1227 14.1251 23.123 14.1248 23.2122 14.2134L22.9414 14.7517L22.5985 15.3485L21.9983 16.4567L20.4549 19.1847L19.3402 21.1455L17.8825 23.9587L17.1108 25.5784L16.3391 27.2834L15.5674 28.8179L14.7957 30.4376L14.1955 31.8869ZM23.1227 14.1251L23.2122 14.2134L23.3537 13.932C23.2728 13.9885 23.1951 14.0533 23.1227 14.1251Z" fill="white"/>
<path fill-rule="evenodd" clip-rule="evenodd" d="M26.8538 0.541194C26.1959 -0.156859 25.0991 -0.188477 24.4086 0.497858C22.6333 2.26245 17.3022 7.74775 12.1307 14.9373C6.97457 22.1054 1.89962 31.0724 0.760242 39.7887C-0.506471 49.4791 2.40251 55.961 7.53526 59.9252C12.6049 63.8406 19.694 65.1817 26.6002 64.975C33.327 64.7736 40.037 62.8982 44.7688 58.8279C49.5468 54.7179 52.201 48.4594 50.928 39.7754C49.7815 31.9551 44.5866 23.0501 39.3332 15.7117C34.0569 8.34134 28.6227 2.41818 26.8538 0.541194ZM13.5451 15.943C18.6119 8.89912 23.8406 3.50917 25.6092 1.74916C27.3776 3.62695 32.7278 9.4663 37.9165 16.7142C43.152 24.0276 48.1252 32.6432 49.2072 40.0247C50.4036 48.186 47.9152 53.8353 43.631 57.5205C39.3007 61.2455 33.0292 63.0529 26.5478 63.2469C19.8446 63.4475 13.2231 62.1289 8.60202 58.5598C4.044 55.0396 1.28192 49.2123 2.48464 40.0115C3.56741 31.7283 8.4352 23.0469 13.5451 15.943Z" fill="white"/>
<path d="M179.799 49.588H185.57V52.2904H175.558V49.8691L180.848 44.6372C181.985 43.513 182.378 42.8644 182.378 41.8483C182.378 40.7457 181.657 40.0755 180.52 40.0755C179.209 40.0755 178.509 40.8754 178.509 42.5185H175.493C175.493 39.2539 177.416 37.3731 180.52 37.3731C183.471 37.3731 185.526 39.1675 185.526 41.6537C185.526 43.5562 184.761 44.6588 182.837 46.5613L179.799 49.588Z" fill="white"/>
<path d="M192.506 52.5066C188.964 52.5066 186.932 49.761 186.932 44.9398C186.932 40.1187 188.964 37.3731 192.506 37.3731C196.047 37.3731 198.08 40.1187 198.08 44.9398C198.08 49.761 196.047 52.5066 192.506 52.5066ZM192.506 49.8042C194.145 49.8042 194.932 48.2476 194.932 44.9398C194.932 41.6321 194.145 40.0755 192.506 40.0755C190.866 40.0755 190.079 41.6321 190.079 44.9398C190.079 48.2476 190.866 49.8042 192.506 49.8042Z" fill="white"/>
<path d="M203.655 49.588H209.425V52.2904H199.414V49.8691L204.704 44.6372C205.84 43.513 206.234 42.8644 206.234 41.8483C206.234 40.7457 205.513 40.0755 204.376 40.0755C203.064 40.0755 202.365 40.8754 202.365 42.5185H199.348C199.348 39.2539 201.272 37.3731 204.376 37.3731C207.327 37.3731 209.382 39.1675 209.382 41.6537C209.382 43.5562 208.617 44.6588 206.693 46.5613L203.655 49.588Z" fill="white"/>
<path d="M216.689 42.3239C219.465 42.3239 221.498 44.2913 221.498 47.2099C221.498 50.3231 219.181 52.5066 216.033 52.5066C213.126 52.5066 210.94 50.6257 210.634 47.9233H213.804C214 49.0691 214.809 49.8042 216.033 49.8042C217.476 49.8042 218.35 48.8313 218.35 47.3828C218.35 45.9343 217.476 44.9182 216.033 44.9182C215.137 44.9182 214.306 45.3722 213.957 46.1289H210.984L212.011 37.5893H220.493V40.2917H214.394L214.066 43.059C214.722 42.5833 215.596 42.3239 216.689 42.3239Z" fill="white"/>
<path d="M68.2861 52.5545C64.0454 52.5545 61.6628 50.5871 61.6628 47.0416V37.6371H64.8542V46.5659C64.8542 48.6414 66.0346 49.7007 68.2861 49.7007C70.5594 49.7007 71.7617 48.6414 71.7617 46.5659V37.6371H74.8438V47.0416C74.8438 50.5871 72.483 52.5545 68.2861 52.5545Z" fill="white"/>
<path d="M85.7034 37.6371C88.6325 37.6371 90.4687 39.4531 90.4687 42.3285C90.4687 45.1823 88.6325 46.9767 85.7034 46.9767H80.5009V52.3383H77.3095V37.6371H85.7034ZM85.3755 44.1446C86.5559 44.1446 87.2117 43.4744 87.2117 42.3285C87.2117 41.1395 86.5559 40.4909 85.3755 40.4909H80.5009V44.1446H85.3755Z" fill="white"/>
<path d="M104.788 40.4909H95.6948V43.496H104.089V46.3497H95.6948V49.4845H104.788V52.3383H92.5033V37.6371H104.788V40.4909Z" fill="white"/>
<path d="M106.269 52.3383L111.624 44.9445L106.4 37.6371H110.291L113.745 42.6312L117.264 37.6371H121.024L115.799 44.8364L121.155 52.3383H117.264L113.679 47.1496L110.029 52.3383H106.269Z" fill="white"/>
<path d="M131.392 37.6371C134.321 37.6371 136.157 39.4531 136.157 42.3285C136.157 45.1823 134.321 46.9767 131.392 46.9767H126.189V52.3383H122.998V37.6371H131.392ZM131.064 44.1446C132.244 44.1446 132.9 43.4744 132.9 42.3285C132.9 41.1395 132.244 40.4909 131.064 40.4909H126.189V44.1446H131.064Z" fill="white"/>
<path d="M147.963 52.3383L144.793 46.9551H141.383V52.3383H138.192V37.6371H146.586C149.515 37.6371 151.351 39.4532 151.351 42.3069C151.351 44.5769 150.192 46.1768 148.269 46.7389L151.701 52.3383H147.963ZM141.383 40.4909V44.1013H146.258C147.416 44.1013 148.094 43.4744 148.094 42.3069C148.094 41.1178 147.416 40.4909 146.258 40.4909H141.383Z" fill="white"/>
<path d="M160.79 52.5545C156.309 52.5545 153.03 49.3764 153.03 44.9877C153.03 40.599 156.309 37.4209 160.79 37.4209C165.271 37.4209 168.55 40.599 168.55 44.9877C168.55 49.3764 165.271 52.5545 160.79 52.5545ZM160.79 49.7007C163.457 49.7007 165.293 47.7766 165.293 44.9877C165.293 42.1988 163.457 40.2747 160.79 40.2747C158.123 40.2747 156.287 42.1988 156.287 44.9877C156.287 47.7766 158.123 49.7007 160.79 49.7007Z" fill="white"/>
<path d="M66.7458 18.5571H61.5352V13.9567H77.955V18.5571H72.7443V31.5539H66.7458V18.5571Z" fill="white"/>
<path d="M90.4894 28.4869H83.7283L82.5337 31.5539H76.4335L84.2113 13.9567H90.1082L97.886 31.5539H91.6841L90.4894 28.4869ZM88.8373 24.2134L87.1089 19.7889L85.3805 24.2134H88.8373Z" fill="white"/>
<path d="M101.559 18.5571H96.3484V13.9567H112.768V18.5571H107.558V31.5539H101.559V18.5571Z" fill="white"/>
<path d="M125.303 28.4869H118.542L117.347 31.5539H111.247L119.025 13.9567H124.921L132.699 31.5539H126.497L125.303 28.4869ZM123.651 24.2134L121.922 19.7889L120.194 24.2134H123.651Z" fill="white"/>
<path d="M141.028 27.1295H139.401V31.5539H133.402V13.9567H141.968C143.612 13.9567 145.044 14.2249 146.264 14.7612C147.484 15.2975 148.424 16.0684 149.085 17.0739C149.746 18.0795 150.076 19.2526 150.076 20.5934C150.076 21.8503 149.788 22.948 149.212 23.8865C148.636 24.8251 147.806 25.5709 146.721 26.1239L150.458 31.5539H144.052L141.028 27.1295ZM144.027 20.5934C144.027 19.9398 143.824 19.437 143.417 19.085C143.01 18.7163 142.4 18.532 141.587 18.532H139.401V22.6547H141.587C142.4 22.6547 143.01 22.4788 143.417 22.1268C143.824 21.7581 144.027 21.247 144.027 20.5934Z" fill="white"/>
<path d="M158.721 31.9561C157.247 31.9561 155.807 31.7969 154.4 31.4785C153.011 31.1433 151.867 30.6992 150.969 30.1461L152.901 25.8222C153.748 26.3083 154.697 26.7021 155.747 27.0038C156.798 27.2887 157.806 27.4311 158.772 27.4311C159.602 27.4311 160.196 27.3557 160.551 27.2049C160.907 27.0373 161.085 26.7943 161.085 26.4758C161.085 26.1071 160.848 25.8306 160.374 25.6463C159.916 25.4619 159.153 25.2608 158.086 25.0429C156.713 24.758 155.57 24.4564 154.655 24.1379C153.739 23.8028 152.943 23.2665 152.265 22.529C151.587 21.7749 151.249 20.761 151.249 19.4873C151.249 18.3811 151.562 17.3756 152.189 16.4706C152.816 15.5656 153.748 14.8533 154.985 14.3338C156.239 13.8143 157.755 13.5545 159.535 13.5545C160.755 13.5545 161.949 13.6886 163.119 13.9567C164.305 14.2081 165.347 14.5852 166.245 15.088L164.44 19.3867C162.695 18.5152 161.043 18.0795 159.484 18.0795C157.942 18.0795 157.171 18.4482 157.171 19.1856C157.171 19.5375 157.4 19.8057 157.857 19.99C158.315 20.1576 159.069 20.342 160.119 20.5431C161.475 20.7945 162.619 21.0878 163.551 21.4229C164.483 21.7414 165.288 22.2693 165.965 23.0067C166.66 23.7441 167.008 24.7497 167.008 26.0233C167.008 27.1295 166.694 28.135 166.067 29.04C165.44 29.9282 164.5 30.6405 163.246 31.1768C162.009 31.6963 160.501 31.9561 158.721 31.9561Z" fill="white"/>
<path d="M172.154 18.5571H166.943V13.9567H183.363V18.5571H178.152V31.5539H172.154V18.5571Z" fill="white"/>
<path d="M195.897 28.4869H189.136L187.942 31.5539H181.841L189.619 13.9567H195.516L203.294 31.5539H197.092L195.897 28.4869ZM194.245 24.2134L192.517 19.7889L190.788 24.2134H194.245Z" fill="white"/>
<path d="M221.535 13.9567V31.5539H216.604L209.843 23.5597V31.5539H203.997V13.9567H208.928L215.689 21.9509V13.9567H221.535Z" fill="white"/>
</svg>
