<svg width="280" height="67" viewBox="0 0 280 67" fill="none" xmlns="http://www.w3.org/2000/svg">
<mask id="path-1-outside-1_406_320" maskUnits="userSpaceOnUse" x="0.42334" y="0" width="280" height="67" fill="black">
<rect fill="white" x="0.42334" width="280" height="67"/>
<path fill-rule="evenodd" clip-rule="evenodd" d="M31.9092 10.0175C39.1979 9.3156 46.2194 12.234 50.9795 17.2444C54.6189 21.0752 56.9368 25.7486 57.4269 31.4016C58.6149 45.1056 48.33 55.8635 36.0396 56.9852C32.381 57.3191 28.9706 56.7632 25.8202 55.6334C22.0421 54.2785 19.3363 52.3135 16.8995 49.7525C16.6592 49.5 16.3913 49.3077 16.1719 49.0391C15.0283 47.6394 14.1399 46.4788 13.1811 44.687C7.98913 34.9849 10.3062 23.2022 17.6841 16.4576L19.2027 15.0959C20.2084 14.2354 21.43 13.4701 22.751 12.7408C25.3944 11.2815 28.4631 10.3493 31.9092 10.0175ZM52.0298 60.4819C53.5789 59.9422 57.7485 55.8327 59.0702 54.1733C59.5333 53.5918 60.6804 52.2399 60.953 51.5575L57.3824 49.0987C57.6611 48.4468 58.2891 47.6378 58.6951 46.8488C59.0797 46.1016 59.5014 45.2856 59.8425 44.4551C60.5401 42.7565 61.1281 40.998 61.5199 39L65.8862 39.7696C66.6245 35.0496 66.673 31.9655 65.8736 27.1675L61.5113 27.9604C60.4881 23.0531 59.4524 21.7531 57.3596 17.8634L60.9265 15.4082C60.339 13.8063 56.2285 9.65472 54.6124 8.36907C54.024 7.90093 52.6954 6.7654 51.997 6.48707L49.5391 10.0564C48.866 9.77553 48.0911 9.15949 47.2882 8.74423C44.6726 7.39147 42.4994 6.51606 39.4403 5.91786L40.21 1.55144C35.2329 0.802374 32.6405 0.825972 27.6058 1.56419L28.4008 5.92867C26.3179 6.34828 24.8266 6.87216 22.9873 7.60049C20.5223 8.57649 19.4991 9.54777 18.3041 10.0793L15.8486 6.51045C13.8874 7.26386 7.73132 13.408 6.92829 15.4417L10.4962 17.8989C10.2224 18.5411 9.58893 19.368 9.18359 20.149C7.85249 22.7138 6.9552 24.9913 6.35748 27.998L1.99344 27.2286C1.21305 31.9835 1.25028 35.0164 2.0044 39.8319L6.35544 39.049C6.87757 41.1471 7.2608 42.5766 8.03703 44.4528C9.07252 46.9557 10.0127 47.9996 10.5179 49.1343L6.95613 51.5894C7.62924 53.4816 13.7957 59.6476 15.8821 60.51L18.3393 56.9415C19.1131 57.3371 19.7301 57.8109 20.5902 58.2536C23.349 59.6737 25.1617 60.3983 28.4405 61.0798L27.6671 65.4477C32.6155 66.1994 35.2839 66.1731 40.2726 65.4341L39.4783 61.0715C44.4191 60.0393 45.7251 58.967 49.5728 56.9182L52.0298 60.4819Z"/>
<path fill-rule="evenodd" clip-rule="evenodd" d="M44.2259 48.2418C44.4687 47.7038 44.4034 47.9523 43.8903 47.0115C42.611 44.6657 40.4857 41.1211 39.4684 39.0003C37.859 38.9904 38.4054 39.8709 36.6888 39.8397C35.3062 39.8146 35.1909 38.9256 33.8023 38.971C32.9539 38.9988 32.4013 39.825 31.1889 39.9658C29.4908 40.1632 30.18 38.8087 28.4336 39.0241L23.6163 47.4315C23.1247 48.3394 23.6842 48.3997 24.4953 48.3975C27.2612 48.3902 43.7268 48.5822 44.2259 48.2418Z"/>
<path fill-rule="evenodd" clip-rule="evenodd" d="M22.5285 48.709C21.8543 47.8203 22.3093 47.3247 22.7685 46.5759L30.3609 32.9334C30.9705 31.7823 30.7063 28.5734 30.685 27.0753C30.641 23.9896 31.071 22.8595 28.897 22.6829C28.8977 24.7056 29.1412 23.5943 29.1751 25.6279C29.1926 26.6777 29.2131 27.7296 29.2127 28.7795C29.2119 31.6694 29.3764 31.7141 28.1975 33.9163L21.4875 45.8239C20.6842 47.2015 20.0513 48.5536 21.8079 50.0884C22.5546 50.7407 22.9079 50.8796 24.107 50.8861C28.2675 50.9082 43.4873 51.4001 45.3166 50.7747C46.3537 50.4201 46.4566 50.1605 46.9112 49.2239C47.7443 47.5075 46.5308 46.1418 45.7234 44.7874L40.167 35.0083C38.7978 32.4226 38.5328 32.8316 38.5337 30.4837C38.5345 28.4459 38.4868 26.3531 38.543 24.3224C39.1026 23.9381 39.0391 24.5528 39.0312 22.7221C36.4037 22.5371 37.0516 24.7956 37.0516 26.9442C37.0516 28.2241 36.8104 32.0171 37.2989 32.8916L43.9171 44.6255C44.8083 46.1284 46.0435 47.6197 45.5095 48.7373C45.2866 49.2039 45.2189 49.2816 44.6399 49.4423C43.4922 49.7608 27.2692 49.4613 24.7627 49.4183C23.5977 49.3984 23.1225 49.4919 22.5285 48.709Z"/>
<path fill-rule="evenodd" clip-rule="evenodd" d="M33.9391 15.2594C33.2247 15.6009 29.5697 20.2987 31.4158 22.3866C33.2706 24.4845 37.9719 23.3416 36.6438 19.6456C35.9881 17.8206 35.038 16.381 33.9391 15.2594Z"/>
<path d="M82.658 18.2548L84.9459 22.1216H85.0345L87.3336 18.2548H90.0425L86.5801 23.9276L90.1201 29.6003H87.3613L85.0345 25.728H84.9459L82.6192 29.6003H79.8715L83.4225 23.9276L79.938 18.2548H82.658Z"/>
<path d="M93.7708 26.4869L96.8343 21.0912H99.161V29.6003H96.9118V24.1879L93.8594 29.6003H91.5161V21.0912H93.7708V26.4869Z"/>
<path d="M106.083 26.9911L108.387 21.0912H110.182L106.864 29.6003H105.296L102.055 21.0912H103.845L106.083 26.9911ZM103.307 21.0912V29.6003H101.053V21.0912H103.307ZM108.975 29.6003V21.0912H111.202V29.6003H108.975Z"/>
<path d="M115.282 26.4869L118.345 21.0912H120.672V29.6003H118.423V24.1879L115.37 29.6003H113.027V21.0912H115.282V26.4869Z"/>
<path d="M129.948 21.0912V29.6003H127.71V21.0912H129.948ZM128.857 24.825V26.6864C128.676 26.7676 128.451 26.8452 128.181 26.919C127.911 26.9892 127.629 27.0465 127.333 27.0908C127.038 27.1351 126.761 27.1572 126.503 27.1572C125.28 27.1572 124.318 26.9061 123.616 26.4038C122.915 25.8979 122.564 25.0909 122.564 23.983V21.0801H124.791V23.983C124.791 24.3117 124.846 24.572 124.957 24.7641C125.071 24.9561 125.252 25.0946 125.5 25.1795C125.751 25.2608 126.085 25.3014 126.503 25.3014C126.89 25.3014 127.271 25.2608 127.644 25.1795C128.017 25.0983 128.421 24.9801 128.857 24.825Z"/>
<path d="M135.658 29.7665C134.783 29.7665 134.03 29.5892 133.398 29.2347C132.77 28.8764 132.287 28.3705 131.947 27.7168C131.607 27.0594 131.437 26.282 131.437 25.3845C131.437 24.5092 131.607 23.7411 131.947 23.08C132.287 22.4189 132.765 21.9037 133.382 21.5344C134.002 21.1651 134.73 20.9804 135.564 20.9804C136.126 20.9804 136.648 21.0709 137.132 21.2519C137.619 21.4291 138.044 21.6969 138.406 22.0551C138.772 22.4134 139.056 22.8639 139.259 23.4068C139.462 23.946 139.564 24.5776 139.564 25.3014V25.9496H132.379V24.4871H137.342C137.342 24.1473 137.269 23.8463 137.121 23.5841C136.973 23.3219 136.768 23.1169 136.506 22.9692C136.247 22.8178 135.946 22.742 135.603 22.742C135.245 22.742 134.927 22.8251 134.65 22.9913C134.377 23.1538 134.163 23.3736 134.008 23.6506C133.852 23.9239 133.773 24.2286 133.769 24.5646V25.9551C133.769 26.3761 133.847 26.7399 134.002 27.0465C134.161 27.353 134.384 27.5893 134.672 27.7555C134.96 27.9217 135.302 28.0048 135.697 28.0048C135.959 28.0048 136.199 27.9679 136.417 27.894C136.635 27.8202 136.822 27.7094 136.977 27.5616C137.132 27.4139 137.25 27.233 137.331 27.0188L139.514 27.1628C139.403 27.6872 139.176 28.1452 138.833 28.5366C138.493 28.9244 138.053 29.2273 137.514 29.4452C136.979 29.6594 136.36 29.7665 135.658 29.7665Z"/>
<path d="M144.949 29.7665C144.077 29.7665 143.327 29.5818 142.699 29.2125C142.075 28.8395 141.595 28.3224 141.259 27.6614C140.927 27.0003 140.76 26.2395 140.76 25.379C140.76 24.5074 140.929 23.7429 141.265 23.0855C141.604 22.4244 142.086 21.9092 142.71 21.5399C143.335 21.1669 144.077 20.9804 144.938 20.9804C145.68 20.9804 146.33 21.1152 146.887 21.3848C147.445 21.6544 147.887 22.033 148.212 22.5205C148.537 23.008 148.716 23.5804 148.749 24.2378H146.522C146.459 23.8131 146.293 23.4715 146.023 23.2129C145.757 22.9507 145.408 22.8196 144.976 22.8196C144.611 22.8196 144.291 22.9193 144.018 23.1188C143.748 23.3145 143.538 23.6007 143.386 23.9774C143.235 24.3541 143.159 24.8102 143.159 25.3457C143.159 25.8886 143.233 26.3503 143.381 26.7307C143.532 27.1111 143.745 27.401 144.018 27.6004C144.291 27.7999 144.611 27.8996 144.976 27.8996C145.246 27.8996 145.488 27.8442 145.702 27.7334C145.92 27.6226 146.099 27.4619 146.239 27.2514C146.383 27.0372 146.478 26.7805 146.522 26.4814H148.749C148.712 27.1314 148.535 27.7038 148.217 28.1987C147.903 28.6899 147.469 29.074 146.915 29.351C146.361 29.628 145.706 29.7665 144.949 29.7665Z"/>
<path d="M150.26 29.6003V21.0912H152.62V24.3929H153.285L155.6 21.0912H158.37L155.362 25.3125L158.403 29.6003H155.6L153.501 26.5811H152.62V29.6003H150.26Z"/>
<path d="M161.655 26.4869L164.719 21.0912H167.045V29.6003H164.796V24.1879L161.744 29.6003H159.4V21.0912H161.655V26.4869Z"/>
<path d="M172.815 29.7665C171.94 29.7665 171.186 29.5892 170.555 29.2347C169.927 28.8764 169.443 28.3705 169.103 27.7168C168.764 27.0594 168.594 26.282 168.594 25.3845C168.594 24.5092 168.764 23.7411 169.103 23.08C169.443 22.4189 169.921 21.9037 170.538 21.5344C171.159 21.1651 171.886 20.9804 172.721 20.9804C173.282 20.9804 173.805 21.0709 174.289 21.2519C174.776 21.4291 175.201 21.6969 175.563 22.0551C175.928 22.4134 176.213 22.8639 176.416 23.4068C176.619 23.946 176.721 24.5776 176.721 25.3014V25.9496H169.535V24.4871H174.499C174.499 24.1473 174.425 23.8463 174.278 23.5841C174.13 23.3219 173.925 23.1169 173.663 22.9692C173.404 22.8178 173.103 22.742 172.76 22.742C172.401 22.742 172.084 22.8251 171.807 22.9913C171.533 23.1538 171.319 23.3736 171.164 23.6506C171.009 23.9239 170.93 24.2286 170.926 24.5646V25.9551C170.926 26.3761 171.004 26.7399 171.159 27.0465C171.317 27.353 171.541 27.5893 171.829 27.7555C172.117 27.9217 172.459 28.0048 172.854 28.0048C173.116 28.0048 173.356 27.9679 173.574 27.894C173.792 27.8202 173.978 27.7094 174.133 27.5616C174.289 27.4139 174.407 27.233 174.488 27.0188L176.671 27.1628C176.56 27.6872 176.333 28.1452 175.989 28.5366C175.65 28.9244 175.21 29.2273 174.671 29.4452C174.135 29.6594 173.517 29.7665 172.815 29.7665Z"/>
<path d="M186.901 26.9911L189.206 21.0912H191.001L187.682 29.6003H186.115L182.874 21.0912H184.663L186.901 26.9911ZM184.126 21.0912V29.6003H181.871V21.0912H184.126ZM189.793 29.6003V21.0912H192.02V29.6003H189.793Z"/>
<path d="M197.723 29.7665C196.848 29.7665 196.095 29.5892 195.463 29.2347C194.835 28.8764 194.351 28.3705 194.012 27.7168C193.672 27.0594 193.502 26.282 193.502 25.3845C193.502 24.5092 193.672 23.7411 194.012 23.08C194.351 22.4189 194.83 21.9037 195.446 21.5344C196.067 21.1651 196.794 20.9804 197.629 20.9804C198.19 20.9804 198.713 21.0709 199.197 21.2519C199.684 21.4291 200.109 21.6969 200.471 22.0551C200.837 22.4134 201.121 22.8639 201.324 23.4068C201.527 23.946 201.629 24.5776 201.629 25.3014V25.9496H194.444V24.4871H199.407C199.407 24.1473 199.333 23.8463 199.186 23.5841C199.038 23.3219 198.833 23.1169 198.571 22.9692C198.312 22.8178 198.011 22.742 197.668 22.742C197.31 22.742 196.992 22.8251 196.715 22.9913C196.442 23.1538 196.227 23.3736 196.072 23.6506C195.917 23.9239 195.838 24.2286 195.834 24.5646V25.9551C195.834 26.3761 195.912 26.7399 196.067 27.0465C196.226 27.353 196.449 27.5893 196.737 27.7555C197.025 27.9217 197.367 28.0048 197.762 28.0048C198.024 28.0048 198.264 27.9679 198.482 27.894C198.7 27.8202 198.887 27.7094 199.042 27.5616C199.197 27.4139 199.315 27.233 199.396 27.0188L201.579 27.1628C201.468 27.6872 201.241 28.1452 200.897 28.5366C200.558 28.9244 200.118 29.2273 199.579 29.4452C199.044 29.6594 198.425 29.7665 197.723 29.7665Z"/>
<path d="M202.512 22.947V21.0912H210.224V22.947H207.482V29.6003H205.232V22.947H202.512Z"/>
<path d="M215.194 29.7665C214.334 29.7665 213.59 29.5837 212.962 29.218C212.338 28.8487 211.856 28.3354 211.516 27.678C211.176 27.0169 211.006 26.2506 211.006 25.379C211.006 24.5 211.176 23.7318 211.516 23.0744C211.856 22.4134 212.338 21.9 212.962 21.5344C213.59 21.1651 214.334 20.9804 215.194 20.9804C216.055 20.9804 216.797 21.1651 217.421 21.5344C218.049 21.9 218.533 22.4134 218.873 23.0744C219.212 23.7318 219.382 24.5 219.382 25.379C219.382 26.2506 219.212 27.0169 218.873 27.678C218.533 28.3354 218.049 28.8487 217.421 29.218C216.797 29.5837 216.055 29.7665 215.194 29.7665ZM215.205 27.9384C215.597 27.9384 215.924 27.8276 216.186 27.606C216.448 27.3807 216.646 27.0742 216.779 26.6864C216.915 26.2986 216.984 25.8572 216.984 25.3624C216.984 24.8675 216.915 24.4261 216.779 24.0384C216.646 23.6506 216.448 23.344 216.186 23.1188C215.924 22.8935 215.597 22.7808 215.205 22.7808C214.81 22.7808 214.478 22.8935 214.208 23.1188C213.942 23.344 213.741 23.6506 213.604 24.0384C213.471 24.4261 213.405 24.8675 213.405 25.3624C213.405 25.8572 213.471 26.2986 213.604 26.6864C213.741 27.0742 213.942 27.3807 214.208 27.606C214.478 27.8276 214.81 27.9384 215.205 27.9384Z"/>
<path d="M220.252 32.0932V27.7278H220.906C221.094 27.6097 221.246 27.4213 221.36 27.1628C221.478 26.9043 221.574 26.5996 221.648 26.2487C221.726 25.8979 221.785 25.5193 221.825 25.1131C221.87 24.7031 221.908 24.2895 221.942 23.8722L222.163 21.0912H228.689V27.7278H230.008V32.0932H227.758V29.6003H222.557V32.0932H220.252ZM223.255 27.7278H226.462V22.9082H224.169L224.08 23.8722C224.017 24.7807 223.927 25.5526 223.809 26.1878C223.69 26.8193 223.506 27.3327 223.255 27.7278Z"/>
<path d="M232.862 23.706H235.405C236.531 23.706 237.41 23.9756 238.042 24.5148C238.673 25.0503 238.989 25.7668 238.989 26.6642C238.989 27.2477 238.847 27.7611 238.562 28.2043C238.278 28.6438 237.868 28.9872 237.333 29.2347C236.797 29.4784 236.154 29.6003 235.405 29.6003H231.383V21.0912H233.638V27.7445H235.405C235.8 27.7445 236.125 27.6447 236.38 27.4453C236.635 27.2459 236.764 26.9911 236.768 26.6808C236.764 26.3521 236.635 26.0844 236.38 25.8776C236.125 25.667 235.8 25.5618 235.405 25.5618H232.862V23.706ZM239.903 29.6003V21.0912H242.263V29.6003H239.903Z"/>
<path d="M81.8215 52.2912C81.5223 52.2912 81.2417 52.2672 80.9794 52.2192C80.7209 52.1749 80.5067 52.1176 80.3368 52.0474L80.8686 50.2858C81.1456 50.3707 81.3949 50.4169 81.6165 50.4243C81.8418 50.4317 82.0357 50.38 82.1982 50.2692C82.3644 50.1584 82.4992 49.97 82.6026 49.7041L82.7411 49.344L79.6887 40.5912H82.1705L83.9321 46.8401H84.0208L85.799 40.5912H88.2975L84.9902 50.0199C84.8314 50.4778 84.6154 50.8767 84.3421 51.2165C84.0725 51.5599 83.7309 51.824 83.3172 52.0087C82.9036 52.197 82.405 52.2912 81.8215 52.2912Z"/>
<path d="M89.5051 49.1003V40.5912H93.1337C94.1826 40.5912 95.0117 40.7906 95.6211 41.1895C96.2304 41.5884 96.5351 42.1553 96.5351 42.8902C96.5351 43.3518 96.3634 43.7359 96.0199 44.0425C95.6765 44.349 95.2 44.5558 94.5907 44.6629C95.1003 44.6999 95.5343 44.8162 95.8925 45.0119C96.2544 45.204 96.5296 45.4533 96.7179 45.7598C96.91 46.0663 97.006 46.4061 97.006 46.7791C97.006 47.2629 96.8767 47.6784 96.6182 48.0256C96.3634 48.3727 95.9885 48.6386 95.4936 48.8233C95.0024 49.008 94.4023 49.1003 93.6932 49.1003H89.5051ZM91.7044 47.3331H93.6932C94.0219 47.3331 94.2786 47.2555 94.4632 47.1004C94.6516 46.9416 94.7458 46.7256 94.7458 46.4523C94.7458 46.1494 94.6516 45.9112 94.4632 45.7376C94.2786 45.5641 94.0219 45.4773 93.6932 45.4773H91.7044V47.3331ZM91.7044 44.0923H93.1836C93.4199 44.0923 93.6212 44.0591 93.7874 43.9926C93.9573 43.9224 94.0865 43.8227 94.1752 43.6935C94.2675 43.5642 94.3137 43.4109 94.3137 43.2337C94.3137 42.9715 94.2084 42.7665 93.9979 42.6188C93.7874 42.471 93.4993 42.3972 93.1337 42.3972H91.7044V44.0923Z"/>
<path d="M102.371 49.2665C101.496 49.2665 100.743 49.0892 100.111 48.7347C99.4832 48.3764 98.9994 47.8705 98.6596 47.2168C98.3198 46.5594 98.15 45.782 98.15 44.8845C98.15 44.0092 98.3198 43.2411 98.6596 42.58C98.9994 41.9189 99.4777 41.4037 100.094 41.0344C100.715 40.6651 101.442 40.4804 102.277 40.4804C102.838 40.4804 103.361 40.5709 103.845 40.7519C104.332 40.9291 104.757 41.1969 105.119 41.5551C105.485 41.9134 105.769 42.3639 105.972 42.9068C106.175 43.446 106.277 44.0776 106.277 44.8014V45.4496H99.0917V43.9871H104.055C104.055 43.6473 103.981 43.3463 103.834 43.0841C103.686 42.8219 103.481 42.6169 103.219 42.4692C102.96 42.3178 102.659 42.242 102.316 42.242C101.958 42.242 101.64 42.3251 101.363 42.4913C101.09 42.6538 100.876 42.8736 100.72 43.1506C100.565 43.4239 100.486 43.7286 100.482 44.0646V45.4551C100.482 45.8761 100.56 46.2399 100.715 46.5465C100.874 46.853 101.097 47.0893 101.385 47.2555C101.673 47.4217 102.015 47.5048 102.41 47.5048C102.672 47.5048 102.912 47.4679 103.13 47.394C103.348 47.3202 103.535 47.2094 103.69 47.0617C103.845 46.9139 103.963 46.733 104.044 46.5188L106.227 46.6628C106.116 47.1872 105.889 47.6452 105.546 48.0367C105.206 48.4244 104.766 48.7273 104.227 48.9452C103.692 49.1594 103.073 49.2665 102.371 49.2665Z"/>
<path d="M107.318 49.1003L107.307 47.2278H107.59C107.789 47.2278 107.961 47.1798 108.105 47.0838C108.253 46.9841 108.375 46.8234 108.471 46.6018C108.567 46.3803 108.642 46.0867 108.698 45.721C108.753 45.3517 108.79 44.8974 108.808 44.3582L108.947 40.5912H115.417V49.1003H113.168V42.447H111.069L110.936 45.0452C110.903 45.758 110.816 46.371 110.675 46.8844C110.539 47.3977 110.349 47.8187 110.105 48.1474C109.861 48.4724 109.567 48.7125 109.224 48.8676C108.881 49.0227 108.482 49.1003 108.027 49.1003H107.318Z"/>
<path d="M119.502 45.9869L122.565 40.5912H124.892V49.1003H122.643V43.6879L119.59 49.1003H117.247V40.5912H119.502V45.9869Z"/>
<path d="M134.168 40.5912V49.1003H131.93V40.5912H134.168ZM133.077 44.325V46.1864C132.896 46.2676 132.671 46.3452 132.401 46.419C132.131 46.4892 131.849 46.5465 131.553 46.5908C131.258 46.6351 130.981 46.6572 130.722 46.6572C129.5 46.6572 128.538 46.4061 127.836 45.9038C127.135 45.3979 126.784 44.5909 126.784 43.483V40.5801H129.011V43.483C129.011 43.8116 129.066 44.072 129.177 44.2641C129.291 44.4561 129.472 44.5946 129.72 44.6795C129.971 44.7608 130.305 44.8014 130.722 44.8014C131.11 44.8014 131.491 44.7608 131.864 44.6795C132.237 44.5983 132.641 44.4801 133.077 44.325Z"/>
<path d="M139.878 49.2665C139.003 49.2665 138.25 49.0892 137.618 48.7347C136.99 48.3764 136.506 47.8705 136.167 47.2168C135.827 46.5594 135.657 45.782 135.657 44.8845C135.657 44.0092 135.827 43.2411 136.167 42.58C136.506 41.9189 136.985 41.4037 137.601 41.0344C138.222 40.6651 138.949 40.4804 139.784 40.4804C140.345 40.4804 140.868 40.5709 141.352 40.7519C141.839 40.9291 142.264 41.1969 142.626 41.5551C142.992 41.9134 143.276 42.3639 143.479 42.9068C143.682 43.446 143.784 44.0776 143.784 44.8014V45.4496H136.599V43.9871H141.562C141.562 43.6473 141.489 43.3463 141.341 43.0841C141.193 42.8219 140.988 42.6169 140.726 42.4692C140.467 42.3178 140.166 42.242 139.823 42.242C139.465 42.242 139.147 42.3251 138.87 42.4913C138.597 42.6538 138.383 42.8736 138.227 43.1506C138.072 43.4239 137.993 43.7286 137.989 44.0646V45.4551C137.989 45.8761 138.067 46.2399 138.222 46.5465C138.381 46.853 138.604 47.0893 138.892 47.2555C139.18 47.4217 139.522 47.5048 139.917 47.5048C140.179 47.5048 140.419 47.4679 140.637 47.394C140.855 47.3202 141.042 47.2094 141.197 47.0617C141.352 46.9139 141.47 46.733 141.551 46.5188L143.734 46.6628C143.623 47.1872 143.396 47.6452 143.053 48.0367C142.713 48.4244 142.273 48.7273 141.734 48.9452C141.199 49.1594 140.58 49.2665 139.878 49.2665Z"/>
<path d="M151.246 43.904V45.7598H146.803V43.904H151.246ZM147.579 40.5912V49.1003H145.324V40.5912H147.579ZM152.725 40.5912V49.1003H150.487V40.5912H152.725Z"/>
<path d="M156.811 45.9869L159.874 40.5912H162.201V49.1003H159.952V43.6879L156.899 49.1003H154.556V40.5912H156.811V45.9869Z"/>
<path d="M169.078 49.1003V42.4415H167.483C167.051 42.4415 166.722 42.5412 166.497 42.7406C166.272 42.9401 166.161 43.1764 166.165 43.4497C166.161 43.7267 166.268 43.9612 166.486 44.1533C166.707 44.3416 167.032 44.4358 167.461 44.4358H169.865V46.0313H167.461C166.733 46.0313 166.104 45.9205 165.572 45.6989C165.04 45.4773 164.63 45.1689 164.342 44.7737C164.054 44.3749 163.912 43.9114 163.915 43.3832C163.912 42.8293 164.054 42.3436 164.342 41.9263C164.63 41.5053 165.042 41.1784 165.577 40.9457C166.117 40.7094 166.752 40.5912 167.483 40.5912H171.278V49.1003H169.078ZM163.672 49.1003L166.037 44.6685H168.292L165.932 49.1003H163.672Z"/>
<path d="M182.644 43.904V45.7598H178.201V43.904H182.644ZM178.977 40.5912V49.1003H176.722V40.5912H178.977ZM184.123 40.5912V49.1003H181.885V40.5912H184.123Z"/>
<path d="M189.832 49.2665C188.957 49.2665 188.203 49.0892 187.572 48.7347C186.944 48.3764 186.46 47.8705 186.12 47.2168C185.78 46.5594 185.611 45.782 185.611 44.8845C185.611 44.0092 185.78 43.2411 186.12 42.58C186.46 41.9189 186.938 41.4037 187.555 41.0344C188.175 40.6651 188.903 40.4804 189.738 40.4804C190.299 40.4804 190.822 40.5709 191.305 40.7519C191.793 40.9291 192.218 41.1969 192.58 41.5551C192.945 41.9134 193.23 42.3639 193.433 42.9068C193.636 43.446 193.737 44.0776 193.737 44.8014V45.4496H186.552V43.9871H191.516C191.516 43.6473 191.442 43.3463 191.294 43.0841C191.147 42.8219 190.942 42.6169 190.679 42.4692C190.421 42.3178 190.12 42.242 189.776 42.242C189.418 42.242 189.101 42.3251 188.824 42.4913C188.55 42.6538 188.336 42.8736 188.181 43.1506C188.026 43.4239 187.946 43.7286 187.943 44.0646V45.4551C187.943 45.8761 188.02 46.2399 188.175 46.5465C188.334 46.853 188.558 47.0893 188.846 47.2555C189.134 47.4217 189.475 47.5048 189.871 47.5048C190.133 47.5048 190.373 47.4679 190.591 47.394C190.809 47.3202 190.995 47.2094 191.15 47.0617C191.305 46.9139 191.424 46.733 191.505 46.5188L193.688 46.6628C193.577 47.1872 193.35 47.6452 193.006 48.0367C192.666 48.4244 192.227 48.7273 191.688 48.9452C191.152 49.1594 190.534 49.2665 189.832 49.2665Z"/>
<path d="M199.349 51.992V37.7548H201.704V51.992H199.349ZM199.349 49.2665C198.695 49.2665 198.099 49.1612 197.56 48.9507C197.021 48.7365 196.555 48.4355 196.164 48.0477C195.772 47.6563 195.469 47.1928 195.255 46.6572C195.041 46.118 194.934 45.5253 194.934 44.879C194.934 44.2253 195.041 43.6307 195.255 43.0952C195.469 42.556 195.772 42.0925 196.164 41.7047C196.555 41.3132 197.021 41.0122 197.56 40.8017C198.099 40.5875 198.695 40.4804 199.349 40.4804H199.787V49.2665H199.349ZM199.349 47.4273H199.609V42.3196H199.349C199.032 42.3196 198.749 42.3861 198.502 42.519C198.254 42.652 198.045 42.8348 197.876 43.0675C197.706 43.2965 197.576 43.5661 197.488 43.8763C197.403 44.1865 197.36 44.5207 197.36 44.879C197.36 45.3517 197.438 45.782 197.593 46.1697C197.748 46.5538 197.975 46.8604 198.274 47.0893C198.574 47.3146 198.932 47.4273 199.349 47.4273ZM201.704 49.2665H201.266V40.4804H201.704C202.357 40.4804 202.954 40.5875 203.493 40.8017C204.032 41.0122 204.497 41.3132 204.889 41.7047C205.28 42.0925 205.583 42.556 205.797 43.0952C206.012 43.6307 206.119 44.2253 206.119 44.879C206.119 45.5253 206.012 46.118 205.797 46.6572C205.583 47.1928 205.28 47.6563 204.889 48.0477C204.497 48.4355 204.032 48.7365 203.493 48.9507C202.954 49.1612 202.357 49.2665 201.704 49.2665ZM201.704 47.4273C202.021 47.4273 202.304 47.3626 202.551 47.2334C202.799 47.1004 203.007 46.9176 203.177 46.6849C203.347 46.4523 203.476 46.1827 203.565 45.8761C203.654 45.5659 203.698 45.2335 203.698 44.879C203.698 44.4026 203.618 43.9723 203.46 43.5882C203.305 43.2004 203.079 42.892 202.784 42.6631C202.488 42.4341 202.128 42.3196 201.704 42.3196H201.443V47.4273H201.704Z"/>
<path d="M206.839 42.447V40.5912H214.55V42.447H211.808V49.1003H209.559V42.447H206.839Z"/>
<path d="M219.554 49.2665C218.679 49.2665 217.925 49.0892 217.294 48.7347C216.666 48.3764 216.182 47.8705 215.842 47.2168C215.503 46.5594 215.333 45.782 215.333 44.8845C215.333 44.0092 215.503 43.2411 215.842 42.58C216.182 41.9189 216.66 41.4037 217.277 41.0344C217.898 40.6651 218.625 40.4804 219.46 40.4804C220.021 40.4804 220.544 40.5709 221.028 40.7519C221.515 40.9291 221.94 41.1969 222.302 41.5551C222.667 41.9134 222.952 42.3639 223.155 42.9068C223.358 43.446 223.46 44.0776 223.46 44.8014V45.4496H216.275V43.9871H221.238C221.238 43.6473 221.164 43.3463 221.017 43.0841C220.869 42.8219 220.664 42.6169 220.402 42.4692C220.143 42.3178 219.842 42.242 219.499 42.242C219.14 42.242 218.823 42.3251 218.546 42.4913C218.273 42.6538 218.058 42.8736 217.903 43.1506C217.748 43.4239 217.669 43.7286 217.665 44.0646V45.4551C217.665 45.8761 217.743 46.2399 217.898 46.5465C218.056 46.853 218.28 47.0893 218.568 47.2555C218.856 47.4217 219.198 47.5048 219.593 47.5048C219.855 47.5048 220.095 47.4679 220.313 47.394C220.531 47.3202 220.717 47.2094 220.873 47.0617C221.028 46.9139 221.146 46.733 221.227 46.5188L223.41 46.6628C223.299 47.1872 223.072 47.6452 222.728 48.0367C222.389 48.4244 221.949 48.7273 221.41 48.9452C220.874 49.1594 220.256 49.2665 219.554 49.2665Z"/>
<path d="M228.844 49.2665C227.984 49.2665 227.24 49.0837 226.612 48.718C225.988 48.3487 225.506 47.8354 225.166 47.178C224.826 46.5169 224.656 45.7506 224.656 44.879C224.656 44 224.826 43.2318 225.166 42.5744C225.506 41.9134 225.988 41.4 226.612 41.0344C227.24 40.6651 227.984 40.4804 228.844 40.4804C229.705 40.4804 230.447 40.6651 231.071 41.0344C231.699 41.4 232.183 41.9134 232.523 42.5744C232.862 43.2318 233.032 44 233.032 44.879C233.032 45.7506 232.862 46.5169 232.523 47.178C232.183 47.8354 231.699 48.3487 231.071 48.718C230.447 49.0837 229.705 49.2665 228.844 49.2665ZM228.855 47.4384C229.247 47.4384 229.574 47.3276 229.836 47.106C230.098 46.8807 230.296 46.5741 230.429 46.1864C230.565 45.7986 230.634 45.3572 230.634 44.8624C230.634 44.3675 230.565 43.9261 230.429 43.5384C230.296 43.1506 230.098 42.844 229.836 42.6188C229.574 42.3935 229.247 42.2808 228.855 42.2808C228.46 42.2808 228.128 42.3935 227.858 42.6188C227.592 42.844 227.391 43.1506 227.254 43.5384C227.121 43.9261 227.055 44.3675 227.055 44.8624C227.055 45.3572 227.121 45.7986 227.254 46.1864C227.391 46.5741 227.592 46.8807 227.858 47.106C228.128 47.3276 228.46 47.4384 228.855 47.4384Z"/>
<path d="M233.743 42.447V40.5912H241.454V42.447H238.712V49.1003H236.463V42.447H233.743Z"/>
<path d="M241.535 51.5932V47.2278H242.188C242.377 47.1097 242.528 46.9213 242.642 46.6628C242.761 46.4043 242.857 46.0996 242.931 45.7487C243.008 45.3979 243.067 45.0193 243.108 44.6131C243.152 44.2031 243.191 43.7895 243.224 43.3722L243.446 40.5912H249.972V47.2278H251.29V51.5932H249.041V49.1003H243.839V51.5932H241.535ZM244.537 47.2278H247.745V42.4082H245.451L245.362 43.3722C245.3 44.2807 245.209 45.0526 245.091 45.6878C244.973 46.3193 244.788 46.8327 244.537 47.2278Z"/>
<path d="M255.092 49.2609C254.549 49.2609 254.065 49.1668 253.64 48.9784C253.216 48.7864 252.88 48.5038 252.632 48.1308C252.388 47.7541 252.266 47.2851 252.266 46.7237C252.266 46.251 252.353 45.854 252.527 45.5327C252.7 45.2114 252.937 44.9528 253.236 44.7571C253.535 44.5614 253.875 44.4136 254.255 44.3139C254.639 44.2142 255.042 44.144 255.463 44.1034C255.958 44.0517 256.357 44.0037 256.659 43.9594C256.962 43.9114 257.182 43.8412 257.319 43.7489C257.455 43.6565 257.524 43.5199 257.524 43.3389V43.3057C257.524 42.9548 257.413 42.6834 257.191 42.4913C256.973 42.2993 256.663 42.2033 256.261 42.2033C255.836 42.2033 255.498 42.2974 255.247 42.4858C254.996 42.6705 254.83 42.9031 254.748 43.1838L252.566 43.0065C252.676 42.4895 252.894 42.0426 253.219 41.6659C253.544 41.2855 253.963 40.9938 254.477 40.7906C254.994 40.5838 255.592 40.4804 256.272 40.4804C256.744 40.4804 257.197 40.5358 257.629 40.6466C258.065 40.7574 258.451 40.9291 258.787 41.1618C259.127 41.3945 259.394 41.6936 259.59 42.0592C259.786 42.4212 259.884 42.8551 259.884 43.3611V49.1003H257.646V47.9203H257.579C257.442 48.1862 257.26 48.4207 257.031 48.6239C256.802 48.8233 256.527 48.9803 256.205 49.0947C255.884 49.2055 255.513 49.2609 255.092 49.2609ZM255.768 47.6322C256.115 47.6322 256.421 47.5639 256.687 47.4273C256.953 47.2869 257.162 47.0986 257.313 46.8622C257.465 46.6259 257.54 46.3581 257.54 46.0589V45.156C257.466 45.204 257.365 45.2483 257.236 45.2889C257.11 45.3259 256.968 45.3609 256.809 45.3942C256.65 45.4237 256.491 45.4514 256.333 45.4773C256.174 45.4994 256.03 45.5197 255.901 45.5382C255.624 45.5788 255.382 45.6435 255.175 45.7321C254.968 45.8207 254.807 45.9408 254.693 46.0922C254.578 46.2399 254.521 46.4246 254.521 46.6462C254.521 46.9675 254.637 47.2131 254.87 47.383C255.106 47.5492 255.406 47.6322 255.768 47.6322Z"/>
<path d="M269.099 40.5912V49.1003H266.861V40.5912H269.099ZM268.008 44.325V46.1864C267.827 46.2676 267.601 46.3452 267.332 46.419C267.062 46.4892 266.78 46.5465 266.484 46.5908C266.189 46.6351 265.912 46.6572 265.653 46.6572C264.431 46.6572 263.469 46.4061 262.767 45.9038C262.065 45.3979 261.715 44.5909 261.715 43.483V40.5801H263.941V43.483C263.941 43.8116 263.997 44.072 264.108 44.2641C264.222 44.4561 264.403 44.5946 264.651 44.6795C264.902 44.7608 265.236 44.8014 265.653 44.8014C266.041 44.8014 266.421 44.7608 266.794 44.6795C267.167 44.5983 267.572 44.4801 268.008 44.325Z"/>
<path d="M273.186 45.9869L276.249 40.5912H278.576V49.1003H276.327V43.6879L273.275 49.1003H270.931V40.5912H273.186V45.9869Z"/>
</mask>
<path fill-rule="evenodd" clip-rule="evenodd" d="M31.9092 10.0175C39.1979 9.3156 46.2194 12.234 50.9795 17.2444C54.6189 21.0752 56.9368 25.7486 57.4269 31.4016C58.6149 45.1056 48.33 55.8635 36.0396 56.9852C32.381 57.3191 28.9706 56.7632 25.8202 55.6334C22.0421 54.2785 19.3363 52.3135 16.8995 49.7525C16.6592 49.5 16.3913 49.3077 16.1719 49.0391C15.0283 47.6394 14.1399 46.4788 13.1811 44.687C7.98913 34.9849 10.3062 23.2022 17.6841 16.4576L19.2027 15.0959C20.2084 14.2354 21.43 13.4701 22.751 12.7408C25.3944 11.2815 28.4631 10.3493 31.9092 10.0175ZM52.0298 60.4819C53.5789 59.9422 57.7485 55.8327 59.0702 54.1733C59.5333 53.5918 60.6804 52.2399 60.953 51.5575L57.3824 49.0987C57.6611 48.4468 58.2891 47.6378 58.6951 46.8488C59.0797 46.1016 59.5014 45.2856 59.8425 44.4551C60.5401 42.7565 61.1281 40.998 61.5199 39L65.8862 39.7696C66.6245 35.0496 66.673 31.9655 65.8736 27.1675L61.5113 27.9604C60.4881 23.0531 59.4524 21.7531 57.3596 17.8634L60.9265 15.4082C60.339 13.8063 56.2285 9.65472 54.6124 8.36907C54.024 7.90093 52.6954 6.7654 51.997 6.48707L49.5391 10.0564C48.866 9.77553 48.0911 9.15949 47.2882 8.74423C44.6726 7.39147 42.4994 6.51606 39.4403 5.91786L40.21 1.55144C35.2329 0.802374 32.6405 0.825972 27.6058 1.56419L28.4008 5.92867C26.3179 6.34828 24.8266 6.87216 22.9873 7.60049C20.5223 8.57649 19.4991 9.54777 18.3041 10.0793L15.8486 6.51045C13.8874 7.26386 7.73132 13.408 6.92829 15.4417L10.4962 17.8989C10.2224 18.5411 9.58893 19.368 9.18359 20.149C7.85249 22.7138 6.9552 24.9913 6.35748 27.998L1.99344 27.2286C1.21305 31.9835 1.25028 35.0164 2.0044 39.8319L6.35544 39.049C6.87757 41.1471 7.2608 42.5766 8.03703 44.4528C9.07252 46.9557 10.0127 47.9996 10.5179 49.1343L6.95613 51.5894C7.62924 53.4816 13.7957 59.6476 15.8821 60.51L18.3393 56.9415C19.1131 57.3371 19.7301 57.8109 20.5902 58.2536C23.349 59.6737 25.1617 60.3983 28.4405 61.0798L27.6671 65.4477C32.6155 66.1994 35.2839 66.1731 40.2726 65.4341L39.4783 61.0715C44.4191 60.0393 45.7251 58.967 49.5728 56.9182L52.0298 60.4819Z" fill="white"/>
<path fill-rule="evenodd" clip-rule="evenodd" d="M44.2259 48.2418C44.4687 47.7038 44.4034 47.9523 43.8903 47.0115C42.611 44.6657 40.4857 41.1211 39.4684 39.0003C37.859 38.9904 38.4054 39.8709 36.6888 39.8397C35.3062 39.8146 35.1909 38.9256 33.8023 38.971C32.9539 38.9988 32.4013 39.825 31.1889 39.9658C29.4908 40.1632 30.18 38.8087 28.4336 39.0241L23.6163 47.4315C23.1247 48.3394 23.6842 48.3997 24.4953 48.3975C27.2612 48.3902 43.7268 48.5822 44.2259 48.2418Z" fill="white"/>
<path fill-rule="evenodd" clip-rule="evenodd" d="M22.5285 48.709C21.8543 47.8203 22.3093 47.3247 22.7685 46.5759L30.3609 32.9334C30.9705 31.7823 30.7063 28.5734 30.685 27.0753C30.641 23.9896 31.071 22.8595 28.897 22.6829C28.8977 24.7056 29.1412 23.5943 29.1751 25.6279C29.1926 26.6777 29.2131 27.7296 29.2127 28.7795C29.2119 31.6694 29.3764 31.7141 28.1975 33.9163L21.4875 45.8239C20.6842 47.2015 20.0513 48.5536 21.8079 50.0884C22.5546 50.7407 22.9079 50.8796 24.107 50.8861C28.2675 50.9082 43.4873 51.4001 45.3166 50.7747C46.3537 50.4201 46.4566 50.1605 46.9112 49.2239C47.7443 47.5075 46.5308 46.1418 45.7234 44.7874L40.167 35.0083C38.7978 32.4226 38.5328 32.8316 38.5337 30.4837C38.5345 28.4459 38.4868 26.3531 38.543 24.3224C39.1026 23.9381 39.0391 24.5528 39.0312 22.7221C36.4037 22.5371 37.0516 24.7956 37.0516 26.9442C37.0516 28.2241 36.8104 32.0171 37.2989 32.8916L43.9171 44.6255C44.8083 46.1284 46.0435 47.6197 45.5095 48.7373C45.2866 49.2039 45.2189 49.2816 44.6399 49.4423C43.4922 49.7608 27.2692 49.4613 24.7627 49.4183C23.5977 49.3984 23.1225 49.4919 22.5285 48.709Z" fill="white"/>
<path fill-rule="evenodd" clip-rule="evenodd" d="M33.9391 15.2594C33.2247 15.6009 29.5697 20.2987 31.4158 22.3866C33.2706 24.4845 37.9719 23.3416 36.6438 19.6456C35.9881 17.8206 35.038 16.381 33.9391 15.2594Z" fill="white"/>
<path d="M82.658 18.2548L84.9459 22.1216H85.0345L87.3336 18.2548H90.0425L86.5801 23.9276L90.1201 29.6003H87.3613L85.0345 25.728H84.9459L82.6192 29.6003H79.8715L83.4225 23.9276L79.938 18.2548H82.658Z" fill="white"/>
<path d="M93.7708 26.4869L96.8343 21.0912H99.161V29.6003H96.9118V24.1879L93.8594 29.6003H91.5161V21.0912H93.7708V26.4869Z" fill="white"/>
<path d="M106.083 26.9911L108.387 21.0912H110.182L106.864 29.6003H105.296L102.055 21.0912H103.845L106.083 26.9911ZM103.307 21.0912V29.6003H101.053V21.0912H103.307ZM108.975 29.6003V21.0912H111.202V29.6003H108.975Z" fill="white"/>
<path d="M115.282 26.4869L118.345 21.0912H120.672V29.6003H118.423V24.1879L115.37 29.6003H113.027V21.0912H115.282V26.4869Z" fill="white"/>
<path d="M129.948 21.0912V29.6003H127.71V21.0912H129.948ZM128.857 24.825V26.6864C128.676 26.7676 128.451 26.8452 128.181 26.919C127.911 26.9892 127.629 27.0465 127.333 27.0908C127.038 27.1351 126.761 27.1572 126.503 27.1572C125.28 27.1572 124.318 26.9061 123.616 26.4038C122.915 25.8979 122.564 25.0909 122.564 23.983V21.0801H124.791V23.983C124.791 24.3117 124.846 24.572 124.957 24.7641C125.071 24.9561 125.252 25.0946 125.5 25.1795C125.751 25.2608 126.085 25.3014 126.503 25.3014C126.89 25.3014 127.271 25.2608 127.644 25.1795C128.017 25.0983 128.421 24.9801 128.857 24.825Z" fill="white"/>
<path d="M135.658 29.7665C134.783 29.7665 134.03 29.5892 133.398 29.2347C132.77 28.8764 132.287 28.3705 131.947 27.7168C131.607 27.0594 131.437 26.282 131.437 25.3845C131.437 24.5092 131.607 23.7411 131.947 23.08C132.287 22.4189 132.765 21.9037 133.382 21.5344C134.002 21.1651 134.73 20.9804 135.564 20.9804C136.126 20.9804 136.648 21.0709 137.132 21.2519C137.619 21.4291 138.044 21.6969 138.406 22.0551C138.772 22.4134 139.056 22.8639 139.259 23.4068C139.462 23.946 139.564 24.5776 139.564 25.3014V25.9496H132.379V24.4871H137.342C137.342 24.1473 137.269 23.8463 137.121 23.5841C136.973 23.3219 136.768 23.1169 136.506 22.9692C136.247 22.8178 135.946 22.742 135.603 22.742C135.245 22.742 134.927 22.8251 134.65 22.9913C134.377 23.1538 134.163 23.3736 134.008 23.6506C133.852 23.9239 133.773 24.2286 133.769 24.5646V25.9551C133.769 26.3761 133.847 26.7399 134.002 27.0465C134.161 27.353 134.384 27.5893 134.672 27.7555C134.96 27.9217 135.302 28.0048 135.697 28.0048C135.959 28.0048 136.199 27.9679 136.417 27.894C136.635 27.8202 136.822 27.7094 136.977 27.5616C137.132 27.4139 137.25 27.233 137.331 27.0188L139.514 27.1628C139.403 27.6872 139.176 28.1452 138.833 28.5366C138.493 28.9244 138.053 29.2273 137.514 29.4452C136.979 29.6594 136.36 29.7665 135.658 29.7665Z" fill="white"/>
<path d="M144.949 29.7665C144.077 29.7665 143.327 29.5818 142.699 29.2125C142.075 28.8395 141.595 28.3224 141.259 27.6614C140.927 27.0003 140.76 26.2395 140.76 25.379C140.76 24.5074 140.929 23.7429 141.265 23.0855C141.604 22.4244 142.086 21.9092 142.71 21.5399C143.335 21.1669 144.077 20.9804 144.938 20.9804C145.68 20.9804 146.33 21.1152 146.887 21.3848C147.445 21.6544 147.887 22.033 148.212 22.5205C148.537 23.008 148.716 23.5804 148.749 24.2378H146.522C146.459 23.8131 146.293 23.4715 146.023 23.2129C145.757 22.9507 145.408 22.8196 144.976 22.8196C144.611 22.8196 144.291 22.9193 144.018 23.1188C143.748 23.3145 143.538 23.6007 143.386 23.9774C143.235 24.3541 143.159 24.8102 143.159 25.3457C143.159 25.8886 143.233 26.3503 143.381 26.7307C143.532 27.1111 143.745 27.401 144.018 27.6004C144.291 27.7999 144.611 27.8996 144.976 27.8996C145.246 27.8996 145.488 27.8442 145.702 27.7334C145.92 27.6226 146.099 27.4619 146.239 27.2514C146.383 27.0372 146.478 26.7805 146.522 26.4814H148.749C148.712 27.1314 148.535 27.7038 148.217 28.1987C147.903 28.6899 147.469 29.074 146.915 29.351C146.361 29.628 145.706 29.7665 144.949 29.7665Z" fill="white"/>
<path d="M150.26 29.6003V21.0912H152.62V24.3929H153.285L155.6 21.0912H158.37L155.362 25.3125L158.403 29.6003H155.6L153.501 26.5811H152.62V29.6003H150.26Z" fill="white"/>
<path d="M161.655 26.4869L164.719 21.0912H167.045V29.6003H164.796V24.1879L161.744 29.6003H159.4V21.0912H161.655V26.4869Z" fill="white"/>
<path d="M172.815 29.7665C171.94 29.7665 171.186 29.5892 170.555 29.2347C169.927 28.8764 169.443 28.3705 169.103 27.7168C168.764 27.0594 168.594 26.282 168.594 25.3845C168.594 24.5092 168.764 23.7411 169.103 23.08C169.443 22.4189 169.921 21.9037 170.538 21.5344C171.159 21.1651 171.886 20.9804 172.721 20.9804C173.282 20.9804 173.805 21.0709 174.289 21.2519C174.776 21.4291 175.201 21.6969 175.563 22.0551C175.928 22.4134 176.213 22.8639 176.416 23.4068C176.619 23.946 176.721 24.5776 176.721 25.3014V25.9496H169.535V24.4871H174.499C174.499 24.1473 174.425 23.8463 174.278 23.5841C174.13 23.3219 173.925 23.1169 173.663 22.9692C173.404 22.8178 173.103 22.742 172.76 22.742C172.401 22.742 172.084 22.8251 171.807 22.9913C171.533 23.1538 171.319 23.3736 171.164 23.6506C171.009 23.9239 170.93 24.2286 170.926 24.5646V25.9551C170.926 26.3761 171.004 26.7399 171.159 27.0465C171.317 27.353 171.541 27.5893 171.829 27.7555C172.117 27.9217 172.459 28.0048 172.854 28.0048C173.116 28.0048 173.356 27.9679 173.574 27.894C173.792 27.8202 173.978 27.7094 174.133 27.5616C174.289 27.4139 174.407 27.233 174.488 27.0188L176.671 27.1628C176.56 27.6872 176.333 28.1452 175.989 28.5366C175.65 28.9244 175.21 29.2273 174.671 29.4452C174.135 29.6594 173.517 29.7665 172.815 29.7665Z" fill="white"/>
<path d="M186.901 26.9911L189.206 21.0912H191.001L187.682 29.6003H186.115L182.874 21.0912H184.663L186.901 26.9911ZM184.126 21.0912V29.6003H181.871V21.0912H184.126ZM189.793 29.6003V21.0912H192.02V29.6003H189.793Z" fill="white"/>
<path d="M197.723 29.7665C196.848 29.7665 196.095 29.5892 195.463 29.2347C194.835 28.8764 194.351 28.3705 194.012 27.7168C193.672 27.0594 193.502 26.282 193.502 25.3845C193.502 24.5092 193.672 23.7411 194.012 23.08C194.351 22.4189 194.83 21.9037 195.446 21.5344C196.067 21.1651 196.794 20.9804 197.629 20.9804C198.19 20.9804 198.713 21.0709 199.197 21.2519C199.684 21.4291 200.109 21.6969 200.471 22.0551C200.837 22.4134 201.121 22.8639 201.324 23.4068C201.527 23.946 201.629 24.5776 201.629 25.3014V25.9496H194.444V24.4871H199.407C199.407 24.1473 199.333 23.8463 199.186 23.5841C199.038 23.3219 198.833 23.1169 198.571 22.9692C198.312 22.8178 198.011 22.742 197.668 22.742C197.31 22.742 196.992 22.8251 196.715 22.9913C196.442 23.1538 196.227 23.3736 196.072 23.6506C195.917 23.9239 195.838 24.2286 195.834 24.5646V25.9551C195.834 26.3761 195.912 26.7399 196.067 27.0465C196.226 27.353 196.449 27.5893 196.737 27.7555C197.025 27.9217 197.367 28.0048 197.762 28.0048C198.024 28.0048 198.264 27.9679 198.482 27.894C198.7 27.8202 198.887 27.7094 199.042 27.5616C199.197 27.4139 199.315 27.233 199.396 27.0188L201.579 27.1628C201.468 27.6872 201.241 28.1452 200.897 28.5366C200.558 28.9244 200.118 29.2273 199.579 29.4452C199.044 29.6594 198.425 29.7665 197.723 29.7665Z" fill="white"/>
<path d="M202.512 22.947V21.0912H210.224V22.947H207.482V29.6003H205.232V22.947H202.512Z" fill="white"/>
<path d="M215.194 29.7665C214.334 29.7665 213.59 29.5837 212.962 29.218C212.338 28.8487 211.856 28.3354 211.516 27.678C211.176 27.0169 211.006 26.2506 211.006 25.379C211.006 24.5 211.176 23.7318 211.516 23.0744C211.856 22.4134 212.338 21.9 212.962 21.5344C213.59 21.1651 214.334 20.9804 215.194 20.9804C216.055 20.9804 216.797 21.1651 217.421 21.5344C218.049 21.9 218.533 22.4134 218.873 23.0744C219.212 23.7318 219.382 24.5 219.382 25.379C219.382 26.2506 219.212 27.0169 218.873 27.678C218.533 28.3354 218.049 28.8487 217.421 29.218C216.797 29.5837 216.055 29.7665 215.194 29.7665ZM215.205 27.9384C215.597 27.9384 215.924 27.8276 216.186 27.606C216.448 27.3807 216.646 27.0742 216.779 26.6864C216.915 26.2986 216.984 25.8572 216.984 25.3624C216.984 24.8675 216.915 24.4261 216.779 24.0384C216.646 23.6506 216.448 23.344 216.186 23.1188C215.924 22.8935 215.597 22.7808 215.205 22.7808C214.81 22.7808 214.478 22.8935 214.208 23.1188C213.942 23.344 213.741 23.6506 213.604 24.0384C213.471 24.4261 213.405 24.8675 213.405 25.3624C213.405 25.8572 213.471 26.2986 213.604 26.6864C213.741 27.0742 213.942 27.3807 214.208 27.606C214.478 27.8276 214.81 27.9384 215.205 27.9384Z" fill="white"/>
<path d="M220.252 32.0932V27.7278H220.906C221.094 27.6097 221.246 27.4213 221.36 27.1628C221.478 26.9043 221.574 26.5996 221.648 26.2487C221.726 25.8979 221.785 25.5193 221.825 25.1131C221.87 24.7031 221.908 24.2895 221.942 23.8722L222.163 21.0912H228.689V27.7278H230.008V32.0932H227.758V29.6003H222.557V32.0932H220.252ZM223.255 27.7278H226.462V22.9082H224.169L224.08 23.8722C224.017 24.7807 223.927 25.5526 223.809 26.1878C223.69 26.8193 223.506 27.3327 223.255 27.7278Z" fill="white"/>
<path d="M232.862 23.706H235.405C236.531 23.706 237.41 23.9756 238.042 24.5148C238.673 25.0503 238.989 25.7668 238.989 26.6642C238.989 27.2477 238.847 27.7611 238.562 28.2043C238.278 28.6438 237.868 28.9872 237.333 29.2347C236.797 29.4784 236.154 29.6003 235.405 29.6003H231.383V21.0912H233.638V27.7445H235.405C235.8 27.7445 236.125 27.6447 236.38 27.4453C236.635 27.2459 236.764 26.9911 236.768 26.6808C236.764 26.3521 236.635 26.0844 236.38 25.8776C236.125 25.667 235.8 25.5618 235.405 25.5618H232.862V23.706ZM239.903 29.6003V21.0912H242.263V29.6003H239.903Z" fill="white"/>
<path d="M81.8215 52.2912C81.5223 52.2912 81.2417 52.2672 80.9794 52.2192C80.7209 52.1749 80.5067 52.1176 80.3368 52.0474L80.8686 50.2858C81.1456 50.3707 81.3949 50.4169 81.6165 50.4243C81.8418 50.4317 82.0357 50.38 82.1982 50.2692C82.3644 50.1584 82.4992 49.97 82.6026 49.7041L82.7411 49.344L79.6887 40.5912H82.1705L83.9321 46.8401H84.0208L85.799 40.5912H88.2975L84.9902 50.0199C84.8314 50.4778 84.6154 50.8767 84.3421 51.2165C84.0725 51.5599 83.7309 51.824 83.3172 52.0087C82.9036 52.197 82.405 52.2912 81.8215 52.2912Z" fill="white"/>
<path d="M89.5051 49.1003V40.5912H93.1337C94.1826 40.5912 95.0117 40.7906 95.6211 41.1895C96.2304 41.5884 96.5351 42.1553 96.5351 42.8902C96.5351 43.3518 96.3634 43.7359 96.0199 44.0425C95.6765 44.349 95.2 44.5558 94.5907 44.6629C95.1003 44.6999 95.5343 44.8162 95.8925 45.0119C96.2544 45.204 96.5296 45.4533 96.7179 45.7598C96.91 46.0663 97.006 46.4061 97.006 46.7791C97.006 47.2629 96.8767 47.6784 96.6182 48.0256C96.3634 48.3727 95.9885 48.6386 95.4936 48.8233C95.0024 49.008 94.4023 49.1003 93.6932 49.1003H89.5051ZM91.7044 47.3331H93.6932C94.0219 47.3331 94.2786 47.2555 94.4632 47.1004C94.6516 46.9416 94.7458 46.7256 94.7458 46.4523C94.7458 46.1494 94.6516 45.9112 94.4632 45.7376C94.2786 45.5641 94.0219 45.4773 93.6932 45.4773H91.7044V47.3331ZM91.7044 44.0923H93.1836C93.4199 44.0923 93.6212 44.0591 93.7874 43.9926C93.9573 43.9224 94.0865 43.8227 94.1752 43.6935C94.2675 43.5642 94.3137 43.4109 94.3137 43.2337C94.3137 42.9715 94.2084 42.7665 93.9979 42.6188C93.7874 42.471 93.4993 42.3972 93.1337 42.3972H91.7044V44.0923Z" fill="white"/>
<path d="M102.371 49.2665C101.496 49.2665 100.743 49.0892 100.111 48.7347C99.4832 48.3764 98.9994 47.8705 98.6596 47.2168C98.3198 46.5594 98.15 45.782 98.15 44.8845C98.15 44.0092 98.3198 43.2411 98.6596 42.58C98.9994 41.9189 99.4777 41.4037 100.094 41.0344C100.715 40.6651 101.442 40.4804 102.277 40.4804C102.838 40.4804 103.361 40.5709 103.845 40.7519C104.332 40.9291 104.757 41.1969 105.119 41.5551C105.485 41.9134 105.769 42.3639 105.972 42.9068C106.175 43.446 106.277 44.0776 106.277 44.8014V45.4496H99.0917V43.9871H104.055C104.055 43.6473 103.981 43.3463 103.834 43.0841C103.686 42.8219 103.481 42.6169 103.219 42.4692C102.96 42.3178 102.659 42.242 102.316 42.242C101.958 42.242 101.64 42.3251 101.363 42.4913C101.09 42.6538 100.876 42.8736 100.72 43.1506C100.565 43.4239 100.486 43.7286 100.482 44.0646V45.4551C100.482 45.8761 100.56 46.2399 100.715 46.5465C100.874 46.853 101.097 47.0893 101.385 47.2555C101.673 47.4217 102.015 47.5048 102.41 47.5048C102.672 47.5048 102.912 47.4679 103.13 47.394C103.348 47.3202 103.535 47.2094 103.69 47.0617C103.845 46.9139 103.963 46.733 104.044 46.5188L106.227 46.6628C106.116 47.1872 105.889 47.6452 105.546 48.0367C105.206 48.4244 104.766 48.7273 104.227 48.9452C103.692 49.1594 103.073 49.2665 102.371 49.2665Z" fill="white"/>
<path d="M107.318 49.1003L107.307 47.2278H107.59C107.789 47.2278 107.961 47.1798 108.105 47.0838C108.253 46.9841 108.375 46.8234 108.471 46.6018C108.567 46.3803 108.642 46.0867 108.698 45.721C108.753 45.3517 108.79 44.8974 108.808 44.3582L108.947 40.5912H115.417V49.1003H113.168V42.447H111.069L110.936 45.0452C110.903 45.758 110.816 46.371 110.675 46.8844C110.539 47.3977 110.349 47.8187 110.105 48.1474C109.861 48.4724 109.567 48.7125 109.224 48.8676C108.881 49.0227 108.482 49.1003 108.027 49.1003H107.318Z" fill="white"/>
<path d="M119.502 45.9869L122.565 40.5912H124.892V49.1003H122.643V43.6879L119.59 49.1003H117.247V40.5912H119.502V45.9869Z" fill="white"/>
<path d="M134.168 40.5912V49.1003H131.93V40.5912H134.168ZM133.077 44.325V46.1864C132.896 46.2676 132.671 46.3452 132.401 46.419C132.131 46.4892 131.849 46.5465 131.553 46.5908C131.258 46.6351 130.981 46.6572 130.722 46.6572C129.5 46.6572 128.538 46.4061 127.836 45.9038C127.135 45.3979 126.784 44.5909 126.784 43.483V40.5801H129.011V43.483C129.011 43.8116 129.066 44.072 129.177 44.2641C129.291 44.4561 129.472 44.5946 129.72 44.6795C129.971 44.7608 130.305 44.8014 130.722 44.8014C131.11 44.8014 131.491 44.7608 131.864 44.6795C132.237 44.5983 132.641 44.4801 133.077 44.325Z" fill="white"/>
<path d="M139.878 49.2665C139.003 49.2665 138.25 49.0892 137.618 48.7347C136.99 48.3764 136.506 47.8705 136.167 47.2168C135.827 46.5594 135.657 45.782 135.657 44.8845C135.657 44.0092 135.827 43.2411 136.167 42.58C136.506 41.9189 136.985 41.4037 137.601 41.0344C138.222 40.6651 138.949 40.4804 139.784 40.4804C140.345 40.4804 140.868 40.5709 141.352 40.7519C141.839 40.9291 142.264 41.1969 142.626 41.5551C142.992 41.9134 143.276 42.3639 143.479 42.9068C143.682 43.446 143.784 44.0776 143.784 44.8014V45.4496H136.599V43.9871H141.562C141.562 43.6473 141.489 43.3463 141.341 43.0841C141.193 42.8219 140.988 42.6169 140.726 42.4692C140.467 42.3178 140.166 42.242 139.823 42.242C139.465 42.242 139.147 42.3251 138.87 42.4913C138.597 42.6538 138.383 42.8736 138.227 43.1506C138.072 43.4239 137.993 43.7286 137.989 44.0646V45.4551C137.989 45.8761 138.067 46.2399 138.222 46.5465C138.381 46.853 138.604 47.0893 138.892 47.2555C139.18 47.4217 139.522 47.5048 139.917 47.5048C140.179 47.5048 140.419 47.4679 140.637 47.394C140.855 47.3202 141.042 47.2094 141.197 47.0617C141.352 46.9139 141.47 46.733 141.551 46.5188L143.734 46.6628C143.623 47.1872 143.396 47.6452 143.053 48.0367C142.713 48.4244 142.273 48.7273 141.734 48.9452C141.199 49.1594 140.58 49.2665 139.878 49.2665Z" fill="white"/>
<path d="M151.246 43.904V45.7598H146.803V43.904H151.246ZM147.579 40.5912V49.1003H145.324V40.5912H147.579ZM152.725 40.5912V49.1003H150.487V40.5912H152.725Z" fill="white"/>
<path d="M156.811 45.9869L159.874 40.5912H162.201V49.1003H159.952V43.6879L156.899 49.1003H154.556V40.5912H156.811V45.9869Z" fill="white"/>
<path d="M169.078 49.1003V42.4415H167.483C167.051 42.4415 166.722 42.5412 166.497 42.7406C166.272 42.9401 166.161 43.1764 166.165 43.4497C166.161 43.7267 166.268 43.9612 166.486 44.1533C166.707 44.3416 167.032 44.4358 167.461 44.4358H169.865V46.0313H167.461C166.733 46.0313 166.104 45.9205 165.572 45.6989C165.04 45.4773 164.63 45.1689 164.342 44.7737C164.054 44.3749 163.912 43.9114 163.915 43.3832C163.912 42.8293 164.054 42.3436 164.342 41.9263C164.63 41.5053 165.042 41.1784 165.577 40.9457C166.117 40.7094 166.752 40.5912 167.483 40.5912H171.278V49.1003H169.078ZM163.672 49.1003L166.037 44.6685H168.292L165.932 49.1003H163.672Z" fill="white"/>
<path d="M182.644 43.904V45.7598H178.201V43.904H182.644ZM178.977 40.5912V49.1003H176.722V40.5912H178.977ZM184.123 40.5912V49.1003H181.885V40.5912H184.123Z" fill="white"/>
<path d="M189.832 49.2665C188.957 49.2665 188.203 49.0892 187.572 48.7347C186.944 48.3764 186.46 47.8705 186.12 47.2168C185.78 46.5594 185.611 45.782 185.611 44.8845C185.611 44.0092 185.78 43.2411 186.12 42.58C186.46 41.9189 186.938 41.4037 187.555 41.0344C188.175 40.6651 188.903 40.4804 189.738 40.4804C190.299 40.4804 190.822 40.5709 191.305 40.7519C191.793 40.9291 192.218 41.1969 192.58 41.5551C192.945 41.9134 193.23 42.3639 193.433 42.9068C193.636 43.446 193.737 44.0776 193.737 44.8014V45.4496H186.552V43.9871H191.516C191.516 43.6473 191.442 43.3463 191.294 43.0841C191.147 42.8219 190.942 42.6169 190.679 42.4692C190.421 42.3178 190.12 42.242 189.776 42.242C189.418 42.242 189.101 42.3251 188.824 42.4913C188.55 42.6538 188.336 42.8736 188.181 43.1506C188.026 43.4239 187.946 43.7286 187.943 44.0646V45.4551C187.943 45.8761 188.02 46.2399 188.175 46.5465C188.334 46.853 188.558 47.0893 188.846 47.2555C189.134 47.4217 189.475 47.5048 189.871 47.5048C190.133 47.5048 190.373 47.4679 190.591 47.394C190.809 47.3202 190.995 47.2094 191.15 47.0617C191.305 46.9139 191.424 46.733 191.505 46.5188L193.688 46.6628C193.577 47.1872 193.35 47.6452 193.006 48.0367C192.666 48.4244 192.227 48.7273 191.688 48.9452C191.152 49.1594 190.534 49.2665 189.832 49.2665Z" fill="white"/>
<path d="M199.349 51.992V37.7548H201.704V51.992H199.349ZM199.349 49.2665C198.695 49.2665 198.099 49.1612 197.56 48.9507C197.021 48.7365 196.555 48.4355 196.164 48.0477C195.772 47.6563 195.469 47.1928 195.255 46.6572C195.041 46.118 194.934 45.5253 194.934 44.879C194.934 44.2253 195.041 43.6307 195.255 43.0952C195.469 42.556 195.772 42.0925 196.164 41.7047C196.555 41.3132 197.021 41.0122 197.56 40.8017C198.099 40.5875 198.695 40.4804 199.349 40.4804H199.787V49.2665H199.349ZM199.349 47.4273H199.609V42.3196H199.349C199.032 42.3196 198.749 42.3861 198.502 42.519C198.254 42.652 198.045 42.8348 197.876 43.0675C197.706 43.2965 197.576 43.5661 197.488 43.8763C197.403 44.1865 197.36 44.5207 197.36 44.879C197.36 45.3517 197.438 45.782 197.593 46.1697C197.748 46.5538 197.975 46.8604 198.274 47.0893C198.574 47.3146 198.932 47.4273 199.349 47.4273ZM201.704 49.2665H201.266V40.4804H201.704C202.357 40.4804 202.954 40.5875 203.493 40.8017C204.032 41.0122 204.497 41.3132 204.889 41.7047C205.28 42.0925 205.583 42.556 205.797 43.0952C206.012 43.6307 206.119 44.2253 206.119 44.879C206.119 45.5253 206.012 46.118 205.797 46.6572C205.583 47.1928 205.28 47.6563 204.889 48.0477C204.497 48.4355 204.032 48.7365 203.493 48.9507C202.954 49.1612 202.357 49.2665 201.704 49.2665ZM201.704 47.4273C202.021 47.4273 202.304 47.3626 202.551 47.2334C202.799 47.1004 203.007 46.9176 203.177 46.6849C203.347 46.4523 203.476 46.1827 203.565 45.8761C203.654 45.5659 203.698 45.2335 203.698 44.879C203.698 44.4026 203.618 43.9723 203.46 43.5882C203.305 43.2004 203.079 42.892 202.784 42.6631C202.488 42.4341 202.128 42.3196 201.704 42.3196H201.443V47.4273H201.704Z" fill="white"/>
<path d="M206.839 42.447V40.5912H214.55V42.447H211.808V49.1003H209.559V42.447H206.839Z" fill="white"/>
<path d="M219.554 49.2665C218.679 49.2665 217.925 49.0892 217.294 48.7347C216.666 48.3764 216.182 47.8705 215.842 47.2168C215.503 46.5594 215.333 45.782 215.333 44.8845C215.333 44.0092 215.503 43.2411 215.842 42.58C216.182 41.9189 216.66 41.4037 217.277 41.0344C217.898 40.6651 218.625 40.4804 219.46 40.4804C220.021 40.4804 220.544 40.5709 221.028 40.7519C221.515 40.9291 221.94 41.1969 222.302 41.5551C222.667 41.9134 222.952 42.3639 223.155 42.9068C223.358 43.446 223.46 44.0776 223.46 44.8014V45.4496H216.275V43.9871H221.238C221.238 43.6473 221.164 43.3463 221.017 43.0841C220.869 42.8219 220.664 42.6169 220.402 42.4692C220.143 42.3178 219.842 42.242 219.499 42.242C219.14 42.242 218.823 42.3251 218.546 42.4913C218.273 42.6538 218.058 42.8736 217.903 43.1506C217.748 43.4239 217.669 43.7286 217.665 44.0646V45.4551C217.665 45.8761 217.743 46.2399 217.898 46.5465C218.056 46.853 218.28 47.0893 218.568 47.2555C218.856 47.4217 219.198 47.5048 219.593 47.5048C219.855 47.5048 220.095 47.4679 220.313 47.394C220.531 47.3202 220.717 47.2094 220.873 47.0617C221.028 46.9139 221.146 46.733 221.227 46.5188L223.41 46.6628C223.299 47.1872 223.072 47.6452 222.728 48.0367C222.389 48.4244 221.949 48.7273 221.41 48.9452C220.874 49.1594 220.256 49.2665 219.554 49.2665Z" fill="white"/>
<path d="M228.844 49.2665C227.984 49.2665 227.24 49.0837 226.612 48.718C225.988 48.3487 225.506 47.8354 225.166 47.178C224.826 46.5169 224.656 45.7506 224.656 44.879C224.656 44 224.826 43.2318 225.166 42.5744C225.506 41.9134 225.988 41.4 226.612 41.0344C227.24 40.6651 227.984 40.4804 228.844 40.4804C229.705 40.4804 230.447 40.6651 231.071 41.0344C231.699 41.4 232.183 41.9134 232.523 42.5744C232.862 43.2318 233.032 44 233.032 44.879C233.032 45.7506 232.862 46.5169 232.523 47.178C232.183 47.8354 231.699 48.3487 231.071 48.718C230.447 49.0837 229.705 49.2665 228.844 49.2665ZM228.855 47.4384C229.247 47.4384 229.574 47.3276 229.836 47.106C230.098 46.8807 230.296 46.5741 230.429 46.1864C230.565 45.7986 230.634 45.3572 230.634 44.8624C230.634 44.3675 230.565 43.9261 230.429 43.5384C230.296 43.1506 230.098 42.844 229.836 42.6188C229.574 42.3935 229.247 42.2808 228.855 42.2808C228.46 42.2808 228.128 42.3935 227.858 42.6188C227.592 42.844 227.391 43.1506 227.254 43.5384C227.121 43.9261 227.055 44.3675 227.055 44.8624C227.055 45.3572 227.121 45.7986 227.254 46.1864C227.391 46.5741 227.592 46.8807 227.858 47.106C228.128 47.3276 228.46 47.4384 228.855 47.4384Z" fill="white"/>
<path d="M233.743 42.447V40.5912H241.454V42.447H238.712V49.1003H236.463V42.447H233.743Z" fill="white"/>
<path d="M241.535 51.5932V47.2278H242.188C242.377 47.1097 242.528 46.9213 242.642 46.6628C242.761 46.4043 242.857 46.0996 242.931 45.7487C243.008 45.3979 243.067 45.0193 243.108 44.6131C243.152 44.2031 243.191 43.7895 243.224 43.3722L243.446 40.5912H249.972V47.2278H251.29V51.5932H249.041V49.1003H243.839V51.5932H241.535ZM244.537 47.2278H247.745V42.4082H245.451L245.362 43.3722C245.3 44.2807 245.209 45.0526 245.091 45.6878C244.973 46.3193 244.788 46.8327 244.537 47.2278Z" fill="white"/>
<path d="M255.092 49.2609C254.549 49.2609 254.065 49.1668 253.64 48.9784C253.216 48.7864 252.88 48.5038 252.632 48.1308C252.388 47.7541 252.266 47.2851 252.266 46.7237C252.266 46.251 252.353 45.854 252.527 45.5327C252.7 45.2114 252.937 44.9528 253.236 44.7571C253.535 44.5614 253.875 44.4136 254.255 44.3139C254.639 44.2142 255.042 44.144 255.463 44.1034C255.958 44.0517 256.357 44.0037 256.659 43.9594C256.962 43.9114 257.182 43.8412 257.319 43.7489C257.455 43.6565 257.524 43.5199 257.524 43.3389V43.3057C257.524 42.9548 257.413 42.6834 257.191 42.4913C256.973 42.2993 256.663 42.2033 256.261 42.2033C255.836 42.2033 255.498 42.2974 255.247 42.4858C254.996 42.6705 254.83 42.9031 254.748 43.1838L252.566 43.0065C252.676 42.4895 252.894 42.0426 253.219 41.6659C253.544 41.2855 253.963 40.9938 254.477 40.7906C254.994 40.5838 255.592 40.4804 256.272 40.4804C256.744 40.4804 257.197 40.5358 257.629 40.6466C258.065 40.7574 258.451 40.9291 258.787 41.1618C259.127 41.3945 259.394 41.6936 259.59 42.0592C259.786 42.4212 259.884 42.8551 259.884 43.3611V49.1003H257.646V47.9203H257.579C257.442 48.1862 257.26 48.4207 257.031 48.6239C256.802 48.8233 256.527 48.9803 256.205 49.0947C255.884 49.2055 255.513 49.2609 255.092 49.2609ZM255.768 47.6322C256.115 47.6322 256.421 47.5639 256.687 47.4273C256.953 47.2869 257.162 47.0986 257.313 46.8622C257.465 46.6259 257.54 46.3581 257.54 46.0589V45.156C257.466 45.204 257.365 45.2483 257.236 45.2889C257.11 45.3259 256.968 45.3609 256.809 45.3942C256.65 45.4237 256.491 45.4514 256.333 45.4773C256.174 45.4994 256.03 45.5197 255.901 45.5382C255.624 45.5788 255.382 45.6435 255.175 45.7321C254.968 45.8207 254.807 45.9408 254.693 46.0922C254.578 46.2399 254.521 46.4246 254.521 46.6462C254.521 46.9675 254.637 47.2131 254.87 47.383C255.106 47.5492 255.406 47.6322 255.768 47.6322Z" fill="white"/>
<path d="M269.099 40.5912V49.1003H266.861V40.5912H269.099ZM268.008 44.325V46.1864C267.827 46.2676 267.601 46.3452 267.332 46.419C267.062 46.4892 266.78 46.5465 266.484 46.5908C266.189 46.6351 265.912 46.6572 265.653 46.6572C264.431 46.6572 263.469 46.4061 262.767 45.9038C262.065 45.3979 261.715 44.5909 261.715 43.483V40.5801H263.941V43.483C263.941 43.8116 263.997 44.072 264.108 44.2641C264.222 44.4561 264.403 44.5946 264.651 44.6795C264.902 44.7608 265.236 44.8014 265.653 44.8014C266.041 44.8014 266.421 44.7608 266.794 44.6795C267.167 44.5983 267.572 44.4801 268.008 44.325Z" fill="white"/>
<path d="M273.186 45.9869L276.249 40.5912H278.576V49.1003H276.327V43.6879L273.275 49.1003H270.931V40.5912H273.186V45.9869Z" fill="white"/>
<path fill-rule="evenodd" clip-rule="evenodd" d="M31.9092 10.0175C39.1979 9.3156 46.2194 12.234 50.9795 17.2444C54.6189 21.0752 56.9368 25.7486 57.4269 31.4016C58.6149 45.1056 48.33 55.8635 36.0396 56.9852C32.381 57.3191 28.9706 56.7632 25.8202 55.6334C22.0421 54.2785 19.3363 52.3135 16.8995 49.7525C16.6592 49.5 16.3913 49.3077 16.1719 49.0391C15.0283 47.6394 14.1399 46.4788 13.1811 44.687C7.98913 34.9849 10.3062 23.2022 17.6841 16.4576L19.2027 15.0959C20.2084 14.2354 21.43 13.4701 22.751 12.7408C25.3944 11.2815 28.4631 10.3493 31.9092 10.0175ZM52.0298 60.4819C53.5789 59.9422 57.7485 55.8327 59.0702 54.1733C59.5333 53.5918 60.6804 52.2399 60.953 51.5575L57.3824 49.0987C57.6611 48.4468 58.2891 47.6378 58.6951 46.8488C59.0797 46.1016 59.5014 45.2856 59.8425 44.4551C60.5401 42.7565 61.1281 40.998 61.5199 39L65.8862 39.7696C66.6245 35.0496 66.673 31.9655 65.8736 27.1675L61.5113 27.9604C60.4881 23.0531 59.4524 21.7531 57.3596 17.8634L60.9265 15.4082C60.339 13.8063 56.2285 9.65472 54.6124 8.36907C54.024 7.90093 52.6954 6.7654 51.997 6.48707L49.5391 10.0564C48.866 9.77553 48.0911 9.15949 47.2882 8.74423C44.6726 7.39147 42.4994 6.51606 39.4403 5.91786L40.21 1.55144C35.2329 0.802374 32.6405 0.825972 27.6058 1.56419L28.4008 5.92867C26.3179 6.34828 24.8266 6.87216 22.9873 7.60049C20.5223 8.57649 19.4991 9.54777 18.3041 10.0793L15.8486 6.51045C13.8874 7.26386 7.73132 13.408 6.92829 15.4417L10.4962 17.8989C10.2224 18.5411 9.58893 19.368 9.18359 20.149C7.85249 22.7138 6.9552 24.9913 6.35748 27.998L1.99344 27.2286C1.21305 31.9835 1.25028 35.0164 2.0044 39.8319L6.35544 39.049C6.87757 41.1471 7.2608 42.5766 8.03703 44.4528C9.07252 46.9557 10.0127 47.9996 10.5179 49.1343L6.95613 51.5894C7.62924 53.4816 13.7957 59.6476 15.8821 60.51L18.3393 56.9415C19.1131 57.3371 19.7301 57.8109 20.5902 58.2536C23.349 59.6737 25.1617 60.3983 28.4405 61.0798L27.6671 65.4477C32.6155 66.1994 35.2839 66.1731 40.2726 65.4341L39.4783 61.0715C44.4191 60.0393 45.7251 58.967 49.5728 56.9182L52.0298 60.4819Z" stroke="black" stroke-width="2" mask="url(#path-1-outside-1_406_320)"/>
<path fill-rule="evenodd" clip-rule="evenodd" d="M44.2259 48.2418C44.4687 47.7038 44.4034 47.9523 43.8903 47.0115C42.611 44.6657 40.4857 41.1211 39.4684 39.0003C37.859 38.9904 38.4054 39.8709 36.6888 39.8397C35.3062 39.8146 35.1909 38.9256 33.8023 38.971C32.9539 38.9988 32.4013 39.825 31.1889 39.9658C29.4908 40.1632 30.18 38.8087 28.4336 39.0241L23.6163 47.4315C23.1247 48.3394 23.6842 48.3997 24.4953 48.3975C27.2612 48.3902 43.7268 48.5822 44.2259 48.2418Z" stroke="black" stroke-width="2" mask="url(#path-1-outside-1_406_320)"/>
<path fill-rule="evenodd" clip-rule="evenodd" d="M22.5285 48.709C21.8543 47.8203 22.3093 47.3247 22.7685 46.5759L30.3609 32.9334C30.9705 31.7823 30.7063 28.5734 30.685 27.0753C30.641 23.9896 31.071 22.8595 28.897 22.6829C28.8977 24.7056 29.1412 23.5943 29.1751 25.6279C29.1926 26.6777 29.2131 27.7296 29.2127 28.7795C29.2119 31.6694 29.3764 31.7141 28.1975 33.9163L21.4875 45.8239C20.6842 47.2015 20.0513 48.5536 21.8079 50.0884C22.5546 50.7407 22.9079 50.8796 24.107 50.8861C28.2675 50.9082 43.4873 51.4001 45.3166 50.7747C46.3537 50.4201 46.4566 50.1605 46.9112 49.2239C47.7443 47.5075 46.5308 46.1418 45.7234 44.7874L40.167 35.0083C38.7978 32.4226 38.5328 32.8316 38.5337 30.4837C38.5345 28.4459 38.4868 26.3531 38.543 24.3224C39.1026 23.9381 39.0391 24.5528 39.0312 22.7221C36.4037 22.5371 37.0516 24.7956 37.0516 26.9442C37.0516 28.2241 36.8104 32.0171 37.2989 32.8916L43.9171 44.6255C44.8083 46.1284 46.0435 47.6197 45.5095 48.7373C45.2866 49.2039 45.2189 49.2816 44.6399 49.4423C43.4922 49.7608 27.2692 49.4613 24.7627 49.4183C23.5977 49.3984 23.1225 49.4919 22.5285 48.709Z" stroke="black" stroke-width="2" mask="url(#path-1-outside-1_406_320)"/>
<path fill-rule="evenodd" clip-rule="evenodd" d="M33.9391 15.2594C33.2247 15.6009 29.5697 20.2987 31.4158 22.3866C33.2706 24.4845 37.9719 23.3416 36.6438 19.6456C35.9881 17.8206 35.038 16.381 33.9391 15.2594Z" stroke="black" stroke-width="2" mask="url(#path-1-outside-1_406_320)"/>
<path d="M82.658 18.2548L84.9459 22.1216H85.0345L87.3336 18.2548H90.0425L86.5801 23.9276L90.1201 29.6003H87.3613L85.0345 25.728H84.9459L82.6192 29.6003H79.8715L83.4225 23.9276L79.938 18.2548H82.658Z" stroke="black" stroke-width="2" mask="url(#path-1-outside-1_406_320)"/>
<path d="M93.7708 26.4869L96.8343 21.0912H99.161V29.6003H96.9118V24.1879L93.8594 29.6003H91.5161V21.0912H93.7708V26.4869Z" stroke="black" stroke-width="2" mask="url(#path-1-outside-1_406_320)"/>
<path d="M106.083 26.9911L108.387 21.0912H110.182L106.864 29.6003H105.296L102.055 21.0912H103.845L106.083 26.9911ZM103.307 21.0912V29.6003H101.053V21.0912H103.307ZM108.975 29.6003V21.0912H111.202V29.6003H108.975Z" stroke="black" stroke-width="2" mask="url(#path-1-outside-1_406_320)"/>
<path d="M115.282 26.4869L118.345 21.0912H120.672V29.6003H118.423V24.1879L115.37 29.6003H113.027V21.0912H115.282V26.4869Z" stroke="black" stroke-width="2" mask="url(#path-1-outside-1_406_320)"/>
<path d="M129.948 21.0912V29.6003H127.71V21.0912H129.948ZM128.857 24.825V26.6864C128.676 26.7676 128.451 26.8452 128.181 26.919C127.911 26.9892 127.629 27.0465 127.333 27.0908C127.038 27.1351 126.761 27.1572 126.503 27.1572C125.28 27.1572 124.318 26.9061 123.616 26.4038C122.915 25.8979 122.564 25.0909 122.564 23.983V21.0801H124.791V23.983C124.791 24.3117 124.846 24.572 124.957 24.7641C125.071 24.9561 125.252 25.0946 125.5 25.1795C125.751 25.2608 126.085 25.3014 126.503 25.3014C126.89 25.3014 127.271 25.2608 127.644 25.1795C128.017 25.0983 128.421 24.9801 128.857 24.825Z" stroke="black" stroke-width="2" mask="url(#path-1-outside-1_406_320)"/>
<path d="M135.658 29.7665C134.783 29.7665 134.03 29.5892 133.398 29.2347C132.77 28.8764 132.287 28.3705 131.947 27.7168C131.607 27.0594 131.437 26.282 131.437 25.3845C131.437 24.5092 131.607 23.7411 131.947 23.08C132.287 22.4189 132.765 21.9037 133.382 21.5344C134.002 21.1651 134.73 20.9804 135.564 20.9804C136.126 20.9804 136.648 21.0709 137.132 21.2519C137.619 21.4291 138.044 21.6969 138.406 22.0551C138.772 22.4134 139.056 22.8639 139.259 23.4068C139.462 23.946 139.564 24.5776 139.564 25.3014V25.9496H132.379V24.4871H137.342C137.342 24.1473 137.269 23.8463 137.121 23.5841C136.973 23.3219 136.768 23.1169 136.506 22.9692C136.247 22.8178 135.946 22.742 135.603 22.742C135.245 22.742 134.927 22.8251 134.65 22.9913C134.377 23.1538 134.163 23.3736 134.008 23.6506C133.852 23.9239 133.773 24.2286 133.769 24.5646V25.9551C133.769 26.3761 133.847 26.7399 134.002 27.0465C134.161 27.353 134.384 27.5893 134.672 27.7555C134.96 27.9217 135.302 28.0048 135.697 28.0048C135.959 28.0048 136.199 27.9679 136.417 27.894C136.635 27.8202 136.822 27.7094 136.977 27.5616C137.132 27.4139 137.25 27.233 137.331 27.0188L139.514 27.1628C139.403 27.6872 139.176 28.1452 138.833 28.5366C138.493 28.9244 138.053 29.2273 137.514 29.4452C136.979 29.6594 136.36 29.7665 135.658 29.7665Z" stroke="black" stroke-width="2" mask="url(#path-1-outside-1_406_320)"/>
<path d="M144.949 29.7665C144.077 29.7665 143.327 29.5818 142.699 29.2125C142.075 28.8395 141.595 28.3224 141.259 27.6614C140.927 27.0003 140.76 26.2395 140.76 25.379C140.76 24.5074 140.929 23.7429 141.265 23.0855C141.604 22.4244 142.086 21.9092 142.71 21.5399C143.335 21.1669 144.077 20.9804 144.938 20.9804C145.68 20.9804 146.33 21.1152 146.887 21.3848C147.445 21.6544 147.887 22.033 148.212 22.5205C148.537 23.008 148.716 23.5804 148.749 24.2378H146.522C146.459 23.8131 146.293 23.4715 146.023 23.2129C145.757 22.9507 145.408 22.8196 144.976 22.8196C144.611 22.8196 144.291 22.9193 144.018 23.1188C143.748 23.3145 143.538 23.6007 143.386 23.9774C143.235 24.3541 143.159 24.8102 143.159 25.3457C143.159 25.8886 143.233 26.3503 143.381 26.7307C143.532 27.1111 143.745 27.401 144.018 27.6004C144.291 27.7999 144.611 27.8996 144.976 27.8996C145.246 27.8996 145.488 27.8442 145.702 27.7334C145.92 27.6226 146.099 27.4619 146.239 27.2514C146.383 27.0372 146.478 26.7805 146.522 26.4814H148.749C148.712 27.1314 148.535 27.7038 148.217 28.1987C147.903 28.6899 147.469 29.074 146.915 29.351C146.361 29.628 145.706 29.7665 144.949 29.7665Z" stroke="black" stroke-width="2" mask="url(#path-1-outside-1_406_320)"/>
<path d="M150.26 29.6003V21.0912H152.62V24.3929H153.285L155.6 21.0912H158.37L155.362 25.3125L158.403 29.6003H155.6L153.501 26.5811H152.62V29.6003H150.26Z" stroke="black" stroke-width="2" mask="url(#path-1-outside-1_406_320)"/>
<path d="M161.655 26.4869L164.719 21.0912H167.045V29.6003H164.796V24.1879L161.744 29.6003H159.4V21.0912H161.655V26.4869Z" stroke="black" stroke-width="2" mask="url(#path-1-outside-1_406_320)"/>
<path d="M172.815 29.7665C171.94 29.7665 171.186 29.5892 170.555 29.2347C169.927 28.8764 169.443 28.3705 169.103 27.7168C168.764 27.0594 168.594 26.282 168.594 25.3845C168.594 24.5092 168.764 23.7411 169.103 23.08C169.443 22.4189 169.921 21.9037 170.538 21.5344C171.159 21.1651 171.886 20.9804 172.721 20.9804C173.282 20.9804 173.805 21.0709 174.289 21.2519C174.776 21.4291 175.201 21.6969 175.563 22.0551C175.928 22.4134 176.213 22.8639 176.416 23.4068C176.619 23.946 176.721 24.5776 176.721 25.3014V25.9496H169.535V24.4871H174.499C174.499 24.1473 174.425 23.8463 174.278 23.5841C174.13 23.3219 173.925 23.1169 173.663 22.9692C173.404 22.8178 173.103 22.742 172.76 22.742C172.401 22.742 172.084 22.8251 171.807 22.9913C171.533 23.1538 171.319 23.3736 171.164 23.6506C171.009 23.9239 170.93 24.2286 170.926 24.5646V25.9551C170.926 26.3761 171.004 26.7399 171.159 27.0465C171.317 27.353 171.541 27.5893 171.829 27.7555C172.117 27.9217 172.459 28.0048 172.854 28.0048C173.116 28.0048 173.356 27.9679 173.574 27.894C173.792 27.8202 173.978 27.7094 174.133 27.5616C174.289 27.4139 174.407 27.233 174.488 27.0188L176.671 27.1628C176.56 27.6872 176.333 28.1452 175.989 28.5366C175.65 28.9244 175.21 29.2273 174.671 29.4452C174.135 29.6594 173.517 29.7665 172.815 29.7665Z" stroke="black" stroke-width="2" mask="url(#path-1-outside-1_406_320)"/>
<path d="M186.901 26.9911L189.206 21.0912H191.001L187.682 29.6003H186.115L182.874 21.0912H184.663L186.901 26.9911ZM184.126 21.0912V29.6003H181.871V21.0912H184.126ZM189.793 29.6003V21.0912H192.02V29.6003H189.793Z" stroke="black" stroke-width="2" mask="url(#path-1-outside-1_406_320)"/>
<path d="M197.723 29.7665C196.848 29.7665 196.095 29.5892 195.463 29.2347C194.835 28.8764 194.351 28.3705 194.012 27.7168C193.672 27.0594 193.502 26.282 193.502 25.3845C193.502 24.5092 193.672 23.7411 194.012 23.08C194.351 22.4189 194.83 21.9037 195.446 21.5344C196.067 21.1651 196.794 20.9804 197.629 20.9804C198.19 20.9804 198.713 21.0709 199.197 21.2519C199.684 21.4291 200.109 21.6969 200.471 22.0551C200.837 22.4134 201.121 22.8639 201.324 23.4068C201.527 23.946 201.629 24.5776 201.629 25.3014V25.9496H194.444V24.4871H199.407C199.407 24.1473 199.333 23.8463 199.186 23.5841C199.038 23.3219 198.833 23.1169 198.571 22.9692C198.312 22.8178 198.011 22.742 197.668 22.742C197.31 22.742 196.992 22.8251 196.715 22.9913C196.442 23.1538 196.227 23.3736 196.072 23.6506C195.917 23.9239 195.838 24.2286 195.834 24.5646V25.9551C195.834 26.3761 195.912 26.7399 196.067 27.0465C196.226 27.353 196.449 27.5893 196.737 27.7555C197.025 27.9217 197.367 28.0048 197.762 28.0048C198.024 28.0048 198.264 27.9679 198.482 27.894C198.7 27.8202 198.887 27.7094 199.042 27.5616C199.197 27.4139 199.315 27.233 199.396 27.0188L201.579 27.1628C201.468 27.6872 201.241 28.1452 200.897 28.5366C200.558 28.9244 200.118 29.2273 199.579 29.4452C199.044 29.6594 198.425 29.7665 197.723 29.7665Z" stroke="black" stroke-width="2" mask="url(#path-1-outside-1_406_320)"/>
<path d="M202.512 22.947V21.0912H210.224V22.947H207.482V29.6003H205.232V22.947H202.512Z" stroke="black" stroke-width="2" mask="url(#path-1-outside-1_406_320)"/>
<path d="M215.194 29.7665C214.334 29.7665 213.59 29.5837 212.962 29.218C212.338 28.8487 211.856 28.3354 211.516 27.678C211.176 27.0169 211.006 26.2506 211.006 25.379C211.006 24.5 211.176 23.7318 211.516 23.0744C211.856 22.4134 212.338 21.9 212.962 21.5344C213.59 21.1651 214.334 20.9804 215.194 20.9804C216.055 20.9804 216.797 21.1651 217.421 21.5344C218.049 21.9 218.533 22.4134 218.873 23.0744C219.212 23.7318 219.382 24.5 219.382 25.379C219.382 26.2506 219.212 27.0169 218.873 27.678C218.533 28.3354 218.049 28.8487 217.421 29.218C216.797 29.5837 216.055 29.7665 215.194 29.7665ZM215.205 27.9384C215.597 27.9384 215.924 27.8276 216.186 27.606C216.448 27.3807 216.646 27.0742 216.779 26.6864C216.915 26.2986 216.984 25.8572 216.984 25.3624C216.984 24.8675 216.915 24.4261 216.779 24.0384C216.646 23.6506 216.448 23.344 216.186 23.1188C215.924 22.8935 215.597 22.7808 215.205 22.7808C214.81 22.7808 214.478 22.8935 214.208 23.1188C213.942 23.344 213.741 23.6506 213.604 24.0384C213.471 24.4261 213.405 24.8675 213.405 25.3624C213.405 25.8572 213.471 26.2986 213.604 26.6864C213.741 27.0742 213.942 27.3807 214.208 27.606C214.478 27.8276 214.81 27.9384 215.205 27.9384Z" stroke="black" stroke-width="2" mask="url(#path-1-outside-1_406_320)"/>
<path d="M220.252 32.0932V27.7278H220.906C221.094 27.6097 221.246 27.4213 221.36 27.1628C221.478 26.9043 221.574 26.5996 221.648 26.2487C221.726 25.8979 221.785 25.5193 221.825 25.1131C221.87 24.7031 221.908 24.2895 221.942 23.8722L222.163 21.0912H228.689V27.7278H230.008V32.0932H227.758V29.6003H222.557V32.0932H220.252ZM223.255 27.7278H226.462V22.9082H224.169L224.08 23.8722C224.017 24.7807 223.927 25.5526 223.809 26.1878C223.69 26.8193 223.506 27.3327 223.255 27.7278Z" stroke="black" stroke-width="2" mask="url(#path-1-outside-1_406_320)"/>
<path d="M232.862 23.706H235.405C236.531 23.706 237.41 23.9756 238.042 24.5148C238.673 25.0503 238.989 25.7668 238.989 26.6642C238.989 27.2477 238.847 27.7611 238.562 28.2043C238.278 28.6438 237.868 28.9872 237.333 29.2347C236.797 29.4784 236.154 29.6003 235.405 29.6003H231.383V21.0912H233.638V27.7445H235.405C235.8 27.7445 236.125 27.6447 236.38 27.4453C236.635 27.2459 236.764 26.9911 236.768 26.6808C236.764 26.3521 236.635 26.0844 236.38 25.8776C236.125 25.667 235.8 25.5618 235.405 25.5618H232.862V23.706ZM239.903 29.6003V21.0912H242.263V29.6003H239.903Z" stroke="black" stroke-width="2" mask="url(#path-1-outside-1_406_320)"/>
<path d="M81.8215 52.2912C81.5223 52.2912 81.2417 52.2672 80.9794 52.2192C80.7209 52.1749 80.5067 52.1176 80.3368 52.0474L80.8686 50.2858C81.1456 50.3707 81.3949 50.4169 81.6165 50.4243C81.8418 50.4317 82.0357 50.38 82.1982 50.2692C82.3644 50.1584 82.4992 49.97 82.6026 49.7041L82.7411 49.344L79.6887 40.5912H82.1705L83.9321 46.8401H84.0208L85.799 40.5912H88.2975L84.9902 50.0199C84.8314 50.4778 84.6154 50.8767 84.3421 51.2165C84.0725 51.5599 83.7309 51.824 83.3172 52.0087C82.9036 52.197 82.405 52.2912 81.8215 52.2912Z" stroke="black" stroke-width="2" mask="url(#path-1-outside-1_406_320)"/>
<path d="M89.5051 49.1003V40.5912H93.1337C94.1826 40.5912 95.0117 40.7906 95.6211 41.1895C96.2304 41.5884 96.5351 42.1553 96.5351 42.8902C96.5351 43.3518 96.3634 43.7359 96.0199 44.0425C95.6765 44.349 95.2 44.5558 94.5907 44.6629C95.1003 44.6999 95.5343 44.8162 95.8925 45.0119C96.2544 45.204 96.5296 45.4533 96.7179 45.7598C96.91 46.0663 97.006 46.4061 97.006 46.7791C97.006 47.2629 96.8767 47.6784 96.6182 48.0256C96.3634 48.3727 95.9885 48.6386 95.4936 48.8233C95.0024 49.008 94.4023 49.1003 93.6932 49.1003H89.5051ZM91.7044 47.3331H93.6932C94.0219 47.3331 94.2786 47.2555 94.4632 47.1004C94.6516 46.9416 94.7458 46.7256 94.7458 46.4523C94.7458 46.1494 94.6516 45.9112 94.4632 45.7376C94.2786 45.5641 94.0219 45.4773 93.6932 45.4773H91.7044V47.3331ZM91.7044 44.0923H93.1836C93.4199 44.0923 93.6212 44.0591 93.7874 43.9926C93.9573 43.9224 94.0865 43.8227 94.1752 43.6935C94.2675 43.5642 94.3137 43.4109 94.3137 43.2337C94.3137 42.9715 94.2084 42.7665 93.9979 42.6188C93.7874 42.471 93.4993 42.3972 93.1337 42.3972H91.7044V44.0923Z" stroke="black" stroke-width="2" mask="url(#path-1-outside-1_406_320)"/>
<path d="M102.371 49.2665C101.496 49.2665 100.743 49.0892 100.111 48.7347C99.4832 48.3764 98.9994 47.8705 98.6596 47.2168C98.3198 46.5594 98.15 45.782 98.15 44.8845C98.15 44.0092 98.3198 43.2411 98.6596 42.58C98.9994 41.9189 99.4777 41.4037 100.094 41.0344C100.715 40.6651 101.442 40.4804 102.277 40.4804C102.838 40.4804 103.361 40.5709 103.845 40.7519C104.332 40.9291 104.757 41.1969 105.119 41.5551C105.485 41.9134 105.769 42.3639 105.972 42.9068C106.175 43.446 106.277 44.0776 106.277 44.8014V45.4496H99.0917V43.9871H104.055C104.055 43.6473 103.981 43.3463 103.834 43.0841C103.686 42.8219 103.481 42.6169 103.219 42.4692C102.96 42.3178 102.659 42.242 102.316 42.242C101.958 42.242 101.64 42.3251 101.363 42.4913C101.09 42.6538 100.876 42.8736 100.72 43.1506C100.565 43.4239 100.486 43.7286 100.482 44.0646V45.4551C100.482 45.8761 100.56 46.2399 100.715 46.5465C100.874 46.853 101.097 47.0893 101.385 47.2555C101.673 47.4217 102.015 47.5048 102.41 47.5048C102.672 47.5048 102.912 47.4679 103.13 47.394C103.348 47.3202 103.535 47.2094 103.69 47.0617C103.845 46.9139 103.963 46.733 104.044 46.5188L106.227 46.6628C106.116 47.1872 105.889 47.6452 105.546 48.0367C105.206 48.4244 104.766 48.7273 104.227 48.9452C103.692 49.1594 103.073 49.2665 102.371 49.2665Z" stroke="black" stroke-width="2" mask="url(#path-1-outside-1_406_320)"/>
<path d="M107.318 49.1003L107.307 47.2278H107.59C107.789 47.2278 107.961 47.1798 108.105 47.0838C108.253 46.9841 108.375 46.8234 108.471 46.6018C108.567 46.3803 108.642 46.0867 108.698 45.721C108.753 45.3517 108.79 44.8974 108.808 44.3582L108.947 40.5912H115.417V49.1003H113.168V42.447H111.069L110.936 45.0452C110.903 45.758 110.816 46.371 110.675 46.8844C110.539 47.3977 110.349 47.8187 110.105 48.1474C109.861 48.4724 109.567 48.7125 109.224 48.8676C108.881 49.0227 108.482 49.1003 108.027 49.1003H107.318Z" stroke="black" stroke-width="2" mask="url(#path-1-outside-1_406_320)"/>
<path d="M119.502 45.9869L122.565 40.5912H124.892V49.1003H122.643V43.6879L119.59 49.1003H117.247V40.5912H119.502V45.9869Z" stroke="black" stroke-width="2" mask="url(#path-1-outside-1_406_320)"/>
<path d="M134.168 40.5912V49.1003H131.93V40.5912H134.168ZM133.077 44.325V46.1864C132.896 46.2676 132.671 46.3452 132.401 46.419C132.131 46.4892 131.849 46.5465 131.553 46.5908C131.258 46.6351 130.981 46.6572 130.722 46.6572C129.5 46.6572 128.538 46.4061 127.836 45.9038C127.135 45.3979 126.784 44.5909 126.784 43.483V40.5801H129.011V43.483C129.011 43.8116 129.066 44.072 129.177 44.2641C129.291 44.4561 129.472 44.5946 129.72 44.6795C129.971 44.7608 130.305 44.8014 130.722 44.8014C131.11 44.8014 131.491 44.7608 131.864 44.6795C132.237 44.5983 132.641 44.4801 133.077 44.325Z" stroke="black" stroke-width="2" mask="url(#path-1-outside-1_406_320)"/>
<path d="M139.878 49.2665C139.003 49.2665 138.25 49.0892 137.618 48.7347C136.99 48.3764 136.506 47.8705 136.167 47.2168C135.827 46.5594 135.657 45.782 135.657 44.8845C135.657 44.0092 135.827 43.2411 136.167 42.58C136.506 41.9189 136.985 41.4037 137.601 41.0344C138.222 40.6651 138.949 40.4804 139.784 40.4804C140.345 40.4804 140.868 40.5709 141.352 40.7519C141.839 40.9291 142.264 41.1969 142.626 41.5551C142.992 41.9134 143.276 42.3639 143.479 42.9068C143.682 43.446 143.784 44.0776 143.784 44.8014V45.4496H136.599V43.9871H141.562C141.562 43.6473 141.489 43.3463 141.341 43.0841C141.193 42.8219 140.988 42.6169 140.726 42.4692C140.467 42.3178 140.166 42.242 139.823 42.242C139.465 42.242 139.147 42.3251 138.87 42.4913C138.597 42.6538 138.383 42.8736 138.227 43.1506C138.072 43.4239 137.993 43.7286 137.989 44.0646V45.4551C137.989 45.8761 138.067 46.2399 138.222 46.5465C138.381 46.853 138.604 47.0893 138.892 47.2555C139.18 47.4217 139.522 47.5048 139.917 47.5048C140.179 47.5048 140.419 47.4679 140.637 47.394C140.855 47.3202 141.042 47.2094 141.197 47.0617C141.352 46.9139 141.47 46.733 141.551 46.5188L143.734 46.6628C143.623 47.1872 143.396 47.6452 143.053 48.0367C142.713 48.4244 142.273 48.7273 141.734 48.9452C141.199 49.1594 140.58 49.2665 139.878 49.2665Z" stroke="black" stroke-width="2" mask="url(#path-1-outside-1_406_320)"/>
<path d="M151.246 43.904V45.7598H146.803V43.904H151.246ZM147.579 40.5912V49.1003H145.324V40.5912H147.579ZM152.725 40.5912V49.1003H150.487V40.5912H152.725Z" stroke="black" stroke-width="2" mask="url(#path-1-outside-1_406_320)"/>
<path d="M156.811 45.9869L159.874 40.5912H162.201V49.1003H159.952V43.6879L156.899 49.1003H154.556V40.5912H156.811V45.9869Z" stroke="black" stroke-width="2" mask="url(#path-1-outside-1_406_320)"/>
<path d="M169.078 49.1003V42.4415H167.483C167.051 42.4415 166.722 42.5412 166.497 42.7406C166.272 42.9401 166.161 43.1764 166.165 43.4497C166.161 43.7267 166.268 43.9612 166.486 44.1533C166.707 44.3416 167.032 44.4358 167.461 44.4358H169.865V46.0313H167.461C166.733 46.0313 166.104 45.9205 165.572 45.6989C165.04 45.4773 164.63 45.1689 164.342 44.7737C164.054 44.3749 163.912 43.9114 163.915 43.3832C163.912 42.8293 164.054 42.3436 164.342 41.9263C164.63 41.5053 165.042 41.1784 165.577 40.9457C166.117 40.7094 166.752 40.5912 167.483 40.5912H171.278V49.1003H169.078ZM163.672 49.1003L166.037 44.6685H168.292L165.932 49.1003H163.672Z" stroke="black" stroke-width="2" mask="url(#path-1-outside-1_406_320)"/>
<path d="M182.644 43.904V45.7598H178.201V43.904H182.644ZM178.977 40.5912V49.1003H176.722V40.5912H178.977ZM184.123 40.5912V49.1003H181.885V40.5912H184.123Z" stroke="black" stroke-width="2" mask="url(#path-1-outside-1_406_320)"/>
<path d="M189.832 49.2665C188.957 49.2665 188.203 49.0892 187.572 48.7347C186.944 48.3764 186.46 47.8705 186.12 47.2168C185.78 46.5594 185.611 45.782 185.611 44.8845C185.611 44.0092 185.78 43.2411 186.12 42.58C186.46 41.9189 186.938 41.4037 187.555 41.0344C188.175 40.6651 188.903 40.4804 189.738 40.4804C190.299 40.4804 190.822 40.5709 191.305 40.7519C191.793 40.9291 192.218 41.1969 192.58 41.5551C192.945 41.9134 193.23 42.3639 193.433 42.9068C193.636 43.446 193.737 44.0776 193.737 44.8014V45.4496H186.552V43.9871H191.516C191.516 43.6473 191.442 43.3463 191.294 43.0841C191.147 42.8219 190.942 42.6169 190.679 42.4692C190.421 42.3178 190.12 42.242 189.776 42.242C189.418 42.242 189.101 42.3251 188.824 42.4913C188.55 42.6538 188.336 42.8736 188.181 43.1506C188.026 43.4239 187.946 43.7286 187.943 44.0646V45.4551C187.943 45.8761 188.02 46.2399 188.175 46.5465C188.334 46.853 188.558 47.0893 188.846 47.2555C189.134 47.4217 189.475 47.5048 189.871 47.5048C190.133 47.5048 190.373 47.4679 190.591 47.394C190.809 47.3202 190.995 47.2094 191.15 47.0617C191.305 46.9139 191.424 46.733 191.505 46.5188L193.688 46.6628C193.577 47.1872 193.35 47.6452 193.006 48.0367C192.666 48.4244 192.227 48.7273 191.688 48.9452C191.152 49.1594 190.534 49.2665 189.832 49.2665Z" stroke="black" stroke-width="2" mask="url(#path-1-outside-1_406_320)"/>
<path d="M199.349 51.992V37.7548H201.704V51.992H199.349ZM199.349 49.2665C198.695 49.2665 198.099 49.1612 197.56 48.9507C197.021 48.7365 196.555 48.4355 196.164 48.0477C195.772 47.6563 195.469 47.1928 195.255 46.6572C195.041 46.118 194.934 45.5253 194.934 44.879C194.934 44.2253 195.041 43.6307 195.255 43.0952C195.469 42.556 195.772 42.0925 196.164 41.7047C196.555 41.3132 197.021 41.0122 197.56 40.8017C198.099 40.5875 198.695 40.4804 199.349 40.4804H199.787V49.2665H199.349ZM199.349 47.4273H199.609V42.3196H199.349C199.032 42.3196 198.749 42.3861 198.502 42.519C198.254 42.652 198.045 42.8348 197.876 43.0675C197.706 43.2965 197.576 43.5661 197.488 43.8763C197.403 44.1865 197.36 44.5207 197.36 44.879C197.36 45.3517 197.438 45.782 197.593 46.1697C197.748 46.5538 197.975 46.8604 198.274 47.0893C198.574 47.3146 198.932 47.4273 199.349 47.4273ZM201.704 49.2665H201.266V40.4804H201.704C202.357 40.4804 202.954 40.5875 203.493 40.8017C204.032 41.0122 204.497 41.3132 204.889 41.7047C205.28 42.0925 205.583 42.556 205.797 43.0952C206.012 43.6307 206.119 44.2253 206.119 44.879C206.119 45.5253 206.012 46.118 205.797 46.6572C205.583 47.1928 205.28 47.6563 204.889 48.0477C204.497 48.4355 204.032 48.7365 203.493 48.9507C202.954 49.1612 202.357 49.2665 201.704 49.2665ZM201.704 47.4273C202.021 47.4273 202.304 47.3626 202.551 47.2334C202.799 47.1004 203.007 46.9176 203.177 46.6849C203.347 46.4523 203.476 46.1827 203.565 45.8761C203.654 45.5659 203.698 45.2335 203.698 44.879C203.698 44.4026 203.618 43.9723 203.46 43.5882C203.305 43.2004 203.079 42.892 202.784 42.6631C202.488 42.4341 202.128 42.3196 201.704 42.3196H201.443V47.4273H201.704Z" stroke="black" stroke-width="2" mask="url(#path-1-outside-1_406_320)"/>
<path d="M206.839 42.447V40.5912H214.55V42.447H211.808V49.1003H209.559V42.447H206.839Z" stroke="black" stroke-width="2" mask="url(#path-1-outside-1_406_320)"/>
<path d="M219.554 49.2665C218.679 49.2665 217.925 49.0892 217.294 48.7347C216.666 48.3764 216.182 47.8705 215.842 47.2168C215.503 46.5594 215.333 45.782 215.333 44.8845C215.333 44.0092 215.503 43.2411 215.842 42.58C216.182 41.9189 216.66 41.4037 217.277 41.0344C217.898 40.6651 218.625 40.4804 219.46 40.4804C220.021 40.4804 220.544 40.5709 221.028 40.7519C221.515 40.9291 221.94 41.1969 222.302 41.5551C222.667 41.9134 222.952 42.3639 223.155 42.9068C223.358 43.446 223.46 44.0776 223.46 44.8014V45.4496H216.275V43.9871H221.238C221.238 43.6473 221.164 43.3463 221.017 43.0841C220.869 42.8219 220.664 42.6169 220.402 42.4692C220.143 42.3178 219.842 42.242 219.499 42.242C219.14 42.242 218.823 42.3251 218.546 42.4913C218.273 42.6538 218.058 42.8736 217.903 43.1506C217.748 43.4239 217.669 43.7286 217.665 44.0646V45.4551C217.665 45.8761 217.743 46.2399 217.898 46.5465C218.056 46.853 218.28 47.0893 218.568 47.2555C218.856 47.4217 219.198 47.5048 219.593 47.5048C219.855 47.5048 220.095 47.4679 220.313 47.394C220.531 47.3202 220.717 47.2094 220.873 47.0617C221.028 46.9139 221.146 46.733 221.227 46.5188L223.41 46.6628C223.299 47.1872 223.072 47.6452 222.728 48.0367C222.389 48.4244 221.949 48.7273 221.41 48.9452C220.874 49.1594 220.256 49.2665 219.554 49.2665Z" stroke="black" stroke-width="2" mask="url(#path-1-outside-1_406_320)"/>
<path d="M228.844 49.2665C227.984 49.2665 227.24 49.0837 226.612 48.718C225.988 48.3487 225.506 47.8354 225.166 47.178C224.826 46.5169 224.656 45.7506 224.656 44.879C224.656 44 224.826 43.2318 225.166 42.5744C225.506 41.9134 225.988 41.4 226.612 41.0344C227.24 40.6651 227.984 40.4804 228.844 40.4804C229.705 40.4804 230.447 40.6651 231.071 41.0344C231.699 41.4 232.183 41.9134 232.523 42.5744C232.862 43.2318 233.032 44 233.032 44.879C233.032 45.7506 232.862 46.5169 232.523 47.178C232.183 47.8354 231.699 48.3487 231.071 48.718C230.447 49.0837 229.705 49.2665 228.844 49.2665ZM228.855 47.4384C229.247 47.4384 229.574 47.3276 229.836 47.106C230.098 46.8807 230.296 46.5741 230.429 46.1864C230.565 45.7986 230.634 45.3572 230.634 44.8624C230.634 44.3675 230.565 43.9261 230.429 43.5384C230.296 43.1506 230.098 42.844 229.836 42.6188C229.574 42.3935 229.247 42.2808 228.855 42.2808C228.46 42.2808 228.128 42.3935 227.858 42.6188C227.592 42.844 227.391 43.1506 227.254 43.5384C227.121 43.9261 227.055 44.3675 227.055 44.8624C227.055 45.3572 227.121 45.7986 227.254 46.1864C227.391 46.5741 227.592 46.8807 227.858 47.106C228.128 47.3276 228.46 47.4384 228.855 47.4384Z" stroke="black" stroke-width="2" mask="url(#path-1-outside-1_406_320)"/>
<path d="M233.743 42.447V40.5912H241.454V42.447H238.712V49.1003H236.463V42.447H233.743Z" stroke="black" stroke-width="2" mask="url(#path-1-outside-1_406_320)"/>
<path d="M241.535 51.5932V47.2278H242.188C242.377 47.1097 242.528 46.9213 242.642 46.6628C242.761 46.4043 242.857 46.0996 242.931 45.7487C243.008 45.3979 243.067 45.0193 243.108 44.6131C243.152 44.2031 243.191 43.7895 243.224 43.3722L243.446 40.5912H249.972V47.2278H251.29V51.5932H249.041V49.1003H243.839V51.5932H241.535ZM244.537 47.2278H247.745V42.4082H245.451L245.362 43.3722C245.3 44.2807 245.209 45.0526 245.091 45.6878C244.973 46.3193 244.788 46.8327 244.537 47.2278Z" stroke="black" stroke-width="2" mask="url(#path-1-outside-1_406_320)"/>
<path d="M255.092 49.2609C254.549 49.2609 254.065 49.1668 253.64 48.9784C253.216 48.7864 252.88 48.5038 252.632 48.1308C252.388 47.7541 252.266 47.2851 252.266 46.7237C252.266 46.251 252.353 45.854 252.527 45.5327C252.7 45.2114 252.937 44.9528 253.236 44.7571C253.535 44.5614 253.875 44.4136 254.255 44.3139C254.639 44.2142 255.042 44.144 255.463 44.1034C255.958 44.0517 256.357 44.0037 256.659 43.9594C256.962 43.9114 257.182 43.8412 257.319 43.7489C257.455 43.6565 257.524 43.5199 257.524 43.3389V43.3057C257.524 42.9548 257.413 42.6834 257.191 42.4913C256.973 42.2993 256.663 42.2033 256.261 42.2033C255.836 42.2033 255.498 42.2974 255.247 42.4858C254.996 42.6705 254.83 42.9031 254.748 43.1838L252.566 43.0065C252.676 42.4895 252.894 42.0426 253.219 41.6659C253.544 41.2855 253.963 40.9938 254.477 40.7906C254.994 40.5838 255.592 40.4804 256.272 40.4804C256.744 40.4804 257.197 40.5358 257.629 40.6466C258.065 40.7574 258.451 40.9291 258.787 41.1618C259.127 41.3945 259.394 41.6936 259.59 42.0592C259.786 42.4212 259.884 42.8551 259.884 43.3611V49.1003H257.646V47.9203H257.579C257.442 48.1862 257.26 48.4207 257.031 48.6239C256.802 48.8233 256.527 48.9803 256.205 49.0947C255.884 49.2055 255.513 49.2609 255.092 49.2609ZM255.768 47.6322C256.115 47.6322 256.421 47.5639 256.687 47.4273C256.953 47.2869 257.162 47.0986 257.313 46.8622C257.465 46.6259 257.54 46.3581 257.54 46.0589V45.156C257.466 45.204 257.365 45.2483 257.236 45.2889C257.11 45.3259 256.968 45.3609 256.809 45.3942C256.65 45.4237 256.491 45.4514 256.333 45.4773C256.174 45.4994 256.03 45.5197 255.901 45.5382C255.624 45.5788 255.382 45.6435 255.175 45.7321C254.968 45.8207 254.807 45.9408 254.693 46.0922C254.578 46.2399 254.521 46.4246 254.521 46.6462C254.521 46.9675 254.637 47.2131 254.87 47.383C255.106 47.5492 255.406 47.6322 255.768 47.6322Z" stroke="black" stroke-width="2" mask="url(#path-1-outside-1_406_320)"/>
<path d="M269.099 40.5912V49.1003H266.861V40.5912H269.099ZM268.008 44.325V46.1864C267.827 46.2676 267.601 46.3452 267.332 46.419C267.062 46.4892 266.78 46.5465 266.484 46.5908C266.189 46.6351 265.912 46.6572 265.653 46.6572C264.431 46.6572 263.469 46.4061 262.767 45.9038C262.065 45.3979 261.715 44.5909 261.715 43.483V40.5801H263.941V43.483C263.941 43.8116 263.997 44.072 264.108 44.2641C264.222 44.4561 264.403 44.5946 264.651 44.6795C264.902 44.7608 265.236 44.8014 265.653 44.8014C266.041 44.8014 266.421 44.7608 266.794 44.6795C267.167 44.5983 267.572 44.4801 268.008 44.325Z" stroke="black" stroke-width="2" mask="url(#path-1-outside-1_406_320)"/>
<path d="M273.186 45.9869L276.249 40.5912H278.576V49.1003H276.327V43.6879L273.275 49.1003H270.931V40.5912H273.186V45.9869Z" stroke="black" stroke-width="2" mask="url(#path-1-outside-1_406_320)"/>
</svg>
