<svg width="253" height="60" viewBox="0 0 253 60" fill="none" xmlns="http://www.w3.org/2000/svg">
<path d="M61.6014 26.4691V17.4145H64.0105C64.9084 17.4145 65.4965 17.4588 65.7725 17.5452C66.213 17.6843 66.5756 17.9836 66.8622 18.4409C67.1488 18.8962 67.2922 19.4864 67.2922 20.2072C67.2922 20.8606 67.1678 21.4107 66.9212 21.8533C66.6747 22.2959 66.3648 22.6057 65.9939 22.7848C65.6229 22.964 64.9842 23.0546 64.078 23.0546H63.0938V26.4691H61.6014ZM63.0938 18.9446V21.5244H63.9262C64.4826 21.5244 64.8641 21.4844 65.0644 21.4065C65.2646 21.3284 65.429 21.1873 65.5575 20.9829C65.686 20.7762 65.7494 20.5254 65.7494 20.2283C65.7494 19.9269 65.684 19.6719 65.5513 19.4653C65.4184 19.2587 65.254 19.1197 65.0602 19.0501C64.8662 18.9805 64.4553 18.9446 63.825 18.9446H63.0938ZM75.2066 26.4691H73.5836L72.9492 24.4204H69.9647L69.3514 26.4691H67.758L70.6434 17.4145H72.2411L75.2066 26.4691ZM72.4602 22.8902L71.4317 19.5285L70.4243 22.8902H72.4602ZM78.1489 22.6626H77.8222V21.2968C78.8677 21.3496 79.3903 20.89 79.3903 19.9184C79.3903 19.5622 79.2891 19.2797 79.0846 19.0712C78.8802 18.8604 78.602 18.755 78.2479 18.755C77.6389 18.755 77.2447 19.1343 77.0634 19.8932L75.6091 19.4737C75.9085 18.0005 76.8 17.2627 78.2795 17.2627C79.0785 17.2627 79.719 17.4819 80.2059 17.9204C80.6907 18.3608 80.9332 18.9258 80.9332 19.617C80.9332 20.4791 80.5242 21.1725 79.7065 21.6951C80.6929 22.1273 81.1861 22.8839 81.1861 23.9631C81.1861 24.7893 80.9352 25.4384 80.4358 25.9127C79.9361 26.3848 79.2301 26.6209 78.3154 26.6209C77.5419 26.6209 76.9348 26.4669 76.4944 26.1572C76.0539 25.8495 75.7124 25.2572 75.47 24.3804L76.8485 23.826C76.9834 24.3446 77.1604 24.6902 77.3796 24.8651C77.5967 25.0402 77.8981 25.1286 78.2795 25.1286C78.6948 25.1286 79.0257 25.017 79.2723 24.7914C79.5189 24.5679 79.6432 24.2688 79.6432 23.8977C79.6432 23.512 79.5125 23.2085 79.2512 22.9892C78.9898 22.7723 78.6232 22.6626 78.1489 22.6626ZM82.4907 26.4691V17.4145H84.8998C85.7977 17.4145 86.3857 17.4588 86.6618 17.5452C87.1022 17.6843 87.4649 17.9836 87.7515 18.4409C88.0381 18.8962 88.1814 19.4864 88.1814 20.2072C88.1814 20.8606 88.0571 21.4107 87.8104 21.8533C87.5639 22.2959 87.2541 22.6057 86.8831 22.7848C86.5122 22.964 85.8735 23.0546 84.9673 23.0546H83.983V26.4691H82.4907ZM83.983 18.9446V21.5244H84.8154C85.3718 21.5244 85.7533 21.4844 85.9537 21.4065C86.1539 21.3284 86.3182 21.1873 86.4468 20.9829C86.5753 20.7762 86.6386 20.5254 86.6386 20.2283C86.6386 19.9269 86.5733 19.6719 86.4405 19.4653C86.3077 19.2587 86.1432 19.1197 85.9494 19.0501C85.7556 18.9805 85.3445 18.9446 84.7144 18.9446H83.983ZM96.0958 26.4691H94.4728L93.8384 24.4204H90.854L90.2407 26.4691H88.6472L91.5326 17.4145H93.1303L96.0958 26.4691ZM93.3494 22.8902L92.3209 19.5285L91.3135 22.8902H93.3494ZM96.9283 26.4691V17.4145H102.48V18.9446H98.4207V21.0186H100.547C101.35 21.0186 101.98 21.2695 102.438 21.7689C102.895 22.2686 103.125 22.9303 103.125 23.7523C103.125 24.4689 102.931 25.1012 102.541 25.6471C102.151 26.1952 101.487 26.4691 100.549 26.4691H96.9283ZM98.4207 22.5488V24.9389H100.001C100.412 24.9389 100.709 24.9116 100.893 24.8547C101.076 24.7999 101.236 24.6713 101.376 24.4689C101.513 24.2688 101.582 24.0327 101.582 23.7649C101.582 22.9535 101.076 22.5488 100.062 22.5488H98.4207ZM104.046 21.9966C104.046 20.9195 104.206 20.0323 104.524 19.3345C104.843 18.6369 105.26 18.1163 105.774 17.7749C106.289 17.4334 106.913 17.2627 107.644 17.2627C108.706 17.2627 109.57 17.6674 110.238 18.4789C110.907 19.2904 111.242 20.4432 111.242 21.9419C111.242 23.4552 110.888 24.6396 110.179 25.4911C109.56 26.2436 108.715 26.6209 107.65 26.6209C106.575 26.6209 105.728 26.2478 105.108 25.5038C104.4 24.6523 104.046 23.4825 104.046 21.9966ZM105.589 21.9355C105.589 22.9746 105.787 23.7544 106.181 24.2729C106.577 24.7934 107.068 25.0528 107.652 25.0528C108.242 25.0528 108.731 24.7956 109.117 24.2792C109.505 23.765 109.699 22.9724 109.699 21.9039C109.699 20.8584 109.511 20.0828 109.134 19.5833C108.757 19.0816 108.263 18.8308 107.652 18.8308C107.043 18.8308 106.548 19.0838 106.164 19.5875C105.781 20.0933 105.589 20.8754 105.589 21.9355ZM114.089 26.4691V18.9446H111.889V17.4145H117.782V18.9446H115.581V26.4691H114.089ZM118.781 26.4691V17.4145H120.273V21.2715C120.608 21.2294 120.84 21.1176 120.969 20.9344C121.097 20.751 121.266 20.3105 121.477 19.6107C121.685 18.9109 121.904 18.4008 122.13 18.0826C122.357 17.7644 122.598 17.5684 122.853 17.4988C123.108 17.4293 123.546 17.3809 124.168 17.3512V18.7045H123.959C123.54 18.7045 123.257 18.8034 123.108 19.0015C122.96 19.1998 122.804 19.577 122.64 20.1376C122.478 20.6961 122.338 21.0671 122.227 21.2505C122.113 21.4338 121.93 21.6173 121.679 21.7964C122.008 21.9334 122.275 22.1547 122.482 22.4603C122.688 22.7659 122.939 23.276 123.232 23.9926L124.244 26.4691H122.49L121.59 24.1296C121.363 23.531 121.169 23.1158 121.004 22.8776C120.842 22.6415 120.598 22.5194 120.273 22.5109V26.4691H118.781ZM131.781 26.4691H130.158L129.524 24.4204H126.539L125.926 26.4691H124.332L127.218 17.4145H128.815L131.781 26.4691ZM129.035 22.8902L128.006 19.5285L126.999 22.8902H129.035ZM135.484 26.4691V17.4903H140.707V19.0205H136.977V26.4691H135.484ZM148.385 26.4691H146.762L146.128 24.4204H143.143L142.53 26.4691H140.937L143.822 17.4145H145.42L148.385 26.4691ZM145.639 22.8902L144.61 19.5285L143.603 22.8902H145.639ZM151.328 22.6626H151.001V21.2968C152.046 21.3496 152.569 20.89 152.569 19.9184C152.569 19.5622 152.468 19.2797 152.263 19.0712C152.059 18.8604 151.781 18.755 151.427 18.755C150.818 18.755 150.423 19.1343 150.242 19.8932L148.788 19.4737C149.087 18.0005 149.979 17.2627 151.458 17.2627C152.257 17.2627 152.898 17.4819 153.385 17.9204C153.869 18.3608 154.112 18.9258 154.112 19.617C154.112 20.4791 153.703 21.1725 152.885 21.6951C153.872 22.1273 154.365 22.8839 154.365 23.9631C154.365 24.7893 154.114 25.4384 153.614 25.9127C153.115 26.3848 152.409 26.6209 151.494 26.6209C150.721 26.6209 150.114 26.4669 149.673 26.1572C149.233 25.8495 148.891 25.2572 148.649 24.3804L150.027 23.826C150.162 24.3446 150.339 24.6902 150.558 24.8651C150.775 25.0402 151.077 25.1286 151.458 25.1286C151.873 25.1286 152.204 25.017 152.451 24.7914C152.698 24.5679 152.822 24.2688 152.822 23.8977C152.822 23.512 152.691 23.2085 152.43 22.9892C152.169 22.7723 151.802 22.6626 151.328 22.6626ZM155.366 21.9966C155.366 20.9195 155.526 20.0323 155.844 19.3345C156.163 18.6369 156.58 18.1163 157.094 17.7749C157.608 17.4334 158.232 17.2627 158.964 17.2627C160.026 17.2627 160.89 17.6674 161.558 18.4789C162.226 19.2904 162.562 20.4432 162.562 21.9419C162.562 23.4552 162.207 24.6396 161.499 25.4911C160.88 26.2436 160.034 26.6209 158.97 26.6209C157.895 26.6209 157.048 26.2478 156.428 25.5038C155.72 24.6523 155.366 23.4825 155.366 21.9966ZM156.909 21.9355C156.909 22.9746 157.107 23.7544 157.501 24.2729C157.897 24.7934 158.388 25.0528 158.972 25.0528C159.562 25.0528 160.051 24.7956 160.437 24.2792C160.825 23.765 161.019 22.9724 161.019 21.9039C161.019 20.8584 160.831 20.0828 160.454 19.5833C160.076 19.0816 159.583 18.8308 158.972 18.8308C158.363 18.8308 157.868 19.0838 157.484 19.5875C157.101 20.0933 156.909 20.8754 156.909 21.9355ZM163.765 26.4691V17.4145H165.257V21.2715C165.592 21.2294 165.824 21.1176 165.953 20.9344C166.081 20.751 166.25 20.3105 166.461 19.6107C166.669 18.9109 166.889 18.4008 167.114 18.0826C167.342 17.7644 167.582 17.5684 167.837 17.4988C168.092 17.4293 168.531 17.3809 169.152 17.3512V18.7045H168.944C168.524 18.7045 168.242 18.8034 168.092 19.0015C167.945 19.1998 167.789 19.577 167.624 20.1376C167.462 20.6961 167.323 21.0671 167.211 21.2505C167.097 21.4338 166.914 21.6173 166.663 21.7964C166.992 21.9334 167.26 22.1547 167.466 22.4603C167.673 22.7659 167.923 23.276 168.216 23.9926L169.228 26.4691H167.475L166.574 24.1296C166.347 23.531 166.153 23.1158 165.989 22.8776C165.826 22.6415 165.582 22.5194 165.257 22.5109V26.4691H163.765ZM169.772 21.9966C169.772 20.9195 169.932 20.0323 170.25 19.3345C170.569 18.6369 170.986 18.1163 171.5 17.7749C172.014 17.4334 172.638 17.2627 173.37 17.2627C174.432 17.2627 175.296 17.6674 175.964 18.4789C176.632 19.2904 176.967 20.4432 176.967 21.9419C176.967 23.4552 176.613 24.6396 175.905 25.4911C175.286 26.2436 174.44 26.6209 173.376 26.6209C172.301 26.6209 171.454 26.2478 170.834 25.5038C170.126 24.6523 169.772 23.4825 169.772 21.9966ZM171.315 21.9355C171.315 22.9746 171.513 23.7544 171.907 24.2729C172.303 24.7934 172.794 25.0528 173.378 25.0528C173.968 25.0528 174.457 24.7956 174.843 24.2792C175.231 23.765 175.425 22.9724 175.425 21.9039C175.425 20.8584 175.237 20.0828 174.86 19.5833C174.482 19.0816 173.989 18.8308 173.378 18.8308C172.769 18.8308 172.274 19.0838 171.89 19.5875C171.507 20.0933 171.315 20.8754 171.315 21.9355ZM178.146 26.4691V17.4145H179.638V20.9806H182.585V17.4145H184.077V26.4691H182.585V22.5109H179.638V26.4691H178.146ZM191.346 24.9389H191.991V28.4419H190.764V26.4691H186.073V28.4419H184.846V24.9389H185.466C185.708 24.3045 185.896 23.5394 186.026 22.6415C186.159 21.7436 186.224 20.4053 186.224 18.6243V17.4145H191.346V24.9389ZM189.854 18.9446H187.641C187.641 21.615 187.438 23.6132 187.034 24.9389H189.854V18.9446ZM193.015 26.4691V17.4145H198.516V18.9446H194.508V20.9428H198.238V22.473H194.508V24.9389H198.655V26.4691H193.015ZM199.931 26.4691V17.4145H201.423V20.9806H204.37V17.4145H205.862V26.4691H204.37V22.5109H201.423V26.4691H199.931ZM212.157 23.1305L213.612 23.6869C213.386 24.7049 213.009 25.447 212.482 25.9169C211.955 26.3869 211.308 26.6209 210.539 26.6209C209.571 26.6209 208.787 26.2478 208.187 25.5038C207.495 24.6439 207.149 23.4825 207.149 22.0218C207.149 20.4791 207.497 19.2713 208.193 18.3988C208.8 17.6421 209.613 17.2627 210.634 17.2627C211.466 17.2627 212.162 17.5473 212.722 18.1164C213.121 18.521 213.414 19.1217 213.599 19.9184L212.119 20.3484C212.025 19.8595 211.835 19.4843 211.552 19.2228C211.27 18.9616 210.937 18.8308 210.553 18.8308C210.005 18.8308 209.559 19.0689 209.213 19.5453C208.865 20.0217 208.692 20.8079 208.692 21.9039C208.692 23.042 208.861 23.8513 209.198 24.3319C209.535 24.8126 209.972 25.0528 210.511 25.0528C210.905 25.0528 211.247 24.8989 211.536 24.5933C211.822 24.2856 212.031 23.7986 212.157 23.1305ZM221.589 26.4691H219.966L219.332 24.4204H216.347L215.734 26.4691H214.141L217.026 17.4145H218.624L221.589 26.4691ZM218.843 22.8902L217.814 19.5285L216.807 22.8902H218.843ZM224.053 26.4691V18.9446H221.853V17.4145H227.746V18.9446H225.545V26.4691H224.053ZM228.72 26.4691V17.4145H230.212V20.9806H233.158V17.4145H234.65V26.4691H233.158V22.5109H230.212V26.4691H228.72ZM236.229 26.4691V17.4145H237.721V21.0186H239.848C240.639 21.0186 241.267 21.2736 241.73 21.7816C242.194 22.2896 242.426 22.9598 242.426 23.7902C242.426 24.4689 242.238 25.0865 241.863 25.6387C241.488 26.1929 240.822 26.4691 239.863 26.4691H236.229ZM237.721 22.5488V24.9389H239.302C239.713 24.9389 240.01 24.9116 240.194 24.8547C240.377 24.7999 240.537 24.6691 240.676 24.4626C240.813 24.2581 240.883 24.02 240.883 23.7523C240.883 22.9493 240.377 22.5488 239.363 22.5488H237.721ZM243.614 26.4691V17.4145H245.107V26.4691H243.614ZM245.788 26.4691L248.357 21.7436L246.028 17.4145H247.777L249.244 20.1165L250.713 17.4145H252.452L250.125 21.7416L252.692 26.4691H250.901L249.242 23.3856L247.583 26.4691H245.788ZM61.5762 40.9257V31.8712H63.8124L65.1614 38.0593L66.4934 31.8712H68.7465V40.9257H67.3554V33.785L65.878 40.9257H64.4469L62.9672 33.785V40.9257H61.5762ZM70.2408 40.9257V31.8712H75.7419V33.4012H71.7331V35.3994H75.4636V36.9296H71.7331V39.3955H75.881V40.9257H70.2408ZM81.8984 37.5871L83.3526 38.1435C83.1271 39.1617 82.7499 39.9036 82.2229 40.3736C81.6961 40.8435 81.049 41.0775 80.2797 41.0775C79.3123 41.0775 78.5283 40.7045 77.9275 39.9604C77.2362 39.1005 76.8906 37.9391 76.8906 36.4786C76.8906 34.9357 77.2383 33.7281 77.9338 32.8554C78.541 32.0987 79.3545 31.7194 80.3746 31.7194C81.207 31.7194 81.9026 32.004 82.4633 32.5731C82.8616 32.9776 83.1546 33.5783 83.3401 34.375L81.8605 34.8051C81.7656 34.3161 81.5759 33.9409 81.2935 33.6795C81.011 33.4182 80.678 33.2875 80.2944 33.2875C79.7465 33.2875 79.2997 33.5257 78.9539 34.002C78.6062 34.4784 78.4334 35.2645 78.4334 36.3605C78.4334 37.4987 78.6019 38.3081 78.9393 38.7886C79.2764 39.2692 79.7128 39.5094 80.2523 39.5094C80.6464 39.5094 80.9878 39.3555 81.2766 39.0499C81.5632 38.7422 81.7719 38.2552 81.8984 37.5871ZM86.3098 40.9257V33.4012H84.1094V31.8712H90.0025V33.4012H87.802V40.9257H86.3098ZM90.6727 36.4533C90.6727 35.3762 90.8328 34.4889 91.1511 33.7912C91.4694 33.0936 91.8866 32.5731 92.401 32.2317C92.9152 31.8901 93.5391 31.7194 94.2705 31.7194C95.3328 31.7194 96.1969 32.1241 96.865 32.9355C97.5332 33.747 97.8683 34.9 97.8683 36.3985C97.8683 37.9118 97.5142 39.0963 96.806 39.9477C96.1864 40.7003 95.3412 41.0775 94.2767 41.0775C93.2019 41.0775 92.3546 40.7045 91.735 39.9604C91.0268 39.1089 90.6727 37.9391 90.6727 36.4533ZM92.2156 36.3921C92.2156 37.4313 92.4136 38.2111 92.8078 38.7295C93.204 39.2501 93.6951 39.5094 94.2789 39.5094C94.8691 39.5094 95.358 39.2523 95.7438 38.7358C96.1315 38.2216 96.3255 37.4291 96.3255 36.3605C96.3255 35.3152 96.1379 34.5395 95.7607 34.0399C95.3833 33.5382 94.8902 33.2875 94.2789 33.2875C93.6698 33.2875 93.1746 33.5405 92.7909 34.0441C92.4073 34.55 92.2156 35.332 92.2156 36.3921ZM99.0465 40.9257V31.8712H101.456C102.353 31.8712 102.941 31.9154 103.218 32.0018C103.658 32.1409 104.021 32.4402 104.307 32.8975C104.594 33.3528 104.737 33.943 104.737 34.6639C104.737 35.3172 104.613 35.8674 104.366 36.3099C104.12 36.7525 103.81 37.0623 103.439 37.2416C103.068 37.4207 102.429 37.5113 101.523 37.5113H100.539V40.9257H99.0465ZM100.539 33.4012V35.9812H101.371C101.928 35.9812 102.309 35.9412 102.509 35.8631C102.71 35.7851 102.874 35.6439 103.003 35.4395C103.131 35.233 103.194 34.9821 103.194 34.6849C103.194 34.3835 103.129 34.1285 102.996 33.9219C102.864 33.7154 102.699 33.5763 102.505 33.5067C102.311 33.4372 101.9 33.4012 101.27 33.4012H100.539ZM105.658 36.4533C105.658 35.3762 105.818 34.4889 106.137 33.7912C106.455 33.0936 106.872 32.5731 107.387 32.2317C107.901 31.8901 108.525 31.7194 109.256 31.7194C110.318 31.7194 111.183 32.1241 111.851 32.9355C112.519 33.747 112.854 34.9 112.854 36.3985C112.854 37.9118 112.5 39.0963 111.792 39.9477C111.172 40.7003 110.327 41.0775 109.262 41.0775C108.187 41.0775 107.34 40.7045 106.721 39.9604C106.012 39.1089 105.658 37.9391 105.658 36.4533ZM107.201 36.3921C107.201 37.4313 107.399 38.2111 107.793 38.7295C108.19 39.2501 108.681 39.5094 109.265 39.5094C109.855 39.5094 110.344 39.2523 110.729 38.7358C111.117 38.2216 111.311 37.4291 111.311 36.3605C111.311 35.3152 111.123 34.5395 110.746 34.0399C110.369 33.5382 109.876 33.2875 109.265 33.2875C108.655 33.2875 108.16 33.5405 107.777 34.0441C107.393 34.55 107.201 35.332 107.201 36.3921ZM117.244 31.8712H118.673V35.7281C118.945 35.6987 119.143 35.5785 119.272 35.3657C119.398 35.1549 119.588 34.6428 119.839 33.8313C120.09 33.0198 120.37 32.4802 120.678 32.2126C120.985 31.9471 121.578 31.8121 122.454 31.8079V33.1611H122.239C121.816 33.1611 121.531 33.2601 121.384 33.4562C121.234 33.6521 121.074 34.0568 120.899 34.6659C120.724 35.2751 120.572 35.6607 120.444 35.823C120.317 35.9853 120.157 36.1307 119.963 36.2593C120.246 36.3732 120.496 36.5734 120.716 36.8538C120.933 37.1362 121.2 37.6674 121.519 38.4492L122.53 40.9257H120.768L119.868 38.5884C119.668 38.0614 119.483 37.6546 119.31 37.3701C119.139 37.0855 118.926 36.9507 118.673 36.9676V40.9257H117.244V36.9676C117.021 36.9591 116.827 37.0686 116.662 37.2985C116.498 37.5282 116.296 37.9582 116.062 38.5904L115.147 40.9257H113.387L114.399 38.4492C114.696 37.7326 114.947 37.2225 115.156 36.919C115.362 36.6135 115.628 36.3942 115.952 36.2593C115.701 36.0781 115.522 35.8988 115.413 35.722C115.303 35.5448 115.164 35.1613 114.991 34.5732C114.82 33.9831 114.654 33.5952 114.492 33.4055C114.329 33.2179 113.986 33.1357 113.463 33.1611V31.8079C114.342 31.7994 114.936 31.9344 115.25 32.2147C115.562 32.495 115.843 33.0368 116.089 33.8419C116.336 34.6471 116.523 35.1549 116.65 35.3699C116.778 35.5849 116.977 35.7029 117.244 35.7281V31.8712ZM129.121 39.3955H129.766V42.8985H128.539V40.9257H123.848V42.8985H122.621V39.3955H123.241C123.483 38.7611 123.671 37.9961 123.801 37.0982C123.934 36.2004 123.999 34.8619 123.999 33.0809V31.8712H129.121V39.3955ZM127.629 33.4012H125.416C125.416 36.0718 125.213 38.0698 124.809 39.3955H127.629V33.4012ZM130.79 40.9257V31.8712H136.291V33.4012H132.283V35.3994H136.013V36.9296H132.283V39.3955H136.43V40.9257H130.79ZM137.706 40.9257V31.8712H139.198V35.4374H142.144V31.8712H143.637V40.9257H142.144V36.9676H139.198V40.9257H137.706ZM145.19 40.9257V31.8712H146.619V37.9054L149.608 31.8712H151.121V40.9257H149.692V35.0222L146.712 40.9257H145.19ZM152.649 40.9257V31.8712H154.078V37.9054L157.067 31.8712H158.58V40.9257H157.151V35.0222L154.171 40.9257H152.649ZM156.519 29.4685H157.214C157.176 30.0438 157.014 30.4884 156.723 30.7983C156.432 31.1081 156.07 31.2641 155.638 31.2641C155.204 31.2641 154.841 31.1081 154.55 30.7983C154.259 30.4884 154.095 30.0438 154.053 29.4685H154.748C154.801 30.0585 155.098 30.3537 155.638 30.3537C156.175 30.3537 156.47 30.0585 156.519 29.4685Z" fill="white"/>
<path d="M22.9121 0L47.261 13.5064V59.9999L22.9121 46.5302V0Z" fill="white" fill-opacity="0.5"/>
<path d="M19.2404 12.3483V48.4897L0.308105 38.0191V1.84912L19.2404 12.3483Z" fill="white" fill-opacity="0.5"/>
<path d="M14.0059 15.3647L32.1308 25.4125V60.0001L14.0059 49.9796V15.3647Z" fill="white" fill-opacity="0.5"/>
<path d="M8.71973 2.31738L14.0062 5.25437V15.3643L8.71973 12.4353V2.31738Z" fill="white" fill-opacity="0.5"/>
</svg>
