<svg width="110" height="65" viewBox="0 0 110 65" fill="none" xmlns="http://www.w3.org/2000/svg">
<path d="M23.012 42.3242V49.4545L23.019 49.4463C23.0255 49.4387 23.0321 49.431 23.0409 49.4219C25.5101 46.9421 29.5179 46.9421 31.9888 49.4219C34.4596 51.9049 34.4596 55.9367 31.9888 58.414C31.9841 58.4195 31.9797 58.4244 31.9752 58.4288C31.969 58.435 31.9626 58.4403 31.9554 58.4453L31.955 58.4475C31.9456 58.4593 31.9309 58.4706 31.9193 58.4838C29.4558 60.9386 26.2339 62.1737 23.012 62.1737C19.7766 62.1737 16.5419 60.9266 14.0712 58.4533C9.72321 54.0817 9.20666 47.3187 12.5225 42.3819C12.9702 41.7129 13.4836 41.0804 14.0712 40.4908C16.5419 38.0103 19.7766 36.7757 23.012 36.7757V19.771C10.58 19.771 0.5 29.8987 0.5 42.3819C0.5 54.8722 10.58 65 23.012 65C29.4965 65 35.3345 62.2422 39.4408 57.8414L39.4409 42.3242H23.012Z" fill="white"/>
<path fill-rule="evenodd" clip-rule="evenodd" d="M36.6365 11.7272C35.4257 6.36877 32.588 1.90266 31.6423 0.414207C31.5242 0.228368 31.4356 0.0889463 31.3833 0C30.6381 1.12564 27.9081 5.44971 26.5245 10.2527C25.01 15.6056 24.787 20.354 25.3099 25.0317C25.8278 29.706 27.7881 34.5062 27.7881 34.5062C28.829 37.0275 30.3896 39.7263 31.4035 41.0526C32.8917 39.1022 36.3159 33.2837 37.3806 25.6805C37.9742 21.4566 37.9992 17.7534 36.6365 11.7272ZM31.3833 39.5538C30.7132 38.2802 29.6709 35.8544 29.5718 32.1096C29.5467 28.4853 30.9834 25.3786 31.4035 24.7313C31.779 25.3784 33.0173 28.0842 33.1654 31.7832C33.2642 35.4034 32.0765 38.2529 31.3833 39.5538ZM36.242 21.9557C36.1905 24.2537 35.9177 26.6821 35.5718 28.1305C35.6959 25.6315 35.3987 22.1059 34.8263 19.3531C34.2572 16.5984 32.6451 12.0068 31.3569 9.87582C30.1693 11.902 28.7026 15.8795 27.9366 19.3282C27.1655 22.782 27.1425 26.9583 27.1425 28.21C26.9385 27.1495 26.4262 23.389 26.5729 19.6049C26.6918 16.4815 27.4164 13.2768 27.8132 11.8001C29.3245 6.87214 31.0359 3.72507 31.3569 3.22623C31.6798 3.72507 33.8358 7.60101 34.9527 11.676C36.0663 15.7557 36.2896 19.6548 36.242 21.9557Z" fill="white"/>
<path d="M82.2911 58.7009H82.899V56.9581L82.9645 56.658L82.7545 56.9183L82.3653 57.1877L82.1249 56.8567L83.122 56.0448H83.4412V58.7009H84.0361V59.1862H82.2911V58.7009Z" fill="white"/>
<path fill-rule="evenodd" clip-rule="evenodd" d="M85.4665 58.4318C85.4665 58.3286 85.4798 58.237 85.5059 58.156C85.5322 58.075 85.5693 58.0014 85.6174 57.9354C85.6657 57.8691 85.7225 57.8095 85.7882 57.7566C85.8537 57.7037 85.9243 57.6552 86.0003 57.6111C85.8573 57.5198 85.745 57.4147 85.6634 57.2955C85.5818 57.1766 85.5409 57.0285 85.5409 56.8521C85.5409 56.7375 85.5622 56.6302 85.6044 56.5301C85.6466 56.4299 85.7079 56.3433 85.7882 56.2697C85.8683 56.1962 85.9652 56.1389 86.079 56.0979C86.1926 56.0566 86.321 56.036 86.4637 56.036C86.5951 56.036 86.7146 56.0535 86.8225 56.0889C86.9302 56.1242 87.0228 56.1743 87.1 56.239C87.1775 56.3038 87.2371 56.3822 87.2793 56.4751C87.3217 56.5677 87.3427 56.6699 87.3427 56.7816C87.3427 56.9552 87.3043 57.1023 87.2269 57.2228C87.1496 57.3433 87.0368 57.4537 86.888 57.5538C87.0629 57.6565 87.1949 57.77 87.2839 57.8933C87.3726 58.0169 87.4171 58.1759 87.4171 58.3699C87.4171 58.5022 87.3931 58.6222 87.345 58.7295C87.2969 58.8368 87.2291 58.9287 87.1417 59.0053C87.0542 59.0817 86.9494 59.1413 86.8269 59.1839C86.7043 59.2267 86.5701 59.2478 86.4243 59.2478C86.2785 59.2478 86.1466 59.228 86.0287 59.1882C85.9105 59.1485 85.81 59.0936 85.7269 59.0229C85.6437 58.9524 85.5795 58.867 85.5345 58.7669C85.4893 58.6671 85.4665 58.5551 85.4665 58.4318ZM86.8749 58.3743C86.8749 58.3067 86.8588 58.245 86.8269 58.189C86.7946 58.1333 86.7532 58.0825 86.702 58.0368C86.6512 57.9914 86.5944 57.9493 86.5317 57.9111C86.4688 57.873 86.4054 57.8361 86.3414 57.8007C86.2044 57.8802 86.1102 57.9661 86.0591 58.059C86.0082 58.1516 85.9826 58.2435 85.9826 58.3345C85.9826 58.4524 86.0228 58.553 86.1031 58.6369C86.1831 58.7207 86.2946 58.7625 86.4376 58.7625C86.5688 58.7625 86.6744 58.73 86.7547 58.6655C86.8348 58.6008 86.8749 58.5038 86.8749 58.3743ZM86.0831 56.8611C86.0831 56.9318 86.0964 56.9934 86.1225 57.0463C86.1489 57.0995 86.1847 57.1457 86.2299 57.1854C86.2749 57.2251 86.3261 57.2617 86.3829 57.2955C86.4396 57.3293 86.4987 57.3611 86.5601 57.3905C86.7348 57.2403 86.8225 57.0757 86.8225 56.8964C86.8225 56.7728 86.7867 56.6794 86.7154 56.6162C86.6437 56.5528 86.557 56.5213 86.455 56.5213C86.3266 56.5213 86.2328 56.5551 86.1729 56.6227C86.1131 56.6905 86.0831 56.7697 86.0831 56.8611Z" fill="white"/>
<path fill-rule="evenodd" clip-rule="evenodd" d="M88.7255 57.6377C88.7255 57.0964 88.8174 56.6941 89.001 56.431C89.1846 56.1676 89.4486 56.036 89.7925 56.036C90.1598 56.036 90.4296 56.166 90.6018 56.4266C90.7736 56.6867 90.8596 57.0905 90.8596 57.6377C90.8596 58.1815 90.767 58.5861 90.5818 58.8508C90.3966 59.1155 90.1322 59.2478 89.7879 59.2478C89.4237 59.2478 89.1555 59.1088 88.9833 58.8309C88.8112 58.5531 88.7255 58.1552 88.7255 57.6377ZM89.2941 57.6377C89.2941 57.9966 89.3324 58.2736 89.4097 58.4692C89.4872 58.6648 89.6148 58.7625 89.7925 58.7625C89.9647 58.7625 90.0908 58.6728 90.1708 58.4935C90.2509 58.3141 90.291 58.0288 90.291 57.6377C90.291 57.2816 90.2532 57.0066 90.1772 56.8126C90.1018 56.6185 89.9718 56.5213 89.7879 56.5213C89.6133 56.5213 89.4872 56.6124 89.4097 56.795C89.3324 56.9772 89.2941 57.2582 89.2941 57.6377Z" fill="white"/>
<path fill-rule="evenodd" clip-rule="evenodd" d="M94.3196 58.3258H93.8385V59.1862H93.3094V58.3258H91.9841V57.9994L93.3705 56.0757H93.8385V57.8668H94.3196V58.3258ZM93.3094 57.1918L93.3488 56.8213H93.3311L93.1825 57.139L92.7275 57.7347L92.5089 57.9021L92.7889 57.8668H93.3094V57.1918Z" fill="white"/>
<path fill-rule="evenodd" clip-rule="evenodd" d="M81.8118 26.074C80.9738 25.5982 80.4473 25.8812 79.834 26.211C79.5026 26.3892 79.1458 26.581 78.7009 26.6741C77.4901 26.9272 77.0452 26.1409 76.5623 25.2875C76.485 25.1508 76.4067 25.0125 76.3241 24.8764C76.5698 24.9284 76.758 24.9965 76.9219 25.0557C77.418 25.2351 77.6913 25.3339 78.6607 24.6641C79.6083 24.0093 80.8085 24.4381 81.5095 25.2438L80.7297 23.1261C81.4455 23.1203 82.1892 23.0872 82.9427 23.0536C84.639 22.9782 86.3852 22.9005 87.9757 23.1261L88.2665 23.1752C90.7227 23.6643 92.5764 25.7861 92.5764 28.4711C92.5764 30.4363 91.4616 32.6201 89.8309 33.7816V34.028C92.013 33.5231 94.5073 31.6804 94.7309 30.645C94.4117 30.5194 93.6452 30.0754 93.6546 30.0225C92.8004 29.4046 92.4342 28.1726 92.6355 27.2394C92.837 26.3062 93.2674 25.8555 93.882 25.4794C94.3055 25.2631 94.6889 25.1318 95.1477 25.0856L106.63 23.452C106.684 23.8434 106.721 24.242 106.74 24.6385C107.073 31.723 101.647 37.7406 94.624 38.076C92.2224 38.1908 89.1245 36.85 88.0342 34.56C87.9775 34.5695 87.9202 34.5791 87.8624 34.5865C87.445 34.633 87.057 34.705 86.6962 34.7989C86.3294 36.3391 89.4537 37.536 93.0751 38.1235L92.4951 38.9708C93.1802 38.7527 93.9096 38.6348 94.6661 38.6348C98.6469 38.6348 101.876 41.8916 101.876 45.9079C101.876 49.9239 98.6469 53.1807 94.6661 53.1807C90.6851 53.1807 87.4568 49.9239 87.4568 45.9079C87.4568 45.4951 87.4916 45.0905 87.5568 44.6971L87.8033 44.7335L92.168 45.0325C91.9514 45.3901 91.8258 45.8101 91.8258 46.2601C91.8258 47.5614 92.8721 48.6169 94.1623 48.6169C95.4526 48.6169 96.4984 47.5614 96.4984 46.2601C96.4984 44.9794 95.4853 43.9368 94.2237 43.904L94.216 43.8808L93.9293 43.9151C93.9121 43.9166 93.8949 43.9186 93.8778 43.9207C93.8666 43.9221 93.8555 43.9235 93.8444 43.9249L90.0849 44.3705C88.4432 44.6424 87.0217 44.7518 85.809 44.7123L80.6083 51.8693L79.9579 50.1316C76.2817 49.8202 77.5538 51.5359 78.3776 52.2382C78.4581 52.3066 78.4589 52.5935 78.3827 52.6562C77.0321 52.5519 75.8525 51.459 75.8525 50.0359C75.8525 48.6128 77.0244 47.3966 78.4689 47.3966C79.4333 47.3966 80.2753 47.9229 80.7292 48.7062L83.0908 41.1932H82.7172L81.2883 43.2652C80.4456 42.3774 79.7891 41.309 79.3822 40.123L75.3912 35.1379C75.2221 35.5241 74.9625 35.8608 74.6416 36.1229L73.8452 33.9952C72.0805 33.9067 70.9917 34.3365 71.9058 35.6895L72.2886 35.6941L72.2388 35.0257H73.3462L73.1715 37.3639L73.1728 37.3807H73.1702L73.1674 37.4227H72.4091L72.406 37.2669L72.35 36.5151C71.3403 36.1513 70.3848 35.3489 70.3848 34.0705C70.3848 33.086 71.0459 32.0917 71.9871 31.658L71.4759 24.8065L70.2383 23.2234H72.3306C72.2521 22.3462 72.5209 21.3967 73.0319 20.6305C72.5682 20.7097 72.14 20.9605 71.726 21.655C71.4526 20.1503 72.7037 18.2151 74.4088 18.5043C75.6958 18.7229 75.9254 18.4946 76.3423 18.0802C76.48 17.9433 76.6381 17.7861 76.8615 17.6181C76.8414 17.7932 76.8266 17.9686 76.812 18.1419C76.7799 18.5232 76.7486 18.8943 76.664 19.229C77.9469 19.3696 78.2543 19.064 78.7629 18.5585C78.9536 18.3689 79.1726 18.1512 79.4819 17.9184C79.454 18.1621 79.4334 18.4062 79.4132 18.6472C79.2864 20.1537 79.1697 21.5416 77.3172 21.978C76.6364 22.1384 76.0155 22.1035 75.4386 22.0711C74.3558 22.0102 73.4285 21.958 72.5531 23.2234H75.3438L74.1098 24.8024L73.6091 31.5042C74.0313 31.6058 74.4142 31.8115 74.729 32.0917L77.9139 34.021L78.6124 36.6304H78.94C79.2742 32.2619 82.8376 28.8058 87.2251 28.6858L87.0545 28.2544L82.6445 28.2751L81.8118 26.074ZM81.6139 25.3715C81.753 25.5521 81.8673 25.749 81.9494 25.9541C82.4366 26.0423 83.0317 26.2546 83.6258 26.4665C85.3228 27.0718 87.0112 27.6741 86.1499 25.3715H81.6139Z" fill="white"/>
<path d="M84.678 19.0448H85.8138V19.3201H86.1726V20.2105C85.9427 20.3062 85.7808 20.5345 85.7808 20.801C85.7808 21.0838 85.9629 21.3227 86.2151 21.4071L86.2187 21.4084L86.2286 21.4117L86.2307 21.412L86.2366 21.4138L86.2437 21.4158L86.2478 21.4169L86.2588 21.42L86.2627 21.4207L86.2662 21.4218L86.2701 21.4225L86.2739 21.4236L86.2816 21.4251L86.2882 21.4267L86.2926 21.4275L86.2967 21.4285L86.3003 21.429L86.3015 21.4292L86.3115 21.4311L86.3153 21.4316L86.3171 21.4318L86.3223 21.4326L86.3271 21.4331L86.3309 21.4336L86.3327 21.4342H86.3348L86.3386 21.4349L86.3427 21.4352L86.3494 21.436L86.3542 21.4365L86.3581 21.4367L86.3622 21.4373L86.3698 21.4378L86.3737 21.438L86.3811 21.4385L86.3972 21.4391H86.4046L86.4097 21.4393H86.4136C86.7632 21.4393 87.0463 21.1534 87.0463 20.801V20.7889L87.046 20.7845L87.0458 20.7731L87.045 20.7615L87.0445 20.7547L87.0432 20.7396L87.0425 20.7306L87.0412 20.7197V20.7182C87.0391 20.7045 87.0371 20.6911 87.0345 20.678L87.0332 20.672L87.0307 20.6609L87.0253 20.6382L87.0225 20.6274L87.0222 20.6261L87.0184 20.6132L87.0179 20.6111L87.0159 20.6054C86.9847 20.5077 86.9312 20.4205 86.8611 20.3498L86.8601 20.3487L86.8522 20.341L86.8442 20.3335L86.8389 20.3286L86.8358 20.3258L86.8276 20.3183L86.8194 20.3111L86.8159 20.3082L86.8044 20.2989L86.802 20.2969C86.7951 20.2917 86.788 20.2863 86.7808 20.2811L86.7798 20.2801L86.7752 20.277L86.7673 20.2719L86.766 20.2708L86.757 20.2646L86.7545 20.2633L86.7524 20.2618C86.7445 20.2566 86.7366 20.2517 86.7284 20.2473L86.7193 20.2423C86.7134 20.239 86.7075 20.2357 86.7015 20.2326L86.699 20.2311L86.689 20.2259L86.6877 20.2257L86.6788 20.2213V20.0557C86.6788 19.5299 87.1371 18.84 87.658 18.8258L88.6245 18.7994L87.243 22.4468L83.2924 22.4605L81.9141 18.8131L82.832 18.8258C83.3532 18.8327 83.811 19.5299 83.811 20.0557V20.2221C83.6834 20.2822 83.5791 20.3841 83.5149 20.5103L83.5144 20.5118L83.5092 20.5216L83.5082 20.5242L83.5021 20.5378L83.5 20.5422L83.4954 20.5526L83.4913 20.5629L83.4895 20.5667L83.4844 20.5812L83.4832 20.5843L83.4793 20.5949L83.4791 20.5962C83.4709 20.6209 83.464 20.6462 83.4586 20.6723C83.4545 20.6926 83.4514 20.7133 83.4491 20.7342L83.4489 20.7368L83.4487 20.7394C83.448 20.748 83.4473 20.7565 83.4468 20.7652L83.4466 20.7683V20.7716L83.4461 20.7845L83.4458 20.7889V20.801C83.4458 21.1534 83.7289 21.4393 84.0783 21.4393H84.0865L84.0944 21.4391L84.1103 21.4385L84.1182 21.438L84.122 21.4378L84.1299 21.4373L84.1338 21.4367L84.1379 21.4365L84.1427 21.436L84.1494 21.4352L84.1535 21.4349L84.1573 21.4342H84.1591L84.1612 21.4336L84.165 21.4331L84.1688 21.4326L84.1727 21.4321L84.175 21.4318L84.1765 21.4316L84.1803 21.4311L84.1842 21.4303L84.1906 21.4292L84.1918 21.429L84.1954 21.4285L84.1992 21.4275L84.2031 21.4269L84.2105 21.4251L84.2182 21.4236L84.2215 21.4228L84.2443 21.4169L84.2479 21.4158C84.5151 21.3413 84.7113 21.0944 84.7113 20.801C84.7113 20.5345 84.5494 20.3062 84.3195 20.2105V19.3201H84.678V19.0448Z" fill="white"/>
<path d="M100.539 41.0487C103.587 39.8018 106.417 37.7179 107.063 32.5264C106.462 35.0896 105.142 36.5079 103.487 37.2937C101.717 38.1343 99.5643 38.252 97.4981 38.2731C98.894 38.881 99.8372 39.7543 100.539 41.0487Z" fill="white"/>
<path fill-rule="evenodd" clip-rule="evenodd" d="M109.499 13.4059V46.9866L109.499 46.9917V46.9938L109.5 47.0263V47.0276L109.499 47.1311L109.499 47.3377V47.3924H109.493C109.427 49.3783 108.823 51.4242 107.782 53.3848C106.715 55.3941 105.189 57.3139 103.313 58.987C101.344 60.7435 98.9855 62.2319 96.3666 63.2678C93.9424 64.2268 91.2938 64.7987 88.5233 64.8377L88.2227 64.8418C85.4724 64.8418 82.8422 64.3418 80.4287 63.4631C77.851 62.525 75.5193 61.1545 73.5492 59.5007C71.5626 57.8327 69.9414 55.874 68.8027 53.7754C67.6956 51.7343 67.0445 49.5602 66.956 47.3924H66.9452V13.4059H109.499ZM108.396 14.5187H68.0483V46.2797H68.0521L68.048 46.6907V46.8313L68.0483 46.886C68.0483 48.9755 68.6296 51.088 69.6784 53.0778C70.7529 55.116 72.3181 57.0252 74.2518 58.6485C76.1259 60.2221 78.3451 61.5255 80.799 62.4182C83.0965 63.2536 85.6008 63.7291 88.2222 63.7291H88.5105C91.1447 63.6924 93.6641 63.1478 95.9712 62.2342C98.4638 61.2473 100.709 59.8299 102.585 58.1567C104.396 56.5417 105.86 54.6908 106.866 52.764C107.852 50.8752 108.397 48.9126 108.397 47.0271C108.397 46.9487 108.398 46.928 108.398 46.9182L108.398 46.8919L108.398 46.8906H108.396V46.7523L108.39 46.2797H108.396V14.5187Z" fill="white"/>
<path d="M54.7582 13.4059V63.2012H53.6562V13.4059H54.7582Z" fill="white"/>
</svg>
