<svg width="136" height="65" viewBox="0 0 136 65" fill="none" xmlns="http://www.w3.org/2000/svg">
<path d="M135.239 49.5463C134.066 50.3643 132.519 50.96 130.599 51.3333C128.679 51.7067 126.705 51.8936 124.678 51.8936C122.295 51.8936 120.01 51.5378 117.823 50.8267C115.636 50.1153 113.698 48.9773 112.009 47.4126C111.665 47.0943 111.336 46.7578 111.021 46.4026V30.6684H106.538C106.699 27.8245 107.251 25.3779 108.195 23.3286C109.333 20.8569 110.791 18.8654 112.569 17.3542C114.347 15.8428 116.321 14.7494 118.49 14.0736C120.659 13.3978 122.793 13.0601 124.891 13.0601C127.203 13.0601 129.15 13.2023 130.732 13.4868C132.315 13.7713 133.621 14.1093 134.653 14.5003L133.106 21.1148C132.217 20.7235 131.177 20.4392 129.985 20.2613C128.794 20.0834 127.292 19.9947 125.478 19.9947C123.878 19.9947 122.428 20.2524 121.13 20.7681C119.832 21.2838 118.721 22.0573 117.797 23.0884C116.872 24.1198 116.152 25.4179 115.636 26.9826C115.12 28.5471 114.863 30.3785 114.863 32.4767C114.863 34.3259 115.094 36.0152 115.556 37.5443C116.019 39.0733 116.712 40.3892 117.637 41.4916C118.561 42.5941 119.735 43.4475 121.157 44.0522C122.58 44.6566 124.233 44.9589 126.118 44.9589C127.86 44.9589 129.328 44.7989 130.519 44.4789C131.71 44.1588 132.768 43.7499 133.693 43.252L135.239 49.5463ZM55.3781 13.9748C56.9967 13.6901 58.7915 13.4673 60.7621 13.3061C62.7675 13.142 64.7731 13.0601 66.7787 13.0601C68.8206 13.0601 70.8808 13.2149 72.9592 13.5249C75.0377 13.8348 76.9062 14.4547 78.5653 15.3845C80.2245 16.3143 81.5827 17.6088 82.6401 19.2678C83.6977 20.9269 84.2264 23.1239 84.2264 25.8585C84.2264 28.2652 83.7705 30.3163 82.8589 32.0117C81.9475 33.7074 80.735 35.0838 79.2217 36.1413C77.7085 37.1987 75.9857 37.9736 74.0531 38.4657C72.1205 38.9582 70.1332 39.2041 68.0912 39.2041C67.909 39.2041 67.5991 39.2041 67.1616 39.2041C66.7239 39.2041 66.2589 39.1952 65.7668 39.1768C65.2745 39.1586 64.8095 39.1313 64.372 39.0949C63.9345 39.0583 63.6063 39.0219 63.3874 38.9855V51.8936H55.3779C55.3779 43.1742 55.3781 21.9672 55.3781 13.9748ZM67.3256 20.1703C66.5599 20.1703 65.8214 20.1885 65.1105 20.2249C64.3993 20.2615 63.8251 20.3345 63.3874 20.4437V31.8205C63.5334 31.8569 63.7703 31.8932 64.0986 31.9296C64.4268 31.9662 64.7731 31.9937 65.1378 32.0117C65.5023 32.0299 65.8398 32.0483 66.1497 32.0665C66.4596 32.0847 66.7057 32.0938 66.888 32.0938C67.9454 32.0938 69.0028 32.021 70.0602 31.875C71.1178 31.7293 72.0566 31.4193 72.8771 30.9452C73.6975 30.4712 74.363 29.824 74.8735 29.0036C75.3838 28.1831 75.6392 27.0803 75.6392 25.6946C75.6392 24.5276 75.4022 23.5887 74.9281 22.8777C74.454 22.1666 73.8251 21.6106 73.0412 21.2095C72.2572 20.8084 71.3638 20.5349 70.3612 20.3891C69.3584 20.2431 68.3465 20.1703 67.3256 20.1703ZM94.917 31.5166H110.173V48.2661C109.355 48.9062 108.457 49.4486 107.479 49.8932C106.501 50.3376 105.47 50.711 104.385 51.0132C103.301 51.3155 102.189 51.5378 101.051 51.68C99.9132 51.8222 98.7931 51.8936 97.6908 51.8936C95.1303 51.8936 92.7387 51.5201 90.5162 50.7732C88.2934 50.0265 86.3554 48.8618 84.7018 47.2793C83.0481 45.6969 81.7502 43.6787 80.8078 41.2249C80.2986 39.899 79.927 38.4381 79.6929 36.8425L79.7055 36.8338C80.5239 36.2618 81.2561 35.6091 81.9021 34.8758C82.5491 34.1413 83.1166 33.32 83.6045 32.4128C84.0953 31.4996 84.4637 30.4899 84.7096 29.3841C84.9528 28.289 85.0746 27.1137 85.0746 25.8585C85.0746 24.4342 84.9335 23.1362 84.6514 21.9644C84.4204 21.0038 84.0941 20.1351 83.6728 19.3583C84.2533 18.6632 84.8808 18.0305 85.5552 17.4608C87.3868 15.9139 89.4316 14.7938 91.6897 14.1002C93.948 13.4068 96.1972 13.0601 98.4375 13.0601C100.749 13.0601 102.785 13.229 104.545 13.5668C106.306 13.9046 107.684 14.2335 108.679 14.5536L107.026 21.1148C106.066 20.7947 104.981 20.528 103.772 20.3146C102.563 20.1013 101.051 19.9945 99.2377 19.9945C97.5662 19.9945 96.0371 20.2168 94.6501 20.6613C93.2633 21.1059 92.0542 21.826 91.023 22.8218C89.9916 23.8175 89.1914 25.1154 88.6225 26.7157C88.0535 28.3161 87.769 30.2541 87.769 32.53C87.769 34.7348 88.0535 36.6197 88.6225 38.1844C89.1914 39.7491 89.9651 41.0383 90.943 42.0518C91.9209 43.0652 93.0499 43.8031 94.3302 44.2655C95.6104 44.7278 96.9617 44.9589 98.3842 44.9589C99.3445 44.9589 100.313 44.8524 101.291 44.6388C102.269 44.4254 103.096 44.0876 103.772 43.6254V37.1709L94.917 36.3174V31.5166Z" fill="white"/>
<path fill-rule="evenodd" clip-rule="evenodd" d="M15.8545 1.18607C15.2762 2.93388 14.5111 5.30881 13.765 8.05012C14.1228 8.02468 14.4785 8.02375 14.8313 8.04622C14.9061 7.60704 14.9806 7.17658 15.0534 6.7556C15.4213 4.62989 15.7472 2.74558 15.8545 1.18607ZM24.3505 64.486C23.0329 64.8377 21.7386 64.9993 20.4781 65C20.7204 64.7985 21.175 64.3959 21.6744 63.8286C22.7941 63.8375 23.8883 63.7317 24.8836 63.5744C24.4879 64.0659 24.2164 64.3554 24.2134 64.3584L24.3505 64.486ZM20.1806 64.997C18.4456 64.963 16.7767 64.6245 15.2014 64.0516C15.5488 63.9187 16.2437 63.5909 16.9403 62.9044C18.276 63.5012 19.7414 63.7614 21.183 63.8173C20.5691 64.4747 20.0723 64.8468 20.0686 64.8496L20.1806 64.997ZM14.9236 63.9473C13.8864 63.5495 12.8915 63.0505 11.9461 62.4717C12.3958 62.392 13.5113 62.1818 14.736 61.8583C15.3589 62.1707 15.9754 62.4581 16.5778 62.738C15.7084 63.5517 14.8796 63.7668 14.8747 63.7682L14.9236 63.9473ZM11.7058 62.3224C10.3962 61.4944 9.1858 60.5135 8.09593 59.4368C8.77782 59.3237 9.51913 59.1731 10.3074 58.99C11.5921 60.1007 12.9238 60.9172 14.235 61.6021C12.8435 61.9482 11.6825 62.1376 11.6759 62.1387L11.7058 62.3224ZM7.93195 59.273C6.82016 58.1523 5.83835 56.9326 5.0105 55.6763C5.71635 55.5885 6.42592 55.4836 7.13734 55.3634C8.02777 56.7046 8.98004 57.787 9.96389 58.6851C9.22963 58.8511 8.539 58.9874 7.90279 59.0893L7.93195 59.273ZM4.89574 55.5005C4.69277 55.1865 4.49908 54.8702 4.31598 54.5529C3.682 53.455 3.14811 52.3096 2.69611 51.1291C3.36724 51.3209 4.14272 51.3666 5.0027 51.2923C5.59193 52.7172 6.2339 53.9484 6.91487 55.0206C6.23186 55.1337 5.55089 55.2325 4.87308 55.3154L4.89574 55.5005ZM2.60772 50.9009C2.02871 49.344 1.60029 47.7237 1.30187 46.0597C1.91357 46.2433 2.6107 46.3094 3.37764 46.2782C3.81515 48.0223 4.31208 49.5644 4.85693 50.9328C4.0313 50.9926 3.29351 50.9332 2.66399 50.7278L2.60772 50.9009ZM1.26269 45.8433C0.96167 44.0953 0.804385 42.3002 0.769287 40.479C1.28721 40.6471 1.82314 40.7499 2.37448 40.796C2.44171 41.5351 2.53753 42.2547 2.66418 42.9512C2.85415 43.9965 3.06232 44.9815 3.28702 45.9104C2.55443 45.9328 1.89315 45.8598 1.31822 45.6725L1.26269 45.8433ZM0.764454 40.2747C0.737528 38.3834 0.840779 36.4655 1.05341 34.5449C1.47458 34.6354 1.92304 34.6682 2.39584 34.6521C2.22964 36.6545 2.20178 38.5925 2.34291 40.4174C1.81905 40.3691 1.31116 40.2671 0.822023 40.1024L0.764454 40.2747ZM1.07811 34.3408C1.33196 32.1277 1.72787 29.9123 2.23149 27.7323L2.21515 27.9134C2.60197 27.9485 2.99491 27.9552 3.39324 27.9373C2.94978 30.0794 2.617 32.2103 2.42852 34.2768C1.96259 34.2955 1.52305 34.2643 1.11395 34.1745L1.07811 34.3408ZM2.27662 27.5437C2.59212 26.196 2.94774 24.8619 3.33623 23.5509L3.3405 23.5617C3.67346 23.4317 4.09556 23.2473 4.59008 23.0267C4.17114 24.5288 3.79473 26.0458 3.47272 27.5587C3.06696 27.581 2.66789 27.5776 2.27662 27.5437ZM3.47104 23.105C4.17039 20.7983 4.96761 18.566 5.81682 16.4566L5.90707 16.6187C6.17819 16.4674 6.48348 16.319 6.817 16.1753C6.24876 17.7071 5.7093 19.29 5.21367 20.9004C5.04468 21.4499 4.8807 22.0027 4.72229 22.5578C4.24207 22.773 3.82127 22.96 3.47104 23.105ZM5.92656 16.1832C6.77726 14.0917 7.67791 12.1274 8.58228 10.3329L8.69184 10.4826C8.92155 10.3136 9.15033 10.1556 9.37856 10.008C8.55999 11.7734 7.75442 13.6878 6.9962 15.6965C6.60567 15.8531 6.24634 16.0161 5.92656 16.1832ZM8.76556 9.96914C11.235 5.13536 13.7084 1.61764 15.2617 0.388121C13.6679 1.974 11.6428 5.23137 9.66843 9.39032C9.36834 9.56543 9.0675 9.75819 8.76556 9.96914ZM16.2887 0C16.9524 0.576971 17.5847 4.49265 18.5156 9.15986C18.181 8.97694 17.843 8.81502 17.5019 8.67519C17.2419 5.51679 16.9648 2.52441 16.2887 0ZM18.5639 9.40053C18.9154 11.1528 19.3097 13.0035 19.7633 14.8178C19.2688 14.5651 18.6742 14.3823 18.0097 14.2603C17.8246 12.6282 17.6911 10.992 17.5605 9.39217L17.5364 9.09599C17.8508 9.23248 18.1624 9.38846 18.4714 9.56339L18.5639 9.40053ZM19.8244 15.0631C20.155 16.3667 20.5173 17.6473 20.9167 18.8564C20.1975 18.674 19.4391 18.5812 18.6569 18.56C18.4032 17.2748 18.211 15.9637 18.0549 14.6479C18.7007 14.7753 19.2708 14.9647 19.7321 15.2258L19.8244 15.0631ZM20.9867 19.0675C21.5022 20.5996 22.0803 22.0075 22.7332 23.1897C21.7824 22.9871 20.8224 22.929 19.858 22.9782C19.3858 21.682 19.0218 20.3255 18.733 18.9359C19.4991 18.9623 20.2389 19.0612 20.9382 19.2493L20.9867 19.0675ZM22.8552 23.4062C23.6036 24.7099 24.4487 25.7162 25.411 26.2718C26.0168 26.6215 26.6155 27.0103 27.2036 27.4345C25.6001 26.7821 23.8031 26.7442 21.9063 27.0829C21.1282 25.9242 20.5031 24.6692 19.9958 23.3476C20.944 23.3078 21.885 23.3765 22.8131 23.5908L22.8552 23.4062ZM27.9954 28.0326C29.1548 28.9466 30.2625 29.9955 31.2864 31.1477C29.6367 30.5032 27.8038 30.5435 25.8582 31.0086C24.8983 30.098 23.8829 29.2029 22.8127 28.3021C22.5774 28.0163 22.3538 27.723 22.141 27.4228C24.2534 27.0705 26.2218 27.2114 27.9011 28.1934L27.9954 28.0326ZM31.5704 31.472C32.5776 32.6422 33.4979 33.9128 34.2985 35.2519C33.2017 34.9435 31.7358 35.1022 30.022 35.568C28.8647 34.0653 27.5841 32.6718 26.1819 31.318C28.1068 30.8917 29.9033 30.9102 31.492 31.6417L31.5704 31.472ZM34.4407 35.4935C35.1509 36.7102 35.7613 37.9815 36.2489 39.2838C35.2972 39.0006 34.0489 39.1005 32.5887 39.4695C31.8816 38.1936 31.1063 37.0077 30.263 35.8846C31.947 35.4394 33.3627 35.3126 34.3794 35.6692L34.4407 35.4935ZM36.3317 39.5078C36.7057 40.5393 37.0014 41.5895 37.2077 42.6467L37.0942 42.4998C36.4456 43.0021 35.6363 43.5659 34.6901 44.17C34.6877 44.1382 34.6844 44.1085 34.6795 44.0812L34.6738 44.0471L34.6621 44.0153C34.1016 42.4976 33.4708 41.103 32.7707 39.8025C34.191 39.4519 35.3874 39.3739 36.2704 39.6836L36.3317 39.5078ZM37.2469 42.8543C37.4433 43.9213 37.5481 44.9945 37.5481 46.0626C37.5481 46.4877 37.5328 46.9165 37.5039 47.3473L37.3735 47.2145C36.8127 47.7657 35.8433 48.4294 34.5793 49.1586C34.4502 48.076 34.2238 46.9739 33.8829 45.8309C34.1074 45.6942 34.2795 45.5009 34.4066 45.2883C34.5302 45.081 34.6101 44.8498 34.6534 44.6357C35.6756 43.9913 36.5495 43.3893 37.2469 42.8543ZM37.4833 47.6251C37.3674 49.0494 37.0948 50.4944 36.6673 51.9122L36.5163 51.8034C35.9061 52.6524 35.2736 53.3763 34.6246 53.996C34.6797 53.2571 34.7124 52.4049 34.7124 51.4221C34.7124 50.8049 34.6836 50.1859 34.6229 49.5616C35.8792 48.8441 36.8667 48.1846 37.4833 47.6251ZM36.4946 52.4602C35.9083 54.2286 35.0792 55.9439 34.011 57.5109C34.2223 56.8914 34.4413 55.9538 34.577 54.5529C35.2327 53.9614 35.8738 53.271 36.4946 52.4602ZM33.0406 58.8104C32.0474 60.0273 30.8922 61.1241 29.5778 62.0483C29.7445 61.6511 30.0578 60.8561 30.3588 59.829C31.6023 59.4117 32.5637 59.016 33.0406 58.8104ZM28.5951 62.6882C27.4077 63.4028 26.1043 63.9818 24.6866 64.3918C24.856 64.1983 25.1212 63.8854 25.4329 63.481C26.7785 63.2357 27.9009 62.9122 28.5951 62.6882ZM13.6614 8.43322C13.1693 10.2685 12.6898 12.2588 12.2822 14.329C12.6941 14.2679 13.1074 14.2163 13.5182 14.1754C13.6669 14.1608 13.8153 14.1474 13.9633 14.1355C14.1715 12.1153 14.4692 10.1966 14.7687 8.41706C14.4023 8.39552 14.0331 8.40053 13.6614 8.43322ZM10.222 9.08632C10.51 8.93813 10.7971 8.80611 11.0831 8.68986C12.2385 5.93871 13.4047 3.59497 14.432 1.90825C13.1449 3.57566 11.6762 6.07333 10.222 9.08632ZM11.5609 8.51009C11.814 8.42244 12.0664 8.34705 12.3176 8.28373C13.1661 5.83638 14.0083 3.71698 14.7184 2.14966C13.7488 3.74687 12.6534 5.93851 11.5609 8.51009ZM12.7449 8.18734C12.9533 8.14612 13.1607 8.11307 13.3676 8.088C14.0003 5.7504 14.6491 3.6739 15.1888 2.01578C14.4785 3.54836 13.6175 5.688 12.7449 8.18734ZM15.2058 8.0789C15.4649 8.10768 15.7225 8.14928 15.9784 8.20332C16.0775 6.21558 16.1542 4.31567 16.097 2.54743C15.941 3.8232 15.6931 5.25606 15.4227 6.81855C15.3516 7.22987 15.279 7.65011 15.2058 8.0789ZM16.3488 8.29004C16.6053 8.35634 16.8601 8.43489 17.1134 8.5257C16.9451 6.49302 16.767 4.53277 16.477 2.73259C16.5238 4.47818 16.4463 6.34278 16.3488 8.29004ZM17.1472 8.9372C16.8766 8.83432 16.604 8.74576 16.3295 8.67203L16.3028 9.19497C16.2216 10.7779 16.1381 12.4107 16.1063 14.0729C16.6365 14.0882 17.1462 14.1285 17.6253 14.1975C17.4458 12.5953 17.3149 10.9911 17.1867 9.42133L17.1472 8.9372ZM15.9594 8.58196C15.689 8.5229 15.417 8.47834 15.1433 8.44863C14.8467 10.21 14.5514 12.109 14.3438 14.108C14.8149 14.078 15.2796 14.0637 15.7316 14.0665C15.7637 12.3998 15.8476 10.763 15.929 9.17602L15.9594 8.58196ZM13.2629 8.47871C13.0434 8.50936 12.8231 8.54984 12.602 8.59998C11.9656 10.4492 11.3271 12.4822 10.7403 14.6033C11.1191 14.5247 11.5037 14.4533 11.8907 14.3901C12.295 12.3158 12.7719 10.3209 13.2629 8.47871ZM12.1709 8.70992C11.9028 8.78587 11.6332 8.87631 11.3624 8.98141C10.5921 10.8282 9.82703 12.8574 9.11264 14.9942C9.50632 14.8861 9.91301 14.7847 10.3282 14.6919C10.9074 12.5847 11.539 10.5601 12.1709 8.70992ZM10.877 9.1853C10.5687 9.32458 10.259 9.48298 9.94773 9.66107C9.09703 11.4642 8.25526 13.4377 7.46231 15.5181C7.84541 15.3779 8.25303 15.2438 8.67865 15.1181C9.37485 13.0185 10.1217 11.0178 10.877 9.1853ZM12.2066 14.7186C11.8859 16.3929 11.6142 18.116 11.4229 19.8484C12.1626 19.6061 12.9186 19.3834 13.6796 19.1935C13.6853 17.589 13.7793 16.0241 13.9254 14.514C13.8023 14.5242 13.6786 14.5355 13.555 14.5478C13.1065 14.5924 12.6552 14.6499 12.2066 14.7186ZM17.6692 14.5803C17.1786 14.5049 16.6513 14.4612 16.1 14.4458C16.0801 15.8494 16.0998 17.2731 16.1917 18.7043C16.8954 18.6102 17.5925 18.5563 18.2731 18.5548C18.0179 17.2479 17.8253 15.9158 17.6692 14.5803ZM15.7253 14.4397C15.2642 14.4371 14.7886 14.4531 14.3058 14.4854C14.1602 15.9758 14.0655 17.5199 14.0565 19.1025C14.6439 18.9647 15.2328 18.8477 15.8183 18.7578C15.7245 17.3058 15.7048 15.8625 15.7253 14.4397ZM11.8153 14.7814C11.4155 14.8488 11.0189 14.9248 10.6291 15.0083C10.1674 16.7051 9.74049 18.4536 9.37558 20.2061C9.34754 20.3407 9.31988 20.4753 9.29258 20.61C9.85693 20.3927 10.4398 20.1795 11.035 19.9777C11.2233 18.223 11.4941 16.4776 11.8153 14.7814ZM10.217 15.1C9.7897 15.1988 9.37262 15.3066 8.97113 15.4215C8.33102 17.3676 7.73473 19.3975 7.21607 21.4556C7.74383 21.2302 8.30019 20.9996 8.87846 20.7713C8.92099 20.5576 8.96463 20.3437 9.0092 20.1298C9.36184 18.436 9.77261 16.745 10.217 15.1ZM8.5364 15.5506C8.09481 15.6869 7.6755 15.8317 7.28664 15.9831C6.67773 17.6074 6.09982 19.2928 5.57132 21.0103C5.4339 21.4573 5.29964 21.9065 5.16909 22.3572C5.66064 22.1366 6.20215 21.8943 6.78376 21.6419C7.2989 19.5676 7.89444 17.5184 8.5364 15.5506ZM11.3793 20.2564C11.2029 21.968 11.1069 23.6857 11.1215 25.3719C12.0675 25.0053 13.0242 24.6356 13.9867 24.2997C13.78 22.6997 13.6883 21.1214 13.6801 19.5782C12.9041 19.7747 12.1329 20.0057 11.3793 20.2564ZM18.3479 18.929C17.6532 18.9264 16.9394 18.9801 16.2174 19.0776C16.3236 20.5323 16.5071 21.994 16.8019 23.4499C17.6909 23.2336 18.581 23.0753 19.4677 23.004C18.9975 21.6946 18.6352 20.3275 18.3479 18.929ZM15.8439 19.1312C15.2504 19.2233 14.6526 19.3441 14.0562 19.4861C14.0614 21.0187 14.1488 22.586 14.3503 24.1745C15.0434 23.9394 15.739 23.7242 16.4354 23.5424C16.1371 22.0729 15.9514 20.5985 15.8439 19.1312ZM10.9927 20.3871C10.3813 20.5973 9.78339 20.8193 9.20586 21.0447C8.85024 22.8543 8.56575 24.6584 8.38228 26.4038C9.1611 26.1286 9.95219 25.8248 10.7518 25.5152C10.731 23.8246 10.8215 22.103 10.9927 20.3871ZM8.79286 21.2077C8.2027 21.4436 7.63668 21.6811 7.10261 21.9116C6.67531 23.649 6.30539 25.4027 6.01254 27.1392C6.66119 26.9736 7.32211 26.7685 7.99268 26.5392C8.16872 24.8029 8.44504 23.0087 8.79286 21.2077ZM6.6716 22.0987C6.12991 22.3357 5.62555 22.5622 5.16854 22.7674L5.03446 22.8276C4.5936 24.3851 4.19825 25.9596 3.86101 27.5297C4.43427 27.4759 5.02035 27.3739 5.61719 27.2356C5.9002 25.5295 6.25804 23.8068 6.6716 22.0987ZM11.1275 25.7706C11.162 27.5665 11.3245 29.3232 11.6532 30.9936L11.7812 30.9331C12.8606 30.42 13.9583 29.8985 15.0588 29.4075C14.5875 27.82 14.2571 26.2393 14.0378 24.6783C13.0736 25.0165 12.1145 25.3881 11.1665 25.7556L11.1275 25.7706ZM19.6023 23.37C18.6985 23.4356 17.7889 23.5953 16.8788 23.8172C17.191 25.2645 17.6159 26.705 18.1875 28.1262C19.3126 27.7173 20.4248 27.3804 21.5069 27.1593C20.7304 25.9797 20.1076 24.7067 19.6023 23.37ZM16.5123 23.9099C15.8077 24.0941 15.103 24.3132 14.4006 24.5528C14.6149 26.1052 14.9399 27.6766 15.4049 29.2543C16.2161 28.8978 17.0276 28.56 17.8335 28.2571C17.2565 26.8224 16.8276 25.3691 16.5123 23.9099ZM10.7583 25.9136C9.94271 26.2291 9.13584 26.5374 8.34067 26.8148C8.1442 28.851 8.09017 30.8005 8.22666 32.576C9.2222 32.1429 10.254 31.6579 11.3059 31.1587C10.9696 29.48 10.7994 27.7164 10.7583 25.9136ZM7.95293 26.9477C7.2742 27.1765 6.60475 27.3795 5.94607 27.5416C5.60568 29.6436 5.38116 31.7163 5.30837 33.7002C6.12192 33.4413 6.97782 33.1095 7.86473 32.7319C7.71802 30.9483 7.76352 28.9916 7.95293 26.9477ZM5.55238 27.6341C4.95145 27.7676 4.36018 27.8642 3.78005 27.9125C3.33288 30.0549 2.99695 32.1858 2.80568 34.251C3.46844 34.1893 4.17987 34.0369 4.93047 33.8159C4.99714 31.8242 5.21626 29.7438 5.55238 27.6341ZM11.7306 31.3715C12.1241 33.2144 12.7243 34.9473 13.5839 36.5059L13.677 36.6745C14.3349 36.3217 14.9953 35.9607 15.6562 35.5997C16.175 35.3161 16.6942 35.0326 17.2125 34.7525C16.3529 33.0941 15.6833 31.4281 15.1687 29.7685C14.0855 30.2525 13.0042 30.7663 11.9409 31.2716L11.7306 31.3715ZM21.7343 27.4961C20.6291 27.7108 19.4877 28.0525 18.3301 28.4727C18.9642 29.9821 19.7672 31.4684 20.78 32.9165C22.046 32.3124 23.292 31.7856 24.5024 31.393C23.817 30.4554 23.1459 29.5266 22.5358 28.5548C22.2526 28.2118 21.9858 27.8586 21.7343 27.4961ZM17.9761 28.6038C17.16 28.9102 16.3369 29.253 15.5141 29.6155C16.0233 31.2677 16.6874 32.9258 17.5416 34.5752C18.513 34.0532 19.4809 33.547 20.4382 33.0814C19.4209 31.6207 18.614 30.1232 17.9761 28.6038ZM11.3836 31.5362C10.3169 32.0423 9.27085 32.5327 8.26026 32.9695C8.35757 34.0008 8.52267 34.9696 8.76519 35.8578C9.03409 36.8424 9.34161 37.7804 9.67828 38.6768C10.8798 38.1371 12.1078 37.5108 13.3466 36.851L13.2556 36.6862C12.3915 35.1195 11.7839 33.3821 11.3836 31.5362ZM7.90038 33.1232C6.99843 33.5045 6.12656 33.8378 5.29592 34.0955C5.23929 36.2317 5.36333 38.2588 5.71412 40.1005C6.8794 39.8153 8.09258 39.3713 9.33566 38.8283C8.99249 37.916 8.67884 36.9603 8.40474 35.9561C8.16593 35.0818 8.00103 34.1319 7.90038 33.1232ZM4.91933 34.2083C4.16427 34.4244 3.4456 34.572 2.77225 34.6292C2.60178 36.651 2.57355 38.606 2.71933 40.4426C3.55925 40.4786 4.43873 40.383 5.34903 40.185C4.99806 38.3481 4.86975 36.3312 4.91933 34.2083ZM13.8575 37.0018L14.3249 37.8489C15.0122 39.0942 15.6729 40.2914 16.3035 41.4407C17.1184 41.0582 17.9362 40.6693 18.7507 40.2822C19.1752 40.0803 19.599 39.8788 20.0209 39.679L19.5329 38.835C19.146 38.1661 18.742 37.4671 17.882 35.9776C17.71 35.6799 17.5451 35.3819 17.3862 35.0836C16.8697 35.3626 16.3522 35.6454 15.835 35.928C15.1748 36.2887 14.515 36.6491 13.8575 37.0018ZM24.7353 31.7112C23.5249 32.0954 22.2738 32.6205 20.9999 33.2263C21.4447 33.8419 21.9277 34.4502 22.453 35.05C23.2125 35.9171 23.9059 36.7685 24.5392 37.6027C25.6638 37.1119 26.7498 36.6664 27.7776 36.2914C27.7251 36.1973 27.6725 36.1033 27.6194 36.0099C26.7323 34.4448 25.7245 33.0629 24.7353 31.7112ZM20.6565 33.391C19.6857 33.8619 18.7026 34.3758 17.715 34.9063C17.8723 35.2018 18.0357 35.4968 18.2058 35.7915C18.5085 36.316 19.204 37.5186 19.8567 38.6473L20.3603 39.5182C21.6634 38.9022 22.9473 38.3043 24.1869 37.7572C23.5735 36.9527 22.9035 36.1319 22.1717 35.2963C21.6226 34.6695 21.1187 34.0341 20.6565 33.391ZM13.5271 37.1783C12.274 37.8459 11.0307 38.4799 9.81198 39.0263C10.4311 40.6196 11.1401 42.0794 11.8831 43.4333C13.2122 42.8697 14.5824 42.2456 15.9637 41.5999C15.3368 40.4575 14.6798 39.2671 13.9966 38.0292L13.5271 37.1783ZM9.46937 39.1778C8.20865 39.7277 6.97596 40.1774 5.78748 40.4673C5.85749 40.8012 5.93511 41.1286 6.02109 41.4491C6.38544 42.8088 6.74997 44.0539 7.11673 45.1975C8.49574 44.7885 9.98543 44.2281 11.5358 43.5796C10.7955 42.2277 10.0885 40.7696 9.46937 39.1778ZM5.42239 40.5518C4.50168 40.7518 3.60902 40.8504 2.75201 40.8188C2.81794 41.5271 2.9106 42.217 3.03204 42.8853C3.22536 43.949 3.43762 44.9492 3.66733 45.8909C4.60122 45.8237 5.64021 45.6153 6.75683 45.3015C6.38896 44.1546 6.02369 42.9068 5.65898 41.5458C5.57207 41.2212 5.49333 40.8898 5.42239 40.5518ZM16.4838 41.7694C17.2382 43.1457 17.9481 44.4515 18.6071 45.6864C19.199 45.3897 19.7915 45.0909 20.3823 44.793C21.0539 44.4543 21.7232 44.1167 22.3871 43.7846C21.7342 42.645 21.0105 41.391 20.2088 40.0042C19.7776 40.2084 19.3446 40.4144 18.9104 40.6207C18.103 41.0047 17.2922 41.39 16.4838 41.7694ZM27.9585 36.6203C26.9496 36.9876 25.8801 37.4255 24.7698 37.9093C25.6907 39.1446 26.4797 40.341 27.1553 41.4927C28.0627 41.0842 28.9403 40.7117 29.7778 40.3889C29.1982 39.0363 28.5971 37.7938 27.9585 36.6203ZM24.4183 38.0634C23.1674 38.6146 21.868 39.2198 20.5483 39.8435C21.3479 41.2268 22.0703 42.4786 22.7225 43.6171C24.1238 42.9184 25.4974 42.2482 26.8129 41.648C26.1356 40.4965 25.3438 39.2996 24.4183 38.0634ZM16.1442 41.9288C14.765 42.5735 13.3956 43.1973 12.0651 43.7616C12.8593 45.1806 13.6864 46.4827 14.4794 47.7003C15.7232 47.118 16.9954 46.4924 18.2725 45.8539C17.6123 44.6173 16.9006 43.3087 16.1442 41.9288ZM11.7175 43.9081C10.1475 44.565 8.63576 45.1338 7.23093 45.5501C7.78748 47.2509 8.34959 48.7209 8.92396 50.0038C10.5435 49.4559 12.3063 48.7085 14.1362 47.8602C13.3412 46.6387 12.513 45.3325 11.7175 43.9081ZM6.87104 45.6539C5.7522 45.9685 4.70614 46.1798 3.75776 46.255C4.19825 47.9982 4.69927 49.5352 5.24838 50.8964C6.24857 50.7833 7.36574 50.5113 8.56704 50.1222C7.99118 48.8324 7.42796 47.3572 6.87104 45.6539ZM18.7832 46.0168C19.7256 47.7895 20.5598 49.4131 21.2658 50.8855L21.3743 50.8426C22.7538 50.2938 24.0913 49.7217 25.3715 49.1401C24.6395 47.7564 23.7195 46.1145 22.5732 44.11C21.9037 44.4448 21.2285 44.7854 20.5507 45.1273C19.9626 45.4238 19.3726 45.7213 18.7832 46.0168ZM29.9224 40.7295C29.1005 41.0471 28.2372 41.414 27.3432 41.8166C28.4049 43.6708 29.1731 45.4062 29.7271 46.9978L29.7328 47.0147C30.5722 46.5763 31.3687 46.1416 32.1159 45.7167C31.8134 45.5152 31.5925 45.2407 31.5286 45.0019L31.5208 44.9705C30.9969 43.4316 30.4688 42.0296 29.9224 40.7295ZM27.0012 41.9719C25.6879 42.5711 24.3126 43.2422 22.9085 43.9425C24.0554 45.9482 24.9772 47.5943 25.7122 48.9846C27.0073 48.3898 28.2409 47.7865 29.3975 47.1891L29.3739 47.1209C28.8237 45.5404 28.0593 43.8159 27.0012 41.9719ZM18.4486 46.1843C17.1828 46.8171 15.9212 47.4376 14.6857 48.0164C14.8047 48.1986 14.923 48.3791 15.04 48.5577C15.9147 49.892 16.7254 51.1295 17.3782 52.3196C18.58 51.9096 19.7629 51.4745 20.9182 51.0225C20.2162 49.5614 19.3865 47.9479 18.4486 46.1843ZM14.3423 48.1765C12.4998 49.0311 10.7204 49.7857 9.07772 50.3421C9.77131 51.8452 10.4837 53.0829 11.2265 54.1302C13.1784 53.6517 15.1201 53.0788 17.017 52.4416C16.3765 51.2808 15.5824 50.0691 14.7264 48.7629C14.5997 48.5696 14.4716 48.374 14.3423 48.1765ZM8.72062 50.4608C7.52452 50.8491 6.40605 51.1256 5.39398 51.2507C5.98841 52.6693 6.63632 53.8907 7.32304 54.9512C8.49184 54.7482 9.66509 54.5038 10.8356 54.2247C10.1046 53.1766 9.40325 51.9453 8.72062 50.4608ZM21.427 51.2236C22.0001 52.434 22.4829 53.5393 22.8634 54.5378C23.3576 54.3453 23.8495 54.1505 24.3371 53.9536C25.2818 53.5727 26.2112 53.1852 27.1132 52.7965C26.7436 51.8619 26.2331 50.7863 25.5457 49.4714C24.2537 50.0585 22.9043 50.6363 21.5121 51.19L21.427 51.2236ZM32.5137 45.9197C31.6862 46.3939 30.7967 46.8808 29.8543 47.3726C30.3083 48.7401 30.6043 49.9967 30.7949 51.1269C32.0684 50.5165 33.2279 49.9209 34.2246 49.3605C34.1033 48.2613 33.8801 47.1423 33.5366 45.9802L33.525 45.9833C33.4801 45.9954 33.4348 46.0052 33.3893 46.0131C33.0833 46.0652 32.7811 46.0197 32.5137 45.9197ZM29.5182 47.5469C28.3765 48.1358 27.1609 48.7299 25.8862 49.3157C26.572 50.6281 27.0838 51.7068 27.4573 52.6474C28.4979 52.1948 29.4996 51.7414 30.443 51.2946C30.2587 50.1694 29.9685 48.9146 29.5182 47.5469ZM21.0796 51.3607C19.9301 51.811 18.7533 52.2444 17.5576 52.6533C18.1654 53.8078 18.6135 54.9215 18.8133 56.0403C20.043 55.6075 21.2861 55.1479 22.5171 54.6723C22.1381 53.6782 21.6549 52.5737 21.0796 51.3607ZM17.1977 52.7755C15.3195 53.408 13.3971 53.9785 11.464 54.4574C12.3847 55.6957 13.3559 56.6606 14.3988 57.4925C15.7059 57.0959 17.0699 56.6487 18.4541 56.1662C18.2643 55.0541 17.8138 53.9386 17.1977 52.7755ZM11.0703 54.5536C9.89722 54.8364 8.721 55.0849 7.54885 55.2923C8.45322 56.6273 9.42034 57.6966 10.4179 58.58C11.521 58.3189 12.7141 57.9954 13.9641 57.6232C12.965 56.8026 12.0291 55.8505 11.1364 54.6437C11.1143 54.614 11.0922 54.5837 11.0703 54.5536ZM22.9947 54.8882C23.4708 56.1891 23.7626 57.2996 23.8419 58.2171C24.1304 58.1692 24.422 58.1226 24.7158 58.0758C25.7589 57.9092 26.8315 57.7378 27.9108 57.4825C27.9408 57.2437 27.957 57.0054 27.957 56.7686C27.957 55.6258 27.7652 54.5399 27.2472 53.1458C26.3464 53.5343 25.4188 53.9209 24.4764 54.3011C23.986 54.4988 23.4914 54.6947 22.9947 54.8882ZM34.2647 49.7637C33.2654 50.3206 32.1141 50.9092 30.8563 51.5105C31.0662 52.892 31.1193 54.0708 31.1193 55.0153C31.1193 55.4918 31.092 55.9662 31.0445 56.4314C32.1267 55.9335 33.1941 55.2715 34.224 54.3635C34.2938 53.5527 34.3371 52.5828 34.3371 51.4221C34.3371 50.8717 34.3137 50.3198 34.2647 49.7637ZM30.5026 51.6786C29.58 52.1146 28.604 52.5562 27.5919 52.9965C28.133 54.445 28.3323 55.5725 28.3323 56.7686C28.3323 56.9738 28.3208 57.1802 28.2991 57.3868C29.0827 57.1861 29.8688 56.9358 30.6485 56.6062C30.7087 56.0858 30.7442 55.5519 30.7442 55.0153C30.7442 54.1113 30.6946 52.9893 30.5026 51.6786ZM22.648 55.0227C21.3928 55.5077 20.1249 55.9761 18.8708 56.4166C18.9089 56.7135 18.9288 57.011 18.9288 57.3102C18.9288 58.2767 18.8187 59.1101 18.6354 59.8282C20.071 58.9653 21.7165 58.5826 23.4706 58.2799C23.3997 57.3898 23.1161 56.3027 22.648 55.0227ZM18.5084 56.5434C17.232 56.9872 15.973 57.4011 14.7596 57.7733C15.807 58.5673 16.9267 59.2468 18.1397 59.9471C18.1613 59.9595 18.1834 59.9707 18.2051 59.9829C18.4203 59.2401 18.5535 58.3579 18.5535 57.3102C18.5535 57.0541 18.5381 56.7987 18.5084 56.5434ZM14.3188 57.9072C13.0712 58.2827 11.8766 58.6117 10.767 58.8808C12.0838 59.9842 13.4463 60.7844 14.7808 61.4609C15.9202 61.1547 17.1299 60.7521 17.9486 60.2689C16.6411 59.514 15.44 58.7822 14.3188 57.9072ZM23.8625 58.5928C23.8632 58.6307 23.8643 58.6685 23.8643 58.7057C23.8643 59.4971 23.7069 60.2397 23.4588 60.9194C24.6346 60.8505 25.8263 60.6568 26.954 60.4041C27.3529 59.6063 27.6842 58.7464 27.8474 57.8825C26.809 58.1202 25.7784 58.2847 24.7743 58.4452C24.4677 58.494 24.1635 58.5427 23.8625 58.5928ZM34.1709 54.9055C33.1377 55.7666 32.0716 56.3954 30.9934 56.8695C30.8755 57.7755 30.6868 58.6361 30.4814 59.3946C31.9776 58.8795 33.0144 58.416 33.1889 58.3367C33.2911 58.2375 33.8779 57.562 34.1709 54.9055ZM30.5923 57.0387C29.8118 57.3543 29.0264 57.5944 28.2443 57.7879C28.1015 58.6442 27.7967 59.4971 27.4198 60.2955C28.3696 60.0659 29.2647 59.7998 30.0537 59.5389C30.2638 58.7976 30.4625 57.9441 30.5923 57.0387ZM23.4883 58.6565C21.734 58.9612 20.0965 59.3502 18.6965 60.2299C19.9772 60.8061 21.4924 60.9905 23.053 60.9384C23.318 60.2568 23.489 59.5072 23.489 58.7057C23.489 58.6895 23.4883 58.6728 23.4883 58.6565ZM17.9592 60.6919C17.2205 61.0919 16.2417 61.4336 15.2792 61.709C15.7951 61.9614 16.3052 62.1985 16.8055 62.4308L16.8577 62.4552C17.2599 62.0171 17.653 61.4422 17.9592 60.6919ZM17.2129 62.616C18.5659 63.1959 20.0536 63.4271 21.5069 63.4546C21.9945 62.8836 22.5124 62.1567 22.8966 61.3103C21.2944 61.3477 19.7397 61.1371 18.4261 60.5179C18.1072 61.4149 17.6695 62.0982 17.2129 62.616ZM21.988 63.4565C23.1269 63.444 24.2331 63.315 25.2235 63.1402C25.6883 62.5298 26.2435 61.7291 26.7319 60.8297C25.6231 61.0646 24.4589 61.239 23.3104 61.2951C22.9525 62.133 22.4658 62.8633 21.988 63.4565ZM25.7652 63.0379C27.5301 62.6841 28.8374 62.2173 29.1481 62.1018C29.2506 61.8695 29.5882 61.0782 29.9265 59.9711C29.1061 60.2353 28.1832 60.5001 27.2082 60.7242C26.7559 61.6021 26.2318 62.398 25.7652 63.0379Z" fill="white"/>
</svg>
