<svg width="48" height="65" viewBox="0 0 48 65" fill="none" xmlns="http://www.w3.org/2000/svg">
<path fill-rule="evenodd" clip-rule="evenodd" d="M38.3032 4.83007L38.5837 12.2662L35.1717 13.3885L38.3032 4.83007ZM18.3355 60.2884C18.3691 60.3411 18.4369 60.359 18.4916 60.3315H18.4919L26.4286 56.3013L22.8412 61.7443C22.8046 61.8002 22.82 61.8755 22.8758 61.9121C22.9316 61.9487 23.0067 61.9331 23.0433 61.8774L26.7549 56.2459L28.6534 60.9545C28.6782 61.0166 28.7489 61.0468 28.8109 61.0218C28.8729 60.9971 28.9031 60.9263 28.8782 60.8642L26.9086 55.9794L28.9442 48.7L32.8838 53.1983C32.9278 53.2488 33.0044 53.2537 33.0546 53.2097C33.1049 53.1659 33.11 53.0892 33.066 53.039L29.0546 48.4585L32.8906 44.7166L33.9832 49.6989C33.9973 49.7645 34.0619 49.806 34.1274 49.7919C34.1929 49.7778 34.2345 49.7132 34.2204 49.6477L33.23 45.1313L36.2517 49.9426C36.2873 49.9993 36.3621 50.0161 36.4187 49.9807C36.4752 49.9451 36.4922 49.8701 36.4566 49.8135L33.269 44.7379L38.3806 46.8925L40.1417 49.7368L40.3499 49.733L41.4399 47.8142L43.0767 48.3044L43.2318 48.2022L43.7704 43.6925C43.7783 43.626 43.7307 43.5656 43.6642 43.5577C43.6342 43.5542 43.6055 43.5621 43.5822 43.5777L38.4533 46.6605L33.1506 44.4254L39.0077 36.4205C39.0207 36.4027 39.0282 36.3827 39.0304 36.3624V36.3619C39.0312 36.3547 39.0313 36.3475 39.0308 36.3406L39.0307 36.3391L39.0305 36.3374L39.0293 36.3282L39.0292 36.3275C39.0282 36.3218 39.0267 36.3161 39.0249 36.3107L39.0249 36.3104L39.024 36.3077H39.0239C39.016 36.2857 39.0018 36.2659 38.9816 36.251C38.964 36.2382 38.9439 36.2305 38.9236 36.2283H38.9232C38.916 36.2275 38.9089 36.2275 38.9018 36.228H38.9003L38.8987 36.2283H38.8974L38.8945 36.2288L33.1281 36.7944L33.1445 33.9762C33.1447 33.9094 33.0908 33.8549 33.0241 33.8547C33.0122 33.8547 33.0007 33.8564 32.9899 33.8594L32.988 33.8599L17.9713 38.2263L23.4362 29.1716L26.3085 29.3794C26.3192 29.3801 26.3296 29.3794 26.3396 29.3777L32.1669 28.5906L36.1712 29.5922L36.7121 32.2125L36.9256 32.2637L40.0185 28.3889L40.8126 31.9507C40.827 32.016 40.8916 32.0574 40.9568 32.043C41.022 32.0284 41.0633 31.9638 41.0489 31.8985L40.2663 28.3889L45.42 31.9124L45.5168 32.0522L45.7241 31.9282L45.6628 31.8084C45.6604 31.8025 45.6575 31.7968 45.6542 31.7914L42.0591 24.7522L44.8433 27.566C44.8904 27.6132 44.9672 27.6135 45.0146 27.5662C45.0619 27.5192 45.0621 27.4425 45.015 27.395L41.7372 24.0827L43.1931 20.1255L43.8768 21.2745C43.9109 21.3319 43.9851 21.3507 44.0424 21.3167C44.0998 21.2827 44.1186 21.2084 44.0846 21.1511L43.3005 19.8335L44.8187 15.7069C44.8417 15.644 44.8094 15.5742 44.7466 15.5512C44.6837 15.5282 44.6139 15.5605 44.5909 15.6234L43.1408 19.5651L38.8279 12.3179L38.5222 4.21307C38.5235 4.16245 38.4928 4.11445 38.4427 4.09611C38.3799 4.07313 38.3101 4.10542 38.2872 4.16831L34.8781 13.485L32.8896 14.1391L33.7613 3.91272L33.684 3.78977L23.9578 0L23.8236 0.0327081L20.3426 3.97613L20.3488 4.09248L20.3518 4.14558L20.4498 4.23539C22.1259 5.7707 23.6899 7.15272 25.2509 8.48986L25.2501 8.49083L25.2494 8.49194L25.2484 8.49318L25.2479 8.49407L25.2468 8.49558L25.2464 8.4962L25.2437 8.50055H25.2436L25.2424 8.50275C25.2398 8.50716 25.2375 8.51163 25.2356 8.51639L25.2355 8.51646C25.2341 8.5201 25.2326 8.52388 25.2315 8.52782L25.2314 8.52821L25.2307 8.53064L25.2307 8.53071L25.23 8.53311L25.2285 8.54041L25.228 8.54269V8.54291L25.2273 8.54786L25.2271 8.5489L22.9777 27.491H22.978C22.9724 27.5388 22.9956 27.5873 23.0403 27.6115L23.5784 27.9047L21.8097 28.8289L21.8167 28.8623L21.7921 28.8398L18.5332 31.3415L16.7824 28.0183L21.1652 10.7952C21.1817 10.7302 21.1424 10.664 21.0775 10.6476C21.0637 10.6441 21.0499 10.6431 21.0365 10.6443C20.9867 10.649 20.9429 10.6842 20.93 10.7354L20.9281 10.7428L16.5357 28.0032C16.5275 28.0361 16.5332 28.0693 16.5495 28.096L16.5616 28.1187L14.0861 32.0403L14.1141 32.2001L15.8033 33.5167L14.7952 36.0021C14.7702 36.0642 14.8002 36.1353 14.8623 36.1602C14.9241 36.1855 14.9952 36.1555 15.0201 36.0934L16.05 33.5536L18.4528 31.709L19.1292 32.9926L17.5905 38.3958L17.6981 38.4425L17.7184 38.5497L27.9706 37.5436L20.4124 43.1059L20.5208 43.3189L29.8044 40.3599L28.778 48.3578L21.2822 50.5414L14.6599 44.1864L14.455 44.2765L14.5062 46.151L10.2264 42.7755C10.7161 40.2975 11.1704 37.8685 11.615 35.3813C11.6269 35.3153 11.5828 35.2522 11.5168 35.2403C11.451 35.2287 11.3879 35.2725 11.376 35.3385L10.6884 39.1856L9.97379 42.8015L10.0181 42.92L14.5149 46.467L14.6804 52.5144L14.118 53.2297L9.88768 46.6008C9.85181 46.5444 9.77708 46.5278 9.72092 46.5637C9.6645 46.5996 9.64792 46.6746 9.6838 46.7307L13.9594 53.4311L9.2018 59.4816L8.06288 51.2075C8.05422 51.1414 7.9931 51.0949 7.92679 51.1036C7.86073 51.1125 7.81421 51.1736 7.82287 51.2399L9.00089 59.797L9.21616 59.8559L14.0977 53.6476L18.3355 60.2884ZM17.5016 58.5319L14.2561 53.4462L14.7769 52.7841L17.5016 58.5319ZM15.0268 52.7458L26.4508 56.0183L18.4936 60.0588L15.0268 52.7458ZM26.2219 55.7001L15.2391 52.554L20.3466 51.0662L26.2219 55.7001ZM26.7188 55.759L21.4837 50.7349L28.7126 48.629L26.7188 55.759ZM20.6326 50.9828L21.2152 50.8131L24.895 54.3447L20.6326 50.9828ZM14.7049 44.5655L21.0137 50.6198L20.3993 50.7987L14.7537 46.3462L14.7049 44.5655ZM20.113 50.8821L14.9192 52.3951L14.7623 46.6622L20.113 50.8821ZM28.4132 20.4556L24.0734 27.6462L23.8368 27.7696L23.2501 27.4502L27.591 16.422L28.4132 20.4556ZM23.8328 28.0448L23.3053 28.9187L22.2995 28.8459L23.8328 28.0448ZM23.1646 29.1518L18.0725 37.5887L19.3712 33.0295L21.9285 29.0622L23.1646 29.1518ZM23.5768 28.9385L24.0468 28.1598L25.7676 29.0971L23.5768 28.9385ZM24.1721 27.9522L24.2468 27.8285L29.0732 25.3067L31.9264 28.3786L26.3401 29.1332L24.1721 27.9522ZM24.4874 27.4299L28.5966 20.6214L30.7605 21.2737L29.3903 22.7902C29.3456 22.8397 29.3494 22.9162 29.3989 22.961C29.4484 23.0057 29.5249 23.002 29.5696 22.9524L30.9422 21.4332L32.4148 24.8242L32.6401 24.8151L34.3709 19.8151C34.3872 19.7755 34.381 19.7308 34.3567 19.6975L32.6741 17.1389L34.2048 15.8396L36.5736 17.7898L34.2176 24.178C34.1946 24.2409 34.2269 24.3106 34.2897 24.3336C34.3526 24.3566 34.4223 24.3244 34.4453 24.2615L36.772 17.9531L39.0409 19.8211C39.0924 19.8635 39.1687 19.8561 39.2111 19.8045C39.2535 19.7529 39.2461 19.6766 39.1945 19.6342L36.8606 17.7127L38.7342 12.6329L43.0334 19.8571L41.4829 24.0713L41.4831 24.072C41.4721 24.1024 41.4733 24.1371 41.4891 24.1681L44.6882 30.4317L39.679 23.2055C39.6551 23.1684 39.6118 23.1458 39.5649 23.1506C39.5457 23.1525 39.528 23.159 39.5127 23.1686L39.5114 23.1694L39.509 23.171L36.8876 24.817C36.8836 24.8195 36.8795 24.822 36.8757 24.825L36.8751 24.8252L36.8733 24.8267L36.8709 24.8287L36.8704 24.8292L36.8686 24.8306L36.868 24.8311L36.8663 24.8326L36.8657 24.8331L36.8641 24.8349L36.8634 24.8353L36.862 24.8368L36.8613 24.8376L36.8599 24.8391L36.8591 24.8398L36.8579 24.8413L36.8571 24.842L36.8559 24.8435C36.8509 24.8492 36.8466 24.8554 36.843 24.8618L36.8424 24.8628C36.8356 24.8749 36.8311 24.8878 36.8287 24.9009L36.8283 24.9031L36.8283 24.9039L36.8279 24.9059L36.8279 24.9069C36.8271 24.9125 36.8268 24.9185 36.8269 24.9242V24.9264L36.827 24.9271L36.827 24.9294L36.8271 24.9301L36.8273 24.9321L36.8274 24.9331L36.8275 24.9351L36.8277 24.9361L36.8279 24.938L36.828 24.9388L36.8283 24.9408L36.8285 24.9417L36.8287 24.9437L36.829 24.9447L36.8293 24.9464L36.8295 24.9477L36.8299 24.9494L36.8302 24.9504L36.8306 24.9524L36.831 24.9534L36.8314 24.9551L36.8317 24.9561L36.8322 24.9578L36.8326 24.9591L36.8331 24.9608L36.8336 24.962C36.8376 24.9734 36.8432 24.9843 36.8507 24.9944L36.8511 24.9949L36.8526 24.9969L36.8545 24.9991L36.8549 24.9996L36.8565 25.0016L36.8569 25.0021L36.8585 25.0038L36.859 25.0043L36.8606 25.0061L36.8611 25.0066C37.424 25.5885 37.9832 26.1638 38.5455 26.7368L36.351 29.223L35.7788 25.8981C35.7743 25.8711 35.7612 25.8478 35.7429 25.8305H35.7428L35.7407 25.8285H35.7406L35.7386 25.8266H35.7383L35.7363 25.8248L35.736 25.8246L35.7341 25.8228H35.7337L35.7294 25.8194L35.7289 25.8191L35.7196 25.8132L35.7189 25.8129C35.6955 25.7996 35.6675 25.7939 35.6389 25.7988C35.6181 25.8023 35.5996 25.811 35.5841 25.8233L32.5598 28.0354L33.9489 25.5972C33.9819 25.539 33.9614 25.4651 33.9033 25.4321C33.8452 25.399 33.7712 25.4195 33.7382 25.4777L32.1508 28.264L29.188 25.0739C29.1481 25.0311 29.0842 25.0236 29.0361 25.0531L24.4874 27.4299ZM32.8861 36.8182L28.8238 37.2168L32.9012 34.2162L32.8861 36.8182ZM29.9075 40.0731L21.1489 42.8646L28.4423 37.4974L32.8846 37.0616L32.8417 44.4259L29.0521 48.1225L30.0682 40.204L30.0685 40.2023L30.0686 40.2013L30.0689 40.1993L30.0689 40.1983L30.0691 40.1961V40.1953L30.0694 40.1929V40.1924L30.0695 40.1869V40.1864V40.1837L30.0694 40.1835L30.0694 40.1807L30.0693 40.1805L30.0691 40.1778L30.0691 40.1775L30.0689 40.1748L30.0688 40.1746L30.0685 40.1718L30.0685 40.1713L30.0681 40.1689L30.068 40.1684L30.0676 40.1659L30.0675 40.1654L30.0671 40.1629L30.0669 40.1624L30.0665 40.1602L30.0662 40.1595C30.0653 40.1555 30.0642 40.1515 30.0628 40.1476L30.0623 40.1461L30.0618 40.1446L30.0594 40.1389L30.059 40.1379L30.0582 40.1362L30.0578 40.1352L30.0569 40.1332L30.0565 40.1325L30.0555 40.1308L30.0552 40.13L30.0541 40.128L30.0526 40.1253L30.0523 40.1248L30.051 40.1228L30.0508 40.1223L30.0494 40.1204L30.0492 40.1201L30.0477 40.1179L30.0476 40.1176L30.046 40.1154H30.0459L30.0442 40.1132L30.0441 40.1129L30.0424 40.1107H30.0423L30.0405 40.1085H30.0404L30.0386 40.1063H30.0385L30.0366 40.104L30.0346 40.1021H30.0345L30.0325 40.1001L30.0324 40.0998L30.0304 40.0981L30.0303 40.0979L30.0282 40.0961H30.0281L30.026 40.0941H30.0259L30.0214 40.0904H30.0213L30.0191 40.0887H30.019C30.0136 40.085 30.0077 40.0815 30.0016 40.0783H30.0014L29.9909 40.0738L29.9905 40.0736L29.9826 40.0709L29.9819 40.0706L29.977 40.0694L29.9759 40.0691L29.9741 40.0689L29.9713 40.0682L29.9699 40.0679L29.9684 40.0677L29.9655 40.0672L29.9637 40.0669H29.9626L29.9606 40.0667H29.9597L29.9575 40.0664H29.9567L29.9544 40.0662H29.9538H29.9483H29.9478H29.9453H29.9449H29.9423H29.9419L29.9392 40.0664H29.9389L29.9363 40.0667H29.9359L29.9333 40.0669L29.9329 40.0672L29.9303 40.0674H29.9299L29.9274 40.0679H29.9269L29.9245 40.0684L29.924 40.0687L29.9216 40.0691L29.9209 40.0694C29.9173 40.0701 29.9137 40.0711 29.9103 40.0724L29.9075 40.0731ZM33.1267 37.0379L38.6524 36.4958L33.0856 44.104L33.1267 37.0379ZM28.3521 37.263L18.9929 38.1813L32.4025 34.2822L28.3521 37.263ZM38.734 47.0036L41.2018 47.7427L40.24 49.4361L38.734 47.0036ZM43.4581 44.2611L43.0079 48.0305L41.5629 47.5977L43.4581 44.2611ZM41.3248 47.5265L38.7606 46.7584L43.3165 44.0199L41.3248 47.5265ZM16.7489 28.4743L18.3382 31.4912L16.1093 33.2025L16.7489 28.4743ZM18.648 31.5593L21.3852 29.4578L19.2698 32.7395L18.648 31.5593ZM36.1233 29.3299L32.4546 28.4125L35.573 26.1316L36.1233 29.3299ZM39.919 28.1249L36.8971 31.9109L36.4052 29.5276L38.7154 26.9098C39.1139 27.3153 39.5144 27.7199 39.919 28.1249ZM39.4769 23.4771L39.9256 27.7879L38.7909 26.653L37.1388 24.9452L39.4769 23.4771ZM40.1961 28.0472L39.7465 23.7279L45.033 31.3541L40.1961 28.0472ZM34.0538 19.9918L32.5131 24.4426L31.1377 21.2752L34.0538 19.9918ZM27.5905 15.8819C27.5571 15.8928 27.5288 15.9179 27.515 15.9531L23.3294 26.5869L25.4349 8.85621L30.5158 14.9198L27.5932 15.881L27.593 15.8811L27.5905 15.8819ZM15.8582 33.2527L14.3494 32.0766L16.4721 28.7141L15.8582 33.2527ZM4.12353 22.2712C4.05771 22.2602 3.99511 22.3049 3.98422 22.3708C3.97309 22.4368 4.01787 22.4994 4.08369 22.5103L9.00287 23.3465L9.11298 23.1462L4.72478 18.2322L13.1137 22.4934C13.1733 22.5235 13.2461 22.4994 13.2763 22.4397C13.3064 22.38 13.2822 22.3071 13.2226 22.277L4.38506 17.7877L14.9528 2.64053C14.9909 2.58577 14.9776 2.51028 14.9229 2.47205C14.8682 2.43382 14.7928 2.4472 14.7544 2.50194L4.6748 16.9493L7.95401 8.40143C7.97776 8.33881 7.94634 8.26863 7.88374 8.24481C7.82114 8.22098 7.75111 8.25245 7.72711 8.31505L4.0926 17.7896L4.17672 17.8341L4.11586 17.9134L8.70224 23.0495L4.12353 22.2712ZM9.11149 17.5606C9.08873 17.6234 9.12114 17.693 9.18399 17.7157C9.24708 17.7385 9.31661 17.706 9.33913 17.6431L13.1216 7.28077L13.1246 7.27292C13.1355 7.24289 13.1337 7.21126 13.1221 7.18397C13.1092 7.15423 13.0847 7.12959 13.0518 7.11776C12.9892 7.09502 12.9195 7.12751 12.8969 7.19041L9.11149 17.5606ZM34.7719 13.7752L34.1476 15.4814L32.8632 14.4491L32.8673 14.4016L34.7719 13.7752ZM30.6835 15.1199L32.1894 16.917L28.0798 15.9763L30.6835 15.1199ZM36.6623 17.5495L34.3467 15.6431L35.0655 13.6786L38.5074 12.5465L36.6623 17.5495ZM32.639 14.2215L32.5972 14.2352L25.4289 8.47311L25.4278 8.47215L25.4223 8.46762L25.4222 8.46747L25.4217 8.46715L20.6024 4.04757L23.9489 0.256482L33.5117 3.98254L32.639 14.2215ZM32.3228 14.3254L30.7638 14.8382L25.9287 9.06793C27.9582 10.7908 30.0096 12.4642 32.3228 14.3254ZM27.7998 16.2344L33.9894 19.755L30.9706 21.0837L28.6454 20.3828L27.7998 16.2344ZM33.8812 19.4147L28.4039 16.2992L32.44 17.2232L33.8812 19.4147ZM30.9316 15.0383L32.5481 14.5066L32.6104 14.5568L32.4181 16.8124L30.9316 15.0383ZM5.45223 54.8427C5.44283 54.7767 5.38147 54.7304 5.31516 54.7398C5.24884 54.7492 5.20282 54.8108 5.21222 54.8769L6.08294 60.9575C6.09234 61.0235 6.1537 61.0698 6.22001 61.0604C6.28632 61.051 6.33234 60.9894 6.32294 60.9233L5.45223 54.8427ZM32.8385 14.7401L34.0131 15.6843L32.6601 16.8329L32.8385 14.7401Z" fill="white"/>
<path fill-rule="evenodd" clip-rule="evenodd" d="M10.1494 43.5663L12.5376 52.9806L5.61424 54.6648L8.03461 51.2948L8.04897 51.2693L9.89208 46.7119L9.90049 46.6765L10.1494 43.5663ZM38.4932 4.14112C38.483 4.12843 38.47 4.11769 38.4547 4.10977L31.4973 0.528264C31.4817 0.519107 31.4637 0.513322 31.4443 0.51207L23.9182 0L23.8783 0.00378363L14.8162 2.46171L14.8172 2.69613L20.3871 4.17824L23.732 5.6963L15.1092 11.527L11.0144 12.1603L7.93367 8.29538C7.92303 8.28036 7.90917 8.26762 7.89209 8.25832C7.83296 8.22637 7.75922 8.2482 7.72731 8.30713L5.11617 13.1206L5.11493 13.1242C5.11072 13.1324 5.10775 13.141 5.10553 13.1499L5.10429 13.1529L4.08042 17.8125L4.07993 17.8157C4.07844 17.824 4.0777 17.8325 4.07794 17.841L3.97551 22.3932L3.97575 22.3948C3.97575 22.4022 3.97625 22.4096 3.97749 22.4168L3.97799 22.4202L5.00061 27.278L5.00086 27.2792C5.0021 27.2876 5.00433 27.2955 5.0073 27.3032V27.3037L5.00779 27.3049L5.00829 27.3062L5.00878 27.3074L8.6386 36.8184L9.96433 42.8352L9.65999 46.6394L7.82949 51.1659L5.2337 54.7799L0.172245 59.6931L0.273689 59.9002L13.8022 57.9648L14.5119 60.7615C14.528 60.8263 14.594 60.8659 14.6588 60.8498C14.7237 60.8335 14.7633 60.7677 14.7472 60.7026L14.0437 57.9304L21.7131 56.8333L35.3675 65L35.5483 64.8713L33.0975 53.1258L34.1845 49.8033L36.3411 49.9993L36.3582 49.9998L40.2492 49.7949L40.2985 49.7818L43.1657 48.2967L43.2221 48.2346L44.1437 45.9815L44.1512 45.9159L43.7737 43.6915L44.7397 40.9935L44.7382 40.9079L44.1274 39.3645L45.1161 38.3436L45.1479 38.234L44.7152 36.203L44.9352 35.0087L47.0331 34.0252L47.0957 33.9571L47.8027 32.038L47.7923 31.9331L45.0342 27.4254L43.9502 25.2901L44.5324 23.8342L45.7741 21.6881L45.7445 21.6637L45.7907 21.6274V19.067L45.7903 19.0641L45.7897 19.0552C45.789 19.0484 45.7878 19.0417 45.7861 19.0353L45.7859 19.0344L44.8215 15.6417L44.8203 15.6372L44.8195 15.6343L44.8193 15.6337L42.921 8.9556C42.9159 8.93066 42.9032 8.90745 42.8837 8.88983L38.4932 4.14112ZM31.0762 0.730098L26.4282 3.8731L20.4445 3.94266L15.3158 2.57795L23.9228 0.243382L31.0762 0.730098ZM26.0641 4.11927L23.9677 5.5368L20.9748 4.17851L26.0641 4.11927ZM15.3734 11.6412L23.9912 5.8139L25.3293 6.42122L20.9629 10.6806L20.9609 10.6827C20.9572 10.6862 20.9535 10.6899 20.9503 10.6939L20.95 10.694L20.9483 10.6963V10.6963L20.9463 10.6987L20.9411 10.7062L20.9409 10.7064L20.9396 10.7087L20.9367 10.7139L20.9364 10.7142L20.9327 10.7219L20.9325 10.7224C20.9273 10.734 20.924 10.7461 20.9226 10.7585V10.7593L20.9223 10.7613C20.9208 10.7808 20.9238 10.8005 20.9312 10.8186L20.9315 10.8192L20.9325 10.8213C20.9399 10.8376 20.9508 10.8525 20.9651 10.8646L20.9654 10.8647L20.9676 10.8667L27.549 16.0978C27.6014 16.1395 27.6777 16.1308 27.7193 16.0784C27.761 16.026 27.7523 15.9497 27.6999 15.908L21.2262 10.7624L25.5661 6.5287L31.1268 9.05239L30.8545 21.2154C30.8533 21.2821 30.9064 21.3375 30.9732 21.3387C31.04 21.3399 31.0952 21.2868 31.0965 21.22L31.3664 9.16114L38.5894 12.4393L38.995 19.7394L39.1278 19.8533L43.3514 19.4243L43.8418 21.1744L42.7974 22.0375V22.038C42.7702 22.0607 42.753 22.0951 42.7537 22.1333L42.7872 23.6742C42.7861 23.6961 42.791 23.7185 42.8025 23.739L43.7116 25.3552L43.7121 25.3562C44.9372 27.7689 46.1173 29.6597 47.5548 32.0093L46.8851 33.8272L44.8154 34.7976L43.6534 34.5054L43.6263 34.5022C43.1544 34.4916 42.765 34.4864 42.371 34.4916C42.3365 34.4698 42.2917 34.4658 42.2523 34.4851C42.2472 34.4879 42.2423 34.4906 42.2376 34.4938C41.9455 34.4995 41.6456 34.5114 41.303 34.5314C41.2362 34.5354 41.1852 34.5928 41.1891 34.6596C41.1929 34.7264 41.2504 34.7774 41.3171 34.7734L42.233 34.7194L44.1011 38.4851L44.3293 38.4517L44.6045 36.8474L44.8972 38.2211L43.8989 39.2519L43.8728 39.381L44.4956 40.9547L43.5345 43.6391L43.5294 43.6999L43.9066 45.9226L43.0153 48.1017L40.2105 49.5544L36.3533 49.7573L34.121 49.5544L28.9173 48.3358L24.1012 46.5409L30.0154 40.2911L38.9557 36.4628L38.9534 36.2389L33.066 33.8663L32.9122 33.9249L29.8444 40.1201L23.8852 46.4175L20.5648 43.1195C20.5175 43.0722 20.4408 43.0725 20.3936 43.1197C20.3465 43.1672 20.3468 43.2439 20.394 43.2912L23.6947 46.5694L14.7266 52.2586C14.6702 52.2944 14.6534 52.3697 14.6893 52.4261C14.6955 52.436 14.7029 52.4444 14.711 52.4518L12.7734 52.9232L10.2056 42.801L10.2053 42.8003L8.87415 36.758L8.86895 36.741L5.62092 28.2308L8.11676 31.9814L8.13309 31.9717L8.12988 31.998L11.4017 35.4462L11.61 35.3764L11.8856 32.9647L14.8132 36.1325L15.0213 36.0291L14.302 32.0868L14.2835 32.0747L14.2949 32.0616L12.9122 28.7579L13.2574 25.3797L13.2463 25.373L13.2581 25.3683L13.2834 22.3909C13.2839 22.3241 13.2302 22.2694 13.1634 22.2689C13.0966 22.2684 13.0419 22.3221 13.0414 22.3889L13.0186 25.0815L11.6271 23.7178L11.5766 23.7246L11.5689 23.686L9.14088 23.1356L9.34006 17.6115C9.34229 17.5447 9.29008 17.4886 9.22327 17.4863C9.1587 17.484 9.10376 17.533 9.09832 17.5967C9.05527 17.5781 9.00331 17.5854 8.96718 17.6197L4.22393 22.1085L4.31845 17.9098L11.879 13.6342L15.6453 18.3592L16.5408 28.194C16.547 28.2605 16.6059 28.3095 16.6722 28.3036C16.7387 28.2976 16.788 28.2388 16.7818 28.1722L15.9197 18.7034L22.999 27.5848C23.0408 27.6372 23.117 27.6459 23.1694 27.6041C23.2218 27.5625 23.2305 27.4861 23.1889 27.4339L15.8797 18.2642L15.2987 11.8823L28.4699 20.5834L28.4711 20.5842L28.4725 20.5851L28.4737 20.5859L28.4764 20.5875L34.0449 24.1849L32.499 24.6608L29.0827 25.0405L29.0865 25.282L33.825 25.6623L35.6324 26.0413L35.7311 26.0186L37.0199 25.0224L37.0332 24.8425L35.9627 23.7337L35.9607 23.7315L35.9597 23.7304L35.9586 23.7294L35.9575 23.7282L35.9566 23.7274L35.9553 23.726L35.9544 23.7253L35.953 23.724L35.9523 23.7233L35.9506 23.722L35.9501 23.7215L35.9483 23.72L35.9478 23.7196L35.9459 23.7181L35.9455 23.7178L35.9434 23.7163L35.9431 23.7161L35.941 23.7145L35.9408 23.7145L35.9359 23.7113L35.9334 23.7098L35.9334 23.7097L35.9309 23.7083L35.9307 23.7082L35.9283 23.707L35.9281 23.7069L35.9257 23.7057L35.9255 23.7055L35.9231 23.7044L35.9228 23.7043L35.9204 23.7033L35.9202 23.7031L35.9178 23.7021L35.9174 23.7019L35.915 23.701L35.9146 23.7009L35.9123 23.7001L35.9119 23.6999L35.9095 23.6991L35.9091 23.6989L35.9067 23.6983L35.9063 23.6981L35.9039 23.6975L35.9035 23.6973L35.9011 23.6967L35.9007 23.6966L35.8982 23.6961L35.8978 23.696L35.8954 23.6955L35.8949 23.6954L35.8925 23.6949H35.892L35.8895 23.6945H35.8892L35.8866 23.6941H35.8863L35.8836 23.6938H35.8835L35.8777 23.6934H35.8776C35.8718 23.6931 35.866 23.6934 35.8602 23.6939H35.8597L35.8573 23.6942L35.8567 23.6943L35.8544 23.6946L35.8536 23.6947L35.8515 23.6951L35.8506 23.6952L35.8487 23.6957L35.8458 23.6962L35.8445 23.6965L35.843 23.6969L35.8415 23.6972L35.8401 23.6977L34.3497 24.0933L28.6075 20.3838L28.6049 20.382L15.3734 11.6412ZM24.227 5.65448L26.5049 4.11413L27.7087 4.10015L25.5157 6.23936L24.227 5.65448ZM26.8689 3.86791L30.3814 1.49285L27.9597 3.85524L26.8689 3.86791ZM31.7992 0.956178L37.8267 4.05902L33.7049 3.79306L31.7992 0.956178ZM31.3723 8.8974L31.4807 4.05625L33.6066 4.03156L42.5961 9.00427L40.9348 10.5233C40.8957 10.5543 40.8807 10.605 40.8935 10.6507V10.6508L43.2851 19.1875L39.2299 19.5995L38.8276 12.3585C38.8276 12.3499 38.8265 12.3413 38.8247 12.3329L38.8243 12.3312C38.8234 12.3274 38.8222 12.3235 38.8209 12.3197L38.8207 12.3189L38.8188 12.3141L38.8186 12.3135C38.8073 12.2856 38.7857 12.2618 38.7562 12.2486L31.3723 8.8974ZM31.4861 3.81419L31.5487 1.01749L33.4124 3.79185L31.4861 3.81419ZM25.7526 6.34686L28.0598 4.09606L31.2386 4.0591L31.1327 8.78866L25.7526 6.34686ZM28.3109 3.85118L31.3087 0.926776L31.244 3.81704L28.3109 3.85118ZM34.1701 4.06605L38.3435 4.33538L42.2027 8.50941L34.1701 4.06605ZM44.0914 21.3693L45.4129 21.6898L43.9907 22.9264L44.0914 21.3693ZM42.7391 9.20107L44.4023 15.053L41.1719 10.634L42.7391 9.20107ZM44.5932 15.7247L45.5131 18.9612L43.5298 19.1626L41.3075 11.2301L44.5932 15.7247ZM45.5478 19.2012V21.4733L44.0773 21.1168L43.5962 19.3994L45.5478 19.2012ZM12.5972 53.2154L13.7424 57.7285L0.608711 59.6073L5.38611 54.9697L12.5972 53.2154ZM13.9838 57.6939L12.833 53.158L14.7774 52.6849L21.3825 56.6356L13.9838 57.6939ZM32.8735 53.031L26.7425 55.8688L21.7633 56.5812L14.8674 52.4568L23.9022 46.725L28.8571 48.5709L33.943 49.762L32.8735 53.031ZM5.22058 27.1463L4.22888 22.4366L9.08966 17.8366L8.89666 23.1958L6.45947 27.2475L5.22058 27.1463ZM4.37585 17.599L5.32376 13.2853L10.912 12.421L11.726 13.4423L4.37585 17.599ZM5.44624 13.0216L7.85349 8.58391L10.7383 12.2031L5.44624 13.0216ZM22.0939 56.7786L26.7943 56.1064L26.828 56.0965L32.8848 53.2931L35.2546 64.6504L22.0939 56.7786ZM43.0027 22.4523C43.2244 22.6967 43.4404 22.9334 43.6607 23.1684L43.0252 23.4861L43.0027 22.4523ZM43.8343 23.352C43.9793 23.5043 44.1273 23.6565 44.281 23.8102L43.7989 25.0157L43.0764 23.731L43.8343 23.352ZM44.6876 35.0156L44.4737 36.1771L44.4721 36.1847L44.1531 38.0444L42.5035 34.7192L43.6063 34.7437L44.6876 35.0156ZM45.2005 22.1955L44.3976 23.5833L44.0287 23.2144L45.2005 22.1955ZM43.8406 21.49L43.7485 22.9153L43.0495 22.1438L43.8406 21.49ZM15.0518 11.84L15.6055 17.9201L12.0927 13.5133L15.0518 11.84ZM11.1881 12.3783L14.5186 11.8632L11.9398 13.3215L11.1881 12.3783ZM6.76159 27.3544L11.1503 24.2318L8.75093 28.3093L6.76159 27.3544ZM5.36013 27.4012L6.42904 27.4883L7.05479 29.8532L7.0637 29.8765L7.23442 30.2179L5.36013 27.4012ZM6.92761 26.939L9.07507 23.3689L11.2515 23.8624L6.92761 26.939ZM8.26497 31.7384L7.43138 30.0707L9.43854 30.9664L8.26497 31.7384ZM7.24061 29.6078L6.70863 27.5972L8.57674 28.4941L7.24061 29.6078ZM9.1921 28.0366L11.5679 23.999L12.9491 25.3527L9.1921 28.0366ZM11.3984 35.0908L8.40527 31.9359L9.68127 31.0963L11.6671 32.7398L11.3984 35.0908ZM9.75005 30.7559L8.97609 28.602L12.4421 28.8712L9.75005 30.7559ZM8.74351 28.67L9.47986 30.7195L7.39872 29.7909L8.74351 28.67ZM9.97423 30.8944L12.7346 28.9617L13.9769 31.9297L9.97423 30.8944ZM12.6801 28.6463L9.14038 28.3714L12.9892 25.6217L12.6801 28.6463ZM10.1863 31.1993L13.6852 32.1044L11.8258 32.5562L10.1863 31.1993ZM12.0239 32.7571L14.0868 32.256L14.7083 35.6622L12.0239 32.7571ZM10.7885 39.0886C10.722 39.0958 10.674 39.1559 10.6814 39.2224C10.6886 39.289 10.7487 39.337 10.815 39.3296L17.7154 38.5519C17.7819 38.5447 17.8299 38.4846 17.8225 38.418C17.8153 38.3515 17.7552 38.3035 17.6889 38.3109L10.7885 39.0886ZM34.3602 24.3413L35.8346 23.9498L36.7648 24.9133L35.6273 25.7924L33.8849 25.4272L32.8241 24.8141L34.3602 24.3413ZM30.3697 25.1414L32.4969 24.9051L33.315 25.3777L30.3697 25.1414ZM40.9892 32.0497L45.0383 32.1004L40.9669 33.8309L40.2914 32.9803L40.9892 32.0497ZM45.6172 31.8656L40.9307 31.8069L40.8325 31.8554L40.0893 32.8464L36.8567 32.0739C36.7918 32.0586 36.7264 32.0987 36.711 32.1635C36.6956 32.2286 36.7357 32.2939 36.8007 32.3092L40.0692 33.0904L40.8344 34.0541L40.9768 34.0902L45.6632 32.0982L45.6172 31.8656ZM38.5926 36.355L30.1998 39.9484L33.0797 34.133L38.5926 36.355ZM41.0088 43.0155C41.0447 42.9589 41.0279 42.8839 40.9714 42.848C40.9148 42.8122 40.8398 42.829 40.8039 42.8854L38.526 46.4689L37.8167 42.4962C37.8049 42.4301 37.7417 42.3861 37.6758 42.398C37.6098 42.4098 37.5658 42.4729 37.5776 42.5387L38.3417 46.8186L38.5637 46.8621L41.0088 43.0155Z" fill="white" fill-opacity="0.6"/>
<path fill-rule="evenodd" clip-rule="evenodd" d="M45.652 19.1747C45.7162 19.1935 45.7836 19.1568 45.8024 19.0926C45.8212 19.0285 45.7845 18.961 45.7203 18.9422L34.484 15.6317C36.6996 13.9953 38.9029 12.3663 41.0995 10.7067L41.042 10.4898L26.9891 8.65293L38.4577 4.32289C38.5203 4.29933 38.5519 4.22937 38.5284 4.16678C38.5049 4.10418 38.4349 4.07251 38.3723 4.09605L26.4794 8.58635L25.7347 8.48896L33.7121 4.00804C33.7705 3.97534 33.7914 3.90131 33.7587 3.84292C33.726 3.78453 33.6519 3.76366 33.5935 3.79636L25.2981 8.45593L25.3418 8.68178L25.999 8.76774L21.0982 10.6181L14.9569 2.4979C14.9166 2.44447 14.8406 2.43387 14.7872 2.47414C14.7837 2.47676 14.7803 2.47958 14.7773 2.4824L7.76805 8.26353L7.87049 8.4756L12.9495 7.36934L15.0581 11.6871L15.1848 11.754L20.4459 10.9763L9.00051 17.5941L8.97007 17.7787L11.4211 20.569L8.94013 23.1388C8.89386 23.187 8.89535 23.2637 8.9436 23.3101C8.9916 23.3564 9.06855 23.355 9.11482 23.3068L11.5817 20.7517L13.075 22.4519L16.5699 28.2367L16.5702 28.2369C16.5947 28.2772 16.6399 28.2993 16.686 28.2946L23.1121 27.6216L23.1221 27.6208C23.1348 27.6193 23.1468 27.6159 23.1579 27.6109L29.1544 25.265L29.2299 25.172L29.6107 22.8871L29.4451 22.7553L25.7533 24.2838L28.6481 20.5485C28.6889 20.4956 28.6791 20.4195 28.6262 20.3786C28.5734 20.3378 28.4972 20.3476 28.4564 20.4004L25.3021 24.4706L22.9764 25.4336L22.1337 18.5577L27.6874 16.1055C27.7487 16.0785 27.7765 16.0068 27.7495 15.9456C27.7225 15.8843 27.6509 15.8565 27.5896 15.8834L22.1027 18.3061L21.2008 10.9467L34.1739 15.7925L34.1819 15.7952V15.7953L45.652 19.1747ZM10.7048 39.2594L14.688 52.3864L14.9067 52.4153L20.3596 43.6395L26.683 56.0313L26.8705 56.0679L34.1937 49.7557C34.2442 49.7122 34.2497 49.6354 34.206 49.585C34.1623 49.5345 34.0857 49.5288 34.0351 49.5726L26.8292 55.7838L20.509 43.3987L20.5954 43.2597C20.6199 43.2206 20.6191 43.1726 20.5974 43.135L20.5964 43.1332L20.5949 43.1307L18.0233 38.7116L40.205 49.773C40.265 49.8027 40.3379 49.7782 40.3678 49.7183C40.3977 49.6585 40.3732 49.5855 40.3132 49.5555L17.7687 38.3135C17.7086 38.2836 17.6359 38.3081 17.6059 38.368L17.6032 38.3736L14.566 44.0403L10.9814 39.2231L14.9883 36.1371L14.8864 35.9231L13.2296 36.3187L11.5666 35.2516L11.4451 35.2459L8.86763 36.5857L8.3646 32.0308L14.1911 32.2201C14.2579 32.222 14.3138 32.1696 14.3158 32.1028C14.3178 32.036 14.2653 31.98 14.1985 31.9781L8.23248 31.7843L8.10827 31.9187L8.64618 36.7884C8.64866 36.8114 8.65781 36.8341 8.67414 36.8532L10.7048 39.2594ZM20.2307 43.3871L14.8419 52.06L11.1306 39.8293L14.4851 44.3377C14.4957 44.3516 14.5093 44.3637 14.5256 44.3724C14.5504 44.3857 14.5779 44.3892 14.6036 44.3847L20.221 43.3678L20.2307 43.3871ZM20.2764 43.1119C20.27 43.1124 20.2636 43.1137 20.2574 43.1154L14.8075 44.1019L17.7187 38.6703L20.3009 43.1075L20.2764 43.1119ZM43.3639 42.8853L44.7399 41.0147L44.6137 40.8254L42.6895 41.2921L40.012 41.3671L37.8678 40.1141L44.0152 39.4477C44.0818 39.4406 44.13 39.3809 44.1229 39.3144C44.1159 39.2478 44.0561 39.1996 43.9896 39.2067L38.3414 39.8189C39.7872 39.2298 41.0998 38.6698 42.5642 37.9956L44.1886 38.5369L44.2512 38.5407L45.0708 38.3682C45.1363 38.3548 45.1784 38.2905 45.1648 38.2249C45.1512 38.1596 45.087 38.1176 45.0215 38.1309L44.2333 38.2967L42.5947 37.7506L42.506 37.7553L40.2808 38.7802L37.7029 39.8167L39.0237 36.4204L41.3961 34.7424C41.4502 34.7045 41.4636 34.6303 41.4269 34.5756L41.0509 33.9102C41.0182 33.8521 40.9443 33.8316 40.8862 33.8642C40.8281 33.8969 40.8074 33.9706 40.8401 34.0288L41.1087 34.5038L33.4999 33.8855L36.8955 32.2923L36.8699 32.0639L32.7881 31.1774L32.4157 28.3668L32.2553 28.2678L27.5135 29.939L26.397 29.1541L26.2124 29.2912L26.3764 29.7846L21.9001 28.8122C21.8345 28.7981 21.7699 28.8399 21.7558 28.9052C21.7417 28.9708 21.7833 29.0354 21.8489 29.0497L26.4655 30.0523L26.5416 30.2814L19.2268 32.8592L19.1994 33.0742L29.8737 40.268L32.8755 44.5391L33.0596 44.5557L37.3913 40.2989L37.5923 42.5189L37.6967 42.628L40.9064 43.061L40.9288 43.062L43.2724 42.9348L43.3639 42.8853ZM44.3475 41.1392L43.2025 42.6958L40.9272 42.8195L37.8246 42.4008L37.6305 40.2568L39.9189 41.594L39.9834 41.61L42.7091 41.5336L42.7342 41.5304L44.3475 41.1392ZM37.3853 39.9651L32.9918 44.2828L30.0687 40.124L26.8464 30.4314L27.3662 30.248L27.6054 30.3L32.9661 34.0686L33.0072 34.0723L33.0263 34.0906L40.9836 34.7372L38.8544 36.243L38.8112 36.2987L37.3853 39.9651ZM26.7403 30.1122L26.9147 30.15L26.7698 30.201L26.7403 30.1122ZM28.2155 30.4326L32.5705 31.3785L32.8795 33.7113L28.2155 30.4326ZM32.8219 31.433L36.4686 32.2252L33.1341 33.7897L32.8219 31.433ZM32.5366 31.1227L27.8024 30.0944L32.1953 28.5462L32.5366 31.1227ZM27.094 29.9405L26.6513 29.8445L26.5579 29.5636L27.094 29.9405ZM26.6181 30.5118L29.7329 39.8805L19.5351 33.0076L26.6181 30.5118ZM47.7057 32.1082C47.7725 32.1085 47.8269 32.0545 47.8271 31.9877C47.8274 31.9209 47.7734 31.8665 47.7066 31.8662L45.6332 31.8566L45.534 32.0473L46.9004 33.9761C46.9389 34.0305 47.0144 34.0434 47.0689 34.005C47.1233 33.9664 47.1363 33.8909 47.0978 33.8365L45.8673 32.0996L47.7057 32.1082ZM23.192 27.1933L23.0068 25.6829L25.003 24.8564L23.192 27.1933ZM22.7436 25.5299L16.7238 28.0224L13.3494 22.4364L21.9016 18.6602L22.7436 25.5299ZM17.4911 27.9667L22.774 25.7794L22.9717 27.3927L17.4911 27.9667ZM23.472 27.2276L25.4543 24.6696L29.3357 23.0626L29.002 25.0642L23.472 27.2276ZM8.95721 36.8126L11.4949 35.4936L13.1423 36.5508L13.2358 36.5669L14.3918 36.291L10.8312 39.0331L8.95721 36.8126ZM11.7502 20.5769L20.1663 11.8597L13.1618 22.1838L11.7502 20.5769ZM20.3687 11.3009L11.5899 20.3942L9.24967 17.73L20.3687 11.3009ZM21.8709 18.4086L13.5112 22.0998L20.9749 11.0986L21.8709 18.4086ZM14.8936 2.81631L20.6785 10.4652L13.1724 7.16677L14.8936 2.81631ZM20.6221 10.705L15.2375 11.501L13.2709 7.47457L20.6221 10.705ZM41.5653 24.2207C41.6271 24.2463 41.6981 24.2171 41.7238 24.1552C41.7494 24.0934 41.7201 24.0224 41.6583 23.9968L39.7025 23.1819L39.2522 19.7109C39.2456 19.6499 39.1936 19.6027 39.1309 19.6032L34.2706 19.6445L34.1591 19.8106L35.7753 23.8508L35.9826 23.8812L39.0487 20.0237L39.4715 23.2822L39.5451 23.379L41.5653 24.2207ZM38.8791 19.8473L35.9227 23.5669L34.4499 19.8849L38.8791 19.8473ZM21.4005 10.7629L26.5088 8.83432L40.7171 10.6915L38.6491 12.254L34.1968 15.5427L21.4005 10.7629ZM14.5741 2.96354L12.9277 7.12564L8.30795 8.13184L14.5741 2.96354Z" fill="white" fill-opacity="0.4"/>
</svg>
