<svg width="233" height="46" viewBox="0 0 233 46" fill="none" xmlns="http://www.w3.org/2000/svg">
<path fill-rule="evenodd" clip-rule="evenodd" d="M177.896 45.5C190.074 45.5 199.946 35.4263 199.946 22.9999C199.946 10.5735 190.074 0.5 177.896 0.5C165.718 0.5 155.846 10.5735 155.846 22.9999C155.846 35.4263 165.718 45.5 177.896 45.5ZM162.786 23.6252C162.948 23.4826 163.154 23.4074 163.405 23.3995H165.752C166.453 23.3995 167.054 23.158 167.555 22.6749C168.056 22.1879 168.313 21.5524 168.324 20.7684C168.317 20.0795 168.062 19.4935 167.561 19.0104C167.06 18.5234 166.459 18.2799 165.757 18.2799H160.693V19.9785H165.619C165.869 19.9864 166.074 20.0617 166.232 20.2042C166.393 20.3428 166.472 20.5546 166.469 20.8397C166.469 21.1248 166.388 21.3386 166.226 21.4811C166.068 21.6197 165.863 21.693 165.613 21.7009H163.266C162.564 21.7009 161.963 21.9444 161.462 22.4314C160.961 22.9145 160.705 23.5282 160.693 24.2726L160.687 26.8205H168.267V25.1219H162.543V24.2726C162.547 23.9796 162.628 23.7638 162.786 23.6252ZM171.839 25.1159C171.612 25.108 171.421 25.0466 171.267 24.9318L175.256 21.8553V23.8449L175.262 24.2547C175.262 24.5398 175.181 24.7536 175.019 24.8962C174.861 25.0347 174.657 25.108 174.406 25.1159H171.839ZM174.406 19.9785C174.634 19.9864 174.824 20.0478 174.979 20.1626L170.99 23.2391V20.8397C170.986 20.5546 171.063 20.3428 171.221 20.2042C171.383 20.0617 171.589 19.9864 171.839 19.9785H174.406ZM169.134 20.7684C169.134 20.7961 169.136 21.392 169.14 22.5561C169.136 23.7083 169.134 24.2983 169.134 24.326C169.141 25.015 169.396 25.6029 169.897 26.0899C170.398 26.573 170.999 26.8145 171.701 26.8145H174.545C175.246 26.8145 175.848 26.573 176.349 26.0899C176.85 25.6029 177.104 25.015 177.112 24.326C177.112 24.2983 177.11 23.7083 177.106 22.5561C177.11 21.392 177.112 20.7961 177.112 20.7684C177.104 20.0795 176.85 19.4935 176.349 19.0104C175.848 18.5234 175.246 18.2799 174.545 18.2799H171.701C170.999 18.2799 170.398 18.5234 169.897 19.0104C169.396 19.4935 169.141 20.0795 169.134 20.7684ZM180.633 23.3995C180.382 23.4074 180.176 23.4826 180.014 23.6252C179.856 23.7638 179.775 23.9796 179.771 24.2726V25.1219H185.495V26.8205H177.915L177.921 24.2726C177.933 23.5282 178.189 22.9145 178.69 22.4314C179.191 21.9444 179.792 21.7009 180.494 21.7009H182.841C183.092 21.693 183.296 21.6197 183.454 21.4811C183.616 21.3386 183.697 21.1248 183.697 20.8397C183.701 20.5546 183.622 20.3428 183.46 20.2042C183.302 20.0617 183.097 19.9864 182.847 19.9785H177.921V18.2799H182.986C183.687 18.2799 184.288 18.5234 184.789 19.0104C185.29 19.4935 185.545 20.0795 185.552 20.7684C185.541 21.5524 185.285 22.1879 184.784 22.6749C184.282 23.158 183.681 23.3995 182.98 23.3995H180.633ZM193.398 22.4314C192.897 21.9444 192.295 21.7009 191.594 21.7009H188.379L188.385 19.9785H194.109V18.2799H186.529L186.535 23.3995H191.455C191.706 23.4074 191.91 23.4826 192.068 23.6252C192.23 23.7638 192.311 23.9756 192.311 24.2607C192.315 24.5458 192.236 24.7596 192.074 24.9021C191.916 25.0407 191.711 25.1139 191.461 25.1219H186.535V26.8205H191.6C192.301 26.8205 192.902 26.5789 193.403 26.0959C193.904 25.6089 194.159 25.0209 194.166 24.3319C194.155 23.548 193.899 22.9145 193.398 22.4314Z" fill="white" fill-opacity="0.5"/>
<path d="M232.731 44.8232H207.955V27.2227H232.731V44.8232ZM70.1953 44.8174H61.3369L50.6387 20.5703L39.9346 44.8174H31.0762L50.6406 0.5L70.1953 44.8174ZM6.95508 22.8564L25.207 44.75L14.498 44.5244L0.268555 26.9482V17.748L14.5635 0.961914H25.207L6.95508 22.8564ZM134.44 18.2197C140.243 18.2198 141.614 19.4294 145.226 22.3936C147.614 24.8187 148.782 27.7951 148.739 31.334C148.676 35.2161 147.306 38.4012 144.61 40.8887C141.914 43.3764 138.676 44.625 134.907 44.625H118.856V35.9033H134.153C135.501 35.8617 136.606 35.4346 137.466 34.6123C138.326 33.7902 138.772 32.6139 138.793 31.084C138.793 29.7206 138.368 28.638 137.519 27.8262C136.669 27.0145 135.64 26.598 134.44 26.5771H119.133V18.2197H134.44ZM99.7637 0.961914C103.442 0.961959 106.602 2.20107 109.234 4.69922C111.866 7.1866 113.193 10.2986 113.234 14.0352C113.172 18.0631 111.835 21.321 109.203 23.8086C106.571 26.3066 103.411 27.5449 99.7324 27.5449H73.9629V18.8232H98.9961C100.312 18.7919 101.39 18.3545 102.229 17.5322C103.069 16.7099 103.494 15.6173 103.505 14.2539C103.515 12.8904 103.1 11.7979 102.261 10.9756C101.422 10.1533 100.343 9.71587 99.0273 9.68457H73.9941V0.961914H99.7637ZM232.731 18.5625H207.955V0.961914H232.731V18.5625ZM145.415 9.68457H118.889V0.961914H145.415V9.68457Z" fill="white"/>
</svg>
