<svg width="280" height="55" viewBox="0 0 280 55" fill="none" xmlns="http://www.w3.org/2000/svg">
<path fill-rule="evenodd" clip-rule="evenodd" d="M213.951 54.6012C228.619 54.6012 240.51 42.4675 240.51 27.5C240.51 12.5325 228.619 0.398926 213.951 0.398926C199.283 0.398926 187.392 12.5325 187.392 27.5C187.392 42.4675 199.283 54.6012 213.951 54.6012ZM195.751 28.2531C195.946 28.0814 196.194 27.9908 196.496 27.9812H199.323C200.168 27.9812 200.892 27.6903 201.496 27.1085C202.099 26.5219 202.408 25.7564 202.422 24.8121C202.413 23.9823 202.106 23.2765 201.503 22.6946C200.899 22.108 200.175 21.8147 199.33 21.8147H193.23V23.8607H199.163C199.465 23.8702 199.711 23.9608 199.901 24.1325C200.096 24.2995 200.191 24.5546 200.187 24.898C200.187 25.2414 200.089 25.4989 199.894 25.6706C199.704 25.8375 199.458 25.9257 199.156 25.9353H196.329C195.484 25.9353 194.76 26.2286 194.156 26.8152C193.553 27.397 193.244 28.1362 193.23 29.0328L193.223 32.1018H202.352V30.0558H195.459V29.0328C195.463 28.6799 195.561 28.42 195.751 28.2531ZM206.656 30.0487C206.382 30.0391 206.152 29.9652 205.966 29.8269L210.771 26.1213V28.5178L210.778 29.0114C210.778 29.3548 210.681 29.6123 210.486 29.784C210.295 29.9509 210.049 30.0391 209.748 30.0487H206.656ZM209.748 23.8607C210.021 23.8702 210.251 23.9442 210.437 24.0825L205.632 27.7881V24.898C205.627 24.5546 205.72 24.2995 205.911 24.1325C206.106 23.9608 206.354 23.8702 206.656 23.8607H209.748ZM203.397 24.8121C203.397 24.8455 203.399 25.5633 203.404 26.9654C203.399 28.3532 203.397 29.0638 203.397 29.0972C203.406 29.9271 203.713 30.6353 204.316 31.2219C204.92 31.8037 205.644 32.0946 206.489 32.0946H209.915C210.76 32.0946 211.484 31.8037 212.087 31.2219C212.691 30.6353 212.997 29.9271 213.006 29.0972C213.006 29.0638 213.004 28.3532 212.999 26.9654C213.004 25.5633 213.006 24.8455 213.006 24.8121C212.997 23.9823 212.691 23.2765 212.087 22.6946C211.484 22.108 210.76 21.8147 209.915 21.8147H206.489C205.644 21.8147 204.92 22.108 204.316 22.6946C203.713 23.2765 203.406 23.9823 203.397 24.8121ZM217.247 27.9812C216.945 27.9908 216.697 28.0814 216.502 28.2531C216.312 28.42 216.214 28.6799 216.21 29.0328V30.0558H223.103V32.1018H213.974L213.981 29.0328C213.995 28.1362 214.304 27.397 214.907 26.8152C215.511 26.2286 216.235 25.9353 217.08 25.9353H219.907C220.209 25.9257 220.455 25.8375 220.645 25.6706C220.84 25.4989 220.938 25.2414 220.938 24.898C220.942 24.5546 220.847 24.2995 220.652 24.1325C220.462 23.9608 220.216 23.8702 219.914 23.8607H213.981V21.8147H220.081C220.926 21.8147 221.65 22.108 222.254 22.6946C222.857 23.2765 223.164 23.9823 223.173 24.8121C223.159 25.7564 222.85 26.5219 222.247 27.1085C221.643 27.6903 220.919 27.9812 220.074 27.9812H217.247ZM232.622 26.8152C232.019 26.2286 231.295 25.9353 230.45 25.9353H226.578L226.585 23.8607H233.479V21.8147H224.35L224.357 27.9812H230.283C230.584 27.9908 230.831 28.0814 231.021 28.2531C231.216 28.42 231.313 28.6752 231.313 29.0185C231.318 29.3619 231.223 29.6194 231.028 29.7911C230.838 29.9581 230.591 30.0463 230.29 30.0558H224.357V32.1018H230.457C231.302 32.1018 232.026 31.8109 232.629 31.229C233.233 30.6424 233.539 29.9342 233.549 29.1044C233.535 28.1601 233.226 27.397 232.622 26.8152Z" fill="url(#paint0_linear_406_376)"/>
<path d="M280 53.7856H250.157V32.5864H280V53.7856ZM84.2266 53.7798H73.5566L60.6709 24.5737L47.7773 53.7798H37.1084L60.6738 0.398926L84.2266 53.7798ZM8.05371 27.3267L30.0391 53.6987L17.1396 53.4263L0 32.2563V21.1743L17.2188 0.955566H30.0391L8.05371 27.3267ZM161.608 21.7417C168.598 21.7417 170.249 23.1988 174.6 26.769C177.476 29.6901 178.883 33.2759 178.832 37.5386C178.755 42.2147 177.106 46.0511 173.858 49.0474C170.611 52.0438 166.71 53.5483 162.171 53.5483H142.838V43.0425H161.264C162.887 42.9923 164.217 42.4781 165.253 41.4878C166.289 40.4976 166.826 39.0806 166.852 37.2378C166.852 35.5956 166.34 34.2908 165.317 33.313C164.294 32.3352 163.053 31.8342 161.608 31.8091H143.171V21.7417H161.608ZM119.841 0.955566C124.272 0.955566 128.079 2.44749 131.249 5.45654C134.419 8.45261 136.016 12.2019 136.066 16.7026C135.991 21.5541 134.381 25.4779 131.211 28.4741C128.041 31.4829 124.234 32.975 119.804 32.9751H88.7646V22.4692H118.917C120.502 22.4315 121.8 21.905 122.812 20.9146C123.823 19.9241 124.334 18.6075 124.347 16.9653C124.359 15.323 123.859 14.0065 122.849 13.0161C121.838 12.0259 120.54 11.4992 118.955 11.4614H88.8018V0.955566H119.841ZM280 22.1558H250.157V0.955566H280V22.1558ZM174.827 11.4614H142.877V0.955566H174.827V11.4614Z" fill="white"/>
<defs>
<linearGradient id="paint0_linear_406_376" x1="213.738" y1="55.2132" x2="213.738" y2="0.398925" gradientUnits="userSpaceOnUse">
<stop stop-color="#00E0FF"/>
<stop offset="1" stop-color="#00FA9C"/>
</linearGradient>
</defs>
</svg>
